<svg width="330" height="60" viewBox="0 0 330 60" fill="none" xmlns="http://www.w3.org/2000/svg">
<g clip-path="url(#clip0_162_402)">
<path d="M20.3811 60V46.7337H13.7109V33.478H7.28419V60H0.529297V6.88196H13.8697V20.1376H20.4552V33.4039H26.9666V6.88196H33.7215V60H20.3811Z" fill="black"/>
<path d="M58.0416 13.6369V26.7443H71.2973V33.4992H58.0416V60.0212H44.7012V6.88196H77.8933V13.6369H58.0416Z" fill="black"/>
<path d="M104.341 13.6369V60.0106H91.0007V13.6369H77.7344V6.88196H117.597V13.6369H104.33H104.341Z" fill="black"/>
<path d="M163.156 53.3404V60.0106H143.145V53.3404H136.549V46.5114H143.304V53.2663H156.411V40.1906H143.156V33.531H136.559V13.6369H143.156V6.88196H163.166V13.6369H169.762V20.3918H163.007V13.7216H149.9V26.7973H163.156V33.4569H169.752V53.351H163.156V53.3404Z" fill="black"/>
<path d="M209.286 60V33.478H196.178V60H182.838V6.88196H196.178V26.7337H209.286V6.88196H222.626V60H209.286Z" fill="black"/>
<path d="M269 53.3404V60.0106H242.404V53.3404H235.808V13.6369H242.404V6.88196H269V13.6369H275.585V53.3404H269ZM262.245 13.7216H249.137V53.2663H262.245V13.711V13.7216Z" fill="black"/>
<path d="M321.97 33.478V40.1482H308.629V33.3933H315.225V13.6369H302.118V60.0106H288.777V6.88196H321.97V13.5522H328.555V33.4886H321.97V33.478Z" fill="black"/>
<path d="M20.3811 53.6474V40.3811H13.7109V27.1254H7.28419V53.6474H0.529297V0.529358H13.8697V13.785H20.4552V27.0513H26.9666V0.529358H33.7215V53.6474H20.3811Z" fill="#C9FF00"/>
<path d="M34.2509 54.1768H19.8518V40.9105H13.1816V27.6548H7.81366V54.1768H0V0H14.3992V13.2557H20.9846V26.522H26.4373V0H34.2509V54.1768ZM20.9105 53.118H33.1922V1.05876H27.496V27.5807H19.9259V14.3145H13.3404V1.05876H1.05876V53.118H6.7549V26.5961H14.2403V39.8518H20.9105V53.118Z" fill="black"/>
<path d="M58.0416 7.28425V20.3917H71.2973V27.1466H58.0416V53.6686H44.7012V0.529358H77.8933V7.28425H58.0416Z" fill="#C9FF00"/>
<path d="M58.571 54.1768H44.1719V0H78.4228V7.81366H58.571V19.8624H71.8267V27.676H58.571V54.198V54.1768ZM45.2306 53.1181H57.5123V26.5961H70.768V20.8999H57.5123V6.7549H77.364V1.05876H45.2306V53.1181Z" fill="black"/>
<path d="M104.341 7.28425V53.658H91.0007V7.28425H77.7344V0.529358H117.597V7.28425H104.33H104.341Z" fill="#C9FF00"/>
<path d="M104.871 54.1768H90.4714V7.81366H77.2051V0H118.126V7.81366H104.86V54.1874L104.871 54.1768ZM91.5301 53.1181H103.812V6.7549H117.078V1.05876H78.2744V6.7549H91.5407V53.1286L91.5301 53.1181Z" fill="black"/>
<path d="M163.156 46.9878V53.658H143.145V46.9878H136.549V40.1588H143.304V46.9137H156.411V33.838H143.156V27.1784H136.559V7.28425H143.156V0.529358H163.166V7.28425H169.762V14.0392H163.007V7.36896H149.9V20.4447H163.156V27.1043H169.752V46.9984H163.156V46.9878Z" fill="#C9FF00"/>
<path d="M163.685 54.1768H142.616V47.5066H136.02V39.6188H143.833V46.3737H155.882V34.3568H142.626V27.6972H136.03V6.7549H142.626V0H163.696V6.7549H170.292V14.5686H162.478V7.89836H150.429V19.9153H163.685V26.5749H170.281V47.5278H163.685V54.198V54.1768ZM143.674 53.1181H162.626V46.4479H169.222V27.6125H162.626V20.9529H149.371V6.82901H162.626V1.05876H143.674V7.81366H137.078V26.649H143.674V33.3086H156.93V47.4431H143.674V53.1392V53.1181ZM137.078 46.4479H142.774V40.6776H137.078V46.4479ZM163.526 13.4992H169.222V7.80307H163.526V13.4992Z" fill="black"/>
<path d="M209.286 53.6474V27.1254H196.178V53.6474H182.838V0.529358H196.178V20.3811H209.286V0.529358H222.626V53.6474H209.286Z" fill="#C9FF00"/>
<path d="M223.156 54.1768H208.756V27.6548H196.708V54.1768H182.309V0H196.708V19.8518H208.756V0H223.156V54.1768ZM209.815 53.118H222.097V1.05876H209.815V20.9105H195.649V1.05876H183.367V53.118H195.649V26.5961H209.815V53.118Z" fill="black"/>
<path d="M269 46.9878V53.658H242.404V46.9878H235.808V7.28425H242.404V0.529358H269V7.28425H275.585V46.9878H269ZM262.245 7.36896H249.137V46.9137H262.245V7.35837V7.36896Z" fill="#C9FF00"/>
<path d="M269.529 54.1768H241.874V47.5066H235.278V6.7549H241.874V0H269.529V6.7549H276.115V47.5172H269.529V54.1874V54.1768ZM242.933 53.1181H268.47V46.4479H275.056V7.81366H268.47V1.05876H242.933V7.81366H236.337V46.4585H242.933V53.1286V53.1181ZM262.785 47.4219H248.619V6.82901H262.785V47.4325V47.4219ZM249.677 46.3632H261.726V7.88777H249.677V46.3737V46.3632Z" fill="black"/>
<path d="M321.97 27.1254V33.7956H308.629V27.0407H315.225V7.28425H302.118V53.658H288.777V0.529358H321.97V7.19955H328.555V27.136H321.97V27.1254Z" fill="#C9FF00"/>
<path d="M302.647 54.1768H288.248V0H322.499V6.6702H329.084V27.6654H322.499V34.3356H308.1V26.522H314.696V7.81366H302.647V54.1874V54.1768ZM289.307 53.1181H301.588V6.7549H315.755V27.5807H309.159V33.2769H321.44V26.6067H328.026V7.72896H321.44V1.05876H289.307V53.1181Z" fill="black"/>
</g>
<defs>
<clipPath id="clip0_162_402">
<rect width="329.084" height="60" fill="white"/>
</clipPath>
</defs>
</svg>
