<svg width="44" height="35" viewBox="0 0 44 35" fill="none" xmlns="http://www.w3.org/2000/svg">
<path d="M18.307 25.9053V25.4053H17.807H12.9527C6.07472 25.4053 0.5 19.8306 0.5 12.9527C0.5 6.07472 6.07472 0.5 12.9527 0.5H30.7307C37.6087 0.5 43.1834 6.07472 43.1834 12.9527C43.1834 19.8306 37.6087 25.4053 30.7307 25.4053H22.8236H22.5283L22.3858 25.6638L18.307 33.0583V25.9053Z" fill="#FF5600" stroke="black"/>
<path d="M9.64863 11.24C9.48863 10.32 8.72863 9.81 7.82863 9.82C6.60863 9.81 5.70863 10.75 5.70863 12.46C5.70863 14.19 6.61863 15.11 7.82863 15.12C8.71863 15.11 9.46863 14.62 9.64863 13.72H10.7486C10.5186 15.12 9.37863 16.1 7.82863 16.1C5.97863 16.1 4.63863 14.72 4.62863 12.46C4.63863 10.2 5.98863 8.83 7.82863 8.84C9.31863 8.83 10.4986 9.71 10.7486 11.24H9.64863ZM13.9696 16.1C12.4696 16.11 11.4896 15.01 11.4896 13.38C11.4896 11.72 12.4696 10.63 13.9696 10.62C15.4596 10.63 16.4396 11.72 16.4496 13.38C16.4396 15.01 15.4596 16.11 13.9696 16.1ZM12.5296 13.38C12.5396 14.38 12.9996 15.24 13.9696 15.24C14.9296 15.24 15.3896 14.38 15.3896 13.38C15.3896 12.36 14.9296 11.49 13.9696 11.5C12.9996 11.49 12.5396 12.36 12.5296 13.38ZM17.3718 17.98V10.7H18.3918V11.56H18.4718C18.6518 11.22 19.0118 10.63 19.9918 10.62C21.2718 10.63 22.2218 11.64 22.2118 13.36C22.2218 15.07 21.2918 16.1 20.0118 16.1C19.0418 16.1 18.6618 15.52 18.4718 15.18H18.4118V17.98H17.3718ZM18.3918 13.34C18.3918 14.46 18.8818 15.22 19.7718 15.22C20.6918 15.22 21.1618 14.41 21.1718 13.34C21.1618 12.3 20.7018 11.51 19.7718 11.52C18.8718 11.51 18.3918 12.24 18.3918 13.34ZM23.1507 16V10.7H24.1907V16H23.1507ZM23.0107 9.26C23.0007 8.92 23.3007 8.64 23.6707 8.64C24.0207 8.64 24.3107 8.92 24.3107 9.26C24.3107 9.6 24.0207 9.88 23.6707 9.88C23.3007 9.88 23.0007 9.6 23.0107 9.26ZM27.655 16.1C26.095 16.11 25.135 15.03 25.135 13.38C25.135 11.75 26.105 10.63 27.575 10.62C28.795 10.63 29.945 11.38 29.935 13.3V13.66H26.175C26.195 14.68 26.785 15.25 27.675 15.24C28.255 15.25 28.645 14.99 28.815 14.66H29.875C29.635 15.53 28.825 16.11 27.655 16.1ZM26.175 12.88H28.915C28.915 12.08 28.395 11.48 27.595 11.48C26.765 11.48 26.225 12.13 26.175 12.88ZM32.8507 16.1C31.5707 16.1 30.6307 15.07 30.6307 13.36C30.6307 11.64 31.5807 10.63 32.8707 10.62C33.8407 10.63 34.2007 11.22 34.3907 11.56H34.4507V8.92H35.4907V16H34.4707V15.18H34.3907C34.1907 15.52 33.8207 16.1 32.8507 16.1ZM31.6907 13.34C31.6907 14.41 32.1707 15.22 33.0907 15.22C33.9707 15.22 34.4707 14.46 34.4707 13.34C34.4707 12.24 33.9807 11.51 33.0907 11.52C32.1607 11.51 31.6907 12.3 31.6907 13.34ZM38.0472 8.92L37.9472 13.96H36.9872L36.9072 8.92H38.0472ZM36.7872 15.38C36.7872 14.99 37.1072 14.68 37.4872 14.68C37.8572 14.68 38.1772 14.99 38.1672 15.38C38.1772 15.76 37.8572 16.07 37.4872 16.06C37.1072 16.07 36.7872 15.76 36.7872 15.38Z" fill="black"/>
</svg>
