<svg width="22" height="26" viewBox="0 0 22 26" fill="none" xmlns="http://www.w3.org/2000/svg">
<g clip-path="url(#clip0_2_490)">
<path d="M2.23932 26C1.61525 26 1.08295 25.7797 0.651606 25.3484C0.220261 24.9171 0 24.3848 0 23.7607V5.8461H1.29403V23.7699C1.29403 24.0085 1.39499 24.2196 1.58772 24.4215C1.78044 24.6142 2.00071 24.7151 2.23932 24.7151H15.4642V26.0092H2.23932V26ZM6.36004 21.8793C5.73597 21.8793 5.20367 21.659 4.77233 21.2277C4.34098 20.7963 4.12072 20.264 4.12072 19.64V2.23932C4.12072 1.61525 4.34098 1.08295 4.77233 0.651606C5.20367 0.220261 5.73597 0 6.36004 0H19.1811C19.8052 0 20.3375 0.220261 20.7688 0.651606C21.2001 1.08295 21.4204 1.61525 21.4204 2.23932V19.6491C21.4204 20.2732 21.2001 20.8055 20.7688 21.2369C20.3375 21.6682 19.8052 21.8885 19.1811 21.8885H6.36004V21.8793ZM6.36004 20.5852H19.1811C19.4197 20.5852 19.6308 20.4843 19.8327 20.2916C20.0254 20.0988 20.1264 19.8786 20.1264 19.64V2.23932C20.1264 2.00071 20.0254 1.78962 19.8327 1.58772C19.64 1.39499 19.4197 1.29403 19.1811 1.29403H6.35087C6.11225 1.29403 5.90117 1.39499 5.69926 1.58772C5.50653 1.78044 5.40558 2.00071 5.40558 2.23932V19.6491C5.40558 19.8878 5.50653 20.0988 5.69926 20.3007C5.89199 20.4935 6.11225 20.5944 6.35087 20.5944L6.36004 20.5852ZM5.41476 20.5852V1.29403V20.5944V20.5852Z" fill="black"/>
</g>
<defs>
<clipPath id="clip0_2_490">
<rect width="21.4112" height="26" fill="white"/>
</clipPath>
</defs>
</svg>
