<svg width="784" height="37" viewBox="0 0 784 37" fill="none" xmlns="http://www.w3.org/2000/svg">
<g clip-path="url(#clip0_137_593)">
<path d="M404.14 25.8799H389.46V0.699951H403.7C408.83 0.699951 411.17 4.08995 411.17 7.23995C411.17 9.84995 409.78 12.01 407.63 12.87C409.98 13.68 411.65 16.13 411.65 18.93C411.65 23.7299 407.88 25.8799 404.15 25.8799H404.14ZM389.96 25.3799H404.14C409.31 25.3799 411.14 21.91 411.14 18.93C411.14 15.95 409.21 13.54 406.65 13.15L405.34 12.95L406.64 12.66C409.08 12.12 410.66 9.98995 410.66 7.23995C410.66 4.32995 408.48 1.19995 403.69 1.19995H389.95V25.3799H389.96ZM402.48 20.59H395.83V15.5H402.48C404.07 15.5 405.17 16.5599 405.17 18.08C405.17 19.6 404.09 20.59 402.48 20.59ZM396.33 20.09H402.48C403.81 20.09 404.67 19.2999 404.67 18.08C404.67 17.08 403.98 16 402.48 16H396.33V20.09ZM402.26 10.75H395.83V5.99995H402.26C403.67 5.99995 404.69 6.98995 404.69 8.35995C404.69 9.72995 403.67 10.76 402.26 10.76V10.75ZM396.33 10.25H402.26C403.4 10.25 404.19 9.46995 404.19 8.34995C404.19 7.22995 403.4 6.48995 402.26 6.48995H396.33V10.24V10.25Z" fill="black"/>
<path d="M414.87 25.6299V0.949951H432.96V6.31995H421.23V10.43H432.7V15.83H421.23V20.27H432.96V25.6399H414.87V25.6299Z" fill="black"/>
<path d="M443.4 25.6299V15.68L434.04 0.949951H441.22L446.59 10.05L451.88 0.949951H459.1L449.78 15.68V25.6299H443.42H443.4Z" fill="black"/>
<path d="M471.37 0.540039C478.92 0.540039 484.54 5.79004 484.54 13.31C484.54 20.83 478.92 26.08 471.37 26.08C463.82 26.08 458.16 20.83 458.16 13.31C458.16 5.79004 463.82 0.540039 471.37 0.540039ZM471.37 6.16004C467.26 6.16004 464.64 9.27004 464.64 13.3C464.64 17.33 467.27 20.44 471.37 20.44C475.47 20.44 478.07 17.29 478.07 13.3C478.07 9.31004 475.44 6.16004 471.37 6.16004Z" fill="black"/>
<path d="M504.56 25.6299L494.12 10.72V25.6299H487.76V0.949951H494.31L504.3 15.16V0.949951H510.7V25.6299H504.56Z" fill="black"/>
<path d="M515.14 25.6299V0.949951H525.5C533.27 0.949951 538.86 5.60995 538.86 13.27C538.86 20.93 533.27 25.6299 525.54 25.6299H515.14ZM521.5 20.08H525.5C529.83 20.08 532.35 16.93 532.35 13.27C532.35 9.60995 530.06 6.49995 525.54 6.49995H521.51V20.08H521.5Z" fill="black"/>
<path d="M561.94 25.8799H547.26V0.699951H561.5C566.63 0.699951 568.97 4.08995 568.97 7.23995C568.97 9.84995 567.58 12.01 565.43 12.87C567.78 13.68 569.45 16.13 569.45 18.93C569.45 23.7299 565.68 25.8799 561.95 25.8799H561.94ZM547.76 25.3799H561.94C567.11 25.3799 568.94 21.91 568.94 18.93C568.94 15.95 567.01 13.54 564.45 13.15L563.14 12.95L564.44 12.66C566.88 12.12 568.46 9.98995 568.46 7.23995C568.46 4.32995 566.28 1.19995 561.49 1.19995H547.75V25.3799H547.76ZM560.28 20.59H553.63V15.5H560.28C561.87 15.5 562.97 16.5599 562.97 18.08C562.97 19.6 561.89 20.59 560.28 20.59ZM554.13 20.09H560.28C561.61 20.09 562.47 19.2999 562.47 18.08C562.47 17.08 561.78 16 560.28 16H554.13V20.09ZM560.06 10.75H553.63V5.99995H560.06C561.47 5.99995 562.49 6.98995 562.49 8.35995C562.49 9.72995 561.47 10.76 560.06 10.76V10.75ZM554.13 10.25H560.06C561.2 10.25 561.99 9.46995 561.99 8.34995C561.99 7.22995 561.2 6.48995 560.06 6.48995H554.13V10.24V10.25Z" fill="black"/>
<path d="M584.62 0.540039C592.17 0.540039 597.79 5.79004 597.79 13.31C597.79 20.83 592.17 26.08 584.62 26.08C577.07 26.08 571.41 20.83 571.41 13.31C571.41 5.79004 577.07 0.540039 584.62 0.540039ZM584.62 6.16004C580.51 6.16004 577.89 9.27004 577.89 13.3C577.89 17.33 580.52 20.44 584.62 20.44C588.72 20.44 591.32 17.29 591.32 13.3C591.32 9.31004 588.69 6.16004 584.62 6.16004Z" fill="black"/>
<path d="M601.01 0.949951H607.49V15.42C607.49 18.34 609.04 20.45 612.49 20.45C615.94 20.45 617.45 18.34 617.45 15.42V0.949951H623.93V15.6C623.93 21.74 620.41 26.07 612.5 26.07C604.59 26.07 601.03 21.7 601.03 15.64V0.949951H601.01Z" fill="black"/>
<path d="M645.15 25.6299L634.71 10.72V25.6299H628.35V0.949951H634.9L644.89 15.16V0.949951H651.29V25.6299H645.15Z" fill="black"/>
<path d="M655.73 25.6299V0.949951H666.09C673.86 0.949951 679.45 5.60995 679.45 13.27C679.45 20.93 673.86 25.6299 666.13 25.6299H655.73ZM662.09 20.08H666.09C670.42 20.08 672.94 16.93 672.94 13.27C672.94 9.60995 670.65 6.49995 666.13 6.49995H662.1V20.08H662.09Z" fill="black"/>
<path d="M698.51 25.6299L697.25 21.8899H687L685.74 25.6299H678.82L688.11 0.949951H696.1L705.42 25.6299H698.5H698.51ZM692.11 6.49995L688.67 16.53H695.59L692.11 6.49995Z" fill="black"/>
<path d="M721 25.6299L716.86 17.27H713.6V25.6299H707.24V0.949951H719.6C725.08 0.949951 728.18 4.57995 728.18 9.15995C728.18 13.45 725.55 15.75 723.26 16.56L728.29 25.6299H721ZM718.63 6.30995H713.6V11.86H718.63C720.3 11.86 721.7 10.79 721.7 9.08995C721.7 7.38995 720.29 6.30995 718.63 6.30995Z" fill="black"/>
<path d="M731.69 25.6299V0.949951H738.05V25.6299H731.69Z" fill="black"/>
<path d="M742.5 25.6299V0.949951H760.59V6.31995H748.86V10.43H760.33V15.83H748.86V20.27H760.59V25.6399H742.5V25.6299Z" fill="black"/>
<path d="M765.88 17.3801C767.66 19.1601 770.39 20.6401 773.76 20.6401C775.94 20.6401 777.28 19.7101 777.28 18.5301C777.28 17.1201 775.69 16.5701 773.06 16.0101C768.99 15.2001 763.29 14.1601 763.29 8.31008C763.29 4.17008 766.81 0.580078 773.13 0.580078C777.09 0.580078 780.53 1.76008 783.16 4.02008L779.68 8.57008C777.61 6.87008 774.91 6.02008 772.72 6.02008C770.53 6.02008 769.8 6.87008 769.8 7.94008C769.8 9.23008 771.32 9.68008 774.06 10.2001C778.13 11.0501 783.75 12.2401 783.75 17.8201C783.75 22.7801 780.09 26.0701 773.46 26.0701C768.46 26.0701 764.99 24.5201 762.51 22.1501L765.88 17.3801Z" fill="black"/>
<path d="M315.33 22.83C315.99 22.12 316.58 21.33 317.09 20.47C318.33 18.39 318.95 16.12 318.95 13.63C318.95 11.14 318.33 8.81999 317.1 6.73999C315.87 4.64999 314.22 3.00999 312.14 1.79999C310.06 0.58999 307.82 -0.0100098 305.4 -0.0100098C302.98 -0.0100098 300.7 0.58999 298.61 1.79999C296.52 3.00999 294.86 4.64999 293.61 6.72999C292.36 8.80999 291.75 11.07 291.75 13.54C291.75 16.01 292.37 18.41 293.61 20.5C294.14 21.39 294.75 22.2 295.43 22.93C293.13 24.33 291.71 26.22 291.71 28.29C291.71 32.61 297.87 36.13 305.44 36.13C313.01 36.13 319.17 32.61 319.17 28.29C319.17 26.18 317.7 24.25 315.3 22.84L315.33 22.83ZM295.61 31.64C294.25 30.62 293.5 29.46 293.5 28.28C293.5 26.83 294.63 25.39 296.67 24.24C296.71 24.22 296.75 24.2 296.79 24.18C297.35 24.64 297.95 25.05 298.59 25.43C298.65 25.47 298.72 25.5 298.79 25.54C296.59 26.62 295.19 28.23 295.19 30.01C295.19 30.58 295.33 31.13 295.6 31.65L295.61 31.64ZM305.47 34.12C302.35 34.12 300.65 32.77 300.65 32.07C300.65 31.37 302.35 30.02 305.47 30.02C308.59 30.02 310.29 31.37 310.29 32.07C310.29 32.77 308.59 34.12 305.47 34.12ZM312.01 32.53C312.04 32.38 312.06 32.22 312.06 32.07C312.06 29.96 309.1 28.25 305.47 28.25C301.84 28.25 298.88 29.97 298.88 32.07C298.88 32.23 298.9 32.38 298.93 32.53C297.72 31.81 296.97 30.92 296.97 30C296.97 28.6 298.67 27.3 301.06 26.54C302.4 26.99 303.79 27.21 305.24 27.21C306.8 27.21 308.28 26.97 309.7 26.49C312.19 27.23 313.96 28.58 313.96 30C313.96 30.93 313.21 31.82 312 32.53H312.01ZM315.33 31.64C315.6 31.12 315.74 30.57 315.74 30C315.74 28.17 314.28 26.54 312 25.45C312.03 25.43 312.06 25.42 312.09 25.4C312.77 25.01 313.41 24.57 313.99 24.09C314.08 24.14 314.17 24.18 314.26 24.24C316.3 25.4 317.43 26.83 317.43 28.28C317.43 29.45 316.69 30.62 315.32 31.64H315.33Z" fill="#05D65A"/>
<path d="M339.86 25.6399L329.42 10.72V25.6399H323.06V0.949951H329.61L339.6 15.16V0.949951H346V25.6399H339.86Z" fill="black"/>
<path d="M123.79 25.6399V15.72H113.54V25.6399H107.18V0.949951H113.54V10.17H123.79V0.949951H130.15V25.6399H123.79Z" fill="black"/>
<path d="M153.11 25.6399L151.85 21.9H141.6L140.34 25.6399H133.42L142.71 0.949951H150.7L160.03 25.6399H153.11ZM146.71 6.50995L143.27 16.54H150.19L146.71 6.50995Z" fill="black"/>
<path d="M160.86 13.31C160.86 5.69004 166.63 0.540039 174.03 0.540039C180.17 0.540039 183.36 3.91004 184.98 7.17004L179.5 9.76004C178.69 7.80004 176.58 6.17004 174.02 6.17004C170.17 6.17004 167.32 9.28004 167.32 13.31C167.32 17.34 170.17 20.45 174.02 20.45C176.57 20.45 178.68 18.82 179.5 16.86L184.98 19.45C183.39 22.63 180.17 26.08 174.03 26.08C166.63 26.08 160.86 20.9 160.86 13.31Z" fill="black"/>
<path d="M203.68 25.6399L197.2 16.35L195.53 18.42V25.6399H189.17V0.949951H195.53V11.09L203.12 0.949951H210.97L201.39 12.5L211.49 25.6399H203.68Z" fill="black"/>
<path d="M233.92 25.6399L232.66 21.9H222.41L221.15 25.6399H214.23L223.52 0.949951H231.51L240.84 25.6399H233.92ZM227.52 6.50995L224.08 16.54H231L227.52 6.50995Z" fill="black"/>
<path d="M246.42 25.6399V6.49995H239.5V0.949951H259.67V6.49995H252.79V25.6299H246.43L246.42 25.6399Z" fill="black"/>
<path d="M280.78 25.6399V15.72H270.53V25.6399H264.17V0.949951H270.53V10.17H280.78V0.949951H287.14V25.6399H280.78Z" fill="black"/>
<path d="M0.82 25.6401V20.6801C11.52 12.9501 13.51 11.2401 13.51 8.80008C13.51 7.10008 11.92 6.21008 9.99 6.21008C7.36 6.21008 5.29 7.25008 3.51 8.91008L0 4.69008C2.63 1.80008 6.55 0.580078 9.99 0.580078C15.8 0.580078 19.98 3.84008 19.98 8.80008C19.98 12.5701 17.28 15.7901 10.65 20.0901H20.16V25.6401H0.82Z" fill="black"/>
<path d="M53.11 25.6401V20.6801C63.81 12.9501 65.8 11.2401 65.8 8.80008C65.8 7.10008 64.21 6.21008 62.28 6.21008C59.65 6.21008 57.58 7.25008 55.8 8.91008L52.28 4.69008C54.91 1.80008 58.83 0.580078 62.27 0.580078C68.08 0.580078 72.26 3.84008 72.26 8.80008C72.26 12.5701 69.56 15.7901 62.93 20.0901H72.44V25.6401H53.08H53.11Z" fill="black"/>
<path d="M78.31 18.0101C80.09 19.7501 82.9 20.6701 85.05 20.6701C87.79 20.6701 89.2 19.5601 89.2 18.1201C89.2 16.6801 88.16 15.8601 84.8 15.8601C83.73 15.8601 81.84 15.9001 81.47 15.9301V10.4501C81.95 10.4901 83.88 10.4901 84.8 10.4901C87.35 10.4901 88.8 9.75006 88.8 8.38006C88.8 6.83006 87.02 6.01006 84.65 6.01006C82.28 6.01006 80.17 6.94006 78.43 8.45006L75.43 4.56006C77.5 2.23006 80.76 0.560059 85.31 0.560059C91.6 0.560059 95.12 3.26006 95.12 7.33006C95.12 10.2201 92.64 12.4001 89.72 12.8801C92.35 13.1401 95.53 15.1801 95.53 18.7301C95.53 23.0601 91.46 26.0601 85.32 26.0601C80.58 26.0601 77.03 24.3901 75.11 22.1701L78.33 17.9901L78.31 18.0101Z" fill="black"/>
<path d="M36.81 27.25C44.33 27.25 50.43 21.15 50.43 13.63C50.43 6.11 44.34 0 36.81 0C29.28 0 23.19 6.1 23.19 13.62C23.19 21.14 29.29 27.24 36.81 27.24V27.25Z" fill="#00B2FC"/>
<path d="M34.98 14.23L28.45 20.77L29.67 21.99L36.2 15.45L34.98 14.23Z" fill="white"/>
<path d="M29.67 5.26001L28.45 6.48001L34.98 13.01L36.2 11.79L29.67 5.26001Z" fill="white"/>
<path d="M38.64 14.23L37.42 15.45L43.95 21.98L45.17 20.76L38.64 14.23Z" fill="white"/>
<path d="M43.95 5.26001L37.42 11.8L38.64 13.02L45.17 6.48001L43.95 5.26001Z" fill="white"/>
</g>
<defs>
<clipPath id="clip0_137_593">
<rect width="783.75" height="36.13" fill="white"/>
</clipPath>
</defs>
</svg>
