<svg width="241" height="143" viewBox="0 0 241 143" fill="none" xmlns="http://www.w3.org/2000/svg">
<g clip-path="url(#clip0_925_186)">
<path d="M73.2673 142.346C72.1358 142.346 71.0157 142.331 69.8995 142.297C46.4922 141.59 29.7749 133.504 22.8258 119.525C15.8768 105.549 19.5418 87.3829 33.1465 68.3689C46.7132 49.4081 68.5508 31.8609 94.6402 18.9607C120.726 6.06057 147.95 -0.653588 171.293 0.049366C194.7 0.75612 211.417 8.84199 218.367 22.8213C225.316 36.7968 221.651 54.9634 208.046 73.9773C194.479 92.9381 172.642 110.485 146.552 123.386C121.709 135.67 95.8364 142.35 73.2635 142.35L73.2673 142.346ZM167.925 0.569932C145.444 0.569932 119.659 7.2271 94.8954 19.4737C68.8899 32.3359 47.1284 49.8185 33.6151 68.7033C20.1399 87.5349 16.4902 105.496 23.344 119.274C30.194 133.052 46.736 141.028 69.9223 141.727C93.1734 142.434 120.299 135.735 146.305 122.873C172.31 110.01 194.072 92.5277 207.585 73.643C221.06 54.8114 224.71 36.85 217.856 23.0721C211.006 9.29416 194.464 1.31848 171.278 0.619329C170.169 0.585131 169.053 0.569932 167.925 0.569932Z" fill="white"/>
<path d="M112.904 9.71213L111.815 12.2426L112.904 14.7732L110.367 13.6903L107.83 14.7732L108.916 12.2426L107.83 9.71213L110.367 10.7988L112.904 9.71213Z" fill="white"/>
<path d="M75.3154 62.5173V66.507H67.3148V62.4717H71.2694V50.6468H67.3148V46.6115H71.2694V38.7764H63.4136V66.5146H55.4131V34.7411H75.3192V38.7308H79.2737V46.7103H75.3192V50.6051H79.2737V62.5287H75.3192L75.3154 62.5173Z" fill="black"/>
<path d="M100.65 66.507V54.6328H96.6957V50.5975H100.65V38.7726H92.7945V66.5108H84.7939V34.7373H104.7V38.727H108.655V50.6507H104.7V54.5454H108.655V66.5146H100.654L100.65 66.507Z" fill="black"/>
<path d="M114.171 66.507V34.7335H134.077V38.7689H122.171V46.6039H130.126V50.6393H122.171V62.4641H134.077V66.4994H114.171V66.507Z" fill="black"/>
<path d="M155.412 66.507V58.5732H143.602V66.507H139.556V54.5378H143.51V42.713H147.465V34.7335H155.511V42.713H159.466V54.5378H163.42V66.507H155.42H155.412ZM151.457 42.8042H147.552V54.5378H151.457V42.8042Z" fill="black"/>
<path d="M184.797 66.5071V58.5276H180.842V50.6431H176.937V66.5071H168.937V34.7335H176.937V46.6077H180.842V42.6902H184.797V38.7727H188.751V34.7373H192.797V38.8221H188.843V42.7966H184.888V50.6013H188.843V58.4364H192.797V66.5109H184.797V66.5071Z" fill="black"/>
<path d="M19.7649 80.5662V108.304H11.7644V80.5662H3.80957V76.5308H27.7159V80.5662H19.7611H19.7649Z" fill="black"/>
<path d="M45.1004 108.304V92.4404H37.2447V108.304H29.2441V76.5308H37.2447V88.405H45.1004V76.5308H53.101V108.304H45.1004Z" fill="black"/>
<path d="M58.6211 108.304V76.5308H78.5272V80.5662H66.6216V88.4012H74.5764V92.4366H66.6216V104.261H78.5272V108.297H58.6211V108.304Z" fill="black"/>
<path d="M113.435 104.315V108.304H105.435V104.269H109.39V92.4442H105.435V88.4088H109.39V80.5737H101.534V108.312H93.5332V76.5384H113.439V80.5281H117.394V88.5076H113.439V92.4024H117.394V104.326H113.439L113.435 104.315Z" fill="black"/>
<path d="M138.771 108.304V96.4301H134.817V92.3948H138.771V80.5699H130.916V108.308H122.915V76.5346H142.821V80.5243H146.776V92.448H142.821V96.3427H146.776V108.312H138.775L138.771 108.304Z" fill="black"/>
<path d="M152.296 108.304V76.5308H160.296V108.304H152.296Z" fill="black"/>
<path d="M181.726 104.315V108.304H169.725V104.315H165.771V80.5662H169.725V76.5308H185.68V84.6053H181.634V80.6156H173.779V104.269H181.634V100.234H185.68V104.318H181.726V104.315Z" fill="black"/>
<path d="M207.011 108.304V100.325H203.057V92.4404H199.152V108.304H191.151V76.5309H199.152V88.4051H203.057V84.4876H207.011V80.57H210.966V76.5347H215.012V80.6194H211.057V84.594H207.103V92.3987H211.057V100.234H215.012V108.308H207.011V108.304Z" fill="black"/>
<path d="M236.488 104.315V108.304H224.488V104.315H220.533V100.23H224.579V104.265H232.435V96.4453H224.48V92.4632H220.525V80.5662H224.48V76.5308H236.481V80.5662H240.435V84.6015H236.389V80.6118H228.534V88.4316H236.488V92.4138H240.443V104.311H236.488V104.315Z" fill="black"/>
<path d="M71.5058 58.7175V62.7073H63.5053V58.6719H67.4598V46.8471H63.5053V42.8118H67.4598V34.9767H59.6041V62.7149H51.6035V30.9413H71.5096V34.9311H75.4642V42.9106H71.5096V46.8053H75.4642V58.7289H71.5096L71.5058 58.7175Z" fill="#FAED00" stroke="black" stroke-miterlimit="10"/>
<path d="M96.8407 62.7073V50.8331H92.8861V46.7977H96.8407V34.9729H88.9849V62.7111H80.9844V30.9376H100.89V34.9273H104.845V46.8509H100.89V50.7457H104.845V62.7149H96.8445L96.8407 62.7073Z" fill="#FAED00" stroke="black" stroke-miterlimit="10"/>
<path d="M110.361 62.7073V30.9338H130.267V34.9691H118.362V42.8042H126.317V46.8395H118.362V58.6644H130.267V62.6997H110.361V62.7073Z" fill="#FAED00" stroke="black" stroke-miterlimit="10"/>
<path d="M151.602 62.7073V54.7734H139.792V62.7073H135.746V50.7381H139.701V38.9133H143.655V30.9338H151.701V38.9133H155.656V50.7381H159.611V62.7073H151.61H151.602ZM147.648 39.0044H143.743V50.7381H147.648V39.0044Z" fill="#FAED00" stroke="black" stroke-miterlimit="10"/>
<path d="M180.987 62.7073V54.7278H177.033V46.8433H173.127V62.7073H165.127V30.9338H173.127V42.808H177.033V38.8905H180.987V34.9729H184.942V30.9376H188.988V35.0223H185.033V38.9969H181.078V46.8015H185.033V54.6366H188.988V62.7111H180.987V62.7073Z" fill="#FAED00" stroke="black" stroke-miterlimit="10"/>
<path d="M15.9554 76.7664V104.505H7.95482V76.7664H0V72.7311H23.9064V76.7664H15.9515H15.9554Z" fill="#FAED00" stroke="black" stroke-miterlimit="10"/>
<path d="M41.2899 104.505V88.6406H33.4341V104.505H25.4336V72.7311H33.4341V84.6053H41.2899V72.7311H49.2904V104.505H41.2899Z" fill="#FAED00" stroke="black" stroke-miterlimit="10"/>
<path d="M54.8115 104.505V72.7311H74.7176V76.7664H62.8121V84.6015H70.7669V88.6368H62.8121V100.462H74.7176V104.497H54.8115V104.505Z" fill="#FAED00" stroke="black" stroke-miterlimit="10"/>
<path d="M109.626 100.515V104.505H101.625V100.469H105.58V88.6444H101.625V84.6091H105.58V76.774H97.7242V104.512H89.7236V72.7386H109.63V76.7284H113.584V84.7079H109.63V88.6026H113.584V100.526H109.63L109.626 100.515Z" fill="#FAED00" stroke="black" stroke-miterlimit="10"/>
<path d="M134.962 104.505V92.6304H131.007V88.595H134.962V76.7702H127.106V104.508H119.105V72.7349H139.012V76.7246H142.966V88.6482H139.012V92.543H142.966V104.512H134.966L134.962 104.505Z" fill="#FAED00" stroke="black" stroke-miterlimit="10"/>
<path d="M148.486 104.505V72.7311H156.487V104.505H148.486Z" fill="#FAED00" stroke="black" stroke-miterlimit="10"/>
<path d="M177.916 100.515V104.505H165.915V100.515H161.961V76.7664H165.915V72.7311H181.871V80.8056H177.825V76.8158H169.969V100.469H177.825V96.4339H181.871V100.519H177.916V100.515Z" fill="#FAED00" stroke="black" stroke-miterlimit="10"/>
<path d="M203.202 104.505V96.5252H199.247V88.6407H195.342V104.505H187.342V72.7311H195.342V84.6054H199.247V80.6878H203.202V76.7703H207.156V72.7349H211.202V76.8197H207.248V80.7942H203.293V88.5989H207.248V96.434H211.202V104.508H203.202V104.505Z" fill="#FAED00" stroke="black" stroke-miterlimit="10"/>
<path d="M232.679 100.515V104.505H220.678V100.515H216.723V96.4301H220.769V100.465H228.625V92.6456H220.67V88.6634H216.716V76.7664H220.67V72.7311H232.671V76.7664H236.626V80.8017H232.58V76.812H224.724V84.6319H232.679V88.614H236.633V100.511H232.679V100.515Z" fill="#FAED00" stroke="black" stroke-miterlimit="10"/>
<g clip-path="url(#clip1_925_186)">
<path d="M64 116.502H66.0061L67.4985 122.698H67.5713L69.2053 116.502H70.9323L72.5622 122.71H72.635L74.1274 116.502H76.1335L73.5976 125.367H71.7978L70.1072 119.515H70.0344L68.3316 125.367H66.5319L64 116.502Z" fill="white"/>
<path d="M76.3037 122.075C76.3037 120.016 77.5656 118.633 79.511 118.633C81.2623 118.633 82.6333 119.733 82.6333 122.002V122.516H78.0914C78.0914 123.519 78.69 124.146 79.6202 124.146C80.2309 124.146 80.6718 123.875 80.8578 123.47H82.5848C82.326 124.696 81.2259 125.505 79.5838 125.505C77.5494 125.505 76.3037 124.182 76.3037 122.075ZM80.9185 121.375C80.9185 120.566 80.3563 119.992 79.5474 119.992C78.7385 119.992 78.1197 120.611 78.0914 121.375H80.9185Z" fill="white"/>
<path d="M84.0605 116.502H85.8725V119.83H85.921C86.1799 119.292 86.7056 118.629 87.8179 118.629C89.286 118.629 90.5236 119.769 90.5236 122.047C90.5236 124.324 89.3346 125.476 87.8179 125.476C86.7299 125.476 86.1758 124.853 85.921 124.299H85.8482V125.363H84.0605V116.502ZM87.2436 124.032C88.1738 124.032 88.6632 123.211 88.6632 122.038C88.6632 120.866 88.1738 120.081 87.2436 120.081C86.3133 120.081 85.8361 120.841 85.8361 122.038C85.8361 123.236 86.3497 124.032 87.2436 124.032Z" fill="white"/>
<path d="M91.8305 122.868H93.691C93.7274 123.527 94.3664 123.968 95.2198 123.968C96.0732 123.968 96.7365 123.466 96.7243 122.754C96.7365 122.03 96.0893 121.517 95.0459 121.517H94.2248V120.158H95.0459C95.9154 120.158 96.5261 119.68 96.5261 118.981C96.5261 118.281 96.0125 117.84 95.2279 117.84C94.4432 117.84 93.7961 118.281 93.7718 118.952H92.0085C92.0327 117.424 93.4159 116.368 95.2279 116.368C97.0398 116.368 98.3138 117.456 98.3017 118.868C98.3138 119.858 97.6141 120.57 96.6232 120.74V120.813C97.9215 120.971 98.6455 121.767 98.6293 122.872C98.6414 124.388 97.1975 125.48 95.1996 125.48C93.2016 125.48 91.8588 124.404 91.8184 122.859L91.8305 122.868Z" fill="white"/>
<path d="M107.381 118.006C106.01 118.006 105.08 119.058 105.08 120.922C105.08 122.787 105.986 123.862 107.393 123.862C108.659 123.862 109.415 123.147 109.44 122.026H107.518V120.643H111.215V121.743C111.215 124.069 109.622 125.488 107.381 125.488C104.894 125.488 103.207 123.749 103.207 120.946C103.207 118.144 105.003 116.38 107.345 116.38C109.338 116.38 110.883 117.606 111.126 119.357H109.266C109.019 118.524 108.348 118.01 107.381 118.01V118.006Z" fill="white"/>
<path d="M114.928 121.46C115.405 121.428 116.299 121.387 116.582 121.375V120.837C116.57 120.287 116.19 119.955 115.519 119.955C114.908 119.955 114.516 120.239 114.419 120.692H112.692C112.801 119.539 113.804 118.633 115.567 118.633C117.011 118.633 118.382 119.28 118.382 120.886V125.367H116.667V124.449H116.619C116.287 125.06 115.664 125.488 114.673 125.488C113.399 125.488 112.457 124.829 112.457 123.507C112.457 122.026 113.658 121.537 114.932 121.46H114.928ZM115.187 124.239C116.008 124.239 116.595 123.689 116.582 122.989V122.499C116.307 122.512 115.535 122.556 115.223 122.584C114.601 122.645 114.196 122.94 114.196 123.454C114.196 123.968 114.613 124.239 115.187 124.239Z" fill="white"/>
<path d="M120.017 118.718H121.744V119.883H121.816C122.1 119.11 122.771 118.633 123.665 118.633C124.559 118.633 125.258 119.11 125.477 119.883H125.537C125.82 119.122 126.565 118.633 127.543 118.633C128.781 118.633 129.638 119.454 129.638 120.898V125.367H127.827V121.254C127.827 120.493 127.386 120.125 126.787 120.125C126.1 120.125 125.711 120.603 125.711 121.302V125.367H123.948V121.205C123.948 120.546 123.531 120.129 122.921 120.129C122.31 120.129 121.833 120.619 121.833 121.379V125.371H120.021V118.718H120.017Z" fill="white"/>
<path d="M131.199 116.93C131.199 116.417 131.64 116 132.19 116C132.74 116 133.169 116.417 133.169 116.93C133.169 117.444 132.728 117.848 132.19 117.848C131.652 117.848 131.199 117.432 131.199 116.93ZM131.284 118.718H133.096V125.367H131.284V118.718Z" fill="white"/>
<path d="M136.571 125.367H134.759V118.718H136.486V119.883H136.559C136.866 119.11 137.574 118.633 138.553 118.633C139.936 118.633 140.854 119.575 140.842 121.132V125.367H139.042V121.448C139.042 120.627 138.589 120.137 137.841 120.137C137.092 120.137 136.567 120.639 136.567 121.521V125.367H136.571Z" fill="white"/>
<path d="M142.415 125.917H144.203C144.3 126.443 144.801 126.69 145.525 126.69C146.37 126.69 146.933 126.334 146.933 125.403V124.19H146.848C146.601 124.728 146.015 125.266 144.951 125.266C143.446 125.266 142.245 124.214 142.245 121.998C142.245 119.782 143.483 118.629 144.951 118.629C146.063 118.629 146.605 119.288 146.848 119.83H146.921V118.718H148.72V125.44C148.72 127.13 147.374 128 145.489 128C143.604 128 142.524 127.179 142.415 125.917ZM146.933 122.022C146.933 120.833 146.419 120.077 145.513 120.077C144.607 120.077 144.106 120.874 144.106 122.022C144.106 123.171 144.595 123.907 145.513 123.907C146.431 123.907 146.933 123.195 146.933 122.022Z" fill="white"/>
<path d="M157.537 125.488C155.175 125.488 153.388 123.81 153.388 120.934C153.388 118.059 155.175 116.38 157.537 116.38C159.899 116.38 161.675 118.047 161.675 120.934C161.675 123.822 159.875 125.488 157.537 125.488ZM157.537 118.006C156.166 118.006 155.26 119.033 155.26 120.934C155.26 122.835 156.166 123.862 157.537 123.862C158.908 123.862 159.802 122.835 159.802 120.934C159.802 119.033 158.908 118.006 157.537 118.006Z" fill="white"/>
<path d="M163.211 118.718H164.999V119.83H165.071C165.318 119.292 165.856 118.629 166.968 118.629C168.436 118.629 169.662 119.769 169.662 122.046C169.662 124.324 168.485 125.476 166.968 125.476C165.88 125.476 165.326 124.853 165.071 124.299H165.023V127.862H163.211V118.718ZM166.394 124.032C167.324 124.032 167.814 123.211 167.814 122.038C167.814 120.866 167.324 120.081 166.394 120.081C165.464 120.081 164.986 120.841 164.986 122.038C164.986 123.236 165.5 124.032 166.394 124.032Z" fill="white"/>
<path d="M173.795 119.919C173.209 119.919 172.756 120.202 172.768 120.607C172.756 120.902 173.003 121.132 173.626 121.266L174.815 121.513C176.101 121.784 176.724 122.358 176.736 123.312C176.724 124.623 175.547 125.505 173.783 125.505C172.02 125.505 170.932 124.696 170.782 123.397H172.606C172.691 123.923 173.12 124.194 173.783 124.194C174.447 124.194 174.883 123.923 174.883 123.494C174.883 123.151 174.6 122.944 173.977 122.807L172.877 122.588C171.615 122.342 170.956 121.682 170.968 120.704C170.956 119.43 172.056 118.633 173.771 118.633C175.486 118.633 176.489 119.43 176.586 120.692H174.883C174.811 120.226 174.394 119.919 173.795 119.919Z" fill="white"/>
</g>
</g>
<defs>
<clipPath id="clip0_925_186">
<rect width="240.633" height="142.346" fill="white" transform="translate(0.18457)"/>
</clipPath>
<clipPath id="clip1_925_186">
<rect width="113" height="12" fill="white" transform="translate(64 116)"/>
</clipPath>
</defs>
</svg>
