<svg width="35" height="35" viewBox="0 0 35 35" fill="none" xmlns="http://www.w3.org/2000/svg">
<g clip-path="url(#clip0_440_50)">
<path d="M2.99548 20.5549C4.64983 20.5549 5.99095 19.2138 5.99095 17.5594C5.99095 15.9051 4.64983 14.564 2.99548 14.564C1.34112 14.564 0 15.9051 0 17.5594C0 19.2138 1.34112 20.5549 2.99548 20.5549Z" fill="#00B2FC" fill-opacity="0.4"/>
<path d="M7.28466 30.7939C8.93902 30.7939 10.2801 29.4528 10.2801 27.7985C10.2801 26.1441 8.93902 24.803 7.28466 24.803C5.63031 24.803 4.28918 26.1441 4.28918 27.7985C4.28918 29.4528 5.63031 30.7939 7.28466 30.7939Z" fill="#00B2FC" fill-opacity="0.4"/>
<path d="M17.5594 35C19.2137 35 20.5549 33.6589 20.5549 32.0045C20.5549 30.3502 19.2137 29.009 17.5594 29.009C15.905 29.009 14.5639 30.3502 14.5639 32.0045C14.5639 33.6589 15.905 35 17.5594 35Z" fill="#00B2FC" fill-opacity="0.4"/>
<path d="M27.7986 30.7109C29.4529 30.7109 30.7941 29.3698 30.7941 27.7154C30.7941 26.0611 29.4529 24.72 27.7986 24.72C26.1442 24.72 24.8031 26.0611 24.8031 27.7154C24.8031 29.3698 26.1442 30.7109 27.7986 30.7109Z" fill="#004FFF"/>
<path d="M32.0045 20.436C33.6589 20.436 35 19.0949 35 17.4405C35 15.7862 33.6589 14.4451 32.0045 14.4451C30.3502 14.4451 29.009 15.7862 29.009 17.4405C29.009 19.0949 30.3502 20.436 32.0045 20.436Z" fill="#00B2FC"/>
<path d="M27.9955 9.99095C29.6498 9.99095 30.991 8.64983 30.991 6.99548C30.991 5.34112 29.6498 4 27.9955 4C26.3411 4 25 5.34112 25 6.99548C25 8.64983 26.3411 9.99095 27.9955 9.99095Z" fill="#00B2FC" fill-opacity="0.8"/>
<path d="M17.4406 5.99095C19.095 5.99095 20.4361 4.64983 20.4361 2.99548C20.4361 1.34112 19.095 0 17.4406 0C15.7863 0 14.4451 1.34112 14.4451 2.99548C14.4451 4.64983 15.7863 5.99095 17.4406 5.99095Z" fill="#00B2FC" fill-opacity="0.6"/>
<path d="M7.20141 10.2803C8.85577 10.2803 10.1969 8.93914 10.1969 7.28478C10.1969 5.63043 8.85577 4.28931 7.20141 4.28931C5.54705 4.28931 4.20593 5.63043 4.20593 7.28478C4.20593 8.93914 5.54705 10.2803 7.20141 10.2803Z" fill="#00B2FC" fill-opacity="0.4"/>
</g>
<defs>
<clipPath id="clip0_440_50">
<rect width="35" height="35" fill="white"/>
</clipPath>
</defs>
</svg>
