<svg width="30" height="30" viewBox="0 0 30 30" fill="none" xmlns="http://www.w3.org/2000/svg">
<path d="M15 29.625C23.0772 29.625 29.625 23.0772 29.625 15C29.625 6.92284 23.0772 0.375 15 0.375C6.92284 0.375 0.375 6.92284 0.375 15C0.375 23.0772 6.92284 29.625 15 29.625Z" fill="#00B2FC"/>
<path d="M15 0.75C22.86 0.75 29.25 7.14 29.25 15C29.25 22.86 22.86 29.25 15 29.25C7.14 29.25 0.75 22.86 0.75 15C0.75 7.14 7.14 0.75 15 0.75ZM15 0C6.7125 0 0 6.7125 0 15C0 23.2875 6.7125 30 15 30C23.2875 30 30 23.2875 30 15C30 6.7125 23.2875 0 15 0Z" fill="black"/>
<path d="M5.81986 22.8674L12.9974 15.6824L14.3324 17.0174L7.15486 24.2024L5.81986 22.8674ZM15.6824 17.0024L17.0174 15.6674L24.1949 22.8449L22.8599 24.1799L15.6824 17.0024ZM15.6824 13.0124L22.9274 5.75244L23.0549 6.02994L24.1874 7.16244L17.0099 14.3474L15.6749 13.0199L15.6824 13.0124ZM5.79736 7.14744L7.13236 5.81244L14.3099 12.9899L12.9749 14.3249L5.79736 7.13994V7.14744Z" fill="white"/>
</svg>
