<svg width="460" height="142" viewBox="0 0 460 142" fill="none" xmlns="http://www.w3.org/2000/svg">
<path d="M38.6888 54.1453V61.9216H23.1362V54.0564H30.8236V31.0091H23.1362V23.1439H30.8236V7.87283H15.5525V61.9364H0V0.00769043H38.6962V7.78396H46.3836V23.3365H38.6962V30.9276H46.3836V54.1675H38.6962L38.6888 54.1453Z" fill="#FAED00"/>
<path d="M87.9384 61.9213V38.7776H80.251V30.9125H87.9384V7.86514H72.6673V61.9287H57.1147V0H95.8109V7.77627H103.498V31.0162H95.8109V38.6073H103.498V61.9361H87.9458L87.9384 61.9213Z" fill="#FAED00"/>
<path d="M114.223 62.1726V0.243896H152.919V8.10903H129.775V23.3801H145.239V31.2453H129.775V54.2926H152.919V62.1578H114.223V62.1726Z" fill="#FAED00"/>
<path d="M194.392 62.1726V46.7089H171.433V62.1726H163.568V38.8438H171.256V15.7964H178.943V0.243896H194.585V15.7964H202.272V38.8438H209.959V62.1726H194.407H194.392ZM186.705 15.9742H179.113V38.8438H186.705V15.9742Z" fill="#FAED00"/>
<path d="M251.514 62.1726V46.6201H243.827V31.2527H236.236V62.1726H220.683V0.243896H236.236V23.3875H243.827V15.752H251.514V8.11644H259.202V0.251298H267.067V8.21271H259.379V15.9594H251.692V31.1712H259.379V46.4423H267.067V62.18H251.514V62.1726Z" fill="#FAED00"/>
<path d="M31.0162 87.4103V141.474H15.4637V87.4103H0V79.5452H46.4724V87.4103H31.0088H31.0162Z" fill="#FAED00"/>
<path d="M80.266 141.474V110.554H64.9949V141.474H49.4424V79.5452H64.9949V102.689H80.266V79.5452H95.8186V141.474H80.266Z" fill="#FAED00"/>
<path d="M106.55 141.474V79.5452H145.246V87.4103H122.103V102.681H137.566V110.547H122.103V133.594H145.246V141.459H106.55V141.474Z" fill="#FAED00"/>
<path d="M213.106 133.698V141.474H197.553V133.609H205.241V110.561H197.553V102.696H205.241V87.4252H189.97V141.489H174.417V79.5601H213.113V87.3363H220.801V102.889H213.113V110.48H220.801V133.72H213.113L213.106 133.698Z" fill="#FAED00"/>
<path d="M262.356 141.474V118.33H254.668V110.465H262.356V87.4179H247.085V141.481H231.532V79.5527H270.228V87.329H277.916V110.569H270.228V118.16H277.916V141.489H262.363L262.356 141.474Z" fill="#FAED00"/>
<path d="M288.647 141.474V79.5452H304.2V141.474H288.647Z" fill="#FAED00"/>
<path d="M345.858 133.698V141.474H322.529V133.698H314.842V87.4103H322.529V79.5452H353.545V95.2828H345.68V87.5066H330.409V133.609H345.68V125.744H353.545V133.705H345.858V133.698Z" fill="#FAED00"/>
<path d="M395.013 141.474V125.921H387.325V110.554H379.734V141.474H364.182V79.5452H379.734V102.689H387.325V95.0533H395.013V87.4177H402.7V79.5526H410.565V87.514H402.878V95.2606H395.19V110.472H402.878V125.744H410.565V141.481H395.013V141.474Z" fill="#FAED00"/>
<path d="M452.313 133.698V141.474H428.984V133.698H421.297V125.736H429.162V133.601H444.433V118.36H428.969V110.598H421.282V87.4103H428.969V79.5452H452.298V87.4103H459.985V95.2754H452.12V87.4992H436.849V102.741H452.313V110.502H460V133.69H452.313V133.698Z" fill="#FAED00"/>
</svg>
