<svg width="80" height="97" viewBox="0 0 80 97" fill="none" xmlns="http://www.w3.org/2000/svg">
<path d="M0 73.6171V28.1433L40.0448 5.1225L80 28.1433V73.6171L40.005 96.608L0 73.6171Z" fill="black"/>
<path d="M40.6023 51.1441L40.5625 95.0739L78.8442 72.9397L78.884 28.9402L40.6023 51.1441Z" fill="black"/>
<path d="M1.11523 72.8499L39.4467 95.0738V51.2237L1.11523 28.9998V72.8499Z" fill="black"/>
<path d="M2.05273 28.3027L40.0057 50.3074L77.8889 28.3027L40.0057 6.38763L2.05273 28.3027Z" fill="black"/>
<path d="M0 68.4946V23.0208L40.0448 0L80 23.0208V68.4946L40.005 91.4855L0 68.4946Z" fill="black"/>
<path d="M40.6023 46.0217L40.5625 89.9515L78.8442 67.8172L78.884 23.8177L40.6023 46.0217Z" fill="#004FFF"/>
<path d="M1.11523 67.7275L39.4467 89.9513V46.1013L1.11523 23.8774V67.7275Z" fill="#004FFF"/>
<path d="M2.05273 23.1803L40.0057 45.185L77.8889 23.1803L40.0057 1.2652L2.05273 23.1803Z" fill="#004FFF"/>
<path d="M25.5508 22.8516H30.2725L30.2824 16.4065L41.8078 16.4563V13.8763L25.5707 13.7867L25.5508 22.8516Z" fill="black"/>
<path d="M38.292 29.8645L54.4494 29.8247V20.8893L49.8273 20.8793L49.8373 27.2646L38.292 27.2746V29.8645Z" fill="black"/>
<path d="M7.72969 51.0023V48.2629C8.64614 48.751 9.36336 48.9303 9.83154 48.7112C10.3396 48.4721 10.5089 47.7947 10.5089 46.8484V43.9994C10.5089 41.8677 11.1265 41.0808 12.0828 40.9911C13.0192 40.9014 14.354 41.4593 16.0176 42.3658V44.5274C15.1011 44.0592 14.4437 43.9098 14.0153 44.1588C13.5471 44.4278 13.4475 45.1251 13.4475 46.0017V49.4583C13.4475 50.1058 13.3081 50.6039 12.9096 50.8429C12.5012 51.092 11.7939 51.1119 10.5388 50.6636L10.2698 50.564V51.4805L10.5388 51.6797C11.8039 52.636 12.5211 53.4429 12.9196 54.1402C13.318 54.8275 13.4475 55.465 13.4475 56.1225V59.5791C13.4475 60.4656 13.5571 61.2924 14.0253 62.0794C14.4536 62.7966 15.1111 63.3843 16.0176 63.9422V66.1138C14.3441 65.1674 13.0092 64.241 12.0729 63.1054C11.1066 61.9399 10.499 60.4656 10.489 58.3339V55.4849C10.489 54.5386 10.3097 53.672 9.78174 52.8551C9.31355 52.1279 8.62621 51.5303 7.71973 50.9923L7.72969 51.0023Z" fill="black"/>
<path d="M29.1366 59.3998C29.6048 60.1469 30.3121 60.7446 31.2285 61.2924V64.0517C30.332 63.5935 29.6446 63.4242 29.1665 63.6234C28.6385 63.8525 28.4592 64.5299 28.4592 65.4762V68.3252C28.4592 70.4569 27.8416 71.2439 26.8853 71.3335C25.949 71.4232 24.6042 70.8653 22.9307 69.9688V67.8072C23.8471 68.2754 24.5046 68.4248 24.9329 68.1758C25.4011 67.9068 25.5007 67.1896 25.5007 66.2931V62.8364C25.5007 62.189 25.6402 61.6909 26.0386 61.4518C26.447 61.2028 27.1543 61.1829 28.4094 61.6311L28.6784 61.7307V60.8143L28.4094 60.6151C27.1443 59.6588 26.4271 58.8519 26.0287 58.1546C25.6302 57.4673 25.5007 56.8297 25.5007 56.1723V52.7157C25.5007 51.8291 25.3911 51.0123 24.9229 50.2253C24.4946 49.5181 23.8372 48.9403 22.9307 48.3924V46.2109C24.6042 47.1572 25.939 48.0836 26.8754 49.2093C27.8416 50.3648 28.4493 51.8291 28.4592 53.9708V56.8198C28.4592 57.7561 28.6286 58.6128 29.1267 59.4197L29.1366 59.3998Z" fill="black"/>
<path d="M58.7131 66.9207L58.5238 66.9406C58.4043 66.9406 58.2847 66.9506 58.1652 66.9506C57.8963 66.9506 57.6074 66.9306 57.3085 66.8808C56.8802 66.8111 56.5116 66.7015 56.2028 66.5621L56.0833 66.5023L52.6566 69.6003L50.2559 66.2134L53.3339 62.4679L53.314 62.3783C53.2742 62.179 53.2542 61.9698 53.2343 61.7407C53.2144 61.5017 53.2144 61.2825 53.2144 61.0634C53.2144 60.8442 53.2144 60.6251 53.2343 60.386C53.2542 60.137 53.2742 59.8879 53.314 59.6289L53.3339 59.4695L50.2658 58.4037L52.7462 52.7755L56.1929 52.8651L56.2526 52.7854C56.6013 52.3372 56.9898 51.8889 57.4181 51.4407C57.8365 51.0024 58.2549 50.6238 58.6434 50.325L58.7131 50.2752L59.251 46.0914L64.1221 43.9696L64.6401 47.6254C64.6401 47.6254 65.0386 47.6055 65.1382 47.6055C65.447 47.6055 65.7458 47.6254 66.0347 47.6752C66.4232 47.735 66.7818 47.8446 67.1105 48.004L67.2301 48.0637L70.7066 44.9657L73.0973 48.3227L69.9695 52.0981L69.9894 52.1977C70.0392 52.4069 70.0691 52.6161 70.079 52.8452C70.089 53.0743 70.099 53.2935 70.099 53.5126C70.099 53.7318 70.099 53.941 70.079 54.18C70.0591 54.4092 70.0292 54.6681 69.9794 54.9471L69.9495 55.1164L73.0475 56.1624L70.5672 61.8204L67.0906 61.7009L67.0309 61.7806C66.6722 62.2488 66.2937 62.697 65.8953 63.1254C65.4968 63.5537 65.0884 63.9223 64.6899 64.2311L64.6202 64.2809L64.0922 68.4547L59.2211 70.5765L58.6932 66.9207H58.7131ZM63.0563 52.9747C62.608 52.9747 62.1099 53.0942 61.582 53.3234C60.5559 53.7716 59.6694 54.5386 58.9522 55.6045C58.2349 56.6704 57.8763 57.7562 57.8763 58.842C57.8763 59.9278 58.2648 60.7645 59.0219 61.2327C59.4004 61.4618 59.8188 61.5814 60.277 61.5814C60.7352 61.5814 61.2234 61.4618 61.7513 61.2327C62.7773 60.7844 63.6639 60.0174 64.3811 58.9515C65.0983 57.8857 65.457 56.7899 65.457 55.7141C65.457 54.6383 65.0685 53.7915 64.3114 53.3234C63.9329 53.0942 63.5145 52.9747 63.0563 52.9747Z" fill="black"/>
</svg>
