<svg width="128" height="73" viewBox="0 0 128 73" fill="none" xmlns="http://www.w3.org/2000/svg">
<g clip-path="url(#clip0_402_35)">
<path d="M12.0969 59.4616L12.2076 59.1823L12.0128 58.9534C11.7964 58.6991 11.568 58.363 11.3016 57.9341C11.0511 57.5095 10.8617 57.1329 10.7458 56.8028L10.6418 56.5067L10.3299 56.4717L6.3172 56.0205L6.40486 49.8449L10.3806 49.355L10.6567 49.321L10.7734 49.0684C10.7944 49.0227 10.8176 48.9731 10.8423 48.9204C10.9036 48.7891 10.9741 48.6385 11.0435 48.4816C11.1263 48.2944 11.2259 48.1211 11.3276 47.9449C11.4034 47.8136 11.504 47.6546 11.6313 47.4666C11.7633 47.2716 11.885 47.0931 12.008 46.9274L12.1798 46.6961L12.0657 46.4314L10.4901 42.7763L15.7435 39.6885L18.073 42.8428L18.2495 43.0818L18.5438 43.041C18.9471 42.9851 19.393 42.9588 19.8826 42.9636C20.3737 42.9684 20.8092 43.0029 21.1811 43.067L21.473 43.1173L21.6574 42.8854L24.113 39.796L29.3529 42.8213L27.8684 46.4955L27.7584 46.7678L27.9427 46.9965C28.202 47.3183 28.451 47.6811 28.6891 48.0861C28.9272 48.4911 29.1162 48.8732 29.2618 49.2441L29.3712 49.5229L29.6687 49.558L33.6553 50.0279L33.6016 56.116L29.5177 56.5625L29.2159 56.5955L29.106 56.8785C29.027 57.0817 28.9451 57.2854 28.856 57.4701C28.8416 57.4997 28.8278 57.5282 28.8145 57.5557C28.7285 57.7334 28.6625 57.8696 28.5929 57.9902C28.5176 58.1206 28.4201 58.2744 28.2975 58.4409C28.1555 58.6339 28.0211 58.8313 27.8901 59.0404L27.7497 59.2647L27.8562 59.507L29.4692 63.1765L24.1744 66.3304L21.7668 63.0651L21.5873 62.8217L21.2883 62.8677C20.8793 62.9306 20.4573 62.962 20.005 62.9704L20.005 62.9704L20.0003 62.9705C19.5762 62.9824 19.1918 62.9449 18.8454 62.8761L18.5455 62.8166L18.3558 63.0564L15.8624 66.2094L10.622 63.1838L12.0969 59.4616ZM17.3504 57.4042C18.5955 58.123 19.9082 58.3011 21.2738 57.9374C22.64 57.5735 23.6921 56.759 24.405 55.5241C25.118 54.2892 25.2973 52.9708 24.9294 51.6057C24.5614 50.2407 23.7433 49.189 22.5059 48.4745C21.2673 47.7594 19.9554 47.5824 18.5847 47.9407C17.2098 48.3001 16.1571 49.1153 15.444 50.3504C14.7309 51.5856 14.5513 52.9048 14.9275 54.2752C15.3025 55.6414 16.1118 56.6891 17.3504 57.4042Z" fill="#004FFF" stroke="black"/>
</g>
<path d="M63.336 62.461C77.8264 62.461 89.5733 50.7141 89.5733 36.2236C89.5733 21.7332 77.8264 9.98633 63.336 9.98633C48.8455 9.98633 37.0986 21.7332 37.0986 36.2236C37.0986 50.7141 48.8455 62.461 63.336 62.461Z" fill="#00B1FF"/>
<path d="M63.338 62.9722C48.5958 62.9722 36.5996 50.976 36.5996 36.2238C36.5996 21.4715 48.5958 9.48535 63.338 9.48535C78.0802 9.48535 90.0764 21.4816 90.0764 36.2238C90.0764 50.966 78.0802 62.9622 63.338 62.9622V62.9722ZM63.338 10.4875C49.147 10.4875 37.6018 22.0328 37.6018 36.2238C37.6018 50.4148 49.147 61.96 63.338 61.96C77.529 61.96 89.0742 50.4148 89.0742 36.2238C89.0742 22.0328 77.529 10.4875 63.338 10.4875Z" fill="black"/>
<path d="M71.7157 28.6377H67.2158V36.6352H71.7157V28.6377Z" fill="black"/>
<path d="M59.4676 28.6377H54.9678V36.6352H59.4676V28.6377Z" fill="black"/>
<path d="M48.5947 46.3765V38.2588H53.0946V42.0471H73.5793V38.2588H78.0791V46.3765H48.5947Z" fill="black"/>
<mask id="path-7-inside-1_402_35" fill="white">
<path fill-rule="evenodd" clip-rule="evenodd" d="M35.3994 31.6003H91.6966C90.1705 17.5927 78.1502 6.68555 63.548 6.68555C48.9458 6.68555 36.9255 17.5927 35.3994 31.6003Z"/>
</mask>
<path fill-rule="evenodd" clip-rule="evenodd" d="M35.3994 31.6003H91.6966C90.1705 17.5927 78.1502 6.68555 63.548 6.68555C48.9458 6.68555 36.9255 17.5927 35.3994 31.6003Z" fill="#FFE300"/>
<path d="M35.3994 31.6003L34.4053 31.492L34.2846 32.6003H35.3994V31.6003ZM91.6966 31.6003V32.6003H92.8115L92.6907 31.492L91.6966 31.6003ZM35.3994 32.6003H91.6966V30.6003H35.3994V32.6003ZM92.6907 31.492C91.1088 16.9719 78.6554 5.68555 63.548 5.68555V7.68555C77.645 7.68555 89.2323 18.2135 90.7025 31.7086L92.6907 31.492ZM63.548 5.68555C48.4406 5.68555 35.9872 16.9719 34.4053 31.492L36.3935 31.7086C37.8638 18.2135 49.451 7.68555 63.548 7.68555V5.68555Z" fill="black" mask="url(#path-7-inside-1_402_35)"/>
<rect x="58.7002" y="5.5" width="9.28571" height="23.8571" rx="1.5" fill="#FFE300" stroke="black"/>
<rect x="33" y="27.7998" width="60" height="4.8" rx="2.4" fill="#FFE300" stroke="black"/>
<g clip-path="url(#clip1_402_35)">
<path d="M106.507 28.6946L106.463 28.3974L106.18 28.2964C105.79 28.1571 105.34 27.9384 104.798 27.6474C104.273 27.3503 103.838 27.0643 103.508 26.78L103.27 26.5746L102.981 26.7009L98.3996 28.7072L94.6483 21.9714L98.6076 18.9762L98.8291 18.8087L98.8039 18.5322C98.7983 18.4703 98.7925 18.4033 98.7864 18.3323C98.7713 18.1568 98.754 17.957 98.7319 17.7505C98.7046 17.4959 98.7042 17.2468 98.7042 16.9996C98.7042 16.8115 98.7136 16.5798 98.7335 16.3023C98.7539 16.0164 98.7736 15.7518 98.8027 15.4994L98.8357 15.2137L98.6052 15.0415L94.6519 12.0882L98.397 5.46365L102.849 7.4104L103.122 7.52978L103.357 7.34644C103.752 7.03814 104.21 6.73596 104.731 6.4407C105.254 6.14473 105.738 5.91321 106.175 5.75182L106.453 5.64918L106.496 5.35634L107.217 0.509766H114.749L115.432 5.38274L115.473 5.67342L115.746 5.77954C116.22 5.96313 116.706 6.19648 117.207 6.48094C117.707 6.76542 118.143 7.0564 118.526 7.36307L118.761 7.55075L119.036 7.43172L123.601 5.46193L127.337 12.085L123.235 15.1003L122.991 15.2798L123.037 15.5792C123.077 15.842 123.115 16.1103 123.134 16.3641C123.137 16.4039 123.14 16.4424 123.143 16.4796C123.16 16.7188 123.174 16.9071 123.174 17.081C123.174 17.268 123.164 17.4938 123.136 17.7486C123.104 18.0358 123.083 18.3231 123.072 18.6207L123.063 18.8846L123.275 19.0412L127.277 21.9865L123.529 28.7072L118.927 26.6907L118.649 26.569L118.413 26.7592C118.016 27.0783 117.588 27.371 117.114 27.6573L117.114 27.6572L117.11 27.6597C116.664 27.9348 116.23 28.1327 115.817 28.2736L115.527 28.3722L115.483 28.6746L114.762 33.6116H107.229L106.507 28.6946ZM110.888 23.2002C112.606 23.2002 114.068 22.5994 115.263 21.4046C116.458 20.2096 117.058 18.7379 117.058 17.0301C117.058 15.3224 116.458 13.8507 115.263 12.6556C114.067 11.4606 112.596 10.8601 110.888 10.8601C109.179 10.8601 107.719 11.4614 106.515 12.654C105.309 13.8495 104.708 15.3221 104.708 17.0301C104.708 18.7382 105.309 20.2107 106.515 21.4063C107.719 22.5988 109.179 23.2002 110.888 23.2002Z" fill="#C9FF00" stroke="black"/>
</g>
<defs>
<clipPath id="clip0_402_35">
<rect width="28" height="28" fill="white" transform="translate(14.875 33.876) rotate(30)"/>
</clipPath>
<clipPath id="clip1_402_35">
<rect width="34" height="34.1018" fill="white" transform="translate(94)"/>
</clipPath>
</defs>
</svg>
