<svg width="145" height="165" viewBox="0 0 145 165" fill="none" xmlns="http://www.w3.org/2000/svg">
<g clip-path="url(#clip0_2_207)">
<path d="M35.1137 69.5693C54.143 69.5693 69.5693 54.143 69.5693 35.1137C69.5693 16.0844 54.143 0.658081 35.1137 0.658081C16.0844 0.658081 0.658051 16.0844 0.658051 35.1137C0.658051 54.143 16.0844 69.5693 35.1137 69.5693Z" fill="#C9FF00"/>
<path d="M35.1137 70.2405C15.7538 70.2405 0 54.4867 0 35.1137C0 15.7406 15.7538 0 35.1137 0C54.4736 0 70.2273 15.7538 70.2273 35.1137C70.2273 54.4736 54.4736 70.2273 35.1137 70.2273V70.2405ZM35.1137 1.3161C16.4776 1.3161 1.3161 16.4776 1.3161 35.1137C1.3161 53.7497 16.4776 68.9112 35.1137 68.9112C53.7497 68.9112 68.9112 53.7497 68.9112 35.1137C68.9112 16.4776 53.7497 1.3161 35.1137 1.3161Z" fill="black"/>
<path d="M104.604 165V147.075L109.092 134.572C110.539 130.518 111.289 126.254 111.289 121.95V99.2345C111.289 95.3257 108.434 91.838 104.551 91.4695C100.089 91.0483 96.3385 94.536 96.3385 98.9055V96.089C96.3385 92.1802 93.4826 88.6925 89.6001 88.324C85.1385 87.9028 81.3876 91.3905 81.3876 95.76V90.8114C81.3876 86.9026 78.5316 83.4149 74.6491 83.0464C70.1875 82.6253 66.4366 86.1129 66.4366 90.4824V64.4104C66.4366 60.5015 63.5807 57.0139 59.6982 56.6454C55.2366 56.2242 51.4857 59.7119 51.4857 64.0813V113.027L37.7982 95.8389C35.3634 92.7856 30.9676 91.838 27.6905 93.9701C23.9396 96.418 23.1763 101.485 25.9006 104.907L54.5785 141.271V164.974H104.617L104.604 165Z" fill="black"/>
<path d="M67.0944 87.4688H65.7783V104.223H67.0944V87.4688Z" fill="black"/>
<path d="M82.0456 95.76H80.7295V105.723H82.0456V95.76Z" fill="black"/>
<path d="M96.9965 97.8526H95.6804V107.816H96.9965V97.8526Z" fill="black"/>
<path d="M99.05 159.446V141.521L103.538 129.018C104.986 124.964 105.736 120.7 105.736 116.396V93.6803C105.736 89.7715 102.88 86.2838 98.9974 85.9153C94.5358 85.4941 90.7849 88.9818 90.7849 93.3513V90.5348C90.7849 86.626 87.9289 83.1383 84.0464 82.7698C79.5848 82.3486 75.8339 85.8363 75.8339 90.2058V85.2572C75.8339 81.3484 72.978 77.8607 69.0955 77.4922C64.6339 77.0711 60.883 80.5587 60.883 84.9282V58.8562C60.883 54.9473 58.027 51.4597 54.1445 51.0912C49.6829 50.67 45.932 54.1577 45.932 58.5272V107.473L32.2445 90.2847C29.8097 87.2314 25.414 86.2838 22.1369 88.4159C18.386 90.8638 17.6226 95.9308 20.347 99.3527L49.0249 135.717V159.42H99.0632L99.05 159.446Z" fill="#0062FF"/>
<path d="M99.05 160.104H49.0117L48.3537 159.446V135.967L19.8205 99.787C18.3992 97.9971 17.7937 95.6808 18.1623 93.4171C18.5308 91.1271 19.8205 89.1661 21.7684 87.8895C25.2297 85.6389 30.0467 86.5207 32.7447 89.9031L45.2608 105.617V58.5535C45.2608 56.2635 46.2348 54.0787 47.9194 52.5389C49.6303 50.9727 51.8677 50.2357 54.184 50.4595C58.3034 50.8543 61.5147 54.5525 61.5147 58.8825V80.5193C61.8964 79.9402 62.3439 79.4006 62.8571 78.9268C64.5681 77.3606 66.8055 76.6236 69.1218 76.8473C73.2281 77.2422 76.4525 80.9404 76.4525 85.2704V85.7837C76.8342 85.2046 77.2817 84.665 77.7949 84.1912C79.5059 82.625 81.7432 81.888 84.0596 82.1118C87.7052 82.4539 90.6664 85.4152 91.2718 89.1003C91.6667 88.4422 92.1668 87.85 92.7327 87.3235C94.4436 85.7574 96.681 85.0203 98.9974 85.2441C103.104 85.6389 106.328 89.3372 106.328 93.6672V116.383C106.328 120.766 105.578 125.096 104.091 129.228L99.6423 141.626V159.433L98.9842 160.091L99.05 160.104ZM49.6698 158.788H98.392L98.4314 141.297L102.919 128.794C104.354 124.806 105.078 120.634 105.078 116.396V93.6803C105.078 90.0215 102.38 86.9024 98.9316 86.5734C96.9837 86.3891 95.1149 87.0077 93.6671 88.3106C92.2458 89.6004 91.4298 91.4429 91.4298 93.3513H90.1137V90.5348C90.1137 86.8761 87.4157 83.7569 83.9675 83.4279C82.0196 83.2436 80.1508 83.8622 78.703 85.1651C77.2817 86.4549 76.4657 88.2975 76.4657 90.2058H75.1496V85.2573C75.1496 81.5985 72.4515 78.4793 69.0034 78.1503C67.0555 77.966 65.1867 78.5846 63.7389 79.8875C62.3175 81.1773 61.5016 83.0199 61.5016 84.9282H60.1855V58.8562C60.1855 55.1974 57.4874 52.0783 54.0393 51.7492C52.0914 51.565 50.2225 52.1835 48.788 53.4865C47.3666 54.7763 46.5506 56.6188 46.5506 58.5272V107.473L45.3793 107.881L31.6918 90.6928C29.4149 87.8368 25.3613 87.0735 22.4527 88.9555C20.8076 90.0215 19.7416 91.6667 19.4257 93.5882C19.123 95.4834 19.6231 97.4312 20.8208 98.9316L49.4987 135.296L49.6435 135.704V158.749L49.6698 158.788Z" fill="black"/>
<path d="M61.5279 81.9144H60.2118V98.6684H61.5279V81.9144Z" fill="black"/>
<path d="M76.4791 90.2058H75.163V100.169H76.4791V90.2058Z" fill="black"/>
<path d="M91.4293 92.2986H90.1132V102.261H91.4293V92.2986Z" fill="black"/>
<path d="M46.1163 22.9002H40.207V33.4027H46.1163V22.9002Z" fill="black"/>
<path d="M30.0332 22.9002H24.1239V33.4027H30.0332V22.9002Z" fill="black"/>
<path d="M15.7538 46.1952V35.5348H21.6631V40.5097H48.5642V35.5348H54.4735V46.1952H15.7538Z" fill="black"/>
<path d="M143.337 36.6007L123.595 16.8459V28.046H81.4797V16.8459L61.7382 36.6007L81.4797 56.3422V45.1554H123.595V56.3422L143.337 36.6007Z" fill="#FF5600"/>
<path d="M82.1378 57.9347L60.8037 36.6007L82.1378 15.2666V27.3879H122.95V15.2666L144.284 36.6007L122.95 57.9347V45.8134H82.1378V57.9347ZM80.8217 44.4973H124.266V54.7629L142.415 36.6007L124.266 18.4384V28.704H80.8217V18.4384L62.6726 36.6007L80.8217 54.7629V44.4973Z" fill="black"/>
</g>
<defs>
<clipPath id="clip0_2_207">
<rect width="144.271" height="165" fill="white"/>
</clipPath>
</defs>
</svg>
