<svg width="308" height="602" viewBox="0 0 308 602" fill="none" xmlns="http://www.w3.org/2000/svg">
<g clip-path="url(#clip0_83_7)">
<path d="M192.313 410.647H9.64746V593.313H192.313V410.647Z" stroke="white" stroke-width="1.5" stroke-miterlimit="10"/>
<path d="M100.983 410.658L9.65332 501.987L100.983 593.317L192.312 501.987L100.983 410.658Z" stroke="white" stroke-miterlimit="10"/>
<path d="M192.312 419.335C197.11 419.335 201 415.446 201 410.648C201 405.85 197.11 401.96 192.312 401.96C187.514 401.96 183.625 405.85 183.625 410.648C183.625 415.446 187.514 419.335 192.312 419.335Z" fill="white"/>
<path d="M192.312 602C197.11 602 201 598.111 201 593.313C201 588.515 197.11 584.625 192.312 584.625C187.514 584.625 183.625 588.515 183.625 593.313C183.625 598.111 187.514 602 192.312 602Z" fill="white"/>
<path d="M9.64721 602C14.445 602 18.3345 598.111 18.3345 593.313C18.3345 588.515 14.445 584.625 9.64721 584.625C4.84938 584.625 0.959961 588.515 0.959961 593.313C0.959961 598.111 4.84938 602 9.64721 602Z" fill="white"/>
<path d="M9.64765 420.295C14.9759 420.295 19.2953 415.976 19.2953 410.648C19.2953 405.319 14.9759 401 9.64765 401C4.3194 401 0 405.319 0 410.648C0 415.976 4.3194 420.295 9.64765 420.295Z" fill="white"/>
</g>
<path d="M101 1L101 502L602 502V1L101 1Z" stroke="white" stroke-miterlimit="10"/>
<defs>
<clipPath id="clip0_83_7">
<rect width="201" height="201" fill="white" transform="translate(0 401)"/>
</clipPath>
</defs>
</svg>
