<svg width="142" height="124" viewBox="0 0 142 124" fill="none" xmlns="http://www.w3.org/2000/svg">
<g style="mix-blend-mode:lighten">
<path d="M74.7496 105.722L89.032 97.4258L78.0061 106.992L63.7236 115.302L74.7496 105.722Z" fill="black" stroke="black" stroke-linejoin="round"/>
<path d="M141 92.9398C140.986 92.4804 140.959 92.0074 140.932 91.548C140.919 91.3318 140.892 91.1291 140.878 90.9129C140.878 90.8184 140.865 90.7238 140.851 90.6292C140.838 90.467 140.824 90.3049 140.811 90.1427C140.77 89.6698 140.716 89.1969 140.649 88.724C140.581 88.2375 140.513 87.7646 140.446 87.2782C140.446 87.2782 140.446 87.2511 140.446 87.2376C140.446 87.2241 140.446 87.1971 140.446 87.1836C140.378 86.7242 140.297 86.2782 140.203 85.8188C140.108 85.3189 140 84.8189 139.892 84.319C139.851 84.1433 139.811 83.9677 139.77 83.792C139.743 83.6839 139.716 83.5758 139.703 83.4812C139.649 83.265 139.608 83.0353 139.541 82.8191C139.419 82.3057 139.284 81.8057 139.135 81.2922C139.027 80.9274 138.919 80.5491 138.811 80.1842C138.784 80.1167 138.77 80.0491 138.743 79.968C138.716 79.9005 138.703 79.8329 138.689 79.7654C138.541 79.2654 138.379 78.7654 138.216 78.279C138.054 77.7926 137.879 77.2926 137.703 76.8062C137.676 76.7116 137.635 76.6305 137.608 76.5359C137.581 76.4684 137.554 76.3873 137.527 76.3197C137.419 76.0089 137.298 75.6982 137.176 75.4009C137 74.928 136.811 74.4686 136.608 73.9956C136.473 73.6578 136.325 73.3335 136.176 72.9957C136.149 72.9417 136.122 72.8741 136.095 72.8201C136.068 72.7525 136.041 72.6849 136.014 72.6174C135.811 72.1445 135.595 71.685 135.379 71.2256C135.136 70.7122 134.892 70.2122 134.649 69.7122C134.609 69.6312 134.568 69.5636 134.528 69.4825C134.474 69.388 134.419 69.2934 134.379 69.1853C134.176 68.7799 133.974 68.3745 133.757 67.9827C133.487 67.4827 133.203 66.9963 132.933 66.5099C132.784 66.2531 132.649 66.0099 132.514 65.7532C132.46 65.6586 132.406 65.5505 132.352 65.4559C132.095 65.0235 131.825 64.6181 131.555 64.1857C131.177 63.5642 130.798 62.9426 130.393 62.3346C130.325 62.24 130.271 62.1319 130.204 62.0373C129.609 61.159 129.001 60.2807 128.379 59.443C127.961 58.8754 127.528 58.3079 127.096 57.7674C126.745 57.3215 126.38 56.8756 126.015 56.4432C126.015 56.4432 126.001 56.4297 125.988 56.4162C125.988 56.4162 125.988 56.4162 125.974 56.4027C125.609 55.9568 125.231 55.5244 124.866 55.1055C124.501 54.6866 124.123 54.2678 123.745 53.8624C123.677 53.7948 123.623 53.7273 123.556 53.6597C123.488 53.5922 123.421 53.5246 123.353 53.457C123.083 53.1733 122.826 52.903 122.556 52.6193C122.15 52.2139 121.745 51.8085 121.34 51.4167C121.218 51.2951 121.083 51.1735 120.961 51.0654C120.867 50.9708 120.772 50.8897 120.678 50.7951C120.475 50.606 120.286 50.4168 120.083 50.2411C119.664 49.8628 119.232 49.4844 118.799 49.1196C118.61 48.9575 118.421 48.8088 118.232 48.6467C118.137 48.5656 118.043 48.4845 117.948 48.417C117.813 48.3089 117.664 48.1873 117.529 48.0792C117.11 47.7549 116.691 47.4306 116.259 47.1063C115.948 46.8766 115.637 46.6604 115.327 46.4442C115.273 46.4037 115.219 46.3631 115.165 46.3226C115.11 46.282 115.056 46.2415 115.002 46.2145C114.597 45.9307 114.192 45.6605 113.773 45.4037C113.367 45.147 112.962 44.8903 112.557 44.6606C112.462 44.6065 112.368 44.5525 112.273 44.4984L44.2253 5.16432C43.9145 4.98866 43.6173 4.813 43.3065 4.65086C43.1849 4.5833 43.0768 4.52925 42.9552 4.4752C42.793 4.39412 42.6444 4.31305 42.4822 4.23198C42.3606 4.16442 42.239 4.09686 42.1174 4.04281C41.9282 3.94822 41.7256 3.86715 41.5364 3.77256C41.4013 3.705 41.2526 3.63744 41.1175 3.56988C41.0635 3.54285 40.9959 3.51583 40.9418 3.4888C40.5635 3.31315 40.1852 3.151 39.8068 3.00236C39.8068 3.00236 39.8068 3.00236 39.7933 3.00236C39.4015 2.84022 39.0096 2.7051 38.6313 2.56997C38.5772 2.55646 38.5367 2.54295 38.4826 2.51592C38.3475 2.46188 38.2124 2.42134 38.0773 2.3808C37.8746 2.31324 37.6854 2.24568 37.4827 2.19163C37.3881 2.16461 37.2935 2.13758 37.199 2.11056C37.0233 2.05651 36.8612 2.01597 36.6855 1.97543C36.5504 1.9349 36.4153 1.89436 36.2936 1.86734C36.1585 1.84031 36.0234 1.81329 35.8883 1.77275C35.7126 1.73221 35.5505 1.69168 35.3748 1.66465C35.2802 1.65114 35.1991 1.62412 35.1046 1.6106C34.9424 1.58358 34.7938 1.55656 34.6316 1.52953C34.4425 1.50251 34.2398 1.46197 34.0506 1.43495C33.983 1.43495 33.9155 1.40792 33.8479 1.39441C33.6858 1.36738 33.5371 1.36738 33.375 1.34036C33.1723 1.31334 32.9561 1.29982 32.7534 1.2728C32.6994 1.2728 32.6318 1.25929 32.5643 1.25929C32.4291 1.25929 32.294 1.25929 32.1454 1.24577C31.9022 1.24577 31.6589 1.21875 31.4157 1.21875C31.3482 1.21875 31.2806 1.21875 31.213 1.21875C31.1049 1.21875 31.0104 1.21875 30.9023 1.23226C30.5915 1.23226 30.2942 1.25929 29.9969 1.2728C29.9024 1.2728 29.8078 1.2728 29.7267 1.2728C29.6591 1.2728 29.5916 1.29982 29.524 1.29982C29.0646 1.35387 28.6052 1.40792 28.1728 1.50251C28.1323 1.50251 28.1052 1.50251 28.0647 1.51602C28.0647 1.51602 28.0647 1.51602 28.0512 1.51602C27.4161 1.63763 26.8081 1.81329 26.2135 2.01597C26.1595 2.02948 26.1054 2.043 26.0514 2.05651C26.0108 2.07002 25.9703 2.09705 25.9298 2.11056C25.673 2.20514 25.4163 2.31324 25.1596 2.42134C25.0379 2.47539 24.9163 2.51592 24.7947 2.58349C24.4299 2.75914 24.0651 2.9348 23.7138 3.151L9.4043 11.4475C9.75561 11.2448 10.1204 11.0557 10.4853 10.88C10.6069 10.8259 10.7285 10.7719 10.8501 10.7314C11.1068 10.6233 11.3501 10.5152 11.6203 10.4206C11.7149 10.38 11.8095 10.353 11.9041 10.326C12.4986 10.1233 13.1066 9.94765 13.7417 9.82604C13.7823 9.82604 13.8228 9.82604 13.8768 9.79902C14.3227 9.71794 14.7687 9.65038 15.2281 9.59633C15.3902 9.58282 15.5389 9.56931 15.701 9.5558C15.9983 9.52877 16.309 9.51526 16.6063 9.51526C16.782 9.51526 16.9441 9.51526 17.1198 9.51526C17.363 9.51526 17.6062 9.51526 17.8494 9.54228C18.0521 9.54228 18.2413 9.5558 18.444 9.56931C18.6467 9.58282 18.8629 9.60985 19.0655 9.63687C19.2953 9.66389 19.525 9.69092 19.7547 9.71794C19.9438 9.74497 20.1465 9.7855 20.3357 9.81253C20.5789 9.85307 20.8221 9.8936 21.0789 9.94765C21.241 9.98819 21.4167 10.0152 21.5923 10.0557C21.8626 10.1233 22.1193 10.1774 22.3896 10.2584C22.5652 10.299 22.7274 10.353 22.903 10.3936C23.2003 10.4746 23.484 10.5692 23.7813 10.6638C23.9164 10.7043 24.0516 10.7449 24.2002 10.7989C24.6326 10.9476 25.0785 11.1097 25.5109 11.2854C25.5109 11.2854 25.5244 11.2854 25.5379 11.2854C25.9703 11.461 26.4027 11.6502 26.8486 11.8529C26.9837 11.9204 27.1323 11.988 27.2675 12.0556C27.5783 12.2042 27.889 12.3528 28.2133 12.515C28.3755 12.596 28.5241 12.6771 28.6863 12.7582C29.1051 12.9744 29.524 13.2041 29.9429 13.4473L97.9905 52.7409C98.9634 53.3084 99.9227 53.9165 100.882 54.5786C100.936 54.6191 100.99 54.6596 101.044 54.7002C101.936 55.3217 102.801 55.9838 103.666 56.6729C103.76 56.754 103.855 56.8351 103.963 56.9162C104.787 57.5918 105.611 58.3079 106.409 59.0511C106.503 59.1457 106.598 59.2268 106.692 59.3213C107.503 60.0915 108.3 60.8888 109.084 61.713C109.152 61.7806 109.219 61.8481 109.287 61.9157C110.124 62.8075 110.935 63.7263 111.719 64.6722C111.719 64.6722 111.719 64.6857 111.732 64.6992C112.543 65.6721 113.327 66.6855 114.097 67.7124C114.786 68.6448 115.448 69.6177 116.097 70.5905C116.502 71.1986 116.881 71.8202 117.259 72.4417C117.583 72.9552 117.908 73.4687 118.218 73.9956C118.367 74.2388 118.502 74.4956 118.637 74.7523C119.137 75.6441 119.624 76.5359 120.097 77.4412C120.151 77.5358 120.191 77.6304 120.245 77.725C120.799 78.833 121.326 79.941 121.813 81.0625C121.84 81.1166 121.867 81.1841 121.894 81.2382C122.367 82.3462 122.826 83.4542 123.231 84.5622C123.258 84.6298 123.285 84.7108 123.312 84.7784C123.731 85.9134 124.11 87.062 124.461 88.2105C124.488 88.2781 124.501 88.3456 124.529 88.4267C124.853 89.5347 125.15 90.6292 125.407 91.7372C125.434 91.8453 125.461 91.9534 125.474 92.048C125.731 93.183 125.961 94.318 126.136 95.453C126.136 95.4666 126.136 95.4936 126.136 95.5071C126.312 96.6421 126.447 97.7772 126.542 98.8987C126.542 98.9933 126.555 99.0878 126.569 99.1824C126.65 100.304 126.704 101.412 126.704 102.52C126.704 103.06 126.69 103.587 126.663 104.101C126.663 104.25 126.65 104.398 126.636 104.533C126.609 104.885 126.596 105.249 126.555 105.587C126.542 105.79 126.515 105.979 126.488 106.182C126.461 106.479 126.42 106.763 126.38 107.06C126.353 107.276 126.312 107.479 126.285 107.695C126.245 107.965 126.204 108.222 126.15 108.479C126.109 108.709 126.055 108.938 126.015 109.168C125.961 109.398 125.907 109.627 125.853 109.857C125.785 110.127 125.718 110.384 125.65 110.654C125.596 110.857 125.542 111.06 125.474 111.262C125.38 111.573 125.272 111.884 125.177 112.181C125.123 112.343 125.069 112.505 125.001 112.668C124.812 113.168 124.61 113.668 124.38 114.127C124.353 114.181 124.326 114.222 124.299 114.276C124.002 114.897 123.677 115.492 123.312 116.059C123.285 116.1 123.258 116.154 123.231 116.194C122.934 116.654 122.623 117.086 122.299 117.505C122.218 117.6 122.137 117.708 122.056 117.802C121.731 118.181 121.407 118.559 121.056 118.897C121.029 118.924 121.002 118.951 120.975 118.978C120.61 119.343 120.218 119.667 119.813 119.978C119.718 120.059 119.624 120.126 119.515 120.194C119.11 120.491 118.691 120.788 118.245 121.045L132.528 112.749C132.96 112.492 133.393 112.208 133.798 111.897C133.892 111.83 134.001 111.749 134.095 111.681C134.501 111.37 134.879 111.033 135.257 110.681C135.284 110.654 135.311 110.627 135.338 110.6C135.69 110.262 136.014 109.884 136.338 109.506C136.419 109.411 136.5 109.317 136.581 109.208C136.906 108.79 137.23 108.357 137.514 107.898C137.514 107.898 137.527 107.871 137.541 107.857C137.554 107.83 137.581 107.79 137.595 107.763C137.946 107.209 138.27 106.614 138.568 105.993C138.581 105.952 138.608 105.925 138.622 105.898C138.622 105.884 138.635 105.857 138.649 105.844C138.865 105.371 139.068 104.885 139.27 104.385C139.284 104.344 139.311 104.304 139.324 104.263C139.365 104.141 139.405 104.02 139.446 103.898C139.554 103.601 139.649 103.29 139.743 102.979C139.77 102.898 139.797 102.817 139.824 102.736C139.865 102.615 139.892 102.493 139.919 102.371C139.987 102.115 140.054 101.844 140.122 101.588C140.149 101.479 140.176 101.371 140.203 101.263C140.23 101.142 140.257 101.02 140.27 100.898C140.324 100.669 140.365 100.439 140.405 100.209C140.432 100.088 140.459 99.9796 140.473 99.858C140.5 99.7229 140.513 99.5743 140.541 99.4256C140.568 99.223 140.608 99.0068 140.635 98.7906C140.649 98.6825 140.676 98.5744 140.689 98.4663C140.716 98.2906 140.73 98.1014 140.743 97.9123C140.77 97.7096 140.784 97.5204 140.811 97.3177C140.811 97.2367 140.824 97.1556 140.838 97.0745C140.865 96.8043 140.878 96.534 140.892 96.2638C140.892 96.1151 140.919 95.9665 140.919 95.8179C140.919 95.7773 140.919 95.7503 140.919 95.7098C140.932 95.2504 140.946 94.791 140.946 94.318V94.2369C140.946 93.8046 140.946 93.3722 140.932 92.9398H141Z" fill="#00ACFF" stroke="black" stroke-linejoin="round"/>
<path d="M97.991 52.7544C113.922 61.9562 126.786 84.2379 126.731 102.547C126.677 120.856 113.733 128.234 97.8018 119.032L74.7499 105.722L63.7375 115.303L52.8061 93.0614L29.7542 79.7518C13.8098 70.55 0.946121 48.2548 1.00017 29.9593C1.05422 11.6637 13.9989 4.27252 29.9299 13.4608L97.9775 52.7544H97.991Z" fill="#99DEFF" stroke="black" stroke-linejoin="round"/>
<path d="M48.955 59.1186C48.955 59.0375 48.955 58.9429 48.955 58.8483C48.955 58.7537 48.955 58.6727 48.928 58.5781C48.928 58.4835 48.9145 58.4024 48.901 58.3078C48.901 58.2133 48.8739 58.1187 48.8604 58.0376C48.8469 57.943 48.8334 57.8619 48.8199 57.7674C48.8064 57.6728 48.7794 57.5782 48.7658 57.4836C48.7388 57.389 48.7253 57.2944 48.6983 57.1998C48.6713 57.1053 48.6442 57.0107 48.6172 56.9161C48.5902 56.835 48.5767 56.7675 48.5496 56.6864C48.5496 56.6864 48.5496 56.6864 48.5496 56.6729C48.5496 56.6594 48.5496 56.6458 48.5496 56.6323C48.5226 56.5377 48.4956 56.4432 48.4551 56.3486C48.428 56.254 48.3875 56.1594 48.3605 56.0648C48.3335 55.9702 48.2929 55.8892 48.2659 55.7946C48.2254 55.7 48.1983 55.6189 48.1578 55.5243C48.1308 55.4568 48.1037 55.3892 48.0767 55.3216C48.0767 55.3216 48.0767 55.3216 48.0767 55.3081C48.0767 55.2946 48.0767 55.2811 48.0632 55.2676C48.0227 55.173 47.9821 55.0919 47.9416 54.9973C47.9011 54.9028 47.847 54.8082 47.8065 54.7136C47.7524 54.6055 47.6984 54.4974 47.6308 54.3893C47.5633 54.2677 47.4957 54.1596 47.4416 54.038C47.4416 54.0245 47.4146 53.9974 47.4011 53.9839C47.3876 53.9569 47.3741 53.9299 47.3606 53.9164C47.2255 53.7002 47.0903 53.484 46.9552 53.2678C46.8471 53.1056 46.7255 52.93 46.6039 52.7813C46.5228 52.6732 46.4417 52.5651 46.3607 52.457C46.2931 52.3625 46.2255 52.2814 46.1445 52.2003C46.0769 52.1192 46.0093 52.0382 45.9283 51.9571C45.8607 51.876 45.7932 51.7949 45.7121 51.7274C45.6986 51.7139 45.6851 51.7004 45.6715 51.6869C45.6715 51.6869 45.6715 51.6868 45.658 51.6733C45.604 51.6193 45.5499 51.5517 45.4959 51.4977C45.4148 51.4166 45.3472 51.349 45.2662 51.268C45.1851 51.1869 45.104 51.1193 45.023 51.0383C44.9419 50.9707 44.8608 50.8896 44.7797 50.8221C44.7392 50.7815 44.6987 50.7545 44.6581 50.7275C44.6581 50.7275 44.6446 50.714 44.6311 50.7005C44.6041 50.6734 44.5635 50.6464 44.5365 50.6194C44.4554 50.5518 44.3744 50.4978 44.2933 50.4302C44.2122 50.3762 44.1312 50.3221 44.0501 50.2681C43.969 50.214 43.9014 50.16 43.8204 50.1194C43.7393 50.0654 43.6717 50.0248 43.5907 49.9843C43.5771 49.9843 43.5501 49.9573 43.5366 49.9573C43.4826 49.9168 43.415 49.8897 43.361 49.8627C43.2799 49.8222 43.2123 49.7816 43.1312 49.7411C43.0502 49.7006 42.9826 49.6735 42.915 49.633C42.8475 49.606 42.7664 49.5654 42.6989 49.5384C42.6178 49.5114 42.5502 49.4844 42.4827 49.4573C42.4691 49.4573 42.4556 49.4573 42.4421 49.4438H42.4286C42.4286 49.4438 42.3205 49.4033 42.2665 49.3898C42.1854 49.3627 42.1178 49.3492 42.0368 49.3222C41.9557 49.3087 41.8881 49.2817 41.807 49.2682C41.726 49.2546 41.6449 49.2411 41.5638 49.2276C41.5098 49.2276 41.4557 49.2276 41.4017 49.2141C41.4017 49.2141 41.3882 49.2141 41.3747 49.2141C41.3611 49.2141 41.3341 49.2141 41.3206 49.2141C41.2395 49.2141 41.1449 49.2141 41.0639 49.2141C40.9693 49.2141 40.8747 49.2141 40.7801 49.2276C40.672 49.2276 40.5639 49.2546 40.4693 49.2682C40.3477 49.2952 40.2261 49.3222 40.1045 49.3627C39.9559 49.4168 39.8072 49.4844 39.6586 49.5654L32.9971 53.4434C33.2403 53.2948 33.5105 53.2002 33.8078 53.1327C34.0916 53.0786 34.4023 53.0651 34.7266 53.0921C34.7266 53.0921 34.7401 53.0921 34.7537 53.0921C35.078 53.1191 35.4158 53.2002 35.7671 53.3083C35.7671 53.3083 35.7671 53.3083 35.7806 53.3083C36.1319 53.4299 36.5102 53.6056 36.8886 53.8218C37.2669 54.038 37.6183 54.2947 37.9831 54.5785C37.9831 54.5785 37.9966 54.592 38.0101 54.6055C38.3614 54.8893 38.6857 55.2 39.01 55.5378C39.01 55.5378 39.01 55.5378 39.0235 55.5514C39.3478 55.9027 39.6586 56.2675 39.9424 56.6594C40.2261 57.0512 40.4964 57.4566 40.7396 57.8755C40.7396 57.889 40.7666 57.916 40.7666 57.9295C41.0098 58.3484 41.226 58.7673 41.4152 59.1996C41.4152 59.1996 41.4152 59.1997 41.4152 59.2132C41.6044 59.6591 41.78 60.105 41.9151 60.5509C41.9151 60.5509 41.9151 60.5509 41.9151 60.5644C42.0503 61.0103 42.1584 61.4697 42.2259 61.9156C42.2935 62.375 42.334 62.8209 42.334 63.2533C42.334 63.6857 42.2935 64.0776 42.2259 64.4289V64.4559C42.1584 64.8072 42.0503 65.1315 41.9151 65.4288C41.9151 65.4288 41.9151 65.4288 41.9151 65.4423C41.807 65.6855 41.6584 65.8882 41.5098 66.0774C41.4557 66.1449 41.4152 66.2125 41.3611 66.2666C41.1855 66.4557 40.9828 66.6314 40.7666 66.7665L47.4281 62.8885C47.6443 62.7534 47.847 62.5912 48.0227 62.3885C48.0767 62.3345 48.1173 62.2669 48.1713 62.1994C48.2389 62.1183 48.3064 62.0507 48.374 61.9561C48.4551 61.8345 48.5226 61.7129 48.5767 61.5778C48.5767 61.5778 48.5767 61.5778 48.5767 61.5643C48.5767 61.5643 48.5767 61.5643 48.5767 61.5508C48.6172 61.4562 48.6577 61.3751 48.6983 61.267C48.7388 61.1724 48.7658 61.0779 48.7929 60.9833C48.8199 60.8887 48.8469 60.7941 48.8604 60.6995C48.8604 60.659 48.8739 60.6184 48.8875 60.5779V60.5509C48.8875 60.5103 48.901 60.4698 48.9145 60.4428C48.928 60.3617 48.9415 60.2671 48.955 60.186C48.955 60.105 48.9685 60.0104 48.982 59.9158C48.982 59.8347 48.982 59.7401 48.9956 59.6591C48.9956 59.578 48.9956 59.4834 48.9956 59.3888C48.9956 59.2942 48.9956 59.2132 48.9956 59.1321L48.955 59.1186Z" fill="#00ACFF" stroke="black" stroke-linejoin="round"/>
<path d="M36.835 53.795C39.8482 55.5381 42.2939 59.7674 42.2804 63.2401C42.2669 66.7127 39.8077 68.118 36.7944 66.3749C33.7812 64.6318 31.322 60.4025 31.3355 56.9164C31.349 53.4302 33.8082 52.052 36.835 53.795Z" fill="white" stroke="black" stroke-linejoin="round"/>
<path d="M68.9942 70.6851C68.9942 70.6041 68.9942 70.5095 68.9942 70.4149C68.9942 70.3203 68.9942 70.2392 68.9672 70.1447C68.9672 70.0501 68.9537 69.969 68.9402 69.8744C68.9402 69.7798 68.9132 69.6852 68.8997 69.6042C68.8861 69.5231 68.8726 69.4285 68.8591 69.3474C68.8456 69.2528 68.8186 69.1583 68.8051 69.0637C68.7916 68.9691 68.7645 68.8745 68.7375 68.7799C68.7105 68.6853 68.6835 68.5907 68.6564 68.4962C68.6294 68.4151 68.6159 68.3475 68.5889 68.2665C68.5889 68.2665 68.5889 68.2665 68.5889 68.2529C68.5889 68.2394 68.5889 68.2259 68.5889 68.2124C68.5618 68.1178 68.5348 68.0232 68.4943 67.9287C68.4673 67.8341 68.4267 67.7395 68.3997 67.6449C68.3727 67.5503 68.3321 67.4692 68.3051 67.3747C68.2646 67.2801 68.2376 67.199 68.197 67.1044C68.17 67.0368 68.143 66.9693 68.1159 66.9017C68.1159 66.9017 68.1159 66.9017 68.1159 66.8882C68.1159 66.8747 68.1159 66.8612 68.1024 66.8477C68.0619 66.7531 68.0214 66.672 67.9808 66.5774C67.9403 66.4828 67.8862 66.3883 67.8457 66.2937C67.7917 66.1856 67.7376 66.0775 67.67 65.9694C67.6025 65.8478 67.5349 65.7397 67.4809 65.6181C67.4809 65.6045 67.4538 65.5775 67.4538 65.564C67.4403 65.537 67.4268 65.51 67.4133 65.4965C67.2782 65.2803 67.1431 65.0641 67.0079 64.8479C66.8998 64.6857 66.7782 64.5101 66.6566 64.3614C66.5756 64.2533 66.4945 64.1452 66.4134 64.0371C66.3458 63.9425 66.2783 63.8615 66.1972 63.7804C66.1296 63.6993 66.0621 63.6182 65.981 63.5372C65.9135 63.4561 65.8459 63.375 65.7648 63.3075C65.7513 63.294 65.7378 63.2804 65.7243 63.2669C65.7243 63.2669 65.7243 63.2669 65.7108 63.2534C65.6567 63.1994 65.6027 63.1318 65.5486 63.0778C65.4675 62.9967 65.4 62.9291 65.3189 62.848C65.2378 62.767 65.1568 62.6994 65.0757 62.6183C64.9946 62.5508 64.9135 62.4697 64.8325 62.4021C64.7919 62.3616 64.7514 62.3346 64.7109 62.3076C64.7109 62.3076 64.6974 62.2941 64.6838 62.2805C64.6568 62.2535 64.6163 62.2265 64.5893 62.1995C64.5082 62.1319 64.4271 62.0779 64.346 62.0103C64.265 61.9562 64.1839 61.9022 64.1028 61.8481C64.0217 61.7941 63.9542 61.74 63.8731 61.6995C63.792 61.6455 63.7245 61.6049 63.6434 61.5644C63.6299 61.5644 63.6029 61.5374 63.5893 61.5374C63.5353 61.5103 63.4677 61.4698 63.4137 61.4428C63.3326 61.4022 63.2651 61.3617 63.184 61.3212C63.1029 61.2806 63.0353 61.2536 62.9678 61.2131C62.9002 61.186 62.8191 61.1455 62.7516 61.1185C62.684 61.0915 62.603 61.0644 62.5354 61.0374C62.5219 61.0374 62.5084 61.0374 62.4949 61.0239C62.4949 61.0239 62.4949 61.0239 62.4813 61.0239C62.4273 61.0104 62.3732 60.9834 62.3192 60.9698C62.2381 60.9428 62.1706 60.9293 62.0895 60.9023C62.0084 60.8888 61.9409 60.8618 61.8598 60.8482C61.7787 60.8347 61.6976 60.8212 61.6166 60.8077C61.5625 60.8077 61.5085 60.8077 61.4544 60.7942C61.4544 60.7942 61.4409 60.7942 61.4274 60.7942C61.4139 60.7942 61.3869 60.7942 61.3733 60.7942C61.2923 60.7942 61.1977 60.7942 61.1166 60.7942C61.022 60.7942 60.9274 60.7942 60.8328 60.8077C60.7248 60.8077 60.6167 60.8347 60.5221 60.8482C60.4005 60.8753 60.2788 60.9023 60.1572 60.9428C60.0086 60.9969 59.86 61.0644 59.7113 61.1455L53.0498 65.0235C53.293 64.8749 53.5633 64.7803 53.8605 64.7127C54.1443 64.6587 54.4551 64.6317 54.7794 64.6722C54.7794 64.6722 54.7929 64.6722 54.8064 64.6722C55.1307 64.6992 55.4685 64.7803 55.8198 64.8884C55.8198 64.8884 55.8198 64.8884 55.8333 64.8884C56.1846 65.01 56.563 65.1722 56.9413 65.4019C57.3197 65.6181 57.671 65.8748 58.0223 66.1585C58.0223 66.1585 58.0358 66.1721 58.0493 66.1856C58.4007 66.4693 58.7249 66.7801 59.0492 67.1179C59.0492 67.1179 59.0492 67.1179 59.0627 67.1314C59.7113 67.8206 60.2924 68.6043 60.7788 69.4555C60.7788 69.469 60.8058 69.4961 60.8058 69.5096C61.049 69.9285 61.2652 70.3473 61.4544 70.7797C61.4544 70.7797 61.4544 70.7797 61.4544 70.7932C61.6436 71.2391 61.8192 71.6851 61.9544 72.131C61.9544 72.131 61.9544 72.131 61.9544 72.1445C62.0895 72.5904 62.1976 73.0498 62.2651 73.4957C62.3327 73.9416 62.3732 74.3875 62.3732 74.8199C62.3732 75.2523 62.3327 75.6441 62.2651 75.9955V76.0225C62.1976 76.3738 62.0895 76.6981 61.9544 76.9954C61.9544 76.9954 61.9544 76.9954 61.9544 77.0089C61.8463 77.2521 61.6976 77.4548 61.5355 77.6439C61.4814 77.7115 61.4409 77.7791 61.3869 77.8331C61.2112 78.0223 61.0085 78.1979 60.7923 78.3331L67.4538 74.4551C67.67 74.3199 67.8727 74.1578 68.0484 73.9551C68.1024 73.9011 68.143 73.8335 68.197 73.7659C68.2646 73.6849 68.3321 73.6173 68.3997 73.5227C68.4808 73.4011 68.5483 73.2795 68.6024 73.1444C68.6024 73.1444 68.6024 73.1444 68.6024 73.1309C68.6024 73.1309 68.6024 73.1309 68.6024 73.1173C68.6429 73.0228 68.6835 72.9417 68.724 72.8336C68.7645 72.739 68.7916 72.6444 68.8186 72.5498C68.8456 72.4552 68.8726 72.3607 68.8861 72.2661C68.8861 72.2255 68.8997 72.185 68.9132 72.1445V72.1174C68.9132 72.0769 68.9267 72.0364 68.9402 72.0093C68.9537 71.9283 68.9672 71.8337 68.9807 71.7526C68.9807 71.6715 68.9942 71.577 69.0078 71.4824C69.0078 71.4013 69.0078 71.3067 69.0213 71.2256C69.0213 71.1446 69.0213 71.05 69.0213 70.9554C69.0213 70.9554 69.0213 70.9554 69.0213 70.9419C69.0213 70.8608 69.0213 70.7797 69.0213 70.6987L68.9942 70.6851Z" fill="#00ACFF" stroke="black" stroke-linejoin="round"/>
<path d="M56.8869 65.3614C59.9001 67.1045 62.3458 71.3338 62.3323 74.8065C62.3188 78.2791 59.8596 79.6844 56.8464 77.9413C53.8331 76.1982 51.3874 71.9689 51.4009 68.4828C51.4144 64.9966 53.8737 63.6184 56.8869 65.3614Z" fill="white" stroke="black" stroke-linejoin="round"/>
<path d="M89.0597 82.265C89.0597 82.1839 89.0597 82.0893 89.0597 81.9947C89.0597 81.9002 89.0597 81.8191 89.0326 81.7245C89.0056 81.6299 89.0191 81.5488 89.0056 81.4542C89.0056 81.3597 88.9786 81.2651 88.9651 81.184C88.9516 81.1029 88.9381 81.0083 88.9245 80.9273C88.911 80.8327 88.884 80.7381 88.8705 80.6435C88.8435 80.5489 88.83 80.4543 88.8029 80.3598C88.7759 80.2652 88.7489 80.1706 88.7219 80.076C88.6948 79.9949 88.6813 79.9274 88.6543 79.8463C88.6543 79.8463 88.6543 79.8463 88.6543 79.8328C88.6543 79.8193 88.6543 79.8058 88.6543 79.7922C88.6273 79.6977 88.6003 79.6031 88.5597 79.5085C88.5327 79.4139 88.4922 79.3193 88.4651 79.2247C88.4381 79.1301 88.3976 79.0491 88.3706 78.9545C88.33 78.8599 88.303 78.7788 88.2625 78.6842C88.2354 78.6167 88.2084 78.5491 88.1814 78.4816C88.1814 78.4816 88.1814 78.4816 88.1814 78.468C88.1814 78.4545 88.1814 78.441 88.1679 78.4275C88.1273 78.3329 88.0868 78.2518 88.0463 78.1573C88.0057 78.0627 87.9517 77.9681 87.9111 77.8735C87.8571 77.7654 87.803 77.6573 87.7355 77.5492C87.6679 77.4276 87.6004 77.3195 87.5463 77.1979C87.5463 77.1844 87.5193 77.1574 87.5193 77.1438C87.5058 77.1168 87.4923 77.0898 87.4787 77.0763C87.3436 76.8601 87.2085 76.6439 87.0734 76.4277C86.9653 76.2655 86.8437 76.0899 86.7221 75.9413C86.641 75.8332 86.5599 75.7251 86.4788 75.617C86.4113 75.5224 86.3437 75.4413 86.2626 75.3602C86.1951 75.2792 86.1275 75.1981 86.0464 75.117C85.9789 75.0359 85.9113 74.9549 85.8302 74.8873C85.8167 74.8738 85.8032 74.8603 85.7897 74.8468C85.7897 74.8468 85.7897 74.8468 85.7762 74.8333C85.7222 74.7792 85.6681 74.7116 85.614 74.6576C85.533 74.5765 85.4654 74.509 85.3843 74.4279C85.3033 74.3468 85.2222 74.2793 85.1411 74.1982C85.0601 74.1306 84.979 74.0495 84.8979 73.982C84.8574 73.955 84.8168 73.9144 84.7763 73.8874C84.7763 73.8874 84.7628 73.8739 84.7493 73.8604C84.7222 73.8333 84.6817 73.8063 84.6547 73.7793C84.5736 73.7117 84.4925 73.6577 84.4115 73.5901C84.3304 73.5361 84.2493 73.482 84.1682 73.428C84.0872 73.3739 84.0196 73.3199 83.9385 73.2793C83.8575 73.2253 83.7899 73.1848 83.7088 73.1442C83.6953 73.1442 83.6683 73.1172 83.6548 73.1172C83.6007 73.0902 83.5332 73.0496 83.4791 73.0226C83.398 72.9821 83.3305 72.9415 83.2494 72.901C83.1683 72.8605 83.1008 72.8334 83.0332 72.7929C82.9657 72.7659 82.8846 72.7253 82.817 72.6983C82.7495 72.6713 82.6684 72.6443 82.6008 72.6172C82.5873 72.6172 82.5738 72.6172 82.5603 72.6037C82.5603 72.6037 82.5603 72.6037 82.5468 72.6037C82.4927 72.5902 82.4387 72.5632 82.3846 72.5497C82.3036 72.5227 82.236 72.5091 82.1549 72.4821C82.0738 72.4686 82.0063 72.4416 81.9252 72.4281C81.8441 72.4146 81.7631 72.4011 81.682 72.3875C81.6279 72.3875 81.5739 72.3875 81.5198 72.374C81.5198 72.374 81.5063 72.374 81.4928 72.374C81.4793 72.374 81.4523 72.374 81.4388 72.374C81.3577 72.374 81.2631 72.374 81.182 72.374C81.0875 72.374 80.9929 72.374 80.8983 72.3875C80.7902 72.3875 80.6821 72.4146 80.5875 72.4281C80.4659 72.4551 80.3443 72.4821 80.2227 72.5227C80.074 72.5767 79.9254 72.6443 79.7768 72.7253L73.1152 76.6034C73.3585 76.4547 73.6287 76.3601 73.926 76.2926C74.2097 76.2385 74.5205 76.2115 74.8448 76.252C74.8448 76.252 74.8583 76.252 74.8718 76.252C75.1961 76.2791 75.5339 76.3601 75.8852 76.4682C75.8852 76.4682 75.8852 76.4682 75.8988 76.4682C76.2501 76.5898 76.6284 76.752 77.0068 76.9817C77.3851 77.1979 77.7499 77.4546 78.1013 77.7384C78.1013 77.7384 78.1148 77.7519 78.1283 77.7654C78.4796 78.0492 78.8039 78.3599 79.1282 78.6977C79.1282 78.6977 79.1282 78.6978 79.1417 78.7113C79.466 79.0626 79.7768 79.4274 80.0605 79.8193C80.3443 80.2111 80.6145 80.6165 80.8577 81.0354C80.8577 81.0624 80.8848 81.0759 80.8983 81.1029C81.1415 81.5218 81.3577 81.9407 81.5469 82.3731C81.5469 82.3731 81.5469 82.3731 81.5469 82.3866C81.736 82.8325 81.9117 83.2784 82.0468 83.7243C82.0468 83.7243 82.0468 83.7243 82.0468 83.7378C82.1819 84.1837 82.29 84.6431 82.3576 85.089C82.4252 85.5349 82.4657 85.9808 82.4657 86.4132C82.4657 86.8456 82.4252 87.2375 82.3576 87.5888V87.6158C82.29 87.9671 82.1819 88.2914 82.0468 88.5887C82.0468 88.5887 82.0468 88.5887 82.0468 88.6022C81.9387 88.8454 81.7901 89.0481 81.6415 89.2373C81.5874 89.3049 81.5469 89.3724 81.4928 89.4265C81.3172 89.6156 81.1145 89.7913 80.8983 89.9264L87.5598 86.0484C87.776 85.9133 87.9787 85.7511 88.1544 85.5484C88.2084 85.4944 88.2489 85.4268 88.303 85.3593C88.3705 85.2782 88.4381 85.2106 88.5057 85.1161C88.5867 84.9944 88.6543 84.8728 88.7084 84.7377C88.7084 84.7377 88.7084 84.7377 88.7084 84.7242C88.7084 84.7242 88.7084 84.7242 88.7084 84.7107C88.7489 84.6161 88.7894 84.535 88.83 84.4269C88.8705 84.3324 88.8975 84.2378 88.9245 84.1432C88.9516 84.0486 88.9786 83.954 88.9921 83.8594C88.9921 83.8189 89.0056 83.7784 89.0191 83.7378V83.7108C89.0191 83.6703 89.0327 83.6297 89.0462 83.6027C89.0597 83.5216 89.0732 83.427 89.0867 83.346C89.0867 83.2649 89.1002 83.1703 89.1137 83.0757C89.1137 82.9946 89.1137 82.9001 89.1272 82.819C89.1272 82.7379 89.1272 82.6433 89.1272 82.5487C89.1272 82.4542 89.1272 82.3731 89.1272 82.292L89.0597 82.265Z" fill="#00ACFF" stroke="black" stroke-linejoin="round"/>
<path d="M76.9387 76.9413C79.9519 78.6843 82.3976 82.9137 82.3841 86.3863C82.3706 89.859 79.9113 91.2642 76.8981 89.5212C73.8849 87.7781 71.4392 83.5488 71.4527 80.0626C71.4662 76.5764 73.9254 75.1982 76.9387 76.9413Z" fill="white" stroke="black" stroke-linejoin="round"/>
</g>
</svg>
