<svg width="129" height="97" viewBox="0 0 129 97" fill="none" xmlns="http://www.w3.org/2000/svg">
<g style="mix-blend-mode:lighten">
<path d="M20.9258 59.0543C12.4843 63.9283 5.66075 75.7451 5.68728 85.4465C5.7138 95.148 12.5837 99.0604 21.0253 94.1865L112.761 41.223C121.203 36.3491 128.026 24.5322 128 14.8308C127.973 5.12933 121.103 1.21692 112.662 6.09086L20.9258 59.0543Z" fill="#C9FF00" stroke="black" stroke-linejoin="round"/>
<path d="M1.02668 82.0378C1.02668 81.9914 1.02668 81.9516 1.02668 81.9052C1.02668 81.8124 1.0333 81.7195 1.03993 81.6267C1.03993 81.5139 1.04657 81.4079 1.0532 81.2951C1.0532 81.2089 1.06646 81.1227 1.0731 81.0431C1.07973 80.9437 1.08636 80.8442 1.09962 80.7514C1.09962 80.6851 1.10625 80.6187 1.11288 80.5591C1.12614 80.4198 1.14604 80.2739 1.1593 80.1347C1.16593 80.0551 1.17919 79.9755 1.18582 79.8893C1.18582 79.8628 1.18583 79.8363 1.19246 79.8097C1.22562 79.5577 1.25877 79.2991 1.29855 79.0405V79.0272C1.29855 78.9875 1.31182 78.9477 1.31846 78.9079C1.35161 78.6957 1.3914 78.4835 1.43118 78.2713C1.43781 78.2315 1.44444 78.1917 1.4577 78.1586C1.4776 78.0525 1.49749 77.953 1.51738 77.8469C1.54391 77.7209 1.5638 77.6015 1.59032 77.4755C1.60359 77.4026 1.62349 77.3363 1.63675 77.2633C1.66328 77.1506 1.6898 77.0379 1.71632 76.9318C1.73621 76.8456 1.7561 76.7594 1.776 76.6732C1.80253 76.5671 1.82906 76.4676 1.85558 76.3615C1.8821 76.2488 1.91525 76.136 1.94178 76.0233C1.95504 75.9703 1.96832 75.9172 1.98158 75.8575C2.02136 75.7116 2.06778 75.5591 2.1142 75.4132C2.14072 75.3204 2.16724 75.2276 2.19377 75.1281C2.2004 75.1016 2.20704 75.0751 2.2203 75.0485C2.29987 74.7833 2.38607 74.518 2.47228 74.2594V74.2528C2.47891 74.2263 2.49218 74.1997 2.49881 74.1798C2.57838 73.9477 2.65796 73.7157 2.73753 73.4836C2.75079 73.4438 2.76405 73.4106 2.77732 73.3708C2.81048 73.2846 2.84363 73.1918 2.87679 73.1056C2.9232 72.9796 2.96963 72.8536 3.01604 72.7342C3.0492 72.6547 3.08235 72.5751 3.10888 72.4955C3.14867 72.396 3.18845 72.3032 3.22823 72.2037C3.25476 72.1308 3.28129 72.0645 3.31445 71.9915C3.37412 71.8523 3.43381 71.7064 3.49349 71.5671C3.52665 71.4942 3.5598 71.4213 3.58633 71.3417C3.59959 71.3152 3.60621 71.2886 3.61948 71.2621C3.72557 71.0167 3.83831 70.7714 3.95767 70.526C3.95767 70.5128 3.97094 70.5061 3.97094 70.4929C4.0041 70.4199 4.03724 70.3536 4.07703 70.2807C4.16987 70.095 4.25607 69.9027 4.34892 69.717C4.36217 69.6905 4.38207 69.6573 4.39533 69.6308C4.47491 69.4783 4.55448 69.3258 4.63406 69.1733C4.70037 69.0473 4.76005 68.9213 4.82636 68.8019C4.83962 68.782 4.85288 68.7555 4.86614 68.7356C5.07835 68.3377 5.29717 67.9465 5.52927 67.5619C5.54916 67.5287 5.56905 67.4956 5.58231 67.4624C5.60221 67.4226 5.62874 67.3895 5.64864 67.3497C5.97356 66.8059 6.31174 66.2688 6.65657 65.7383C6.67646 65.7118 6.68973 65.6786 6.70962 65.6521C6.74277 65.6057 6.77594 65.5593 6.8091 65.5128C7.09424 65.0951 7.37938 64.6773 7.67778 64.2728C7.88998 63.981 8.10881 63.6959 8.32764 63.4174C8.33427 63.4041 8.34753 63.3909 8.35416 63.3776C8.51331 63.1787 8.67246 62.9797 8.83824 62.7808C8.8714 62.741 8.90456 62.6946 8.94434 62.6548C9.13665 62.4161 9.33559 62.184 9.53452 61.9585C9.54115 61.9453 9.55441 61.9386 9.56767 61.9254C9.62735 61.859 9.68703 61.7927 9.74671 61.7264C9.87271 61.5805 9.9987 61.4413 10.1313 61.302C10.1579 61.2755 10.1777 61.249 10.2043 61.2225C10.2905 61.1296 10.3767 61.0368 10.4629 60.9506C10.5624 60.8511 10.6552 60.745 10.7547 60.6455C10.7878 60.6058 10.8276 60.5726 10.8674 60.5394C10.9602 60.4466 11.0597 60.3538 11.1525 60.2543C11.2387 60.1747 11.3183 60.0885 11.4045 60.0089C11.4509 59.9625 11.4974 59.9227 11.5438 59.8763C11.6499 59.7769 11.7493 59.684 11.8554 59.5845C11.9284 59.5182 12.0013 59.4519 12.0743 59.3856C12.1339 59.3326 12.187 59.2861 12.2467 59.2331C12.3528 59.1403 12.4589 59.0474 12.565 58.9546C12.6313 58.9015 12.691 58.8419 12.7573 58.7888C12.8236 58.7291 12.8965 58.6761 12.9695 58.6164C13.0689 58.5302 13.175 58.444 13.2812 58.3644C13.3342 58.318 13.3873 58.2782 13.4403 58.2318C13.5265 58.1655 13.6193 58.0992 13.7055 58.0328C13.7984 57.9599 13.8979 57.887 13.9907 57.814C14.0305 57.7875 14.0703 57.7543 14.1101 57.7212C14.2294 57.635 14.3488 57.5488 14.4681 57.4692C14.5477 57.4095 14.6273 57.3498 14.7135 57.2968C14.7334 57.2835 14.7533 57.2636 14.7798 57.2504C14.992 57.1045 15.2108 56.9586 15.4297 56.8193C15.4429 56.8127 15.4562 56.7994 15.4761 56.7928C15.675 56.6668 15.874 56.5475 16.0729 56.4281C16.1259 56.4016 16.1724 56.3684 16.2254 56.3419L107.988 3.37179C108.154 3.27895 108.313 3.18612 108.472 3.09991C108.532 3.06675 108.598 3.0336 108.658 3.00707C108.737 2.96065 108.824 2.92087 108.903 2.88108C108.969 2.84792 109.036 2.81477 109.095 2.78161C109.202 2.72856 109.301 2.68214 109.407 2.63573C109.48 2.60257 109.553 2.56278 109.626 2.52963C109.659 2.51636 109.686 2.5031 109.719 2.48984C109.924 2.397 110.13 2.3108 110.329 2.23122C110.534 2.15165 110.74 2.07207 110.939 1.99913C110.965 1.9925 110.992 1.97924 111.019 1.9726C111.091 1.94608 111.164 1.92619 111.237 1.89966C111.343 1.86651 111.443 1.82672 111.549 1.80019C111.602 1.78693 111.648 1.77367 111.702 1.76041C111.794 1.73388 111.881 1.70736 111.973 1.68746C112.04 1.66757 112.113 1.64768 112.179 1.62778C112.252 1.60789 112.325 1.59463 112.398 1.58136C112.491 1.56147 112.577 1.54158 112.663 1.52168C112.709 1.51505 112.756 1.50179 112.802 1.48853C112.889 1.46863 112.968 1.462 113.054 1.44874C113.16 1.42885 113.26 1.41558 113.359 1.39569C113.392 1.39569 113.432 1.38243 113.472 1.3758C113.558 1.36253 113.644 1.3559 113.724 1.34927C113.837 1.33601 113.943 1.32275 114.049 1.31612C114.082 1.31612 114.115 1.30948 114.148 1.30285C114.221 1.30285 114.294 1.30285 114.367 1.29622C114.5 1.29622 114.626 1.28296 114.752 1.28296C114.785 1.28296 114.825 1.28296 114.858 1.28296C114.911 1.28296 114.971 1.28959 115.024 1.28959C115.183 1.28959 115.349 1.30285 115.508 1.30948C115.554 1.30948 115.607 1.30948 115.654 1.31612C115.687 1.31612 115.72 1.32938 115.76 1.32938C116.005 1.3559 116.244 1.38906 116.476 1.43548C116.496 1.43548 116.516 1.43548 116.536 1.44211C116.536 1.44211 116.542 1.44211 116.549 1.44211C116.881 1.50842 117.205 1.60126 117.517 1.70736C117.544 1.71399 117.577 1.72062 117.603 1.73388C117.623 1.74051 117.65 1.75377 117.67 1.76041C117.809 1.81346 117.942 1.86651 118.074 1.92619C118.14 1.95271 118.207 1.97924 118.266 2.00576C118.459 2.0986 118.651 2.19807 118.837 2.30417L123.512 5.02296C123.326 4.91686 123.134 4.81739 122.941 4.72456C122.875 4.69803 122.815 4.67151 122.749 4.64498C122.617 4.5853 122.484 4.53225 122.345 4.4792C122.292 4.45931 122.245 4.44605 122.192 4.42615C121.88 4.32005 121.556 4.22722 121.224 4.1609C121.197 4.1609 121.178 4.15427 121.151 4.14764C120.919 4.10122 120.68 4.06807 120.435 4.04154C120.355 4.03491 120.269 4.02828 120.183 4.02165C120.024 4.00839 119.865 4.00175 119.699 4.00175C119.606 4.00175 119.513 4.00175 119.42 4.00175C119.294 4.00175 119.162 4.00839 119.036 4.01502C118.93 4.01502 118.823 4.02165 118.717 4.03491C118.611 4.04154 118.499 4.0548 118.392 4.06807C118.273 4.08133 118.154 4.09459 118.028 4.11449C117.928 4.12775 117.822 4.14764 117.723 4.16753C117.59 4.18743 117.457 4.21395 117.325 4.24048C117.239 4.26037 117.146 4.28027 117.06 4.30016C116.92 4.33331 116.781 4.36647 116.635 4.40626C116.542 4.43278 116.456 4.45268 116.363 4.4792C116.211 4.52562 116.052 4.57204 115.899 4.62509C115.826 4.65161 115.753 4.67151 115.68 4.69803C115.448 4.77761 115.223 4.86381 114.991 4.95665C114.759 5.04949 114.526 5.14895 114.288 5.26168C114.215 5.29484 114.142 5.328 114.069 5.36778C113.903 5.44736 113.737 5.52693 113.565 5.61314C113.485 5.65293 113.399 5.69934 113.32 5.73913C113.094 5.85849 112.875 5.97785 112.65 6.10385L20.9137 59.0673C20.6617 59.2132 20.4163 59.3657 20.1643 59.5182C20.1511 59.5249 20.1378 59.5381 20.1179 59.5448C19.8792 59.6973 19.6405 59.8564 19.4017 60.0222C19.3222 60.0819 19.236 60.1416 19.1564 60.1946C18.9973 60.3073 18.8381 60.4201 18.6856 60.5394C18.5861 60.6124 18.4933 60.6853 18.3938 60.7583C18.2546 60.8644 18.1087 60.9771 17.9694 61.0898C17.8633 61.176 17.7638 61.2556 17.6578 61.3418C17.5251 61.4545 17.3925 61.5673 17.2599 61.68C17.1538 61.7728 17.0477 61.8657 16.9416 61.9585C16.809 62.0712 16.683 62.1906 16.5503 62.31C16.4442 62.4094 16.3381 62.5023 16.2387 62.6017C16.106 62.7277 15.98 62.8537 15.8474 62.9797C15.7546 63.0726 15.6551 63.1654 15.5623 63.2649C15.4297 63.3975 15.297 63.5367 15.1644 63.676C15.0782 63.7688 14.9854 63.8617 14.8992 63.9545C14.7467 64.1203 14.5941 64.2861 14.4482 64.4519C14.3886 64.5182 14.3223 64.5911 14.2626 64.6574C14.0504 64.8961 13.8448 65.1415 13.6392 65.3868C13.6061 65.4266 13.5729 65.4731 13.5331 65.5128C13.3607 65.7184 13.1883 65.9306 13.0225 66.1428C12.8037 66.4213 12.5849 66.7065 12.3727 66.9982C12.0743 67.4027 11.7891 67.8139 11.504 68.2383C11.4509 68.3178 11.3979 68.3908 11.3515 68.4704C11 68.9942 10.6618 69.538 10.3435 70.0817C10.3037 70.1547 10.2573 70.221 10.2175 70.2939C9.99207 70.6852 9.76661 71.0764 9.55441 71.4743C9.47484 71.6202 9.40189 71.7661 9.32895 71.912C9.24937 72.0645 9.1698 72.217 9.09023 72.3695C8.98412 72.5817 8.87803 72.8005 8.77856 73.0127C8.74541 73.0857 8.70562 73.1586 8.67246 73.2316C8.53984 73.5101 8.41384 73.7952 8.28785 74.0804C8.25469 74.1533 8.22154 74.2329 8.18839 74.3058C8.09555 74.518 8.00934 74.7302 7.92313 74.9424C7.88335 75.0419 7.84356 75.1347 7.80377 75.2342C7.72421 75.4398 7.64462 75.6387 7.56505 75.8443C7.5319 75.9305 7.49873 76.0233 7.46558 76.1095C7.36611 76.3748 7.27328 76.6466 7.18044 76.9119C7.17381 76.9384 7.16054 76.9649 7.15391 76.9848C7.05444 77.2766 6.96161 77.5684 6.8754 77.8668C6.84888 77.9596 6.82236 78.0591 6.7892 78.1519C6.72952 78.3575 6.66983 78.5564 6.61678 78.762C6.58363 78.8747 6.55711 78.9875 6.53059 79.1002C6.48417 79.2859 6.43774 79.4782 6.39133 79.6638C6.3648 79.7766 6.33828 79.8893 6.31175 80.002C6.26534 80.1943 6.22555 80.3866 6.18576 80.5856C6.16586 80.6851 6.14597 80.7911 6.12608 80.8906C6.07967 81.1426 6.03323 81.4012 5.99345 81.6532C5.99345 81.693 5.98019 81.7262 5.97356 81.7659C5.92714 82.0577 5.88735 82.3429 5.8542 82.6346C5.84093 82.7142 5.8343 82.7938 5.82767 82.88C5.80114 83.0855 5.78125 83.2911 5.76799 83.4967C5.76136 83.5961 5.75473 83.6956 5.74147 83.7951C5.72821 83.9874 5.71494 84.1797 5.70831 84.3786C5.70831 84.4715 5.70168 84.5643 5.69505 84.6638C5.68842 84.9357 5.68178 85.2142 5.68178 85.486C5.68178 85.7712 5.68842 86.0497 5.70168 86.3282C5.70168 86.4078 5.71494 86.4874 5.71494 86.5603C5.7282 86.746 5.74146 86.9316 5.75472 87.1173C5.76135 87.2234 5.77462 87.3295 5.78788 87.4356C5.80778 87.5881 5.82104 87.7473 5.84093 87.8932C5.85419 88.0059 5.87409 88.1186 5.89398 88.2314C5.91388 88.3706 5.94041 88.5099 5.96693 88.6425C5.98682 88.7685 6.01334 88.8879 6.03987 89.0072C6.0664 89.1332 6.09293 89.2526 6.12608 89.3719C6.15924 89.5112 6.19901 89.6504 6.23217 89.7897C6.26533 89.8958 6.29185 90.0019 6.32501 90.108C6.37806 90.2738 6.43111 90.4329 6.48416 90.5921C6.51732 90.6783 6.54384 90.7645 6.577 90.8507C6.67647 91.1159 6.7892 91.3746 6.90193 91.6265C6.91519 91.6531 6.92845 91.6796 6.94172 91.7061C7.10087 92.0377 7.27328 92.3493 7.45895 92.6478C7.47221 92.6743 7.48547 92.6942 7.49873 92.7207C7.65788 92.966 7.82366 93.1915 7.99608 93.4103C8.03587 93.4634 8.08228 93.5164 8.12207 93.5695C8.28785 93.7751 8.46689 93.9674 8.64594 94.1464C8.65919 94.1597 8.67246 94.1729 8.68573 94.1862C8.88467 94.3785 9.09023 94.5509 9.30242 94.7167C9.35548 94.7565 9.40852 94.7963 9.45494 94.8361C9.67377 94.9952 9.89261 95.1477 10.1247 95.287L5.44969 92.5682C5.21761 92.4356 4.99213 92.283 4.77994 92.1173C4.72688 92.0775 4.67384 92.0377 4.6208 91.9979C4.40859 91.8321 4.20303 91.6597 4.00409 91.4674C3.99082 91.4541 3.97756 91.4409 3.9643 91.4276C3.77863 91.2486 3.60622 91.0496 3.44044 90.8507C3.40065 90.7977 3.35423 90.7446 3.31445 90.6915C3.14204 90.4727 2.97625 90.2406 2.81711 90.0019C2.81711 89.9953 2.81047 89.9886 2.80384 89.982C2.79057 89.9688 2.78395 89.9489 2.77732 89.929C2.59164 89.6306 2.41924 89.3189 2.26009 88.9873C2.25346 88.9674 2.24019 88.9542 2.23356 88.9343C2.23356 88.9277 2.22693 88.9144 2.2203 88.9078C2.10094 88.6558 1.99483 88.3971 1.89537 88.1319C1.88873 88.112 1.87547 88.0855 1.86884 88.0656C1.84895 88.0059 1.82906 87.9396 1.80253 87.8733C1.74948 87.7141 1.6898 87.555 1.64338 87.3892C1.63011 87.3428 1.61685 87.303 1.60359 87.2632C1.5837 87.2035 1.57044 87.1372 1.55718 87.0709C1.5174 86.9317 1.48423 86.7924 1.45108 86.6531C1.43781 86.5935 1.41792 86.5404 1.40466 86.4807C1.39139 86.4144 1.37813 86.3481 1.36487 86.2884C1.33834 86.1691 1.31182 86.0431 1.29192 85.9237C1.27866 85.8574 1.2654 85.7977 1.25214 85.738C1.23888 85.6651 1.23225 85.5855 1.21898 85.5126C1.19909 85.3998 1.18582 85.2937 1.16593 85.181C1.1593 85.1213 1.14604 85.0683 1.13941 85.0086C1.12614 84.9158 1.11951 84.8163 1.10625 84.7168C1.09299 84.6107 1.07973 84.5046 1.0731 84.3985C1.0731 84.3587 1.06647 84.3123 1.05984 84.2725C1.04658 84.1333 1.03994 83.9808 1.03331 83.8349C1.03331 83.7553 1.02004 83.6824 1.02004 83.6028C1.02004 83.5829 1.02004 83.563 1.02004 83.5431C1.00678 83.2977 1.00678 83.0524 1.00015 82.807C1.00015 82.7938 1.00015 82.7805 1.00015 82.7606C1.00015 82.5352 1.00015 82.3031 1.00679 82.071L1.02668 82.0378Z" fill="#00DE5A" stroke="black" stroke-linejoin="round"/>
<path d="M47.3847 9.06136C61.8824 0.689429 73.6873 7.41505 73.7256 24.0696C73.7639 40.7241 62.0483 61.0286 47.5506 69.4005C33.0529 77.7724 21.2607 71.0468 21.2096 54.3923C21.1586 37.7378 32.8869 17.4333 47.3847 9.06136Z" fill="white" stroke="black" stroke-linejoin="round"/>
<path d="M59.8906 17.7139L59.9416 35.4021L57.1723 36.9974L57.134 24.7585L36.0893 61.2071L34.1367 60.0712L55.1942 23.61L44.4995 29.7868L44.4868 26.609L59.8906 17.7139Z" fill="#00DE5A"/>
<path d="M58.8836 3.05051C58.8836 3.05051 58.7943 2.99946 58.7432 2.97394C58.6922 2.94841 58.6284 2.92289 58.5773 2.8846C58.2583 2.71869 57.9392 2.55279 57.6074 2.4124C57.5436 2.38688 57.4926 2.34859 57.4287 2.32307C57.3777 2.29754 57.3266 2.28478 57.2756 2.27202C56.8927 2.11888 56.4971 1.97849 56.0887 1.85087C56.076 1.85087 56.0632 1.85087 56.0377 1.83811C55.6165 1.71049 55.1699 1.62115 54.7232 1.53182C54.6721 1.53182 54.6211 1.5063 54.57 1.49353C54.5062 1.49353 54.4297 1.48077 54.3531 1.46801C53.9702 1.4042 53.5746 1.36591 53.1662 1.32763C53.1024 1.32763 53.0386 1.31486 52.9748 1.3021C52.9493 1.3021 52.9237 1.3021 52.911 1.3021C52.4132 1.27658 51.9028 1.27658 51.3923 1.3021C51.3412 1.3021 51.2902 1.3021 51.2391 1.3021C51.1753 1.3021 51.0988 1.31486 51.0349 1.32763C50.4606 1.36591 49.8736 1.41696 49.2865 1.5063C48.8909 1.57011 48.5081 1.64668 48.0997 1.72325C47.972 1.74878 47.8444 1.78706 47.7168 1.81259C47.4743 1.8764 47.2318 1.92744 46.9766 1.99125C46.9511 1.99125 46.9256 2.00402 46.9 2.01678C46.4278 2.1444 45.9556 2.28478 45.4834 2.45069C45.3813 2.48898 45.292 2.52726 45.1899 2.56555C44.807 2.70593 44.4242 2.84631 44.0286 2.99946C43.9775 3.02498 43.9265 3.03775 43.8754 3.06327C43.7861 3.10156 43.684 3.1526 43.5819 3.19089C43.1735 3.36956 42.7524 3.56099 42.3312 3.76518C42.1781 3.84176 42.0121 3.91833 41.859 3.9949C41.3102 4.27567 40.7487 4.5692 40.1999 4.88825C39.3576 5.37321 38.5281 5.90921 37.6986 6.48351C37.4306 6.66218 37.1753 6.86637 36.9073 7.0578C36.3458 7.45343 35.797 7.86181 35.261 8.29572C34.9547 8.5382 34.6612 8.79345 34.3677 9.03592C33.8699 9.45707 33.3722 9.89098 32.8873 10.3377C32.5937 10.6057 32.3002 10.8864 32.0067 11.1672C31.828 11.3459 31.6366 11.499 31.4579 11.6777C30.9729 12.1499 30.5008 12.6348 30.0413 13.1326C30.0413 13.1326 30.0286 13.1453 30.0158 13.1581C29.5308 13.6686 29.0586 14.1918 28.5992 14.7278C28.4461 14.9065 28.3057 15.0852 28.1525 15.2638C27.808 15.6722 27.4634 16.0934 27.1316 16.5145C26.9146 16.7825 26.6849 17.0505 26.4679 17.3313C26.2893 17.561 26.1234 17.8035 25.9447 18.0332C25.7022 18.365 25.4597 18.6841 25.2172 19.0159C25.0513 19.2456 24.8727 19.4625 24.7195 19.6923C24.4388 20.0879 24.1835 20.4835 23.9155 20.8919C23.7496 21.1471 23.5709 21.3896 23.405 21.6449C23.3412 21.747 23.2647 21.8491 23.1881 21.9639C22.7159 22.6914 22.2692 23.4316 21.8353 24.1845C21.8098 24.2356 21.7842 24.2866 21.746 24.3377C21.6566 24.4908 21.5801 24.644 21.4907 24.7971C21.1844 25.3331 20.8909 25.8563 20.5974 26.3924C20.4698 26.6476 20.3421 26.9028 20.2145 27.1581C20.0741 27.4133 19.9465 27.6813 19.8189 27.9493C19.704 28.179 19.5764 28.4088 19.4743 28.6385C19.1808 29.2511 18.9 29.8764 18.6193 30.5017C18.5682 30.6166 18.5172 30.7187 18.4661 30.8208C18.4533 30.8463 18.4406 30.8846 18.4278 30.9101C18.0832 31.6886 17.7642 32.4799 17.4707 33.2711C17.4196 33.4115 17.3686 33.5646 17.3175 33.705C17.2154 33.9986 17.1133 34.2793 17.0112 34.5728C16.8708 34.9685 16.7177 35.3513 16.5901 35.747C16.488 36.0533 16.3986 36.3595 16.3093 36.6658C16.1945 37.0232 16.0796 37.3933 15.9775 37.7506C15.9137 37.9676 15.8371 38.1973 15.7733 38.4142C15.6584 38.8226 15.5819 39.2183 15.4798 39.6139C15.3649 40.0605 15.2501 40.5072 15.148 40.9539C15.1097 41.107 15.0714 41.2602 15.0331 41.4261C14.88 42.1663 14.7396 42.9065 14.6247 43.6339C14.5992 43.7871 14.5737 43.9402 14.5609 44.0934C14.5099 44.4252 14.4588 44.7442 14.4078 45.076C14.3567 45.51 14.3184 45.9439 14.2801 46.3778C14.2546 46.6841 14.2163 47.0031 14.1908 47.3094C14.0632 48.2921 14.0249 49.262 14.0249 50.2192C14.0249 52.2866 14.2163 54.2009 14.5737 55.9493C14.931 57.6978 15.4415 59.293 16.1051 60.7096C16.7688 62.1262 17.5728 63.3641 18.5172 64.4234C19.4615 65.4826 20.5208 66.3632 21.6949 67.0396L28.8927 71.2256C24.1835 68.4817 21.261 62.6622 21.2355 54.3924C21.2355 53.4352 21.2738 52.4653 21.3503 51.4954C21.3759 51.1891 21.4141 50.87 21.4397 50.5637C21.5162 49.8108 21.5928 49.0451 21.7204 48.2793C21.746 48.1262 21.7587 47.973 21.7842 47.8199C21.9246 46.9265 22.1033 46.0332 22.3075 45.1399C22.4096 44.6932 22.5244 44.2465 22.6393 43.7998C22.7925 43.1745 22.9584 42.5492 23.137 41.9238C23.2391 41.5665 23.354 41.1964 23.4688 40.839C23.6858 40.1371 23.9283 39.4352 24.1708 38.7333C24.2729 38.4398 24.375 38.159 24.477 37.8655C24.8344 36.8955 25.2172 35.9384 25.6384 34.9812C25.6894 34.8664 25.7405 34.7643 25.7915 34.6622C26.1744 33.8071 26.57 32.9521 26.9912 32.1098C27.1188 31.8418 27.2592 31.5865 27.3868 31.3185C27.7952 30.5273 28.2163 29.736 28.663 28.9575C28.7523 28.8044 28.8289 28.6512 28.9183 28.4981C29.4415 27.592 30.003 26.6859 30.5773 25.8053C30.7432 25.5501 30.9219 25.2948 31.0878 25.0523C31.509 24.4142 31.9429 23.7889 32.3895 23.1763C32.632 22.8445 32.8745 22.5127 33.117 22.1936C33.4998 21.6831 33.8955 21.1727 34.3039 20.6749C34.6357 20.2538 34.9802 19.8326 35.3248 19.4243C35.9374 18.7096 36.55 17.9949 37.1881 17.3185C37.1881 17.3185 37.2008 17.3058 37.2136 17.293C37.8645 16.6038 38.5281 15.953 39.1917 15.3149C39.4853 15.0341 39.7788 14.7661 40.0723 14.4853C40.5573 14.0387 41.055 13.6047 41.5527 13.1836C41.8462 12.9284 42.1525 12.6859 42.4461 12.4434C42.9948 12.0095 43.5436 11.6011 44.0924 11.2055C44.3604 11.014 44.6156 10.8099 44.8836 10.6312C45.7132 10.0697 46.5427 9.53365 47.385 9.03592C47.9465 8.71687 48.4953 8.42334 49.0441 8.14258C49.21 8.06601 49.3631 7.98943 49.5163 7.91286C49.9374 7.70867 50.3458 7.51724 50.7669 7.33857C50.9201 7.27476 51.0605 7.21095 51.2136 7.14714C51.6092 6.99399 51.9921 6.84085 52.375 6.70046C52.4643 6.66218 52.5664 6.62389 52.6557 6.59837C53.1279 6.43246 53.6001 6.29208 54.0723 6.16446C54.3403 6.08788 54.6211 6.02407 54.8891 5.96026C55.0167 5.93474 55.1443 5.89645 55.2847 5.87093C55.6803 5.78159 56.076 5.70502 56.4716 5.65397C57.0714 5.56464 57.6457 5.51359 58.2328 5.4753C58.3476 5.4753 58.4625 5.46254 58.5773 5.46254C59.0878 5.44978 59.5983 5.44978 60.096 5.46254C60.1854 5.46254 60.2619 5.4753 60.3513 5.48807C60.7596 5.51359 61.1553 5.56464 61.5381 5.62845C61.653 5.65397 61.7806 5.66673 61.8955 5.69226C62.3421 5.76883 62.7761 5.87093 63.21 5.99855C63.2355 5.99855 63.2483 6.01131 63.2738 6.01131C63.6822 6.12617 64.065 6.27931 64.4607 6.43246C64.5755 6.48351 64.6904 6.52179 64.7925 6.57284C65.1243 6.71323 65.4433 6.87913 65.7624 7.04504C65.8645 7.09609 65.9793 7.14714 66.0814 7.21095L58.8836 3.02498V3.05051Z" fill="#D9D9D9" stroke="black" stroke-linejoin="round"/>
</g>
</svg>
