<svg width="53" height="59" viewBox="0 0 53 59" fill="none" xmlns="http://www.w3.org/2000/svg">
<g clip-path="url(#clip0_336_68)">
<path d="M27.0042 39.008C26.3748 39.008 25.7528 38.9774 25.1396 38.9177L25.0427 39.913C23.7182 39.7841 22.4315 39.526 21.1954 39.1515L21.4854 38.1945C20.284 37.8305 19.1329 37.3507 18.0449 36.768L17.5727 37.6495C16.4133 37.0285 15.3222 36.2965 14.3136 35.4679L14.9485 34.6952C13.9865 33.9048 13.1034 33.0218 12.313 32.0597L11.5403 32.6946C10.7117 31.686 9.97974 30.5949 9.35873 29.4355L10.2402 28.9633C9.65749 27.8753 9.17769 26.7242 8.81372 25.5228L7.85668 25.8128C7.48218 24.5767 7.22409 23.29 7.09519 21.9655L8.09049 21.8686C8.03081 21.2554 8.00024 20.6334 8.00024 20.004C8.00024 19.3745 8.03081 18.7526 8.09049 18.1394L7.09519 18.0425C7.22409 16.718 7.48218 15.4313 7.85668 14.1952L8.81372 14.4851C9.17769 13.2838 9.65749 12.1327 10.2402 11.0446L9.35873 10.5725C9.97974 9.41308 10.7117 8.32198 11.5403 7.31339L12.313 7.94822C13.1034 6.98621 13.9865 6.10316 14.9485 5.31276L14.3136 4.5401C15.3222 3.71143 16.4133 2.97949 17.5727 2.35849L18.0449 3.24001C19.1329 2.65725 20.284 2.17744 21.4854 1.81348L21.1954 0.856435C22.4315 0.481933 23.7182 0.22385 25.0427 0.0949453L25.1396 1.09024C25.7528 1.03057 26.3748 1 27.0042 1C27.6337 1 28.2557 1.03057 28.8689 1.09024L28.9657 0.0949454C30.2903 0.22385 31.5769 0.481933 32.813 0.856435L32.5231 1.81348C33.7244 2.17744 34.8755 2.65725 35.9636 3.24001L36.4357 2.35849C37.5951 2.97949 38.6862 3.71143 39.6948 4.5401L39.06 5.31276C40.022 6.10316 40.905 6.98621 41.6954 7.94822L42.4681 7.31339C43.2968 8.32198 44.0287 9.41308 44.6497 10.5725L43.7682 11.0446C44.351 12.1327 44.8308 13.2838 45.1947 14.4851L46.1518 14.1952C46.5263 15.4313 46.7844 16.718 46.9133 18.0425L45.918 18.1394C45.9776 18.7526 46.0082 19.3745 46.0082 20.004C46.0082 20.6334 45.9776 21.2554 45.918 21.8686L46.9133 21.9655C46.7844 23.29 46.5263 24.5767 46.1518 25.8128L45.1947 25.5228C44.8308 26.7242 44.351 27.8753 43.7682 28.9633L44.6497 29.4355C44.0287 30.5949 43.2968 31.686 42.4681 32.6946L41.6954 32.0597C40.905 33.0218 40.022 33.9048 39.06 34.6952L39.6948 35.4679C38.6862 36.2965 37.5951 37.0285 36.4357 37.6495L35.9636 36.768C34.8755 37.3507 33.7244 37.8305 32.5231 38.1945L32.813 39.1515C31.5769 39.526 30.2903 39.7841 28.9657 39.913L28.8689 38.9177C28.2557 38.9774 27.6337 39.008 27.0042 39.008Z" stroke="#E7E6E6" stroke-width="2" stroke-dasharray="4 4"/>
<path d="M35.1954 25.7036H18.7974V28.235H35.1954V25.7036Z" fill="#E7E6E6"/>
<path d="M25.0063 14.0498H14.3237V16.5811H25.0063V14.0498Z" fill="#E7E6E6"/>
<path d="M39.677 14.0498H28.9944V16.5811H39.677V14.0498Z" fill="#E7E6E6"/>
<path d="M32.6323 23.3313L32.6164 23.3154C31.6134 22.2726 31.6054 20.5771 32.6005 19.5264L34.4233 17.592L36.2781 19.5264C37.289 20.5771 37.289 22.2806 36.2781 23.3313C35.2671 24.3821 33.6353 24.3821 32.6323 23.3313Z" fill="#E7E6E6"/>
</g>
<path d="M1.67993 55V42.2734H9.6604V43.9434H3.61353V47.793H9.23853V49.4453H3.61353V53.3301H9.73071V55H1.67993ZM11.8752 55V45.4551H13.6858V47.0195H13.7913C14.1956 45.9561 15.136 45.332 16.3928 45.332C17.6672 45.332 18.5549 45.9561 18.9592 47.0195H19.0647C19.5129 45.9912 20.55 45.332 21.9299 45.332C23.6526 45.332 24.8743 46.4131 24.8831 48.6016V55H23.0022V48.7773C23.0022 47.4854 22.1936 46.9492 21.2092 46.9492C20.0051 46.9492 19.3108 47.7754 19.3108 48.918V55H17.4475V48.6719C17.4475 47.626 16.7356 46.9492 15.7073 46.9492C14.6526 46.9492 13.7561 47.8281 13.7561 49.1113V55H11.8752ZM27.1506 58.5859V45.4551H28.9788V47.002H29.137C29.4709 46.4043 30.1125 45.332 31.8792 45.332C34.1907 45.332 35.887 47.1426 35.887 50.2539C35.887 53.3301 34.2083 55.1846 31.8967 55.1934C30.1653 55.1846 29.4797 54.1299 29.137 53.5059H29.0315V58.5859H27.1506ZM28.9963 50.2188C28.9963 52.2227 29.8752 53.585 31.4749 53.5938C33.1272 53.585 33.9885 52.1348 33.9885 50.2188C33.9885 48.3379 33.1536 46.9229 31.4749 46.9316C29.8577 46.9229 28.9963 48.2324 28.9963 50.2188ZM42.2151 45.4551V46.9492H40.2639V52.1875C40.2727 53.2686 40.8 53.4619 41.4065 53.4707C41.679 53.4707 42.092 53.4443 42.3557 53.418V55.0527C42.1008 55.0879 41.6965 55.123 41.178 55.123C39.7102 55.123 38.3831 54.3145 38.4006 52.5742V46.9492H36.9944V45.4551H38.4006V43.1699H40.2639V45.4551H42.2151ZM45.2034 58.5859C44.8167 58.5771 44.4387 58.5684 44.2014 58.5332V56.9688C44.4124 56.9863 44.7815 56.9951 45.0452 57.0039C45.6252 56.9951 46.1086 56.96 46.5569 55.7559L46.7854 55.123L43.2874 45.4551H45.2913L47.6995 52.8555H47.8049L50.2131 45.4551H52.2346L48.2971 56.2656C47.7434 57.7773 46.7766 58.5771 45.2034 58.5859Z" fill="#E7E6E6"/>
<defs>
<clipPath id="clip0_336_68">
<rect width="40" height="40" fill="white" transform="translate(7.00024)"/>
</clipPath>
</defs>
</svg>
