<svg width="609" height="62" viewBox="0 0 609 62" fill="none" xmlns="http://www.w3.org/2000/svg">
<g clip-path="url(#clip0_251_1103)">
<path d="M30.6872 53.5926V61.2888H7.61071V53.5926H0V45.7131H7.79395V53.5071H22.9176V38.42H7.61071V30.736H0V7.79395H7.61071V0H30.6994V7.79395H38.3101V15.5757H30.5161V7.87947H15.3924V22.9665H30.6872V30.6505H38.2979V53.6048H30.6872V53.5926Z" fill="white"/>
<path d="M74.5802 7.79395V61.301H59.1878V7.79395H43.8809V0H89.875V7.79395H74.568H74.5802Z" fill="white"/>
<path d="M118.473 61.301V45.9941H95.751V61.301H87.957V38.2124H95.5677V15.3924H103.166V0H118.656V15.3924H126.267V38.2001H133.866V61.2888H118.473V61.301ZM110.862 15.5757H103.349V38.2124H110.862V15.5757Z" fill="white"/>
<path d="M177.746 61.301V38.3956H170.135V30.6016H177.746V7.79395H162.622V61.301H147.229V0H185.527V7.69622H193.126V30.6872H185.527V38.2001H193.126V61.2888H177.733L177.746 61.301Z" fill="white"/>
<path d="M229.506 7.79395V61.301H214.114V7.79395H198.807V0H244.801V7.79395H229.494H229.506Z" fill="white"/>
<path d="M302.071 61.301V30.6994H286.947V61.301H271.555V0H286.947V22.9054H302.071V0H317.463V61.301H302.071Z" fill="white"/>
<path d="M330.84 61.301V0H369.138V7.79395H346.232V22.9054H361.527V30.6994H346.232V53.5193H369.138V61.3132H330.84V61.301Z" fill="white"/>
<path d="M412.933 61.301V38.3956H405.322V30.6016H412.933V7.79395H397.809V61.301H382.417V0H420.715V7.69622H428.313V30.6872H420.715V38.2001H428.313V61.2888H412.921L412.933 61.301Z" fill="white"/>
<path d="M441.702 61.301V0H480V7.79395H457.095V22.9054H472.389V30.6994H457.095V53.5193H480V61.3132H441.702V61.301Z" fill="white"/>
</g>
<g clip-path="url(#clip1_251_1103)">
<path d="M523.914 61V41.0526H516.019V61H511.906V41.0526H504.069V61H500V36.984H511.957V40.9569H515.93V36.984H523.965V40.9569H527.931V61H523.914Z" fill="white"/>
<path d="M550.94 57.0271V61H538.887V57.0271H534.914V40.9569H538.887V36.984H550.94V40.9569H554.912V57.0271H550.94ZM550.844 41.0526H538.983V56.9824H550.844V41.0526Z" fill="white"/>
<path d="M565.863 61V57.0271H561.89V40.957H565.863V36.9841H577.819V29H581.888V61H565.869H565.863ZM577.819 41.0526H565.958V56.9825H577.819V41.0526Z" fill="white"/>
<path d="M604.889 57.0271V61H592.837V57.0271H588.87V40.9569H592.837V36.984H604.889V40.9569H608.856V49.043H592.932V56.9824H604.794V53.0095H608.862V57.0271H604.896H604.889ZM604.794 41.0526H592.932V44.9744H604.794V41.0526Z" fill="white"/>
</g>
<defs>
<clipPath id="clip0_251_1103">
<rect width="480" height="61.301" fill="white"/>
</clipPath>
<clipPath id="clip1_251_1103">
<rect width="108.856" height="32" fill="white" transform="translate(500 29)"/>
</clipPath>
</defs>
</svg>
