<svg width="213" height="60" viewBox="0 0 213 60" fill="none" xmlns="http://www.w3.org/2000/svg">
<g clip-path="url(#clip0_22_2038)">
<path d="M27.1207 6.88074H7.12422V13.6344H0.529297V33.5145H7.12422V40.1729H20.3776V53.2463H7.283V46.5032H0.529297V53.331H7.12422V60H27.1207V53.331H33.7156V33.4404H27.1207V26.7819H13.8673V13.7085H26.9725V20.3776H33.7156V13.6344H27.1207V6.88074Z" fill="black"/>
<path d="M99.6858 46.5773L93.1756 46.5032V26.729H86.5489V6.88074H73.2532V26.8878H79.8376V39.9929H73.2532V46.5773L66.743 46.5032V26.729H60.1481V6.88074H46.8101V26.8878H53.405V46.7361L59.9893 46.662V60H73.412V46.7361L86.5066 46.662V60H99.8446V46.662H106.397V26.8878H113.024V6.88074H99.6858V46.5773Z" fill="black"/>
<path d="M152.805 20.2188H146.21V6.88074H132.788V20.2188H126.203V39.9824H119.608V59.9894H126.362V46.7255H146.052V59.9894H159.39V39.9824H152.805V20.2188ZM139.467 39.9824H132.957V20.367H139.467V39.9824Z" fill="black"/>
<path d="M205.755 13.5498V6.88074H172.569V60H185.907V13.6344H199.012V33.398H192.417V40.1517H205.755V33.4721H212.35V13.5498H205.755Z" fill="black"/>
<path d="M27.1207 46.9795V53.6486H7.12422V46.9795H0.529297V40.1517H7.283V46.9054H20.3882V33.832H7.12422V27.1736H0.529297V7.283H7.12422V0.529297H27.1313V7.283H33.7262V14.0367H26.9725V7.36769H13.8673V20.4411H27.1207V27.0995H33.7156V46.9901H27.1207V46.9795Z" fill="#F93AC3"/>
<path d="M27.65 54.1778H6.59492V47.5088H0V39.6224H7.81228V46.3761H19.8589V34.3613H6.59492V27.7029H0V6.75371H6.59492V0H27.6605V6.75371H34.2555V14.566H26.4432V7.89697H14.3966V19.9118H27.65V26.5702H34.2449V47.5194H27.65V54.1884V54.1778ZM7.64291 53.1193H26.5914V46.4502H33.1863V27.6182H26.5914V20.9598H13.338V6.82781H26.5914V1.05857H7.65349V7.81228H1.05857V26.6443H7.65349V33.3027H20.9068V47.4347H7.65349V53.1298L7.64291 53.1193ZM1.04799 46.4502H6.74312V40.681H1.05857V46.4502H1.04799ZM27.5018 13.4968H33.1969V7.80169H27.5018V13.4968Z" fill="black"/>
<path d="M106.398 20.5364V40.2999H99.845V53.638H86.5069V40.2999L73.4018 40.3846V53.6486H59.9791V40.3105L53.3947 40.3952V20.5469H46.7998V0.529297H60.1378V20.3776H66.7222V40.1517L73.2324 40.2258V33.6415H79.8167V20.5364H73.2324V0.529297H86.5281V20.3776H93.1548V40.1517L99.665 40.2258V0.529297H113.003V20.5364H106.376H106.398Z" fill="#F93AC3"/>
<path d="M100.374 54.1778H85.9776V40.8398L73.9311 40.9139V54.1778H59.4498V40.8504L52.8654 40.9351V21.0762H46.2705V0H60.6671V19.8483H67.2515V39.6224L72.7031 39.686V33.1016H79.2875V21.055H72.7031V0H87.0574V19.8483H93.6841V39.6224L99.1357 39.686V0H113.532V21.0656H106.906V40.8292H100.353V54.1673L100.374 54.1778ZM87.0362 53.1193H99.3157V40.7551L92.6467 40.6704V20.9068H86.02V1.05857H73.7829V20.0071H80.3672V34.1708H73.7829V39.8553L87.0362 39.7706V53.1087V53.1193ZM60.5189 53.1193H72.8831V40.7551L66.2141 40.6704V20.9068H59.6297V1.05857H47.3503V20.0071H53.9452V39.8447L60.5295 39.7601V53.1087L60.5189 53.1193ZM100.215 39.7812H105.868V20.0176H112.495V1.05857H100.215V39.7812Z" fill="black"/>
<path d="M146.062 53.6486V40.3846H126.373V53.6486H119.619V33.6415H126.214V13.8673H132.798V0.529297H146.221V13.8673H152.816V33.6309H159.4V53.638H146.062V53.6486ZM139.467 14.0261H132.957V33.6415H139.467V14.0261Z" fill="#F93AC3"/>
<path d="M159.919 54.1778H145.522V40.9139H126.891V54.1778H119.079V33.1122H125.674V13.338H132.258V0H146.74V13.338H153.335V33.1016H159.919V54.1673V54.1778ZM146.581 53.1193H158.86V34.1708H152.276V14.3966H145.681V1.05857H133.317V13.4968H139.986V34.1708H132.417V14.3966H126.722V34.1602H120.127V53.1087H125.822V39.8447H146.57V53.1087L146.581 53.1193ZM133.476 33.1122H138.927V14.5554H133.476V33.1122Z" fill="black"/>
<path d="M205.755 27.1207V33.7897H192.417V27.036H199.012V7.283H185.907V53.6486H172.569V0.529297H205.755V7.19832H212.339V27.1207H205.755Z" fill="#F93AC3"/>
<path d="M186.436 54.1778H172.04V0H206.284V6.66902H212.869V27.65H206.284V34.319H191.888V26.5067H198.483V7.81228H186.436V54.1778ZM173.098 53.1193H185.378V6.75371H199.541V27.5864H192.946V33.2816H205.226V26.6126H211.81V7.72759H205.226V1.05857H173.098V53.1193Z" fill="black"/>
</g>
<defs>
<clipPath id="clip0_22_2038">
<rect width="212.879" height="60" fill="white"/>
</clipPath>
</defs>
</svg>
