<svg width="476" height="276" viewBox="0 0 476 276" fill="none" xmlns="http://www.w3.org/2000/svg">
<mask id="mask0_2_63" style="mask-type:alpha" maskUnits="userSpaceOnUse" x="0" y="0" width="476" height="276">
<rect width="476" height="276" fill="#D9D9D9"/>
</mask>
<g mask="url(#mask0_2_63)">
<g clip-path="url(#clip0_2_63)">
<path d="M120.018 56.6722C120.159 49.5467 120.512 39.5111 121.446 32.174C122.204 26.1597 123.755 17.3235 125.836 10.586C128.004 3.54877 131.283 -6.6103 134.633 -13.7181C136.502 -17.6689 138.653 -22.1664 140.574 -25.4998C142.302 -28.4981 144.506 -32.0961 146.656 -35.4648C147.309 -36.4878 147.961 -37.5108 148.649 -38.5161C149.125 -39.2392 149.601 -39.9271 150.041 -40.5796C150.588 -41.3381 151.134 -42.0965 151.699 -42.8725C151.699 -42.8725 151.699 -42.8725 151.699 -42.8901C152.086 -43.4369 152.474 -43.966 152.897 -44.4775C153.162 -44.8126 153.426 -45.1301 153.691 -45.4652C153.885 -45.7297 154.079 -45.9766 154.29 -46.2412C156.229 -48.7986 158.222 -51.4266 160.126 -53.4548C165.697 -59.3986 173.224 -66.8239 178.866 -71.921C185.547 -77.953 194.768 -83.6498 201.502 -87.8298C207.884 -91.7806 216.928 -96.1546 224.033 -98.712C229.886 -100.829 238.119 -103.439 244.995 -105.344C248.538 -106.331 253.263 -107.213 256.489 -107.707L257.089 -107.795C260.897 -108.377 265.639 -109.118 269.341 -109.347C270.523 -109.418 271.757 -109.488 273.026 -109.541C275.247 -109.735 277.486 -109.876 279.743 -109.929C280.536 -109.947 281.329 -109.965 282.14 -109.965C283.092 -109.965 284.027 -109.912 284.979 -109.876C286.953 -109.876 288.857 -109.876 290.532 -109.859C294.199 -109.788 299.294 -109.33 306.099 -108.483C309.167 -108.095 314.103 -107.337 317.876 -106.437C322.706 -105.291 328.824 -103.809 333.408 -102.363C341.958 -99.6644 348.305 -96.8601 348.41 -96.8072C355.074 -93.8265 358.406 -92.345 365.599 -88.2355C373.18 -83.9144 380.091 -78.8701 380.867 -78.3057L380.673 -78.0235L380.884 -78.3057C387.478 -73.3849 389.946 -71.1979 394.847 -66.8415C397.174 -64.778 402.481 -59.4339 403.732 -58.0405C409.762 -51.3384 411.031 -49.945 416.813 -42.1494C419.634 -38.3397 420.798 -36.4702 425.664 -28.5334C428.907 -23.2422 432.169 -16.1168 434.337 -11.4076C435.977 -7.80963 437.793 -2.76538 438.992 0.568062C440.331 4.27188 443.646 14.3075 445.797 27.4825C446.696 33.003 447.419 40.8163 447.947 50.6931C448.089 53.4269 447.947 56.8485 447.842 59.8822C447.789 61.1697 447.736 62.4043 447.718 63.5331C447.56 70.4645 446.255 80.1826 444.404 88.2605C442.8 95.2096 440.19 103.887 438.286 109.69C437.141 113.182 435.219 117.538 433.685 121.048L433.368 121.754C431.781 125.387 429.383 130.114 427.427 133.553C425.716 136.516 423.566 140.043 421.432 143.359C420.727 144.47 420.022 145.564 419.282 146.64C418.823 147.328 418.365 147.998 417.942 148.633C417.413 149.391 416.866 150.132 416.32 150.873C416.302 150.89 416.285 150.926 416.267 150.943C415.879 151.49 415.474 152.019 415.068 152.548C414.804 152.883 414.539 153.218 414.292 153.554C414.01 153.924 413.728 154.294 413.429 154.665C413.358 154.753 413.288 154.859 413.217 154.947C411.436 157.293 409.603 159.674 407.858 161.543C402.287 167.505 394.759 174.912 389.1 180.009C382.418 186.041 373.198 191.738 366.446 195.918C360.064 199.869 351.002 204.243 343.915 206.8C338.115 208.899 329.688 211.563 322.936 213.432C319.427 214.402 314.702 215.249 311.441 215.795C305.941 216.73 297.478 217.859 288.258 218.035C288.24 218.035 288.205 218.035 288.187 218.035C288.152 218.035 288.117 218.035 288.082 218.035C288.011 218.035 287.958 218.035 287.888 218.035C286.354 218.053 284.926 218.071 283.604 218.071C274.489 218.071 269.712 217.506 261.831 216.572C260.262 216.395 250.513 214.966 242.139 212.656C238.154 211.563 228.846 208.987 219.573 204.931C212.944 202.021 206.668 199.128 197.13 193.22C187.522 187.276 180.347 181.226 177.649 178.969C168.94 171.632 162.629 164.453 159.949 161.385C158.874 160.168 157.587 158.598 156.212 156.869C156.159 156.816 156.124 156.746 156.071 156.693C152.756 152.531 149.001 147.416 146.48 143.447L145.634 142.107C144.294 140.008 142.778 137.61 141.72 135.634C140.169 132.724 136.255 125.352 133.646 119.531C131.883 115.616 129.979 110.342 128.992 107.556C128.374 105.827 127.722 103.693 127.123 101.665C126.964 101.118 126.753 100.589 126.612 100.042C126.523 99.76 126.47 99.4778 126.4 99.1956C126.241 98.6312 126.065 98.0844 125.906 97.5906C124.461 92.8638 122.962 86.0382 122.186 80.6412C121.552 76.2495 119.877 64.5913 120.018 56.7604V56.6722ZM146.515 -32.6253C135.426 -14.4942 128.939 6.08853 127.387 27.6942C129.732 24.8722 132.57 22.4735 135.92 20.5511C139.375 13.796 143.465 7.12912 148.261 0.638611C147.979 -0.331436 147.679 -1.31912 147.415 -2.28917C147.291 -2.76538 147.203 -3.20631 147.097 -3.68252C146.833 -4.74075 146.586 -5.79898 146.374 -6.83958C146.251 -7.43925 146.163 -8.00364 146.057 -8.6033C145.898 -9.50281 145.74 -10.4023 145.616 -11.2842C145.528 -11.9015 145.475 -12.5011 145.405 -13.1184C145.317 -13.9474 145.228 -14.7763 145.158 -15.6053C145.105 -16.2226 145.087 -16.8223 145.07 -17.4219C145.035 -18.2156 145.017 -19.0093 145.017 -19.7853C145.017 -20.385 145.017 -20.967 145.052 -21.5667C145.07 -22.3251 145.123 -23.0835 145.176 -23.8419C145.228 -24.4063 145.281 -24.9883 145.334 -25.5527C145.422 -26.2935 145.528 -27.0342 145.652 -27.7574C145.74 -28.3041 145.828 -28.8332 145.934 -29.3624C146.092 -30.1031 146.269 -30.8262 146.463 -31.5317C146.586 -32.0256 146.709 -32.5194 146.868 -33.0133C146.903 -33.1367 146.939 -33.2778 146.974 -33.4013C146.815 -33.1544 146.656 -32.8898 146.48 -32.6429L146.515 -32.6253ZM357.525 187.47C359.288 181.473 359.394 174.595 358.019 167.099C357.983 167.099 357.93 167.099 357.895 167.099C357.243 167.011 356.608 166.923 355.956 166.834C355.233 166.729 354.493 166.588 353.752 166.464C352.553 166.27 351.355 166.041 350.156 165.811C349.451 165.67 348.745 165.547 348.04 165.406C347.405 165.282 346.771 165.124 346.119 164.983C328.841 172.708 310.436 178.158 291.749 181.068C287.676 184.983 283.604 188.528 279.549 191.668C279.69 196.13 278.808 200.116 276.781 203.449C278.227 203.661 279.655 203.855 281.1 204.031C281.418 204.067 281.735 204.102 282.052 204.137C282.687 204.208 283.339 204.261 283.974 204.331C285.437 204.472 286.918 204.613 288.381 204.737C289.28 204.807 290.18 204.843 291.061 204.896C292.454 204.984 293.829 205.054 295.222 205.09C296.156 205.125 297.108 205.125 298.042 205.143C299.488 205.16 300.934 205.178 302.379 205.143C302.908 205.143 303.419 205.143 303.931 205.125C305.923 205.09 307.897 205.001 309.89 204.896C310.26 204.878 310.63 204.843 311 204.825C312.922 204.702 314.826 204.543 316.73 204.349C317.223 204.296 317.735 204.243 318.228 204.19C319.921 203.996 321.596 203.784 323.27 203.538C323.746 203.467 324.222 203.396 324.698 203.326C326.638 203.026 328.577 202.691 330.499 202.303C330.904 202.232 331.292 202.144 331.68 202.056C333.496 201.686 335.294 201.298 337.075 200.857C337.586 200.733 338.097 200.61 338.591 200.469C339.648 200.204 340.689 199.904 341.746 199.622C347.194 196.095 352.448 192.02 357.472 187.452L357.525 187.47ZM346.171 198.37C347.582 197.929 349.01 197.488 350.403 197.012C350.79 196.871 351.178 196.73 351.584 196.606C352.236 196.377 352.888 196.112 353.541 195.865C354.757 194.102 355.762 192.197 356.573 190.186C353.206 193.132 349.733 195.865 346.171 198.37ZM359.376 185.706C364.876 180.486 370.077 174.665 374.925 168.228C374.538 168.228 374.167 168.245 373.779 168.245C373.568 168.245 373.356 168.245 373.145 168.245C372.563 168.245 371.999 168.245 371.417 168.21C370.765 168.21 370.13 168.175 369.478 168.157C368.878 168.14 368.279 168.104 367.662 168.069C367.01 168.034 366.357 167.981 365.705 167.946C365.088 167.893 364.453 167.857 363.836 167.787C363.184 167.734 362.514 167.663 361.862 167.593C361.227 167.522 360.592 167.452 359.94 167.381C359.764 167.364 359.588 167.346 359.394 167.311C360.575 173.978 360.61 180.168 359.376 185.724V185.706ZM376.018 166.817C383.317 156.887 389.435 146.04 394.371 134.576C383.247 144.188 370.818 152.531 357.543 159.462C358.177 161.631 358.724 163.766 359.147 165.847C365.053 166.605 370.694 166.94 376.018 166.817ZM440.631 60.6935C440.543 59.353 440.42 57.995 440.296 56.6545C440.226 55.949 440.19 55.2259 440.102 54.5204C439.873 52.3158 439.591 50.0935 439.256 47.8712C438.851 45.1903 438.357 42.5095 437.81 39.8462C435.166 27.0769 430.864 14.6073 425.117 2.70217C422.05 6.47655 417.501 8.92813 411.525 10.0216C410.414 12.7378 409.162 15.5068 407.822 18.2935C411.754 39.6875 412.353 61.8575 409.585 83.4102C409.673 83.569 409.744 83.7277 409.832 83.8688C410.202 84.5567 410.555 85.2445 410.908 85.9147C411.436 86.9553 411.948 87.9783 412.459 89.0189C412.776 89.6538 413.094 90.3064 413.393 90.9414C413.499 91.1706 413.605 91.3823 413.711 91.6116C414.663 91.5057 415.597 91.3646 416.531 91.2235C422.067 90.324 426.898 88.7191 430.97 86.4615C435.272 77.9956 438.498 69.371 440.649 60.7111L440.631 60.6935ZM433.244 84.9976C436.189 83.0222 438.692 80.6412 440.702 77.8369C440.702 77.5547 440.737 77.2549 440.755 76.9727C440.79 76.0732 440.843 75.1736 440.86 74.2565C440.896 72.969 440.913 71.6638 440.913 70.3763C440.913 69.4768 440.913 68.595 440.913 67.6954C440.913 66.9371 440.86 66.161 440.843 65.4026C438.939 71.9813 436.4 78.5247 433.244 84.98V84.9976ZM210.441 -79.4874C208.678 -73.4908 208.572 -66.6122 209.929 -59.134C213.808 -58.6049 217.792 -57.8994 221.865 -56.9999C239.124 -64.7074 257.512 -70.1397 276.182 -73.0498C280.254 -76.9829 284.327 -80.528 288.399 -83.6675C288.258 -88.112 289.139 -92.0981 291.149 -95.4315C268.953 -98.6415 246.758 -97.3363 226.149 -91.6395C220.701 -88.112 215.447 -84.0378 210.423 -79.4698L210.441 -79.4874ZM221.776 -90.3696C219.291 -89.5936 216.84 -88.7646 214.425 -87.8651C213.208 -86.1014 212.204 -84.1966 211.393 -82.2036C214.76 -85.149 218.215 -87.8828 221.776 -90.3696ZM208.589 -77.7237C203.089 -72.5031 197.888 -66.6828 193.04 -60.2452C197.976 -60.2981 203.16 -59.9983 208.572 -59.3104C207.391 -65.9773 207.355 -72.168 208.589 -77.7237ZM191.965 -58.8342C184.666 -48.9044 178.549 -38.0575 173.612 -26.5933C184.737 -36.2056 197.165 -44.5304 210.441 -51.4618C209.806 -53.6312 209.242 -55.783 208.819 -57.8642C202.913 -58.6226 197.271 -58.9577 191.965 -58.8342ZM150.182 2.45525C150.447 3.28419 150.764 4.11316 151.046 4.95975C151.328 5.75343 151.575 6.5471 151.892 7.35841C152.21 8.205 152.58 9.06923 152.915 9.93345C153.25 10.7448 153.55 11.5384 153.902 12.3674C154.255 13.1963 154.66 14.0429 155.048 14.8895C156.635 14.7308 158.274 14.6073 159.949 14.5544C162.171 2.15543 165.538 -9.96138 170.051 -21.5138C162.576 -14.6 155.771 -7.08651 149.759 1.009C149.9 1.50284 150.024 1.97904 150.2 2.49052L150.182 2.45525ZM149.283 3.83096C149.125 3.33712 148.931 2.84327 148.772 2.34943C144.717 7.94044 141.121 13.6549 138.053 19.4399C141.879 17.5527 146.251 16.177 151.205 15.3657C152.016 15.2423 152.827 15.1364 153.655 15.0306C153.514 14.7131 153.391 14.4133 153.25 14.1135C152.933 13.3727 152.598 12.6496 152.298 11.9088C151.892 10.9564 151.54 10.0216 151.17 9.06923C150.905 8.39902 150.623 7.7288 150.394 7.05859C149.988 5.98271 149.636 4.90684 149.283 3.83096ZM276.746 182.849C271.281 183.29 265.833 183.537 260.385 183.537C240.305 183.537 220.49 180.397 202.066 173.872C202.983 174.507 203.882 175.142 204.799 175.741C205.698 176.341 206.597 176.905 207.514 177.487C208.731 178.263 209.947 179.039 211.181 179.78C212.098 180.327 213.015 180.874 213.931 181.403C215.183 182.126 216.417 182.831 217.686 183.519C218.603 184.013 219.52 184.507 220.437 185.001C221.724 185.671 223.011 186.341 224.298 186.976C225.197 187.417 226.096 187.876 227.012 188.299C228.352 188.934 229.675 189.534 231.014 190.133C231.896 190.521 232.76 190.927 233.641 191.297C235.034 191.897 236.444 192.461 237.855 193.026C238.683 193.361 239.512 193.696 240.341 194.013C241.839 194.578 243.355 195.125 244.871 195.636C245.612 195.901 246.352 196.165 247.093 196.412C248.803 196.977 250.513 197.506 252.241 198.017C252.681 198.141 253.122 198.299 253.563 198.423C253.721 198.476 253.88 198.511 254.039 198.564C256.101 199.164 258.164 199.71 260.244 200.222C260.632 200.31 261.002 200.398 261.39 200.504C261.866 200.627 262.36 200.716 262.836 200.821C267.896 198.229 273.026 194.931 278.209 190.962C278.068 188.405 277.574 185.706 276.763 182.867L276.746 182.849ZM279.443 189.957C282.722 187.382 286.037 184.525 289.333 181.42C285.578 181.967 281.823 182.391 278.068 182.726C278.773 185.23 279.249 187.646 279.443 189.957ZM277.663 181.35C282.14 180.962 286.618 180.415 291.096 179.727C298.448 172.584 305.764 164.189 312.887 154.612C312.27 154.365 311.67 154.136 311.053 153.889C310.295 153.589 309.555 153.271 308.797 152.954C308.021 152.636 307.263 152.319 306.487 151.984C305.729 151.666 304.953 151.314 304.195 150.979C303.419 150.643 302.644 150.308 301.868 149.956C301.11 149.62 300.352 149.268 299.576 148.915C298.783 148.562 298.007 148.192 297.214 147.821C296.456 147.469 295.698 147.116 294.94 146.746C294.129 146.358 293.335 145.97 292.524 145.564C291.784 145.194 291.026 144.823 290.285 144.453C289.457 144.029 288.611 143.606 287.782 143.183C287.059 142.812 286.354 142.442 285.631 142.072C285.49 142.001 285.367 141.931 285.226 141.86C277.486 146.375 269.747 150.467 262.078 154.083C269.623 163.519 274.983 172.902 277.645 181.35H277.663ZM355.938 158.686C352.307 146.94 345.501 134.047 335.999 120.872C329.635 132.53 322.653 143.677 315.09 153.995C325.756 158.157 336.122 161.349 345.96 163.501C349.327 161.984 352.659 160.379 355.938 158.686ZM348.252 163.995C351.478 164.665 354.651 165.194 357.754 165.635C357.384 163.818 356.89 161.949 356.344 160.044C353.682 161.42 350.984 162.725 348.252 163.995ZM408.439 81.2938C410.855 61.0991 410.308 40.4106 406.8 20.3571C401.864 30.2339 395.482 40.5341 387.76 51.0635C388.13 51.5397 388.536 51.9983 388.906 52.4745C389.205 52.8625 389.488 53.2329 389.787 53.6209C390.88 54.9966 391.956 56.39 392.996 57.7657C393.472 58.4006 393.913 59.0179 394.389 59.6529C395.217 60.7817 396.063 61.9104 396.857 63.0392C397.35 63.7271 397.826 64.4326 398.302 65.1204C399.043 66.1786 399.766 67.2369 400.471 68.2951C400.947 69.0006 401.405 69.7237 401.864 70.4292C402.533 71.4522 403.203 72.4928 403.838 73.5157C404.279 74.2389 404.72 74.9444 405.16 75.6675C405.777 76.6904 406.377 77.6958 406.959 78.7187C407.364 79.4242 407.769 80.1297 408.175 80.8352C408.263 80.9939 408.351 81.1527 408.439 81.3114V81.2938ZM408.281 91.9996C409.656 91.9467 410.996 91.8585 412.318 91.735C411.366 89.7067 410.361 87.6432 409.286 85.5796C408.986 87.7314 408.669 89.8655 408.298 91.9996H408.281ZM291.22 -74.8312C316.836 -76.93 342.452 -74.161 365.864 -65.8891C346.788 -79.0289 326.091 -87.9533 305.13 -92.8036C300.087 -90.2109 294.94 -86.9127 289.756 -82.9443C289.898 -80.3869 290.391 -77.6708 291.202 -74.8312H291.22ZM288.505 -81.9743C285.208 -79.3816 281.894 -76.5244 278.597 -73.4202C282.352 -73.967 286.125 -74.4079 289.898 -74.7254C289.192 -77.2475 288.716 -79.6638 288.505 -81.9743ZM290.285 -73.3497C285.807 -72.9616 281.312 -72.4149 276.852 -71.727C269.5 -64.6016 262.201 -56.2063 255.079 -46.6292C264.141 -43.0312 273.396 -38.763 282.722 -33.8775C290.444 -38.3926 298.183 -42.4845 305.852 -46.0825C298.307 -55.5184 292.947 -64.9014 290.285 -73.332V-73.3497ZM212.01 -50.6858C215.641 -38.9394 222.446 -26.0466 231.949 -12.8715C238.313 -24.5297 245.294 -35.6765 252.875 -45.9943C242.209 -50.139 231.843 -53.3314 222.023 -55.5008C218.638 -53.984 215.324 -52.3613 212.027 -50.6682L212.01 -50.6858ZM219.696 -56.0122C216.452 -56.6825 213.297 -57.2292 210.194 -57.6525C210.564 -55.8182 211.058 -53.9487 211.604 -52.0439C214.266 -53.4196 216.964 -54.7424 219.696 -55.9946V-56.0122ZM181.951 56.9191C182.127 57.1307 182.304 57.36 182.498 57.5717C183.203 58.4359 183.89 59.3001 184.631 60.1644C185.442 61.1168 186.27 62.0692 187.099 63.0216C187.839 63.8858 188.58 64.75 189.338 65.6143C190.184 66.5667 191.066 67.5191 191.947 68.4715C192.723 69.3357 193.498 70.1823 194.292 71.0465C195.173 71.9989 196.108 72.9337 197.007 73.8861C197.5 74.3976 197.994 74.9267 198.505 75.4382C202.172 59.4059 207.197 43.0738 213.438 27.0416C211.974 26.4772 210.511 25.9128 209.048 25.3837C199.175 35.4546 190.025 46.0369 181.951 56.9191ZM207.602 24.8546C190.59 18.7874 174.652 15.6479 161.095 15.9301C160.602 18.7521 160.161 21.5917 159.791 24.4313C159.949 24.7311 160.126 25.0486 160.302 25.366C160.76 26.195 161.201 27.0239 161.677 27.8705C162.206 28.7877 162.77 29.7048 163.316 30.6396C163.828 31.4862 164.304 32.3151 164.833 33.1617C165.414 34.0788 166.014 35.0136 166.613 35.9484C167.16 36.795 167.689 37.6592 168.253 38.5058C168.87 39.4406 169.522 40.3577 170.174 41.2925C170.774 42.1567 171.338 43.0209 171.955 43.8852C172.625 44.8199 173.33 45.7723 174.018 46.7071C174.652 47.5714 175.269 48.4356 175.922 49.2998C176.645 50.2522 177.385 51.2046 178.125 52.157C178.795 53.0213 179.448 53.8855 180.135 54.7321C180.417 55.0848 180.735 55.4552 181.017 55.808C188.95 45.1374 197.906 34.7667 207.585 24.8722L207.602 24.8546ZM328.083 110.572C315.126 94.7334 298.518 78.8246 279.091 64.2562C266.82 80.9939 254.48 97.767 242.756 113.658C256.718 123.852 271.051 132.777 285.261 140.273C299.805 131.736 314.279 121.701 328.101 110.572H328.083ZM286.689 141.031C295.821 145.793 304.9 149.938 313.768 153.448C321.508 142.918 328.648 131.542 335.118 119.602C333.178 116.956 331.133 114.293 328.982 111.63C315.355 122.618 301.057 132.53 286.707 141.014L286.689 141.031ZM277.962 63.4096C277.398 62.9863 276.852 62.563 276.287 62.1574C255.996 47.2892 234.787 35.5075 214.742 27.5531C208.396 43.8146 203.318 60.3936 199.669 76.6375C200.533 77.5194 201.449 78.4013 202.331 79.3008C203.195 80.1474 204.023 81.0116 204.905 81.8582C205.875 82.8106 206.897 83.7453 207.902 84.6978C208.783 85.5267 209.647 86.3733 210.546 87.2023C211.569 88.137 212.609 89.0718 213.649 90.0066C214.566 90.8355 215.465 91.6821 216.417 92.4934C217.457 93.4282 218.55 94.3453 219.608 95.2625C220.56 96.0914 221.512 96.9204 222.482 97.7317C223.575 98.6488 224.703 99.566 225.814 100.483C226.801 101.294 227.753 102.106 228.758 102.899C229.904 103.817 231.085 104.734 232.249 105.651C233.236 106.427 234.223 107.221 235.228 107.997C236.427 108.914 237.643 109.813 238.86 110.73C239.794 111.436 240.711 112.124 241.645 112.829C253.386 96.938 265.727 80.165 277.997 63.4096H277.962ZM213.967 25.7364C215.112 22.8086 216.311 19.8985 217.545 16.9883C215.024 19.387 212.574 21.821 210.141 24.2725C211.41 24.7487 212.68 25.2249 213.967 25.7188V25.7364ZM215.253 26.2479C235.404 34.2552 256.718 46.0898 277.116 61.0109C277.68 61.4342 278.227 61.8575 278.791 62.2632C282.634 57.0073 286.477 51.7514 290.303 46.5307C269.817 31.4509 252.382 14.819 238.842 -1.74242C232.407 3.49585 226.113 8.9634 220.031 14.6426C218.356 18.4699 216.787 22.3501 215.253 26.2303V26.2479ZM327.255 -4.17636C326.761 -4.52911 326.303 -4.89948 325.809 -5.25223C311.653 -15.6229 297.126 -24.6885 282.74 -32.2725C268.195 -23.7361 253.704 -13.7005 239.882 -2.57137C253.351 13.8666 270.716 30.4103 291.114 45.4196C303.719 28.1704 316.007 11.3092 327.237 -4.17636H327.255ZM292.26 46.2486C312.393 60.9227 333.372 72.5633 353.223 80.4472C359.57 64.1856 364.647 47.589 368.314 31.3451C356.591 19.4046 343.174 7.71115 328.383 -3.32977C317.153 12.1381 304.865 28.9993 292.26 46.2486ZM281.294 -33.0485C272.162 -37.8106 263.083 -41.9554 254.215 -45.4828C246.476 -34.9534 239.336 -23.5597 232.866 -11.6369C234.805 -8.99133 236.85 -6.3281 239.001 -3.66488C252.646 -14.6529 266.926 -24.5827 281.294 -33.0662V-33.0485ZM237.943 -2.80065C235.915 -5.30515 233.994 -7.80963 232.16 -10.3141C228.37 -3.24158 224.809 4.00733 221.512 11.3797C226.854 6.49419 232.354 1.7674 237.961 -2.80065H237.943ZM253.704 -47.176C260.474 -56.3121 267.437 -64.4076 274.454 -71.3567C257.194 -68.4994 240.217 -63.4728 224.174 -56.4708C233.624 -54.2838 243.531 -51.162 253.704 -47.176ZM284.15 -33.1191C298.36 -25.5703 312.675 -16.6283 326.62 -6.39865C327.114 -6.04591 327.572 -5.67553 328.066 -5.32278C330.975 -9.32644 333.795 -13.2243 336.546 -17.0163C324.716 -25.7644 314.614 -35.3767 306.769 -44.989C299.276 -41.4791 291.713 -37.5108 284.168 -33.1191H284.15ZM329.194 -4.47619C330.499 -3.50614 331.803 -2.53609 333.09 -1.5484C333.813 -1.00165 334.501 -0.437263 335.223 0.109497C336.616 1.203 338.009 2.27888 339.384 3.39003C340.213 4.06025 341.006 4.71282 341.835 5.38303C343.069 6.38836 344.285 7.39368 345.501 8.399C346.348 9.10449 347.176 9.82762 348.023 10.5508C349.168 11.5208 350.297 12.5085 351.425 13.4785C352.271 14.2193 353.1 14.9601 353.928 15.7008C355.004 16.6709 356.079 17.6409 357.137 18.611C357.966 19.3694 358.777 20.1278 359.588 20.8862C360.628 21.8562 361.65 22.8263 362.673 23.814C363.466 24.5724 364.259 25.3308 365.035 26.1068C366.04 27.0945 367.045 28.0998 368.032 29.0875C368.244 29.2991 368.473 29.5108 368.684 29.7401C370.624 20.9038 372.14 12.191 373.215 3.68987C361.633 -0.91346 349.433 -7.68617 337.709 -16.1873C334.959 -12.3953 332.138 -8.47984 329.229 -4.47619H329.194ZM369.813 30.9218C369.954 31.0629 370.095 31.2216 370.236 31.3627C371.223 32.3857 372.193 33.4086 373.162 34.4316C373.85 35.1724 374.555 35.8955 375.243 36.6362C376.248 37.7121 377.217 38.8056 378.205 39.8815C378.804 40.5517 379.439 41.2396 380.02 41.9098C381.149 43.1797 382.224 44.4496 383.299 45.7194C383.723 46.2133 384.163 46.7071 384.569 47.201C385.345 48.1181 386.085 49.0352 386.825 49.9524C394.865 38.9996 401.388 28.2938 406.359 18.0995C405.901 15.595 405.389 13.1082 404.825 10.6389C404.596 10.6389 404.385 10.6566 404.155 10.6566C395.517 10.6566 385.309 8.38138 374.502 4.21899C373.392 12.9318 371.823 21.8739 369.795 30.9218H369.813ZM407.382 16.0007C408.281 14.0606 409.127 12.1557 409.92 10.2686C408.739 10.4273 407.523 10.5331 406.253 10.586C406.659 12.385 407.029 14.184 407.382 16.0007ZM386.931 52.2099C378.98 62.8805 370.024 73.2688 360.363 83.1633C377.376 89.2305 393.313 92.37 406.87 92.0878C407.364 89.2658 407.805 86.4262 408.175 83.569C402.639 73.3746 395.499 62.8276 386.931 52.2099ZM386.014 51.0988C380.955 44.9081 375.437 38.7175 369.46 32.562C365.793 48.5943 360.769 64.944 354.528 80.9763C355.991 81.5407 357.454 82.1051 358.9 82.6342C368.773 72.5633 377.922 61.981 386.014 51.0812V51.0988ZM354.017 82.2815C352.871 85.2092 351.672 88.1194 350.438 91.0295C352.959 88.6309 355.409 86.1969 357.842 83.7277C356.573 83.2515 355.304 82.7753 354.017 82.2815ZM352.712 81.77C332.738 73.8509 311.635 62.1573 291.431 47.4126C287.606 52.6332 283.762 57.8891 279.919 63.145C299.435 77.7663 316.113 93.7809 329.141 109.743C335.576 104.504 341.87 99.0368 347.934 93.3577C349.609 89.5304 351.196 85.6502 352.712 81.77ZM330.005 110.819C332.032 113.323 333.954 115.828 335.788 118.332C339.578 111.259 343.139 104.011 346.436 96.6382C341.094 101.524 335.611 106.25 329.987 110.819H330.005ZM341.658 163.977C340.988 163.818 340.318 163.642 339.648 163.483C338.908 163.289 338.15 163.095 337.409 162.884C336.722 162.707 336.052 162.513 335.364 162.319C334.606 162.108 333.848 161.896 333.09 161.667C332.403 161.473 331.715 161.261 331.028 161.049C330.269 160.82 329.494 160.573 328.718 160.344C328.03 160.115 327.325 159.885 326.62 159.656C325.844 159.409 325.069 159.145 324.293 158.88C323.588 158.633 322.865 158.386 322.16 158.139C321.384 157.875 320.608 157.61 319.833 157.328C319.057 157.046 318.264 156.746 317.47 156.446C316.395 156.04 315.32 155.635 314.226 155.211C307.439 164.365 300.475 172.461 293.459 179.41C310.718 176.553 327.731 171.508 343.774 164.506C343.069 164.348 342.346 164.171 341.641 163.995L341.658 163.977ZM283.815 141.137C283.533 140.978 283.233 140.82 282.951 140.678C282.299 140.326 281.647 139.991 280.995 139.62C279.796 138.968 278.579 138.297 277.363 137.61C276.763 137.274 276.164 136.939 275.565 136.604C274.278 135.881 272.991 135.14 271.704 134.382C271.104 134.029 270.487 133.659 269.888 133.306C268.918 132.742 267.966 132.16 266.997 131.578C266.327 131.172 265.657 130.766 265.004 130.343C264.105 129.796 263.206 129.232 262.307 128.667C261.62 128.227 260.932 127.803 260.244 127.362C259.363 126.798 258.481 126.233 257.6 125.669C256.912 125.228 256.225 124.77 255.537 124.311C254.656 123.729 253.774 123.147 252.893 122.547C252.205 122.089 251.535 121.63 250.848 121.154C249.949 120.537 249.067 119.919 248.168 119.302C247.516 118.843 246.846 118.385 246.194 117.926C245.242 117.256 244.307 116.586 243.373 115.898C242.879 115.545 242.386 115.193 241.892 114.822C240.429 116.798 239.001 118.738 237.573 120.66C236.127 122.618 234.681 124.558 233.289 126.445C244.307 134.805 253.757 143.906 261.179 153.007C268.671 149.497 276.235 145.511 283.798 141.137H283.815ZM240.764 113.993C236.497 110.854 232.354 107.661 228.317 104.416C227.665 103.887 227.012 103.358 226.36 102.811C224.967 101.682 223.592 100.554 222.235 99.4072C221.459 98.7547 220.701 98.0844 219.925 97.4319C218.727 96.4089 217.528 95.3683 216.347 94.3453C215.536 93.6222 214.725 92.8991 213.931 92.1936C212.821 91.2059 211.728 90.2182 210.652 89.2129C209.841 88.4721 209.03 87.7137 208.237 86.9553C207.197 85.9853 206.174 84.9976 205.152 84.0276C204.358 83.2515 203.565 82.4931 202.772 81.7171C201.784 80.747 200.797 79.777 199.828 78.7893C199.651 78.6129 199.457 78.4189 199.281 78.2425C197.342 87.0788 195.808 95.8092 194.75 104.328C206.509 109.02 218.938 115.898 230.82 124.611C231.261 124.946 231.702 125.281 232.143 125.599C234.875 121.912 237.714 118.067 240.746 113.976L240.764 113.993ZM198.135 77.0961C197.941 76.9021 197.747 76.6905 197.553 76.4788C196.601 75.4911 195.667 74.5034 194.733 73.5334C194.01 72.7573 193.269 71.9813 192.546 71.2053C191.612 70.1999 190.713 69.1946 189.814 68.1893C189.126 67.4309 188.439 66.6725 187.786 65.9317C186.852 64.8735 185.953 63.8152 185.036 62.757C184.437 62.0515 183.82 61.3461 183.238 60.6582C182.515 59.794 181.828 58.9474 181.122 58.0832C173.083 69.0359 166.543 79.7593 161.589 89.9537C162.047 92.4582 162.558 94.945 163.123 97.4142C171.902 97.2908 182.357 99.5483 193.446 103.817C194.556 95.0861 196.143 86.144 198.153 77.0785L198.135 77.0961ZM160.566 92.0525C159.667 93.975 158.821 95.8974 158.028 97.7846C159.209 97.6259 160.425 97.5201 161.695 97.4671C161.289 95.6681 160.919 93.8691 160.566 92.0701V92.0525ZM161.13 87.6608C166.067 77.784 172.449 67.4662 180.188 56.9367C180.135 56.8838 180.1 56.8309 180.047 56.778C179.659 56.3018 179.271 55.8432 178.901 55.367C177.526 53.6386 176.186 51.9101 174.899 50.1817C174.388 49.5114 173.93 48.8412 173.436 48.1887C172.643 47.1128 171.832 46.0193 171.074 44.9434C170.527 44.185 170.016 43.4266 169.504 42.6682C168.817 41.6805 168.147 40.6928 167.495 39.7228C166.966 38.9291 166.472 38.1531 165.961 37.3594C165.344 36.407 164.745 35.4722 164.145 34.5198C163.651 33.7261 163.158 32.9324 162.682 32.1211C162.118 31.204 161.571 30.2692 161.042 29.3521C160.584 28.5584 160.126 27.7647 159.685 26.971C159.632 26.8829 159.579 26.7947 159.526 26.6888C157.111 46.9011 157.657 67.6073 161.148 87.6608H161.13ZM159.667 16.0007C158.31 16.0536 156.97 16.1418 155.648 16.2652C155.841 16.6709 156 17.0765 156.194 17.4822C156.617 18.3817 157.093 19.2988 157.552 20.1983C157.922 20.9391 158.274 21.6622 158.662 22.4206C158.962 20.2865 159.279 18.1348 159.65 16.0183L159.667 16.0007ZM161.36 14.5368C175.164 14.3075 191.401 17.5527 208.678 23.7787C211.992 20.41 215.395 17.0942 218.868 13.8489C222.64 5.18903 226.783 -3.29449 231.226 -11.5487C221.547 -24.9354 214.566 -38.0575 210.811 -50.0508C196.866 -42.749 183.89 -33.8775 172.378 -23.595C167.407 -11.4253 163.722 1.39702 161.342 14.5368H161.36ZM289.721 -84.6551C294.217 -88.0415 298.677 -90.9164 303.085 -93.2798C299.629 -94.0382 296.156 -94.6731 292.701 -95.2199C290.726 -92.2392 289.756 -88.6764 289.721 -84.6551ZM305.024 -94.3027C310.859 -97.2481 316.571 -99.2588 322.072 -100.299C318.845 -101.675 315.584 -102.857 312.27 -103.897C310.436 -103.844 308.655 -103.721 306.998 -103.456C301.057 -102.486 296.562 -100.123 293.617 -96.4721C297.425 -95.8724 301.216 -95.1669 305.024 -94.3027ZM307.139 -93.7912C327.66 -88.8352 347.864 -79.9813 366.569 -67.1237C354.034 -81.4275 339.737 -92.2744 324.364 -99.2588C318.828 -98.4651 313.063 -96.6308 307.139 -93.7912ZM291.625 -73.4555C294.27 -65.2013 299.611 -55.977 307.122 -46.6821C328.454 -56.5943 349.151 -62.7497 367.221 -63.8961C343.58 -72.5913 317.594 -75.5543 291.625 -73.4555ZM308.038 -45.571C315.796 -36.188 325.739 -26.752 337.374 -18.1627C350.491 -36.3114 361.597 -51.7617 369.266 -62.6086C350.984 -61.8149 329.864 -55.6771 308.038 -45.5886V-45.571ZM338.52 -17.3161C350.032 -8.95605 362.003 -2.28917 373.356 2.26124C376.212 -21.7078 375.437 -43.8602 370.395 -61.7444C362.726 -50.9151 351.637 -35.4472 338.52 -17.3161ZM374.696 2.79036C385.609 7.04094 395.869 9.29851 404.508 9.22796C398.602 -16.1873 387.83 -40.1387 372.263 -60.157C376.9 -42.3786 377.517 -20.6496 374.679 2.79036H374.696ZM405.936 9.19269C407.523 9.12214 409.074 9.0163 410.537 8.76939C413.552 1.29119 415.668 -5.83426 416.813 -12.5011C405.883 -30.2619 391.55 -46.3118 374.502 -59.5926C389.646 -39.6272 400.136 -15.9228 405.936 9.19269ZM417.148 -14.6176C418.03 -20.7025 418.065 -26.364 417.272 -31.5317C406.306 -43.4192 392.238 -53.2608 375.542 -60.5627C392.202 -47.5464 406.271 -31.9198 417.131 -14.6176H417.148ZM412.159 8.45193C417.624 7.3055 421.75 4.88919 424.447 1.29119C422.437 -2.78302 420.234 -6.78667 417.889 -10.7198C416.725 -4.65257 414.804 1.76741 412.159 8.45193ZM416.761 92.6169C415.95 92.7403 415.139 92.8638 414.31 92.952C414.486 93.3577 414.663 93.7633 414.839 94.169C415.086 94.7334 415.35 95.3154 415.597 95.8798C416.108 97.0791 416.567 98.2785 417.025 99.4601C417.184 99.8834 417.378 100.324 417.519 100.748C418.118 102.388 418.682 104.011 419.194 105.616C423.248 100.025 426.845 94.3101 429.912 88.5427C426.087 90.4299 421.715 91.8056 416.761 92.6169ZM412.935 93.1107C411.331 93.2695 409.709 93.3929 408.034 93.4458C405.813 105.845 402.445 117.962 397.932 129.514C405.407 122.6 412.23 115.087 418.224 106.991C416.866 102.494 415.086 97.8552 412.935 93.1107ZM406.606 93.4811C406.165 93.4811 405.724 93.4987 405.284 93.4987C391.762 93.4987 376.018 90.2535 359.288 84.2392C355.956 87.6079 352.553 90.9237 349.08 94.169C345.308 102.829 341.165 111.312 336.722 119.567C346.401 132.953 353.4 146.075 357.137 158.069C371.082 150.749 384.058 141.895 395.57 131.613C400.541 119.443 404.226 106.621 406.606 93.4635V93.4811ZM278.244 192.673C273.766 196.042 269.306 198.934 264.916 201.298C265.657 201.456 266.397 201.633 267.155 201.791C267.437 201.844 267.719 201.915 267.984 201.968C268.178 202.003 268.389 202.038 268.583 202.074C270.558 202.462 272.532 202.814 274.507 203.132C274.771 203.167 275.018 203.202 275.283 203.238C277.257 200.257 278.227 196.694 278.262 192.673H278.244ZM274.101 204.49C273.396 204.384 272.709 204.243 272.003 204.12C271.016 203.943 270.029 203.784 269.042 203.59C268.53 203.485 268.019 203.414 267.508 203.308C266.838 203.167 266.186 203.026 265.516 202.885C264.652 202.709 263.806 202.532 262.942 202.338C257.106 205.284 251.412 207.294 245.911 208.335C249.138 209.711 252.399 210.892 255.714 211.933C257.529 211.88 259.31 211.757 260.95 211.492C266.873 210.522 271.351 208.176 274.295 204.543C274.225 204.543 274.154 204.525 274.101 204.508V204.49ZM260.773 201.827C260.192 201.686 259.61 201.527 259.028 201.368C258.076 201.121 257.106 200.874 256.154 200.627C255.537 200.469 254.92 200.31 254.303 200.134C253.721 199.975 253.14 199.781 252.558 199.622C251.624 199.34 250.689 199.058 249.755 198.776C249.085 198.564 248.433 198.37 247.763 198.158C247.216 197.982 246.67 197.788 246.123 197.611C245.206 197.312 244.29 196.977 243.373 196.659C242.668 196.412 241.962 196.165 241.257 195.901C240.746 195.707 240.252 195.513 239.741 195.319C238.842 194.983 237.961 194.631 237.061 194.278C236.303 193.978 235.563 193.696 234.805 193.378C234.329 193.184 233.87 192.973 233.394 192.779C232.513 192.408 231.649 192.02 230.785 191.632C229.992 191.28 229.199 190.945 228.405 190.574C227.964 190.38 227.541 190.169 227.101 189.957C226.254 189.551 225.408 189.146 224.562 188.722C223.733 188.317 222.905 187.911 222.076 187.505C221.671 187.311 221.283 187.1 220.877 186.888C220.049 186.465 219.22 186.006 218.392 185.565C217.528 185.107 216.664 184.648 215.818 184.172C215.447 183.96 215.095 183.766 214.725 183.555C213.914 183.096 213.12 182.602 212.309 182.144C211.428 181.614 210.529 181.103 209.647 180.574C209.312 180.38 208.977 180.168 208.66 179.974C207.867 179.48 207.091 178.969 206.298 178.457C205.381 177.875 204.482 177.293 203.583 176.694C203.283 176.5 202.983 176.306 202.684 176.112C202.26 175.829 201.837 175.512 201.397 175.212C213.914 189.498 228.229 200.292 243.567 207.277C249.085 206.483 254.832 204.649 260.738 201.827H260.773ZM276.323 181.473C273.678 173.219 268.336 163.995 260.826 154.7C239.477 164.612 218.797 170.768 200.727 171.914C224.368 180.609 250.354 183.572 276.34 181.473H276.323ZM259.909 153.589C252.576 144.717 243.285 135.793 232.442 127.574C220.384 143.853 210.194 157.522 202.613 167.558C201.82 168.598 201.097 169.568 200.392 170.503C218.268 169.409 238.754 163.36 259.909 153.571V153.589ZM231.314 126.727C230.873 126.392 230.45 126.075 229.992 125.74C218.303 117.186 206.121 110.395 194.574 105.757C191.665 130.114 192.494 152.619 197.783 170.662C198.029 170.662 198.276 170.626 198.541 170.626C205.61 161.296 216.258 147.063 231.314 126.727ZM193.252 105.228C182.339 100.977 172.078 98.7194 163.44 98.7899C169.346 124.205 180.118 148.157 195.685 168.175C191.048 150.379 190.431 128.65 193.269 105.228H193.252ZM162.012 98.8252C160.425 98.8958 158.874 99.0016 157.411 99.2485C154.396 106.727 152.28 113.852 151.134 120.519C162.065 138.28 176.38 154.33 193.428 167.61C178.284 147.645 167.794 123.941 161.994 98.8252H162.012ZM150.799 122.635C149.918 128.72 149.883 134.382 150.676 139.55C161.642 151.419 175.693 161.279 192.37 168.563C175.71 155.564 161.659 139.92 150.799 122.635ZM155.789 99.5483C150.323 100.695 146.198 103.111 143.501 106.709C145.511 110.783 147.714 114.787 150.059 118.72C151.223 112.653 153.144 106.233 155.789 99.5483ZM156.406 97.9786C157.516 95.2625 158.768 92.5111 160.108 89.7244C156.176 68.3128 155.577 46.1427 158.363 24.5724C158.292 24.4489 158.239 24.3254 158.169 24.2196C157.746 23.4259 157.34 22.6499 156.935 21.8739C156.476 20.9567 156.018 20.0572 155.577 19.1577C155.207 18.3993 154.819 17.6233 154.466 16.8649C154.396 16.7062 154.308 16.5474 154.237 16.3887C153.285 16.4945 152.333 16.6356 151.416 16.7767C145.881 17.6762 141.05 19.2812 136.978 21.5388C132.659 30.0223 129.432 38.6645 127.281 47.3421C127.564 51.5926 128.022 55.8609 128.674 60.1291C131.037 75.7028 135.867 90.9237 142.796 105.298C145.863 101.524 150.429 99.0721 156.388 97.9786H156.406ZM134.704 22.9674C131.742 24.9604 129.238 27.3414 127.229 30.1457C126.999 34.2729 126.964 38.4176 127.105 42.5976C129.009 36.0013 131.565 29.4402 134.721 22.9674H134.704ZM154.343 -44.0013C153.832 -43.3311 153.338 -42.6785 152.862 -42.0965C152.139 -41.0735 151.487 -40.0153 150.888 -38.9394C150.694 -38.569 150.535 -38.181 150.341 -37.8106C149.971 -37.0698 149.583 -36.3291 149.266 -35.5707C149.072 -35.1121 148.948 -34.6359 148.772 -34.1597C148.508 -33.4366 148.225 -32.7311 148.014 -31.9903C147.855 -31.4788 147.767 -30.9144 147.626 -30.3853C147.45 -29.6622 147.256 -28.9567 147.115 -28.2336C147.009 -27.6692 146.956 -27.0695 146.868 -26.4875C146.762 -25.7644 146.639 -25.0412 146.551 -24.3005C146.498 -23.6832 146.48 -23.0482 146.445 -22.4309C146.41 -21.6901 146.339 -20.9494 146.322 -20.191C146.322 -19.5384 146.357 -18.8682 146.374 -18.198C146.392 -17.4396 146.374 -16.6988 146.445 -15.9404C146.498 -15.2349 146.586 -14.5118 146.656 -13.8063C146.727 -13.0479 146.78 -12.3071 146.886 -11.5311C146.991 -10.7903 147.132 -10.0319 147.273 -9.27352C147.397 -8.51512 147.503 -7.75672 147.661 -6.98068C147.82 -6.20464 148.032 -5.41096 148.208 -4.63493C148.384 -3.85889 148.543 -3.10049 148.754 -2.30681C148.895 -1.76006 149.072 -1.21329 149.23 -0.666542C155.7 -9.25588 163.087 -17.1926 171.197 -24.4592C176.221 -36.6642 182.533 -48.1989 190.166 -58.746C187.028 -58.6049 184.014 -58.3227 181.122 -57.8465C169.275 -55.9064 160.284 -51.2502 154.325 -43.9836L154.343 -44.0013ZM160.672 -51.6911C166.12 -55.4126 172.889 -57.9347 180.911 -59.2575C184.19 -59.7866 187.645 -60.1041 191.224 -60.2276C196.778 -67.7234 202.825 -74.4079 209.242 -80.2987C209.982 -82.6974 210.987 -84.955 212.256 -87.0714C192.67 -79.4698 174.97 -67.6528 160.672 -51.6911ZM245.383 -104.003C238.542 -102.098 230.344 -99.5233 224.527 -97.4069C217.528 -94.8671 208.572 -90.546 202.26 -86.6305C195.596 -82.5034 186.464 -76.8595 179.888 -70.9334C193.587 -80.9866 209.083 -88.3413 225.567 -92.927C234.311 -98.5709 243.584 -102.839 253.193 -105.714C250.601 -105.238 247.727 -104.638 245.383 -103.986V-104.003ZM286.125 -108.518C282.035 -108.518 277.433 -108.377 273.149 -108.183C258.129 -106.825 243.673 -102.045 230.327 -94.1969C250.037 -98.9766 271.016 -99.8585 292.013 -96.7367C295.169 -101.023 300.123 -103.774 306.769 -104.85C307.298 -104.938 307.845 -104.973 308.391 -105.026C301.11 -107.002 293.688 -108.201 286.142 -108.501L286.125 -108.518ZM306.205 -107.09C308.338 -106.578 310.454 -105.996 312.552 -105.326C313.997 -105.361 315.478 -105.326 316.994 -105.22C313.468 -106.014 309.114 -106.702 306.205 -107.072V-107.09ZM316.871 -103.844C319.48 -102.91 322.054 -101.887 324.61 -100.74C327.22 -101.093 329.758 -101.217 332.262 -101.111C326.814 -102.628 321.649 -103.545 316.889 -103.844H316.871ZM344.056 -97.107C343.421 -97.354 342.787 -97.6009 342.152 -97.8478C340.442 -98.4298 338.679 -98.906 336.863 -99.2235C333.69 -99.7703 330.393 -99.8937 326.99 -99.6115C342.293 -92.2568 356.485 -81.1277 368.914 -66.577C363.59 -82.1859 355.092 -92.5743 344.038 -97.1247L344.056 -97.107ZM379.738 -77.0182C371.294 -83.1912 362.602 -88.4472 354.07 -92.6448C361.527 -86.3836 367.327 -76.7889 371.188 -64.1254C384.093 -64.4252 394.671 -62.0089 402.622 -57.0528C396.028 -63.9314 388.359 -70.7041 379.738 -77.0006V-77.0182ZM374.114 -62.732C391.074 -55.6066 405.478 -45.9237 416.796 -34.1773C416.073 -37.4755 414.998 -40.562 413.534 -43.3663C406.994 -55.8888 393.384 -62.5028 374.132 -62.7144L374.114 -62.732ZM416.584 -39.9271C417.483 -37.5108 418.136 -34.9357 418.576 -32.2372C420.727 -29.8915 422.79 -27.4752 424.712 -24.9707C422.79 -29.7504 420.057 -34.777 416.584 -39.9271ZM418.911 -29.7857C419.476 -24.565 419.246 -18.9035 418.259 -12.8539C420.815 -8.69149 423.178 -4.42328 425.346 -0.0845184C428.52 -5.35806 428.714 -12.3424 426.369 -20.2615C424.095 -23.5597 421.609 -26.7344 418.929 -29.7857H418.911ZM426.157 -24.8472C426.651 -23.595 427.092 -22.3604 427.462 -21.1258C428.396 -19.7677 429.278 -18.392 430.142 -17.0163C428.907 -19.5913 427.55 -22.3251 426.14 -24.8472H426.157ZM439.979 8.38138C437.387 -0.613625 433.526 -9.06188 428.555 -16.9105C430.036 -9.74973 429.313 -3.45323 426.069 1.37938C433.244 16.0889 438.216 31.6626 440.649 47.6066C441.001 49.9524 441.301 52.2981 441.548 54.6262C441.601 55.1024 441.618 55.5787 441.671 56.0372C444.915 39.9697 444.439 23.8316 439.997 8.36374L439.979 8.38138ZM436.894 109.143C438.798 103.376 441.389 94.751 442.976 87.8372C444.474 81.2938 446.079 71.1876 446.255 63.4096C446.29 62.2808 446.326 61.0286 446.378 59.741C446.502 56.7427 446.625 53.3564 446.484 50.6755C446.132 43.9381 445.673 38.206 445.127 33.4792C445.303 42.5271 444.245 51.6632 442.006 60.764C443.099 77.9603 441.142 94.7863 436.347 110.607C436.523 110.113 436.717 109.602 436.876 109.143H436.894ZM421.75 140.026C422.208 139.267 422.667 138.491 423.107 137.715C423.724 136.639 424.324 135.546 424.923 134.452C425.346 133.676 425.752 132.9 426.157 132.124C426.739 130.996 427.286 129.849 427.85 128.703C428.22 127.944 428.59 127.186 428.925 126.41C429.472 125.193 430 123.958 430.512 122.706C430.811 122.001 431.111 121.295 431.411 120.572C431.975 119.126 432.522 117.662 433.033 116.216C433.227 115.686 433.421 115.175 433.615 114.646C434.302 112.635 434.937 110.607 435.536 108.579C435.624 108.261 435.695 107.926 435.801 107.609C436.277 105.898 436.753 104.169 437.158 102.423C437.334 101.718 437.458 101.012 437.617 100.307C437.916 98.931 438.216 97.573 438.48 96.1796C438.639 95.3683 438.762 94.5394 438.903 93.728C439.133 92.4405 439.344 91.153 439.521 89.8478C439.644 88.9836 439.75 88.1018 439.855 87.2375C440.014 85.9677 440.155 84.7154 440.279 83.4279C440.367 82.5284 440.437 81.6289 440.508 80.7294C440.508 80.5706 440.525 80.3943 440.543 80.2355C438.198 83.0575 435.36 85.4385 432.01 87.361C428.555 94.1161 424.465 100.765 419.67 107.273C419.969 108.261 420.269 109.266 420.516 110.237C420.586 110.483 420.622 110.713 420.692 110.96C421.009 112.247 421.309 113.535 421.574 114.805C421.662 115.228 421.715 115.651 421.803 116.092C421.997 117.15 422.191 118.226 422.332 119.267C422.402 119.761 422.437 120.237 422.508 120.731C422.614 121.701 422.719 122.653 422.79 123.606C422.825 124.117 422.843 124.611 422.86 125.122C422.896 126.022 422.931 126.921 422.931 127.821C422.931 128.332 422.931 128.826 422.896 129.32C422.86 130.184 422.825 131.048 422.755 131.895C422.719 132.389 422.667 132.865 422.614 133.341C422.526 134.188 422.402 134.999 422.261 135.811C422.191 136.269 422.102 136.728 422.014 137.186C421.838 138.015 421.644 138.809 421.415 139.62C421.309 140.043 421.203 140.467 421.08 140.872C421.045 141.014 421.009 141.155 420.974 141.296C421.239 140.872 421.521 140.449 421.785 140.008L421.75 140.026ZM409.444 156.146C409.867 155.794 410.273 155.423 410.661 155.035C411.172 154.559 411.666 154.065 412.142 153.571C412.512 153.166 412.882 152.76 413.235 152.337C413.852 151.613 414.469 150.873 415.015 150.097C415.015 150.079 415.051 150.061 415.068 150.044C422.508 139.497 423.354 125.087 418.682 108.632C412.195 117.238 404.808 125.228 396.68 132.495C391.674 144.664 385.362 156.182 377.746 166.711C380.884 166.57 383.917 166.288 386.79 165.811C388.342 165.565 389.858 165.247 391.303 164.894C391.815 164.771 392.273 164.63 392.767 164.489C393.701 164.242 394.635 163.995 395.534 163.695C396.081 163.519 396.592 163.307 397.121 163.113C397.914 162.831 398.708 162.549 399.466 162.231C399.995 162.002 400.506 161.755 401.017 161.508C401.723 161.173 402.428 160.838 403.098 160.485C403.591 160.22 404.067 159.921 404.561 159.621C405.196 159.233 405.83 158.862 406.43 158.457C406.888 158.139 407.329 157.804 407.769 157.469C408.334 157.046 408.898 156.605 409.444 156.146ZM391.568 174.436C392.061 174.048 392.537 173.66 393.031 173.254C394.3 172.196 395.57 171.12 396.804 170.027C397.015 169.833 397.227 169.656 397.438 169.462C397.562 169.357 397.685 169.251 397.809 169.145C399.29 167.805 400.735 166.411 402.163 165C402.181 164.983 402.199 164.965 402.234 164.93C402.586 164.577 402.939 164.206 403.292 163.836C404.385 162.707 405.478 161.561 406.535 160.397C406.747 160.15 406.976 159.921 407.188 159.674C406.341 160.238 405.478 160.767 404.561 161.296C404.349 161.42 404.138 161.543 403.909 161.649C402.816 162.249 401.687 162.813 400.506 163.342C400.453 163.36 400.383 163.395 400.33 163.413C399.184 163.907 397.967 164.365 396.733 164.789C396.504 164.877 396.275 164.947 396.028 165.035C394.776 165.441 393.472 165.811 392.132 166.147C391.868 166.217 391.603 166.27 391.339 166.341C389.946 166.676 388.5 166.976 387.019 167.205C385.926 167.381 384.816 167.54 383.687 167.663C383.282 167.716 382.859 167.734 382.453 167.787C381.73 167.857 380.99 167.928 380.25 167.981C379.738 168.016 379.227 168.034 378.698 168.069C378.046 168.104 377.394 168.14 376.724 168.157H376.688C371.135 175.653 365.088 182.355 358.671 188.228C357.93 190.627 356.926 192.885 355.656 195.001C355.938 194.895 356.238 194.789 356.52 194.684C357.031 194.472 357.56 194.26 358.071 194.049C359.588 193.431 361.086 192.779 362.585 192.109C362.937 191.95 363.272 191.809 363.625 191.65C363.713 191.615 363.783 191.579 363.872 191.544C365.652 190.715 367.398 189.869 369.125 188.969C369.443 188.81 369.76 188.634 370.077 188.475C370.148 188.44 370.218 188.405 370.289 188.37C371.805 187.576 373.303 186.747 374.784 185.9C375.296 185.6 375.807 185.301 376.318 185.001C377.711 184.172 379.104 183.308 380.461 182.426C380.761 182.232 381.061 182.055 381.343 181.861C381.431 181.791 381.537 181.738 381.625 181.667C383.264 180.591 384.886 179.463 386.49 178.299C386.649 178.193 386.808 178.069 386.966 177.946C387.213 177.77 387.46 177.576 387.707 177.399C388.994 176.447 390.281 175.459 391.533 174.454L391.568 174.436ZM322.548 211.951C329.265 210.099 337.639 207.435 343.421 205.354C350.42 202.814 359.376 198.493 365.705 194.578C372.299 190.504 381.29 184.93 387.866 179.075C387.707 179.181 387.548 179.286 387.407 179.392C386.949 179.727 386.49 180.062 386.014 180.397C385.45 180.803 384.869 181.191 384.287 181.579C383.846 181.879 383.405 182.179 382.965 182.479C382.841 182.549 382.718 182.637 382.612 182.708C382.03 183.078 381.466 183.449 380.884 183.819C380.32 184.172 379.756 184.542 379.192 184.895C378.822 185.124 378.451 185.354 378.081 185.583C377.817 185.742 377.535 185.9 377.27 186.059C376.741 186.377 376.212 186.694 375.683 186.994C375.084 187.347 374.485 187.682 373.885 188.017C373.303 188.352 372.722 188.669 372.122 188.987C371.523 189.304 370.906 189.622 370.289 189.939C369.689 190.257 369.09 190.557 368.491 190.874C368.138 191.05 367.768 191.227 367.398 191.403C367.133 191.544 366.851 191.668 366.587 191.791C365.987 192.073 365.405 192.373 364.806 192.638C364.189 192.92 363.554 193.202 362.937 193.484C362.32 193.767 361.703 194.049 361.068 194.313C360.434 194.578 359.817 194.842 359.182 195.107C358.547 195.372 357.93 195.636 357.296 195.883C356.943 196.024 356.608 196.148 356.256 196.289C355.991 196.394 355.744 196.483 355.48 196.589C355.445 196.589 355.409 196.624 355.374 196.624C354.739 196.871 354.105 197.118 353.47 197.347C352.818 197.576 352.166 197.805 351.513 198.035C351.143 198.158 350.773 198.299 350.403 198.423C350.35 198.44 350.297 198.458 350.244 198.476C350.032 198.546 349.803 198.617 349.592 198.687C348.939 198.899 348.269 199.111 347.617 199.322C346.965 199.534 346.33 199.746 345.678 199.94C345.36 200.045 345.025 200.134 344.691 200.222C344.461 200.292 344.215 200.363 343.985 200.433C343.88 200.469 343.774 200.486 343.686 200.522C343.227 200.663 342.769 200.786 342.311 200.927C333.637 206.518 324.452 210.751 314.914 213.608C317.488 213.132 320.291 212.55 322.565 211.933L322.548 211.951ZM288.064 216.519C288.064 216.519 288.205 216.519 288.276 216.519C305.606 216.095 322.283 211.139 337.533 202.197C336.916 202.356 336.281 202.479 335.646 202.62C334.994 202.762 334.36 202.92 333.707 203.061C333.408 203.132 333.108 203.185 332.808 203.255C332.597 203.308 332.367 203.344 332.156 203.379C331.98 203.414 331.786 203.449 331.592 203.485C330.939 203.608 330.305 203.749 329.652 203.873C328.93 204.014 328.207 204.12 327.502 204.243C327.325 204.278 327.167 204.296 326.99 204.331C326.779 204.367 326.585 204.402 326.373 204.437C326.109 204.49 325.827 204.525 325.562 204.578C324.84 204.702 324.099 204.79 323.376 204.896C322.724 204.984 322.089 205.09 321.437 205.178C321.173 205.213 320.908 205.248 320.644 205.284C320.432 205.319 320.221 205.337 320.009 205.354C319.745 205.389 319.48 205.407 319.233 205.442C318.599 205.513 317.946 205.601 317.294 205.672C316.518 205.76 315.725 205.813 314.949 205.883C314.914 205.883 314.861 205.883 314.826 205.883C314.561 205.901 314.297 205.936 314.033 205.954C313.733 205.971 313.451 206.007 313.151 206.024C312.287 206.095 311.441 206.148 310.577 206.201C310.031 206.236 309.502 206.271 308.955 206.307C308.726 206.307 308.497 206.324 308.268 206.342C308.056 206.342 307.862 206.342 307.651 206.36C307.139 206.377 306.61 206.395 306.099 206.412C305.641 206.412 305.2 206.448 304.742 206.465C303.966 206.483 303.173 206.483 302.379 206.501C302.08 206.501 301.78 206.501 301.463 206.501C301.145 206.501 300.81 206.501 300.493 206.501C299.594 206.501 298.695 206.465 297.796 206.448C296.808 206.448 295.821 206.43 294.834 206.395C294.534 206.395 294.234 206.395 293.935 206.377C293.23 206.342 292.524 206.289 291.819 206.254C291.696 206.254 291.572 206.254 291.431 206.236C290.426 206.183 289.422 206.13 288.399 206.06C288.046 206.042 287.694 206.024 287.341 205.989C286.566 205.919 285.772 205.83 284.996 205.76C283.992 205.672 282.969 205.566 281.964 205.46C281.559 205.407 281.153 205.389 280.748 205.337C280.007 205.248 279.267 205.125 278.526 205.037C277.663 204.931 276.816 204.825 275.952 204.684C272.797 208.97 267.843 211.704 261.214 212.779C260.703 212.868 260.174 212.903 259.645 212.973C268.918 215.496 278.456 216.713 288.117 216.483L288.064 216.519ZM261.725 215.037C259.61 214.526 257.512 213.944 255.432 213.291C255.097 213.291 254.779 213.326 254.427 213.326C253.351 213.326 252.258 213.291 251.147 213.22C256.084 214.226 260.297 214.843 261.725 215.037ZM251.042 211.792C248.45 210.857 245.859 209.834 243.32 208.688C241.328 208.952 239.371 209.111 237.449 209.111C236.815 209.111 236.198 209.058 235.581 209.04C241.063 210.575 246.264 211.51 251.042 211.809V211.792ZM223.628 204.949C224.368 205.248 225.091 205.531 225.831 205.795C227.524 206.377 229.269 206.836 231.067 207.153C234.241 207.7 237.537 207.823 240.94 207.541C225.637 200.204 211.445 189.075 199.017 174.507C204.305 189.992 212.697 200.328 223.628 204.949ZM213.861 200.574C206.862 194.701 201.344 185.883 197.483 174.33C196.795 175.247 196.143 176.112 195.544 176.888C195.385 177.099 195.209 177.329 195.05 177.54C194.909 177.734 194.768 177.911 194.627 178.087C194.257 178.563 193.904 179.039 193.569 179.463C193.534 179.498 193.516 179.533 193.481 179.586C193.075 180.115 192.688 180.609 192.335 181.068C192.335 181.068 192.317 181.085 192.3 181.103C191.559 182.055 190.942 182.849 190.413 183.502C190.149 183.819 189.92 184.101 189.708 184.366C189.708 184.366 189.69 184.384 189.673 184.401C189.461 184.648 189.285 184.86 189.109 185.054C189.109 185.071 189.073 185.089 189.056 185.107C188.968 185.195 188.88 185.301 188.809 185.389C197.042 191.368 205.522 196.483 213.843 200.574H213.861ZM187.452 184.384C187.522 184.26 187.593 184.137 187.681 183.978C187.734 183.89 187.804 183.784 187.857 183.696C187.963 183.537 188.051 183.378 188.174 183.184C188.262 183.043 188.368 182.902 188.456 182.743C188.58 182.567 188.686 182.391 188.809 182.196C188.932 182.002 189.091 181.791 189.232 181.579C189.355 181.403 189.461 181.226 189.602 181.032C189.796 180.75 190.008 180.45 190.219 180.133C190.325 179.974 190.431 179.815 190.554 179.639C190.889 179.163 191.242 178.651 191.63 178.105C191.63 178.105 191.63 178.105 191.63 178.087C192.776 176.464 194.168 174.454 195.861 172.073C195.438 172.073 195.015 172.09 194.609 172.09C182.656 172.09 172.801 169.656 165.291 164.983C171.691 171.667 179.113 178.228 187.416 184.384H187.452ZM157.34 155.899C157.34 155.899 157.463 156.04 157.516 156.111C164.797 165.512 177.209 170.468 193.833 170.662C176.874 163.536 162.47 153.871 151.17 142.107C151.892 145.405 152.968 148.492 154.431 151.296C155.277 152.919 156.265 154.453 157.34 155.882V155.899ZM151.364 147.857C150.464 145.44 149.812 142.865 149.371 140.167C147.221 137.821 145.14 135.405 143.236 132.9C145.158 137.68 147.891 142.724 151.364 147.874V147.857ZM149.036 137.715C148.472 132.495 148.701 126.833 149.689 120.784C147.132 116.621 144.77 112.353 142.602 108.014C139.411 113.288 139.234 120.272 141.579 128.191C143.853 131.489 146.339 134.664 149.036 137.715ZM141.491 132.054C141.121 131.048 140.768 130.043 140.468 129.055C139.64 127.874 138.864 126.657 138.106 125.44C139.323 127.856 140.521 130.184 141.491 132.036V132.054ZM127.757 98.7194C127.863 99.0721 127.969 99.4072 128.075 99.76C128.198 100.201 128.339 100.659 128.48 101.118C131.054 109.513 134.721 117.432 139.375 124.805C137.895 117.644 138.617 111.348 141.861 106.515C134.686 91.8232 129.732 76.2319 127.299 60.2878C126.876 57.4659 126.541 54.6439 126.277 51.8219C123.086 67.6073 123.509 83.4632 127.74 98.7018L127.757 98.7194ZM122.786 74.5564C122.592 65.4555 123.667 56.2841 125.906 47.1481C124.866 30.7454 126.576 14.6426 130.913 -0.543083C129.485 3.54876 128.198 7.60534 127.176 10.9564C125.113 17.6057 123.562 26.6183 122.839 32.3151C121.922 39.5993 121.569 49.582 121.428 56.6722C121.323 62.0163 122.098 69.1946 122.786 74.5564Z" fill="black" fill-opacity="0.15"/>
</g>
</g>
<defs>
<clipPath id="clip0_2_63">
<rect width="328" height="328" fill="white" transform="matrix(-1 0 0 1 448 -110)"/>
</clipPath>
</defs>
</svg>
