<svg width="146" height="109" viewBox="0 0 146 109" fill="none" xmlns="http://www.w3.org/2000/svg">
<path d="M107.097 98.734H88.583V59.5833H144.486V98.734H125.972L116.534 108.172L107.097 98.734Z" fill="#FF3B10"/>
<path d="M143.903 60.1666V98.1507H125.727L125.389 98.489L116.535 107.343L107.68 98.489L107.342 98.1507H89.1666V60.1666H143.903ZM145.07 59H88V99.3173H106.852L116.535 109L126.217 99.3173H145.07V59Z" fill="black"/>
<path d="M116.535 91.5478L115.299 90.4279C113.164 88.4797 111.414 86.7998 110.026 85.3765C108.637 83.965 107.529 82.6934 106.713 81.5734C105.884 80.4535 105.313 79.4503 104.974 78.5403C104.636 77.6304 104.473 76.7204 104.473 75.7988C104.473 73.9906 105.079 72.474 106.293 71.2608C107.506 70.0475 109.011 69.4409 110.796 69.4409C111.939 69.4409 113 69.7092 113.98 70.2575C114.96 70.8058 115.8 71.5874 116.524 72.614C117.363 71.5291 118.262 70.7242 119.207 70.2225C120.152 69.7209 121.167 69.4526 122.251 69.4526C124.036 69.4526 125.541 70.0592 126.755 71.2725C127.968 72.4857 128.574 74.0023 128.574 75.8105C128.574 76.7321 128.411 77.6537 128.073 78.552C127.734 79.4503 127.163 80.4652 126.335 81.5851C125.506 82.705 124.41 83.965 123.021 85.3882C121.633 86.7998 119.872 88.4913 117.748 90.4395L116.512 91.5594L116.535 91.5478Z" fill="white" stroke="black" stroke-miterlimit="10"/>
<g clip-path="url(#clip0_99_4)">
<path d="M54.7907 100.875C52.7177 98.7833 52.7177 95.3987 54.7907 93.3184L78.0736 69.8286L75.1869 66.9163L51.8483 90.4623C49.7753 92.5538 46.4316 92.5538 44.3586 90.4623C42.2855 88.3708 42.2855 84.9862 44.3586 82.906L67.686 59.4161L64.8216 56.5263L41.5165 79.9937C39.4546 82.0627 36.1221 82.0627 34.0713 79.9937C32.0206 77.9247 32.0094 74.5625 34.0713 72.4823L56.7412 49.5659L53.7988 46.6761L31.1289 69.5475C29.0559 71.639 25.7122 71.639 23.6392 69.5475C21.5661 67.456 21.5773 64.0714 23.6392 61.9911L52.8291 32.6429L67.4297 47.3507C71.2191 51.1626 77.3491 51.1626 81.1386 47.3507C84.9392 43.5276 84.9503 37.3206 81.1497 33.4862L61.8904 14.0557L75.042 0.79834L118.208 44.3485L62.2916 100.875C60.2186 102.966 56.8638 102.966 54.8019 100.875H54.7907ZM18.3005 61.5301L0.791016 43.8537L43.2663 1.00074L78.2742 36.3199C80.4921 38.5575 80.4921 42.1783 78.2742 44.4159C76.0563 46.6536 72.4674 46.6536 70.2495 44.4159L52.7623 26.7732L18.3005 61.5414V61.5301Z" fill="#0062FF" stroke="black" stroke-miterlimit="10"/>
</g>
<defs>
<clipPath id="clip0_99_4">
<rect width="119" height="103" fill="white"/>
</clipPath>
</defs>
</svg>
