<svg width="225" height="164" viewBox="0 0 225 164" fill="none" xmlns="http://www.w3.org/2000/svg">
<g clip-path="url(#clip0_2_56)">
<path d="M225 173.406C225 170.954 223.023 168.975 220.574 168.975C220.347 168.975 220.139 169.011 219.921 169.038C218.624 165.188 217.082 161.184 215.268 157.034C209.028 142.751 200.077 127.641 189.012 112.504C200.077 97.3676 209.028 82.2671 215.268 67.9748C227.34 40.3526 227.893 19.0321 216.81 7.93602C205.727 -3.16007 184.44 -2.60618 156.842 9.47966C142.575 15.7269 127.483 24.6891 112.364 35.767C104.954 30.337 97.5532 25.4155 90.2521 21.0752C90.4426 20.5758 90.5605 20.04 90.5605 19.477C90.5605 17.0254 88.5833 15.0459 86.1345 15.0459C84.7196 15.0459 83.4771 15.7178 82.6699 16.753C77.6725 14.0289 72.7295 11.5954 67.8863 9.47058C40.2965 -2.60618 19.0009 -3.15099 7.92686 7.93602C-3.14719 19.023 -2.60301 40.3435 9.4687 67.9748C15.7086 82.258 24.6604 97.3676 35.7254 112.504C24.6604 127.641 15.7086 142.742 9.4687 157.034C-2.60301 184.656 -3.15626 205.977 7.92686 217.073C13.2145 222.367 20.833 225.009 30.347 225.009C40.7681 225.009 53.4656 221.84 67.8863 215.529C82.1529 209.282 97.2448 200.32 112.364 189.242C127.483 200.32 142.566 209.282 156.842 215.529C171.262 221.849 183.96 225.009 194.381 225.009C203.895 225.009 211.513 222.367 216.801 217.073C224.964 208.901 226.805 195.162 222.379 177.446C223.921 176.756 224.991 175.213 224.991 173.415L225 173.406ZM157.395 10.7327C184.44 -1.11701 205.201 -1.76171 215.849 8.89853C226.496 19.5588 225.853 40.3526 214.017 67.4209C207.858 81.5134 199.052 96.4051 188.159 111.342C178.164 97.8035 166.483 84.2648 153.522 71.2891C140.561 58.3134 127.039 46.618 113.516 36.6115C128.435 25.7061 143.319 16.8892 157.386 10.7237L157.395 10.7327ZM95.4762 170.636C94.3697 170.636 93.3721 171.054 92.5921 171.726C85.6901 165.778 78.8606 159.431 72.1763 152.739C59.1523 139.7 47.4252 126.088 37.4123 112.495C47.4161 98.9022 59.1432 85.2999 72.1763 72.2516C85.2003 59.2123 98.7957 47.4715 112.373 37.4469C125.95 47.4624 139.537 59.2032 152.57 72.2516C165.594 85.2908 177.321 98.9022 187.334 112.495C177.33 126.088 165.603 139.691 152.57 152.739C139.546 165.778 125.95 177.519 112.373 187.544C108.001 184.311 103.621 180.906 99.2673 177.328C99.6664 176.666 99.9113 175.894 99.9113 175.067C99.9113 172.616 97.9341 170.636 95.4853 170.636H95.4762ZM10.7203 67.4209C-1.11559 40.3526 -1.7686 19.5678 8.88824 8.89853C13.9219 3.85898 21.2048 1.34374 30.3561 1.34374C40.5686 1.34374 53.0847 4.47644 67.3512 10.7237C72.1491 12.8303 77.0467 15.2456 82.0078 17.9425C81.8264 18.4237 81.7176 18.9322 81.7176 19.477C81.7176 21.9287 83.6948 23.9082 86.1436 23.9082C87.5312 23.9082 88.7556 23.2544 89.5719 22.2465C96.7188 26.4961 103.965 31.2996 111.221 36.6024C97.6983 46.6089 84.1754 58.3043 71.2149 71.28C58.2544 84.2557 46.5727 97.7944 36.5779 111.333C25.6852 96.396 16.8786 81.5044 10.7203 67.4118V67.4209ZM67.3512 214.267C40.3055 226.117 19.5451 226.761 8.88824 216.101C-1.7686 205.432 -1.11559 184.647 10.7203 157.579C16.8786 143.486 25.6852 128.595 36.5779 113.658C46.5727 127.196 58.2544 140.735 71.2149 153.711C77.9265 160.43 84.7831 166.795 91.7123 172.77C91.3042 173.442 91.0502 174.223 91.0502 175.077C91.0502 177.528 93.0274 179.508 95.4762 179.508C96.6009 179.508 97.6076 179.072 98.3876 178.391C102.65 181.887 106.931 185.228 111.221 188.397C96.3016 199.303 81.4273 208.12 67.3512 214.285V214.267ZM215.858 216.101C205.201 226.771 184.44 226.117 157.404 214.267C143.328 208.101 128.454 199.285 113.534 188.379C127.057 178.373 140.58 166.677 153.54 153.702C166.501 140.726 178.182 127.187 188.177 113.649C199.07 128.586 207.876 143.477 214.035 157.57C215.831 161.674 217.363 165.633 218.642 169.438C217.182 170.164 216.166 171.653 216.166 173.397C216.166 175.848 218.143 177.828 220.592 177.828C220.764 177.828 220.928 177.801 221.1 177.773C225.408 194.98 223.685 208.265 215.867 216.092L215.858 216.101Z" fill="black" fill-opacity="0.15"/>
</g>
<defs>
<clipPath id="clip0_2_56">
<rect width="225" height="225" fill="white"/>
</clipPath>
</defs>
</svg>
