<svg width="30" height="30" viewBox="0 0 30 30" fill="none" xmlns="http://www.w3.org/2000/svg">
<circle cx="15" cy="15" r="15" fill="#00B2FC"/>
<path d="M2.11035 22.6764C3.93632 25.7354 6.82069 28.0895 10.2582 29.2339C11.0086 29.3711 11.2821 28.908 11.2821 28.5102C11.2821 28.3455 11.2794 28.0544 11.2756 27.665C11.2714 27.214 11.2658 26.631 11.2619 25.9594C7.08955 26.8655 6.20923 23.9483 6.20923 23.9483C5.52689 22.2162 4.54343 21.7549 4.54343 21.7549C3.18152 20.8239 4.64657 20.8423 4.64657 20.8423C6.15214 20.9492 6.94406 22.3884 6.94406 22.3884C8.28203 24.6804 10.4552 24.0183 11.3097 23.6352C11.446 22.6656 11.8328 22.0044 12.2619 21.6297C8.93122 21.2512 5.42928 19.9639 5.42928 14.216C5.42928 12.5787 6.01401 11.2398 6.97352 10.191C6.81882 9.81163 6.30407 8.28672 7.11994 6.22128C7.11994 6.22128 8.37964 5.81796 11.2453 7.75908C12.4415 7.42666 13.7251 7.25999 15.0005 7.25446C16.274 7.25999 17.5576 7.42666 18.7556 7.75908C21.6194 5.81796 22.8764 6.22128 22.8764 6.22128C23.695 8.28672 23.1803 9.81163 23.0256 10.191C23.9869 11.2398 24.568 12.5787 24.568 14.216C24.568 19.9786 21.0605 21.2466 17.7188 21.6177C18.2575 22.0809 18.7372 22.9962 18.7372 24.3959C18.7372 25.7365 18.729 26.9042 18.7235 27.6777C18.7208 28.0609 18.7188 28.3473 18.7188 28.5102C18.7188 28.9116 18.9886 29.3785 19.7501 29.2321C22.4885 28.318 24.8755 26.6367 26.6554 24.4429C23.9053 27.8332 19.7057 30.0001 15 30.0001C9.52098 30.0001 4.72808 27.0625 2.11035 22.6764Z" fill="black"/>
</svg>
