<svg width="89" height="14" viewBox="0 0 89 14" fill="none" xmlns="http://www.w3.org/2000/svg">
<path d="M10.4743 10.3303H2.85423L1.48733 13.4412H0.418945L6.20078 0.526367H7.12776L12.9253 13.4412H11.8569L10.49 10.3303H10.4743ZM10.0815 9.41908L6.65641 1.67331L3.24702 9.41908H10.0815Z" fill="white"/>
<path d="M13.2238 7.01511C13.2238 2.42735 16.1462 0.369141 19.1785 0.369141C21.4095 0.369141 23.8291 1.45323 24.7089 4.50127L23.7662 4.73694C23.1221 2.56875 21.4252 1.31183 19.1785 1.31183C16.1776 1.31183 14.1979 3.54286 14.1979 7.01511C14.1979 10.4874 16.099 12.7027 19.1785 12.7027C21.4724 12.7027 23.1692 11.4143 23.7819 9.13616L24.7404 9.37183C23.9076 12.5298 21.4409 13.6454 19.1785 13.6454C16.1462 13.6454 13.2238 11.7128 13.2238 7.01511Z" fill="white"/>
<path d="M35.0633 10.3303H27.4432L26.0606 13.4412H24.9922L30.774 0.526367H31.701L37.4985 13.4412H36.4302L35.0476 10.3303H35.0633ZM34.6705 9.41908L31.2454 1.67331L27.836 9.41908H34.6705Z" fill="white"/>
<path d="M38.7393 0.526367H41.5988C46.8622 0.526367 49.0775 2.45888 49.0775 6.96808C49.0775 11.4773 46.8622 13.4412 41.5988 13.4412H38.7393V0.526367ZM41.6145 12.4985C46.108 12.4985 48.0877 10.896 48.0877 6.96808C48.0877 3.04021 46.108 1.46906 41.5988 1.46906H39.7292V12.4985H41.6145Z" fill="white"/>
<path d="M51.5285 0.526367H59.7613V1.46906H52.5026V6.38676H59.4471V7.29803H52.5026V12.4828H59.7613V13.4255H51.5285V0.526367Z" fill="white"/>
<path d="M63.7834 0.526367H64.9304L69.3139 12.3886L73.6974 0.526367H74.8443L77.5153 13.4412H76.5098L74.1216 1.95611L69.8638 13.4412H68.7483L64.5062 1.95611L62.118 13.4412H61.1125L63.7834 0.526367Z" fill="white"/>
<path d="M82.433 9.68617L76.9026 0.526367H78.0652L82.9201 8.66493L87.8378 0.526367H89.0005L83.4229 9.68617V13.4255H82.4488V9.68617H82.433Z" fill="white"/>
</svg>
