<svg width="117" height="34" viewBox="0 0 117 34" fill="none" xmlns="http://www.w3.org/2000/svg">
<path d="M16.7956 33.5912C26.0716 33.5912 33.5912 26.0716 33.5912 16.7956C33.5912 7.51965 26.0716 0 16.7956 0C7.51965 0 0 7.51965 0 16.7956C0 26.0716 7.51965 33.5912 16.7956 33.5912Z" fill="#00ABFF"/>
<path d="M19.2122 18.0105L18.0234 19.1992L26.178 27.3537L27.3667 26.165L19.2122 18.0105Z" fill="white"/>
<path d="M7.41823 6.2263L6.22949 7.41504L14.384 15.5696L15.5728 14.3808L7.41823 6.2263Z" fill="white"/>
<path d="M26.1635 6.22943L18.0146 14.3896L19.2042 15.5776L27.3531 7.41734L26.1635 6.22943Z" fill="white"/>
<path d="M14.392 18.0234L6.24316 26.1836L7.43273 27.3715L15.5816 19.2113L14.392 18.0234Z" fill="white"/>
<path d="M82.7213 10.5107H80.1289V23.4413H95.1177V21.2417H82.7213V10.5107Z" fill="white"/>
<path d="M107.577 11.2176C107.2 10.6677 106.618 10.3535 106.005 10.3535C105.393 10.3535 104.811 10.6677 104.434 11.2176L95.7616 23.4412H98.8567L106.021 13.3073L111.63 21.2573H102.942V23.4569H116.281L107.608 11.2334L107.577 11.2176Z" fill="white"/>
<path d="M60.9449 23.4413L52.9163 16.7953L60.4892 10.5107H56.9384L51.1409 15.3185L45.3433 10.5107H41.7925L49.3655 16.7953L41.3369 23.4413H44.9034L51.1409 18.2722L57.3784 23.4413H60.9449Z" fill="white"/>
<path d="M73.8597 10.5107H62.0604V12.7104H73.5141C74.7553 12.7104 75.7608 13.7159 75.7608 14.9571C75.7608 16.1983 74.7553 17.2038 73.5141 17.2038H62.0604V23.4256H64.6528V19.4192H73.8597C76.3264 19.4192 78.3061 17.4238 78.3061 14.9728C78.3061 12.5218 76.3107 10.5265 73.8597 10.5265V10.5107Z" fill="white"/>
</svg>
