<svg width="534" height="1095" viewBox="0 0 534 1095" fill="none" xmlns="http://www.w3.org/2000/svg">
<g style="mix-blend-mode:luminosity" opacity="0.15">
<g clip-path="url(#clip0_728_2)">
<path d="M274.001 79.2001C295.65 79.2001 313.201 61.6496 313.201 40C313.201 18.3505 295.65 0.800049 274.001 0.800049C252.351 0.800049 234.801 18.3505 234.801 40C234.801 61.6496 252.351 79.2001 274.001 79.2001Z" fill="#004FFF"/>
<path d="M274 1.6C295.168 1.6 312.4 18.832 312.4 40C312.4 61.168 295.168 78.4 274 78.4C252.832 78.4 235.6 61.168 235.6 40C235.6 18.832 252.832 1.6 274 1.6ZM274 0C251.904 0 234 17.904 234 40C234 62.096 251.904 80 274 80C296.096 80 314 62.096 314 40C314 17.904 296.096 0 274 0Z" fill="black"/>
<path d="M278.081 20.896L258.225 33.44L260.161 47.44C260.161 47.44 262.817 62.8 278.081 67.424C293.361 62.8 296.001 47.44 296.001 47.44L297.937 33.44L278.081 20.896Z" fill="black"/>
<path d="M273.76 16.5759L253.904 29.1199L255.84 43.1199C255.84 43.1199 258.496 58.4799 273.76 63.1039C289.04 58.4799 291.68 43.1199 291.68 43.1199L293.616 29.1199L273.76 16.5759Z" fill="white" stroke="black" stroke-width="2" stroke-miterlimit="10"/>
<path d="M273.759 26.5598L277.871 36.8478L288.159 40.9598L277.871 45.0718L273.759 55.3438L269.647 45.0718L259.359 40.9598L269.647 36.8478L273.759 26.5598Z" fill="black"/>
</g>
</g>
<g style="mix-blend-mode:luminosity" opacity="0.15">
<rect x="157.5" y="726.215" width="356.987" height="71.5714" rx="35.7857" fill="#FF3C24" stroke="black" stroke-width="3"/>
<rect x="207.896" y="726.215" width="256.191" height="71.5714" fill="#D9D9D9" stroke="black" stroke-width="3"/>
<line x1="206.4" y1="774.644" x2="465.591" y2="774.644" stroke="black" stroke-width="3"/>
<g clip-path="url(#clip1_728_2)">
<path d="M336.001 717C326.667 717 318.001 719.854 310.801 724.714H279.43V799.286H310.801C318.001 804.146 326.667 807 336.001 807C345.335 807 354.001 804.146 361.201 799.286H392.573V724.714H361.201C354.001 719.854 345.335 717 336.001 717Z" fill="black"/>
<path d="M336.002 719.572C344.513 719.572 352.742 722.092 359.762 726.849L360.405 727.286H390.002V796.715H360.405L359.762 797.152C352.742 801.909 344.513 804.429 336.002 804.429C327.491 804.429 319.262 801.909 312.242 797.152L311.599 796.715H282.002V727.286H311.599L312.242 726.849C319.262 722.092 327.491 719.572 336.002 719.572Z" fill="#FF3C24"/>
<ellipse cx="336.002" cy="762" rx="32.1429" ry="32.1429" fill="#99DEFF" stroke="black" stroke-width="0.7"/>
<path d="M341.666 760.243V751.285H346.274V760.243H341.666Z" fill="black"/>
<path d="M325.545 760.243V751.286H330.152V760.243H325.545Z" fill="black"/>
<path d="M354.752 772.714H317.252V763.601H321.859V768.46H350.145V763.601H354.752V772.714Z" fill="black"/>
<path d="M336.002 794.143C318.285 794.143 303.859 779.717 303.859 762C303.859 744.283 318.285 729.857 336.002 729.857C353.719 729.857 368.145 744.283 368.145 762C368.145 779.717 353.719 794.143 336.002 794.143ZM336.002 732.429C319.699 732.429 306.431 745.697 306.431 762C306.431 778.303 319.699 791.571 336.002 791.571C352.305 791.571 365.574 778.303 365.574 762C365.574 745.697 352.305 732.429 336.002 732.429Z" fill="black"/>
</g>
</g>
<g style="mix-blend-mode:luminosity" opacity="0.15">
<g clip-path="url(#clip2_728_2)">
<path d="M39.9994 615.333C61.7225 615.333 79.3327 597.723 79.3327 576C79.3327 554.277 61.7225 536.667 39.9994 536.667C18.2761 536.667 0.666016 554.277 0.666016 576C0.666016 597.723 18.2761 615.333 39.9994 615.333Z" fill="#00FF61"/>
<path d="M40 537.333C61.32 537.333 78.6667 554.68 78.6667 576C78.6667 597.32 61.32 614.667 40 614.667C18.68 614.667 1.33333 597.32 1.33333 576C1.33333 554.68 18.68 537.333 40 537.333ZM40 536C17.9067 536 0 553.907 0 576C0 598.093 17.9067 616 40 616C62.0933 616 80 598.093 80 576C80 553.907 62.0933 536 40 536Z" fill="black"/>
<path d="M60.385 575.36H41.6384L38.065 572.133L34.4784 575.373H32.305V592.48H28.465C26.345 592.48 24.625 590.76 24.625 588.64V575.373H17.3184V588.64C17.3184 594.787 22.3184 599.787 28.4517 599.787H38.745V582.467H35.1184L42.0784 575.773L49.0384 582.467H45.4117V599.787H51.7984V592.72H60.3984C65.185 592.72 69.0784 588.827 69.0784 584.04C69.0784 579.253 65.185 575.36 60.3984 575.36H60.385Z" fill="black"/>
<path d="M56.1991 571.173L28.1058 571.2V588.307H24.2658C22.1458 588.307 20.4258 586.587 20.4258 584.467V571.2H13.1191V584.467C13.1191 590.613 18.1191 595.613 24.2525 595.613H34.5458V578.293H30.9191L37.8791 571.6L44.8391 578.293H41.2125V595.613H47.5991V588.547H56.1991C60.9858 588.547 64.8791 584.653 64.8791 579.867C64.8791 575.08 60.9858 571.187 56.1991 571.187V571.173Z" fill="white" stroke="black" stroke-width="2" stroke-miterlimit="10"/>
<path d="M56.6001 581.387H47.0801V578.333H56.6001C57.4401 578.333 58.1201 579.013 58.1201 579.853C58.1201 580.693 57.4401 581.373 56.6001 581.373V581.387Z" fill="black"/>
<path d="M16.9729 557.987C15.9462 557.987 15.4796 558.387 15.4663 558.96C15.4529 559.56 15.9996 559.893 17.1062 560.133L18.0796 560.333C20.6263 560.88 21.7596 562.12 21.7596 563.947C21.7596 566.253 19.9862 567.573 16.9996 567.56C13.9329 567.573 11.9462 566.24 11.9062 563.347H14.8796C14.9329 564.44 15.6796 565 16.9196 565.027C17.9862 565.013 18.5596 564.573 18.5596 563.96C18.5596 563.387 18.0796 563.053 16.7463 562.76L15.5729 562.493C13.4796 562.053 12.1863 561.013 12.1863 559.173C12.1863 556.947 14.1596 555.44 16.9462 555.453C19.7863 555.44 21.5729 556.96 21.5996 559.267H18.5862C18.5329 558.467 18.0129 558 16.9462 558L16.9729 557.987Z" fill="black"/>
<path d="M28.8523 558.147C27.2123 558.133 26.279 559.387 26.279 561.493C26.279 563.72 27.239 564.853 28.8257 564.88C30.0257 564.867 30.799 564.227 30.9724 563.173L34.119 563.213C33.9457 565.24 32.1723 567.6 28.759 567.6C25.5324 567.6 23.079 565.44 23.1057 561.507C23.0924 557.573 25.599 555.427 28.759 555.44C31.719 555.427 33.8657 557.08 34.119 560H30.9724C30.8523 558.88 30.119 558.147 28.8657 558.16L28.8523 558.147Z" fill="black"/>
<path d="M41.3589 567.587C38.1322 567.587 35.6122 565.427 35.6389 561.493C35.6255 557.56 38.1322 555.413 41.3589 555.427C44.5589 555.413 47.0789 557.547 47.0789 561.493C47.0789 565.44 44.5456 567.587 41.3589 567.587ZM41.3589 564.88C42.9855 564.867 43.8656 563.693 43.8656 561.493C43.8656 559.293 42.9722 558.133 41.3589 558.147C39.7189 558.133 38.8122 559.32 38.8122 561.493C38.8122 563.667 39.7189 564.853 41.3589 564.88Z" fill="black"/>
<path d="M48.6934 555.573H53.72C56.3867 555.587 58.1067 557.093 58.1067 559.587C58.1067 561.227 57.36 562.36 56.0934 562.987L58.5067 567.427H55.12L53 563.48H51.8134V567.427H48.6934V555.573ZM53.0134 561.067C54.1867 561.053 54.8534 560.627 54.8534 559.6C54.8534 558.573 54.1867 558.093 53.0134 558.093H51.8134V561.067H53.0134Z" fill="black"/>
<path d="M59.5859 555.573H68.0259V558.12H62.7059V560.267H67.5993V562.773H62.7059V564.92H68.0259V567.427H59.5859V555.573Z" fill="black"/>
</g>
</g>
<g style="mix-blend-mode:luminosity" opacity="0.15">
<g clip-path="url(#clip3_728_2)">
<path d="M494 1094C515.539 1094 533 1076.54 533 1055C533 1033.46 515.539 1016 494 1016C472.461 1016 455 1033.46 455 1055C455 1076.54 472.461 1094 494 1094Z" fill="#FFE200"/>
<path d="M494 1017C514.96 1017 532 1034.04 532 1055C532 1075.96 514.96 1093 494 1093C473.04 1093 456 1075.96 456 1055C456 1034.04 473.04 1017 494 1017ZM494 1015C471.9 1015 454 1032.9 454 1055C454 1077.1 471.9 1095 494 1095C516.1 1095 534 1077.1 534 1055C534 1032.9 516.1 1015 494 1015Z" fill="black"/>
<path d="M516.121 1046.54C513.661 1043.42 509.981 1041.64 506.021 1041.64H495.861L495.101 1035.26L481.461 1058.4H489.321L483.741 1080.06L495.601 1067.34H506.001C511.941 1067.34 517.081 1063.3 518.481 1057.52C519.421 1053.66 518.541 1049.66 516.101 1046.56L516.121 1046.54Z" fill="black"/>
<path d="M482.26 1054.04H471.1L493.44 1025.86L491.34 1035.28H500.24C504.52 1035.28 508.48 1037.2 511.12 1040.56C513.76 1043.92 514.7 1048.22 513.7 1052.38C512.2 1058.62 506.66 1062.96 500.24 1062.96H488.6L489.14 1060.34L475.6 1079.82L482.24 1054.02L482.26 1054.04ZM500.26 1053.94C502.5 1053.94 504.42 1052.42 504.94 1050.26C505.28 1048.82 504.96 1047.32 504.04 1046.14C503.12 1044.98 501.74 1044.3 500.26 1044.3H489.34L488.62 1047.48H498.08L493.6 1053.94H500.24H500.26Z" fill="white"/>
<path d="M491.521 1029.9L490.101 1036.28H500.261C504.221 1036.28 507.901 1038.06 510.361 1041.18C512.821 1044.3 513.681 1048.3 512.741 1052.14C511.341 1057.92 506.201 1061.96 500.261 1061.96H489.861L491.121 1055.8L478.001 1074.7L483.581 1053.04H473.201L491.561 1029.9M487.421 1048.5H496.221L491.741 1054.96H500.301C503.001 1054.96 505.321 1053.12 505.961 1050.5C506.381 1048.76 505.981 1046.94 504.881 1045.54C503.781 1044.14 502.101 1043.32 500.301 1043.32H488.581L487.421 1048.5ZM495.421 1021.84L490.001 1028.66L471.641 1051.8L469.061 1055.04H481.001L476.081 1074.2L473.301 1085L479.661 1075.84L487.901 1063.98H500.301C507.181 1063.98 513.101 1059.32 514.721 1052.62C515.801 1048.16 514.801 1043.54 511.961 1039.94C509.121 1036.34 504.881 1034.28 500.301 1034.28H492.641L493.521 1030.34L495.421 1021.84ZM490.201 1045.3H500.321C501.501 1045.3 502.601 1045.84 503.321 1046.76C504.041 1047.68 504.301 1048.88 504.041 1050.02C503.621 1051.74 502.101 1052.94 500.321 1052.94H495.581L497.881 1049.62L500.061 1046.48H489.941L490.201 1045.3Z" fill="black"/>
</g>
</g>
<defs>
<clipPath id="clip0_728_2">
<rect width="80" height="80" fill="white" transform="translate(234)"/>
</clipPath>
<clipPath id="clip1_728_2">
<rect width="113.143" height="90" fill="white" transform="translate(279.43 717)"/>
</clipPath>
<clipPath id="clip2_728_2">
<rect width="80" height="80" fill="white" transform="translate(0 536)"/>
</clipPath>
<clipPath id="clip3_728_2">
<rect width="80" height="80" fill="white" transform="translate(454 1015)"/>
</clipPath>
</defs>
</svg>
