<svg width="780" height="66" viewBox="0 0 780 66" fill="none" xmlns="http://www.w3.org/2000/svg">
<path d="M40.3691 57.759V65.873H24.1411V57.6663H32.1623V33.618H24.1411V25.4112H32.1623V9.4769H16.228V65.8885H0V1.27017H40.3768V9.38417H48.398V25.6122H40.3768V33.533H48.398V57.7822H40.3768L40.3691 57.759Z" fill="black"/>
<path d="M91.758 65.873V41.7242H83.7368V33.5175H91.758V9.46918H75.8237V65.8808H59.5957V1.26245H99.9725V9.37645H107.994V33.6257H99.9725V41.5465H107.994V65.8885H91.7658L91.758 65.873Z" fill="black"/>
<path d="M119.184 65.8729V1.25464H159.56V9.46136H135.412V25.3957H151.547V33.6024H135.412V57.6508H159.56V65.8575H119.184V65.8729Z" fill="black"/>
<path d="M202.834 65.8729V49.7377H178.879V65.8729H170.672V41.531H178.693V17.4826H186.714V1.25464H203.035V17.4826H211.056V41.531H219.078V65.8729H202.85H202.834ZM194.813 17.6681H186.892V41.531H194.813V17.6681Z" fill="black"/>
<path d="M262.438 65.8729V49.645H254.416V33.6102H246.496V65.8729H230.268V1.25464H246.496V25.4034H254.416V17.4363H262.438V9.46909H270.459V1.26236H278.666V9.56955H270.644V17.6526H262.623V33.5251H270.644V49.4595H278.666V65.8807H262.438V65.8729Z" fill="black"/>
<path d="M332.387 8.20672V64.6183H316.159V8.20672H300.023V0H348.514V8.20672H332.379H332.387Z" fill="black"/>
<path d="M383.776 64.6183V32.3555H367.841V64.6183H351.613V0H367.841V24.1488H383.776V0H400.004V64.6183H383.776Z" fill="black"/>
<path d="M411.201 64.6183V0H451.578V8.20672H427.429V24.1411H443.564V32.3478H427.429V56.3961H451.578V64.6029H411.201V64.6183Z" fill="black"/>
<path d="M522.385 56.5042V64.6182H506.157V56.4115H514.178V32.3632H506.157V24.1565H514.178V8.22211H498.244V64.6337H482.016V0.0153809H522.392V8.12938H530.414V24.3574H522.392V32.2782H530.414V56.5274H522.392L522.385 56.5042Z" fill="black"/>
<path d="M573.774 64.6183V40.4695H565.752V32.2628H573.774V8.21447H557.839V64.6261H541.611V0.00775146H581.988V8.12175H590.009V32.371H581.988V40.2918H590.009V64.6338H573.781L573.774 64.6183Z" fill="black"/>
<path d="M601.207 64.6183V0H617.435V64.6183H601.207Z" fill="black"/>
<path d="M660.902 56.5043V64.6183H636.56V56.5043H628.539V8.20672H636.56V0H668.924V16.4212H660.717V8.30718H644.783V56.4116H660.717V48.2049H668.924V56.512H660.902V56.5043Z" fill="black"/>
<path d="M712.192 64.6183V48.3903H704.17V32.3555H696.249V64.6183H680.021V0H696.249V24.1488H704.17V16.1816H712.192V8.21445H720.213V0.00772337H728.42V8.31491H720.398V16.398H712.377V32.2705H720.398V48.2049H728.42V64.626H712.192V64.6183Z" fill="black"/>
<path d="M771.98 56.5043V64.6183H747.638V56.5043H739.617V48.1971H747.824V56.4038H763.758V40.5004H747.623V32.4019H739.602V8.20672H747.623V0H771.965V8.20672H779.986V16.4134H771.779V8.29945H755.845V24.2029H771.98V32.3014H780.001V56.4966H771.98V56.5043Z" fill="black"/>
</svg>
