<svg width="40" height="40" viewBox="0 0 40 40" fill="none" xmlns="http://www.w3.org/2000/svg">
<circle cx="20" cy="20" r="20" fill="#181717"/>
<path d="M2.8125 30.235C5.24713 34.3138 9.09296 37.4526 13.6762 38.9784C14.6769 39.1614 15.0415 38.5438 15.0415 38.0134C15.0415 37.7938 15.0379 37.4058 15.0329 36.8866C15.0272 36.2852 15.0198 35.5079 15.0145 34.6124C9.45144 35.8206 8.27768 31.931 8.27768 31.931C7.36789 29.6215 6.05661 29.0064 6.05661 29.0064C4.24072 27.7651 6.19413 27.7896 6.19413 27.7896C8.20156 27.9321 9.25745 29.8511 9.25745 29.8511C11.0414 32.9071 13.939 32.0243 15.0784 31.5135C15.2601 30.2207 15.7758 29.3391 16.3479 28.8394C11.907 28.3348 7.23774 26.6183 7.23774 18.9545C7.23774 16.7715 8.01739 14.9863 9.29674 13.5879C9.09047 13.082 8.40414 11.0488 9.49196 8.29488C9.49196 8.29488 11.1716 7.75711 14.9924 10.3453C16.5873 9.90205 18.2989 9.67982 19.9993 9.67246C21.6974 9.67982 23.4089 9.90205 25.0062 10.3453C28.8247 7.75711 30.5006 8.29488 30.5006 8.29488C31.5921 11.0488 30.9058 13.082 30.6995 13.5879C31.9813 14.9863 32.756 16.7715 32.756 18.9545C32.756 26.638 28.0794 28.3286 23.6238 28.8234C24.342 29.441 24.9817 30.6614 24.9817 32.5277C24.9817 34.3152 24.9707 35.8722 24.9634 36.9035C24.9598 37.4143 24.9571 37.7962 24.9571 38.0134C24.9571 38.5487 25.3169 39.1712 26.3323 38.976C29.9834 37.7572 33.1661 35.5154 35.5393 32.5903C31.8724 37.1108 26.273 40 19.9987 40C12.6934 40 6.3028 36.0832 2.8125 30.235Z" fill="white"/>
</svg>
