<svg width="89" height="14" viewBox="0 0 89 14" fill="none" xmlns="http://www.w3.org/2000/svg">
<path d="M10.0554 9.96121H2.43529L1.06838 13.0721H0L5.78183 0.157227H6.70882L12.5064 13.0721H11.438L10.0711 9.96121H10.0554ZM9.66258 9.04994L6.23747 1.30417L2.82808 9.04994H9.66258Z" fill="#00B2FC"/>
<path d="M12.8049 6.64597C12.8049 2.05821 15.7272 0 18.7595 0C20.9906 0 23.4101 1.08409 24.29 4.13213L23.3473 4.3678C22.7031 2.19961 21.0063 0.94269 18.7595 0.94269C15.7586 0.94269 13.779 3.17372 13.779 6.64597C13.779 10.1182 15.6801 12.3335 18.7595 12.3335C21.0534 12.3335 22.7503 11.0452 23.363 8.76702L24.3214 9.00269C23.4887 12.1607 21.022 13.2762 18.7595 13.2762C15.7272 13.2762 12.8049 11.3437 12.8049 6.64597Z" fill="#00B2FC"/>
<path d="M34.6443 9.96121H27.0242L25.6416 13.0721H24.5732L30.3551 0.157227H31.2821L37.0796 13.0721H36.0112L34.6286 9.96121H34.6443ZM34.2515 9.04994L30.8264 1.30417L27.417 9.04994H34.2515Z" fill="#00B2FC"/>
<path d="M38.3204 0.157227H41.1799C46.4432 0.157227 48.6585 2.08974 48.6585 6.59894C48.6585 11.1081 46.4432 13.0721 41.1799 13.0721H38.3204V0.157227ZM41.1956 12.1294C45.6891 12.1294 47.6687 10.5268 47.6687 6.59894C47.6687 2.67107 45.6891 1.09992 41.1799 1.09992H39.3102V12.1294H41.1956Z" fill="#00B2FC"/>
<path d="M51.1096 0.157227H59.3424V1.09992H52.0837V6.01762H59.0282V6.92889H52.0837V12.1137H59.3424V13.0564H51.1096V0.157227Z" fill="#00B2FC"/>
<path d="M63.3645 0.157227H64.5114L68.8949 12.0194L73.2785 0.157227H74.4254L77.0963 13.0721H76.0908L73.7027 1.58697L69.4449 13.0721H68.3293L64.0872 1.58697L61.6991 13.0721H60.6935L63.3645 0.157227Z" fill="#00B2FC"/>
<path d="M82.0141 9.31703L76.4836 0.157227H77.6463L82.5011 8.29579L87.4188 0.157227H88.5815L83.0039 9.31703V13.0564H82.0298V9.31703H82.0141Z" fill="#00B2FC"/>
</svg>
