<svg width="303" height="437" viewBox="0 0 303 437" fill="none" xmlns="http://www.w3.org/2000/svg">
<g clip-path="url(#clip0_2_299)">
<path d="M286.461 416.832C329.334 373.973 275.263 250.433 165.69 140.898C56.1172 31.3624 -67.465 -22.6898 -110.338 20.1689C-153.212 63.0276 -99.141 186.567 10.432 296.103C120.005 405.638 243.587 459.69 286.461 416.832Z" stroke="white" stroke-width="1.5" stroke-miterlimit="10"/>
<path d="M226.774 429.417C272.367 399.455 247.223 280.725 170.612 164.225C94.0015 47.7252 -5.06434 -22.4278 -50.6577 7.53392C-96.251 37.4956 -71.1066 156.226 5.50403 272.726C82.1146 389.226 181.181 459.379 226.774 429.417Z" stroke="white" stroke-miterlimit="10"/>
<path d="M38.0074 49.6985C42.6703 49.6985 46.4504 45.9198 46.4504 41.2584C46.4504 36.5971 42.6703 32.8184 38.0074 32.8184C33.3445 32.8184 29.5645 36.5971 29.5645 41.2584C29.5645 45.9198 33.3445 49.6985 38.0074 49.6985Z" fill="white"/>
<path d="M55.8102 346.158C60.4731 346.158 64.2531 342.379 64.2531 337.718C64.2531 333.057 60.4731 329.278 55.8102 329.278C51.1472 329.278 47.3672 333.057 47.3672 337.718C47.3672 342.379 51.1472 346.158 55.8102 346.158Z" fill="white"/>
<path d="M294.557 342.988C299.22 342.988 303 339.209 303 334.548C303 329.887 299.22 326.108 294.557 326.108C289.894 326.108 286.114 329.887 286.114 334.548C286.114 339.209 289.894 342.988 294.557 342.988Z" fill="white"/>
</g>
<defs>
<clipPath id="clip0_2_299">
<rect width="429" height="437" fill="white" transform="translate(-126)"/>
</clipPath>
</defs>
</svg>
