<svg width="164" height="53" viewBox="0 0 164 53" fill="none" xmlns="http://www.w3.org/2000/svg">
<g clip-path="url(#clip0_170_32)">
<path d="M8.98054 20.8891V15.6186H2.45597V20.8891H0.219727V13.3824H2.40335V6.83149H4.58698V2.41162H9.03316V6.83149H11.2168V13.3824H13.4004V20.8891H8.98054ZM6.79691 6.88411H4.6396V13.3824H6.79691V6.88411Z" fill="black"/>
<path d="M28.7646 17.8022V20.8891H17.7676V2.41162H22.1874V6.80518H28.7646V8.98881H30.9483V17.8022H28.7646ZM26.5284 9.04143H22.1874V17.7759H26.5284V9.04143Z" fill="black"/>
<path d="M46.3125 17.8022V20.8891H37.4991V17.8022H35.3154V8.9888H37.4991V6.80518H46.3125V8.9888H48.4961V17.8022H46.3125ZM44.0762 9.04142H39.7353V17.7759H44.0762V9.04142Z" fill="black"/>
<path d="M63.8603 17.8022V20.8891H55.0469V17.8022H52.8633V6.80518H57.2832V17.7759H61.6241V6.80518H66.044V17.8022H63.8603Z" fill="black"/>
<path d="M74.831 9.04143V20.8891H70.4111V9.04143H68.2012V6.80518H70.4111V2.41162H74.831V6.80518H77.0146V9.04143H74.831Z" fill="black"/>
<path d="M8.98054 17.8198V13.4262H2.45597V17.8198H0.219727V11.19H2.40335V4.63911H4.58698V0.219238H9.03316V4.63911H11.2168V11.19H13.4004V17.8198H8.98054ZM6.79691 4.69173H4.6396V11.19H6.79691V4.69173Z" fill="#004FFF"/>
<path d="M13.6192 18.039H8.76081V13.6455H2.67472V18.039H0V10.9708H2.18363V4.41987H4.36725V0H9.25191V4.41987H11.4355V10.9708H13.6192V18.039ZM9.19929 17.6006H13.1807V11.4092H10.9971V4.85835H8.81343V0.438479H4.80573V4.47249H7.01567V11.4092H4.41987V4.85835H2.62211V11.4092H0.438479V17.6006H2.23624V13.207H9.19929V17.6006ZM4.85835 10.9708H6.57719V4.91097H4.85835V10.9708Z" fill="black"/>
<path d="M28.7646 15.6099V17.8198H17.7676V0.219238H22.1874V4.6128H28.7646V6.79643H30.9483V15.6099H28.7646ZM26.5284 6.84904H22.1874V15.5836H26.5284V6.84904Z" fill="#004FFF"/>
<path d="M28.9834 18.039H17.5479V0H22.4062V4.39356H28.9834V6.57719H31.167V15.8291H28.9834V18.039ZM17.9863 17.6006H28.5449V15.3906H30.7285V7.01567H28.5449V4.83204H21.9677V0.438479H17.9863V17.6006ZM26.7471 15.8028H21.9677V6.62981H26.7471V15.8028ZM22.4062 15.3643H26.3087V7.06829H22.4062V15.3643Z" fill="black"/>
<path d="M46.3125 15.6099V17.8198H37.4991V15.6099H35.3154V6.79642H37.4991V4.61279H46.3125V6.79642H48.4961V15.6099H46.3125ZM44.0762 6.84904H39.7353V15.5835H44.0762V6.84904Z" fill="#004FFF"/>
<path d="M46.5312 18.039H37.2793V15.8291H35.0957V6.57718H37.2793V4.39355H46.5312V6.57718H48.7149V15.8291H46.5312V18.039ZM37.7178 17.6005H46.0928V15.3906H48.2764V7.01566H46.0928V4.83203H37.7178V7.01566H35.5342V15.3906H37.7178V17.6005ZM44.295 15.8028H39.5156V6.6298H44.295V15.8028ZM39.9541 15.3643H43.8565V7.06828H39.9541V15.3643Z" fill="black"/>
<path d="M63.8603 15.6099V17.8198H55.0469V15.6099H52.8633V4.61279H57.2832V15.5835H61.6241V4.61279H66.044V15.6099H63.8603Z" fill="#004FFF"/>
<path d="M64.0791 18.039H54.8272V15.8291H52.6436V4.39355H57.5019V15.3643H61.4044V4.39355H66.2627V15.8291H64.0791V18.039ZM55.2657 17.6005H63.6406V15.3906H65.8242V4.83203H61.8428V15.8028H57.0634V4.83203H53.082V15.3906H55.2657V17.6005Z" fill="black"/>
<path d="M74.831 6.84904V17.8198H70.4111V6.84904H68.2012V4.6128H70.4111V0.219238H74.831V4.6128H77.0146V6.84904H74.831Z" fill="#004FFF"/>
<path d="M75.0497 18.039H70.1914V7.06829H67.9814V4.39356H70.1914V0H75.0497V4.39356H77.2334V7.06829H75.0497V18.039ZM70.6299 17.6006H74.6113V6.62981H76.7949V4.83204H74.6113V0.438479H70.6299V4.83204H68.4199V6.62981H70.6299V17.6006Z" fill="black"/>
<path d="M11.2387 33.0441V52.2495H5.71387V33.0441H0.219727V30.2466H16.7285V33.0441H11.2343H11.2387Z" fill="black"/>
<path d="M33.1711 49.4868V52.2492H22.1565V49.4868H19.4248V33.0438H22.1565V30.2463H33.1711V33.0438H35.8985V49.4868H33.1711ZM30.3736 33.0789H24.9453V49.4561H30.3736V33.0789Z" fill="black"/>
<path d="M55.1037 49.4868V52.2492H44.0891V49.4868H41.3574V33.0438H44.0891V30.2463H55.1037V33.0438H57.8311V49.4868H55.1037ZM52.3062 33.0789H46.8779V49.4561H52.3062V33.0789Z" fill="black"/>
<path d="M63.2949 52.2536V30.2507H68.8198V49.4561H77.0412V52.2536H63.2949Z" fill="black"/>
<path d="M101.705 41.2653V44.0277H96.1805V41.2302H98.9122V33.0394H93.4838V52.2448H87.959V30.2419H101.705V33.0044H104.433V41.2565H101.705V41.2653Z" fill="black"/>
<path d="M117.114 52.2536V46.7595H108.959V52.2536H106.161V43.9664H108.893V35.7756H111.62V30.2507H117.18V35.7756H119.912V43.9664H122.639V52.2536H117.114ZM114.383 35.8413H111.686V43.9664H114.383V35.8413Z" fill="black"/>
<path d="M141.778 52.2536V49.4912H139.117V52.2536H130.829V49.4912H128.098V33.0482H130.829V30.2507H144.576V33.0789H133.627V49.4561H139.055V41.2653H136.324V38.4678H144.576V52.2492H141.778V52.2536Z" fill="black"/>
<path d="M150.035 52.2536V30.2507H163.781V33.0482H155.56V38.4766H161.05V41.2741H155.56V49.4649H163.781V52.2624H150.035V52.2536Z" fill="black"/>
<path d="M11.2387 29.9744V49.1798H5.71387V29.9744H0.219727V27.1769H16.7285V29.9744H11.2343H11.2387Z" fill="#004FFF"/>
<path d="M11.4531 49.4035H5.48976V30.1981H0V26.9621H16.9472V30.1981H11.4531V49.4035ZM5.92824 48.965H11.0146V29.7596H16.5087V27.4006H0.438479V29.7596H5.93262V48.965H5.92824Z" fill="black"/>
<path d="M33.1711 46.4174V49.1798H22.1565V46.4174H19.4248V29.9744H22.1565V27.1769H33.1711V29.9744H35.8985V46.4174H33.1711ZM30.3736 30.0095H24.9453V46.3867H30.3736V30.0095Z" fill="#004FFF"/>
<path d="M33.3899 49.4035H21.9368V46.641H19.2051V29.7596H21.9368V26.9621H33.3899V29.7596H36.1172V46.641H33.3899V49.4035ZM22.3753 48.965H32.9514V46.2026H35.6787V30.1981H32.9514V27.4006H22.3753V30.1981H19.6436V46.2026H22.3753V48.965ZM30.5968 46.606H24.7299V29.7903H30.5968V46.606ZM25.1684 46.1675H30.1583V30.2288H25.1684V46.1675Z" fill="black"/>
<path d="M55.1037 46.4174V49.1798H44.0891V46.4174H41.3574V29.9744H44.0891V27.1769H55.1037V29.9744H57.8311V46.4174H55.1037ZM52.3062 30.0095H46.8779V46.3867H52.3062V30.0095Z" fill="#004FFF"/>
<path d="M55.3225 49.4035H43.8694V46.641H41.1377V29.7596H43.8694V26.9621H55.3225V29.7596H58.0498V46.641H55.3225V49.4035ZM44.3079 48.965H54.884V46.2026H57.6114V30.1981H54.884V27.4006H44.3079V30.1981H41.5762V46.2026H44.3079V48.965ZM52.5294 46.606H46.6625V29.7903H52.5294V46.606ZM47.101 46.1675H52.0909V30.2288H47.101V46.1675Z" fill="black"/>
<path d="M63.2949 49.1842V27.1813H68.8198V46.3867H77.0412V49.1842H63.2949Z" fill="#004FFF"/>
<path d="M77.26 49.4035H63.0752V26.9621H69.0385V46.1675H77.26V49.4035ZM63.5137 48.965H76.8215V46.606H68.6V27.4006H63.5137V48.965Z" fill="black"/>
<path d="M101.705 38.1959V40.9583H96.1805V38.1608H98.9122V29.97H93.4838V49.1754H87.959V27.1725H101.705V29.935H104.433V38.1871H101.705V38.1959Z" fill="#004FFF"/>
<path d="M93.7026 49.4035H87.7393V26.9621H101.924V29.7245H104.651V38.4152H101.924V41.1776H95.9607V37.9416H98.6925V30.1893H93.7026V49.3947V49.4035ZM88.1777 48.965H93.2641V29.7596H99.1309V38.3889H96.3992V40.7479H101.486V37.9855H104.213V30.1718H101.486V27.4093H88.1777V48.9738V48.965Z" fill="black"/>
<path d="M117.114 49.1842V43.6901H108.959V49.1842H106.161V40.897H108.893V32.7062H111.62V27.1813H117.18V32.7062H119.912V40.897H122.639V49.1842H117.114ZM114.383 32.7719H111.686V40.897H114.383V32.7719Z" fill="#004FFF"/>
<path d="M122.858 49.4035H116.895V43.9093H109.177V49.4035H105.941V40.6777H108.673V32.4869H111.4V26.9621H117.399V32.4869H120.131V40.6777H122.858V49.4035ZM117.333 48.965H122.419V41.1162H119.692V32.9254H116.96V27.4006H111.839V32.5527H114.601V41.1162H111.466V32.9254H109.107V41.1162H106.376V48.965H108.735V43.4708H117.329V48.965H117.333ZM111.905 40.6777H114.163V32.9912H111.905V40.6777Z" fill="black"/>
<path d="M141.777 49.1842V46.4218H139.116V49.1842H130.828V46.4218H128.097V29.9788H130.828V27.1813H144.575V30.0095H133.626V46.3867H139.054V38.1959H136.323V35.3984H144.575V49.1798H141.777V49.1842Z" fill="#004FFF"/>
<path d="M144.794 49.4035H141.558V46.641H139.335V49.4035H130.61V46.641H127.878V29.7596H130.61V26.9621H144.794V30.2288H133.846V46.1675H138.836V38.4152H136.104V35.1792H144.794V49.3991V49.4035ZM141.997 48.965H144.356V35.6221H136.542V37.9811H139.274V46.2026H142.001V48.965H141.997ZM131.048 48.965H138.897V46.606H133.407V29.7903H144.356V27.4006H131.048V30.1981H128.316V46.2026H131.048V48.965Z" fill="black"/>
<path d="M150.035 49.1842V27.1813H163.781V29.9788H155.56V35.4072H161.05V38.2047H155.56V46.3955H163.781V49.193H150.035V49.1842Z" fill="#004FFF"/>
<path d="M164 49.4035H149.815V26.9621H164V30.1981H155.779V35.188H161.269V38.4239H155.779V46.1763H164V49.4122V49.4035ZM150.254 48.965H163.562V46.606H155.34V37.9767H160.83V35.6177H155.34V29.7508H163.562V27.3918H150.254V48.9562V48.965Z" fill="black"/>
</g>
<defs>
<clipPath id="clip0_170_32">
<rect width="164" height="52.2536" fill="white"/>
</clipPath>
</defs>
</svg>
