<svg width="46" height="46" viewBox="0 0 46 46" fill="none" xmlns="http://www.w3.org/2000/svg">
<path d="M22.96 45.42C10.58 45.42 0.5 35.34 0.5 22.96C0.5 10.58 10.58 0.5 22.96 0.5C35.34 0.5 45.42 10.58 45.42 22.96C45.42 35.34 35.34 45.42 22.96 45.42Z" fill="#00B2FC"/>
<path d="M22.96 1C35.07 1 44.92 10.85 44.92 22.96C44.92 35.07 35.07 44.92 22.96 44.92C10.85 44.92 1 35.07 1 22.96C1 10.85 10.85 1 22.96 1ZM22.96 0C10.28 0 0 10.28 0 22.96C0 35.64 10.28 45.92 22.96 45.92C35.64 45.92 45.92 35.64 45.92 22.96C45.92 10.28 35.64 0 22.96 0Z" fill="black"/>
<g clip-path="url(#clip0_218_6)">
<path d="M36 25.7625H10V24.2636H32.3728L25.1783 17.0592L26.2375 16L36 25.7625Z" fill="white"/>
</g>
<defs>
<clipPath id="clip0_218_6">
<rect width="26" height="9.76249" fill="white" transform="translate(10 16)"/>
</clipPath>
</defs>
</svg>
