<svg width="241" height="143" viewBox="0 0 241 143" fill="none" xmlns="http://www.w3.org/2000/svg">
<g clip-path="url(#clip0_2_175)">
<path d="M73.2673 142.346C72.1358 142.346 71.0157 142.331 69.8995 142.297C46.4922 141.59 29.7749 133.504 22.8258 119.525C15.8768 105.549 19.5418 87.3829 33.1465 68.3689C46.7132 49.4081 68.5508 31.8609 94.6402 18.9607C120.726 6.06057 147.95 -0.653588 171.293 0.049366C194.7 0.75612 211.417 8.84199 218.367 22.8213C225.316 36.7968 221.651 54.9634 208.046 73.9773C194.479 92.9381 172.642 110.485 146.552 123.386C121.709 135.67 95.8364 142.35 73.2635 142.35L73.2673 142.346ZM167.925 0.569932C145.444 0.569932 119.659 7.2271 94.8954 19.4737C68.8899 32.3359 47.1284 49.8185 33.6151 68.7033C20.1399 87.5349 16.4902 105.496 23.344 119.274C30.194 133.052 46.736 141.028 69.9223 141.727C93.1734 142.434 120.299 135.735 146.305 122.873C172.31 110.01 194.072 92.5277 207.585 73.643C221.06 54.8114 224.71 36.85 217.856 23.0721C211.006 9.29416 194.464 1.31848 171.278 0.619329C170.169 0.585131 169.053 0.569932 167.925 0.569932Z" fill="white"/>
<path d="M112.904 9.71213L111.814 12.2426L112.904 14.7732L110.367 13.6903L107.83 14.7732L108.915 12.2426L107.83 9.71213L110.367 10.7988L112.904 9.71213Z" fill="white"/>
<path d="M75.3155 62.5173V66.507H67.315V62.4717H71.2695V50.6468H67.315V46.6115H71.2695V38.7764H63.4137V66.5146H55.4132V34.7411H75.3193V38.7308H79.2739V46.7103H75.3193V50.6051H79.2739V62.5287H75.3193L75.3155 62.5173Z" fill="black"/>
<path d="M100.651 66.507V54.6328H96.6961V50.5975H100.651V38.7726H92.7948V66.5108H84.7943V34.7373H104.7V38.727H108.655V50.6507H104.7V54.5454H108.655V66.5146H100.654L100.651 66.507Z" fill="black"/>
<path d="M114.172 66.507V34.7335H134.078V38.7689H122.172V46.6039H130.127V50.6393H122.172V62.4641H134.078V66.4994H114.172V66.507Z" fill="black"/>
<path d="M155.412 66.507V58.5732H143.602V66.507H139.556V54.5378H143.511V42.713H147.465V34.7335H155.511V42.713H159.466V54.5378H163.42V66.507H155.42H155.412ZM151.458 42.8042H147.553V54.5378H151.458V42.8042Z" fill="black"/>
<path d="M184.797 66.5071V58.5276H180.843V50.6431H176.938V66.5071H168.937V34.7335H176.938V46.6077H180.843V42.6902H184.797V38.7727H188.752V34.7373H192.798V38.8221H188.843V42.7966H184.889V50.6013H188.843V58.4364H192.798V66.5109H184.797V66.5071Z" fill="black"/>
<path d="M19.7652 80.5662V108.304H11.7646V80.5662H3.80981V76.5308H27.7162V80.5662H19.7614H19.7652Z" fill="black"/>
<path d="M45.1002 108.304V92.4404H37.2444V108.304H29.2439V76.5308H37.2444V88.405H45.1002V76.5308H53.1007V108.304H45.1002Z" fill="black"/>
<path d="M58.6211 108.304V76.5308H78.5272V80.5662H66.6216V88.4012H74.5764V92.4366H66.6216V104.261H78.5272V108.297H58.6211V108.304Z" fill="black"/>
<path d="M113.436 104.315V108.304H105.436V104.269H109.39V92.4442H105.436V88.4088H109.39V80.5737H101.534V108.312H93.5339V76.5384H113.44V80.5281H117.395V88.5076H113.44V92.4024H117.395V104.326H113.44L113.436 104.315Z" fill="black"/>
<path d="M138.771 108.304V96.4301H134.817V92.3948H138.771V80.5699H130.915V108.308H122.915V76.5346H142.821V80.5243H146.776V92.448H142.821V96.3427H146.776V108.312H138.775L138.771 108.304Z" fill="black"/>
<path d="M152.296 108.304V76.5308H160.296V108.304H152.296Z" fill="black"/>
<path d="M181.726 104.315V108.304H169.726V104.315H165.771V80.5662H169.726V76.5308H185.681V84.6053H181.635V80.6156H173.779V104.269H181.635V100.234H185.681V104.318H181.726V104.315Z" fill="black"/>
<path d="M207.012 108.304V100.325H203.057V92.4404H199.152V108.304H191.152V76.5309H199.152V88.4051H203.057V84.4876H207.012V80.57H210.966V76.5347H215.012V80.6194H211.058V84.594H207.103V92.3987H211.058V100.234H215.012V108.308H207.012V108.304Z" fill="black"/>
<path d="M236.488 104.315V108.304H224.487V104.315H220.533V100.23H224.579V104.265H232.435V96.4453H224.48V92.4632H220.525V80.5662H224.48V76.5308H236.481V80.5662H240.435V84.6015H236.389V80.6118H228.533V88.4316H236.488V92.4138H240.443V104.311H236.488V104.315Z" fill="black"/>
<path d="M71.5057 58.7175V62.7073H63.5051V58.6719H67.4597V46.8471H63.5051V42.8118H67.4597V34.9767H59.6039V62.7149H51.6034V30.9413H71.5095V34.9311H75.464V42.9106H71.5095V46.8053H75.464V58.7289H71.5095L71.5057 58.7175Z" fill="#FAED00" stroke="black" stroke-miterlimit="10"/>
<path d="M96.8408 62.7073V50.8331H92.8862V46.7977H96.8408V34.9729H88.985V62.7111H80.9845V30.9376H100.891V34.9273H104.845V46.8509H100.891V50.7457H104.845V62.7149H96.8446L96.8408 62.7073Z" fill="#FAED00" stroke="black" stroke-miterlimit="10"/>
<path d="M110.362 62.7073V30.9338H130.268V34.9691H118.362V42.8042H126.317V46.8395H118.362V58.6644H130.268V62.6997H110.362V62.7073Z" fill="#FAED00" stroke="black" stroke-miterlimit="10"/>
<path d="M151.603 62.7073V54.7734H139.792V62.7073H135.746V50.7381H139.701V38.9133H143.655V30.9338H151.702V38.9133H155.656V50.7381H159.611V62.7073H151.61H151.603ZM147.648 39.0044H143.743V50.7381H147.648V39.0044Z" fill="#FAED00" stroke="black" stroke-miterlimit="10"/>
<path d="M180.987 62.7073V54.7278H177.033V46.8433H173.128V62.7073H165.127V30.9338H173.128V42.808H177.033V38.8905H180.987V34.9729H184.942V30.9376H188.988V35.0223H185.033V38.9969H181.079V46.8015H185.033V54.6366H188.988V62.7111H180.987V62.7073Z" fill="#FAED00" stroke="black" stroke-miterlimit="10"/>
<path d="M15.9554 76.7664V104.505H7.95482V76.7664H0V72.7311H23.9064V76.7664H15.9515H15.9554Z" fill="#FAED00" stroke="black" stroke-miterlimit="10"/>
<path d="M41.2904 104.505V88.6406H33.4346V104.505H25.4341V72.7311H33.4346V84.6053H41.2904V72.7311H49.2909V104.505H41.2904Z" fill="#FAED00" stroke="black" stroke-miterlimit="10"/>
<path d="M54.8113 104.505V72.7311H74.7174V76.7664H62.8118V84.6015H70.7666V88.6368H62.8118V100.462H74.7174V104.497H54.8113V104.505Z" fill="#FAED00" stroke="black" stroke-miterlimit="10"/>
<path d="M109.626 100.515V104.505H101.626V100.469H105.58V88.6444H101.626V84.6091H105.58V76.774H97.7247V104.512H89.7241V72.7386H109.63V76.7284H113.585V84.7079H109.63V88.6026H113.585V100.526H109.63L109.626 100.515Z" fill="#FAED00" stroke="black" stroke-miterlimit="10"/>
<path d="M134.961 104.505V92.6304H131.007V88.595H134.961V76.7702H127.106V104.508H119.105V72.7349H139.011V76.7246H142.966V88.6482H139.011V92.543H142.966V104.512H134.965L134.961 104.505Z" fill="#FAED00" stroke="black" stroke-miterlimit="10"/>
<path d="M148.486 104.505V72.7311H156.487V104.505H148.486Z" fill="#FAED00" stroke="black" stroke-miterlimit="10"/>
<path d="M177.917 100.515V104.505H165.916V100.515H161.961V76.7664H165.916V72.7311H181.871V80.8056H177.825V76.8158H169.969V100.469H177.825V96.4339H181.871V100.519H177.917V100.515Z" fill="#FAED00" stroke="black" stroke-miterlimit="10"/>
<path d="M203.202 104.505V96.5252H199.247V88.6407H195.342V104.505H187.342V72.7311H195.342V84.6054H199.247V80.6878H203.202V76.7703H207.156V72.7349H211.202V76.8197H207.248V80.7942H203.293V88.5989H207.248V96.434H211.202V104.508H203.202V104.505Z" fill="#FAED00" stroke="black" stroke-miterlimit="10"/>
<path d="M232.678 100.515V104.505H220.678V100.515H216.723V96.4301H220.769V100.465H228.625V92.6456H220.67V88.6634H216.715V76.7664H220.67V72.7311H232.671V76.7664H236.625V80.8017H232.579V76.812H224.724V84.6319H232.678V88.614H236.633V100.511H232.678V100.515Z" fill="#FAED00" stroke="black" stroke-miterlimit="10"/>
<g clip-path="url(#clip1_2_175)">
<path d="M62 114.502H64.0061L65.4985 120.698H65.5713L67.2053 114.502H68.9323L70.5622 120.71H70.635L72.1274 114.502H74.1335L71.5976 123.367H69.7978L68.1072 117.515H68.0344L66.3316 123.367H64.5319L62 114.502Z" fill="white"/>
<path d="M74.3033 120.075C74.3033 118.016 75.5652 116.633 77.5106 116.633C79.2619 116.633 80.633 117.733 80.633 120.002V120.516H76.091C76.091 121.519 76.6896 122.146 77.6198 122.146C78.2305 122.146 78.6714 121.875 78.8574 121.47H80.5844C80.3256 122.696 79.2255 123.505 77.5834 123.505C75.549 123.505 74.3033 122.182 74.3033 120.075ZM78.9181 119.375C78.9181 118.566 78.3559 117.992 77.547 117.992C76.7381 117.992 76.1193 118.611 76.091 119.375H78.9181Z" fill="white"/>
<path d="M82.0607 114.502H83.8726V117.83H83.9211C84.18 117.292 84.7058 116.629 85.818 116.629C87.2861 116.629 88.5238 117.769 88.5238 120.047C88.5238 122.324 87.3347 123.476 85.818 123.476C84.73 123.476 84.1759 122.853 83.9211 122.299H83.8483V123.363H82.0607V114.502ZM85.2437 122.032C86.1739 122.032 86.6633 121.211 86.6633 120.038C86.6633 118.866 86.1739 118.081 85.2437 118.081C84.3135 118.081 83.8362 118.841 83.8362 120.038C83.8362 121.236 84.3499 122.032 85.2437 122.032Z" fill="white"/>
<path d="M89.8301 120.868H91.6906C91.727 121.527 92.366 121.968 93.2194 121.968C94.0728 121.968 94.7361 121.466 94.724 120.754C94.7361 120.03 94.089 119.517 93.0455 119.517H92.2245V118.158H93.0455C93.9151 118.158 94.5258 117.68 94.5258 116.981C94.5258 116.281 94.0121 115.84 93.2275 115.84C92.4429 115.84 91.7957 116.281 91.7715 116.952H90.0081C90.0324 115.424 91.4156 114.368 93.2275 114.368C95.0394 114.368 96.3134 115.456 96.3013 116.868C96.3134 117.858 95.6137 118.57 94.6228 118.74V118.813C95.9211 118.971 96.6451 119.767 96.6289 120.872C96.641 122.388 95.1972 123.48 93.1992 123.48C91.2012 123.48 89.8584 122.404 89.818 120.859L89.8301 120.868Z" fill="white"/>
<path d="M105.381 116.006C104.01 116.006 103.08 117.058 103.08 118.922C103.08 120.787 103.986 121.862 105.393 121.862C106.659 121.862 107.416 121.147 107.44 120.026H105.519V118.643H109.215V119.743C109.215 122.069 107.622 123.488 105.381 123.488C102.894 123.488 101.207 121.749 101.207 118.946C101.207 116.144 103.003 114.38 105.345 114.38C107.339 114.38 108.884 115.606 109.126 117.357H107.266C107.019 116.524 106.348 116.01 105.381 116.01V116.006Z" fill="white"/>
<path d="M112.928 119.46C113.405 119.428 114.299 119.387 114.582 119.375V118.837C114.57 118.287 114.19 117.955 113.519 117.955C112.908 117.955 112.516 118.239 112.419 118.692H110.692C110.801 117.539 111.804 116.633 113.567 116.633C115.011 116.633 116.382 117.28 116.382 118.886V123.367H114.667V122.449H114.619C114.287 123.06 113.664 123.488 112.673 123.488C111.399 123.488 110.457 122.829 110.457 121.507C110.457 120.026 111.658 119.537 112.932 119.46H112.928ZM113.187 122.239C114.008 122.239 114.595 121.689 114.582 120.989V120.499C114.307 120.512 113.535 120.556 113.223 120.584C112.601 120.645 112.196 120.94 112.196 121.454C112.196 121.968 112.613 122.239 113.187 122.239Z" fill="white"/>
<path d="M118.016 116.718H119.743V117.883H119.816C120.099 117.11 120.77 116.633 121.664 116.633C122.558 116.633 123.258 117.11 123.476 117.883H123.537C123.82 117.122 124.564 116.633 125.543 116.633C126.781 116.633 127.638 117.454 127.638 118.898V123.367H125.826V119.254C125.826 118.493 125.385 118.125 124.787 118.125C124.099 118.125 123.711 118.603 123.711 119.302V123.367H121.947V119.205C121.947 118.546 121.531 118.129 120.92 118.129C120.309 118.129 119.832 118.619 119.832 119.379V123.371H118.02V116.718H118.016Z" fill="white"/>
<path d="M129.199 114.93C129.199 114.417 129.64 114 130.19 114C130.74 114 131.169 114.417 131.169 114.93C131.169 115.444 130.728 115.848 130.19 115.848C129.652 115.848 129.199 115.432 129.199 114.93ZM129.284 116.718H131.096V123.367H129.284V116.718Z" fill="white"/>
<path d="M134.57 123.367H132.758V116.718H134.485V117.883H134.558C134.865 117.11 135.573 116.633 136.552 116.633C137.935 116.633 138.853 117.575 138.841 119.132V123.367H137.041V119.448C137.041 118.627 136.588 118.137 135.84 118.137C135.092 118.137 134.566 118.639 134.566 119.521V123.367H134.57Z" fill="white"/>
<path d="M140.415 123.917H142.202C142.299 124.443 142.801 124.69 143.525 124.69C144.37 124.69 144.932 124.334 144.932 123.403V122.19H144.847C144.601 122.728 144.014 123.266 142.951 123.266C141.446 123.266 140.245 122.214 140.245 119.998C140.245 117.782 141.482 116.629 142.951 116.629C144.063 116.629 144.605 117.288 144.847 117.83H144.92V116.718H146.72V123.44C146.72 125.13 145.373 126 143.488 126C141.604 126 140.524 125.179 140.415 123.917ZM144.932 120.022C144.932 118.833 144.419 118.077 143.513 118.077C142.607 118.077 142.105 118.874 142.105 120.022C142.105 121.171 142.595 121.907 143.513 121.907C144.431 121.907 144.932 121.195 144.932 120.022Z" fill="white"/>
<path d="M155.537 123.488C153.175 123.488 151.387 121.81 151.387 118.934C151.387 116.059 153.175 114.38 155.537 114.38C157.899 114.38 159.674 116.047 159.674 118.934C159.674 121.822 157.875 123.488 155.537 123.488ZM155.537 116.006C154.166 116.006 153.26 117.033 153.26 118.934C153.26 120.835 154.166 121.862 155.537 121.862C156.908 121.862 157.802 120.835 157.802 118.934C157.802 117.033 156.908 116.006 155.537 116.006Z" fill="white"/>
<path d="M161.211 116.718H162.999V117.83H163.072C163.318 117.292 163.856 116.629 164.969 116.629C166.437 116.629 167.662 117.769 167.662 120.046C167.662 122.324 166.485 123.476 164.969 123.476C163.881 123.476 163.327 122.853 163.072 122.299H163.023V125.862H161.211V116.718ZM164.394 122.032C165.325 122.032 165.814 121.211 165.814 120.038C165.814 118.866 165.325 118.081 164.394 118.081C163.464 118.081 162.987 118.841 162.987 120.038C162.987 121.236 163.5 122.032 164.394 122.032Z" fill="white"/>
<path d="M171.796 117.919C171.209 117.919 170.756 118.202 170.768 118.607C170.756 118.902 171.003 119.132 171.626 119.266L172.815 119.513C174.101 119.784 174.724 120.358 174.736 121.312C174.724 122.623 173.547 123.505 171.784 123.505C170.02 123.505 168.932 122.696 168.783 121.397H170.607C170.692 121.923 171.12 122.194 171.784 122.194C172.447 122.194 172.884 121.923 172.884 121.494C172.884 121.151 172.601 120.944 171.978 120.807L170.878 120.588C169.616 120.342 168.957 119.682 168.969 118.704C168.957 117.43 170.057 116.633 171.771 116.633C173.486 116.633 174.489 117.43 174.586 118.692H172.884C172.811 118.226 172.394 117.919 171.796 117.919Z" fill="white"/>
<path d="M176.135 122.449C176.123 121.887 176.588 121.434 177.163 121.434C177.701 121.434 178.178 121.887 178.178 122.449C178.178 123.011 177.701 123.476 177.163 123.476C176.588 123.476 176.123 123.011 176.135 122.449Z" fill="white"/>
</g>
</g>
<defs>
<clipPath id="clip0_2_175">
<rect width="240.633" height="142.346" fill="white" transform="translate(0.18457)"/>
</clipPath>
<clipPath id="clip1_2_175">
<rect width="116.182" height="12" fill="white" transform="translate(62 114)"/>
</clipPath>
</defs>
</svg>
