<svg width="241" height="143" viewBox="0 0 241 143" fill="none" xmlns="http://www.w3.org/2000/svg">
<g clip-path="url(#clip0_2_175)">
<path d="M73.2673 142.346C72.1358 142.346 71.0157 142.331 69.8995 142.297C46.4922 141.59 29.7749 133.504 22.8258 119.525C15.8768 105.549 19.5418 87.3829 33.1465 68.3689C46.7132 49.4081 68.5508 31.8609 94.6402 18.9607C120.726 6.06057 147.95 -0.653588 171.293 0.049366C194.7 0.75612 211.417 8.84199 218.367 22.8213C225.316 36.7968 221.651 54.9634 208.046 73.9773C194.479 92.9381 172.642 110.485 146.552 123.386C121.709 135.67 95.8364 142.35 73.2635 142.35L73.2673 142.346ZM167.925 0.569932C145.444 0.569932 119.659 7.2271 94.8954 19.4737C68.8899 32.3359 47.1284 49.8185 33.6151 68.7033C20.1399 87.5349 16.4902 105.496 23.344 119.274C30.194 133.052 46.736 141.028 69.9223 141.727C93.1734 142.434 120.299 135.735 146.305 122.873C172.31 110.01 194.072 92.5277 207.585 73.643C221.06 54.8114 224.71 36.85 217.856 23.0721C211.006 9.29416 194.464 1.31848 171.278 0.619329C170.169 0.585131 169.053 0.569932 167.925 0.569932Z" fill="white"/>
<path d="M112.904 9.71213L111.814 12.2426L112.904 14.7732L110.367 13.6903L107.83 14.7732L108.915 12.2426L107.83 9.71213L110.367 10.7988L112.904 9.71213Z" fill="white"/>
<path d="M75.6905 62.5173V66.507H67.69V62.4717H71.6445V50.6468H67.69V46.6115H71.6445V38.7764H63.7887V66.5146H55.7882V34.7411H75.6943V38.7308H79.6489V46.7103H75.6943V50.6051H79.6489V62.5287H75.6943L75.6905 62.5173Z" fill="black"/>
<path d="M101.026 66.507V54.6328H97.0711V50.5975H101.026V38.7726H93.1698V66.5108H85.1693V34.7373H105.075V38.727H109.03V50.6507H105.075V54.5454H109.03V66.5146H101.029L101.026 66.507Z" fill="black"/>
<path d="M114.547 66.507V34.7335H134.453V38.7689H122.547V46.6039H130.502V50.6393H122.547V62.4641H134.453V66.4994H114.547V66.507Z" fill="black"/>
<path d="M155.787 66.507V58.5732H143.977V66.507H139.931V54.5378H143.886V42.713H147.84V34.7335H155.886V42.713H159.841V54.5378H163.795V66.507H155.795H155.787ZM151.833 42.8042H147.928V54.5378H151.833V42.8042Z" fill="black"/>
<path d="M185.172 66.5071V58.5276H181.218V50.6431H177.313V66.5071H169.312V34.7335H177.313V46.6077H181.218V42.6902H185.172V38.7727H189.127V34.7373H193.173V38.8221H189.218V42.7966H185.264V50.6013H189.218V58.4364H193.173V66.5109H185.172V66.5071Z" fill="black"/>
<path d="M20.1402 80.5662V108.304H12.1396V80.5662H4.18481V76.5308H28.0912V80.5662H20.1364H20.1402Z" fill="black"/>
<path d="M45.4752 108.304V92.4404H37.6194V108.304H29.6189V76.5308H37.6194V88.405H45.4752V76.5308H53.4757V108.304H45.4752Z" fill="black"/>
<path d="M58.9961 108.304V76.5308H78.9022V80.5662H66.9966V88.4012H74.9514V92.4366H66.9966V104.261H78.9022V108.297H58.9961V108.304Z" fill="black"/>
<path d="M113.811 104.315V108.304H105.811V104.269H109.765V92.4442H105.811V88.4088H109.765V80.5737H101.909V108.312H93.9089V76.5384H113.815V80.5281H117.77V88.5076H113.815V92.4024H117.77V104.326H113.815L113.811 104.315Z" fill="black"/>
<path d="M139.146 108.304V96.4301H135.192V92.3948H139.146V80.5699H131.29V108.308H123.29V76.5346H143.196V80.5243H147.151V92.448H143.196V96.3427H147.151V108.312H139.15L139.146 108.304Z" fill="black"/>
<path d="M152.671 108.304V76.5308H160.671V108.304H152.671Z" fill="black"/>
<path d="M182.101 104.315V108.304H170.101V104.315H166.146V80.5662H170.101V76.5308H186.056V84.6053H182.01V80.6156H174.154V104.269H182.01V100.234H186.056V104.318H182.101V104.315Z" fill="black"/>
<path d="M207.387 108.304V100.325H203.432V92.4404H199.527V108.304H191.527V76.5309H199.527V88.4051H203.432V84.4876H207.387V80.57H211.341V76.5347H215.387V80.6194H211.433V84.594H207.478V92.3987H211.433V100.234H215.387V108.308H207.387V108.304Z" fill="black"/>
<path d="M236.863 104.315V108.304H224.862V104.315H220.908V100.23H224.954V104.265H232.81V96.4453H224.855V92.4632H220.9V80.5662H224.855V76.5308H236.856V80.5662H240.81V84.6015H236.764V80.6118H228.908V88.4316H236.863V92.4138H240.818V104.311H236.863V104.315Z" fill="black"/>
<path d="M71.8807 58.7175V62.7073H63.8801V58.6719H67.8347V46.8471H63.8801V42.8118H67.8347V34.9767H59.9789V62.7149H51.9784V30.9413H71.8845V34.9311H75.839V42.9106H71.8845V46.8053H75.839V58.7289H71.8845L71.8807 58.7175Z" fill="#FAED00" stroke="black" stroke-miterlimit="10"/>
<path d="M97.2158 62.7073V50.8331H93.2612V46.7977H97.2158V34.9729H89.36V62.7111H81.3595V30.9376H101.266V34.9273H105.22V46.8509H101.266V50.7457H105.22V62.7149H97.2196L97.2158 62.7073Z" fill="#FAED00" stroke="black" stroke-miterlimit="10"/>
<path d="M110.737 62.7073V30.9338H130.643V34.9691H118.737V42.8042H126.692V46.8395H118.737V58.6644H130.643V62.6997H110.737V62.7073Z" fill="#FAED00" stroke="black" stroke-miterlimit="10"/>
<path d="M151.978 62.7073V54.7734H140.167V62.7073H136.121V50.7381H140.076V38.9133H144.03V30.9338H152.077V38.9133H156.031V50.7381H159.986V62.7073H151.985H151.978ZM148.023 39.0044H144.118V50.7381H148.023V39.0044Z" fill="#FAED00" stroke="black" stroke-miterlimit="10"/>
<path d="M181.362 62.7073V54.7278H177.408V46.8433H173.503V62.7073H165.502V30.9338H173.503V42.808H177.408V38.8905H181.362V34.9729H185.317V30.9376H189.363V35.0223H185.408V38.9969H181.454V46.8015H185.408V54.6366H189.363V62.7111H181.362V62.7073Z" fill="#FAED00" stroke="black" stroke-miterlimit="10"/>
<path d="M16.3304 76.7664V104.505H8.32982V76.7664H0.375V72.7311H24.2814V76.7664H16.3265H16.3304Z" fill="#FAED00" stroke="black" stroke-miterlimit="10"/>
<path d="M41.6654 104.505V88.6406H33.8096V104.505H25.8091V72.7311H33.8096V84.6053H41.6654V72.7311H49.6659V104.505H41.6654Z" fill="#FAED00" stroke="black" stroke-miterlimit="10"/>
<path d="M55.1863 104.505V72.7311H75.0924V76.7664H63.1868V84.6015H71.1416V88.6368H63.1868V100.462H75.0924V104.497H55.1863V104.505Z" fill="#FAED00" stroke="black" stroke-miterlimit="10"/>
<path d="M110.001 100.515V104.505H102.001V100.469H105.955V88.6444H102.001V84.6091H105.955V76.774H98.0997V104.512H90.0991V72.7386H110.005V76.7284H113.96V84.7079H110.005V88.6026H113.96V100.526H110.005L110.001 100.515Z" fill="#FAED00" stroke="black" stroke-miterlimit="10"/>
<path d="M135.336 104.505V92.6304H131.382V88.595H135.336V76.7702H127.481V104.508H119.48V72.7349H139.386V76.7246H143.341V88.6482H139.386V92.543H143.341V104.512H135.34L135.336 104.505Z" fill="#FAED00" stroke="black" stroke-miterlimit="10"/>
<path d="M148.861 104.505V72.7311H156.862V104.505H148.861Z" fill="#FAED00" stroke="black" stroke-miterlimit="10"/>
<path d="M178.292 100.515V104.505H166.291V100.515H162.336V76.7664H166.291V72.7311H182.246V80.8056H178.2V76.8158H170.344V100.469H178.2V96.4339H182.246V100.519H178.292V100.515Z" fill="#FAED00" stroke="black" stroke-miterlimit="10"/>
<path d="M203.577 104.505V96.5252H199.622V88.6407H195.717V104.505H187.717V72.7311H195.717V84.6054H199.622V80.6878H203.577V76.7703H207.531V72.7349H211.577V76.8197H207.623V80.7942H203.668V88.5989H207.623V96.434H211.577V104.508H203.577V104.505Z" fill="#FAED00" stroke="black" stroke-miterlimit="10"/>
<path d="M233.053 100.515V104.505H221.053V100.515H217.098V96.4301H221.144V100.465H229V92.6456H221.045V88.6634H217.09V76.7664H221.045V72.7311H233.046V76.7664H237V80.8017H232.954V76.812H225.099V84.6319H233.053V88.614H237.008V100.511H233.053V100.515Z" fill="#FAED00" stroke="black" stroke-miterlimit="10"/>
<path d="M90.0192 126.919V120.019H87.459V117.45H95.4405V120.019H92.8803V126.919H90.0192Z" fill="#004FFF"/>
<path d="M88.0304 118.02H94.8689V119.445H92.3088V126.346H90.5906V119.445H88.0304V118.02Z" fill="white"/>
<path d="M99.555 127.033C96.8729 127.033 95.0747 125.084 95.0747 122.185C95.0747 119.286 96.8767 117.336 99.555 117.336C102.233 117.336 104.024 119.286 104.024 122.185C104.024 125.084 102.229 127.033 99.555 127.033ZM99.555 120.004C98.1873 120.011 97.9816 121.372 97.9816 122.185C97.9816 122.998 98.1873 124.358 99.5588 124.366C100.923 124.358 101.121 122.998 101.117 122.189C101.117 121.376 100.919 120.015 99.555 120.008V120.004Z" fill="#004FFF"/>
<path d="M99.5551 126.463C97.3302 126.463 95.6462 124.894 95.6462 122.185C95.6462 119.476 97.3302 117.906 99.5551 117.906C101.78 117.906 103.452 119.464 103.452 122.185C103.452 124.905 101.761 126.463 99.5551 126.463ZM99.5551 124.932C100.843 124.924 101.696 123.959 101.689 122.181C101.696 120.399 100.839 119.438 99.5551 119.43C98.2559 119.438 97.4102 120.395 97.4102 122.181C97.4102 123.967 98.2597 124.924 99.5551 124.932Z" fill="white"/>
<path d="M108.687 127.033C106.005 127.033 104.207 125.084 104.207 122.185C104.207 119.286 106.009 117.336 108.687 117.336C111.365 117.336 113.156 119.286 113.156 122.185C113.156 125.084 111.362 127.033 108.687 127.033ZM108.687 120.004C107.319 120.011 107.114 121.372 107.114 122.185C107.114 122.998 107.319 124.358 108.691 124.366C110.055 124.358 110.253 122.998 110.249 122.189C110.249 121.376 110.051 120.015 108.687 120.008V120.004Z" fill="#004FFF"/>
<path d="M108.687 126.463C106.462 126.463 104.778 124.894 104.778 122.185C104.778 119.476 106.462 117.906 108.687 117.906C110.912 117.906 112.584 119.464 112.584 122.185C112.584 124.905 110.893 126.463 108.687 126.463ZM108.687 124.932C109.975 124.924 110.828 123.959 110.821 122.181C110.828 120.399 109.971 119.438 108.687 119.43C107.388 119.438 106.542 120.395 106.542 122.181C106.542 123.967 107.392 124.924 108.687 124.932Z" fill="white"/>
<path d="M113.495 126.919V117.45H116.368V124.355H119.964V126.919H113.495Z" fill="#004FFF"/>
<path d="M114.067 118.02H115.796V124.921H119.396V126.346H114.067V118.017V118.02Z" fill="white"/>
<path d="M123.134 126.919V117.45H126.982C129.111 117.45 130.54 118.807 130.54 120.828C130.54 122.85 129.127 124.206 126.936 124.206H126.006V126.919H123.134ZM126.658 121.672C126.894 121.672 127.218 121.63 127.408 121.44C127.542 121.307 127.61 121.102 127.606 120.832C127.606 120.566 127.546 120.372 127.416 120.243C127.225 120.049 126.894 120.008 126.65 120.008H126.003V121.676H126.654L126.658 121.672Z" fill="#004FFF"/>
<path d="M123.705 118.02H126.982C128.879 118.02 129.968 119.187 129.968 120.828C129.968 122.47 128.86 123.636 126.936 123.636H125.435V126.349H123.705V118.02ZM126.658 122.242C127.683 122.242 128.186 121.668 128.182 120.828C128.189 120 127.686 119.441 126.658 119.438H125.435V122.246H126.658V122.242Z" fill="white"/>
<path d="M135.599 126.919L134.971 124.997H132.78L132.151 126.919H129.066L132.357 117.45H135.397L138.674 126.919H135.599ZM134.159 122.512L133.873 121.642L133.588 122.512H134.155H134.159Z" fill="#004FFF"/>
<path d="M129.866 126.349L132.761 118.02H134.986L137.87 126.349H136.015L135.386 124.427H132.365L131.736 126.349H129.869H129.866ZM134.948 123.082L133.904 119.894H133.847L132.803 123.082H134.948Z" fill="white"/>
<path d="M142.43 127.033C139.737 127.033 137.927 125.088 137.927 122.196C137.927 119.305 139.763 117.336 142.396 117.336C144.556 117.336 146.255 118.689 146.526 120.623L146.617 121.273H143.783L143.661 120.866C143.493 120.308 143.067 120.011 142.426 120.008C141.417 120.011 140.834 120.802 140.834 122.177C140.834 122.994 141.044 124.362 142.446 124.37C142.823 124.37 143.398 124.279 143.661 123.785H141.988V121.345H146.613V122.949C146.613 125.396 144.933 127.037 142.43 127.037V127.033Z" fill="#004FFF"/>
<path d="M142.43 119.438C141.139 119.445 140.262 120.426 140.262 122.177C140.262 123.929 141.112 124.932 142.442 124.94C143.634 124.932 144.347 124.26 144.369 123.215H142.56V121.915H146.042V122.949C146.042 125.133 144.537 126.467 142.43 126.467C140.087 126.467 138.499 124.833 138.499 122.2C138.499 119.567 140.194 117.91 142.396 117.91C144.282 117.91 145.73 119.065 145.958 120.707H144.206C143.969 119.924 143.341 119.449 142.43 119.441V119.438Z" fill="white"/>
<path d="M146.975 126.919V117.45H153.722V120.019H149.848V120.904H153.433V123.469H149.848V124.355H153.734V126.919H146.975Z" fill="#004FFF"/>
<path d="M147.547 118.02H153.151V119.445H149.276V121.471H152.865V122.895H149.276V124.921H153.162V126.346H147.547V118.017V118.02Z" fill="white"/>
</g>
<defs>
<clipPath id="clip0_2_175">
<rect width="240.633" height="142.346" fill="white" transform="translate(0.18457)"/>
</clipPath>
</defs>
</svg>
