<svg width="18" height="18" viewBox="0 0 18 18" fill="none" xmlns="http://www.w3.org/2000/svg">
<g clip-path="url(#clip0_162_468)">
<path d="M8.77677 17.8235C13.5291 17.8235 17.3817 13.8731 17.3817 8.99998C17.3817 4.12688 13.5291 0.176453 8.77677 0.176453C4.02442 0.176453 0.171875 4.12688 0.171875 8.99998C0.171875 13.8731 4.02442 17.8235 8.77677 17.8235Z" fill="#FFE200"/>
<path d="M6.05422 5.32233H4.11296L7.68915 8.98939L4.08887 12.6776H6.03013L9.63042 8.98939L6.05422 5.32233Z" fill="#FF640C"/>
<path d="M10.3188 9.69525L9.35156 10.687L11.5338 12.9176H13.4647L10.3188 9.69525Z" fill="#FF640C"/>
<path d="M13.4303 5.08234H11.5097L9.35156 7.29175L10.3188 8.28351L13.4303 5.08234Z" fill="#FF640C"/>
</g>
<defs>
<clipPath id="clip0_162_468">
<rect width="17.554" height="18" fill="white"/>
</clipPath>
</defs>
</svg>
