<svg width="122" height="36" viewBox="0 0 122 36" fill="none" xmlns="http://www.w3.org/2000/svg">
<path d="M17.5008 35.0016C27.1663 35.0016 35.0016 27.1663 35.0016 17.5008C35.0016 7.83538 27.1663 0 17.5008 0C7.83538 0 0 7.83538 0 17.5008C0 27.1663 7.83538 35.0016 17.5008 35.0016Z" fill="#DDDDDD"/>
<path d="M20.002 18.7674L18.768 20.0015L27.2707 28.5042L28.5047 27.2702L20.002 18.7674Z" fill="black"/>
<path d="M7.72911 6.49401L6.49509 7.72803L14.9978 16.2307L16.2318 14.9967L7.72911 6.49401Z" fill="black"/>
<path d="M27.2697 6.4938L18.7729 15.0024L20.0078 16.2356L28.5046 7.72696L27.2697 6.4938Z" fill="black"/>
<path d="M14.9919 18.7675L6.49509 27.2761L7.72997 28.5093L16.2267 20.0006L14.9919 18.7675Z" fill="black"/>
<path d="M86.1993 10.9609H83.4964V24.4213H99.1145V22.1359H86.1993V10.9609Z" fill="#DDDDDD"/>
<path d="M112.09 11.6859C111.693 11.1162 111.095 10.7871 110.445 10.7871C109.795 10.7871 109.198 11.1162 108.8 11.6859L99.7596 24.4227H102.986L110.443 13.86L116.286 22.1356H107.226V24.4227H121.127L112.087 11.6859H112.09Z" fill="#DDDDDD"/>
<path d="M63.4973 24.4213L55.1398 17.5012L63.0308 10.9609H59.3325L53.2883 15.9656L47.2424 10.9609H43.5441L51.435 17.5012L43.0775 24.4213H46.7905L53.2883 19.0352L59.786 24.4213H63.4973Z" fill="#DDDDDD"/>
<path d="M76.9676 10.9609H64.6679V13.2545H76.6009C77.8975 13.2545 78.9469 14.3056 78.9469 15.6005C78.9469 16.8955 77.8958 17.9465 76.6009 17.9465H64.6679V24.423H67.3741V20.2401H76.9676C79.5297 20.2401 81.6072 18.1626 81.6072 15.6005C81.6072 13.0384 79.5297 10.9609 76.9676 10.9609Z" fill="#DDDDDD"/>
</svg>
