<svg width="185" height="204" viewBox="0 0 185 204" fill="none" xmlns="http://www.w3.org/2000/svg">
<path d="M180.115 101.343C179.702 98.0246 178.841 93.1451 177.693 89.4316C176.509 85.5746 174.697 79.9775 172.849 76.0487C171.827 73.878 170.643 71.4203 169.566 69.5546C168.705 68.0298 167.593 66.2537 166.499 64.5316C165.996 63.7422 165.494 62.9529 164.956 62.1815C164.741 61.8765 164.525 61.5357 164.328 61.2486C164.041 60.836 163.736 60.4234 163.431 60.0108C163.431 60.0108 163.431 59.9929 163.413 59.9749C163.413 59.9749 163.413 59.9749 163.395 59.957C163.395 59.957 163.377 59.939 163.359 59.9211C163.162 59.6341 162.965 59.365 162.749 59.0959C162.606 58.9165 162.444 58.7371 162.301 58.5398C162.193 58.3962 162.086 58.2707 161.978 58.1272C160.92 56.7279 159.807 55.2568 158.749 54.1446C155.681 50.8796 151.555 46.7894 148.434 43.9908C144.738 40.6541 139.661 37.5147 135.948 35.2184C132.414 33.0298 127.426 30.6259 123.498 29.2087C120.269 28.0426 115.748 26.6075 111.963 25.567C109.989 25.0288 107.388 24.5265 105.594 24.2574L105.235 24.2036C103.154 23.8807 100.553 23.486 98.508 23.3425C97.8622 23.3066 97.1805 23.2707 96.4809 23.2348C95.261 23.1272 94.0231 23.0554 92.7853 23.0196C91.6013 22.9837 90.3994 23.0016 89.2154 23.0375C88.3722 23.0375 87.5649 23.0375 86.8474 23.0554C84.8022 23.0913 81.9857 23.3425 78.2543 23.8089C76.5501 24.0242 73.8412 24.4368 71.7423 24.9391C69.0872 25.567 65.7146 26.3922 63.1851 27.1815C58.4312 28.6705 54.933 30.2312 54.933 30.2312C51.2733 31.8637 49.4256 32.6889 45.443 34.9493C41.1734 37.3712 37.2088 40.2953 37.0114 40.4388C33.3876 43.1477 32.0242 44.3496 29.3154 46.7535C28.0417 47.8837 25.0996 50.8437 24.4 51.6151C24.1847 51.8483 24.0053 52.0636 23.808 52.2789C21.0632 55.1851 18.6952 58.1092 16.7398 60.9975C15.484 62.7197 14.7306 63.9575 12.3267 67.8504C10.5327 70.7745 8.73877 74.7033 7.53683 77.3045C6.60397 79.3137 5.58142 82.184 4.97148 83.9062C4.23596 85.9513 2.40613 91.4587 1.22212 98.7422C0.719818 101.774 0.325149 106.061 0.038117 111.515C-0.0515805 113.04 0.038117 114.924 0.0919355 116.592C0.127814 117.292 0.145754 117.973 0.163693 118.601C0.253391 122.44 0.970971 127.786 1.99352 132.253C2.87256 136.074 4.30772 140.846 5.36615 144.039C6.01197 145.977 7.0704 148.381 7.91356 150.318L8.07501 150.695C8.95405 152.704 10.2816 155.323 11.3579 157.207C12.219 158.714 13.3133 160.49 14.4077 162.212C14.7306 162.714 15.0355 163.235 15.3584 163.737C15.5558 164.042 15.789 164.329 15.9863 164.634C16.1837 164.921 16.381 165.244 16.5783 165.513C16.8833 165.944 17.1883 166.374 17.5112 166.787C17.5112 166.805 17.5471 166.823 17.565 166.858C17.7623 167.128 17.9597 167.415 18.1749 167.684C18.2646 167.809 18.3723 167.917 18.462 168.025C18.7131 168.329 18.9463 168.652 19.1796 168.975C20.1662 170.285 21.1888 171.594 22.1575 172.635C25.2252 175.918 29.3692 179.99 32.4727 182.789C36.1683 186.125 41.2451 189.265 44.9586 191.561C48.4927 193.75 53.4978 196.154 57.4086 197.571C60.6557 198.737 65.1764 200.172 68.9437 201.213C70.4148 201.625 72.4957 202.056 75.2943 202.522C78.362 203.042 83.1159 203.688 88.2825 203.76C88.6054 203.76 88.8745 203.76 89.1615 203.76C89.2512 203.76 89.3409 203.76 89.4306 203.76C89.4306 203.76 89.4306 203.76 89.4486 203.76C89.8432 203.76 90.2559 203.76 90.6146 203.76C95.6377 203.76 98.2748 203.455 102.616 202.935C103.495 202.827 108.895 202.038 113.505 200.764C115.694 200.154 120.825 198.737 125.938 196.512C129.597 194.916 133.042 193.319 138.316 190.054C143.59 186.789 147.555 183.47 149.062 182.197C152.631 179.201 155.466 176.241 157.296 174.232C160.076 171.254 162.48 168.24 164.454 165.298C165.117 164.365 165.745 163.45 166.266 162.625L166.714 161.907C167.45 160.741 168.293 159.414 168.885 158.301C169.746 156.705 171.899 152.632 173.334 149.439C174.302 147.269 175.361 144.38 175.899 142.837C176.24 141.869 176.599 140.685 176.94 139.555C177.029 139.268 177.137 138.998 177.209 138.711C177.244 138.568 177.28 138.442 177.316 138.299L177.603 137.366C178.411 134.747 179.236 130.979 179.666 128.001C180.007 125.598 180.94 119.175 180.868 114.834C180.761 109.129 180.492 104.59 180.079 101.343H180.115ZM178.339 101.559C178.733 104.698 179.003 109.291 179.11 114.852C179.11 115.623 179.11 116.466 179.056 117.327C178.769 114.744 178.303 112.161 177.675 109.578C177.98 104.698 177.836 99.8544 177.262 95.1184C177.747 97.4685 178.124 99.8006 178.339 101.559ZM175.504 138.299C175.433 138.55 175.343 138.819 175.271 139.088C174.141 142.784 172.616 146.336 170.715 149.672C170.894 146.82 170.338 144.273 168.992 142.156C172.885 134.137 175.576 125.633 176.904 116.933C176.957 116.556 176.993 116.179 177.047 115.803C178.088 123.23 177.639 130.639 175.648 137.796L175.486 138.317L175.504 138.299ZM88.1928 201.948C79.9227 201.751 71.9396 199.652 64.4947 195.867C65.4635 196.064 66.4322 196.225 67.4009 196.387C67.4727 196.387 67.5444 196.405 67.6162 196.423C67.8135 196.459 68.0288 196.477 68.2262 196.512C69.3384 196.674 70.4506 196.817 71.5629 196.943C71.7782 196.961 71.9755 196.997 72.1908 197.015C72.3343 197.015 72.4599 197.033 72.6034 197.051C73.913 197.176 75.2226 197.284 76.5321 197.356C76.6218 197.356 76.7115 197.356 76.8012 197.374C76.9986 197.374 77.1959 197.374 77.3932 197.374C78.5593 197.427 79.7433 197.463 80.9273 197.463C81.1067 197.463 81.2861 197.463 81.4834 197.463C81.5911 197.463 81.6987 197.463 81.8064 197.463C82.6854 197.463 83.5824 197.445 84.4614 197.409C84.6767 197.409 84.874 197.409 85.0713 197.409H85.161C86.2553 197.356 87.3676 197.302 88.4619 197.212C88.5337 197.212 88.6054 197.212 88.6951 197.212C88.9642 197.194 89.2512 197.158 89.5203 197.14C90.2917 197.069 91.0631 196.997 91.8345 196.907C91.996 196.889 92.1574 196.871 92.3189 196.853C92.6059 196.817 92.893 196.782 93.1621 196.746C93.7002 196.674 94.2205 196.62 94.7587 196.53C96.3194 198.504 98.5798 199.849 101.486 200.585C97.1626 201.571 92.7315 202.038 88.2646 201.948C88.2466 201.948 88.2287 201.948 88.2107 201.948H88.1928ZM96.3732 25.0288C103.388 25.6567 110.169 27.6659 116.555 30.9309C106.796 28.9934 96.5347 28.7423 86.2553 30.2312C84.6767 28.24 82.3983 26.8765 79.4563 26.159C82.811 25.4055 86.2195 24.957 89.6818 24.8314C91.8166 24.8314 94.1846 24.9032 96.3912 25.0108L96.3732 25.0288ZM168.149 153.763C167.198 155.144 166.158 156.489 165.081 157.781C165.207 155.377 165.064 152.83 164.633 150.139C165.835 148.165 166.947 146.156 167.988 144.129C169.208 146.748 169.226 150.049 168.149 153.763ZM159.484 168.993C159.484 168.993 159.484 168.993 159.484 169.011C156.004 173.55 150.263 176.151 142.675 176.725C150.299 173.227 156.883 168.724 162.319 163.432C161.978 164.508 161.583 165.549 161.081 166.518C160.615 167.397 160.094 168.222 159.502 168.993H159.484ZM103.19 199.185C100.463 198.737 98.3466 197.732 96.8217 196.225C97.4137 196.118 98.0057 196.01 98.5977 195.902C98.9027 195.849 99.2077 195.795 99.5126 195.723C99.6741 195.687 99.8535 195.651 100.015 195.615C100.661 195.49 101.325 195.328 101.97 195.185C104.554 196.477 107.101 197.445 109.595 198.055C108.339 198.558 107.065 199.006 105.791 199.401C104.894 199.365 104.015 199.311 103.172 199.167L103.19 199.185ZM13.6004 157.153C13.403 156.794 13.2057 156.436 13.0263 156.077C12.6675 155.395 12.3446 154.713 12.0038 154.014C11.8423 153.691 11.6809 153.368 11.5373 153.027C11.1068 152.094 10.6942 151.143 10.3174 150.193C10.2816 150.103 10.2457 150.031 10.2098 149.941C9.7972 148.901 9.40254 147.861 9.04375 146.802C8.91817 146.461 8.81053 146.102 8.7029 145.762C8.46968 145.044 8.23647 144.326 8.02119 143.591C7.89562 143.178 7.78798 142.766 7.6624 142.335C7.48301 141.653 7.30361 140.99 7.12422 140.308C7.01658 139.877 6.90895 139.447 6.81925 139.016C6.65779 138.317 6.51428 137.617 6.37076 136.917C6.28106 136.505 6.2093 136.092 6.11961 135.662C5.97609 134.854 5.85051 134.047 5.72494 133.24C5.67112 132.917 5.6173 132.612 5.58142 132.289C5.43791 131.266 5.33027 130.244 5.24057 129.221C6.31694 130.298 7.51889 131.249 8.90023 132.056C10.7659 135.68 12.9725 139.25 15.5199 142.73C15.3943 143.178 15.2688 143.609 15.1611 144.039C15.1073 144.255 15.0535 144.47 14.9997 144.667C14.8382 145.313 14.6947 145.959 14.5691 146.605C14.5332 146.802 14.4794 146.999 14.4435 147.197C14.318 147.878 14.2103 148.56 14.1206 149.242C14.1206 149.367 14.0847 149.493 14.0668 149.619C13.7618 152.058 13.708 154.39 13.9233 156.579C13.9233 156.723 13.9592 156.866 13.9771 157.01C14.013 157.368 14.0489 157.727 14.1027 158.086C13.9233 157.763 13.7439 157.458 13.5645 157.135L13.6004 157.153ZM5.41997 113.632C5.54554 112.466 5.68906 111.282 5.86845 110.116C7.12422 101.864 9.65369 93.8088 13.2775 86.1666C14.9638 87.9247 17.26 89.1266 20.2021 89.7007C20.7762 91.0641 21.4041 92.4633 22.0678 93.8626C19.933 105.559 19.6101 117.668 21.117 129.455C21.0453 129.598 20.9735 129.742 20.9018 129.867C20.7762 130.118 20.6327 130.37 20.5071 130.621C20.1124 131.392 19.7357 132.146 19.3769 132.899C19.3051 133.042 19.2334 133.204 19.1616 133.347C19.1616 133.365 19.1437 133.383 19.1257 133.401C18.7311 133.347 18.3005 133.33 17.9238 133.258C14.9997 132.773 12.4702 131.948 10.3174 130.764C8.02119 126.225 6.299 121.615 5.15087 116.987C5.20469 116.251 5.25851 115.498 5.33027 114.744C5.36615 114.367 5.40203 113.973 5.43791 113.596L5.41997 113.632ZM12.8469 73.0169C13.7977 71.6356 14.8382 70.3081 15.9146 68.9985C15.789 71.4024 15.9325 73.9498 16.381 76.6587C15.1791 78.6141 14.0668 80.6233 13.0263 82.6504C11.8064 80.0313 11.7885 76.7304 12.8649 73.0169H12.8469ZM38.3031 42.0175C41.9089 39.3804 45.6044 37.0482 49.282 35.057C46.3579 38.3578 44.0078 42.753 42.3215 48.1707C36.7782 48.081 32.0242 48.9063 28.1134 50.6105C31.1631 47.6684 34.5717 44.7622 38.3031 42.0354V42.0175ZM77.7879 27.5941C80.5326 28.0426 82.6316 29.0652 84.1744 30.5721C82.4522 30.8591 80.712 31.2 78.9898 31.5767C76.3886 30.2851 73.8233 29.3163 71.3297 28.6884C72.5675 28.2041 73.8233 27.7556 75.079 27.3609C76.0119 27.3968 76.9268 27.4506 77.7879 27.5941ZM140.702 52.0995C144.182 56.8534 147.142 62.0021 149.618 67.4019C144.038 62.7914 137.903 58.755 131.391 55.3286C131.66 54.3957 131.893 53.4808 132.073 52.5838C135.087 52.2071 137.975 52.0457 140.702 52.0995ZM132.414 50.754C132.88 47.8658 132.952 45.1569 132.593 42.6454C134.943 44.9775 137.186 47.5249 139.32 50.2876C137.114 50.2876 134.8 50.4849 132.414 50.754ZM166.014 81.8252C166.14 81.3229 166.248 80.8386 166.355 80.3363C166.427 80.0133 166.499 79.6725 166.553 79.3496C166.642 78.8473 166.714 78.3629 166.786 77.8606C166.822 77.5556 166.875 77.2507 166.911 76.9457C166.983 76.3896 167.019 75.8334 167.073 75.2773C167.073 75.062 167.109 74.8468 167.127 74.6315C167.162 73.878 167.18 73.1425 167.18 72.407C167.18 72.2097 167.162 72.0123 167.145 71.815C167.127 71.2768 167.091 70.7566 167.055 70.2363C167.037 69.9672 166.983 69.7161 166.965 69.447C166.929 69.1599 166.911 68.855 166.858 68.5679C171.809 77.4121 174.805 87.243 175.738 97.5043C174.661 96.428 173.441 95.4772 172.078 94.6699C170.212 91.0461 168.006 87.4762 165.458 83.978C165.566 83.5833 165.674 83.2066 165.781 82.8119C165.871 82.4711 165.961 82.1302 166.032 81.8073L166.014 81.8252ZM163.072 160.041C157.942 165.567 151.591 170.267 144.146 173.98C151.591 167.666 157.977 160.382 163.144 152.435C163.431 155.144 163.413 157.691 163.054 160.041H163.072ZM139.912 182.771C140.128 183.04 140.343 183.291 140.522 183.542C140.558 183.578 140.594 183.614 140.612 183.668C140.791 183.901 140.971 184.098 141.132 184.296C141.15 184.332 141.186 184.349 141.204 184.385C141.348 184.565 141.491 184.726 141.617 184.87C141.635 184.888 141.653 184.906 141.67 184.941C141.778 185.049 141.868 185.157 141.957 185.264C138.567 187.704 135.123 189.875 131.696 191.723C134.279 188.798 136.414 185.031 138.047 180.439C138.405 180.905 138.746 181.354 139.069 181.748C139.105 181.784 139.123 181.82 139.159 181.856C139.41 182.179 139.661 182.502 139.894 182.789L139.912 182.771ZM122.278 196.064C121.345 196.387 120.394 196.638 119.408 196.817C118.349 196.997 117.273 197.069 116.178 197.069C123.175 193.427 129.723 188.314 135.607 181.874C132.683 188.906 128.431 193.624 123.049 195.777C122.798 195.885 122.547 195.974 122.278 196.082V196.064ZM31.7552 173.658C31.4861 173.586 31.2349 173.514 30.9838 173.442C30.4814 173.299 29.9612 173.173 29.4948 173.012C29.2077 172.922 28.9386 172.814 28.6516 172.707C28.2211 172.545 27.7905 172.402 27.3779 172.222C27.0909 172.097 26.8397 171.971 26.5706 171.846C26.1939 171.666 25.7992 171.487 25.4404 171.29C25.1893 171.146 24.9381 171.002 24.687 170.841C24.3282 170.626 23.9873 170.428 23.6465 170.195C23.4133 170.034 23.1801 169.854 22.9648 169.693C22.6419 169.46 22.3369 169.209 22.0319 168.957C21.8167 168.778 21.6193 168.581 21.4041 168.383C21.117 168.114 20.8479 167.845 20.5788 167.576C20.3815 167.361 20.2021 167.163 20.0048 166.93C19.6639 166.536 19.341 166.141 19.036 165.728C19.036 165.728 19.0181 165.692 19.0002 165.692C15.1432 160.221 14.587 152.812 16.8115 144.344C20.2201 148.775 24.0412 152.902 28.2569 156.669C30.8761 163.019 34.1411 169.029 38.0519 174.554C36.7244 174.465 35.4328 174.321 34.1949 174.124C33.3518 173.98 32.5445 173.819 31.7731 173.64L31.7552 173.658ZM17.9059 66.7022C23.0366 61.1769 29.4051 56.4767 36.85 52.7453C29.4051 59.06 23.0007 66.3434 17.8341 74.3086C17.5471 71.5997 17.565 69.0523 17.9238 66.7022H17.9059ZM106.635 59.4906C110.725 65.0697 114.492 71.0974 117.919 77.3942C117.004 78.6141 116.071 79.8519 115.084 81.0897C107.962 75.3849 100.517 70.2004 93.0185 65.7335C97.611 63.3655 102.168 61.2845 106.617 59.5085L106.635 59.4906ZM157.888 97.4326C157.619 97.917 157.368 98.4013 157.08 98.8857C156.811 99.3521 156.524 99.8185 156.255 100.267C155.968 100.769 155.681 101.254 155.358 101.756C155.071 102.222 154.766 102.689 154.461 103.155C154.138 103.658 153.816 104.16 153.493 104.662C153.188 105.129 152.847 105.595 152.524 106.061C152.183 106.564 151.824 107.066 151.465 107.586C151.143 108.053 150.784 108.501 150.461 108.968C150.084 109.488 149.707 110.008 149.313 110.528C148.972 110.977 148.613 111.443 148.254 111.892C147.842 112.412 147.447 112.95 147.016 113.47C146.998 113.488 146.981 113.524 146.963 113.542C142.854 108.071 138.262 102.725 133.311 97.6299C142.119 94.5623 150.371 92.9657 157.457 93.0374C157.69 94.4008 157.888 95.7463 158.067 97.1276C158.013 97.2353 157.96 97.325 157.906 97.4326H157.888ZM145.779 114.977C145.384 115.462 144.989 115.946 144.577 116.431C144.182 116.897 143.787 117.345 143.393 117.812C142.944 118.332 142.478 118.87 142.011 119.391C141.599 119.839 141.186 120.305 140.773 120.754C140.289 121.292 139.805 121.812 139.32 122.351C138.908 122.799 138.459 123.248 138.047 123.696C137.921 123.84 137.778 123.965 137.652 124.109C135.697 115.749 133.059 107.263 129.848 98.9036C130.387 98.7063 130.925 98.4731 131.463 98.2757C136.683 103.622 141.509 109.219 145.814 114.977H145.779ZM40.2764 174.644C36.7962 169.872 33.8182 164.724 31.3425 159.288C36.9397 163.898 43.075 167.971 49.605 171.415C49.3359 172.348 49.1026 173.263 48.9233 174.16C45.9094 174.537 43.0212 174.698 40.2944 174.644H40.2764ZM23.8618 135.518C23.8618 135.518 23.9335 135.518 23.9694 135.518C31.3605 135.518 39.9356 133.76 49.0668 130.513C50.8069 132.271 52.5829 133.993 54.3948 135.68C56.422 140.308 58.6285 144.847 60.9965 149.278C55.9197 156.346 52.2062 163.288 50.1252 169.693C42.7521 165.782 35.8633 161.046 29.7459 155.61C27.1268 149.188 25.1714 142.443 23.8797 135.536L23.8618 135.518ZM26.7321 152.83C23.3415 149.547 20.2201 146.031 17.4036 142.263C18.1032 140.021 18.9822 137.689 20.0407 135.321C20.6865 135.375 21.3502 135.411 22.0319 135.446C23.1263 141.384 24.687 147.215 26.7321 152.812V152.83ZM43.3261 51.1308C47.4343 56.9252 53.1749 64.9083 59.8663 74.1651C53.9284 78.4347 47.7572 81.879 41.9089 84.3009C40.4917 71.9585 40.8684 60.5131 43.3261 51.1128V51.1308ZM40.2047 84.9826C34.6793 87.0994 29.4768 88.2834 25.0278 88.3552C28.0955 75.5285 33.4235 63.3834 41.0119 53.0323C39.0027 62.2712 38.8054 73.2322 40.1867 85.0005L40.2047 84.9826ZM60.9248 75.6361C62.2344 77.448 63.5978 79.3316 64.9791 81.2332C64.423 81.6458 63.8668 82.0764 63.3107 82.489C62.934 82.776 62.5752 83.063 62.2164 83.3501C61.445 83.9421 60.6736 84.552 59.9202 85.162C59.4896 85.5028 59.077 85.8437 58.6644 86.1845C57.9648 86.7586 57.2831 87.3147 56.6014 87.8888C56.1887 88.2476 55.7582 88.5884 55.3456 88.9472C54.6639 89.5213 54.0001 90.0953 53.3364 90.6694C52.9417 91.0103 52.547 91.369 52.1524 91.7099C51.4527 92.3198 50.789 92.9477 50.1073 93.5577C49.7664 93.8626 49.4256 94.1676 49.1026 94.4905C48.2595 95.2798 47.4343 96.0692 46.6091 96.8585C46.4655 97.002 46.3041 97.1456 46.1606 97.2891C45.5506 97.8811 44.9586 98.491 44.3487 99.083C43.4158 94.7058 42.6624 90.3824 42.1242 86.1486C48.2774 83.673 54.7177 80.0851 60.9248 75.6361ZM135.158 126.638C134.62 127.176 134.1 127.697 133.544 128.235C133.095 128.683 132.611 129.114 132.145 129.562C131.588 130.082 131.032 130.621 130.476 131.141C130.01 131.571 129.507 132.02 129.041 132.45C128.467 132.971 127.893 133.509 127.301 134.029C126.817 134.46 126.314 134.89 125.812 135.321C125.202 135.841 124.61 136.361 124 136.882C123.498 137.312 122.978 137.725 122.457 138.155C121.829 138.675 121.219 139.178 120.574 139.698C120.053 140.111 119.515 140.541 118.995 140.954C118.349 141.456 117.721 141.976 117.057 142.479C116.519 142.891 115.963 143.304 115.425 143.716C114.887 144.111 114.367 144.524 113.828 144.918C107.585 136.469 101.037 127.553 94.5075 118.655C94.6869 118.529 94.8484 118.404 95.0278 118.278C105.971 110.259 117.38 103.909 128.18 99.5674C131.517 108.214 134.208 117.005 136.181 125.633C135.84 125.974 135.499 126.297 135.176 126.638H135.158ZM74.3435 167.271C70.2712 161.692 66.486 155.682 63.0596 149.385C63.9745 148.165 64.9073 146.928 65.894 145.69C73.016 151.395 80.4609 156.579 87.9417 161.046C83.3492 163.414 78.8105 165.495 74.3435 167.271ZM72.6213 167.935C67.0601 170.07 61.6603 171.72 56.5296 172.868C54.8612 172.115 53.2287 171.325 51.6142 170.5C53.5516 164.419 57.0498 157.781 61.8935 150.982C65.1764 156.938 68.7643 162.625 72.6213 167.935ZM62.1626 147.699C60.6019 144.757 59.1129 141.779 57.6957 138.747C59.9381 140.756 62.2344 142.712 64.5486 144.613C63.7233 145.654 62.9161 146.677 62.1447 147.717L62.1626 147.699ZM93.1621 160.311C94.1846 159.754 95.2072 159.18 96.2297 158.588C96.9473 158.176 97.6469 157.763 98.3645 157.351C99.3871 156.741 100.428 156.113 101.45 155.485C102.15 155.054 102.849 154.624 103.549 154.175C104.607 153.511 105.666 152.812 106.706 152.112C107.37 151.682 108.034 151.233 108.68 150.785C109.81 150.013 110.922 149.224 112.052 148.417C112.519 148.076 112.985 147.771 113.452 147.43C114.887 149.385 116.268 151.233 117.56 152.991C111.729 157.458 106.724 162.23 102.76 166.984C99.0641 165.244 95.3327 163.288 91.6013 161.154C92.1216 160.885 92.6239 160.58 93.1441 160.293L93.1621 160.311ZM118.654 154.462C126.332 164.831 131.571 171.882 135.194 176.671C125.884 175.918 115.353 172.743 104.482 167.791C108.321 163.253 113.111 158.696 118.636 154.462H118.654ZM133.777 178.34C121.668 182.412 108.518 183.793 95.3686 182.807C96.8217 178.591 99.5485 173.945 103.352 169.209C114.08 174.16 124.502 177.371 133.795 178.34H133.777ZM112.375 145.995C104.948 151.395 97.324 156.113 89.7894 160.113C82.0575 155.557 74.3615 150.246 67.0242 144.344C73.9668 135.949 82.793 127.517 93.0723 119.767C99.5844 128.665 106.132 137.545 112.375 146.013V145.995ZM65.6787 143.25C62.3241 140.505 59.0411 137.635 55.8479 134.675C55.0227 132.773 54.2333 130.836 53.4619 128.898C64.1718 124.593 75.4558 118.332 86.2912 110.493C88.1928 113.094 90.0944 115.695 92.0139 118.296C81.627 126.136 72.711 134.693 65.6787 143.232V143.25ZM52.6188 131.589C52.0447 131.033 51.4707 130.459 50.8966 129.885C51.2016 129.778 51.5065 129.652 51.8115 129.544C52.0806 130.226 52.3497 130.908 52.6188 131.589ZM52.7982 127.248C49.4435 118.601 46.7705 109.793 44.7972 101.164C51.0581 94.8314 58.18 88.6064 66.0375 82.7222C72.0114 90.9564 78.5414 99.9082 85.2328 109.057C74.5229 116.825 63.3645 123.014 52.8161 127.248H52.7982ZM51.1477 127.894C50.6096 128.091 50.0714 128.324 49.5332 128.522C44.3128 123.176 39.4871 117.579 35.1816 111.82C37.6931 108.77 40.402 105.721 43.3261 102.689C45.2815 111.049 47.9186 119.552 51.1298 127.894H51.1477ZM34.0155 113.237C38.1237 118.727 42.7341 124.055 47.6675 129.168C38.8592 132.235 30.607 133.832 23.5209 133.76C23.2877 132.397 23.0904 131.033 22.911 129.67C25.8351 124.342 29.5486 118.816 34.0155 113.255V113.237ZM51.0939 172.222C51.9191 172.653 52.7623 173.083 53.6055 173.478C52.6188 173.658 51.6321 173.855 50.6634 173.998C50.789 173.406 50.9325 172.814 51.0939 172.222ZM61.158 173.604C62.037 173.37 62.934 173.101 63.831 172.832C64.5306 172.635 65.2123 172.438 65.9299 172.204C66.9166 171.899 67.9212 171.541 68.9258 171.2C69.5537 170.985 70.1815 170.787 70.8094 170.554C71.7602 170.213 72.729 169.818 73.6977 169.46C76.9986 173.891 80.3891 177.873 83.7976 181.371C75.384 179.865 67.1139 177.407 59.2385 174.088C59.8663 173.927 60.5122 173.765 61.14 173.604H61.158ZM75.4558 168.796C75.4558 168.796 75.5275 168.76 75.5634 168.76C75.9043 168.617 76.2272 168.473 76.568 168.347C77.9673 167.773 79.3486 167.181 80.7659 166.553C81.3758 166.284 81.9857 165.979 82.6136 165.692C83.7079 165.19 84.7843 164.688 85.8786 164.15C86.5603 163.809 87.242 163.468 87.9237 163.109C88.5516 162.804 89.1615 162.499 89.7715 162.176C93.7182 164.472 97.6828 166.589 101.612 168.455C97.7187 173.388 94.9381 178.25 93.5029 182.699C91.2784 182.502 89.0539 182.215 86.8474 181.874C83.0083 178.142 79.1872 173.765 75.4737 168.814L75.4558 168.796ZM93.0006 184.385C92.7853 185.246 92.6239 186.09 92.5162 186.915C91.3681 185.982 90.202 184.995 89.0539 183.937C90.3814 184.116 91.691 184.26 93.0185 184.385H93.0006ZM94.8125 184.547C97.7007 184.78 100.571 184.924 103.441 184.924C113.2 184.924 122.834 183.578 131.947 180.797C131.786 180.905 131.624 181.013 131.463 181.102C130.691 181.587 129.938 182.053 129.149 182.52C128.539 182.878 127.929 183.219 127.337 183.56C126.583 183.991 125.812 184.403 125.058 184.798C124.431 185.121 123.803 185.444 123.175 185.767C122.421 186.143 121.65 186.52 120.879 186.879C120.251 187.184 119.605 187.471 118.959 187.758C118.188 188.099 117.398 188.422 116.627 188.745C115.999 188.996 115.353 189.265 114.725 189.516C113.918 189.821 113.093 190.108 112.286 190.413C111.711 190.61 111.137 190.826 110.545 191.023C110.402 191.077 110.24 191.113 110.097 191.166C109.308 191.436 108.5 191.669 107.693 191.902C107.334 192.01 106.975 192.117 106.617 192.225C106.222 192.333 105.827 192.44 105.433 192.548C104.464 192.817 103.513 193.05 102.544 193.283C102.437 193.301 102.329 193.337 102.204 193.355C99.5844 191.992 96.9114 190.287 94.2025 188.242C94.2743 187.058 94.4537 185.838 94.8125 184.547ZM99.5126 193.911C98.5618 194.109 97.629 194.306 96.6782 194.467C96.3015 194.539 95.9247 194.593 95.548 194.647C94.7945 193.427 94.364 192.028 94.2205 190.467C95.9965 191.758 97.7546 192.907 99.5126 193.911ZM137.401 176.618C137.186 176.33 136.97 176.043 136.737 175.738C136.558 175.505 136.378 175.272 136.199 175.039C136.055 174.859 135.93 174.68 135.768 174.483C135.571 174.214 135.356 173.945 135.158 173.658C135.015 173.478 134.871 173.281 134.728 173.101C134.584 172.904 134.423 172.689 134.261 172.491C134.046 172.204 133.831 171.917 133.598 171.612C133.382 171.325 133.149 171.02 132.934 170.715C132.772 170.5 132.629 170.303 132.467 170.105C129.167 165.692 125.041 160.167 120.035 153.422C120.143 153.35 120.233 153.26 120.34 153.189C126.512 148.668 132.934 145.044 139.033 142.532C140.504 155.287 140.056 167.074 137.365 176.635L137.401 176.618ZM140.756 141.851C146.281 139.734 151.483 138.55 155.932 138.496C152.865 151.323 147.537 163.468 139.948 173.819C141.958 164.58 142.155 153.619 140.773 141.851H140.756ZM119.838 152.453L119.3 151.735C119.192 151.807 119.085 151.897 118.977 151.969C117.667 150.211 116.304 148.363 114.869 146.425C115.604 145.869 116.34 145.331 117.057 144.775C117.362 144.542 117.667 144.326 117.954 144.093C119.085 143.232 120.179 142.353 121.273 141.474C121.632 141.187 121.991 140.882 122.35 140.595C123.085 139.985 123.821 139.393 124.556 138.783C124.987 138.424 125.417 138.048 125.83 137.689C126.476 137.151 127.104 136.595 127.731 136.038C128.18 135.644 128.611 135.267 129.041 134.872C129.651 134.334 130.243 133.796 130.835 133.258C131.266 132.863 131.678 132.486 132.109 132.092C132.701 131.536 133.293 130.962 133.885 130.405C134.261 130.029 134.656 129.67 135.033 129.293C135.553 128.773 136.073 128.253 136.594 127.75C137.526 132.146 138.28 136.469 138.818 140.703C132.432 143.286 125.704 147.035 119.282 151.735L119.802 152.453H119.838ZM129.167 97.325C128.898 96.6432 128.628 95.9616 128.359 95.2799C128.933 95.836 129.507 96.41 130.082 96.9841C129.777 97.0917 129.472 97.2173 129.167 97.3429V97.325ZM127.516 97.9708C116.555 102.366 105.002 108.788 93.9514 116.897C93.772 117.023 93.6105 117.148 93.4491 117.274C91.5475 114.672 89.628 112.071 87.7443 109.488C98.6695 101.397 107.998 92.5172 115.299 83.6371C118.654 86.3819 121.937 89.2522 125.13 92.2122C125.955 94.1317 126.763 96.0512 127.516 97.9887V97.9708ZM116.43 82.2558C117.255 81.2153 118.062 80.1927 118.833 79.1522C120.394 82.0943 121.883 85.0723 123.3 88.104C121.058 86.0948 118.762 84.1394 116.43 82.2378V82.2558ZM113.972 82.5428C106.76 91.2614 97.5034 100.052 86.6859 108.053C79.9945 98.9036 73.4645 89.9518 67.4906 81.6997C67.6162 81.61 67.7418 81.5023 67.8674 81.4126C75.5275 75.7976 83.403 70.9001 91.1887 66.774C98.9206 71.3306 106.617 76.6407 113.972 82.5428ZM66.8089 79.9595C66.6833 80.0492 66.5578 80.1569 66.4322 80.2466C65.0509 78.345 63.7054 76.4793 62.3779 74.6674C68.6567 69.9852 74.0206 64.9262 78.2184 59.8852C81.914 61.6254 85.6454 63.5808 89.3768 65.7156C81.8243 69.7699 74.2179 74.5418 66.8089 79.9595ZM61.3194 73.1963C54.6101 63.9216 48.8694 55.9385 44.7613 50.1441C54.323 50.754 65.2303 53.9293 76.4963 59.0779C72.424 63.9037 67.2754 68.7473 61.3194 73.1963ZM47.219 48.5475C59.3282 44.4752 72.4778 43.0939 85.6275 44.0805C84.1744 48.2963 81.4476 52.9426 77.6444 57.6787C66.9166 52.7274 56.4937 49.5162 47.219 48.5654V48.5475ZM18.6952 63.4372C19.036 62.3609 19.4307 61.3204 19.933 60.3517C23.1083 54.2702 29.441 50.8078 38.3389 50.1441C30.7147 53.6423 24.1129 58.1451 18.6952 63.4372ZM38.1596 54.1087C31.1273 64.2804 26.158 76.0128 23.2518 88.3911C22.6419 88.3552 22.0678 88.3014 21.4938 88.2117C19.933 84.3188 18.8387 80.6053 18.2288 77.1251C23.503 68.5859 30.2482 60.8001 38.1596 54.1087ZM19.4307 87.7632C17.1345 87.1353 15.3584 86.041 14.1206 84.4982C14.9817 82.776 15.9146 81.0897 16.8833 79.4213C17.4753 82.0943 18.3364 84.8929 19.4307 87.7632ZM22.8392 90.1671C22.7854 90.4362 22.7316 90.7053 22.6778 90.9744C22.5522 90.6873 22.4266 90.4003 22.301 90.1133C22.4804 90.1133 22.6598 90.1491 22.8572 90.1671H22.8392ZM24.6511 90.2389C29.2795 90.2389 34.7152 89.0548 40.4558 86.9021C41.0478 91.4049 41.873 96.0154 42.9135 100.68C42.8418 100.751 42.77 100.823 42.6982 100.895C41.9986 101.63 41.299 102.348 40.5993 103.084C40.2944 103.406 40.0073 103.711 39.7203 104.034C39.1283 104.68 38.5542 105.308 37.9802 105.954C37.6752 106.295 37.3702 106.636 37.0652 106.976C36.5091 107.604 35.9709 108.232 35.4507 108.86C35.1637 109.201 34.8766 109.542 34.5896 109.883C34.4461 110.062 34.2846 110.241 34.1411 110.403C29.9612 104.662 26.5527 99.0471 23.9335 93.6832C24.1488 92.5172 24.382 91.369 24.6332 90.203L24.6511 90.2389ZM32.993 111.874C32.7598 112.179 32.5086 112.466 32.2754 112.771C31.6655 113.542 31.0734 114.314 30.4994 115.085C30.3559 115.264 30.2124 115.444 30.0868 115.623C29.3513 116.61 28.6516 117.579 27.952 118.547C27.952 118.565 27.9161 118.601 27.8982 118.619C27.2523 119.552 26.6245 120.467 26.0145 121.4C25.8531 121.633 25.7095 121.866 25.566 122.099C25.0996 122.817 24.6511 123.517 24.2026 124.234C24.0232 124.521 23.8618 124.808 23.6824 125.077C23.3236 125.669 22.9648 126.261 22.6239 126.853C21.5655 116.825 21.8346 106.6 23.4312 96.6432C25.9966 101.559 29.1898 106.653 32.993 111.856V111.874ZM21.7628 133.76C21.4758 133.76 21.1888 133.724 20.9018 133.706C21.117 133.276 21.3323 132.827 21.5655 132.397C21.6373 132.845 21.6911 133.312 21.7808 133.76H21.7628ZM16.8654 138.963C16.8295 139.07 16.7936 139.16 16.7577 139.267C16.5783 139.752 16.4169 140.218 16.2554 140.685C14.587 138.317 13.0622 135.931 11.7167 133.509C13.5107 134.226 15.4661 134.783 17.6547 135.141C17.8879 135.177 18.1391 135.195 18.3902 135.231C17.8341 136.487 17.3318 137.725 16.8833 138.963H16.8654ZM43.2364 176.528C44.0437 176.492 44.8689 176.474 45.6941 176.402C46.3041 176.348 46.932 176.295 47.5598 176.223C47.9007 176.187 48.2416 176.169 48.5824 176.133C48.116 179.003 48.0622 181.712 48.4209 184.224C46.0709 181.892 43.8284 179.344 41.6936 176.582C42.1959 176.582 42.7162 176.546 43.2364 176.528ZM50.3225 175.9C50.8607 175.828 51.4348 175.721 51.973 175.631C52.7802 175.505 53.5875 175.362 54.4127 175.2C55.0765 175.075 55.7403 174.949 56.404 174.788C65.8223 178.968 75.8146 181.946 85.9863 183.542C88.1031 185.569 90.2379 187.453 92.3548 189.103C92.3368 191.256 92.7315 193.212 93.6105 194.934C92.7674 195.041 91.9242 195.167 91.0631 195.275C90.8837 195.293 90.7043 195.31 90.5249 195.328C90.2738 195.346 90.0226 195.382 89.7894 195.4C88.139 195.562 86.5065 195.669 84.874 195.723C84.4793 195.723 84.1026 195.723 83.7079 195.741C82.3445 195.777 80.9632 195.777 79.6177 195.741C79.1692 195.741 78.7207 195.741 78.2723 195.705C76.6398 195.651 75.0252 195.544 73.4107 195.4C73.1775 195.382 72.9442 195.346 72.6931 195.328C71.1862 195.167 69.6792 194.988 68.1903 194.754C68.1723 194.754 68.1365 194.754 68.1185 194.754C67.7238 194.683 67.3112 194.629 66.9166 194.557C65.5352 194.324 64.1718 194.055 62.8264 193.75C62.6111 193.696 62.3958 193.66 62.1626 193.606C61.9653 193.57 61.7859 193.517 61.6065 193.463C60.7274 193.247 59.8484 192.996 58.9694 192.745C56.0811 190.861 53.3005 188.727 50.6275 186.305C49.7305 183.219 49.6767 179.703 50.3225 175.882V175.9ZM53.4799 191.041C53.2287 190.951 52.9596 190.861 52.7085 190.772C52.565 190.557 52.4394 190.341 52.3138 190.126C52.7085 190.449 53.1032 190.736 53.4978 191.041H53.4799ZM106.886 194.037C107.191 193.947 107.478 193.857 107.783 193.768C108.482 193.57 109.164 193.355 109.864 193.14C110.025 193.086 110.205 193.032 110.366 192.978C110.707 192.871 111.048 192.745 111.389 192.637C111.981 192.44 112.573 192.243 113.147 192.028C113.398 191.938 113.667 191.848 113.918 191.741C114.223 191.633 114.51 191.525 114.815 191.4C115.371 191.184 115.909 190.969 116.465 190.754C116.806 190.628 117.129 190.485 117.47 190.341C117.703 190.252 117.937 190.162 118.17 190.054C118.708 189.821 119.264 189.588 119.802 189.337C120.179 189.175 120.538 189.014 120.914 188.834C121.686 188.476 122.475 188.117 123.247 187.74C123.552 187.597 123.857 187.453 124.162 187.292C124.359 187.184 124.574 187.094 124.771 186.987C125.094 186.825 125.399 186.646 125.722 186.484C126.494 186.09 127.247 185.677 128.001 185.264C128.377 185.049 128.772 184.834 129.149 184.619C129.597 184.367 130.046 184.098 130.494 183.829C130.763 183.668 131.05 183.488 131.319 183.327C131.678 183.112 132.019 182.896 132.378 182.681C132.432 182.645 132.503 182.609 132.557 182.573C126.476 188.798 119.713 193.606 112.537 196.871C110.025 196.494 107.442 195.723 104.769 194.557C105.469 194.378 106.186 194.198 106.886 194.001V194.037ZM142.854 172.832C149.887 162.643 154.856 150.91 157.762 138.55C158.372 138.586 158.946 138.64 159.52 138.729C161.081 142.622 162.175 146.336 162.785 149.816C157.511 158.355 150.766 166.141 142.854 172.832ZM161.583 139.178C163.88 139.806 165.656 140.9 166.893 142.443C166.032 144.165 165.099 145.851 164.131 147.52C163.539 144.847 162.678 142.048 161.583 139.178ZM158.175 136.774C158.229 136.505 158.282 136.236 158.336 135.985C158.462 136.272 158.587 136.559 158.713 136.846C158.534 136.846 158.354 136.792 158.157 136.774H158.175ZM156.363 136.72C151.735 136.72 146.299 137.886 140.558 140.039C139.966 135.536 139.141 130.926 138.1 126.261C138.926 125.418 139.733 124.557 140.522 123.714C140.809 123.409 141.096 123.086 141.383 122.781C141.957 122.153 142.549 121.525 143.106 120.88C143.446 120.485 143.787 120.108 144.128 119.713C144.613 119.157 145.115 118.583 145.581 118.027C145.922 117.615 146.263 117.22 146.604 116.807C146.676 116.718 146.765 116.61 146.855 116.52C151.035 122.279 154.461 127.894 157.08 133.258C156.865 134.424 156.632 135.59 156.381 136.738L156.363 136.72ZM148.021 115.067C148.326 114.69 148.631 114.314 148.918 113.937C149.367 113.363 149.797 112.789 150.228 112.233C150.515 111.856 150.802 111.479 151.089 111.102C151.573 110.439 152.057 109.793 152.524 109.129C152.721 108.842 152.936 108.555 153.134 108.268C153.78 107.353 154.408 106.42 155.017 105.505C155.215 105.2 155.394 104.913 155.592 104.608C156.004 103.981 156.417 103.335 156.793 102.707C157.027 102.33 157.242 101.971 157.457 101.595C157.762 101.092 158.067 100.572 158.354 100.07C159.413 110.098 159.144 120.323 157.547 130.298C154.982 125.382 151.788 120.27 147.985 115.085L148.021 115.067ZM159.466 94.5264C159.395 94.0779 159.341 93.6115 159.251 93.163C159.538 93.163 159.825 93.1989 160.112 93.2168C160.112 93.2527 160.076 93.2886 160.058 93.3244C159.861 93.7191 159.664 94.1138 159.449 94.5264H159.466ZM162.785 91.369C162.893 91.1179 163.018 90.8488 163.126 90.5976C163.485 89.7186 163.826 88.8575 164.149 88.0144C164.238 87.7632 164.328 87.512 164.4 87.2788C164.525 86.938 164.651 86.5792 164.759 86.2383C166.427 88.6064 167.952 90.9923 169.297 93.4141C167.503 92.6966 165.548 92.1404 163.359 91.7816C163.126 91.7458 162.875 91.7278 162.624 91.6919C162.678 91.5843 162.713 91.4767 162.767 91.369H162.785ZM163.359 85.1978C163.216 85.6284 163.054 86.0769 162.893 86.5254C162.731 86.9739 162.588 87.4044 162.426 87.8529C162.265 88.3014 162.068 88.7499 161.888 89.1984C161.709 89.6469 161.529 90.1133 161.332 90.5618C161.207 90.8667 161.045 91.1896 160.902 91.4946C160.256 91.4408 159.592 91.387 158.928 91.369C157.834 85.4311 156.273 79.6007 154.228 74.0036C157.619 77.2865 160.74 80.8027 163.539 84.552C163.467 84.7673 163.413 84.9826 163.341 85.1978H163.359ZM157.116 91.3152C149.707 91.2973 141.096 93.0374 131.929 96.3024C130.189 94.5443 128.413 92.8221 126.619 91.1358C124.592 86.5074 122.386 81.9687 120.017 77.5377C125.094 70.4695 128.808 63.5269 130.889 57.1405C138.262 61.0513 145.151 65.7694 151.268 71.223C153.887 77.6453 155.843 84.3906 157.134 91.3332L157.116 91.3152ZM129.884 54.611C129.041 54.1805 128.198 53.7858 127.355 53.3911C128.341 53.2117 129.346 53.0144 130.315 52.8709C130.189 53.4449 130.046 54.0369 129.884 54.629V54.611ZM129.364 56.3511C127.427 62.4326 123.928 69.0702 119.085 75.8693C115.802 69.9134 112.214 64.2266 108.357 58.8986C113.918 56.7638 119.3 55.1133 124.431 53.9652C126.099 54.7187 127.731 55.508 129.364 56.3332V56.3511ZM107.262 57.4275C103.944 52.9965 100.553 49.0139 97.1267 45.5157C105.54 47.0226 113.828 49.4803 121.704 52.7991C117.057 53.9473 112.214 55.508 107.245 57.4275H107.262ZM105.522 58.0913C100.822 59.9749 96.0324 62.2174 91.2066 64.7289C87.242 62.4326 83.2953 60.3158 79.3666 58.4501C83.2594 53.5167 86.0401 48.6551 87.4932 44.2061C89.7177 44.4034 91.9422 44.6905 94.1487 45.0313C97.9878 48.7627 101.791 53.14 105.522 58.0913ZM87.9955 42.466C88.2107 41.6049 88.3722 40.7797 88.4798 39.9544C89.628 40.8873 90.7761 41.856 91.9242 42.8965C90.6146 42.7351 89.3051 42.5736 87.9955 42.448V42.466ZM86.1836 42.3225C73.5004 41.3178 60.8351 42.5019 49.0488 46.0898C58.5029 40.098 68.5849 35.936 78.8105 33.55C81.4296 34.9134 84.1026 36.6177 86.7935 38.6449C86.7218 39.8109 86.5424 41.0308 86.1836 42.3225ZM48.403 44.3855C54.4845 38.1246 61.2477 33.2989 68.4235 30.016C70.9529 30.3927 73.5721 31.182 76.263 32.3481C66.7013 34.8058 57.2651 38.8243 48.403 44.4034V44.3855ZM81.4476 32.976C82.7751 32.7069 84.1026 32.4737 85.4301 32.2584C86.1656 33.4783 86.5962 34.8776 86.7577 36.4024C84.9816 35.1108 83.2056 33.9806 81.4476 32.976ZM68.0826 28.1682C67.9391 28.1503 67.7956 28.1323 67.6521 28.1144C67.9571 28.0606 68.2441 28.0067 68.5491 27.9529C68.3876 28.0247 68.2441 28.0964 68.0826 28.1682ZM61.5706 30.016C62.629 29.8366 63.7233 29.7648 64.8176 29.7469C57.8212 33.4065 51.2733 38.5013 45.3712 44.9416C48.2954 37.8735 52.6008 33.1374 58.0006 31.0026C58.2159 30.9129 58.4491 30.8232 58.6644 30.7515C59.5972 30.4286 60.566 30.1774 61.5527 29.998L61.5706 30.016ZM16.2554 65.877C16.0043 66.164 15.7352 66.4331 15.484 66.7202C15.789 66.1461 16.076 65.59 16.4169 65.0159C16.3631 65.303 16.3092 65.59 16.2554 65.877ZM5.00736 125.508C4.98942 125.077 4.98942 124.647 4.97148 124.234C4.97148 123.768 4.97148 123.319 4.95354 122.853C5.63524 124.826 6.42458 126.782 7.30361 128.719C6.46046 127.984 5.707 127.158 5.06118 126.261C5.06118 126.01 5.0253 125.759 5.00736 125.508ZM26.0504 173.622C26.3015 173.729 26.5706 173.855 26.8397 173.962C27.2882 174.16 27.7726 174.339 28.239 174.501C28.5081 174.59 28.7772 174.68 29.0463 174.77C29.5665 174.931 30.1047 175.093 30.6608 175.236C30.912 175.308 31.1452 175.38 31.3964 175.434C32.2036 175.631 33.0289 175.792 33.89 175.936C35.0919 176.133 36.3477 176.277 37.6214 176.366C38.0699 176.402 38.5542 176.402 39.0206 176.42C39.1283 176.42 39.2359 176.42 39.3436 176.42C42.3574 180.457 45.6044 184.062 49.0668 187.256C49.3179 188.081 49.6588 188.87 50.0176 189.642C48.995 189.229 47.9725 188.798 46.9678 188.35C46.7526 188.26 46.5373 188.171 46.322 188.063C44.8689 187.381 43.4338 186.646 42.0345 185.856C42.0345 185.856 42.0165 185.856 41.9986 185.838C41.6757 185.659 41.3528 185.48 41.0299 185.282C39.8279 184.601 38.6619 183.883 37.4958 183.13C37.2267 182.95 36.9576 182.789 36.6885 182.609C35.3969 181.748 34.159 180.833 32.9212 179.9C32.5983 179.649 32.2933 179.416 31.9704 179.165C30.8761 178.304 29.7997 177.389 28.7593 176.456C28.4543 176.169 28.1314 175.9 27.8264 175.613C27.0909 174.931 26.3912 174.214 25.6737 173.496C25.7813 173.55 25.8889 173.586 25.9966 173.64L26.0504 173.622ZM112.878 198.683C113.003 198.683 113.111 198.719 113.236 198.737C112.949 198.791 112.662 198.845 112.375 198.898C112.537 198.827 112.716 198.755 112.878 198.683ZM143.518 184.098C143.518 184.098 143.446 183.991 143.411 183.937C143.375 183.883 143.357 183.847 143.321 183.793C143.231 183.65 143.106 183.47 142.998 183.291C142.962 183.237 142.926 183.183 142.89 183.13C142.765 182.932 142.621 182.735 142.478 182.52C142.442 182.466 142.406 182.412 142.37 182.358C142.209 182.125 142.029 181.856 141.832 181.587C141.796 181.551 141.778 181.515 141.742 181.461C141.545 181.174 141.312 180.851 141.078 180.528C141.061 180.492 141.025 180.457 141.007 180.421C140.756 180.062 140.486 179.685 140.199 179.291C140.199 179.291 140.199 179.273 140.181 179.255C140.038 179.039 139.894 178.842 139.733 178.609C144.846 178.573 149.241 177.712 152.919 176.115C150.084 178.86 146.927 181.533 143.518 184.098ZM164.705 160.903C164.956 160.616 165.225 160.346 165.476 160.059C165.171 160.633 164.884 161.19 164.543 161.782C164.597 161.495 164.651 161.208 164.705 160.903ZM167.683 140.613C165.996 138.855 163.682 137.653 160.758 137.079C160.184 135.715 159.556 134.316 158.892 132.917C161.027 121.22 161.35 109.093 159.843 97.307C159.879 97.2173 159.933 97.1456 159.969 97.0559C160.166 96.6791 160.363 96.3024 160.561 95.9257C160.848 95.3696 161.117 94.8134 161.386 94.2573C161.529 93.9523 161.691 93.6474 161.834 93.3424C162.229 93.3962 162.66 93.4141 163.054 93.4859C165.978 93.9703 168.508 94.7955 170.661 95.9795C172.957 100.518 174.679 105.129 175.827 109.775C175.684 112.071 175.433 114.367 175.074 116.682C173.818 124.934 171.289 132.989 167.665 140.631L167.683 140.613ZM173.639 98.0425C174.482 98.7781 175.235 99.6033 175.899 100.518C175.953 101.666 176.007 102.814 176.007 103.963C175.325 101.971 174.518 99.9979 173.639 98.0425ZM161.924 61.0334C162.319 61.5715 162.66 62.1456 162.983 62.7376C163.108 62.9888 163.216 63.2399 163.341 63.4911C163.521 63.8499 163.7 64.1907 163.862 64.5674C163.987 64.8545 164.077 65.1594 164.167 65.4644C164.292 65.8053 164.418 66.1461 164.525 66.5049C164.615 66.8099 164.687 67.1507 164.759 67.4736C164.848 67.8324 164.938 68.1733 165.01 68.55C165.081 68.8909 165.117 69.2496 165.153 69.6084C165.207 69.9672 165.261 70.3081 165.297 70.6848C165.333 71.0615 165.333 71.4383 165.351 71.815C165.351 72.1738 165.404 72.5326 165.404 72.8914C165.404 73.286 165.386 73.6807 165.369 74.0754C165.369 74.4521 165.369 74.8109 165.333 75.1876C165.297 75.5823 165.243 76.0128 165.207 76.4075C165.171 76.8022 165.135 77.1789 165.081 77.5736C165.028 77.9862 164.938 78.4167 164.866 78.8293C164.794 79.224 164.741 79.6187 164.651 80.0313C164.561 80.4618 164.454 80.8924 164.346 81.3229C164.256 81.6817 164.185 82.0226 164.095 82.3813C160.686 77.9682 156.865 73.878 152.667 70.1107C150.048 63.7602 146.765 57.7325 142.854 52.1892C144.182 52.2789 145.474 52.4224 146.711 52.6197C153.08 53.6602 157.906 56.1538 161.081 60.0287C161.368 60.3875 161.637 60.7463 161.888 61.0513L161.924 61.0334ZM155.322 53.3194C152.901 52.1533 150.138 51.3281 147.034 50.8258C145.312 50.5387 143.464 50.4132 141.581 50.3414C138.567 46.305 135.32 42.6992 131.858 39.506C131.588 38.6628 131.266 37.8555 130.871 37.0662C139.984 40.7976 148.308 46.2153 155.322 53.3194ZM128.234 36.0436C128.377 36.2589 128.521 36.4921 128.664 36.7253C128.252 36.3845 127.821 36.0795 127.409 35.7566C127.696 35.8642 127.965 35.9539 128.252 36.0616L128.234 36.0436ZM130.333 40.5285C131.23 43.6141 131.301 47.1302 130.638 50.9514C128.664 51.2384 126.637 51.5972 124.574 52.0457C115.156 47.8478 105.128 44.8878 94.956 43.2912C92.8391 41.264 90.7223 39.4163 88.6054 37.7658C88.6413 35.5951 88.2287 33.6039 87.3317 31.8817C99.1538 30.2671 110.958 31.0206 121.937 34.0344C124.843 35.9181 127.66 38.0887 130.333 40.5285ZM5.43791 88.5525C6.60397 84.5162 8.23647 80.695 10.2816 77.0892C10.1022 79.9416 10.6583 82.5069 12.0038 84.6238C8.11089 92.6427 5.40203 101.146 4.09244 109.847C4.03863 110.223 4.00275 110.6 3.94893 110.977C2.8905 103.406 3.35692 95.8539 5.45585 88.5525H5.43791ZM122.906 30.895C126.709 32.2763 131.588 34.6264 135.015 36.7433C135.428 36.9944 135.858 37.2635 136.289 37.5326C131.947 35.4158 127.409 33.6936 122.726 32.384C120.484 30.9488 118.188 29.6751 115.82 28.5449C118.367 29.3163 120.914 30.1595 122.906 30.8771V30.895ZM2.01146 118.547C2.01146 117.919 1.97558 117.238 1.9397 116.52C1.86795 114.888 1.79619 113.058 1.88589 111.623C1.92176 111.013 1.95764 110.421 1.99352 109.829C2.28055 112.269 2.7111 114.726 3.32105 117.166C3.01607 121.956 3.15959 126.71 3.69777 131.356C2.90844 127.786 2.1191 122.62 2.01146 118.565V118.547ZM45.9453 190C45.6044 189.785 45.2457 189.57 44.8869 189.355C45.0663 189.444 45.2277 189.516 45.4071 189.588C45.5865 189.677 45.748 189.749 45.9274 189.839C46.1606 189.947 46.3938 190.054 46.627 190.162C47.5598 190.592 48.5106 190.987 49.4614 191.382C49.6408 191.453 49.8202 191.525 49.9996 191.597C50.0893 191.633 50.1611 191.669 50.2508 191.705C50.3046 191.723 50.3764 191.758 50.4302 191.776C51.5245 192.207 52.6188 192.602 53.7131 192.978C53.9104 193.05 54.1078 193.122 54.3051 193.176C54.5204 193.247 54.7356 193.319 54.9509 193.373C56.0452 193.732 57.1575 194.073 58.2697 194.378C60.5122 195.813 62.8084 197.069 65.1585 198.199C62.6111 197.427 60.0637 196.584 58.0724 195.849C54.2692 194.467 49.4076 192.117 45.9632 190H45.9453Z" fill="black"/>
<path d="M163.506 0.707283L169.368 15.3622L184.012 21.2134L169.368 27.0646L163.506 41.7195L157.655 27.0753L143 21.2134L157.655 15.3514L163.506 0.707283Z" fill="black"/>
<mask id="path-3-inside-1_80_6" fill="white">
<path d="M69.7262 127.615C68.4476 126.837 67.317 125.868 66.3672 124.728C64.1864 122.125 62.9144 118.623 62.6799 114.588L62.6599 114.257L62.3611 114.207C60.3256 113.878 58.4645 113.205 56.8336 112.213C55.5549 111.435 54.4243 110.466 53.468 109.321C51.2872 106.719 50.0152 103.216 49.7836 99.1933L49.7636 98.8623L49.4648 98.8118C47.4294 98.483 45.5682 97.8102 43.9373 96.8179C42.6586 96.0399 41.5281 95.0707 40.5782 93.9302C38.3975 91.328 37.1254 87.8253 36.8873 83.7983L36.8673 83.4672L36.5685 83.4168C34.5331 83.0879 32.672 82.4151 31.041 81.4228C29.7623 80.6448 28.6318 79.6756 27.682 78.5351C25.3324 75.7271 24.0461 71.9156 23.9642 67.496C23.8906 63.6159 24.7073 59.2928 26.3959 54.647C28.0126 50.2105 30.3633 45.6393 33.3754 41.0766C36.3876 36.5139 39.9471 32.1343 43.9727 28.0476L49.1088 34.1825C45.4628 37.8907 42.2445 41.8497 39.5315 45.9567C36.8861 49.9642 34.8441 53.9262 33.4608 57.717C32.1676 61.2625 31.5157 64.5699 31.5693 67.2938C31.6129 69.6834 32.1952 71.5662 33.2986 72.8752C33.7101 73.36 34.2044 73.7826 34.7654 74.124C35.5157 74.5804 36.4082 74.9077 37.4197 75.1012L37.7547 75.1644L37.8428 74.8053C38.2227 73.2642 38.7121 71.6584 39.3024 70.0389C40.9227 65.5952 43.2697 61.0312 46.2819 56.4685C49.3615 51.8062 53.0154 47.3246 57.1477 43.1621C61.2837 38.9925 65.6548 35.3692 70.1466 32.4007C74.5425 29.4864 78.8922 27.3035 83.0562 25.9079C85.3529 25.1485 87.6996 25.3853 89.6633 26.5801C90.3939 27.0246 91.0462 27.5903 91.6106 28.2619C93.7117 30.7686 94.2518 34.4356 93.0255 37.8154C92.4686 39.3521 91.8139 40.9136 91.0859 42.468L90.618 43.4587L91.5575 43.0363C93.0281 42.3744 94.5023 41.7897 95.9488 41.3101C98.2391 40.5468 100.586 40.7836 102.549 41.9784C103.28 42.4229 103.932 42.9885 104.503 43.6641C106.604 46.1709 107.144 49.8378 105.918 53.2177C105.361 54.7544 104.703 56.323 103.979 57.8703L103.511 58.8609L104.45 58.4386C105.931 57.7735 107.405 57.1888 108.842 56.7124C111.132 55.949 113.478 56.1859 115.442 57.3806C116.173 57.8252 116.825 58.3908 117.389 59.0624C119.497 61.5731 120.037 65.2401 118.804 68.616C117.188 73.0524 114.84 77.6165 111.825 82.1864C108.749 86.8414 105.095 91.3231 100.959 95.4927C96.8266 99.6552 92.4554 103.278 87.9666 106.258C83.5641 109.168 79.221 111.355 75.0606 112.744C73.5393 113.253 72.0392 113.653 70.6073 113.935L70.2671 114L70.2987 114.376C70.4595 116.349 71.0239 117.93 71.9802 119.075C72.3917 119.56 72.886 119.982 73.447 120.324C74.393 120.899 75.5545 121.268 76.9019 121.422C79.3667 121.712 82.4262 121.267 85.753 120.159C89.3171 118.97 93.0806 117.068 96.9439 114.515C100.9 111.895 104.769 108.707 108.44 105.033L113.576 111.168C109.525 115.221 105.245 118.749 100.856 121.649C96.4604 124.564 92.1107 126.746 87.9467 128.142C85.1109 129.089 82.4111 129.65 79.9183 129.803C78.5846 129.892 77.2958 129.858 76.0848 129.721C73.7229 129.447 71.5891 128.739 69.7364 127.612L69.7262 127.615ZM66.5454 95.6257C65.0712 96.2947 63.5905 96.8755 62.1541 97.3519C60.6329 97.861 59.1327 98.2612 57.7009 98.5434L57.3607 98.6084L57.3923 98.9839C57.5531 100.957 58.1174 102.538 59.0709 103.672C59.4788 104.164 59.973 104.586 60.5406 104.932C61.2908 105.388 62.1833 105.715 63.1949 105.909L63.5299 105.972L63.6179 105.613C63.9942 104.079 64.4836 102.473 65.0775 100.847C65.6307 99.3171 66.2891 97.7484 67.0171 96.194L67.485 95.2033L66.5454 95.6257ZM111.366 64.6155C111.261 64.6363 111.161 64.65 111.025 64.6988C107.457 65.8945 103.687 67.7925 99.8305 70.3502C95.7713 73.038 91.8116 76.3209 88.0553 80.112C84.299 83.9031 80.9798 87.9601 78.1993 92.1667C75.5539 96.1742 73.5119 100.136 72.1286 103.927L71.6953 105.136L72.4164 104.908C72.5586 104.864 72.7008 104.819 72.843 104.774C76.4071 103.586 80.1705 101.684 84.0338 99.1298C88.093 96.4421 92.0527 93.1592 95.809 89.3681C99.569 85.5699 102.888 81.5129 105.665 77.3134C108.31 73.3059 110.352 69.3439 111.736 65.5532C111.811 65.3549 111.845 65.1694 111.848 65.0119L111.848 64.4214L111.362 64.6227L111.366 64.6155ZM53.6492 80.2306C52.1749 80.8997 50.6942 81.4804 49.2578 81.9568C47.73 82.462 46.2364 82.8661 44.8046 83.1483L44.4644 83.2133L44.496 83.5888C44.6568 85.5621 45.2211 87.1433 46.1775 88.2878C46.5854 88.7798 47.0833 89.1952 47.6443 89.5366C48.3945 89.993 49.287 90.3204 50.2986 90.5138L50.6336 90.577L50.7217 90.218C51.1015 88.6768 51.591 87.071 52.1812 85.4515C52.7344 83.922 53.3892 82.3605 54.1208 80.7989L54.5887 79.8083L53.6492 80.2306ZM98.4696 49.2204C98.3652 49.2413 98.2607 49.2621 98.1287 49.3037C94.5646 50.4923 90.8012 52.3942 86.9379 54.948C82.8786 57.6358 78.919 60.9187 75.1627 64.7097C71.4063 68.5008 68.0871 72.5578 65.3067 76.7644C62.6612 80.7719 60.6164 84.7228 59.2359 88.5247L58.8056 89.7444L59.9503 89.3719C63.518 88.1761 67.288 86.2782 71.1448 83.7204C75.204 81.0326 79.1637 77.7498 82.92 73.9587C86.6763 70.1676 89.9955 66.1106 92.776 61.904C95.4214 57.8965 97.4634 53.9345 98.8467 50.1437C98.9216 49.9455 98.9558 49.76 98.9589 49.6025L98.9594 49.012L98.4733 49.2132L98.4696 49.2204ZM85.5734 33.8253C85.4689 33.8462 85.3645 33.867 85.2324 33.9086C81.6683 35.0972 77.9049 36.9991 74.0416 39.5529C69.986 42.2335 66.0263 45.5164 62.2664 49.3146C58.5101 53.1057 55.1909 57.1627 52.4169 61.3733C49.7715 65.3808 47.7295 69.3428 46.3462 73.1336L45.9129 74.3422L46.634 74.1151C46.7762 74.0703 46.9184 74.0256 47.0605 73.9808C50.6246 72.7922 54.3881 70.8903 58.2449 68.3325C62.3041 65.6447 66.2638 62.3618 70.0201 58.5708C73.7764 54.7797 77.0956 50.7227 79.8695 46.5121C82.5113 42.5118 84.5533 38.5498 85.9403 34.7519C86.0151 34.5536 86.0494 34.3681 86.0524 34.2106L86.05 33.609L85.5603 33.8174L85.5734 33.8253Z"/>
</mask>
<path d="M69.7262 127.615C68.4476 126.837 67.317 125.868 66.3672 124.728C64.1864 122.125 62.9144 118.623 62.6799 114.588L62.6599 114.257L62.3611 114.207C60.3256 113.878 58.4645 113.205 56.8336 112.213C55.5549 111.435 54.4243 110.466 53.468 109.321C51.2872 106.719 50.0152 103.216 49.7836 99.1933L49.7636 98.8623L49.4648 98.8118C47.4294 98.483 45.5682 97.8102 43.9373 96.8179C42.6586 96.0399 41.5281 95.0707 40.5782 93.9302C38.3975 91.328 37.1254 87.8253 36.8873 83.7983L36.8673 83.4672L36.5685 83.4168C34.5331 83.0879 32.672 82.4151 31.041 81.4228C29.7623 80.6448 28.6318 79.6756 27.682 78.5351C25.3324 75.7271 24.0461 71.9156 23.9642 67.496C23.8906 63.6159 24.7073 59.2928 26.3959 54.647C28.0126 50.2105 30.3633 45.6393 33.3754 41.0766C36.3876 36.5139 39.9471 32.1343 43.9727 28.0476L49.1088 34.1825C45.4628 37.8907 42.2445 41.8497 39.5315 45.9567C36.8861 49.9642 34.8441 53.9262 33.4608 57.717C32.1676 61.2625 31.5157 64.5699 31.5693 67.2938C31.6129 69.6834 32.1952 71.5662 33.2986 72.8752C33.7101 73.36 34.2044 73.7826 34.7654 74.124C35.5157 74.5804 36.4082 74.9077 37.4197 75.1012L37.7547 75.1644L37.8428 74.8053C38.2227 73.2642 38.7121 71.6584 39.3024 70.0389C40.9227 65.5952 43.2697 61.0312 46.2819 56.4685C49.3615 51.8062 53.0154 47.3246 57.1477 43.1621C61.2837 38.9925 65.6548 35.3692 70.1466 32.4007C74.5425 29.4864 78.8922 27.3035 83.0562 25.9079C85.3529 25.1485 87.6996 25.3853 89.6633 26.5801C90.3939 27.0246 91.0462 27.5903 91.6106 28.2619C93.7117 30.7686 94.2518 34.4356 93.0255 37.8154C92.4686 39.3521 91.8139 40.9136 91.0859 42.468L90.618 43.4587L91.5575 43.0363C93.0281 42.3744 94.5023 41.7897 95.9488 41.3101C98.2391 40.5468 100.586 40.7836 102.549 41.9784C103.28 42.4229 103.932 42.9885 104.503 43.6641C106.604 46.1709 107.144 49.8378 105.918 53.2177C105.361 54.7544 104.703 56.323 103.979 57.8703L103.511 58.8609L104.45 58.4386C105.931 57.7735 107.405 57.1888 108.842 56.7124C111.132 55.949 113.478 56.1859 115.442 57.3806C116.173 57.8252 116.825 58.3908 117.389 59.0624C119.497 61.5731 120.037 65.2401 118.804 68.616C117.188 73.0524 114.84 77.6165 111.825 82.1864C108.749 86.8414 105.095 91.3231 100.959 95.4927C96.8266 99.6552 92.4554 103.278 87.9666 106.258C83.5641 109.168 79.221 111.355 75.0606 112.744C73.5393 113.253 72.0392 113.653 70.6073 113.935L70.2671 114L70.2987 114.376C70.4595 116.349 71.0239 117.93 71.9802 119.075C72.3917 119.56 72.886 119.982 73.447 120.324C74.393 120.899 75.5545 121.268 76.9019 121.422C79.3667 121.712 82.4262 121.267 85.753 120.159C89.3171 118.97 93.0806 117.068 96.9439 114.515C100.9 111.895 104.769 108.707 108.44 105.033L113.576 111.168C109.525 115.221 105.245 118.749 100.856 121.649C96.4604 124.564 92.1107 126.746 87.9467 128.142C85.1109 129.089 82.4111 129.65 79.9183 129.803C78.5846 129.892 77.2958 129.858 76.0848 129.721C73.7229 129.447 71.5891 128.739 69.7364 127.612L69.7262 127.615ZM66.5454 95.6257C65.0712 96.2947 63.5905 96.8755 62.1541 97.3519C60.6329 97.861 59.1327 98.2612 57.7009 98.5434L57.3607 98.6084L57.3923 98.9839C57.5531 100.957 58.1174 102.538 59.0709 103.672C59.4788 104.164 59.973 104.586 60.5406 104.932C61.2908 105.388 62.1833 105.715 63.1949 105.909L63.5299 105.972L63.6179 105.613C63.9942 104.079 64.4836 102.473 65.0775 100.847C65.6307 99.3171 66.2891 97.7484 67.0171 96.194L67.485 95.2033L66.5454 95.6257ZM111.366 64.6155C111.261 64.6363 111.161 64.65 111.025 64.6988C107.457 65.8945 103.687 67.7925 99.8305 70.3502C95.7713 73.038 91.8116 76.3209 88.0553 80.112C84.299 83.9031 80.9798 87.9601 78.1993 92.1667C75.5539 96.1742 73.5119 100.136 72.1286 103.927L71.6953 105.136L72.4164 104.908C72.5586 104.864 72.7008 104.819 72.843 104.774C76.4071 103.586 80.1705 101.684 84.0338 99.1298C88.093 96.4421 92.0527 93.1592 95.809 89.3681C99.569 85.5699 102.888 81.5129 105.665 77.3134C108.31 73.3059 110.352 69.3439 111.736 65.5532C111.811 65.3549 111.845 65.1694 111.848 65.0119L111.848 64.4214L111.362 64.6227L111.366 64.6155ZM53.6492 80.2306C52.1749 80.8997 50.6942 81.4804 49.2578 81.9568C47.73 82.462 46.2364 82.8661 44.8046 83.1483L44.4644 83.2133L44.496 83.5888C44.6568 85.5621 45.2211 87.1433 46.1775 88.2878C46.5854 88.7798 47.0833 89.1952 47.6443 89.5366C48.3945 89.993 49.287 90.3204 50.2986 90.5138L50.6336 90.577L50.7217 90.218C51.1015 88.6768 51.591 87.071 52.1812 85.4515C52.7344 83.922 53.3892 82.3605 54.1208 80.7989L54.5887 79.8083L53.6492 80.2306ZM98.4696 49.2204C98.3652 49.2413 98.2607 49.2621 98.1287 49.3037C94.5646 50.4923 90.8012 52.3942 86.9379 54.948C82.8786 57.6358 78.919 60.9187 75.1627 64.7097C71.4063 68.5008 68.0871 72.5578 65.3067 76.7644C62.6612 80.7719 60.6164 84.7228 59.2359 88.5247L58.8056 89.7444L59.9503 89.3719C63.518 88.1761 67.288 86.2782 71.1448 83.7204C75.204 81.0326 79.1637 77.7498 82.92 73.9587C86.6763 70.1676 89.9955 66.1106 92.776 61.904C95.4214 57.8965 97.4634 53.9345 98.8467 50.1437C98.9216 49.9455 98.9558 49.76 98.9589 49.6025L98.9594 49.012L98.4733 49.2132L98.4696 49.2204ZM85.5734 33.8253C85.4689 33.8462 85.3645 33.867 85.2324 33.9086C81.6683 35.0972 77.9049 36.9991 74.0416 39.5529C69.986 42.2335 66.0263 45.5164 62.2664 49.3146C58.5101 53.1057 55.1909 57.1627 52.4169 61.3733C49.7715 65.3808 47.7295 69.3428 46.3462 73.1336L45.9129 74.3422L46.634 74.1151C46.7762 74.0703 46.9184 74.0256 47.0605 73.9808C50.6246 72.7922 54.3881 70.8903 58.2449 68.3325C62.3041 65.6447 66.2638 62.3618 70.0201 58.5708C73.7764 54.7797 77.0956 50.7227 79.8695 46.5121C82.5113 42.5118 84.5533 38.5498 85.9403 34.7519C86.0151 34.5536 86.0494 34.3681 86.0524 34.2106L86.05 33.609L85.5603 33.8174L85.5734 33.8253Z" fill="#FF5600" stroke="black" stroke-width="2.4" stroke-linejoin="round" mask="url(#path-3-inside-1_80_6)"/>
</svg>
