<svg width="185" height="205" viewBox="0 0 185 205" fill="none" xmlns="http://www.w3.org/2000/svg">
<path d="M180.115 137.343C179.702 134.025 178.841 129.145 177.693 125.432C176.509 121.575 174.697 115.977 172.849 112.049C171.827 109.878 170.643 107.42 169.566 105.555C168.705 104.03 167.593 102.254 166.499 100.532C165.996 99.7422 165.494 98.9529 164.956 98.1815C164.741 97.8765 164.525 97.5357 164.328 97.2486C164.041 96.836 163.736 96.4234 163.431 96.0108C163.431 96.0108 163.431 95.9929 163.413 95.9749C163.413 95.9749 163.413 95.9749 163.395 95.957C163.395 95.957 163.377 95.939 163.359 95.9211C163.162 95.6341 162.965 95.365 162.749 95.0959C162.606 94.9165 162.444 94.7371 162.301 94.5398C162.193 94.3962 162.086 94.2707 161.978 94.1272C160.92 92.7279 159.807 91.2568 158.749 90.1446C155.681 86.8796 151.555 82.7894 148.434 79.9908C144.738 76.6541 139.661 73.5147 135.948 71.2184C132.414 69.0298 127.426 66.6259 123.498 65.2087C120.269 64.0426 115.748 62.6075 111.963 61.567C109.989 61.0288 107.388 60.5265 105.594 60.2574L105.235 60.2036C103.154 59.8807 100.553 59.486 98.508 59.3425C97.8622 59.3066 97.1805 59.2707 96.4809 59.2348C95.261 59.1272 94.0231 59.0554 92.7853 59.0196C91.6013 58.9837 90.3994 59.0016 89.2154 59.0375C88.3722 59.0375 87.5649 59.0375 86.8474 59.0554C84.8022 59.0913 81.9857 59.3425 78.2543 59.8089C76.5501 60.0242 73.8412 60.4368 71.7423 60.9391C69.0872 61.567 65.7146 62.3922 63.1851 63.1815C58.4312 64.6705 54.933 66.2312 54.933 66.2312C51.2733 67.8637 49.4256 68.6889 45.443 70.9493C41.1734 73.3712 37.2088 76.2953 37.0114 76.4388C33.3876 79.1477 32.0242 80.3496 29.3154 82.7535C28.0417 83.8837 25.0996 86.8437 24.4 87.6151C24.1847 87.8483 24.0053 88.0636 23.808 88.2789C21.0632 91.1851 18.6952 94.1092 16.7398 96.9975C15.484 98.7197 14.7306 99.9575 12.3267 103.85C10.5327 106.774 8.73877 110.703 7.53683 113.304C6.60397 115.314 5.58142 118.184 4.97148 119.906C4.23596 121.951 2.40613 127.459 1.22212 134.742C0.719818 137.774 0.325149 142.061 0.038117 147.515C-0.0515805 149.04 0.038117 150.924 0.0919355 152.592C0.127814 153.292 0.145754 153.973 0.163693 154.601C0.253391 158.44 0.970971 163.786 1.99352 168.253C2.87256 172.074 4.30772 176.846 5.36615 180.039C6.01197 181.977 7.0704 184.381 7.91356 186.318L8.07501 186.695C8.95405 188.704 10.2816 191.323 11.3579 193.207C12.219 194.714 13.3133 196.49 14.4077 198.212C14.7306 198.714 15.0355 199.235 15.3584 199.737C15.5558 200.042 15.789 200.329 15.9863 200.634C16.1837 200.921 16.381 201.244 16.5783 201.513C16.8833 201.944 17.1883 202.374 17.5112 202.787C17.5112 202.805 17.5471 202.823 17.565 202.858C17.7623 203.128 17.9597 203.415 18.1749 203.684C18.2646 203.809 18.3723 203.917 18.462 204.025C18.7131 204.329 18.9463 204.652 19.1796 204.975C20.1662 206.285 21.1888 207.594 22.1575 208.635C25.2252 211.918 29.3692 215.99 32.4727 218.789C36.1683 222.125 41.2451 225.265 44.9586 227.561C48.4927 229.75 53.4978 232.154 57.4086 233.571C60.6557 234.737 65.1764 236.172 68.9437 237.213C70.4148 237.625 72.4957 238.056 75.2943 238.522C78.362 239.042 83.1159 239.688 88.2825 239.76C88.6054 239.76 88.8745 239.76 89.1615 239.76C89.2512 239.76 89.3409 239.76 89.4306 239.76C89.4306 239.76 89.4306 239.76 89.4486 239.76C89.8432 239.76 90.2559 239.76 90.6146 239.76C95.6377 239.76 98.2748 239.455 102.616 238.935C103.495 238.827 108.895 238.038 113.505 236.764C115.694 236.154 120.825 234.737 125.938 232.512C129.597 230.916 133.042 229.319 138.316 226.054C143.59 222.789 147.555 219.47 149.062 218.197C152.631 215.201 155.466 212.241 157.296 210.232C160.076 207.254 162.48 204.24 164.454 201.298C165.117 200.365 165.745 199.45 166.266 198.625L166.714 197.907C167.45 196.741 168.293 195.414 168.885 194.301C169.746 192.705 171.899 188.632 173.334 185.439C174.302 183.269 175.361 180.38 175.899 178.837C176.24 177.869 176.599 176.685 176.94 175.555C177.029 175.268 177.137 174.998 177.209 174.711C177.244 174.568 177.28 174.442 177.316 174.299L177.603 173.366C178.411 170.747 179.236 166.979 179.666 164.001C180.007 161.598 180.94 155.175 180.868 150.834C180.761 145.129 180.492 140.59 180.079 137.343H180.115ZM178.339 137.559C178.733 140.698 179.003 145.291 179.11 150.852C179.11 151.623 179.11 152.466 179.056 153.327C178.769 150.744 178.303 148.161 177.675 145.578C177.98 140.698 177.836 135.854 177.262 131.118C177.747 133.468 178.124 135.801 178.339 137.559ZM175.504 174.299C175.433 174.55 175.343 174.819 175.271 175.088C174.141 178.784 172.616 182.336 170.715 185.672C170.894 182.82 170.338 180.273 168.992 178.156C172.885 170.137 175.576 161.633 176.904 152.933C176.957 152.556 176.993 152.179 177.047 151.803C178.088 159.23 177.639 166.639 175.648 173.796L175.486 174.317L175.504 174.299ZM88.1928 237.948C79.9227 237.751 71.9396 235.652 64.4947 231.867C65.4635 232.064 66.4322 232.225 67.4009 232.387C67.4727 232.387 67.5444 232.405 67.6162 232.423C67.8135 232.459 68.0288 232.477 68.2262 232.512C69.3384 232.674 70.4506 232.817 71.5629 232.943C71.7782 232.961 71.9755 232.997 72.1908 233.015C72.3343 233.015 72.4599 233.033 72.6034 233.051C73.913 233.176 75.2226 233.284 76.5321 233.356C76.6218 233.356 76.7115 233.356 76.8012 233.374C76.9986 233.374 77.1959 233.374 77.3932 233.374C78.5593 233.427 79.7433 233.463 80.9273 233.463C81.1067 233.463 81.2861 233.463 81.4834 233.463C81.5911 233.463 81.6987 233.463 81.8064 233.463C82.6854 233.463 83.5824 233.445 84.4614 233.409C84.6767 233.409 84.874 233.409 85.0713 233.409H85.161C86.2553 233.356 87.3676 233.302 88.4619 233.212C88.5337 233.212 88.6054 233.212 88.6951 233.212C88.9642 233.194 89.2512 233.158 89.5203 233.14C90.2917 233.069 91.0631 232.997 91.8345 232.907C91.996 232.889 92.1574 232.871 92.3189 232.853C92.6059 232.817 92.893 232.782 93.1621 232.746C93.7002 232.674 94.2205 232.62 94.7587 232.53C96.3194 234.504 98.5798 235.849 101.486 236.585C97.1626 237.571 92.7315 238.038 88.2646 237.948C88.2466 237.948 88.2287 237.948 88.2107 237.948H88.1928ZM96.3732 61.0288C103.388 61.6567 110.169 63.6659 116.555 66.9309C106.796 64.9934 96.5347 64.7423 86.2553 66.2312C84.6767 64.24 82.3983 62.8765 79.4563 62.159C82.811 61.4055 86.2195 60.957 89.6818 60.8314C91.8166 60.8314 94.1846 60.9032 96.3912 61.0108L96.3732 61.0288ZM168.149 189.763C167.198 191.144 166.158 192.489 165.081 193.781C165.207 191.377 165.064 188.83 164.633 186.139C165.835 184.165 166.947 182.156 167.988 180.129C169.208 182.748 169.226 186.049 168.149 189.763ZM159.484 204.993C159.484 204.993 159.484 204.993 159.484 205.011C156.004 209.55 150.263 212.151 142.675 212.725C150.299 209.227 156.883 204.724 162.319 199.432C161.978 200.508 161.583 201.549 161.081 202.518C160.615 203.397 160.094 204.222 159.502 204.993H159.484ZM103.19 235.185C100.463 234.737 98.3466 233.732 96.8217 232.225C97.4137 232.118 98.0057 232.01 98.5977 231.902C98.9027 231.849 99.2077 231.795 99.5126 231.723C99.6741 231.687 99.8535 231.651 100.015 231.615C100.661 231.49 101.325 231.328 101.97 231.185C104.554 232.477 107.101 233.445 109.595 234.055C108.339 234.558 107.065 235.006 105.791 235.401C104.894 235.365 104.015 235.311 103.172 235.167L103.19 235.185ZM13.6004 193.153C13.403 192.794 13.2057 192.436 13.0263 192.077C12.6675 191.395 12.3446 190.713 12.0038 190.014C11.8423 189.691 11.6809 189.368 11.5373 189.027C11.1068 188.094 10.6942 187.143 10.3174 186.193C10.2816 186.103 10.2457 186.031 10.2098 185.941C9.7972 184.901 9.40254 183.861 9.04375 182.802C8.91817 182.461 8.81053 182.102 8.7029 181.762C8.46968 181.044 8.23647 180.326 8.02119 179.591C7.89562 179.178 7.78798 178.766 7.6624 178.335C7.48301 177.653 7.30361 176.99 7.12422 176.308C7.01658 175.877 6.90895 175.447 6.81925 175.016C6.65779 174.317 6.51428 173.617 6.37076 172.917C6.28106 172.505 6.2093 172.092 6.11961 171.662C5.97609 170.854 5.85051 170.047 5.72494 169.24C5.67112 168.917 5.6173 168.612 5.58142 168.289C5.43791 167.266 5.33027 166.244 5.24057 165.221C6.31694 166.298 7.51889 167.249 8.90023 168.056C10.7659 171.68 12.9725 175.25 15.5199 178.73C15.3943 179.178 15.2688 179.609 15.1611 180.039C15.1073 180.255 15.0535 180.47 14.9997 180.667C14.8382 181.313 14.6947 181.959 14.5691 182.605C14.5332 182.802 14.4794 182.999 14.4435 183.197C14.318 183.878 14.2103 184.56 14.1206 185.242C14.1206 185.367 14.0847 185.493 14.0668 185.619C13.7618 188.058 13.708 190.39 13.9233 192.579C13.9233 192.723 13.9592 192.866 13.9771 193.01C14.013 193.368 14.0489 193.727 14.1027 194.086C13.9233 193.763 13.7439 193.458 13.5645 193.135L13.6004 193.153ZM5.41997 149.632C5.54554 148.466 5.68906 147.282 5.86845 146.116C7.12422 137.864 9.65369 129.809 13.2775 122.167C14.9638 123.925 17.26 125.127 20.2021 125.701C20.7762 127.064 21.4041 128.463 22.0678 129.863C19.933 141.559 19.6101 153.668 21.117 165.455C21.0453 165.598 20.9735 165.742 20.9018 165.867C20.7762 166.118 20.6327 166.37 20.5071 166.621C20.1124 167.392 19.7357 168.146 19.3769 168.899C19.3051 169.042 19.2334 169.204 19.1616 169.347C19.1616 169.365 19.1437 169.383 19.1257 169.401C18.7311 169.347 18.3005 169.33 17.9238 169.258C14.9997 168.773 12.4702 167.948 10.3174 166.764C8.02119 162.225 6.299 157.615 5.15087 152.987C5.20469 152.251 5.25851 151.498 5.33027 150.744C5.36615 150.367 5.40203 149.973 5.43791 149.596L5.41997 149.632ZM12.8469 109.017C13.7977 107.636 14.8382 106.308 15.9146 104.998C15.789 107.402 15.9325 109.95 16.381 112.659C15.1791 114.614 14.0668 116.623 13.0263 118.65C11.8064 116.031 11.7885 112.73 12.8649 109.017H12.8469ZM38.3031 78.0175C41.9089 75.3804 45.6044 73.0482 49.282 71.057C46.3579 74.3578 44.0078 78.753 42.3215 84.1707C36.7782 84.081 32.0242 84.9063 28.1134 86.6105C31.1631 83.6684 34.5717 80.7622 38.3031 78.0354V78.0175ZM77.7879 63.5941C80.5326 64.0426 82.6316 65.0652 84.1744 66.5721C82.4522 66.8591 80.712 67.2 78.9898 67.5767C76.3886 66.2851 73.8233 65.3163 71.3297 64.6884C72.5675 64.2041 73.8233 63.7556 75.079 63.3609C76.0119 63.3968 76.9268 63.4506 77.7879 63.5941ZM140.702 88.0995C144.182 92.8534 147.142 98.0021 149.618 103.402C144.038 98.7914 137.903 94.755 131.391 91.3286C131.66 90.3957 131.893 89.4808 132.073 88.5838C135.087 88.2071 137.975 88.0457 140.702 88.0995ZM132.414 86.754C132.88 83.8658 132.952 81.1569 132.593 78.6454C134.943 80.9775 137.186 83.5249 139.32 86.2876C137.114 86.2876 134.8 86.4849 132.414 86.754ZM166.014 117.825C166.14 117.323 166.248 116.839 166.355 116.336C166.427 116.013 166.499 115.672 166.553 115.35C166.642 114.847 166.714 114.363 166.786 113.861C166.822 113.556 166.875 113.251 166.911 112.946C166.983 112.39 167.019 111.833 167.073 111.277C167.073 111.062 167.109 110.847 167.127 110.631C167.162 109.878 167.18 109.143 167.18 108.407C167.18 108.21 167.162 108.012 167.145 107.815C167.127 107.277 167.091 106.757 167.055 106.236C167.037 105.967 166.983 105.716 166.965 105.447C166.929 105.16 166.911 104.855 166.858 104.568C171.809 113.412 174.805 123.243 175.738 133.504C174.661 132.428 173.441 131.477 172.078 130.67C170.212 127.046 168.006 123.476 165.458 119.978C165.566 119.583 165.674 119.207 165.781 118.812C165.871 118.471 165.961 118.13 166.032 117.807L166.014 117.825ZM163.072 196.041C157.942 201.567 151.591 206.267 144.146 209.98C151.591 203.666 157.977 196.382 163.144 188.435C163.431 191.144 163.413 193.691 163.054 196.041H163.072ZM139.912 218.771C140.128 219.04 140.343 219.291 140.522 219.542C140.558 219.578 140.594 219.614 140.612 219.668C140.791 219.901 140.971 220.098 141.132 220.296C141.15 220.332 141.186 220.349 141.204 220.385C141.348 220.565 141.491 220.726 141.617 220.87C141.635 220.888 141.653 220.906 141.67 220.941C141.778 221.049 141.868 221.157 141.957 221.264C138.567 223.704 135.123 225.875 131.696 227.723C134.279 224.798 136.414 221.031 138.047 216.439C138.405 216.905 138.746 217.354 139.069 217.748C139.105 217.784 139.123 217.82 139.159 217.856C139.41 218.179 139.661 218.502 139.894 218.789L139.912 218.771ZM122.278 232.064C121.345 232.387 120.394 232.638 119.408 232.817C118.349 232.997 117.273 233.069 116.178 233.069C123.175 229.427 129.723 224.314 135.607 217.874C132.683 224.906 128.431 229.624 123.049 231.777C122.798 231.885 122.547 231.974 122.278 232.082V232.064ZM31.7552 209.658C31.4861 209.586 31.2349 209.514 30.9838 209.442C30.4814 209.299 29.9612 209.173 29.4948 209.012C29.2077 208.922 28.9386 208.814 28.6516 208.707C28.2211 208.545 27.7905 208.402 27.3779 208.222C27.0909 208.097 26.8397 207.971 26.5706 207.846C26.1939 207.666 25.7992 207.487 25.4404 207.29C25.1893 207.146 24.9381 207.002 24.687 206.841C24.3282 206.626 23.9873 206.428 23.6465 206.195C23.4133 206.034 23.1801 205.854 22.9648 205.693C22.6419 205.46 22.3369 205.209 22.0319 204.957C21.8167 204.778 21.6193 204.581 21.4041 204.383C21.117 204.114 20.8479 203.845 20.5788 203.576C20.3815 203.361 20.2021 203.163 20.0048 202.93C19.6639 202.536 19.341 202.141 19.036 201.728C19.036 201.728 19.0181 201.692 19.0002 201.692C15.1432 196.221 14.587 188.812 16.8115 180.344C20.2201 184.775 24.0412 188.902 28.2569 192.669C30.8761 199.019 34.1411 205.029 38.0519 210.554C36.7244 210.465 35.4328 210.321 34.1949 210.124C33.3518 209.98 32.5445 209.819 31.7731 209.64L31.7552 209.658ZM17.9059 102.702C23.0366 97.1769 29.4051 92.4767 36.85 88.7453C29.4051 95.06 23.0007 102.343 17.8341 110.309C17.5471 107.6 17.565 105.052 17.9238 102.702H17.9059ZM106.635 95.4906C110.725 101.07 114.492 107.097 117.919 113.394C117.004 114.614 116.071 115.852 115.084 117.09C107.962 111.385 100.517 106.2 93.0185 101.734C97.611 99.3655 102.168 97.2845 106.617 95.5085L106.635 95.4906ZM157.888 133.433C157.619 133.917 157.368 134.401 157.08 134.886C156.811 135.352 156.524 135.819 156.255 136.267C155.968 136.769 155.681 137.254 155.358 137.756C155.071 138.222 154.766 138.689 154.461 139.155C154.138 139.658 153.816 140.16 153.493 140.662C153.188 141.129 152.847 141.595 152.524 142.061C152.183 142.564 151.824 143.066 151.465 143.586C151.143 144.053 150.784 144.501 150.461 144.968C150.084 145.488 149.707 146.008 149.313 146.528C148.972 146.977 148.613 147.443 148.254 147.892C147.842 148.412 147.447 148.95 147.016 149.47C146.998 149.488 146.981 149.524 146.963 149.542C142.854 144.071 138.262 138.725 133.311 133.63C142.119 130.562 150.371 128.966 157.457 129.037C157.69 130.401 157.888 131.746 158.067 133.128C158.013 133.235 157.96 133.325 157.906 133.433H157.888ZM145.779 150.977C145.384 151.462 144.989 151.946 144.577 152.431C144.182 152.897 143.787 153.345 143.393 153.812C142.944 154.332 142.478 154.87 142.011 155.391C141.599 155.839 141.186 156.305 140.773 156.754C140.289 157.292 139.805 157.812 139.32 158.351C138.908 158.799 138.459 159.248 138.047 159.696C137.921 159.84 137.778 159.965 137.652 160.109C135.697 151.749 133.059 143.263 129.848 134.904C130.387 134.706 130.925 134.473 131.463 134.276C136.683 139.622 141.509 145.219 145.814 150.977H145.779ZM40.2764 210.644C36.7962 205.872 33.8182 200.724 31.3425 195.288C36.9397 199.898 43.075 203.971 49.605 207.415C49.3359 208.348 49.1026 209.263 48.9233 210.16C45.9094 210.537 43.0212 210.698 40.2944 210.644H40.2764ZM23.8618 171.518C23.8618 171.518 23.9335 171.518 23.9694 171.518C31.3605 171.518 39.9356 169.76 49.0668 166.513C50.8069 168.271 52.5829 169.993 54.3948 171.68C56.422 176.308 58.6285 180.847 60.9965 185.278C55.9197 192.346 52.2062 199.288 50.1252 205.693C42.7521 201.782 35.8633 197.046 29.7459 191.61C27.1268 185.188 25.1714 178.443 23.8797 171.536L23.8618 171.518ZM26.7321 188.83C23.3415 185.547 20.2201 182.031 17.4036 178.263C18.1032 176.021 18.9822 173.689 20.0407 171.321C20.6865 171.375 21.3502 171.411 22.0319 171.446C23.1263 177.384 24.687 183.215 26.7321 188.812V188.83ZM43.3261 87.1308C47.4343 92.9252 53.1749 100.908 59.8663 110.165C53.9284 114.435 47.7572 117.879 41.9089 120.301C40.4917 107.958 40.8684 96.5131 43.3261 87.1128V87.1308ZM40.2047 120.983C34.6793 123.099 29.4768 124.283 25.0278 124.355C28.0955 111.528 33.4235 99.3834 41.0119 89.0323C39.0027 98.2712 38.8054 109.232 40.1867 121.001L40.2047 120.983ZM60.9248 111.636C62.2344 113.448 63.5978 115.332 64.9791 117.233C64.423 117.646 63.8668 118.076 63.3107 118.489C62.934 118.776 62.5752 119.063 62.2164 119.35C61.445 119.942 60.6736 120.552 59.9202 121.162C59.4896 121.503 59.077 121.844 58.6644 122.185C57.9648 122.759 57.2831 123.315 56.6014 123.889C56.1887 124.248 55.7582 124.588 55.3456 124.947C54.6639 125.521 54.0001 126.095 53.3364 126.669C52.9417 127.01 52.547 127.369 52.1524 127.71C51.4527 128.32 50.789 128.948 50.1073 129.558C49.7664 129.863 49.4256 130.168 49.1026 130.491C48.2595 131.28 47.4343 132.069 46.6091 132.859C46.4655 133.002 46.3041 133.146 46.1606 133.289C45.5506 133.881 44.9586 134.491 44.3487 135.083C43.4158 130.706 42.6624 126.382 42.1242 122.149C48.2774 119.673 54.7177 116.085 60.9248 111.636ZM135.158 162.638C134.62 163.176 134.1 163.697 133.544 164.235C133.095 164.683 132.611 165.114 132.145 165.562C131.588 166.082 131.032 166.621 130.476 167.141C130.01 167.571 129.507 168.02 129.041 168.45C128.467 168.971 127.893 169.509 127.301 170.029C126.817 170.46 126.314 170.89 125.812 171.321C125.202 171.841 124.61 172.361 124 172.882C123.498 173.312 122.978 173.725 122.457 174.155C121.829 174.675 121.219 175.178 120.574 175.698C120.053 176.111 119.515 176.541 118.995 176.954C118.349 177.456 117.721 177.976 117.057 178.479C116.519 178.891 115.963 179.304 115.425 179.716C114.887 180.111 114.367 180.524 113.828 180.918C107.585 172.469 101.037 163.553 94.5075 154.655C94.6869 154.529 94.8484 154.404 95.0278 154.278C105.971 146.259 117.38 139.909 128.18 135.567C131.517 144.214 134.208 153.005 136.181 161.633C135.84 161.974 135.499 162.297 135.176 162.638H135.158ZM74.3435 203.271C70.2712 197.692 66.486 191.682 63.0596 185.385C63.9745 184.165 64.9073 182.928 65.894 181.69C73.016 187.395 80.4609 192.579 87.9417 197.046C83.3492 199.414 78.8105 201.495 74.3435 203.271ZM72.6213 203.935C67.0601 206.07 61.6603 207.72 56.5296 208.868C54.8612 208.115 53.2287 207.325 51.6142 206.5C53.5516 200.419 57.0498 193.781 61.8935 186.982C65.1764 192.938 68.7643 198.625 72.6213 203.935ZM62.1626 183.699C60.6019 180.757 59.1129 177.779 57.6957 174.747C59.9381 176.756 62.2344 178.712 64.5486 180.613C63.7233 181.654 62.9161 182.677 62.1447 183.717L62.1626 183.699ZM93.1621 196.311C94.1846 195.754 95.2072 195.18 96.2297 194.588C96.9473 194.176 97.6469 193.763 98.3645 193.351C99.3871 192.741 100.428 192.113 101.45 191.485C102.15 191.054 102.849 190.624 103.549 190.175C104.607 189.511 105.666 188.812 106.706 188.112C107.37 187.682 108.034 187.233 108.68 186.785C109.81 186.013 110.922 185.224 112.052 184.417C112.519 184.076 112.985 183.771 113.452 183.43C114.887 185.385 116.268 187.233 117.56 188.991C111.729 193.458 106.724 198.23 102.76 202.984C99.0641 201.244 95.3327 199.288 91.6013 197.154C92.1216 196.885 92.6239 196.58 93.1441 196.293L93.1621 196.311ZM118.654 190.462C126.332 200.831 131.571 207.882 135.194 212.671C125.884 211.918 115.353 208.743 104.482 203.791C108.321 199.253 113.111 194.696 118.636 190.462H118.654ZM133.777 214.34C121.668 218.412 108.518 219.793 95.3686 218.807C96.8217 214.591 99.5485 209.945 103.352 205.209C114.08 210.16 124.502 213.371 133.795 214.34H133.777ZM112.375 181.995C104.948 187.395 97.324 192.113 89.7894 196.113C82.0575 191.557 74.3615 186.246 67.0242 180.344C73.9668 171.949 82.793 163.517 93.0723 155.767C99.5844 164.665 106.132 173.545 112.375 182.013V181.995ZM65.6787 179.25C62.3241 176.505 59.0411 173.635 55.8479 170.675C55.0227 168.773 54.2333 166.836 53.4619 164.898C64.1718 160.593 75.4558 154.332 86.2912 146.493C88.1928 149.094 90.0944 151.695 92.0139 154.296C81.627 162.136 72.711 170.693 65.6787 179.232V179.25ZM52.6188 167.589C52.0447 167.033 51.4707 166.459 50.8966 165.885C51.2016 165.778 51.5065 165.652 51.8115 165.544C52.0806 166.226 52.3497 166.908 52.6188 167.589ZM52.7982 163.248C49.4435 154.601 46.7705 145.793 44.7972 137.164C51.0581 130.831 58.18 124.606 66.0375 118.722C72.0114 126.956 78.5414 135.908 85.2328 145.057C74.5229 152.825 63.3645 159.014 52.8161 163.248H52.7982ZM51.1477 163.894C50.6096 164.091 50.0714 164.324 49.5332 164.522C44.3128 159.176 39.4871 153.579 35.1816 147.82C37.6931 144.77 40.402 141.721 43.3261 138.689C45.2815 147.049 47.9186 155.552 51.1298 163.894H51.1477ZM34.0155 149.237C38.1237 154.727 42.7341 160.055 47.6675 165.168C38.8592 168.235 30.607 169.832 23.5209 169.76C23.2877 168.397 23.0904 167.033 22.911 165.67C25.8351 160.342 29.5486 154.816 34.0155 149.255V149.237ZM51.0939 208.222C51.9191 208.653 52.7623 209.083 53.6055 209.478C52.6188 209.658 51.6321 209.855 50.6634 209.998C50.789 209.406 50.9325 208.814 51.0939 208.222ZM61.158 209.604C62.037 209.37 62.934 209.101 63.831 208.832C64.5306 208.635 65.2123 208.438 65.9299 208.204C66.9166 207.899 67.9212 207.541 68.9258 207.2C69.5537 206.985 70.1815 206.787 70.8094 206.554C71.7602 206.213 72.729 205.818 73.6977 205.46C76.9986 209.891 80.3891 213.873 83.7976 217.371C75.384 215.865 67.1139 213.407 59.2385 210.088C59.8663 209.927 60.5122 209.765 61.14 209.604H61.158ZM75.4558 204.796C75.4558 204.796 75.5275 204.76 75.5634 204.76C75.9043 204.617 76.2272 204.473 76.568 204.347C77.9673 203.773 79.3486 203.181 80.7659 202.553C81.3758 202.284 81.9857 201.979 82.6136 201.692C83.7079 201.19 84.7843 200.688 85.8786 200.15C86.5603 199.809 87.242 199.468 87.9237 199.109C88.5516 198.804 89.1615 198.499 89.7715 198.176C93.7182 200.472 97.6828 202.589 101.612 204.455C97.7187 209.388 94.9381 214.25 93.5029 218.699C91.2784 218.502 89.0539 218.215 86.8474 217.874C83.0083 214.142 79.1872 209.765 75.4737 204.814L75.4558 204.796ZM93.0006 220.385C92.7853 221.246 92.6239 222.09 92.5162 222.915C91.3681 221.982 90.202 220.995 89.0539 219.937C90.3814 220.116 91.691 220.26 93.0185 220.385H93.0006ZM94.8125 220.547C97.7007 220.78 100.571 220.924 103.441 220.924C113.2 220.924 122.834 219.578 131.947 216.797C131.786 216.905 131.624 217.013 131.463 217.102C130.691 217.587 129.938 218.053 129.149 218.52C128.539 218.878 127.929 219.219 127.337 219.56C126.583 219.991 125.812 220.403 125.058 220.798C124.431 221.121 123.803 221.444 123.175 221.767C122.421 222.143 121.65 222.52 120.879 222.879C120.251 223.184 119.605 223.471 118.959 223.758C118.188 224.099 117.398 224.422 116.627 224.745C115.999 224.996 115.353 225.265 114.725 225.516C113.918 225.821 113.093 226.108 112.286 226.413C111.711 226.61 111.137 226.826 110.545 227.023C110.402 227.077 110.24 227.113 110.097 227.166C109.308 227.436 108.5 227.669 107.693 227.902C107.334 228.01 106.975 228.117 106.617 228.225C106.222 228.333 105.827 228.44 105.433 228.548C104.464 228.817 103.513 229.05 102.544 229.283C102.437 229.301 102.329 229.337 102.204 229.355C99.5844 227.992 96.9114 226.287 94.2025 224.242C94.2743 223.058 94.4537 221.838 94.8125 220.547ZM99.5126 229.911C98.5618 230.109 97.629 230.306 96.6782 230.467C96.3015 230.539 95.9247 230.593 95.548 230.647C94.7945 229.427 94.364 228.028 94.2205 226.467C95.9965 227.758 97.7546 228.907 99.5126 229.911ZM137.401 212.618C137.186 212.33 136.97 212.043 136.737 211.738C136.558 211.505 136.378 211.272 136.199 211.039C136.055 210.859 135.93 210.68 135.768 210.483C135.571 210.214 135.356 209.945 135.158 209.658C135.015 209.478 134.871 209.281 134.728 209.101C134.584 208.904 134.423 208.689 134.261 208.491C134.046 208.204 133.831 207.917 133.598 207.612C133.382 207.325 133.149 207.02 132.934 206.715C132.772 206.5 132.629 206.303 132.467 206.105C129.167 201.692 125.041 196.167 120.035 189.422C120.143 189.35 120.233 189.26 120.34 189.189C126.512 184.668 132.934 181.044 139.033 178.532C140.504 191.287 140.056 203.074 137.365 212.635L137.401 212.618ZM140.756 177.851C146.281 175.734 151.483 174.55 155.932 174.496C152.865 187.323 147.537 199.468 139.948 209.819C141.958 200.58 142.155 189.619 140.773 177.851H140.756ZM119.838 188.453L119.3 187.735C119.192 187.807 119.085 187.897 118.977 187.969C117.667 186.211 116.304 184.363 114.869 182.425C115.604 181.869 116.34 181.331 117.057 180.775C117.362 180.542 117.667 180.326 117.954 180.093C119.085 179.232 120.179 178.353 121.273 177.474C121.632 177.187 121.991 176.882 122.35 176.595C123.085 175.985 123.821 175.393 124.556 174.783C124.987 174.424 125.417 174.048 125.83 173.689C126.476 173.151 127.104 172.595 127.731 172.038C128.18 171.644 128.611 171.267 129.041 170.872C129.651 170.334 130.243 169.796 130.835 169.258C131.266 168.863 131.678 168.486 132.109 168.092C132.701 167.536 133.293 166.962 133.885 166.405C134.261 166.029 134.656 165.67 135.033 165.293C135.553 164.773 136.073 164.253 136.594 163.75C137.526 168.146 138.28 172.469 138.818 176.703C132.432 179.286 125.704 183.035 119.282 187.735L119.802 188.453H119.838ZM129.167 133.325C128.898 132.643 128.628 131.962 128.359 131.28C128.933 131.836 129.507 132.41 130.082 132.984C129.777 133.092 129.472 133.217 129.167 133.343V133.325ZM127.516 133.971C116.555 138.366 105.002 144.788 93.9514 152.897C93.772 153.023 93.6105 153.148 93.4491 153.274C91.5475 150.672 89.628 148.071 87.7443 145.488C98.6695 137.397 107.998 128.517 115.299 119.637C118.654 122.382 121.937 125.252 125.13 128.212C125.955 130.132 126.763 132.051 127.516 133.989V133.971ZM116.43 118.256C117.255 117.215 118.062 116.193 118.833 115.152C120.394 118.094 121.883 121.072 123.3 124.104C121.058 122.095 118.762 120.139 116.43 118.238V118.256ZM113.972 118.543C106.76 127.261 97.5034 136.052 86.6859 144.053C79.9945 134.904 73.4645 125.952 67.4906 117.7C67.6162 117.61 67.7418 117.502 67.8674 117.413C75.5275 111.798 83.403 106.9 91.1887 102.774C98.9206 107.331 106.617 112.641 113.972 118.543ZM66.8089 115.96C66.6833 116.049 66.5578 116.157 66.4322 116.247C65.0509 114.345 63.7054 112.479 62.3779 110.667C68.6567 105.985 74.0206 100.926 78.2184 95.8852C81.914 97.6254 85.6454 99.5808 89.3768 101.716C81.8243 105.77 74.2179 110.542 66.8089 115.96ZM61.3194 109.196C54.6101 99.9216 48.8694 91.9385 44.7613 86.1441C54.323 86.754 65.2303 89.9293 76.4963 95.0779C72.424 99.9037 67.2754 104.747 61.3194 109.196ZM47.219 84.5475C59.3282 80.4752 72.4778 79.0939 85.6275 80.0805C84.1744 84.2963 81.4476 88.9426 77.6444 93.6787C66.9166 88.7274 56.4937 85.5162 47.219 84.5654V84.5475ZM18.6952 99.4372C19.036 98.3609 19.4307 97.3204 19.933 96.3517C23.1083 90.2702 29.441 86.8078 38.3389 86.1441C30.7147 89.6423 24.1129 94.1451 18.6952 99.4372ZM38.1596 90.1087C31.1273 100.28 26.158 112.013 23.2518 124.391C22.6419 124.355 22.0678 124.301 21.4938 124.212C19.933 120.319 18.8387 116.605 18.2288 113.125C23.503 104.586 30.2482 96.8001 38.1596 90.1087ZM19.4307 123.763C17.1345 123.135 15.3584 122.041 14.1206 120.498C14.9817 118.776 15.9146 117.09 16.8833 115.421C17.4753 118.094 18.3364 120.893 19.4307 123.763ZM22.8392 126.167C22.7854 126.436 22.7316 126.705 22.6778 126.974C22.5522 126.687 22.4266 126.4 22.301 126.113C22.4804 126.113 22.6598 126.149 22.8572 126.167H22.8392ZM24.6511 126.239C29.2795 126.239 34.7152 125.055 40.4558 122.902C41.0478 127.405 41.873 132.015 42.9135 136.68C42.8418 136.751 42.77 136.823 42.6982 136.895C41.9986 137.63 41.299 138.348 40.5993 139.084C40.2944 139.406 40.0073 139.711 39.7203 140.034C39.1283 140.68 38.5542 141.308 37.9802 141.954C37.6752 142.295 37.3702 142.636 37.0652 142.976C36.5091 143.604 35.9709 144.232 35.4507 144.86C35.1637 145.201 34.8766 145.542 34.5896 145.883C34.4461 146.062 34.2846 146.241 34.1411 146.403C29.9612 140.662 26.5527 135.047 23.9335 129.683C24.1488 128.517 24.382 127.369 24.6332 126.203L24.6511 126.239ZM32.993 147.874C32.7598 148.179 32.5086 148.466 32.2754 148.771C31.6655 149.542 31.0734 150.314 30.4994 151.085C30.3559 151.264 30.2124 151.444 30.0868 151.623C29.3513 152.61 28.6516 153.579 27.952 154.547C27.952 154.565 27.9161 154.601 27.8982 154.619C27.2523 155.552 26.6245 156.467 26.0145 157.4C25.8531 157.633 25.7095 157.866 25.566 158.099C25.0996 158.817 24.6511 159.517 24.2026 160.234C24.0232 160.521 23.8618 160.808 23.6824 161.077C23.3236 161.669 22.9648 162.261 22.6239 162.853C21.5655 152.825 21.8346 142.6 23.4312 132.643C25.9966 137.559 29.1898 142.653 32.993 147.856V147.874ZM21.7628 169.76C21.4758 169.76 21.1888 169.724 20.9018 169.706C21.117 169.276 21.3323 168.827 21.5655 168.397C21.6373 168.845 21.6911 169.312 21.7808 169.76H21.7628ZM16.8654 174.963C16.8295 175.07 16.7936 175.16 16.7577 175.267C16.5783 175.752 16.4169 176.218 16.2554 176.685C14.587 174.317 13.0622 171.931 11.7167 169.509C13.5107 170.226 15.4661 170.783 17.6547 171.141C17.8879 171.177 18.1391 171.195 18.3902 171.231C17.8341 172.487 17.3318 173.725 16.8833 174.963H16.8654ZM43.2364 212.528C44.0437 212.492 44.8689 212.474 45.6941 212.402C46.3041 212.348 46.932 212.295 47.5598 212.223C47.9007 212.187 48.2416 212.169 48.5824 212.133C48.116 215.003 48.0622 217.712 48.4209 220.224C46.0709 217.892 43.8284 215.344 41.6936 212.582C42.1959 212.582 42.7162 212.546 43.2364 212.528ZM50.3225 211.9C50.8607 211.828 51.4348 211.721 51.973 211.631C52.7802 211.505 53.5875 211.362 54.4127 211.2C55.0765 211.075 55.7403 210.949 56.404 210.788C65.8223 214.968 75.8146 217.946 85.9863 219.542C88.1031 221.569 90.2379 223.453 92.3548 225.103C92.3368 227.256 92.7315 229.212 93.6105 230.934C92.7674 231.041 91.9242 231.167 91.0631 231.275C90.8837 231.293 90.7043 231.31 90.5249 231.328C90.2738 231.346 90.0226 231.382 89.7894 231.4C88.139 231.562 86.5065 231.669 84.874 231.723C84.4793 231.723 84.1026 231.723 83.7079 231.741C82.3445 231.777 80.9632 231.777 79.6177 231.741C79.1692 231.741 78.7207 231.741 78.2723 231.705C76.6398 231.651 75.0252 231.544 73.4107 231.4C73.1775 231.382 72.9442 231.346 72.6931 231.328C71.1862 231.167 69.6792 230.988 68.1903 230.754C68.1723 230.754 68.1365 230.754 68.1185 230.754C67.7238 230.683 67.3112 230.629 66.9166 230.557C65.5352 230.324 64.1718 230.055 62.8264 229.75C62.6111 229.696 62.3958 229.66 62.1626 229.606C61.9653 229.57 61.7859 229.517 61.6065 229.463C60.7274 229.247 59.8484 228.996 58.9694 228.745C56.0811 226.861 53.3005 224.727 50.6275 222.305C49.7305 219.219 49.6767 215.703 50.3225 211.882V211.9ZM53.4799 227.041C53.2287 226.951 52.9596 226.861 52.7085 226.772C52.565 226.557 52.4394 226.341 52.3138 226.126C52.7085 226.449 53.1032 226.736 53.4978 227.041H53.4799ZM106.886 230.037C107.191 229.947 107.478 229.857 107.783 229.768C108.482 229.57 109.164 229.355 109.864 229.14C110.025 229.086 110.205 229.032 110.366 228.978C110.707 228.871 111.048 228.745 111.389 228.637C111.981 228.44 112.573 228.243 113.147 228.028C113.398 227.938 113.667 227.848 113.918 227.741C114.223 227.633 114.51 227.525 114.815 227.4C115.371 227.184 115.909 226.969 116.465 226.754C116.806 226.628 117.129 226.485 117.47 226.341C117.703 226.252 117.937 226.162 118.17 226.054C118.708 225.821 119.264 225.588 119.802 225.337C120.179 225.175 120.538 225.014 120.914 224.834C121.686 224.476 122.475 224.117 123.247 223.74C123.552 223.597 123.857 223.453 124.162 223.292C124.359 223.184 124.574 223.094 124.771 222.987C125.094 222.825 125.399 222.646 125.722 222.484C126.494 222.09 127.247 221.677 128.001 221.264C128.377 221.049 128.772 220.834 129.149 220.619C129.597 220.367 130.046 220.098 130.494 219.829C130.763 219.668 131.05 219.488 131.319 219.327C131.678 219.112 132.019 218.896 132.378 218.681C132.432 218.645 132.503 218.609 132.557 218.573C126.476 224.798 119.713 229.606 112.537 232.871C110.025 232.494 107.442 231.723 104.769 230.557C105.469 230.378 106.186 230.198 106.886 230.001V230.037ZM142.854 208.832C149.887 198.643 154.856 186.91 157.762 174.55C158.372 174.586 158.946 174.64 159.52 174.729C161.081 178.622 162.175 182.336 162.785 185.816C157.511 194.355 150.766 202.141 142.854 208.832ZM161.583 175.178C163.88 175.806 165.656 176.9 166.893 178.443C166.032 180.165 165.099 181.851 164.131 183.52C163.539 180.847 162.678 178.048 161.583 175.178ZM158.175 172.774C158.229 172.505 158.282 172.236 158.336 171.985C158.462 172.272 158.587 172.559 158.713 172.846C158.534 172.846 158.354 172.792 158.157 172.774H158.175ZM156.363 172.72C151.735 172.72 146.299 173.886 140.558 176.039C139.966 171.536 139.141 166.926 138.1 162.261C138.926 161.418 139.733 160.557 140.522 159.714C140.809 159.409 141.096 159.086 141.383 158.781C141.957 158.153 142.549 157.525 143.106 156.88C143.446 156.485 143.787 156.108 144.128 155.713C144.613 155.157 145.115 154.583 145.581 154.027C145.922 153.615 146.263 153.22 146.604 152.807C146.676 152.718 146.765 152.61 146.855 152.52C151.035 158.279 154.461 163.894 157.08 169.258C156.865 170.424 156.632 171.59 156.381 172.738L156.363 172.72ZM148.021 151.067C148.326 150.69 148.631 150.314 148.918 149.937C149.367 149.363 149.797 148.789 150.228 148.233C150.515 147.856 150.802 147.479 151.089 147.102C151.573 146.439 152.057 145.793 152.524 145.129C152.721 144.842 152.936 144.555 153.134 144.268C153.78 143.353 154.408 142.42 155.017 141.505C155.215 141.2 155.394 140.913 155.592 140.608C156.004 139.981 156.417 139.335 156.793 138.707C157.027 138.33 157.242 137.971 157.457 137.595C157.762 137.092 158.067 136.572 158.354 136.07C159.413 146.098 159.144 156.323 157.547 166.298C154.982 161.382 151.788 156.27 147.985 151.085L148.021 151.067ZM159.466 130.526C159.395 130.078 159.341 129.611 159.251 129.163C159.538 129.163 159.825 129.199 160.112 129.217C160.112 129.253 160.076 129.289 160.058 129.324C159.861 129.719 159.664 130.114 159.449 130.526H159.466ZM162.785 127.369C162.893 127.118 163.018 126.849 163.126 126.598C163.485 125.719 163.826 124.858 164.149 124.014C164.238 123.763 164.328 123.512 164.4 123.279C164.525 122.938 164.651 122.579 164.759 122.238C166.427 124.606 167.952 126.992 169.297 129.414C167.503 128.697 165.548 128.14 163.359 127.782C163.126 127.746 162.875 127.728 162.624 127.692C162.678 127.584 162.713 127.477 162.767 127.369H162.785ZM163.359 121.198C163.216 121.628 163.054 122.077 162.893 122.525C162.731 122.974 162.588 123.404 162.426 123.853C162.265 124.301 162.068 124.75 161.888 125.198C161.709 125.647 161.529 126.113 161.332 126.562C161.207 126.867 161.045 127.19 160.902 127.495C160.256 127.441 159.592 127.387 158.928 127.369C157.834 121.431 156.273 115.601 154.228 110.004C157.619 113.287 160.74 116.803 163.539 120.552C163.467 120.767 163.413 120.983 163.341 121.198H163.359ZM157.116 127.315C149.707 127.297 141.096 129.037 131.929 132.302C130.189 130.544 128.413 128.822 126.619 127.136C124.592 122.507 122.386 117.969 120.017 113.538C125.094 106.47 128.808 99.5269 130.889 93.1405C138.262 97.0513 145.151 101.769 151.268 107.223C153.887 113.645 155.843 120.391 157.134 127.333L157.116 127.315ZM129.884 90.611C129.041 90.1805 128.198 89.7858 127.355 89.3911C128.341 89.2117 129.346 89.0144 130.315 88.8709C130.189 89.4449 130.046 90.0369 129.884 90.629V90.611ZM129.364 92.3511C127.427 98.4326 123.928 105.07 119.085 111.869C115.802 105.913 112.214 100.227 108.357 94.8986C113.918 92.7638 119.3 91.1133 124.431 89.9652C126.099 90.7187 127.731 91.508 129.364 92.3332V92.3511ZM107.262 93.4275C103.944 88.9965 100.553 85.0139 97.1267 81.5157C105.54 83.0226 113.828 85.4803 121.704 88.7991C117.057 89.9473 112.214 91.508 107.245 93.4275H107.262ZM105.522 94.0913C100.822 95.9749 96.0324 98.2174 91.2066 100.729C87.242 98.4326 83.2953 96.3158 79.3666 94.4501C83.2594 89.5167 86.0401 84.6551 87.4932 80.2061C89.7177 80.4034 91.9422 80.6905 94.1487 81.0313C97.9878 84.7627 101.791 89.14 105.522 94.0913ZM87.9955 78.466C88.2107 77.6049 88.3722 76.7797 88.4798 75.9544C89.628 76.8873 90.7761 77.856 91.9242 78.8965C90.6146 78.7351 89.3051 78.5736 87.9955 78.448V78.466ZM86.1836 78.3225C73.5004 77.3178 60.8351 78.5019 49.0488 82.0898C58.5029 76.098 68.5849 71.936 78.8105 69.55C81.4296 70.9134 84.1026 72.6177 86.7935 74.6449C86.7218 75.8109 86.5424 77.0308 86.1836 78.3225ZM48.403 80.3855C54.4845 74.1246 61.2477 69.2989 68.4235 66.016C70.9529 66.3927 73.5721 67.182 76.263 68.3481C66.7013 70.8058 57.2651 74.8243 48.403 80.4034V80.3855ZM81.4476 68.976C82.7751 68.7069 84.1026 68.4737 85.4301 68.2584C86.1656 69.4783 86.5962 70.8776 86.7577 72.4024C84.9816 71.1108 83.2056 69.9806 81.4476 68.976ZM68.0826 64.1682C67.9391 64.1503 67.7956 64.1323 67.6521 64.1144C67.9571 64.0606 68.2441 64.0067 68.5491 63.9529C68.3876 64.0247 68.2441 64.0964 68.0826 64.1682ZM61.5706 66.016C62.629 65.8366 63.7233 65.7648 64.8176 65.7469C57.8212 69.4065 51.2733 74.5013 45.3712 80.9416C48.2954 73.8735 52.6008 69.1374 58.0006 67.0026C58.2159 66.9129 58.4491 66.8232 58.6644 66.7515C59.5972 66.4286 60.566 66.1774 61.5527 65.998L61.5706 66.016ZM16.2554 101.877C16.0043 102.164 15.7352 102.433 15.484 102.72C15.789 102.146 16.076 101.59 16.4169 101.016C16.3631 101.303 16.3092 101.59 16.2554 101.877ZM5.00736 161.508C4.98942 161.077 4.98942 160.647 4.97148 160.234C4.97148 159.768 4.97148 159.319 4.95354 158.853C5.63524 160.826 6.42458 162.782 7.30361 164.719C6.46046 163.984 5.707 163.158 5.06118 162.261C5.06118 162.01 5.0253 161.759 5.00736 161.508ZM26.0504 209.622C26.3015 209.729 26.5706 209.855 26.8397 209.962C27.2882 210.16 27.7726 210.339 28.239 210.501C28.5081 210.59 28.7772 210.68 29.0463 210.77C29.5665 210.931 30.1047 211.093 30.6608 211.236C30.912 211.308 31.1452 211.38 31.3964 211.434C32.2036 211.631 33.0289 211.792 33.89 211.936C35.0919 212.133 36.3477 212.277 37.6214 212.366C38.0699 212.402 38.5542 212.402 39.0206 212.42C39.1283 212.42 39.2359 212.42 39.3436 212.42C42.3574 216.457 45.6044 220.062 49.0668 223.256C49.3179 224.081 49.6588 224.87 50.0176 225.642C48.995 225.229 47.9725 224.798 46.9678 224.35C46.7526 224.26 46.5373 224.171 46.322 224.063C44.8689 223.381 43.4338 222.646 42.0345 221.856C42.0345 221.856 42.0165 221.856 41.9986 221.838C41.6757 221.659 41.3528 221.48 41.0299 221.282C39.8279 220.601 38.6619 219.883 37.4958 219.13C37.2267 218.95 36.9576 218.789 36.6885 218.609C35.3969 217.748 34.159 216.833 32.9212 215.9C32.5983 215.649 32.2933 215.416 31.9704 215.165C30.8761 214.304 29.7997 213.389 28.7593 212.456C28.4543 212.169 28.1314 211.9 27.8264 211.613C27.0909 210.931 26.3912 210.214 25.6737 209.496C25.7813 209.55 25.8889 209.586 25.9966 209.64L26.0504 209.622ZM112.878 234.683C113.003 234.683 113.111 234.719 113.236 234.737C112.949 234.791 112.662 234.845 112.375 234.898C112.537 234.827 112.716 234.755 112.878 234.683ZM143.518 220.098C143.518 220.098 143.446 219.991 143.411 219.937C143.375 219.883 143.357 219.847 143.321 219.793C143.231 219.65 143.106 219.47 142.998 219.291C142.962 219.237 142.926 219.183 142.89 219.13C142.765 218.932 142.621 218.735 142.478 218.52C142.442 218.466 142.406 218.412 142.37 218.358C142.209 218.125 142.029 217.856 141.832 217.587C141.796 217.551 141.778 217.515 141.742 217.461C141.545 217.174 141.312 216.851 141.078 216.528C141.061 216.492 141.025 216.457 141.007 216.421C140.756 216.062 140.486 215.685 140.199 215.291C140.199 215.291 140.199 215.273 140.181 215.255C140.038 215.039 139.894 214.842 139.733 214.609C144.846 214.573 149.241 213.712 152.919 212.115C150.084 214.86 146.927 217.533 143.518 220.098ZM164.705 196.903C164.956 196.616 165.225 196.346 165.476 196.059C165.171 196.633 164.884 197.19 164.543 197.782C164.597 197.495 164.651 197.208 164.705 196.903ZM167.683 176.613C165.996 174.855 163.682 173.653 160.758 173.079C160.184 171.715 159.556 170.316 158.892 168.917C161.027 157.22 161.35 145.093 159.843 133.307C159.879 133.217 159.933 133.146 159.969 133.056C160.166 132.679 160.363 132.302 160.561 131.926C160.848 131.37 161.117 130.813 161.386 130.257C161.529 129.952 161.691 129.647 161.834 129.342C162.229 129.396 162.66 129.414 163.054 129.486C165.978 129.97 168.508 130.795 170.661 131.979C172.957 136.518 174.679 141.129 175.827 145.775C175.684 148.071 175.433 150.367 175.074 152.682C173.818 160.934 171.289 168.989 167.665 176.631L167.683 176.613ZM173.639 134.043C174.482 134.778 175.235 135.603 175.899 136.518C175.953 137.666 176.007 138.814 176.007 139.963C175.325 137.971 174.518 135.998 173.639 134.043ZM161.924 97.0334C162.319 97.5715 162.66 98.1456 162.983 98.7376C163.108 98.9888 163.216 99.2399 163.341 99.4911C163.521 99.8499 163.7 100.191 163.862 100.567C163.987 100.854 164.077 101.159 164.167 101.464C164.292 101.805 164.418 102.146 164.525 102.505C164.615 102.81 164.687 103.151 164.759 103.474C164.848 103.832 164.938 104.173 165.01 104.55C165.081 104.891 165.117 105.25 165.153 105.608C165.207 105.967 165.261 106.308 165.297 106.685C165.333 107.062 165.333 107.438 165.351 107.815C165.351 108.174 165.404 108.533 165.404 108.891C165.404 109.286 165.386 109.681 165.369 110.075C165.369 110.452 165.369 110.811 165.333 111.188C165.297 111.582 165.243 112.013 165.207 112.408C165.171 112.802 165.135 113.179 165.081 113.574C165.028 113.986 164.938 114.417 164.866 114.829C164.794 115.224 164.741 115.619 164.651 116.031C164.561 116.462 164.454 116.892 164.346 117.323C164.256 117.682 164.185 118.023 164.095 118.381C160.686 113.968 156.865 109.878 152.667 106.111C150.048 99.7602 146.765 93.7325 142.854 88.1892C144.182 88.2789 145.474 88.4224 146.711 88.6197C153.08 89.6602 157.906 92.1538 161.081 96.0287C161.368 96.3875 161.637 96.7463 161.888 97.0513L161.924 97.0334ZM155.322 89.3194C152.901 88.1533 150.138 87.3281 147.034 86.8258C145.312 86.5387 143.464 86.4132 141.581 86.3414C138.567 82.305 135.32 78.6992 131.858 75.506C131.588 74.6628 131.266 73.8555 130.871 73.0662C139.984 76.7976 148.308 82.2153 155.322 89.3194ZM128.234 72.0436C128.377 72.2589 128.521 72.4921 128.664 72.7253C128.252 72.3845 127.821 72.0795 127.409 71.7566C127.696 71.8642 127.965 71.9539 128.252 72.0616L128.234 72.0436ZM130.333 76.5285C131.23 79.6141 131.301 83.1302 130.638 86.9514C128.664 87.2384 126.637 87.5972 124.574 88.0457C115.156 83.8478 105.128 80.8878 94.956 79.2912C92.8391 77.264 90.7223 75.4163 88.6054 73.7658C88.6413 71.5951 88.2287 69.6039 87.3317 67.8817C99.1538 66.2671 110.958 67.0206 121.937 70.0344C124.843 71.9181 127.66 74.0887 130.333 76.5285ZM5.43791 124.553C6.60397 120.516 8.23647 116.695 10.2816 113.089C10.1022 115.942 10.6583 118.507 12.0038 120.624C8.11089 128.643 5.40203 137.146 4.09244 145.847C4.03863 146.223 4.00275 146.6 3.94893 146.977C2.8905 139.406 3.35692 131.854 5.45585 124.553H5.43791ZM122.906 66.895C126.709 68.2763 131.588 70.6264 135.015 72.7433C135.428 72.9944 135.858 73.2635 136.289 73.5326C131.947 71.4158 127.409 69.6936 122.726 68.384C120.484 66.9488 118.188 65.6751 115.82 64.5449C118.367 65.3163 120.914 66.1595 122.906 66.8771V66.895ZM2.01146 154.547C2.01146 153.919 1.97558 153.238 1.9397 152.52C1.86795 150.888 1.79619 149.058 1.88589 147.623C1.92176 147.013 1.95764 146.421 1.99352 145.829C2.28055 148.269 2.7111 150.726 3.32105 153.166C3.01607 157.956 3.15959 162.71 3.69777 167.356C2.90844 163.786 2.1191 158.62 2.01146 154.565V154.547ZM45.9453 226C45.6044 225.785 45.2457 225.57 44.8869 225.355C45.0663 225.444 45.2277 225.516 45.4071 225.588C45.5865 225.677 45.748 225.749 45.9274 225.839C46.1606 225.947 46.3938 226.054 46.627 226.162C47.5598 226.592 48.5106 226.987 49.4614 227.382C49.6408 227.453 49.8202 227.525 49.9996 227.597C50.0893 227.633 50.1611 227.669 50.2508 227.705C50.3046 227.723 50.3764 227.758 50.4302 227.776C51.5245 228.207 52.6188 228.602 53.7131 228.978C53.9104 229.05 54.1078 229.122 54.3051 229.176C54.5204 229.247 54.7356 229.319 54.9509 229.373C56.0452 229.732 57.1575 230.073 58.2697 230.378C60.5122 231.813 62.8084 233.069 65.1585 234.199C62.6111 233.427 60.0637 232.584 58.0724 231.849C54.2692 230.467 49.4076 228.117 45.9632 226H45.9453Z" fill="black"/>
<path d="M163.506 36.7073L169.368 51.3622L184.012 57.2134L169.368 63.0646L163.506 77.7195L157.655 63.0753L143 57.2134L157.655 51.3514L163.506 36.7073Z" fill="black"/>
<mask id="path-3-inside-1_701_2" fill="white">
<path d="M69.7262 124.615C68.4476 123.837 67.317 122.868 66.3672 121.728C64.1864 119.125 62.9144 115.623 62.6799 111.588L62.6599 111.257L62.3611 111.207C60.3256 110.878 58.4645 110.205 56.8336 109.213C55.5549 108.435 54.4243 107.466 53.468 106.321C51.2872 103.719 50.0152 100.216 49.7836 96.1933L49.7636 95.8623L49.4648 95.8118C47.4294 95.483 45.5682 94.8102 43.9373 93.8179C42.6586 93.0399 41.5281 92.0707 40.5782 90.9302C38.3975 88.328 37.1254 84.8253 36.8873 80.7983L36.8673 80.4672L36.5685 80.4168C34.5331 80.0879 32.672 79.4151 31.041 78.4228C29.7623 77.6448 28.6318 76.6756 27.682 75.5351C25.3324 72.7271 24.0461 68.9156 23.9642 64.496C23.8906 60.6159 24.7073 56.2928 26.3959 51.647C28.0126 47.2105 30.3633 42.6393 33.3754 38.0766C36.3876 33.5139 39.9471 29.1343 43.9727 25.0476L49.1088 31.1825C45.4628 34.8907 42.2445 38.8497 39.5315 42.9567C36.8861 46.9642 34.8441 50.9262 33.4608 54.717C32.1676 58.2625 31.5157 61.5699 31.5693 64.2938C31.6129 66.6834 32.1952 68.5662 33.2986 69.8752C33.7101 70.36 34.2044 70.7826 34.7654 71.124C35.5157 71.5804 36.4082 71.9078 37.4197 72.1012L37.7547 72.1644L37.8428 71.8053C38.2227 70.2642 38.7121 68.6584 39.3024 67.0389C40.9227 62.5952 43.2697 58.0312 46.2819 53.4685C49.3615 48.8062 53.0154 44.3246 57.1477 40.1621C61.2837 35.9925 65.6548 32.3692 70.1466 29.4007C74.5425 26.4864 78.8921 24.3035 83.0562 22.9079C85.3529 22.1485 87.6996 22.3853 89.6633 23.5801C90.3939 24.0246 91.0462 24.5903 91.6106 25.2619C93.7117 27.7686 94.2518 31.4356 93.0255 34.8154C92.4686 36.3521 91.8139 37.9136 91.0859 39.468L90.618 40.4587L91.5575 40.0363C93.0281 39.3744 94.5023 38.7898 95.9488 38.3101C98.2391 37.5468 100.586 37.7836 102.549 38.9784C103.28 39.4229 103.932 39.9885 104.503 40.6641C106.604 43.1709 107.144 46.8378 105.918 50.2177C105.361 51.7544 104.703 53.323 103.979 54.8703L103.511 55.8609L104.45 55.4386C105.931 54.7735 107.405 54.1888 108.842 53.7124C111.132 52.949 113.478 53.1859 115.442 54.3806C116.173 54.8252 116.825 55.3908 117.389 56.0624C119.497 58.5731 120.037 62.2401 118.804 65.616C117.188 70.0524 114.84 74.6165 111.825 79.1864C108.749 83.8414 105.095 88.3231 100.959 92.4927C96.8266 96.6552 92.4554 100.278 87.9666 103.258C83.5641 106.168 79.221 108.355 75.0606 109.744C73.5393 110.253 72.0392 110.653 70.6073 110.935L70.2671 111L70.2987 111.376C70.4595 113.349 71.0239 114.93 71.9802 116.075C72.3917 116.56 72.886 116.982 73.447 117.324C74.393 117.899 75.5545 118.268 76.9019 118.422C79.3667 118.712 82.4262 118.267 85.753 117.159C89.3171 115.97 93.0805 114.068 96.9439 111.515C100.9 108.895 104.769 105.707 108.44 102.033L113.576 108.168C109.525 112.221 105.245 115.749 100.856 118.649C96.4604 121.564 92.1107 123.746 87.9467 125.142C85.1109 126.089 82.4111 126.65 79.9183 126.803C78.5846 126.892 77.2958 126.858 76.0848 126.721C73.7229 126.447 71.5891 125.739 69.7364 124.612L69.7262 124.615ZM66.5454 92.6257C65.0712 93.2947 63.5905 93.8755 62.1541 94.3519C60.6329 94.861 59.1327 95.2612 57.7009 95.5434L57.3607 95.6084L57.3923 95.9839C57.5531 97.9572 58.1174 99.5384 59.0709 100.672C59.4788 101.164 59.973 101.586 60.5406 101.932C61.2908 102.388 62.1833 102.715 63.1949 102.909L63.5299 102.972L63.6179 102.613C63.9942 101.079 64.4836 99.4732 65.0775 97.8466C65.6307 96.3171 66.2891 94.7484 67.0171 93.194L67.485 92.2033L66.5454 92.6257ZM111.366 61.6155C111.261 61.6363 111.161 61.65 111.025 61.6988C107.457 62.8945 103.687 64.7925 99.8305 67.3502C95.7713 70.038 91.8116 73.3209 88.0553 77.112C84.299 80.9031 80.9798 84.9601 78.1993 89.1667C75.5539 93.1742 73.5119 97.1362 72.1286 100.927L71.6953 102.136L72.4164 101.908C72.5586 101.864 72.7008 101.819 72.843 101.774C76.4071 100.586 80.1705 98.6837 84.0338 96.1298C88.0931 93.4421 92.0527 90.1592 95.809 86.3681C99.569 82.5699 102.888 78.5129 105.665 74.3134C108.31 70.3059 110.352 66.3439 111.736 62.5532C111.811 62.3549 111.845 62.1694 111.848 62.0119L111.848 61.4214L111.362 61.6227L111.366 61.6155ZM53.6492 77.2306C52.1749 77.8997 50.6942 78.4804 49.2578 78.9568C47.73 79.462 46.2364 79.8661 44.8046 80.1483L44.4644 80.2133L44.496 80.5888C44.6568 82.5621 45.2211 84.1433 46.1775 85.2878C46.5854 85.7798 47.0833 86.1952 47.6443 86.5366C48.3945 86.993 49.287 87.3204 50.2986 87.5138L50.6336 87.577L50.7217 87.218C51.1015 85.6768 51.591 84.071 52.1812 82.4515C52.7344 80.922 53.3892 79.3605 54.1208 77.7989L54.5887 76.8083L53.6492 77.2306ZM98.4696 46.2204C98.3652 46.2413 98.2607 46.2621 98.1287 46.3037C94.5646 47.4923 90.8012 49.3942 86.9379 51.948C82.8786 54.6358 78.919 57.9187 75.1627 61.7097C71.4063 65.5008 68.0871 69.5578 65.3067 73.7644C62.6612 77.7719 60.6164 81.7228 59.2359 85.5247L58.8056 86.7444L59.9503 86.3719C63.518 85.1761 67.288 83.2782 71.1448 80.7204C75.204 78.0326 79.1637 74.7498 82.92 70.9587C86.6763 67.1676 89.9955 63.1106 92.776 58.904C95.4214 54.8965 97.4634 50.9345 98.8467 47.1437C98.9216 46.9455 98.9558 46.76 98.9589 46.6025L98.9594 46.012L98.4733 46.2132L98.4696 46.2204ZM85.5734 30.8253C85.4689 30.8462 85.3645 30.867 85.2324 30.9086C81.6683 32.0972 77.9049 33.9991 74.0416 36.5529C69.986 39.2335 66.0263 42.5164 62.2664 46.3146C58.5101 50.1057 55.1909 54.1627 52.4169 58.3733C49.7715 62.3808 47.7295 66.3428 46.3462 70.1336L45.9129 71.3422L46.634 71.1151C46.7762 71.0703 46.9184 71.0256 47.0605 70.9808C50.6246 69.7922 54.3881 67.8903 58.2449 65.3325C62.3041 62.6447 66.2638 59.3619 70.0201 55.5708C73.7764 51.7797 77.0956 47.7227 79.8695 43.5121C82.5113 39.5118 84.5533 35.5498 85.9403 31.7519C86.0151 31.5536 86.0494 31.3681 86.0524 31.2106L86.05 30.609L85.5603 30.8174L85.5734 30.8253Z"/>
</mask>
<path d="M69.7262 124.615C68.4476 123.837 67.317 122.868 66.3672 121.728C64.1864 119.125 62.9144 115.623 62.6799 111.588L62.6599 111.257L62.3611 111.207C60.3256 110.878 58.4645 110.205 56.8336 109.213C55.5549 108.435 54.4243 107.466 53.468 106.321C51.2872 103.719 50.0152 100.216 49.7836 96.1933L49.7636 95.8623L49.4648 95.8118C47.4294 95.483 45.5682 94.8102 43.9373 93.8179C42.6586 93.0399 41.5281 92.0707 40.5782 90.9302C38.3975 88.328 37.1254 84.8253 36.8873 80.7983L36.8673 80.4672L36.5685 80.4168C34.5331 80.0879 32.672 79.4151 31.041 78.4228C29.7623 77.6448 28.6318 76.6756 27.682 75.5351C25.3324 72.7271 24.0461 68.9156 23.9642 64.496C23.8906 60.6159 24.7073 56.2928 26.3959 51.647C28.0126 47.2105 30.3633 42.6393 33.3754 38.0766C36.3876 33.5139 39.9471 29.1343 43.9727 25.0476L49.1088 31.1825C45.4628 34.8907 42.2445 38.8497 39.5315 42.9567C36.8861 46.9642 34.8441 50.9262 33.4608 54.717C32.1676 58.2625 31.5157 61.5699 31.5693 64.2938C31.6129 66.6834 32.1952 68.5662 33.2986 69.8752C33.7101 70.36 34.2044 70.7826 34.7654 71.124C35.5157 71.5804 36.4082 71.9078 37.4197 72.1012L37.7547 72.1644L37.8428 71.8053C38.2227 70.2642 38.7121 68.6584 39.3024 67.0389C40.9227 62.5952 43.2697 58.0312 46.2819 53.4685C49.3615 48.8062 53.0154 44.3246 57.1477 40.1621C61.2837 35.9925 65.6548 32.3692 70.1466 29.4007C74.5425 26.4864 78.8921 24.3035 83.0562 22.9079C85.3529 22.1485 87.6996 22.3853 89.6633 23.5801C90.3939 24.0246 91.0462 24.5903 91.6106 25.2619C93.7117 27.7686 94.2518 31.4356 93.0255 34.8154C92.4686 36.3521 91.8139 37.9136 91.0859 39.468L90.618 40.4587L91.5575 40.0363C93.0281 39.3744 94.5023 38.7898 95.9488 38.3101C98.2391 37.5468 100.586 37.7836 102.549 38.9784C103.28 39.4229 103.932 39.9885 104.503 40.6641C106.604 43.1709 107.144 46.8378 105.918 50.2177C105.361 51.7544 104.703 53.323 103.979 54.8703L103.511 55.8609L104.45 55.4386C105.931 54.7735 107.405 54.1888 108.842 53.7124C111.132 52.949 113.478 53.1859 115.442 54.3806C116.173 54.8252 116.825 55.3908 117.389 56.0624C119.497 58.5731 120.037 62.2401 118.804 65.616C117.188 70.0524 114.84 74.6165 111.825 79.1864C108.749 83.8414 105.095 88.3231 100.959 92.4927C96.8266 96.6552 92.4554 100.278 87.9666 103.258C83.5641 106.168 79.221 108.355 75.0606 109.744C73.5393 110.253 72.0392 110.653 70.6073 110.935L70.2671 111L70.2987 111.376C70.4595 113.349 71.0239 114.93 71.9802 116.075C72.3917 116.56 72.886 116.982 73.447 117.324C74.393 117.899 75.5545 118.268 76.9019 118.422C79.3667 118.712 82.4262 118.267 85.753 117.159C89.3171 115.97 93.0805 114.068 96.9439 111.515C100.9 108.895 104.769 105.707 108.44 102.033L113.576 108.168C109.525 112.221 105.245 115.749 100.856 118.649C96.4604 121.564 92.1107 123.746 87.9467 125.142C85.1109 126.089 82.4111 126.65 79.9183 126.803C78.5846 126.892 77.2958 126.858 76.0848 126.721C73.7229 126.447 71.5891 125.739 69.7364 124.612L69.7262 124.615ZM66.5454 92.6257C65.0712 93.2947 63.5905 93.8755 62.1541 94.3519C60.6329 94.861 59.1327 95.2612 57.7009 95.5434L57.3607 95.6084L57.3923 95.9839C57.5531 97.9572 58.1174 99.5384 59.0709 100.672C59.4788 101.164 59.973 101.586 60.5406 101.932C61.2908 102.388 62.1833 102.715 63.1949 102.909L63.5299 102.972L63.6179 102.613C63.9942 101.079 64.4836 99.4732 65.0775 97.8466C65.6307 96.3171 66.2891 94.7484 67.0171 93.194L67.485 92.2033L66.5454 92.6257ZM111.366 61.6155C111.261 61.6363 111.161 61.65 111.025 61.6988C107.457 62.8945 103.687 64.7925 99.8305 67.3502C95.7713 70.038 91.8116 73.3209 88.0553 77.112C84.299 80.9031 80.9798 84.9601 78.1993 89.1667C75.5539 93.1742 73.5119 97.1362 72.1286 100.927L71.6953 102.136L72.4164 101.908C72.5586 101.864 72.7008 101.819 72.843 101.774C76.4071 100.586 80.1705 98.6837 84.0338 96.1298C88.0931 93.4421 92.0527 90.1592 95.809 86.3681C99.569 82.5699 102.888 78.5129 105.665 74.3134C108.31 70.3059 110.352 66.3439 111.736 62.5532C111.811 62.3549 111.845 62.1694 111.848 62.0119L111.848 61.4214L111.362 61.6227L111.366 61.6155ZM53.6492 77.2306C52.1749 77.8997 50.6942 78.4804 49.2578 78.9568C47.73 79.462 46.2364 79.8661 44.8046 80.1483L44.4644 80.2133L44.496 80.5888C44.6568 82.5621 45.2211 84.1433 46.1775 85.2878C46.5854 85.7798 47.0833 86.1952 47.6443 86.5366C48.3945 86.993 49.287 87.3204 50.2986 87.5138L50.6336 87.577L50.7217 87.218C51.1015 85.6768 51.591 84.071 52.1812 82.4515C52.7344 80.922 53.3892 79.3605 54.1208 77.7989L54.5887 76.8083L53.6492 77.2306ZM98.4696 46.2204C98.3652 46.2413 98.2607 46.2621 98.1287 46.3037C94.5646 47.4923 90.8012 49.3942 86.9379 51.948C82.8786 54.6358 78.919 57.9187 75.1627 61.7097C71.4063 65.5008 68.0871 69.5578 65.3067 73.7644C62.6612 77.7719 60.6164 81.7228 59.2359 85.5247L58.8056 86.7444L59.9503 86.3719C63.518 85.1761 67.288 83.2782 71.1448 80.7204C75.204 78.0326 79.1637 74.7498 82.92 70.9587C86.6763 67.1676 89.9955 63.1106 92.776 58.904C95.4214 54.8965 97.4634 50.9345 98.8467 47.1437C98.9216 46.9455 98.9558 46.76 98.9589 46.6025L98.9594 46.012L98.4733 46.2132L98.4696 46.2204ZM85.5734 30.8253C85.4689 30.8462 85.3645 30.867 85.2324 30.9086C81.6683 32.0972 77.9049 33.9991 74.0416 36.5529C69.986 39.2335 66.0263 42.5164 62.2664 46.3146C58.5101 50.1057 55.1909 54.1627 52.4169 58.3733C49.7715 62.3808 47.7295 66.3428 46.3462 70.1336L45.9129 71.3422L46.634 71.1151C46.7762 71.0703 46.9184 71.0256 47.0605 70.9808C50.6246 69.7922 54.3881 67.8903 58.2449 65.3325C62.3041 62.6447 66.2638 59.3619 70.0201 55.5708C73.7764 51.7797 77.0956 47.7227 79.8695 43.5121C82.5113 39.5118 84.5533 35.5498 85.9403 31.7519C86.0151 31.5536 86.0494 31.3681 86.0524 31.2106L86.05 30.609L85.5603 30.8174L85.5734 30.8253Z" fill="#FF5600" stroke="black" stroke-width="2.4" stroke-linejoin="round" mask="url(#path-3-inside-1_701_2)"/>
</svg>
