<svg width="674" height="606" viewBox="0 0 674 606" fill="none" xmlns="http://www.w3.org/2000/svg">
<g clip-path="url(#clip0_515_440)">
<path d="M109.219 57.2502C109.409 56.4402 109.579 55.6402 109.729 54.8302C109.759 54.6502 109.799 54.4702 109.829 54.2902C109.989 53.4002 110.119 52.5202 110.229 51.6402C110.249 51.4502 110.269 51.2702 110.299 51.0802C110.389 50.2802 110.469 49.4902 110.529 48.7002C110.529 48.6102 110.549 48.5202 110.559 48.4302C110.559 48.3902 110.559 48.3502 110.559 48.3102C110.599 47.6202 110.639 46.9402 110.649 46.2602C110.649 46.2102 110.649 46.1602 110.649 46.1102C110.659 45.4802 110.669 44.8502 110.649 44.2302C110.649 44.0002 110.639 43.7802 110.629 43.5602C110.619 43.1102 110.599 42.6702 110.579 42.2302C110.569 41.9702 110.539 41.7202 110.529 41.4602C110.499 41.0502 110.469 40.6502 110.419 40.2402C110.409 40.1202 110.399 39.9902 110.389 39.8702C110.379 39.7602 110.359 39.6602 110.349 39.5502C110.269 38.8702 110.179 38.2002 110.069 37.5302C110.049 37.4302 110.039 37.3402 110.029 37.2402C109.899 36.4902 109.749 35.7502 109.589 35.0202C109.569 34.9402 109.559 34.8702 109.539 34.7902C109.509 34.6402 109.459 34.5002 109.429 34.3602C109.329 33.9602 109.229 33.5602 109.119 33.1602C109.059 32.9202 108.989 32.6902 108.919 32.4602C108.799 32.0602 108.679 31.6602 108.549 31.2702C108.499 31.1202 108.459 30.9702 108.409 30.8202C108.389 30.7502 108.359 30.6802 108.329 30.6102C108.219 30.2902 108.099 29.9802 107.989 29.6702C107.899 29.4302 107.809 29.1902 107.719 28.9502C107.589 28.6302 107.459 28.3202 107.329 28.0102C107.249 27.8202 107.179 27.6302 107.099 27.4502C107.079 27.4102 107.059 27.3702 107.039 27.3302C106.929 27.0902 106.819 26.8602 106.709 26.6202C106.579 26.3502 106.459 26.0802 106.319 25.8102C106.199 25.5802 106.079 25.3502 105.949 25.1202C105.839 24.9102 105.729 24.7002 105.619 24.4902C105.599 24.4602 105.579 24.4302 105.559 24.4002C105.109 23.5902 104.619 22.8102 104.109 22.0402C104.059 21.9702 104.029 21.9002 103.979 21.8302C103.949 21.7802 103.909 21.7402 103.879 21.6902C103.389 20.9702 102.869 20.2702 102.329 19.5902C102.279 19.5302 102.239 19.4702 102.199 19.4102C102.149 19.3502 102.089 19.2902 102.039 19.2302C101.489 18.5602 100.929 17.9102 100.329 17.2902C100.299 17.2602 100.269 17.2202 100.239 17.1902C99.9394 16.8802 99.6394 16.5802 99.3394 16.2802L93.8094 10.9302C94.1494 11.2602 94.4794 11.6002 94.7994 11.9402C95.3994 12.5702 95.9594 13.2202 96.5094 13.8802C96.6094 14.0002 96.7094 14.1202 96.7994 14.2402C97.3394 14.9202 97.8594 15.6202 98.3494 16.3402C98.4294 16.4602 98.4994 16.5702 98.5794 16.6902C99.0894 17.4602 99.5794 18.2402 100.029 19.0502C100.159 19.2902 100.289 19.5302 100.419 19.7702C100.539 20.0002 100.669 20.2302 100.789 20.4702C100.919 20.7302 101.049 21.0002 101.179 21.2702C101.289 21.5102 101.409 21.7402 101.519 21.9802C101.619 22.2002 101.709 22.4302 101.809 22.6602C101.939 22.9702 102.079 23.2902 102.199 23.6102C102.289 23.8502 102.379 24.0902 102.469 24.3302C102.589 24.6402 102.699 24.9602 102.809 25.2702C102.889 25.4902 102.949 25.7102 103.029 25.9302C103.159 26.3202 103.279 26.7202 103.399 27.1202C103.469 27.3502 103.529 27.5902 103.599 27.8302C103.709 28.2302 103.809 28.6302 103.909 29.0302C103.959 29.2502 104.019 29.4702 104.069 29.6902C104.229 30.4202 104.379 31.1602 104.509 31.9102C104.529 32.0002 104.539 32.1002 104.549 32.2002C104.659 32.8702 104.749 33.5402 104.829 34.2202C104.859 34.4502 104.879 34.6802 104.909 34.9202C104.949 35.3202 104.979 35.7302 105.019 36.1402C105.039 36.4002 105.059 36.6502 105.069 36.9102C105.099 37.3502 105.109 37.8002 105.119 38.2402C105.119 38.4602 105.139 38.6902 105.139 38.9102C105.149 39.5302 105.139 40.1602 105.139 40.7902C105.139 40.8402 105.139 40.8902 105.139 40.9402C105.119 41.6202 105.089 42.3102 105.049 43.0002C105.049 43.1302 105.029 43.2602 105.019 43.3902C104.959 44.1802 104.889 44.9802 104.789 45.7802C104.769 45.9602 104.749 46.1502 104.729 46.3302C104.619 47.2102 104.479 48.0902 104.319 48.9802C104.289 49.1602 104.249 49.3402 104.219 49.5202C104.069 50.3202 103.899 51.1302 103.709 51.9402C103.679 52.0902 103.649 52.2302 103.609 52.3702C103.389 53.2702 103.149 54.1802 102.889 55.0802C102.809 55.3502 102.729 55.6102 102.649 55.8802C102.529 56.2802 102.399 56.6902 102.269 57.0902C102.169 57.3902 102.069 57.7002 101.969 58.0002C101.829 58.4002 101.689 58.8102 101.539 59.2102C101.429 59.5102 101.319 59.8202 101.199 60.1202C101.039 60.5302 100.879 60.9402 100.709 61.3502C100.589 61.6502 100.469 61.9402 100.349 62.2402C100.169 62.6602 99.9794 63.0902 99.7894 63.5102C99.6694 63.7902 99.5394 64.0702 99.4194 64.3502C99.0694 65.1002 98.7094 65.8502 98.3394 66.6002C97.8494 67.5602 97.3394 68.5102 96.8194 69.4402C96.4294 70.1402 96.0294 70.8202 95.6094 71.5002C95.5594 71.5902 95.4994 71.6802 95.4494 71.7702C94.9794 72.5302 94.4994 73.2902 93.9994 74.0302C93.2794 75.1202 92.5194 76.1802 91.7394 77.2302C91.5494 77.4902 91.3494 77.7502 91.1494 78.0102C90.5294 78.8202 89.8994 79.6202 89.2494 80.4002C89.0994 80.5802 88.9494 80.7702 88.7894 80.9602C88.0294 81.8602 87.2394 82.7402 86.4394 83.6002C86.2394 83.8102 86.0394 84.0202 85.8394 84.2202C85.2194 84.8702 84.5894 85.5102 83.9494 86.1402C83.6994 86.3802 83.4494 86.6302 83.1994 86.8702C82.4794 87.5502 81.7494 88.2202 81.0094 88.8802C80.8794 88.9902 80.7594 89.1102 80.6294 89.2202C79.7494 89.9802 78.8594 90.7202 77.9594 91.4302C77.7194 91.6202 77.4794 91.8002 77.2494 91.9802C76.4994 92.5602 75.7294 93.1302 74.9594 93.6802C74.6694 93.8802 74.3894 94.0902 74.0994 94.2902C73.8894 94.4402 73.6694 94.5802 73.4594 94.7302C72.9494 95.0802 72.4294 95.4202 71.9094 95.7502C71.7094 95.8802 71.4994 96.0102 71.2994 96.1402C70.6894 96.5202 70.0694 96.9002 69.4494 97.2602C69.3294 97.3302 69.2194 97.4002 69.0994 97.4702C68.3694 97.8902 67.6394 98.3002 66.8994 98.6902C66.5894 98.8602 66.2694 99.0102 65.9594 99.1702C65.4894 99.4102 65.0194 99.6502 64.5394 99.8802C64.1994 100.04 63.8694 100.2 63.5294 100.35C63.0894 100.55 62.6494 100.76 62.2094 100.95C61.4994 101.26 60.7894 101.55 60.0794 101.84C59.8794 101.92 59.6794 102.01 59.4694 102.09C58.5494 102.44 57.6294 102.77 56.7094 103.08C55.9694 103.33 55.2394 103.56 54.4994 103.77C54.3094 103.82 54.1294 103.87 53.9394 103.93C53.3594 104.09 52.7794 104.25 52.1894 104.4C51.9594 104.46 51.7194 104.52 51.4894 104.57C50.8594 104.72 50.2394 104.86 49.6094 104.98C49.4694 105.01 49.3294 105.04 49.1994 105.07C48.4494 105.22 47.6894 105.34 46.9394 105.46C46.7394 105.49 46.5394 105.51 46.3394 105.54C45.7594 105.62 45.1894 105.69 44.6194 105.75C44.3894 105.77 44.1594 105.8 43.9294 105.82C43.2794 105.88 42.6194 105.93 41.9694 105.96C41.8594 105.96 41.7594 105.98 41.6494 105.98C40.8994 106.02 40.1494 106.03 39.4094 106.03C39.1994 106.03 38.9994 106.03 38.7894 106.03C38.2294 106.03 37.6694 106.01 37.1094 105.98C36.8894 105.97 36.6594 105.96 36.4394 105.95C35.7594 105.91 35.0794 105.85 34.3994 105.78C34.3394 105.78 34.2794 105.77 34.2194 105.76C33.4894 105.68 32.7594 105.57 32.0294 105.45C31.8194 105.42 31.6194 105.38 31.4094 105.34C30.8694 105.24 30.3294 105.14 29.7894 105.02C29.5794 104.97 29.3694 104.93 29.1594 104.88C28.4394 104.71 27.7294 104.53 27.0294 104.32C20.9994 102.56 15.9194 99.5602 11.8594 95.6402L17.3894 100.99C21.4494 104.92 26.5294 107.91 32.5594 109.67C33.2694 109.88 33.9794 110.06 34.6894 110.23C34.8994 110.28 35.1094 110.32 35.3194 110.37C35.8594 110.49 36.3994 110.6 36.9394 110.69C37.1494 110.73 37.3494 110.77 37.5594 110.8C38.2894 110.92 39.0094 111.02 39.7494 111.11C39.8094 111.11 39.8694 111.12 39.9294 111.13C40.6094 111.2 41.2894 111.26 41.9694 111.3C42.1894 111.31 42.4094 111.32 42.6394 111.33C43.1994 111.36 43.7594 111.37 44.3294 111.38C44.5294 111.38 44.7394 111.38 44.9394 111.38C45.6894 111.38 46.4294 111.36 47.1794 111.33C47.2894 111.33 47.3894 111.32 47.4994 111.31C48.1494 111.28 48.7994 111.23 49.4594 111.17C49.6894 111.15 49.9194 111.12 50.1494 111.1C50.7294 111.04 51.2994 110.97 51.8794 110.89C52.0794 110.86 52.2694 110.84 52.4694 110.81C53.2294 110.7 53.9794 110.57 54.7394 110.42C54.8794 110.39 55.0094 110.36 55.1494 110.34C55.7794 110.21 56.4094 110.08 57.0394 109.93C57.2694 109.88 57.4994 109.82 57.7294 109.76C58.3194 109.61 58.8994 109.46 59.4894 109.29C59.6694 109.24 59.8594 109.19 60.0394 109.14C60.7394 108.94 61.4394 108.72 62.1294 108.49C62.1694 108.48 62.2094 108.46 62.2494 108.45C63.1694 108.14 64.0894 107.81 65.0094 107.46C65.2094 107.38 65.4094 107.29 65.6194 107.21C66.3294 106.93 67.0494 106.63 67.7494 106.32C67.8494 106.28 67.9394 106.24 68.0394 106.2C68.3794 106.05 68.7294 105.88 69.0694 105.72C69.4094 105.56 69.7494 105.41 70.0794 105.25C70.5494 105.02 71.0194 104.78 71.4894 104.54C71.8094 104.38 72.1194 104.22 72.4394 104.05C72.4994 104.02 72.5494 103.99 72.6094 103.96C73.2894 103.6 73.9594 103.22 74.6394 102.83C74.7594 102.76 74.8794 102.68 74.9994 102.61C75.5094 102.31 76.0194 102.01 76.5294 101.69C76.6294 101.63 76.7394 101.56 76.8394 101.49C77.0494 101.36 77.2494 101.23 77.4494 101.1C77.9694 100.77 78.4894 100.43 78.9994 100.08C79.2094 99.9402 79.4294 99.7902 79.6394 99.6502C79.7694 99.5602 79.9094 99.4702 80.0394 99.3802C80.1994 99.2702 80.3494 99.1502 80.4994 99.0402C81.2694 98.4902 82.0294 97.9202 82.7894 97.3402C82.9394 97.2202 83.0994 97.1102 83.2494 96.9902C83.3294 96.9202 83.4194 96.8502 83.4994 96.7802C84.3994 96.0602 85.2994 95.3302 86.1694 94.5702C86.1894 94.5502 86.2194 94.5302 86.2494 94.5102C86.3494 94.4202 86.4494 94.3202 86.5594 94.2302C87.2994 93.5802 88.0294 92.9102 88.7394 92.2202C88.8594 92.1102 88.9794 92.0102 89.0894 91.9002C89.2294 91.7702 89.3594 91.6202 89.4894 91.4902C90.1294 90.8602 90.7594 90.2202 91.3794 89.5702C91.5194 89.4202 91.6694 89.2802 91.8194 89.1302C91.8794 89.0702 91.9294 89.0102 91.9794 88.9502C92.7794 88.0902 93.5594 87.2102 94.3294 86.3102C94.3694 86.2602 94.4194 86.2102 94.4594 86.1602C94.5694 86.0302 94.6694 85.8802 94.7894 85.7502C95.4394 84.9702 96.0694 84.1702 96.6894 83.3602C96.8094 83.2102 96.9294 83.0702 97.0394 82.9102C97.1194 82.8002 97.1894 82.6902 97.2794 82.5802C98.0594 81.5402 98.8094 80.4702 99.5394 79.3802C99.5694 79.3402 99.5894 79.3102 99.6194 79.2702C100.089 78.5602 100.539 77.8502 100.989 77.1202C101.039 77.0302 101.089 76.9402 101.149 76.8602C101.529 76.2402 101.899 75.6202 102.259 74.9802C102.299 74.9202 102.329 74.8502 102.359 74.7802C102.889 73.8502 103.399 72.9002 103.879 71.9402C104.259 71.1902 104.619 70.4402 104.959 69.6902C104.989 69.6302 105.019 69.5602 105.049 69.5002C105.149 69.2802 105.239 69.0702 105.329 68.8502C105.519 68.4302 105.709 68.0002 105.889 67.5802C106.019 67.2802 106.129 66.9902 106.249 66.6902C106.419 66.2802 106.579 65.8702 106.739 65.4602C106.859 65.1602 106.969 64.8502 107.079 64.5502C107.229 64.1502 107.369 63.7402 107.509 63.3402C107.609 63.0402 107.719 62.7302 107.819 62.4302C107.949 62.0302 108.079 61.6202 108.199 61.2202C108.249 61.0402 108.319 60.8602 108.369 60.6802C108.399 60.5902 108.419 60.5002 108.439 60.4102C108.699 59.5002 108.939 58.6002 109.159 57.7002C109.199 57.5502 109.229 57.4102 109.259 57.2602L109.219 57.2502Z" fill="#0085BF" stroke="black" stroke-miterlimit="10"/>
<path d="M85.3271 84.7365C107.964 61.3524 111.762 28.308 93.8105 10.9298C75.8588 -6.44844 42.9551 -1.57972 20.3181 21.8044C-2.31898 45.1885 -6.11715 78.2329 11.8346 95.6111C29.7863 112.989 62.6901 108.121 85.3271 84.7365Z" fill="#00B1FF" stroke="black" stroke-miterlimit="10"/>
<path d="M63.3699 91.4899L69.5499 88.22L60.6099 58.95L54.4199 62.2299L63.3699 91.4899Z" fill="black"/>
<path d="M18.3291 78.3999L50.7591 61.2099L49.0491 55.6299L16.6191 72.8299L18.3291 78.3999Z" fill="black"/>
<path d="M57.2491 48.25L51.0691 51.53L42.1191 22.26L48.2991 18.98L57.2491 48.25Z" fill="black"/>
<path d="M95.0404 37.7699L62.6004 54.9599L60.9004 49.3899L93.3304 32.1899L95.0404 37.7699Z" fill="black"/>
<path d="M60.3699 89.4899L66.5499 86.22L57.6099 56.95L51.4199 60.2299L60.3699 89.4899Z" fill="white" stroke="black" stroke-miterlimit="10"/>
<path d="M15.3291 76.3999L47.7591 59.2099L46.0491 53.6299L13.6191 70.8299L15.3291 76.3999Z" fill="white" stroke="black" stroke-miterlimit="10"/>
<path d="M54.2491 46.25L48.0691 49.53L39.1191 20.26L45.2991 16.98L54.2491 46.25Z" fill="white" stroke="black" stroke-miterlimit="10"/>
<path d="M92.0404 35.7699L59.6004 52.9599L57.9004 47.3899L90.3304 30.1899L92.0404 35.7699Z" fill="white" stroke="black" stroke-miterlimit="10"/>
</g>
<g clip-path="url(#clip1_515_440)">
<path d="M615.736 295.181C615.994 294.807 616.246 294.434 616.476 294.046L619.902 288.328C619.673 288.715 619.421 289.096 619.162 289.463C619.076 289.585 618.976 289.707 618.89 289.822C618.71 290.066 618.53 290.31 618.336 290.54C618.092 290.842 617.833 291.136 617.568 291.417C617.503 291.488 617.438 291.553 617.374 291.618C617.158 291.84 616.935 292.063 616.706 292.279C616.619 292.365 616.526 292.444 616.44 292.53C616.188 292.76 615.93 292.983 615.664 293.198C615.614 293.241 615.556 293.292 615.506 293.335C615.19 293.593 614.859 293.838 614.522 294.075C614.428 294.139 614.335 294.204 614.249 294.261C613.983 294.441 613.717 294.621 613.444 294.786C613.336 294.851 613.229 294.922 613.121 294.987C612.783 295.188 612.431 295.389 612.079 295.576C612.05 295.59 612.022 295.605 611.993 295.626C611.605 295.828 611.21 296.022 610.8 296.208C610.685 296.259 610.563 296.309 610.448 296.366C610.139 296.503 609.823 296.632 609.5 296.761C609.378 296.812 609.256 296.862 609.127 296.905C608.696 297.063 608.257 297.221 607.805 297.365C607.783 297.372 607.754 297.379 607.726 297.386C607.302 297.523 606.864 297.645 606.418 297.76C606.282 297.796 606.138 297.832 606.002 297.868C605.642 297.954 605.276 298.04 604.91 298.119C604.773 298.148 604.644 298.177 604.507 298.205C604.019 298.306 603.523 298.392 603.02 298.471C602.625 298.529 602.223 298.579 601.821 298.622C601.627 298.644 601.44 298.672 601.253 298.694C600.65 298.759 600.039 298.809 599.414 298.838C598.674 298.881 597.934 298.895 597.18 298.902C596.928 298.902 596.677 298.895 596.433 298.888C595.93 298.888 595.427 298.874 594.924 298.852C594.622 298.838 594.32 298.816 594.026 298.795C593.566 298.766 593.106 298.73 592.639 298.687C592.316 298.658 592 298.615 591.677 298.579C591.231 298.529 590.786 298.471 590.333 298.407C590.003 298.356 589.673 298.306 589.342 298.256C588.897 298.184 588.458 298.112 588.013 298.026C587.683 297.961 587.345 297.897 587.014 297.832C586.569 297.738 586.124 297.645 585.685 297.537C585.355 297.458 585.025 297.386 584.687 297.3C584.234 297.185 583.789 297.07 583.336 296.941C583.013 296.855 582.69 296.769 582.366 296.668C581.9 296.532 581.433 296.388 580.966 296.237C580.664 296.144 580.355 296.05 580.053 295.95C579.543 295.777 579.033 295.598 578.523 295.411C578.264 295.318 578.006 295.231 577.754 295.131C577.05 294.865 576.339 294.585 575.642 294.29C575.585 294.269 575.527 294.247 575.477 294.226C574.723 293.909 573.968 293.579 573.221 293.227C572.984 293.119 572.747 292.997 572.503 292.882C571.993 292.638 571.49 292.401 570.987 292.142C570.7 291.999 570.412 291.84 570.125 291.697C569.68 291.46 569.227 291.23 568.782 290.986C568.48 290.82 568.178 290.648 567.876 290.476C567.453 290.238 567.036 289.994 566.619 289.743C566.318 289.563 566.009 289.376 565.707 289.19C565.262 288.917 564.816 288.636 564.371 288.349C564.184 288.227 564.004 288.112 563.818 287.99C563.171 287.566 562.532 287.128 561.899 286.682C561.353 286.295 560.815 285.899 560.276 285.49C560.111 285.368 559.953 285.238 559.787 285.116C559.407 284.822 559.033 284.527 558.66 284.233C558.487 284.096 558.315 283.96 558.142 283.816C557.74 283.486 557.345 283.155 556.95 282.817C556.835 282.717 556.713 282.624 556.598 282.523C556.095 282.092 555.606 281.647 555.118 281.201C555.039 281.129 554.967 281.057 554.888 280.986C554.277 280.411 553.674 279.836 553.085 279.24C553.02 279.175 552.955 279.111 552.891 279.046C552.295 278.435 551.713 277.817 551.152 277.192C551.045 277.078 550.944 276.963 550.836 276.84C550.283 276.223 549.751 275.59 549.234 274.958C549.141 274.843 549.055 274.736 548.968 274.621C548.437 273.953 547.92 273.284 547.424 272.602C547.244 272.358 547.072 272.106 546.899 271.855C546.77 271.668 546.626 271.474 546.497 271.287C546.318 271.029 546.152 270.763 545.98 270.497C545.858 270.31 545.736 270.131 545.614 269.944C545.434 269.657 545.262 269.362 545.082 269.075C544.981 268.909 544.881 268.744 544.78 268.579C544.514 268.119 544.256 267.659 544.004 267.2C539.744 259.305 538.818 251.884 540.728 245.856C541.167 244.463 541.763 243.148 542.496 241.919L539.069 247.638C535.147 254.218 535.341 263.227 540.585 272.94C540.836 273.399 541.095 273.859 541.361 274.319C541.454 274.477 541.555 274.635 541.648 274.793C541.828 275.088 542 275.389 542.187 275.677C542.295 275.856 542.417 276.029 542.532 276.201C542.711 276.474 542.884 276.747 543.07 277.02C543.2 277.207 543.329 277.394 543.458 277.573C543.631 277.825 543.803 278.076 543.983 278.32C543.983 278.32 543.99 278.328 543.997 278.335C544.493 279.017 545.01 279.685 545.542 280.353C545.628 280.468 545.721 280.576 545.807 280.691C546.325 281.33 546.864 281.955 547.41 282.573C547.517 282.688 547.618 282.81 547.726 282.925C548.293 283.55 548.868 284.168 549.464 284.779C549.529 284.843 549.593 284.908 549.658 284.973C550.247 285.562 550.843 286.144 551.461 286.718C551.512 286.769 551.562 286.819 551.612 286.862C551.641 286.884 551.67 286.912 551.691 286.934C552.172 287.379 552.668 287.825 553.171 288.256C553.286 288.356 553.401 288.45 553.523 288.55C553.918 288.888 554.313 289.218 554.716 289.549C554.888 289.685 555.053 289.822 555.226 289.958C555.599 290.26 555.973 290.555 556.353 290.842C556.519 290.964 556.677 291.093 556.842 291.215C557.374 291.618 557.92 292.02 558.466 292.408C559.098 292.853 559.737 293.292 560.384 293.715C560.57 293.838 560.75 293.96 560.937 294.075C561.152 294.211 561.361 294.355 561.576 294.491C561.806 294.635 562.036 294.772 562.259 294.908C562.56 295.095 562.869 295.282 563.171 295.468C563.588 295.72 564.012 295.957 564.428 296.201C564.73 296.374 565.032 296.546 565.333 296.711C565.779 296.955 566.224 297.193 566.67 297.422C566.957 297.573 567.244 297.724 567.532 297.875C568.035 298.126 568.537 298.371 569.04 298.608C569.277 298.723 569.522 298.845 569.759 298.953C570.506 299.297 571.26 299.628 572.014 299.951C572.072 299.973 572.129 299.994 572.187 300.023C572.884 300.31 573.588 300.59 574.292 300.856C574.55 300.95 574.809 301.043 575.068 301.136C575.578 301.323 576.088 301.503 576.598 301.675C576.899 301.776 577.201 301.869 577.51 301.963C577.977 302.113 578.444 302.257 578.911 302.394C579.234 302.487 579.558 302.573 579.881 302.667C580.333 302.789 580.779 302.911 581.231 303.026C581.562 303.112 581.892 303.184 582.23 303.263C582.675 303.363 583.121 303.464 583.559 303.557C583.897 303.629 584.227 303.694 584.558 303.751C585.003 303.838 585.441 303.909 585.887 303.981C586.217 304.032 586.547 304.089 586.878 304.132C587.323 304.197 587.776 304.247 588.221 304.305C588.545 304.341 588.861 304.384 589.184 304.412C589.644 304.455 590.111 304.491 590.57 304.52C590.872 304.542 591.174 304.563 591.468 304.578C591.971 304.599 592.474 304.606 592.977 304.613C593.229 304.613 593.48 304.628 593.724 304.628C594.471 304.628 595.218 304.606 595.958 304.563C596.583 304.527 597.194 304.477 597.798 304.42C597.999 304.398 598.193 304.369 598.387 304.348C598.782 304.297 599.177 304.254 599.565 304.197C599.579 304.197 599.601 304.197 599.615 304.197C600.104 304.118 600.585 304.032 601.059 303.938C601.196 303.909 601.325 303.881 601.461 303.852C601.828 303.773 602.194 303.687 602.553 303.601C602.697 303.565 602.833 303.529 602.97 303.493C603.415 303.378 603.854 303.249 604.277 303.119C604.306 303.112 604.328 303.105 604.356 303.098C604.809 302.954 605.247 302.803 605.678 302.638C605.8 302.595 605.923 302.545 606.045 302.494C606.368 302.372 606.684 302.236 606.993 302.099C607.108 302.049 607.23 301.999 607.345 301.941C607.74 301.761 608.135 301.575 608.516 301.374C608.516 301.374 608.53 301.374 608.537 301.366C608.566 301.352 608.595 301.338 608.624 301.316C608.983 301.129 609.328 300.928 609.665 300.727C609.773 300.662 609.881 300.598 609.989 300.526C610.262 300.353 610.535 300.181 610.793 300.001C610.887 299.937 610.98 299.879 611.066 299.815C611.404 299.578 611.734 299.326 612.058 299.075C612.115 299.032 612.165 298.988 612.216 298.938C612.481 298.723 612.74 298.5 612.992 298.27C613.085 298.191 613.171 298.105 613.257 298.019C613.487 297.803 613.71 297.58 613.925 297.351C613.99 297.286 614.055 297.214 614.119 297.149C614.371 296.884 614.608 296.611 614.838 296.33C614.852 296.309 614.867 296.287 614.888 296.266C615.082 296.029 615.262 295.784 615.441 295.54C615.527 295.418 615.628 295.303 615.714 295.181H615.736Z" fill="#0085BF" stroke="black" stroke-miterlimit="10"/>
<path d="M618.386 263.055C628.436 281.668 619.938 297.696 599.392 298.845C587.05 299.535 573.17 294.7 561.884 286.697C554.377 281.374 548.019 274.657 544.004 267.222C533.953 248.601 542.459 232.573 562.998 231.424C575.34 230.734 589.212 235.569 600.505 243.572C608.012 248.895 614.377 255.619 618.386 263.048V263.055Z" fill="#00B1FF" stroke="black" stroke-miterlimit="10"/>
<path d="M583.133 270.296L609.649 285.418L611.085 282.71L611.61 282.379L584.814 267.114L583.133 270.296Z" fill="black"/>
<path d="M565.834 284.815L570.755 287.624L579.85 270.49L574.922 267.674L565.834 284.815Z" fill="black"/>
<path d="M587.365 244.082L578.277 261.223L583.198 264.025L592.293 246.891L587.365 244.082Z" fill="black"/>
<path d="M548.407 246.316L574.93 261.445L573.242 264.635L546.719 249.506L548.407 246.316Z" fill="black"/>
<path d="M585.289 269.578L611.805 284.7L613.241 281.992L613.766 281.661L586.97 266.395L585.289 269.578Z" fill="white" stroke="black" stroke-miterlimit="10"/>
<path d="M567.99 284.096L572.911 286.905L582.006 269.772L577.078 266.956L567.99 284.096Z" fill="white" stroke="black" stroke-miterlimit="10"/>
<path d="M589.519 243.364L580.432 260.504L585.353 263.306L594.447 246.172L589.519 243.364Z" fill="white" stroke="black" stroke-miterlimit="10"/>
<path d="M550.563 245.598L577.086 260.727L575.398 263.917L548.875 248.787L550.563 245.598Z" fill="white" stroke="black" stroke-miterlimit="10"/>
</g>
<path d="M260.836 567.105L260.468 567.197L260.325 567.548L247.492 598.871L229.72 531.948L293.78 558.851L260.836 567.105Z" fill="#C9FF00" stroke="black" stroke-width="1.5"/>
<path d="M499.701 167.411V161.285C501.765 161.228 503.35 160.765 504.417 159.67C505.558 158.499 505.94 156.775 505.94 154.644V148.259C505.94 143.484 507.313 140.963 509.467 139.567C511.566 138.205 514.558 137.8 518.282 137.754V142.602C516.229 142.693 514.753 143.18 513.804 144.253C512.763 145.429 512.531 147.126 512.531 149.088V156.837C512.531 158.292 512.225 159.567 511.328 160.614C510.423 161.671 508.824 162.603 506.016 163.169L505.415 163.291V163.905V164.733V165.348L506.018 165.469C508.851 166.035 510.447 166.967 511.345 168.022C512.235 169.067 512.531 170.34 512.531 171.8V179.55C512.531 181.541 512.776 183.246 513.82 184.432C514.772 185.514 516.245 186.014 518.282 186.126V190.981C514.538 190.934 511.545 190.518 509.445 189.146C507.288 187.737 505.915 185.201 505.891 180.426V174.043C505.891 171.929 505.494 170.202 504.311 169.026C503.258 167.98 501.714 167.502 499.701 167.411Z" fill="#C9FF00" stroke="black" stroke-width="1.5"/>
<path d="M558.353 140.382L545.403 188.402H538.67L551.621 140.382H558.353Z" fill="#004FFF" stroke="black" stroke-width="1.5"/>
<path d="M591.612 159.631C592.666 160.719 594.237 161.195 596.3 161.279V167.46C594.29 167.548 592.746 168.014 591.691 169.055C590.506 170.226 590.11 171.956 590.11 174.091V180.476C590.11 185.25 588.737 187.772 586.576 189.175C584.47 190.543 581.466 190.959 577.719 191.025V186.182C579.772 186.091 581.251 185.603 582.2 184.515C583.239 183.326 583.47 181.606 583.47 179.599V171.849C583.47 170.394 583.776 169.12 584.673 168.072C585.578 167.015 587.177 166.083 589.984 165.517L590.586 165.396V164.782V163.953V163.338L589.983 163.218C587.15 162.651 585.554 161.719 584.656 160.665C583.766 159.619 583.47 158.346 583.47 156.886V149.136C583.47 147.147 583.225 145.45 582.176 144.279C581.222 143.216 579.748 142.74 577.719 142.651V137.754C581.465 137.799 584.458 138.205 586.559 139.567C588.713 140.964 590.086 143.485 590.11 148.261V154.644C590.11 156.748 590.479 158.46 591.612 159.631Z" fill="#C9FF00" stroke="black" stroke-width="1.5"/>
<path d="M157.995 94L166.156 121.844L194 129.995L166.156 138.156L157.995 166L149.844 138.156L122 129.995L149.844 121.844L157.995 94Z" fill="black"/>
<g clip-path="url(#clip2_515_440)">
<path d="M374.06 426.16C369.31 426.16 366.11 422.49 364.55 415.25C364.14 412.78 363.78 409.78 363.46 407.07C360.85 410.57 357.91 414.78 355.45 418.54L353.02 422.26L352.72 417.82C352.43 413.6 352.36 408.06 352.32 403.2V402.78L352.54 402.42C365.74 380.68 378.71 371.02 395.6 359.75L397.95 358.18L397.92 361C397.8 371.89 398.1 374.16 399.78 386.76C400.08 389.05 400.59 392.88 399.38 398.33C397.48 406.88 391.65 415.83 384.14 421.71C380.38 424.66 376.99 426.15 374.07 426.15L374.06 426.16ZM377.74 401.74C377.8 402.02 378.01 402.87 378.35 402.87C378.69 402.87 379.26 402.61 379.78 402.21C381.5 400.92 382.87 398.65 383.19 396.56C383.29 395.87 383.29 395.63 382.35 387.95L376.65 392.83L377.74 401.74Z" fill="black"/>
<path d="M375.751 488.51L377.071 487.82L375.741 488.5C369.891 477.21 365.271 468.3 360.121 453L359.881 452.28L360.321 451.66C368.311 440.47 376.571 428.9 403.261 409.17L404.871 407.98L405.551 409.86C407.441 415.08 409.621 421.04 411.471 425.53L411.901 426.57L411.011 427.27C399.921 436 389.431 444.25 377.691 457.6C380.711 464.09 384.331 471.48 387.051 476.66L387.521 477.55L386.871 478.32C383.811 481.92 380.621 485.69 378.251 488.74L376.821 490.57L375.751 488.51Z" fill="black"/>
<path d="M418.13 544.46C413.71 539.9 407.94 533.54 403.89 529.01L403.26 528.3L406.01 521.85C402.11 516.94 397.05 510.27 392.74 504.36L387.23 507.18L386.5 506.05C383.23 501.03 379.08 494.14 376.18 489.25L375.34 487.84L376.82 487.14C395.79 478.18 411.43 471.86 431.23 463.86L432.32 463.42L433 464.37C436.72 469.55 442.31 476.92 447.23 483.14L447.84 483.91L447.38 484.77C431.56 514.27 426.71 526.78 420.61 543.9L419.8 546.16L418.13 544.44V544.46ZM407.62 496.96C409.22 499.13 411.11 501.58 412.81 503.79C413.15 504.23 413.48 504.67 413.81 505.09C415.97 500.71 417.11 498.62 421.8 490.21C418.27 491.88 416.01 492.96 407.62 496.96Z" fill="black"/>
<path d="M439.291 562.58C435.051 559.12 428.651 553.9 424.051 549.86L422.811 548.77L424.021 547.65C431.951 540.32 432.911 539.44 438.881 533.68C442.191 515.51 443.571 509.09 449.061 489.36L449.761 486.86L451.571 488.72C454.391 491.62 461.571 498.95 467.171 504.25L467.821 504.87L467.581 505.74C463.731 519.46 463.311 520.97 461.761 527.31C474.741 523.12 476.031 522.67 484.161 519.46L484.921 519.16L485.581 519.64C489.611 522.54 497.261 527.98 503.141 531.83L505.581 533.42L502.861 534.46C491.631 538.77 478.901 543.66 466.081 546.62C465.071 546.85 463.971 547.02 462.811 547.2C460.601 547.54 458.321 547.89 456.731 548.68C447.361 557.35 446.771 557.9 441.191 562.58L440.251 563.37L439.291 562.59V562.58Z" fill="black"/>
<path d="M662.841 502.04C662.181 502.92 659.991 506.08 659.511 509.78L658.231 518.54L664.761 510.39C665.634 504.41 666.068 501.25 666.061 500.91C666.061 500.6 665.951 499.13 664.521 500.21C663.981 500.62 663.301 501.42 662.841 502.03M661.701 488.55C668.431 479.86 672.661 477.93 673.621 483.12C674.241 486.49 673.471 496.65 668.811 510.81C659.771 526.47 651.481 538.75 627.121 554.3C628.271 550.49 629.791 545.4 630.641 541.51C635.691 538.08 642.311 533.33 647.081 529.51C647.531 526.35 648.241 522.15 648.531 518.97C649.681 508.59 654.121 498.36 661.711 488.55" fill="black"/>
<path d="M623.881 475.03C627.341 486.2 630.071 495.02 631.731 509.35C648.191 497.44 660.811 487.37 673.391 466.22C672.741 461.73 671.871 455.75 670.981 451.3C664.751 460.95 658.871 470.07 642.941 483.79C641.441 477.85 639.261 469.98 637.421 464.14C633.401 467.46 628.031 471.87 623.881 475.03Z" fill="black"/>
<path d="M632.77 434.92C638.156 425.593 641.96 418.517 644.18 413.69C633.63 419.33 632.77 419.79 626.35 422.92C628.29 426.52 630.95 431.27 632.77 434.92ZM604.09 433.65C600.84 428.65 596.46 422.02 593.01 417.16C612.27 408.95 628.9 401.85 647.19 393.06C650.45 398.83 654.65 406.61 657.61 412.54C649.82 434.84 643.37 448.35 623.64 474.33C621.68 469.22 619 462.41 616.8 457.4L622.54 449.93C619.48 443.88 615.24 435.89 611.88 430.01L604.09 433.66" fill="black"/>
<path d="M590.711 373.54C579.911 384.33 579.491 384.75 572.051 392.08C575.901 396.36 581.041 402.07 584.741 406.49C595.961 395.89 596.881 395.03 603.691 388.28C618.951 385.4 623.641 384.56 640.431 382.45C636.801 377.36 631.901 370.61 628.061 365.68C617.091 367.64 615.681 367.89 608.641 369.44C610.647 360.107 611.991 353.023 612.671 348.19C607.981 343.56 601.671 337.44 596.791 333C594.311 362.42 590.741 373.48 590.711 373.54Z" fill="black"/>
<path d="M508.9 300.1C508.43 300.6 506.3 303.19 510.42 304.99L520.76 309.39L528.23 302.66C520.87 299.527 516.913 297.923 516.36 297.85C511.95 297.27 509.54 299.42 508.9 300.1ZM491.51 296.17C508.98 278.12 533.16 291.23 554.48 302.79C544.17 310.95 533.51 319.39 512.2 345.01C507.44 342.51 501.1 339.18 496.24 336.88C500.23 331.94 505.63 325.42 509.81 320.63C506.1 319.06 501.2 316.89 497.44 315.45C481.68 308.79 488.04 299.74 491.5 296.16" fill="black"/>
<path d="M427.231 321.27C437.501 321.38 445.621 321.47 460.471 324.65C472.621 308.13 482.781 295.44 502.931 282.49C498.411 281.64 492.381 280.52 487.821 279.91C478.021 286.22 468.771 292.17 455.431 308.3C449.911 307.88 442.521 307.5 436.981 307.49C433.981 311.57 429.991 317.03 427.221 321.28" fill="black"/>
<path d="M398.291 386.97C396.601 374.28 396.301 372 396.421 361C379.701 372.16 366.851 381.72 353.811 403.2C353.851 407.56 353.911 413.38 354.211 417.73C357.121 413.27 361.221 407.44 364.511 403.25C364.951 406.76 365.441 411.45 366.021 414.94C368.931 428.43 376.981 425.44 383.221 420.55C390.461 414.88 396.101 406.25 397.921 398.02C399.071 392.82 398.581 389.16 398.291 386.96V386.97ZM384.661 396.8C384.281 399.28 382.711 401.88 380.671 403.41C379.831 404.04 377.041 405.8 376.271 401.99L375.081 392.23L383.501 385.03C384.381 392.23 384.771 396.157 384.671 396.81L384.661 396.8Z" fill="#F93AC3"/>
<path d="M410.081 426.09C408.161 421.43 405.861 415.1 404.141 410.36C377.651 429.95 369.451 441.42 361.531 452.52C366.651 467.71 371.241 476.59 377.071 487.82C379.571 484.6 383.091 480.46 385.731 477.35C382.631 471.43 378.731 463.41 375.931 457.35C388.011 443.46 398.731 435.03 410.081 426.1V426.09Z" fill="#F93AC3"/>
<path d="M431.791 465.26C412.001 473.26 396.371 479.58 377.461 488.51C380.471 493.58 384.531 500.31 387.751 505.26L393.201 502.47C397.431 508.31 403.231 515.99 407.731 521.63L405.011 528.02C409.201 532.7 414.841 538.91 419.211 543.42C425.331 526.24 430.201 513.68 446.071 484.09C441.671 478.53 435.931 471.02 431.801 465.26H431.791ZM414.091 507.9C411.461 504.45 407.891 499.91 405.361 496.38C413.888 492.314 420.561 489.144 425.381 486.87C417.861 500.32 417.411 501.12 414.091 507.9Z" fill="#F93AC3"/>
<path d="M502.331 533.07C496.951 529.55 489.941 524.6 484.711 520.84C476.031 524.27 475.111 524.57 459.681 529.54C461.108 523.694 463.264 515.624 466.151 505.33C461.341 500.78 455.121 494.51 450.511 489.76C444.991 509.6 443.641 515.94 440.271 534.42C434.011 540.46 433.161 541.24 425.041 548.74C429.501 552.66 435.631 557.67 440.241 561.42C445.811 556.75 446.381 556.22 455.871 547.43C458.561 546.01 462.791 545.83 465.751 545.15C478.471 542.22 491.141 537.35 502.331 533.05V533.07Z" fill="#F93AC3"/>
<path d="M517.001 601.58C512.271 600.35 506.081 598.43 501.561 597.02L498.551 596.08L501.191 594.35C520.711 581.55 531.231 569.13 543.951 552.99L544.591 552.17L545.581 552.49C557.431 556.37 559.711 556.82 572.361 559.34C576.951 560.25 578.691 561.3 580.661 563.17C582.041 564.48 582.821 566.46 582.841 568.75C582.871 571.77 581.611 576.65 575.461 582.68C572.701 585.39 562.561 594.22 547.751 594.22C546.251 594.22 544.721 594.13 543.211 593.95C540.561 593.51 537.361 592.83 534.531 592.22C533.661 592.03 532.821 591.85 532.021 591.69C528.151 594.63 522.801 598.38 518.181 601.37L517.631 601.73L517.001 601.57V601.58ZM552.901 580.37C553.191 580.41 553.491 580.43 553.781 580.43C556.891 580.43 559.141 578.39 559.561 577.98C560.641 576.93 560.991 576.08 560.961 575.66C560.961 575.56 560.931 575.49 560.811 575.4C560.381 575.16 557.961 574.65 550.921 573.17L545.731 578.86L552.901 580.36V580.37Z" fill="black"/>
<path d="M549.882 602.84C564.552 594.05 576.212 585.95 592.802 561.65L593.212 561.05L593.942 561.01C597.922 560.78 603.382 560.46 607.422 559.95L610.712 559.53L608.832 562.27C601.852 572.45 595.212 582.14 582.902 592.32C586.392 591.51 589.792 590.63 592.412 589.85C596.152 588.35 600.732 585.4 606.032 581.08C608.542 578.14 611.972 573.98 614.252 570.7L614.502 570.34L614.912 570.17C617.112 569.27 618.762 568.58 620.222 567.94C629.292 558.7 636.352 550.09 636.422 550.01L636.562 549.84L636.742 549.72C640.172 547.39 644.872 543.73 648.742 540.4L652.472 539.75C651.722 541.36 647.522 547.35 642.762 552.79C617.372 587.19 588.112 597.99 582.352 599.84L582.072 599.96C581.672 600.12 581.282 600.28 580.932 600.43L580.912 600.39C580.732 600.47 580.562 600.55 580.382 600.62L580.312 600.65L580.232 600.67C571.362 603.22 564.362 605.24 550.682 605.6L545.012 605.75L549.882 602.83V602.84Z" fill="black"/>
<path d="M579.642 564.26C577.842 562.56 576.332 561.66 572.082 560.82C559.352 558.29 557.062 557.83 545.122 553.92C532.312 570.17 521.722 582.68 502.012 595.6C506.602 597.03 512.732 598.93 517.382 600.14C521.772 597.29 527.512 593.3 531.672 590.11C535.192 590.84 539.862 591.9 543.402 592.49C559.932 594.47 571.332 584.68 574.432 581.64C582.922 573.3 582.202 566.68 579.652 564.27L579.642 564.26ZM560.602 579.04C560.022 579.61 556.902 582.4 552.652 581.83L542.872 579.78L550.402 571.53C557.568 573.037 561.335 573.923 561.702 574.19C563.032 575.17 562.592 577.11 560.612 579.04H560.602Z" fill="#F93AC3"/>
<path d="M649.711 541.53C646.221 544.54 641.391 548.36 637.581 550.95C637.581 550.95 630.411 559.71 621.081 569.19C619.421 569.92 617.581 570.69 615.481 571.55C613.171 574.88 609.721 579.06 607.091 582.14H607.101C602.131 586.2 597.201 589.55 592.901 591.26C588.161 592.68 581.731 594.18 576.871 595.14C592.391 583.61 599.781 572.83 607.601 561.42C603.551 561.93 598.101 562.25 594.021 562.49C577.261 587.04 565.461 595.23 550.641 604.11C564.131 603.75 571.051 601.76 579.811 599.24C580.211 599.08 580.621 598.88 581.031 598.69C580.791 598.81 580.581 598.93 580.341 599.06C580.801 598.86 581.321 598.65 581.831 598.45C587.011 596.79 616.261 586.19 641.591 551.86C645.781 547.08 648.971 543.12 649.711 541.53Z" fill="#F93AC3"/>
<path d="M452.74 281.04C452.74 281.04 447.89 281.89 440.18 284.74C439.17 285.08 438.19 285.41 437.28 285.73C437 285.88 436.75 286.03 436.48 286.19C418.74 293.43 389.93 310.13 367.7 346.69C367.04 347.75 366.41 348.78 365.85 349.74C368.33 346.93 371.64 343.17 374.37 340.59C376.06 337.85 377.38 335.7 378.5 333.92C380.92 331.18 383.66 328.22 386.72 325.11C387.87 324.53 389.05 324.03 390.25 323.61C387.36 327.14 384.44 330.94 381.34 335.12C384.76 332.95 389.53 330.42 393.14 328.58L398.59 321.42C399.12 321.31 399.65 321.2 400.19 321.08C400.28 320.9 400.39 320.71 400.48 320.53C404.91 319.01 410.36 317.41 414.61 316.32L411.91 322.88C416.29 322.2 422.19 321.65 426.6 321.29C434.1 300.22 439.72 291.57 452.74 281.05V281.04ZM420.95 304.59C418.48 306.26 414.28 306.6 411.42 307.48C415.853 303.3 422.646 297.917 431.8 291.33C427.7 295.19 427.58 295.37 420.95 304.58V304.59Z" fill="black"/>
<path d="M453.872 330.73C443.242 318.05 431.502 305.09 418.982 292.22C406.092 278.97 392.392 265.82 378.252 253.14L377.172 252.17L378.112 251.06C384.472 243.51 390.662 235.9 396.502 228.42C396.952 227.84 398.812 225.45 398.812 225.45L400.012 226.47C414.492 238.86 428.392 251.9 441.332 265.2C447.772 271.82 454.012 278.55 459.902 285.22C469.292 273.07 477.922 261.13 485.562 249.71L486.672 248.05L487.962 249.57C493.052 255.59 497.942 261.76 502.502 267.9L503.132 268.75L502.542 269.63C494.312 281.94 484.932 294.84 474.652 307.98C468.772 315.49 462.562 323.15 456.172 330.73L455.022 332.09L453.872 330.72V330.73Z" fill="black"/>
<path d="M365.422 113.52C378.982 105.31 391.992 98.33 404.172 92.8C408.682 96.61 413.142 100.59 417.542 104.76C405.552 110.2 392.772 117.04 379.452 125.07C382.692 128.18 385.912 131.38 389.112 134.67C391.562 137.19 393.982 139.74 396.362 142.32C409.692 134.29 422.482 127.45 434.472 122C438.972 126.93 443.322 131.98 447.512 137.14C435.322 142.67 422.312 149.66 408.742 157.87C413.952 164.06 418.982 170.38 423.822 176.83C444.512 164.31 463.882 154.69 480.972 148.75C470.782 133.83 459.282 119.69 446.522 106.56C433.382 93.05 419.522 81.27 405.172 71.21C388.102 77.14 368.752 86.74 348.092 99.25C353.902 103.72 359.682 108.48 365.432 113.51" fill="black"/>
<path d="M354.142 226C351.412 199.53 351.062 196.13 349.342 182.44C376.992 190.68 378.642 191.18 393.422 196.65C402.482 190.34 411.392 184.48 420.092 179.11C399.632 171.15 383.472 164.86 351.682 156.61C349.022 138.15 346.512 120.71 342.442 102.73C333.752 108.15 324.862 114.05 315.822 120.39C317.872 130.69 320.452 144.45 322.272 154.8C309.832 152.15 293.182 148.87 280.652 146.67C271.332 154.05 261.952 161.8 252.592 169.85C272.702 172.35 293.502 174.94 319.512 180.51C322.312 206.78 322.542 208.93 326.152 249.28C335.482 241.2 344.842 233.43 354.142 226.01" fill="black"/>
<path d="M215.26 253.5C217.11 255.03 223.88 259.33 233.42 250.47C239.74 244.19 246.13 238.01 252.57 231.94C246.81 226.04 241.18 220.3 235.68 214.73C229.28 220.76 222.93 226.9 216.65 233.14C207.68 242.69 211.55 250.43 215.25 253.5M194.07 279.55C191.17 277.07 166.69 254.32 198.37 220.21C213.14 205.42 228.31 191.15 243.6 177.67C255.72 189.2 268.41 201.75 281.55 215.26C294.31 228.38 306.91 241.8 319.21 255.33C311.34 262.28 303.49 269.43 295.71 276.76C287.02 267.63 278.26 258.48 269.47 249.39C262 256.42 254.6 263.61 247.3 270.93C219.99 296.49 200.97 285.48 194.06 279.56" fill="black"/>
<path d="M184.63 402.15C190.17 394.38 196.16 386.38 202.57 378.18C212.55 365.41 223.15 352.71 234.19 340.21C220.78 327.79 207.6 314.95 194.84 301.83C181.7 288.32 169.63 275.16 158.68 262.46C151.58 270.5 144.66 278.62 137.98 286.79C148.65 299.82 160.57 313.17 173.71 326.67C180.65 333.8 187.75 340.8 194.98 347.65C191.22 352.24 187.54 356.84 183.93 361.45C177.42 369.77 171.36 377.88 165.74 385.76C171.91 391.39 178.21 396.86 184.63 402.16" fill="black"/>
<path d="M104.871 436.63C109.491 440.81 125.371 453.14 135.791 436.16C148.811 408.51 117.391 375.42 100.041 382.51C85.7805 388.34 82.1405 416.04 104.861 436.63M100.161 456.24C80.8005 438.98 59.4605 401.07 80.0105 367.37C108.881 330.13 155.311 368.58 161.741 410.72C167.761 450.11 142.311 488.54 104.591 459.9C103.221 458.86 101.451 457.39 100.161 456.24Z" fill="black"/>
<path d="M77.861 474.81C81.681 479.15 84.211 480.58 84.311 478.45C84.311 478.3 84.301 478.11 84.291 477.96C83.991 474.99 83.991 471.77 84.271 468.32C78.651 462.23 73.381 455.97 68.461 449.57C68.181 453 68.181 456.2 68.481 459.15C69.231 463.97 74.941 471.5 77.861 474.81ZM131.221 521.96C132.031 525.82 133.431 529.17 135.431 531.97C114.021 514.32 112.731 513.26 100.731 500.39C94.011 501.6 58.801 458.26 55.421 441.68C54.451 434.79 55.181 426.43 57.611 416.77C67.201 431.61 78.561 445.9 91.691 459.41C104.451 472.53 118.311 484.31 133.011 494.7C131.761 499.67 130.961 504.3 130.601 508.57C120.451 501.53 110.701 493.79 101.451 485.36C101.271 487.58 101.201 489.7 101.261 491.72C109.901 501.12 124.941 510.83 131.221 521.95" fill="black"/>
<path d="M140.901 536.62C131.451 530.24 122.341 523.19 113.631 515.46C122.311 522.57 134.051 531.88 143.191 538.4C142.381 537.85 141.621 537.26 140.901 536.63" fill="black"/>
<path d="M492.421 97.31C487.851 93.06 484.901 90.54 482.531 88.52C488.691 94.17 497.041 101.59 502.921 107.53L506.171 110.92L505.101 109.79C502.031 106.64 497.841 102.34 492.431 97.31M539.051 153.21C537.801 151.24 536.291 149.53 534.501 148.06C531.071 142.55 526.491 135.2 522.621 130.01L534.881 146.83L539.061 153.21" fill="black"/>
<path d="M438.92 79.3599C449.15 76.9099 457.76 76.2299 464.77 77.1899C469.43 80.9599 474 84.9199 478.47 89.0699C471.59 88.1299 463.18 88.7599 453.21 91.0799C456.51 94.1599 459.76 97.3499 462.96 100.64C465.41 103.16 467.81 105.72 470.16 108.31C480.13 105.98 488.55 105.36 495.43 106.3C499.88 111.24 504.12 116.32 508.15 121.51C501.14 120.55 492.52 121.23 482.29 123.68C487.26 129.97 491.97 136.45 496.4 143.07C511.97 139.34 523.73 139.78 531.76 143.85C522.21 128.89 511.05 114.72 498.29 101.6C485.15 88.0899 470.93 76.3399 455.9 66.3199C447.88 62.2499 436.12 61.8099 420.58 65.5399C426.81 69.8199 432.93 74.4199 438.92 79.3499" fill="black"/>
<path d="M268.45 497.05C266.79 487.38 265.36 479.03 263.66 466.97C262.53 458.89 261.36 449.79 260.1 439.19C256.89 438.34 253.66 437.49 250.4 436.62C234.1 432.25 216.21 427.12 195.87 419.32L193.16 418.28L195.58 416.67C204.39 410.8 213.46 404.42 222.55 397.7L223.17 397.24L223.91 397.48C231.74 400.04 241.44 403.08 251.23 406.04C255.85 407.43 259.44 408.49 262.52 409.39C262.02 405.69 261.49 401.68 260.96 397.56C259.8 388.78 258.56 379.16 257.55 371.17L257.45 370.35L258.08 369.82C267.53 361.99 276.96 353.86 286.09 345.66L288.29 343.68L288.58 346.63C291.49 375.85 292.82 389.2 293.63 397.21C294.2 402.68 294.52 405.66 294.94 409.49L295.13 411.23C310.04 413.9 323 416.22 340.23 418.45C347.95 419.45 356.04 420.38 364.96 421.28L368.32 421.62L365.82 423.88C357.71 431.21 349.36 438.48 341.01 445.5C339.94 446.4 338.87 447.3 337.79 448.2L337.21 448.68L336.51 448.51L336.27 448.48C311.79 444.81 307.39 444.16 295.14 441.68L293.1 441.27C295.03 454.73 295.95 461.1 296.79 466.5C297.38 470.24 297.92 473.51 298.67 477.89L298.83 478.8L298.08 479.35C288.83 486.14 279.66 492.55 270.82 498.38L268.9 499.64L268.45 497.02V497.05Z" fill="black"/>
<path d="M364.8 422.79C356.58 430.22 348.3 437.43 340.03 444.38C338.96 445.28 337.89 446.18 336.82 447.07C336.78 447.07 336.74 447.07 336.7 447.05H336.68C336.6 447.04 336.52 447.03 336.44 447.02C311.85 443.34 307.64 442.71 295.43 440.24C295.38 440.23 295.32 440.22 295.27 440.21C294.04 439.96 292.73 439.69 291.31 439.4C293.45 454.31 294.42 461.08 295.31 466.76C295.88 470.4 296.41 473.58 297.19 478.17C287.99 484.93 278.9 491.28 269.99 497.16C268.32 487.43 266.86 478.95 265.14 466.76C264.06 459.07 262.87 449.9 261.46 438C257.93 437.07 254.37 436.13 250.78 435.17C234.04 430.68 216.47 425.62 196.4 417.92C205.26 412.02 214.29 405.67 223.43 398.91C231.51 401.55 241.43 404.65 250.78 407.48C255.54 408.91 260.15 410.28 264.3 411.47C263.72 407.16 263.08 402.34 262.43 397.37C261.24 388.34 260.01 378.82 259.02 370.99C268.38 363.24 277.76 355.16 287.08 346.79C289.99 376.01 291.32 389.36 292.13 397.37C292.83 404.12 293.16 407.08 293.75 412.52C309.19 415.29 322.34 417.66 340.03 419.95C347.35 420.9 355.44 421.84 364.8 422.79Z" fill="#004FFF"/>
<path d="M295.432 440.24C307.642 442.71 311.852 443.34 336.442 447.02C333.392 446.64 312.562 443.93 295.432 440.24Z" fill="#004FFF"/>
<path d="M370.631 417.59C358.851 406 346.531 393.59 333.991 380.7C321.071 367.42 307.931 353.63 294.921 339.7L293.891 338.6L295.001 337.58C310.291 323.52 325.281 308.83 339.561 293.91C351.101 282.67 362.551 276.99 373.631 276.99C388.411 276.99 397.951 287.16 400.521 290.27C406.921 298.03 419.051 319.19 393.421 348.07C386.621 355.17 379.641 362.25 372.611 369.17C380.741 377.55 388.551 385.62 396.041 393.37L397.071 394.44L396.011 395.48C388.391 402.96 380.551 410.41 372.711 417.62L371.661 418.59L370.641 417.59H370.631ZM338.301 333.94C343.451 339.22 348.611 344.5 353.751 349.78C359.701 343.92 365.631 337.94 371.391 331.97C379.571 322.87 375.071 316.22 374.081 314.98C373.361 314.07 370.661 311.11 366.231 311.11C362.851 311.11 359.361 312.83 355.851 316.22C350.141 322.13 344.231 328.1 338.311 333.93L338.301 333.94Z" fill="black"/>
<path d="M392.282 347.08C417.142 319.07 405.502 298.69 399.352 291.23C395.262 286.28 373.232 263.2 340.642 294.95C326.172 310.06 311.202 324.72 296.012 338.68C308.862 352.43 321.932 366.15 335.062 379.65C347.822 392.77 360.062 405.09 371.682 416.52C379.502 409.32 387.272 401.94 394.942 394.41C387.142 386.33 378.982 377.9 370.482 369.14C377.852 361.91 385.122 354.54 392.282 347.07V347.08ZM353.722 351.9C347.882 345.9 342.032 339.9 336.182 333.91C342.462 327.75 348.672 321.49 354.802 315.14C364.332 305.95 372.142 310.13 375.252 314.04C376.372 315.45 381.482 322.97 372.462 333C366.292 339.38 360.042 345.69 353.722 351.89V351.9Z" fill="#004FFF"/>
<path d="M504.132 242.67C489.502 242.67 472.232 232.02 460.142 215.53C445.102 195.02 440.592 170.18 447.772 147.4L447.822 147.27C453.802 133.09 462.382 125.9 473.342 125.9C481.302 125.9 490.212 129.7 499.842 137.19C507.142 142.87 512.272 148.74 512.832 149.39C530.342 169.7 538.362 193.94 534.302 214.22C531.912 226.16 525.482 235.29 516.192 239.93C512.562 241.75 508.502 242.67 504.132 242.67ZM482.312 152.6C478.802 152.6 475.912 154.07 473.732 156.98C469.782 162.24 468.872 171.27 471.402 180.01C476.432 197.36 492.702 211.33 502.822 211.33C507.392 211.33 511.112 208.85 513.882 203.95C520.712 187.04 507.762 170.25 503.622 165.5C500.142 161.51 495.872 157.86 492.192 155.73C488.592 153.65 485.272 152.6 482.322 152.6H482.312Z" fill="black"/>
<path d="M511.691 150.37C509.951 148.35 468.781 101.38 449.201 147.85C432.111 202.09 485.951 253.38 515.521 238.59C538.851 226.92 542.261 185.84 511.691 150.37ZM515.231 204.6C503.211 226.07 475.941 201.05 469.961 180.42C464.811 162.66 473.421 143.16 492.941 154.43C496.751 156.63 501.171 160.4 504.751 164.51C509.041 169.43 522.461 186.87 515.231 204.6Z" fill="#004FFF"/>
<path d="M541.34 181.26C531.89 166.67 520.78 152.76 508.3 139.93C495.46 126.73 481.18 114.67 465.88 104.11L465.11 103.58L465.25 102.65C466.54 94.09 466.19 86.87 464.19 81.21C463.62 79.3 463.51 78.7 463.75 77.48L463.91 76.7L464.65 76.39C465 76.24 465.53 76.02 466.28 76.02C468.05 76.02 470.78 76.85 482.81 86.77L483.51 87.36C488.5 91.65 494.47 97.36 499.73 102.39C501.21 103.8 502.63 105.16 503.96 106.43C505.53 107.99 510.99 113.55 516.44 120.53L523.8 129.07L536.09 145.94L540.31 152.38C540.97 153.43 541.57 154.54 542.08 155.7L541.79 160.25C537.31 154.36 528.71 143.81 522.93 137.5C522.94 137.68 522.96 137.85 522.97 138.03C530.86 147.26 538.13 157.05 544.57 167.14L544.78 167.47L544.8 167.86C545.02 171.74 544.79 176.05 544.09 180.67L543.5 184.58L541.35 181.26H541.34ZM487.9 103.78C493.09 108.01 498.17 112.48 503.04 117.09C502.81 115.66 502.51 114.3 502.13 113.02C501.08 110.11 496.43 105.13 492.79 101.77C489.5 98.75 487.55 97.44 486.86 97.01C486.86 97.01 486.86 97.01 486.85 97.01C487.37 99.08 487.73 101.36 487.9 103.78Z" fill="black"/>
<path d="M543.3 167.95C536.83 157.84 529.57 148.04 521.49 138.63C521.38 136.66 521.14 134.79 520.79 133.02C527.12 139.68 535.13 149 540.7 156.32C540.21 155.22 539.66 154.19 539.04 153.21L534.86 146.83L522.6 130.01L515.24 121.46C509.84 114.54 504.44 109.05 502.91 107.52C496.84 101.77 488.86 93.96 482.52 88.51L481.83 87.93C468.07 76.58 466.55 77.21 465.2 77.77C465.02 78.64 465.07 78.97 465.58 80.7C467.67 86.62 468.04 94.07 466.71 102.87C481.91 113.37 496.22 125.38 509.36 138.88C522.12 152 533.2 165.93 542.59 180.44C543.27 175.91 543.51 171.73 543.29 167.94L543.3 167.95ZM486.45 104.53C486.27 101.49 485.81 98.7 485.06 96.16C484.91 95.52 484.53 93.82 487.64 95.74C488.37 96.19 490.42 97.56 493.8 100.67C495.17 101.93 502.06 108.4 503.57 112.6C504.32 115.16 504.79 117.97 504.97 121.03C499.01 115.22 492.83 109.72 486.45 104.54V104.53Z" fill="#004FFF"/>
<path d="M205.902 533.22C191.912 523.13 178.422 511.44 165.812 498.47C152.842 485.14 140.812 470.47 130.062 454.87L129.012 453.35L130.722 452.64C148.372 445.28 168.252 434.45 189.812 420.46L190.982 419.7L191.822 420.81L192.072 421.15C197.492 428.55 202.742 435.06 206.852 439.5L208.062 440.81L206.562 441.78C201.942 444.78 197.192 447.76 192.452 450.63L189.792 452.29V452.23C182.242 456.73 174.902 460.84 167.912 464.46C171.182 468.44 174.552 472.36 177.952 476.16C189.972 469.97 202.822 462.47 216.192 453.83L217.252 453.14L218.112 454.07C221.202 457.45 224.372 460.8 227.532 464.05C229.952 466.54 232.432 469.02 234.882 471.43L236.222 472.74L234.652 473.76C221.512 482.25 208.842 489.67 196.972 495.82C200.902 499.58 204.932 503.25 208.982 506.77C221.272 500.45 234.442 492.74 248.142 483.85L249.102 483.23L249.962 484C255.612 489.06 261.382 493.94 267.122 498.51L268.752 499.81L267.002 500.94C245.262 515.05 225.202 525.97 207.362 533.41L206.592 533.73L205.912 533.24L205.902 533.22Z" fill="black"/>
<path d="M248.951 485.09C234.991 494.15 221.501 502.04 208.751 508.55C203.921 504.38 199.131 500.01 194.411 495.43C206.921 489.04 220.151 481.32 233.831 472.49C231.371 470.07 228.911 467.6 226.461 465.09C223.261 461.8 220.111 458.46 217.011 455.07C203.341 463.9 190.121 471.61 177.621 478C173.491 473.41 169.481 468.73 165.591 463.96C173.871 459.73 182.471 454.91 191.311 449.57L191.691 449.34C196.321 446.54 201.011 443.6 205.761 440.52C198.741 432.95 190.961 422.15 190.631 421.73C169.431 435.49 149.331 446.52 131.301 454.04C141.871 469.38 153.751 483.94 166.891 497.44C179.651 510.56 193.021 522.09 206.791 532.01C224.841 524.48 244.971 513.44 266.191 499.66C260.441 495.08 254.691 490.22 248.971 485.1L248.951 485.09Z" fill="#004FFF"/>
<path d="M161.94 544.7C153.92 544.7 147.33 543 142.35 539.64C136.82 535.58 122.97 525.29 112.67 516.61C107.84 512.32 103.12 507.81 98.6305 503.19C85.6505 489.84 74.0705 475.12 64.2305 459.44L66.5005 457.52C71.1305 461.63 77.8705 463.71 86.5205 463.71C89.3405 463.71 92.4105 463.49 95.6305 463.04L96.5705 462.91L97.0905 463.71C101.4 470.32 106.01 476.81 110.81 483.01L112.31 484.95L109.89 485.4C109.78 485.42 107.16 485.9 102.65 485.9C98.8005 485.9 94.7905 485.56 90.7205 484.88C93.5705 488.5 96.5405 492.07 99.5605 495.53C103.08 496.69 107.21 497.28 111.84 497.28C114.55 497.28 117.48 497.08 120.55 496.68L121.34 496.58L121.87 497.18C124.88 500.59 128.01 503.96 131.15 507.2C133.56 509.68 136.05 512.15 138.55 514.53L140.82 516.7L137.71 517.11C134.51 517.53 131.45 517.74 128.6 517.74C125.75 517.74 123.18 517.54 120.72 517.13C124.06 520.17 127.49 523.13 130.96 525.97C134.49 527.15 138.64 527.75 143.3 527.75C146.17 527.75 149.28 527.52 152.54 527.07L153.19 526.98L153.7 527.4C159.64 532.31 165.83 536.98 172.11 541.3L175.3 543.49L171.47 544.02C168.11 544.48 164.91 544.72 161.95 544.72L161.94 544.7Z" fill="black"/>
<path d="M152.75 528.53C143.64 529.78 136.14 529.31 130.23 527.27C125.19 523.15 120.26 518.81 115.46 514.25C121.28 516.26 128.63 516.75 137.52 515.59C135.01 513.19 132.53 510.74 130.08 508.22C126.88 504.93 123.77 501.57 120.75 498.15C111.86 499.31 104.52 498.82 98.7002 496.81C94.6602 492.2 90.7902 487.48 87.1102 482.66C87.5802 482.82 88.0902 482.91 88.6102 482.96C101.31 485.47 109.61 483.91 109.61 483.91C104.73 477.62 100.13 471.14 95.8202 464.51C81.9502 466.42 71.8602 464.28 65.4902 458.62C75.1602 474.02 86.5502 488.61 99.6902 502.12C104.21 506.76 108.86 511.2 113.62 515.44C122.2 522.67 134.13 531.73 143.18 538.38C149.58 542.7 158.93 544.2 171.26 542.5C164.96 538.17 158.78 533.51 152.75 528.52V528.53Z" fill="#004FFF"/>
<path d="M486.81 250.55C478.94 262.32 469.99 274.69 459.97 287.58C453.76 280.5 447.19 273.38 440.25 266.25C427.11 252.74 413.3 239.83 399.03 227.61C398.58 228.19 398.13 228.76 397.68 229.34C391.74 236.93 385.59 244.5 379.25 252.02C393.24 264.57 406.92 277.66 420.05 291.17C432.81 304.29 444.48 317.2 455.02 329.76C461.36 322.23 467.53 314.65 473.47 307.05C483.9 293.72 493.17 280.93 501.29 268.79C496.76 262.69 491.93 256.6 486.8 250.54L486.81 250.55Z" fill="#004FFF"/>
</g>
<defs>
<clipPath id="clip0_515_440">
<rect width="111.16" height="111.87" fill="white"/>
</clipPath>
<clipPath id="clip1_515_440">
<rect width="86.9685" height="73.98" fill="white" transform="translate(536 231)"/>
</clipPath>
<clipPath id="clip2_515_440">
<rect width="618.81" height="542.76" fill="white" transform="translate(55 63)"/>
</clipPath>
</defs>
</svg>
