<svg width="564" height="55" viewBox="0 0 564 55" fill="none" xmlns="http://www.w3.org/2000/svg">
<g clip-path="url(#clip0_110_3)">
<path d="M39.388 54.0403L27.8151 36.1796L16.2565 54.0403H0L18.5768 26.7838L1.1888 0.873657H17.3737L27.8151 17.5312L38.1133 0.873657H54.3698L37.0677 26.6979L55.5586 54.0403H39.388Z" fill="black"/>
<path d="M106.878 54.0403V0.873657H120.585V42.0807H141.611L137.113 54.0403H106.878Z" fill="black"/>
<path d="M183.82 54.0403L181.113 45.9908H159.027L156.32 54.0403H141.41L161.419 0.873657H178.635L198.73 54.0403H183.82ZM170.027 12.8333L162.608 34.4322H177.504L170.013 12.8333H170.027Z" fill="black"/>
<path d="M178.635 0.873657H161.419L141.41 54.0403H156.32L159.027 45.9908H181.113L183.82 54.0403L191.254 34.2747L178.635 0.873657ZM162.622 34.4322L170.042 12.8333L177.533 34.4322H162.637H162.622Z" fill="black"/>
<path d="M221.031 0.873657H203.815L191.24 34.2747L198.702 54.0403L201.409 45.9908H223.495L226.202 54.0403H241.112L221.031 0.873657ZM205.018 34.4322L212.438 12.8333L219.928 34.4322H205.033H205.018Z" fill="#004FFF"/>
<path d="M183.82 54.0404H198.716L191.254 34.2748L183.82 54.0404Z" fill="#00B2FC"/>
<path d="M237.803 27.5C237.803 11.0716 250.236 0 266.177 0C279.411 0 286.258 7.2474 289.767 14.2656L277.979 19.8516C276.232 15.6263 271.677 12.1172 266.191 12.1172C257.898 12.1172 251.754 18.806 251.754 27.5C251.754 36.194 257.898 42.8828 266.191 42.8828C271.691 42.8828 276.232 39.3737 277.979 35.1484L289.767 40.7201C286.344 47.5807 279.411 54.9857 266.177 54.9857C250.236 54.9857 237.803 43.8281 237.803 27.4857V27.5Z" fill="#004FFF"/>
<path d="M329.814 54.0403L327.107 45.9908H305.021L302.314 54.0403H287.404L307.427 0.873657H324.643L344.724 54.0403H329.828H329.814ZM316.021 12.8333L308.602 34.4322H323.512L316.021 12.8333Z" fill="#004FFF"/>
<path d="M346.672 54.0403V0.873657H368.987C385.73 0.873657 397.762 10.914 397.762 27.414C397.762 43.914 385.73 54.0403 369.073 54.0403H346.672ZM360.379 42.0807H368.987C378.326 42.0807 383.74 35.3059 383.74 27.414C383.74 19.5221 378.798 12.8333 369.073 12.8333H360.379V42.095V42.0807Z" fill="#004FFF"/>
<path d="M402.66 54.0403V0.873657H441.647V12.4323H416.367V21.2838H441.089V32.9283H416.367V42.4961H441.647V54.0546H402.66V54.0403Z" fill="#004FFF"/>
<path d="M494.27 54.0403V18.1757L480.806 54.0403H474.747L461.355 18.1757V54.0403H447.634V0.873657H466.684L477.755 31.0091L488.913 0.873657H507.962V54.0403H494.241H494.27Z" fill="#004FFF"/>
<path d="M530.105 54.0403V32.5989L509.939 0.873657H525.393L536.952 20.4817L548.353 0.873657H563.893L543.813 32.5989V54.0403H530.091H530.105Z" fill="#004FFF"/>
<path d="M84.2044 0.873657H57.5781V54.0403H71.2852V12.4323H82.3711C86.0378 12.4323 88.7448 14.8242 88.7448 18.4908C88.7448 22.1575 86.0378 24.3919 82.3711 24.3919H75.582V36.0364H84.2044C96.1641 36.0364 102.695 28.1445 102.695 18.5768C102.695 9.00907 96.1641 0.873657 84.2044 0.873657Z" fill="black"/>
</g>
<defs>
<clipPath id="clip0_110_3">
<rect width="563.893" height="55" fill="white"/>
</clipPath>
</defs>
</svg>
