<svg width="30" height="30" viewBox="0 0 30 30" fill="none" xmlns="http://www.w3.org/2000/svg">
<circle cx="15" cy="15" r="15" fill="#DDDDDD"/>
<path d="M2.11035 22.6763C3.93632 25.7353 6.82069 28.0894 10.2582 29.2338C11.0086 29.371 11.2821 28.9078 11.2821 28.51C11.2821 28.3453 11.2794 28.0543 11.2757 27.6649C11.2714 27.2139 11.2658 26.6309 11.2619 25.9593C7.08955 26.8654 6.20923 23.9482 6.20923 23.9482C5.52689 22.2161 4.54343 21.7548 4.54343 21.7548C3.18152 20.8238 4.64657 20.8422 4.64657 20.8422C6.15214 20.949 6.94406 22.3883 6.94406 22.3883C8.28203 24.6803 10.4552 24.0182 11.3097 23.6351C11.446 22.6655 11.8328 22.0043 12.2619 21.6295C8.93122 21.2511 5.42928 19.9637 5.42928 14.2159C5.42928 12.5786 6.01401 11.2397 6.97352 10.1909C6.81882 9.81151 6.30407 8.2866 7.11994 6.22116C7.11994 6.22116 8.37964 5.81783 11.2453 7.75896C12.4415 7.42654 13.7251 7.25987 15.0005 7.25434C16.274 7.25987 17.5576 7.42654 18.7556 7.75896C21.6194 5.81783 22.8764 6.22116 22.8764 6.22116C23.695 8.2866 23.1803 9.81151 23.0256 10.1909C23.9869 11.2397 24.568 12.5786 24.568 14.2159C24.568 19.9785 21.0605 21.2465 17.7188 21.6176C18.2575 22.0807 18.7372 22.9961 18.7372 24.3957C18.7372 25.7364 18.729 26.9041 18.7235 27.6776C18.7208 28.0607 18.7188 28.3472 18.7188 28.51C18.7188 28.9115 18.9886 29.3784 19.7501 29.232C22.4885 28.3179 24.8755 26.6365 26.6554 24.4427C23.9053 27.8331 19.7057 29.9999 15 29.9999C9.52098 29.9999 4.72808 27.0624 2.11035 22.6763Z" fill="black"/>
</svg>
