<svg width="92" height="14" viewBox="0 0 92 14" fill="none" xmlns="http://www.w3.org/2000/svg">
<path d="M86.1784 13.8532C85.1363 13.8532 84.2439 13.6855 83.5012 13.3501C82.7585 13.0027 82.1536 12.5355 81.6865 11.9486C81.2313 11.3616 80.8899 10.6848 80.6623 9.91822C80.4467 9.13962 80.3389 8.31909 80.3389 7.45663V6.43247C80.3389 5.23462 80.5485 4.15056 80.9677 3.1803C81.387 2.21004 82.0278 1.43742 82.8903 0.862453C83.7527 0.287484 84.8488 0 86.1784 0C87.508 0 88.5981 0.287484 89.4485 0.862453C90.311 1.43742 90.9518 2.21004 91.3711 3.1803C91.7903 4.15056 92 5.23462 92 6.43247V7.45663C92 8.31909 91.8862 9.13962 91.6586 9.91822C91.443 10.6848 91.1016 11.3616 90.6344 11.9486C90.1792 12.5355 89.5803 13.0027 88.8376 13.3501C88.1069 13.6855 87.2205 13.8532 86.1784 13.8532ZM86.1784 11.14C87.1487 11.14 87.8674 10.8046 88.3345 10.1338C88.8137 9.45106 89.0532 8.39695 89.0532 6.9715C89.0532 5.46221 88.8077 4.37815 88.3166 3.71933C87.8374 3.04854 87.1247 2.71314 86.1784 2.71314C85.2081 2.71314 84.4834 3.04854 84.0043 3.71933C83.5252 4.37815 83.2856 5.45023 83.2856 6.93557C83.2856 8.37299 83.5192 9.43309 83.9863 10.1159C84.4655 10.7986 85.1962 11.14 86.1784 11.14Z" fill="url(#paint0_linear_804_5)"/>
<path d="M73.0134 13.8532C71.9712 13.8532 71.0788 13.6855 70.3362 13.3501C69.5935 13.0027 68.9886 12.5355 68.5214 11.9486C68.0662 11.3616 67.7248 10.6848 67.4972 9.91822C67.2816 9.13962 67.1738 8.31909 67.1738 7.45663V6.43247C67.1738 5.23462 67.3835 4.15056 67.8027 3.1803C68.222 2.21004 68.8628 1.43742 69.7253 0.862453C70.5877 0.287484 71.6837 0 73.0134 0C74.343 0 75.433 0.287484 76.2835 0.862453C77.146 1.43742 77.7868 2.21004 78.2061 3.1803C78.6253 4.15056 78.8349 5.23462 78.8349 6.43247V7.45663C78.8349 8.31909 78.7211 9.13962 78.4935 9.91822C78.2779 10.6848 77.9365 11.3616 77.4694 11.9486C77.0142 12.5355 76.4153 13.0027 75.6726 13.3501C74.9419 13.6855 74.0555 13.8532 73.0134 13.8532ZM73.0134 11.14C73.9836 11.14 74.7023 10.8046 75.1695 10.1338C75.6486 9.45106 75.8882 8.39695 75.8882 6.9715C75.8882 5.46221 75.6427 4.37815 75.1515 3.71933C74.6724 3.04854 73.9597 2.71314 73.0134 2.71314C72.0431 2.71314 71.3184 3.04854 70.8393 3.71933C70.3601 4.37815 70.1205 5.45023 70.1205 6.93557C70.1205 8.37299 70.3541 9.43309 70.8213 10.1159C71.3004 10.7986 72.0311 11.14 73.0134 11.14Z" fill="url(#paint1_linear_804_5)"/>
<path d="M59.8486 13.8532C58.8064 13.8532 57.914 13.6855 57.1714 13.3501C56.4287 13.0027 55.8238 12.5355 55.3566 11.9486C54.9014 11.3616 54.56 10.6848 54.3325 9.91822C54.1168 9.13962 54.009 8.31909 54.009 7.45663V6.43247C54.009 5.23462 54.2187 4.15056 54.6379 3.1803C55.0572 2.21004 55.698 1.43742 56.5605 0.862453C57.4229 0.287484 58.5189 0 59.8486 0C61.1782 0 62.2682 0.287484 63.1187 0.862453C63.9812 1.43742 64.622 2.21004 65.0413 3.1803C65.4605 4.15056 65.6701 5.23462 65.6701 6.43247V7.45663C65.6701 8.31909 65.5563 9.13962 65.3287 9.91822C65.1131 10.6848 64.7717 11.3616 64.3046 11.9486C63.8494 12.5355 63.2505 13.0027 62.5078 13.3501C61.7771 13.6855 60.8907 13.8532 59.8486 13.8532ZM59.8486 11.14C60.8188 11.14 61.5375 10.8046 62.0047 10.1338C62.4838 9.45106 62.7234 8.39695 62.7234 6.9715C62.7234 5.46221 62.4779 4.37815 61.9867 3.71933C61.5076 3.04854 60.7949 2.71314 59.8486 2.71314C58.8783 2.71314 58.1536 3.04854 57.6745 3.71933C57.1953 4.37815 56.9557 5.45023 56.9557 6.93557C56.9557 8.37299 57.1893 9.43309 57.6565 10.1159C58.1356 10.7986 58.8663 11.14 59.8486 11.14Z" fill="url(#paint2_linear_804_5)"/>
<path d="M47.7411 13.8529C46.7229 13.8529 45.8365 13.6672 45.0819 13.2959C44.3392 12.9126 43.7702 12.3975 43.3749 11.7507C42.9796 11.1038 42.782 10.3731 42.782 9.55859H45.6209C45.6209 10.1096 45.8066 10.5588 46.1779 10.9062C46.5492 11.2416 47.0703 11.4093 47.7411 11.4093C48.1843 11.4093 48.5616 11.3254 48.8731 11.1577C49.1845 10.99 49.4241 10.7624 49.5918 10.475C49.7595 10.1755 49.8433 9.84009 49.8433 9.46875C49.8433 8.89378 49.6577 8.42063 49.2863 8.0493C48.927 7.67796 48.4119 7.4923 47.7411 7.4923C47.3817 7.4923 47.0643 7.5462 46.7888 7.65401C46.5253 7.76181 46.2977 7.89358 46.106 8.0493L44.7764 5.80332L48.7473 3.21596L48.5856 2.91051H43.321V0.39502H52.1612V3.12612L47.5794 6.03691L46.142 5.64161C46.3815 5.56974 46.6331 5.51584 46.8966 5.4799C47.1721 5.43199 47.4656 5.40803 47.777 5.40803C48.7952 5.40803 49.6696 5.57573 50.4003 5.91113C51.131 6.24653 51.694 6.71968 52.0893 7.33059C52.4966 7.92951 52.7002 8.63026 52.7002 9.43282V9.64843C52.7002 10.451 52.4966 11.1697 52.0893 11.8046C51.694 12.4394 51.125 12.9425 50.3824 13.3139C49.6517 13.6732 48.7713 13.8529 47.7411 13.8529Z" fill="url(#paint3_linear_804_5)"/>
<path d="M30.2817 13.5115V0.39502H33.1566V13.5115H30.2817ZM32.7972 13.5115V11.0679H38.529V13.5115H32.7972ZM32.7972 8.06727V5.62365H38.1157V8.06727H32.7972ZM32.7972 2.83864V0.39502H38.4032V2.83864H32.7972Z" fill="url(#paint4_linear_804_5)"/>
<path d="M15.5264 13.5115L19.8566 0.39502H24.6181L29.11 13.5115H26.0555L22.426 2.42538L23.3603 2.8027H21.0425L22.0127 2.42538L18.4731 13.5115H15.5264ZM18.8145 10.2593L19.7129 7.81572H24.8517L25.768 10.2593H18.8145Z" fill="url(#paint5_linear_804_5)"/>
<path d="M9.95454 13.8532C8.76867 13.8532 7.76846 13.6675 6.95392 13.2962C6.13938 12.9129 5.52249 12.3978 5.10324 11.7509C4.68399 11.0921 4.47437 10.3375 4.47437 9.48699H7.33124C7.33124 9.82239 7.42108 10.1338 7.60076 10.4213C7.79242 10.7088 8.0799 10.9424 8.46321 11.1221C8.84653 11.2898 9.34364 11.3736 9.95454 11.3736C10.5056 11.3736 10.9667 11.3017 11.3381 11.158C11.7094 11.0143 11.9909 10.8166 12.1825 10.5651C12.3742 10.3015 12.47 10.0021 12.47 9.66667C12.47 9.24742 12.2904 8.91801 11.931 8.67844C11.5716 8.42689 10.9907 8.26518 10.1881 8.19331L9.19989 8.10347C7.89423 7.99567 6.8521 7.5884 6.0735 6.88166C5.29489 6.17493 4.90559 5.24061 4.90559 4.07869C4.90559 3.24019 5.10324 2.51549 5.49853 1.90459C5.9058 1.29368 6.46879 0.826518 7.1875 0.503098C7.90621 0.167699 8.75669 0 9.73893 0C10.7691 0 11.6495 0.179678 12.3802 0.539033C13.1229 0.886411 13.6918 1.38352 14.0871 2.03036C14.4824 2.66522 14.6801 3.41388 14.6801 4.27633H11.8052C11.8052 3.95291 11.7274 3.65944 11.5716 3.39591C11.4159 3.12041 11.1823 2.8988 10.8709 2.7311C10.5714 2.5634 10.1941 2.47956 9.73893 2.47956C9.3077 2.47956 8.94236 2.55143 8.64289 2.69517C8.35541 2.83891 8.13979 3.03656 7.99605 3.28811C7.85231 3.52768 7.78044 3.7912 7.78044 4.07869C7.78044 4.45002 7.9122 4.77344 8.17573 5.04895C8.43926 5.32446 8.87048 5.48617 9.46941 5.53408L10.4756 5.62392C11.4339 5.70777 12.2784 5.91739 13.0091 6.25279C13.7398 6.57621 14.3087 7.02541 14.716 7.60038C15.1353 8.16337 15.3449 8.85213 15.3449 9.66667C15.3449 10.5052 15.1233 11.2418 14.6801 11.8767C14.2488 12.4996 13.6319 12.9847 12.8294 13.3321C12.0268 13.6795 11.0685 13.8532 9.95454 13.8532Z" fill="url(#paint6_linear_804_5)"/>
<path d="M0 13.5118V0.395264H2.94672V13.5118H0Z" fill="url(#paint7_linear_804_5)"/>
<defs>
<linearGradient id="paint0_linear_804_5" x1="0.805173" y1="7.44765" x2="91.4926" y2="7.44765" gradientUnits="userSpaceOnUse">
<stop stop-color="white"/>
<stop offset="0.48" stop-color="#00B1FF"/>
<stop offset="1" stop-color="#0064FA"/>
</linearGradient>
<linearGradient id="paint1_linear_804_5" x1="0.805037" y1="7.44765" x2="91.4925" y2="7.44765" gradientUnits="userSpaceOnUse">
<stop stop-color="white"/>
<stop offset="0.48" stop-color="#00B1FF"/>
<stop offset="1" stop-color="#0064FA"/>
</linearGradient>
<linearGradient id="paint2_linear_804_5" x1="0.805183" y1="7.44765" x2="91.4926" y2="7.44765" gradientUnits="userSpaceOnUse">
<stop stop-color="white"/>
<stop offset="0.48" stop-color="#00B1FF"/>
<stop offset="1" stop-color="#0064FA"/>
</linearGradient>
<linearGradient id="paint3_linear_804_5" x1="0.805037" y1="7.44739" x2="91.4925" y2="7.44739" gradientUnits="userSpaceOnUse">
<stop stop-color="white"/>
<stop offset="0.48" stop-color="#00B1FF"/>
<stop offset="1" stop-color="#0064FA"/>
</linearGradient>
<linearGradient id="paint4_linear_804_5" x1="0.805189" y1="7.44739" x2="91.4926" y2="7.44739" gradientUnits="userSpaceOnUse">
<stop stop-color="white"/>
<stop offset="0.48" stop-color="#00B1FF"/>
<stop offset="1" stop-color="#0064FA"/>
</linearGradient>
<linearGradient id="paint5_linear_804_5" x1="0.805435" y1="7.44739" x2="91.4929" y2="7.44739" gradientUnits="userSpaceOnUse">
<stop stop-color="white"/>
<stop offset="0.48" stop-color="#00B1FF"/>
<stop offset="1" stop-color="#0064FA"/>
</linearGradient>
<linearGradient id="paint6_linear_804_5" x1="0.805167" y1="7.44765" x2="91.4926" y2="7.44765" gradientUnits="userSpaceOnUse">
<stop stop-color="white"/>
<stop offset="0.48" stop-color="#00B1FF"/>
<stop offset="1" stop-color="#0064FA"/>
</linearGradient>
<linearGradient id="paint7_linear_804_5" x1="0.805349" y1="7.44763" x2="91.4928" y2="7.44763" gradientUnits="userSpaceOnUse">
<stop stop-color="white"/>
<stop offset="0.48" stop-color="#00B1FF"/>
<stop offset="1" stop-color="#0064FA"/>
</linearGradient>
</defs>
</svg>
