<svg width="647" height="620" viewBox="0 0 647 620" fill="none" xmlns="http://www.w3.org/2000/svg">
<g clip-path="url(#clip0_430_248)">
<path d="M133.22 57.2502C133.41 56.4402 133.58 55.6402 133.73 54.8302C133.76 54.6502 133.8 54.4702 133.83 54.2902C133.99 53.4002 134.12 52.5202 134.23 51.6402C134.25 51.4502 134.27 51.2702 134.3 51.0802C134.39 50.2802 134.47 49.4902 134.53 48.7002C134.53 48.6102 134.55 48.5202 134.56 48.4302C134.56 48.3902 134.56 48.3502 134.56 48.3102C134.6 47.6202 134.64 46.9402 134.65 46.2602C134.65 46.2102 134.65 46.1602 134.65 46.1102C134.66 45.4802 134.67 44.8502 134.65 44.2302C134.65 44.0002 134.64 43.7802 134.63 43.5602C134.62 43.1102 134.6 42.6702 134.58 42.2302C134.57 41.9702 134.54 41.7202 134.53 41.4602C134.5 41.0502 134.47 40.6502 134.42 40.2402C134.41 40.1202 134.4 39.9902 134.39 39.8702C134.38 39.7602 134.36 39.6602 134.35 39.5502C134.27 38.8702 134.18 38.2002 134.07 37.5302C134.05 37.4302 134.04 37.3402 134.03 37.2402C133.9 36.4902 133.75 35.7502 133.59 35.0202C133.57 34.9402 133.56 34.8702 133.54 34.7902C133.51 34.6402 133.46 34.5002 133.43 34.3602C133.33 33.9602 133.23 33.5602 133.12 33.1602C133.06 32.9202 132.99 32.6902 132.92 32.4602C132.8 32.0602 132.68 31.6602 132.55 31.2702C132.5 31.1202 132.46 30.9702 132.41 30.8202C132.39 30.7502 132.36 30.6802 132.33 30.6102C132.22 30.2902 132.1 29.9802 131.99 29.6702C131.9 29.4302 131.81 29.1902 131.72 28.9502C131.59 28.6302 131.46 28.3202 131.33 28.0102C131.25 27.8202 131.18 27.6302 131.1 27.4502C131.08 27.4102 131.06 27.3702 131.04 27.3302C130.93 27.0902 130.82 26.8602 130.71 26.6202C130.58 26.3502 130.46 26.0802 130.32 25.8102C130.2 25.5802 130.08 25.3502 129.95 25.1202C129.84 24.9102 129.73 24.7002 129.62 24.4902C129.6 24.4602 129.58 24.4302 129.56 24.4002C129.11 23.5902 128.62 22.8102 128.11 22.0402C128.06 21.9702 128.03 21.9002 127.98 21.8302C127.95 21.7802 127.91 21.7402 127.88 21.6902C127.39 20.9702 126.87 20.2702 126.33 19.5902C126.28 19.5302 126.24 19.4702 126.2 19.4102C126.15 19.3502 126.09 19.2902 126.04 19.2302C125.49 18.5602 124.93 17.9102 124.33 17.2902C124.3 17.2602 124.27 17.2202 124.24 17.1902C123.94 16.8802 123.64 16.5802 123.34 16.2802L117.81 10.9302C118.15 11.2602 118.48 11.6002 118.8 11.9402C119.4 12.5702 119.96 13.2202 120.51 13.8802C120.61 14.0002 120.71 14.1202 120.8 14.2402C121.34 14.9202 121.86 15.6202 122.35 16.3402C122.43 16.4602 122.5 16.5702 122.58 16.6902C123.09 17.4602 123.58 18.2402 124.03 19.0502C124.16 19.2902 124.29 19.5302 124.42 19.7702C124.54 20.0002 124.67 20.2302 124.79 20.4702C124.92 20.7302 125.05 21.0002 125.18 21.2702C125.29 21.5102 125.41 21.7402 125.52 21.9802C125.62 22.2002 125.71 22.4302 125.81 22.6602C125.94 22.9702 126.08 23.2902 126.2 23.6102C126.29 23.8502 126.38 24.0902 126.47 24.3302C126.59 24.6402 126.7 24.9602 126.81 25.2702C126.89 25.4902 126.95 25.7102 127.03 25.9302C127.16 26.3202 127.28 26.7202 127.4 27.1202C127.47 27.3502 127.53 27.5902 127.6 27.8302C127.71 28.2302 127.81 28.6302 127.91 29.0302C127.96 29.2502 128.02 29.4702 128.07 29.6902C128.23 30.4202 128.38 31.1602 128.51 31.9102C128.53 32.0002 128.54 32.1002 128.55 32.2002C128.66 32.8702 128.75 33.5402 128.83 34.2202C128.86 34.4502 128.88 34.6802 128.91 34.9202C128.95 35.3202 128.98 35.7302 129.02 36.1402C129.04 36.4002 129.06 36.6502 129.07 36.9102C129.1 37.3502 129.11 37.8002 129.12 38.2402C129.12 38.4602 129.14 38.6902 129.14 38.9102C129.15 39.5302 129.14 40.1602 129.14 40.7902C129.14 40.8402 129.14 40.8902 129.14 40.9402C129.12 41.6202 129.09 42.3102 129.05 43.0002C129.05 43.1302 129.03 43.2602 129.02 43.3902C128.96 44.1802 128.89 44.9802 128.79 45.7802C128.77 45.9602 128.75 46.1502 128.73 46.3302C128.62 47.2102 128.48 48.0902 128.32 48.9802C128.29 49.1602 128.25 49.3402 128.22 49.5202C128.07 50.3202 127.9 51.1302 127.71 51.9402C127.68 52.0902 127.65 52.2302 127.61 52.3702C127.39 53.2702 127.15 54.1802 126.89 55.0802C126.81 55.3502 126.73 55.6102 126.65 55.8802C126.53 56.2802 126.4 56.6902 126.27 57.0902C126.17 57.3902 126.07 57.7002 125.97 58.0002C125.83 58.4002 125.69 58.8102 125.54 59.2102C125.43 59.5102 125.32 59.8202 125.2 60.1202C125.04 60.5302 124.88 60.9402 124.71 61.3502C124.59 61.6502 124.47 61.9402 124.35 62.2402C124.17 62.6602 123.98 63.0902 123.79 63.5102C123.67 63.7902 123.54 64.0702 123.42 64.3502C123.07 65.1002 122.71 65.8502 122.34 66.6002C121.85 67.5602 121.34 68.5102 120.82 69.4402C120.43 70.1402 120.03 70.8202 119.61 71.5002C119.56 71.5902 119.5 71.6802 119.45 71.7702C118.98 72.5302 118.5 73.2902 118 74.0302C117.28 75.1202 116.52 76.1802 115.74 77.2302C115.55 77.4902 115.35 77.7502 115.15 78.0102C114.53 78.8202 113.9 79.6202 113.25 80.4002C113.1 80.5802 112.95 80.7702 112.79 80.9602C112.03 81.8602 111.24 82.7402 110.44 83.6002C110.24 83.8102 110.04 84.0202 109.84 84.2202C109.22 84.8702 108.59 85.5102 107.95 86.1402C107.7 86.3802 107.45 86.6302 107.2 86.8702C106.48 87.5502 105.75 88.2202 105.01 88.8802C104.88 88.9902 104.76 89.1102 104.63 89.2202C103.75 89.9802 102.86 90.7202 101.96 91.4302C101.72 91.6202 101.48 91.8002 101.25 91.9802C100.5 92.5602 99.7304 93.1302 98.9604 93.6802C98.6703 93.8802 98.3904 94.0902 98.1003 94.2902C97.8904 94.4402 97.6703 94.5802 97.4604 94.7302C96.9504 95.0802 96.4304 95.4202 95.9104 95.7502C95.7104 95.8802 95.5004 96.0102 95.3004 96.1402C94.6904 96.5202 94.0703 96.9002 93.4503 97.2602C93.3303 97.3302 93.2203 97.4002 93.1003 97.4702C92.3703 97.8902 91.6404 98.3002 90.9004 98.6902C90.5904 98.8602 90.2704 99.0102 89.9604 99.1702C89.4903 99.4102 89.0204 99.6502 88.5404 99.8802C88.2004 100.04 87.8703 100.2 87.5303 100.35C87.0904 100.55 86.6503 100.76 86.2104 100.95C85.5004 101.26 84.7904 101.55 84.0804 101.84C83.8804 101.92 83.6804 102.01 83.4704 102.09C82.5504 102.44 81.6303 102.77 80.7104 103.08C79.9703 103.33 79.2404 103.56 78.5004 103.77C78.3104 103.82 78.1303 103.87 77.9403 103.93C77.3603 104.09 76.7803 104.25 76.1903 104.4C75.9604 104.46 75.7204 104.52 75.4904 104.57C74.8604 104.72 74.2404 104.86 73.6104 104.98C73.4704 105.01 73.3304 105.04 73.2004 105.07C72.4504 105.22 71.6903 105.34 70.9403 105.46C70.7403 105.49 70.5404 105.51 70.3404 105.54C69.7603 105.62 69.1903 105.69 68.6203 105.75C68.3904 105.77 68.1604 105.8 67.9304 105.82C67.2804 105.88 66.6204 105.93 65.9704 105.96C65.8604 105.96 65.7604 105.98 65.6504 105.98C64.9004 106.02 64.1504 106.03 63.4104 106.03C63.2004 106.03 63.0004 106.03 62.7904 106.03C62.2304 106.03 61.6704 106.01 61.1104 105.98C60.8904 105.97 60.6603 105.96 60.4403 105.95C59.7603 105.91 59.0804 105.85 58.4004 105.78C58.3404 105.78 58.2804 105.77 58.2204 105.76C57.4904 105.68 56.7603 105.57 56.0303 105.45C55.8204 105.42 55.6203 105.38 55.4104 105.34C54.8703 105.24 54.3304 105.14 53.7904 105.02C53.5804 104.97 53.3703 104.93 53.1604 104.88C52.4404 104.71 51.7304 104.53 51.0304 104.32C45.0004 102.56 39.9204 99.5602 35.8604 95.6402L41.3904 100.99C45.4504 104.92 50.5304 107.91 56.5604 109.67C57.2704 109.88 57.9804 110.06 58.6903 110.23C58.9003 110.28 59.1104 110.32 59.3204 110.37C59.8604 110.49 60.4003 110.6 60.9403 110.69C61.1503 110.73 61.3504 110.77 61.5604 110.8C62.2904 110.92 63.0104 111.02 63.7504 111.11C63.8104 111.11 63.8704 111.12 63.9304 111.13C64.6104 111.2 65.2904 111.26 65.9704 111.3C66.1904 111.31 66.4104 111.32 66.6404 111.33C67.2003 111.36 67.7604 111.37 68.3304 111.38C68.5304 111.38 68.7403 111.38 68.9403 111.38C69.6903 111.38 70.4304 111.36 71.1804 111.33C71.2904 111.33 71.3904 111.32 71.5004 111.31C72.1504 111.28 72.8004 111.23 73.4604 111.17C73.6903 111.15 73.9204 111.12 74.1504 111.1C74.7304 111.04 75.3004 110.97 75.8804 110.89C76.0804 110.86 76.2704 110.84 76.4704 110.81C77.2304 110.7 77.9804 110.57 78.7404 110.42C78.8804 110.39 79.0104 110.36 79.1504 110.34C79.7804 110.21 80.4104 110.08 81.0404 109.93C81.2704 109.88 81.5004 109.82 81.7304 109.76C82.3204 109.61 82.9004 109.46 83.4904 109.29C83.6704 109.24 83.8604 109.19 84.0404 109.14C84.7404 108.94 85.4404 108.72 86.1304 108.49C86.1704 108.48 86.2104 108.46 86.2504 108.45C87.1703 108.14 88.0904 107.81 89.0104 107.46C89.2104 107.38 89.4104 107.29 89.6204 107.21C90.3304 106.93 91.0504 106.63 91.7504 106.32C91.8503 106.28 91.9404 106.24 92.0404 106.2C92.3804 106.05 92.7304 105.88 93.0704 105.72C93.4104 105.56 93.7504 105.41 94.0804 105.25C94.5504 105.02 95.0203 104.78 95.4903 104.54C95.8103 104.38 96.1204 104.22 96.4404 104.05C96.5004 104.02 96.5504 103.99 96.6104 103.96C97.2904 103.6 97.9604 103.22 98.6404 102.83C98.7603 102.76 98.8804 102.68 99.0004 102.61C99.5103 102.31 100.02 102.01 100.53 101.69C100.63 101.63 100.74 101.56 100.84 101.49C101.05 101.36 101.25 101.23 101.45 101.1C101.97 100.77 102.49 100.43 103 100.08C103.21 99.9402 103.43 99.7902 103.64 99.6502C103.77 99.5602 103.91 99.4702 104.04 99.3802C104.2 99.2702 104.35 99.1502 104.5 99.0402C105.27 98.4902 106.03 97.9202 106.79 97.3402C106.94 97.2202 107.1 97.1102 107.25 96.9902C107.33 96.9202 107.42 96.8502 107.5 96.7802C108.4 96.0602 109.3 95.3302 110.17 94.5702C110.19 94.5502 110.22 94.5302 110.25 94.5102C110.35 94.4202 110.45 94.3202 110.56 94.2302C111.3 93.5802 112.03 92.9102 112.74 92.2202C112.86 92.1102 112.98 92.0102 113.09 91.9002C113.23 91.7702 113.36 91.6202 113.49 91.4902C114.13 90.8602 114.76 90.2202 115.38 89.5702C115.52 89.4202 115.67 89.2802 115.82 89.1302C115.88 89.0702 115.93 89.0102 115.98 88.9502C116.78 88.0902 117.56 87.2102 118.33 86.3102C118.37 86.2602 118.42 86.2102 118.46 86.1602C118.57 86.0302 118.67 85.8802 118.79 85.7502C119.44 84.9702 120.07 84.1702 120.69 83.3602C120.81 83.2102 120.93 83.0702 121.04 82.9102C121.12 82.8002 121.19 82.6902 121.28 82.5802C122.06 81.5402 122.81 80.4702 123.54 79.3802C123.57 79.3402 123.59 79.3102 123.62 79.2702C124.09 78.5602 124.54 77.8502 124.99 77.1202C125.04 77.0302 125.09 76.9402 125.15 76.8602C125.53 76.2402 125.9 75.6202 126.26 74.9802C126.3 74.9202 126.33 74.8502 126.36 74.7802C126.89 73.8502 127.4 72.9002 127.88 71.9402C128.26 71.1902 128.62 70.4402 128.96 69.6902C128.99 69.6302 129.02 69.5602 129.05 69.5002C129.15 69.2802 129.24 69.0702 129.33 68.8502C129.52 68.4302 129.71 68.0002 129.89 67.5802C130.02 67.2802 130.13 66.9902 130.25 66.6902C130.42 66.2802 130.58 65.8702 130.74 65.4602C130.86 65.1602 130.97 64.8502 131.08 64.5502C131.23 64.1502 131.37 63.7402 131.51 63.3402C131.61 63.0402 131.72 62.7302 131.82 62.4302C131.95 62.0302 132.08 61.6202 132.2 61.2202C132.25 61.0402 132.32 60.8602 132.37 60.6802C132.4 60.5902 132.42 60.5002 132.44 60.4102C132.7 59.5002 132.94 58.6002 133.16 57.7002C133.2 57.5502 133.23 57.4102 133.26 57.2602L133.22 57.2502Z" fill="#0085BF" stroke="black" stroke-miterlimit="10"/>
<path d="M109.327 84.7365C131.964 61.3524 135.762 28.308 117.811 10.9298C99.8588 -6.44844 66.9551 -1.57972 44.3181 21.8044C21.681 45.1885 17.8828 78.2329 35.8346 95.6111C53.7863 112.989 86.6901 108.121 109.327 84.7365Z" fill="#00B1FF" stroke="black" stroke-miterlimit="10"/>
<path d="M87.3699 91.4899L93.5499 88.22L84.6099 58.95L78.4199 62.2299L87.3699 91.4899Z" fill="black"/>
<path d="M42.3301 78.3999L74.7601 61.2099L73.0501 55.6299L40.6201 72.8299L42.3301 78.3999Z" fill="black"/>
<path d="M81.2501 48.25L75.0701 51.53L66.1201 22.26L72.3001 18.98L81.2501 48.25Z" fill="black"/>
<path d="M119.04 37.7699L86.6004 54.9599L84.9004 49.3899L117.33 32.1899L119.04 37.7699Z" fill="black"/>
<path d="M84.3699 89.4899L90.5499 86.22L81.6099 56.95L75.4199 60.2299L84.3699 89.4899Z" fill="white" stroke="black" stroke-miterlimit="10"/>
<path d="M39.3301 76.3999L71.7601 59.2099L70.0501 53.6299L37.6201 70.8299L39.3301 76.3999Z" fill="white" stroke="black" stroke-miterlimit="10"/>
<path d="M78.2501 46.25L72.0701 49.53L63.1201 20.26L69.3001 16.98L78.2501 46.25Z" fill="white" stroke="black" stroke-miterlimit="10"/>
<path d="M116.04 35.7699L83.6004 52.9599L81.9004 47.3899L114.33 30.1899L116.04 35.7699Z" fill="white" stroke="black" stroke-miterlimit="10"/>
</g>
<g clip-path="url(#clip1_430_248)">
<path d="M639.735 295.181C639.993 294.807 640.245 294.434 640.475 294.046L643.901 288.328C643.672 288.715 643.42 289.096 643.162 289.463C643.075 289.585 642.975 289.707 642.889 289.822C642.709 290.066 642.529 290.31 642.335 290.54C642.091 290.842 641.832 291.136 641.567 291.417C641.502 291.488 641.437 291.553 641.373 291.618C641.157 291.84 640.935 292.063 640.705 292.279C640.618 292.365 640.525 292.444 640.439 292.53C640.187 292.76 639.929 292.983 639.663 293.198C639.613 293.241 639.555 293.292 639.505 293.335C639.189 293.593 638.858 293.838 638.521 294.075C638.427 294.139 638.334 294.204 638.248 294.261C637.982 294.441 637.716 294.621 637.443 294.786C637.335 294.851 637.228 294.922 637.12 294.987C636.782 295.188 636.43 295.389 636.078 295.576C636.049 295.59 636.021 295.605 635.992 295.626C635.604 295.828 635.209 296.022 634.799 296.208C634.684 296.259 634.562 296.309 634.447 296.366C634.139 296.503 633.822 296.632 633.499 296.761C633.377 296.812 633.255 296.862 633.126 296.905C632.695 297.063 632.256 297.221 631.804 297.365C631.782 297.372 631.753 297.379 631.725 297.386C631.301 297.523 630.863 297.645 630.417 297.76C630.281 297.796 630.137 297.832 630.001 297.868C629.641 297.954 629.275 298.04 628.909 298.119C628.772 298.148 628.643 298.177 628.506 298.205C628.018 298.306 627.522 298.392 627.019 298.471C626.624 298.529 626.222 298.579 625.82 298.622C625.626 298.644 625.439 298.672 625.252 298.694C624.649 298.759 624.038 298.809 623.413 298.838C622.673 298.881 621.933 298.895 621.179 298.902C620.927 298.902 620.676 298.895 620.432 298.888C619.929 298.888 619.426 298.874 618.923 298.852C618.621 298.838 618.32 298.816 618.025 298.795C617.565 298.766 617.105 298.73 616.638 298.687C616.315 298.658 615.999 298.615 615.676 298.579C615.23 298.529 614.785 298.471 614.332 298.407C614.002 298.356 613.672 298.306 613.341 298.256C612.896 298.184 612.457 298.112 612.012 298.026C611.682 297.961 611.344 297.897 611.013 297.832C610.568 297.738 610.123 297.645 609.684 297.537C609.354 297.458 609.024 297.386 608.686 297.3C608.233 297.185 607.788 297.07 607.335 296.941C607.012 296.855 606.689 296.769 606.365 296.668C605.899 296.532 605.432 296.388 604.965 296.237C604.663 296.144 604.354 296.05 604.052 295.95C603.542 295.777 603.032 295.598 602.522 295.411C602.263 295.318 602.005 295.231 601.753 295.131C601.049 294.865 600.338 294.585 599.641 294.29C599.584 294.269 599.526 294.247 599.476 294.226C598.722 293.909 597.967 293.579 597.22 293.227C596.983 293.119 596.746 292.997 596.502 292.882C595.992 292.638 595.489 292.401 594.986 292.142C594.699 291.999 594.411 291.84 594.124 291.697C593.679 291.46 593.226 291.23 592.781 290.986C592.479 290.82 592.177 290.648 591.876 290.476C591.452 290.238 591.035 289.994 590.618 289.743C590.317 289.563 590.008 289.376 589.706 289.19C589.261 288.917 588.815 288.636 588.37 288.349C588.183 288.227 588.003 288.112 587.817 287.99C587.17 287.566 586.531 287.128 585.898 286.682C585.353 286.295 584.814 285.899 584.275 285.49C584.11 285.368 583.952 285.238 583.786 285.116C583.406 284.822 583.032 284.527 582.659 284.233C582.486 284.096 582.314 283.96 582.141 283.816C581.739 283.486 581.344 283.155 580.949 282.817C580.834 282.717 580.712 282.624 580.597 282.523C580.094 282.092 579.605 281.647 579.117 281.201C579.038 281.129 578.966 281.057 578.887 280.986C578.276 280.411 577.673 279.836 577.084 279.24C577.019 279.175 576.955 279.111 576.89 279.046C576.294 278.435 575.712 277.817 575.151 277.192C575.044 277.078 574.943 276.963 574.835 276.84C574.282 276.223 573.75 275.59 573.233 274.958C573.14 274.843 573.054 274.736 572.967 274.621C572.436 273.953 571.919 273.284 571.423 272.602C571.243 272.358 571.071 272.106 570.898 271.855C570.769 271.668 570.625 271.474 570.496 271.287C570.317 271.029 570.151 270.763 569.979 270.497C569.857 270.31 569.735 270.131 569.613 269.944C569.433 269.657 569.261 269.362 569.081 269.075C568.98 268.909 568.88 268.744 568.779 268.579C568.513 268.119 568.255 267.659 568.003 267.2C563.743 259.305 562.817 251.884 564.727 245.856C565.166 244.463 565.762 243.148 566.495 241.919L563.068 247.638C559.146 254.218 559.34 263.227 564.584 272.94C564.835 273.399 565.094 273.859 565.36 274.319C565.453 274.477 565.554 274.635 565.647 274.793C565.827 275.088 565.999 275.389 566.186 275.677C566.294 275.856 566.416 276.029 566.531 276.201C566.71 276.474 566.883 276.747 567.069 277.02C567.199 277.207 567.328 277.394 567.457 277.573C567.63 277.825 567.802 278.076 567.982 278.32C567.982 278.32 567.989 278.328 567.996 278.335C568.492 279.017 569.009 279.685 569.541 280.353C569.627 280.468 569.72 280.576 569.807 280.691C570.324 281.33 570.863 281.955 571.409 282.573C571.516 282.688 571.617 282.81 571.725 282.925C572.292 283.55 572.867 284.168 573.463 284.779C573.528 284.843 573.592 284.908 573.657 284.973C574.246 285.562 574.842 286.144 575.46 286.718C575.511 286.769 575.561 286.819 575.611 286.862C575.64 286.884 575.669 286.912 575.69 286.934C576.171 287.379 576.667 287.825 577.17 288.256C577.285 288.356 577.4 288.45 577.522 288.55C577.917 288.888 578.312 289.218 578.715 289.549C578.887 289.685 579.052 289.822 579.225 289.958C579.598 290.26 579.972 290.555 580.353 290.842C580.518 290.964 580.676 291.093 580.841 291.215C581.373 291.618 581.919 292.02 582.465 292.408C583.097 292.853 583.736 293.292 584.383 293.715C584.569 293.838 584.749 293.96 584.936 294.075C585.151 294.211 585.36 294.355 585.575 294.491C585.805 294.635 586.035 294.772 586.258 294.908C586.559 295.095 586.868 295.282 587.17 295.468C587.587 295.72 588.011 295.957 588.427 296.201C588.729 296.374 589.031 296.546 589.332 296.711C589.778 296.955 590.223 297.193 590.669 297.422C590.956 297.573 591.243 297.724 591.531 297.875C592.034 298.126 592.536 298.371 593.039 298.608C593.276 298.723 593.521 298.845 593.758 298.953C594.505 299.297 595.259 299.628 596.013 299.951C596.071 299.973 596.128 299.994 596.186 300.023C596.883 300.31 597.587 300.59 598.291 300.856C598.549 300.95 598.808 301.043 599.067 301.136C599.577 301.323 600.087 301.503 600.597 301.675C600.899 301.776 601.2 301.869 601.509 301.963C601.976 302.113 602.443 302.257 602.91 302.394C603.233 302.487 603.557 302.573 603.88 302.667C604.332 302.789 604.778 302.911 605.23 303.026C605.561 303.112 605.891 303.184 606.229 303.263C606.674 303.363 607.12 303.464 607.558 303.557C607.896 303.629 608.226 303.694 608.557 303.751C609.002 303.838 609.44 303.909 609.886 303.981C610.216 304.032 610.547 304.089 610.877 304.132C611.322 304.197 611.775 304.247 612.22 304.305C612.544 304.341 612.86 304.384 613.183 304.412C613.643 304.455 614.11 304.491 614.57 304.52C614.871 304.542 615.173 304.563 615.468 304.578C615.97 304.599 616.473 304.606 616.976 304.613C617.228 304.613 617.479 304.628 617.723 304.628C618.47 304.628 619.218 304.606 619.957 304.563C620.582 304.527 621.193 304.477 621.797 304.42C621.998 304.398 622.192 304.369 622.386 304.348C622.781 304.297 623.176 304.254 623.564 304.197C623.578 304.197 623.6 304.197 623.614 304.197C624.103 304.118 624.584 304.032 625.058 303.938C625.195 303.909 625.324 303.881 625.46 303.852C625.827 303.773 626.193 303.687 626.552 303.601C626.696 303.565 626.832 303.529 626.969 303.493C627.414 303.378 627.853 303.249 628.276 303.119C628.305 303.112 628.327 303.105 628.355 303.098C628.808 302.954 629.246 302.803 629.677 302.638C629.799 302.595 629.922 302.545 630.044 302.494C630.367 302.372 630.683 302.236 630.992 302.099C631.107 302.049 631.229 301.999 631.344 301.941C631.739 301.761 632.134 301.575 632.515 301.374C632.515 301.374 632.529 301.374 632.536 301.366C632.565 301.352 632.594 301.338 632.623 301.316C632.982 301.129 633.327 300.928 633.664 300.727C633.772 300.662 633.88 300.598 633.988 300.526C634.261 300.353 634.534 300.181 634.792 300.001C634.886 299.937 634.979 299.879 635.065 299.815C635.403 299.578 635.733 299.326 636.057 299.075C636.114 299.032 636.164 298.988 636.215 298.938C636.48 298.723 636.739 298.5 636.991 298.27C637.084 298.191 637.17 298.105 637.256 298.019C637.486 297.803 637.709 297.58 637.924 297.351C637.989 297.286 638.054 297.214 638.118 297.149C638.37 296.884 638.607 296.611 638.837 296.33C638.851 296.309 638.866 296.287 638.887 296.266C639.081 296.029 639.261 295.784 639.44 295.54C639.526 295.418 639.627 295.303 639.713 295.181H639.735Z" fill="#0085BF" stroke="black" stroke-miterlimit="10"/>
<path d="M642.385 263.055C652.435 281.668 643.937 297.696 623.391 298.845C611.049 299.535 597.169 294.7 585.883 286.697C578.376 281.374 572.018 274.657 568.003 267.222C557.952 248.601 566.458 232.573 586.997 231.424C599.339 230.734 613.211 235.569 624.504 243.572C632.011 248.895 638.376 255.619 642.385 263.048V263.055Z" fill="#00B1FF" stroke="black" stroke-miterlimit="10"/>
<path d="M607.134 270.296L633.65 285.418L635.086 282.71L635.611 282.379L608.815 267.114L607.134 270.296Z" fill="black"/>
<path d="M589.835 284.815L594.756 287.624L603.851 270.49L598.923 267.674L589.835 284.815Z" fill="black"/>
<path d="M611.365 244.082L602.277 261.223L607.198 264.025L616.293 246.891L611.365 244.082Z" fill="black"/>
<path d="M572.407 246.316L598.93 261.445L597.242 264.635L570.719 249.506L572.407 246.316Z" fill="black"/>
<path d="M609.289 269.578L635.805 284.7L637.242 281.992L637.766 281.661L610.97 266.395L609.289 269.578Z" fill="white" stroke="black" stroke-miterlimit="10"/>
<path d="M591.99 284.096L596.911 286.905L606.006 269.772L601.078 266.956L591.99 284.096Z" fill="white" stroke="black" stroke-miterlimit="10"/>
<path d="M613.52 243.364L604.433 260.504L609.354 263.306L618.448 246.172L613.52 243.364Z" fill="white" stroke="black" stroke-miterlimit="10"/>
<path d="M574.562 245.598L601.085 260.727L599.397 263.917L572.874 248.787L574.562 245.598Z" fill="white" stroke="black" stroke-miterlimit="10"/>
</g>
<path d="M284.836 567.105L284.468 567.197L284.325 567.548L271.492 598.871L253.72 531.948L317.78 558.851L284.836 567.105Z" fill="#C9FF00" stroke="black" stroke-width="1.5"/>
<path d="M523.701 167.411V161.285C525.765 161.228 527.35 160.765 528.417 159.67C529.558 158.499 529.94 156.775 529.94 154.644V148.259C529.94 143.484 531.313 140.963 533.467 139.567C535.566 138.205 538.558 137.8 542.282 137.754V142.602C540.229 142.693 538.753 143.18 537.804 144.253C536.763 145.429 536.531 147.126 536.531 149.088V156.837C536.531 158.292 536.225 159.567 535.328 160.614C534.423 161.671 532.824 162.603 530.016 163.169L529.415 163.291V163.905V164.733V165.348L530.018 165.469C532.851 166.035 534.447 166.967 535.345 168.022C536.235 169.067 536.531 170.34 536.531 171.8V179.55C536.531 181.541 536.776 183.246 537.82 184.432C538.772 185.514 540.245 186.014 542.282 186.126V190.981C538.538 190.934 535.545 190.518 533.445 189.146C531.288 187.737 529.915 185.201 529.891 180.426V174.043C529.891 171.929 529.494 170.202 528.311 169.026C527.258 167.98 525.714 167.502 523.701 167.411Z" fill="#C9FF00" stroke="black" stroke-width="1.5"/>
<path d="M582.353 140.382L569.403 188.402H562.67L575.621 140.382H582.353Z" fill="#004FFF" stroke="black" stroke-width="1.5"/>
<path d="M615.612 159.631C616.665 160.719 618.236 161.195 620.299 161.279V167.46C618.289 167.548 616.745 168.014 615.69 169.055C614.505 170.226 614.109 171.956 614.109 174.091V180.476C614.109 185.25 612.736 187.772 610.575 189.175C608.469 190.543 605.465 190.959 601.718 191.025V186.182C603.771 186.091 605.25 185.603 606.2 184.515C607.238 183.326 607.469 181.606 607.469 179.599V171.849C607.469 170.394 607.775 169.12 608.672 168.072C609.577 167.015 611.176 166.083 613.983 165.517L614.585 165.396V164.782V163.953V163.338L613.982 163.218C611.149 162.651 609.553 161.719 608.655 160.665C607.765 159.619 607.469 158.346 607.469 156.886V149.136C607.469 147.147 607.224 145.45 606.175 144.279C605.221 143.216 603.747 142.74 601.718 142.651V137.754C605.464 137.799 608.457 138.205 610.558 139.567C612.712 140.964 614.085 143.485 614.109 148.261V154.644C614.109 156.748 614.478 158.46 615.612 159.631Z" fill="#C9FF00" stroke="black" stroke-width="1.5"/>
<path d="M181.995 94L190.156 121.844L218 129.995L190.156 138.156L181.995 166L173.844 138.156L146 129.995L173.844 121.844L181.995 94Z" fill="black"/>
<g clip-path="url(#clip2_430_248)">
<path d="M319.06 440.16C314.31 440.16 311.11 436.49 309.55 429.25C309.14 426.78 308.78 423.78 308.46 421.07C305.85 424.57 302.91 428.78 300.45 432.54L298.02 436.26L297.72 431.82C297.43 427.6 297.36 422.06 297.32 417.2V416.78L297.54 416.42C310.74 394.68 323.71 385.02 340.6 373.75L342.95 372.18L342.92 375C342.8 385.89 343.1 388.16 344.78 400.76C345.08 403.05 345.59 406.88 344.38 412.33C342.48 420.88 336.65 429.83 329.14 435.71C325.38 438.66 321.99 440.15 319.07 440.15L319.06 440.16ZM322.74 415.74C322.8 416.02 323.01 416.87 323.35 416.87C323.69 416.87 324.26 416.61 324.78 416.21C326.5 414.92 327.87 412.65 328.19 410.56C328.29 409.87 328.29 409.63 327.35 401.95L321.65 406.83L322.74 415.74Z" fill="black"/>
<path d="M320.75 502.51L322.07 501.82L320.74 502.5C314.89 491.21 310.27 482.3 305.12 467L304.88 466.28L305.32 465.66C313.31 454.47 321.57 442.9 348.26 423.17L349.87 421.98L350.55 423.86C352.44 429.08 354.62 435.04 356.47 439.53L356.9 440.57L356.01 441.27C344.92 450 334.43 458.25 322.69 471.6C325.71 478.09 329.33 485.48 332.05 490.66L332.52 491.55L331.87 492.32C328.81 495.92 325.62 499.69 323.25 502.74L321.82 504.57L320.75 502.51Z" fill="black"/>
<path d="M363.13 558.46C358.71 553.9 352.94 547.54 348.89 543.01L348.26 542.3L351.01 535.85C347.11 530.94 342.05 524.27 337.74 518.36L332.23 521.18L331.5 520.05C328.23 515.03 324.08 508.14 321.18 503.25L320.34 501.84L321.82 501.14C340.79 492.18 356.43 485.86 376.23 477.86L377.32 477.42L378 478.37C381.72 483.55 387.31 490.92 392.23 497.14L392.84 497.91L392.38 498.77C376.56 528.27 371.71 540.78 365.61 557.9L364.8 560.16L363.13 558.44V558.46ZM352.62 510.96C354.22 513.13 356.11 515.58 357.81 517.79C358.15 518.23 358.48 518.67 358.81 519.09C360.97 514.71 362.11 512.62 366.8 504.21C363.27 505.88 361.01 506.96 352.62 510.96Z" fill="black"/>
<path d="M384.29 576.58C380.05 573.12 373.65 567.9 369.05 563.86L367.81 562.77L369.02 561.65C376.95 554.32 377.91 553.44 383.88 547.68C387.19 529.51 388.57 523.09 394.06 503.36L394.76 500.86L396.57 502.72C399.39 505.62 406.57 512.95 412.17 518.25L412.82 518.87L412.58 519.74C408.73 533.46 408.31 534.97 406.76 541.31C419.74 537.12 421.03 536.67 429.16 533.46L429.92 533.16L430.58 533.64C434.61 536.54 442.26 541.98 448.14 545.83L450.58 547.42L447.86 548.46C436.63 552.77 423.9 557.66 411.08 560.62C410.07 560.85 408.97 561.02 407.81 561.2C405.6 561.54 403.32 561.89 401.73 562.68C392.36 571.35 391.77 571.9 386.19 576.58L385.25 577.37L384.29 576.59V576.58Z" fill="black"/>
<path d="M607.84 516.04C607.18 516.92 604.99 520.08 604.51 523.78L603.23 532.54L609.76 524.39C610.633 518.41 611.066 515.25 611.06 514.91C611.06 514.6 610.95 513.13 609.52 514.21C608.98 514.62 608.3 515.42 607.84 516.03M606.7 502.55C613.43 493.86 617.66 491.93 618.62 497.12C619.24 500.49 618.47 510.65 613.81 524.81C604.77 540.47 596.48 552.75 572.12 568.3C573.27 564.49 574.79 559.4 575.64 555.51C580.69 552.08 587.31 547.33 592.08 543.51C592.53 540.35 593.24 536.15 593.53 532.97C594.68 522.59 599.12 512.36 606.71 502.55" fill="black"/>
<path d="M568.88 489.03C572.34 500.2 575.07 509.02 576.73 523.35C593.19 511.44 605.81 501.37 618.39 480.22C617.74 475.73 616.87 469.75 615.98 465.3C609.75 474.95 603.87 484.07 587.94 497.79C586.44 491.85 584.26 483.98 582.42 478.14C578.4 481.46 573.03 485.87 568.88 489.03Z" fill="black"/>
<path d="M577.77 448.92C583.156 439.593 586.96 432.516 589.18 427.69C578.63 433.33 577.77 433.79 571.35 436.92C573.29 440.52 575.95 445.27 577.77 448.92ZM549.09 447.65C545.84 442.65 541.46 436.02 538.01 431.16C557.27 422.95 573.9 415.85 592.19 407.06C595.45 412.83 599.65 420.61 602.61 426.54C594.82 448.84 588.37 462.35 568.64 488.33C566.68 483.22 564 476.41 561.8 471.4L567.54 463.93C564.48 457.88 560.24 449.89 556.88 444.01L549.09 447.66" fill="black"/>
<path d="M535.71 387.54C524.91 398.33 524.49 398.75 517.05 406.08C520.9 410.36 526.04 416.07 529.74 420.49C540.96 409.89 541.88 409.03 548.69 402.28C563.95 399.4 568.64 398.56 585.43 396.45C581.8 391.36 576.9 384.61 573.06 379.68C562.09 381.64 560.68 381.89 553.64 383.44C555.646 374.107 556.99 367.023 557.67 362.19C552.98 357.56 546.67 351.44 541.79 347C539.31 376.42 535.74 387.48 535.71 387.54Z" fill="black"/>
<path d="M453.9 314.1C453.43 314.6 451.3 317.19 455.42 318.99L465.76 323.39L473.23 316.66C465.87 313.527 461.913 311.923 461.36 311.85C456.95 311.27 454.54 313.42 453.9 314.1ZM436.51 310.17C453.98 292.12 478.16 305.23 499.48 316.79C489.17 324.95 478.51 333.39 457.2 359.01C452.44 356.51 446.1 353.18 441.24 350.88C445.23 345.94 450.63 339.42 454.81 334.63C451.1 333.06 446.2 330.89 442.44 329.45C426.68 322.79 433.04 313.74 436.5 310.16" fill="black"/>
<path d="M372.23 335.27C382.5 335.38 390.62 335.47 405.47 338.65C417.62 322.13 427.78 309.44 447.93 296.49C443.41 295.64 437.38 294.52 432.82 293.91C423.02 300.22 413.77 306.17 400.43 322.3C394.91 321.88 387.52 321.5 381.98 321.49C378.98 325.57 374.99 331.03 372.22 335.28" fill="black"/>
<path d="M343.29 400.97C341.6 388.28 341.3 386 341.42 375C324.7 386.16 311.85 395.72 298.81 417.2C298.85 421.56 298.91 427.38 299.21 431.73C302.12 427.27 306.22 421.44 309.51 417.25C309.95 420.76 310.44 425.45 311.02 428.94C313.93 442.43 321.98 439.44 328.22 434.55C335.46 428.88 341.1 420.25 342.92 412.02C344.07 406.82 343.58 403.16 343.29 400.96V400.97ZM329.66 410.8C329.28 413.28 327.71 415.88 325.67 417.41C324.83 418.04 322.04 419.8 321.27 415.99L320.08 406.23L328.5 399.03C329.38 406.23 329.77 410.157 329.67 410.81L329.66 410.8Z" fill="#F93AC3"/>
<path d="M355.08 440.09C353.16 435.43 350.86 429.1 349.14 424.36C322.65 443.95 314.45 455.42 306.53 466.52C311.65 481.71 316.24 490.59 322.07 501.82C324.57 498.6 328.09 494.46 330.73 491.35C327.63 485.43 323.73 477.41 320.93 471.35C333.01 457.46 343.73 449.03 355.08 440.1V440.09Z" fill="#F93AC3"/>
<path d="M376.79 479.26C357 487.26 341.37 493.58 322.46 502.51C325.47 507.58 329.53 514.31 332.75 519.26L338.2 516.47C342.43 522.31 348.23 529.99 352.73 535.63L350.01 542.02C354.2 546.7 359.84 552.91 364.21 557.42C370.33 540.24 375.2 527.68 391.07 498.09C386.67 492.53 380.93 485.02 376.8 479.26H376.79ZM359.09 521.9C356.46 518.45 352.89 513.91 350.36 510.38C358.887 506.313 365.56 503.143 370.38 500.87C362.86 514.32 362.41 515.12 359.09 521.9Z" fill="#F93AC3"/>
<path d="M447.33 547.07C441.95 543.55 434.94 538.6 429.71 534.84C421.03 538.27 420.11 538.57 404.68 543.54C406.107 537.693 408.263 529.623 411.15 519.33C406.34 514.78 400.12 508.51 395.51 503.76C389.99 523.6 388.64 529.94 385.27 548.42C379.01 554.46 378.16 555.24 370.04 562.74C374.5 566.66 380.63 571.67 385.24 575.42C390.81 570.75 391.38 570.22 400.87 561.43C403.56 560.01 407.79 559.83 410.75 559.15C423.47 556.22 436.14 551.35 447.33 547.05V547.07Z" fill="#F93AC3"/>
<path d="M462 615.58C457.27 614.35 451.08 612.43 446.56 611.02L443.55 610.08L446.19 608.35C465.71 595.55 476.23 583.13 488.95 566.99L489.59 566.17L490.58 566.49C502.43 570.37 504.71 570.82 517.36 573.34C521.95 574.25 523.69 575.3 525.66 577.17C527.04 578.48 527.82 580.46 527.84 582.75C527.87 585.77 526.61 590.65 520.46 596.68C517.7 599.39 507.56 608.22 492.75 608.22C491.25 608.22 489.72 608.13 488.21 607.95C485.56 607.51 482.36 606.83 479.53 606.22C478.66 606.03 477.82 605.85 477.02 605.69C473.15 608.63 467.8 612.38 463.18 615.37L462.63 615.73L462 615.57V615.58ZM497.9 594.37C498.19 594.41 498.49 594.43 498.78 594.43C501.89 594.43 504.14 592.39 504.56 591.98C505.64 590.93 505.99 590.08 505.96 589.66C505.96 589.56 505.93 589.49 505.81 589.4C505.38 589.16 502.96 588.65 495.92 587.17L490.73 592.86L497.9 594.36V594.37Z" fill="black"/>
<path d="M494.88 616.84C509.55 608.05 521.21 599.95 537.8 575.65L538.21 575.05L538.94 575.01C542.92 574.78 548.38 574.46 552.42 573.95L555.71 573.53L553.83 576.27C546.85 586.45 540.21 596.14 527.9 606.32C531.39 605.51 534.79 604.63 537.41 603.85C541.15 602.35 545.73 599.4 551.03 595.08C553.54 592.14 556.97 587.98 559.25 584.7L559.5 584.34L559.91 584.17C562.11 583.27 563.76 582.58 565.22 581.94C574.29 572.7 581.35 564.09 581.42 564.01L581.56 563.84L581.74 563.72C585.17 561.39 589.87 557.73 593.74 554.4L597.47 553.75C596.72 555.36 592.52 561.35 587.76 566.79C562.37 601.19 533.11 611.99 527.35 613.84L527.07 613.96C526.67 614.12 526.28 614.28 525.93 614.43L525.91 614.39C525.73 614.47 525.56 614.55 525.38 614.62L525.31 614.65L525.23 614.67C516.36 617.22 509.36 619.24 495.68 619.6L490.01 619.75L494.88 616.83V616.84Z" fill="black"/>
<path d="M524.64 578.26C522.84 576.56 521.33 575.66 517.08 574.82C504.35 572.29 502.06 571.83 490.12 567.92C477.31 584.17 466.72 596.68 447.01 609.6C451.6 611.03 457.73 612.93 462.38 614.14C466.77 611.29 472.51 607.3 476.67 604.11C480.19 604.84 484.86 605.9 488.4 606.49C504.93 608.47 516.33 598.68 519.43 595.64C527.92 587.3 527.2 580.68 524.65 578.27L524.64 578.26ZM505.6 593.04C505.02 593.61 501.9 596.4 497.65 595.83L487.87 593.78L495.4 585.53C502.566 587.037 506.333 587.923 506.7 588.19C508.03 589.17 507.59 591.11 505.61 593.04H505.6Z" fill="#F93AC3"/>
<path d="M594.71 555.53C591.22 558.54 586.39 562.36 582.58 564.95C582.58 564.95 575.41 573.71 566.08 583.19C564.42 583.92 562.58 584.69 560.48 585.55C558.17 588.88 554.72 593.06 552.09 596.14H552.1C547.13 600.2 542.2 603.55 537.9 605.26C533.16 606.68 526.73 608.18 521.87 609.14C537.39 597.61 544.78 586.83 552.6 575.42C548.55 575.93 543.1 576.25 539.02 576.49C522.26 601.04 510.46 609.23 495.64 618.11C509.13 617.75 516.05 615.76 524.81 613.24C525.21 613.08 525.62 612.88 526.03 612.69C525.79 612.81 525.58 612.93 525.34 613.06C525.8 612.86 526.32 612.65 526.83 612.45C532.01 610.79 561.26 600.19 586.59 565.86C590.78 561.08 593.97 557.12 594.71 555.53Z" fill="#F93AC3"/>
<path d="M397.74 295.04C397.74 295.04 392.89 295.89 385.18 298.74C384.17 299.08 383.19 299.41 382.28 299.73C382 299.88 381.75 300.03 381.48 300.19C363.74 307.43 334.93 324.13 312.7 360.69C312.04 361.75 311.41 362.78 310.85 363.74C313.33 360.93 316.64 357.17 319.37 354.59C321.06 351.85 322.38 349.7 323.5 347.92C325.92 345.18 328.66 342.22 331.72 339.11C332.87 338.53 334.05 338.03 335.25 337.61C332.36 341.14 329.44 344.94 326.34 349.12C329.76 346.95 334.53 344.42 338.14 342.58L343.59 335.42C344.12 335.31 344.65 335.2 345.19 335.08C345.28 334.9 345.39 334.71 345.48 334.53C349.91 333.01 355.36 331.41 359.61 330.32L356.91 336.88C361.29 336.2 367.19 335.65 371.6 335.29C379.1 314.22 384.72 305.57 397.74 295.05V295.04ZM365.95 318.59C363.48 320.26 359.28 320.6 356.42 321.48C360.853 317.3 367.646 311.916 376.8 305.33C372.7 309.19 372.58 309.37 365.95 318.58V318.59Z" fill="black"/>
<path d="M398.87 344.73C388.24 332.05 376.5 319.09 363.98 306.22C351.09 292.97 337.39 279.82 323.25 267.14L322.17 266.17L323.11 265.06C329.47 257.51 335.66 249.9 341.5 242.42C341.95 241.84 343.81 239.45 343.81 239.45L345.01 240.47C359.49 252.86 373.39 265.9 386.33 279.2C392.77 285.82 399.01 292.55 404.9 299.22C414.29 287.07 422.92 275.13 430.56 263.71L431.67 262.05L432.96 263.57C438.05 269.59 442.94 275.76 447.5 281.9L448.13 282.75L447.54 283.63C439.31 295.94 429.93 308.84 419.65 321.98C413.77 329.49 407.56 337.15 401.17 344.73L400.02 346.09L398.87 344.72V344.73Z" fill="black"/>
<path d="M310.42 127.52C323.98 119.31 336.99 112.33 349.17 106.8C353.68 110.61 358.14 114.59 362.54 118.76C350.55 124.2 337.77 131.04 324.45 139.07C327.69 142.18 330.91 145.38 334.11 148.67C336.56 151.19 338.98 153.74 341.36 156.32C354.69 148.29 367.48 141.45 379.47 136C383.97 140.93 388.32 145.98 392.51 151.14C380.32 156.67 367.31 163.66 353.74 171.87C358.95 178.06 363.98 184.38 368.82 190.83C389.51 178.31 408.88 168.69 425.97 162.75C415.78 147.83 404.28 133.69 391.52 120.56C378.38 107.05 364.52 95.27 350.17 85.21C333.1 91.14 313.75 100.74 293.09 113.25C298.9 117.72 304.68 122.48 310.43 127.51" fill="black"/>
<path d="M299.14 240C296.41 213.53 296.06 210.13 294.34 196.44C321.99 204.68 323.64 205.18 338.42 210.65C347.48 204.34 356.39 198.48 365.09 193.11C344.63 185.15 328.47 178.86 296.68 170.61C294.02 152.15 291.51 134.71 287.44 116.73C278.75 122.15 269.86 128.05 260.82 134.39C262.87 144.69 265.45 158.45 267.27 168.8C254.83 166.15 238.18 162.87 225.65 160.67C216.33 168.05 206.95 175.8 197.59 183.85C217.7 186.35 238.5 188.94 264.51 194.51C267.31 220.78 267.54 222.93 271.15 263.28C280.48 255.2 289.84 247.43 299.14 240.01" fill="black"/>
<path d="M160.26 267.5C162.11 269.03 168.88 273.33 178.42 264.47C184.74 258.19 191.13 252.01 197.57 245.94C191.81 240.04 186.18 234.3 180.68 228.73C174.28 234.76 167.93 240.9 161.65 247.14C152.68 256.69 156.55 264.43 160.25 267.5M139.07 293.55C136.17 291.07 111.69 268.32 143.37 234.21C158.14 219.42 173.31 205.15 188.6 191.67C200.72 203.2 213.41 215.75 226.55 229.26C239.31 242.38 251.91 255.8 264.21 269.33C256.34 276.28 248.49 283.43 240.71 290.76C232.02 281.63 223.26 272.48 214.47 263.39C207 270.42 199.6 277.61 192.3 284.93C164.99 310.49 145.97 299.48 139.06 293.56" fill="black"/>
<path d="M129.63 416.15C135.17 408.38 141.16 400.38 147.57 392.18C157.55 379.41 168.15 366.71 179.19 354.21C165.78 341.79 152.6 328.95 139.84 315.83C126.7 302.32 114.63 289.16 103.68 276.46C96.58 284.5 89.66 292.62 82.98 300.79C93.65 313.82 105.57 327.17 118.71 340.67C125.65 347.8 132.75 354.8 139.98 361.65C136.22 366.24 132.54 370.84 128.93 375.45C122.42 383.77 116.36 391.88 110.74 399.76C116.91 405.39 123.21 410.86 129.63 416.16" fill="black"/>
<path d="M49.8701 450.63C54.4901 454.81 70.3701 467.14 80.7901 450.16C93.8101 422.51 62.3901 389.42 45.0401 396.51C30.7801 402.34 27.1401 430.04 49.8601 450.63M45.1601 470.24C25.8001 452.98 4.46005 415.07 25.0101 381.37C53.8801 344.13 100.31 382.58 106.74 424.72C112.76 464.11 87.3101 502.54 49.5901 473.9C48.2201 472.86 46.4501 471.39 45.1601 470.24Z" fill="black"/>
<path d="M22.86 488.81C26.68 493.15 29.21 494.58 29.31 492.45C29.31 492.3 29.3 492.11 29.29 491.96C28.99 488.99 28.99 485.77 29.27 482.32C23.65 476.23 18.38 469.97 13.46 463.57C13.18 467 13.18 470.2 13.48 473.15C14.23 477.97 19.94 485.5 22.86 488.81ZM76.22 535.96C77.03 539.82 78.43 543.17 80.43 545.97C59.02 528.32 57.73 527.26 45.73 514.39C39.01 515.6 3.79999 472.26 0.419986 455.68C-0.550014 448.79 0.179986 440.43 2.60999 430.77C12.2 445.61 23.56 459.9 36.69 473.41C49.45 486.53 63.31 498.31 78.01 508.7C76.76 513.67 75.96 518.3 75.6 522.57C65.45 515.53 55.7 507.79 46.45 499.36C46.27 501.58 46.2 503.7 46.26 505.72C54.9 515.12 69.94 524.83 76.22 535.95" fill="black"/>
<path d="M85.8999 550.62C76.4499 544.24 67.3399 537.19 58.6299 529.46C67.3099 536.57 79.0499 545.88 88.1899 552.4C87.3799 551.85 86.6199 551.26 85.8999 550.63" fill="black"/>
<path d="M437.42 111.31C432.85 107.06 429.9 104.54 427.53 102.52C433.69 108.17 442.04 115.59 447.92 121.53L451.17 124.92L450.1 123.79C447.03 120.64 442.84 116.34 437.43 111.31M484.05 167.21C482.8 165.24 481.29 163.53 479.5 162.06C476.07 156.55 471.49 149.2 467.62 144.01L479.88 160.83L484.06 167.21" fill="black"/>
<path d="M383.92 93.3599C394.15 90.9099 402.76 90.2299 409.77 91.1899C414.43 94.9599 419 98.9199 423.47 103.07C416.59 102.13 408.18 102.76 398.21 105.08C401.51 108.16 404.76 111.35 407.96 114.64C410.41 117.16 412.81 119.72 415.16 122.31C425.13 119.98 433.55 119.36 440.43 120.3C444.88 125.24 449.12 130.32 453.15 135.51C446.14 134.55 437.52 135.23 427.29 137.68C432.26 143.97 436.97 150.45 441.4 157.07C456.97 153.34 468.73 153.78 476.76 157.85C467.21 142.89 456.05 128.72 443.29 115.6C430.15 102.09 415.93 90.3399 400.9 80.3199C392.88 76.2499 381.12 75.8099 365.58 79.5399C371.81 83.8199 377.93 88.4199 383.92 93.3499" fill="black"/>
<path d="M213.45 511.05C211.79 501.38 210.36 493.03 208.66 480.97C207.53 472.89 206.36 463.79 205.1 453.19C201.89 452.34 198.66 451.49 195.4 450.62C179.1 446.25 161.21 441.12 140.87 433.32L138.16 432.28L140.58 430.67C149.39 424.8 158.46 418.42 167.55 411.7L168.17 411.24L168.91 411.48C176.74 414.04 186.44 417.08 196.23 420.04C200.85 421.43 204.44 422.49 207.52 423.39C207.02 419.69 206.49 415.68 205.96 411.56C204.8 402.78 203.56 393.16 202.55 385.17L202.45 384.35L203.08 383.82C212.53 375.99 221.96 367.86 231.09 359.66L233.29 357.68L233.58 360.63C236.49 389.85 237.82 403.2 238.63 411.21C239.2 416.68 239.52 419.66 239.94 423.49L240.13 425.23C255.04 427.9 268 430.22 285.23 432.45C292.95 433.45 301.04 434.38 309.96 435.28L313.32 435.62L310.82 437.88C302.71 445.21 294.36 452.48 286.01 459.5C284.94 460.4 283.87 461.3 282.79 462.2L282.21 462.68L281.51 462.51L281.27 462.48C256.79 458.81 252.39 458.16 240.14 455.68L238.1 455.27C240.03 468.73 240.95 475.1 241.79 480.5C242.38 484.24 242.92 487.51 243.67 491.89L243.83 492.8L243.08 493.35C233.83 500.14 224.66 506.55 215.82 512.38L213.9 513.64L213.45 511.02V511.05Z" fill="black"/>
<path d="M309.8 436.79C301.58 444.22 293.3 451.43 285.03 458.38C283.96 459.28 282.89 460.18 281.82 461.07C281.78 461.07 281.74 461.07 281.7 461.05H281.68C281.6 461.04 281.52 461.03 281.44 461.02C256.85 457.34 252.64 456.71 240.43 454.24C240.38 454.23 240.32 454.22 240.27 454.21C239.04 453.96 237.73 453.69 236.31 453.4C238.45 468.31 239.42 475.08 240.31 480.76C240.88 484.4 241.41 487.58 242.19 492.17C232.99 498.93 223.9 505.28 214.99 511.16C213.32 501.43 211.86 492.95 210.14 480.76C209.06 473.07 207.87 463.9 206.46 452C202.93 451.07 199.37 450.13 195.78 449.17C179.04 444.68 161.47 439.62 141.4 431.92C150.26 426.02 159.29 419.67 168.43 412.91C176.51 415.55 186.43 418.65 195.78 421.48C200.54 422.91 205.15 424.28 209.3 425.47C208.72 421.16 208.08 416.34 207.43 411.37C206.24 402.34 205.01 392.82 204.02 384.99C213.38 377.24 222.76 369.16 232.08 360.79C234.99 390.01 236.32 403.36 237.13 411.37C237.83 418.12 238.16 421.08 238.75 426.52C254.19 429.29 267.34 431.66 285.03 433.95C292.35 434.9 300.44 435.84 309.8 436.79Z" fill="#004FFF"/>
<path d="M240.43 454.24C252.64 456.71 256.85 457.34 281.44 461.02C278.39 460.64 257.56 457.93 240.43 454.24Z" fill="#004FFF"/>
<path d="M315.63 431.59C303.85 420 291.53 407.59 278.99 394.7C266.07 381.42 252.93 367.63 239.92 353.7L238.89 352.6L240 351.58C255.29 337.52 270.28 322.83 284.56 307.91C296.1 296.67 307.55 290.99 318.63 290.99C333.41 290.99 342.95 301.16 345.52 304.27C351.92 312.03 364.05 333.19 338.42 362.07C331.62 369.17 324.64 376.25 317.61 383.17C325.74 391.55 333.55 399.62 341.04 407.37L342.07 408.44L341.01 409.48C333.39 416.96 325.55 424.41 317.71 431.62L316.66 432.59L315.64 431.59H315.63ZM283.3 347.94C288.45 353.22 293.61 358.5 298.75 363.78C304.7 357.92 310.63 351.94 316.39 345.97C324.57 336.87 320.07 330.22 319.08 328.98C318.36 328.07 315.66 325.11 311.23 325.11C307.85 325.11 304.36 326.83 300.85 330.22C295.14 336.13 289.23 342.1 283.31 347.93L283.3 347.94Z" fill="black"/>
<path d="M337.28 361.08C362.14 333.07 350.5 312.69 344.35 305.23C340.26 300.28 318.23 277.2 285.64 308.95C271.17 324.06 256.2 338.72 241.01 352.68C253.86 366.43 266.93 380.15 280.06 393.65C292.82 406.77 305.06 419.09 316.68 430.52C324.5 423.32 332.27 415.94 339.94 408.41C332.14 400.33 323.98 391.9 315.48 383.14C322.85 375.91 330.12 368.54 337.28 361.07V361.08ZM298.72 365.9C292.88 359.9 287.03 353.9 281.18 347.91C287.46 341.75 293.67 335.49 299.8 329.14C309.33 319.95 317.14 324.13 320.25 328.04C321.37 329.45 326.48 336.97 317.46 347C311.29 353.38 305.04 359.69 298.72 365.89V365.9Z" fill="#004FFF"/>
<path d="M449.13 256.67C434.5 256.67 417.23 246.02 405.14 229.53C390.1 209.02 385.59 184.18 392.77 161.4L392.82 161.27C398.8 147.09 407.38 139.9 418.34 139.9C426.3 139.9 435.21 143.7 444.84 151.19C452.14 156.87 457.27 162.74 457.83 163.39C475.34 183.7 483.36 207.94 479.3 228.22C476.91 240.16 470.48 249.29 461.19 253.93C457.56 255.75 453.5 256.67 449.13 256.67ZM427.31 166.6C423.8 166.6 420.91 168.07 418.73 170.98C414.78 176.24 413.87 185.27 416.4 194.01C421.43 211.36 437.7 225.33 447.82 225.33C452.39 225.33 456.11 222.85 458.88 217.95C465.71 201.04 452.76 184.25 448.62 179.5C445.14 175.51 440.87 171.86 437.19 169.73C433.59 167.65 430.27 166.6 427.32 166.6H427.31Z" fill="black"/>
<path d="M456.69 164.37C454.95 162.35 413.78 115.38 394.2 161.85C377.11 216.09 430.95 267.38 460.52 252.59C483.85 240.92 487.26 199.84 456.69 164.37ZM460.23 218.6C448.21 240.07 420.94 215.05 414.96 194.42C409.81 176.66 418.42 157.16 437.94 168.43C441.75 170.63 446.17 174.4 449.75 178.51C454.04 183.43 467.46 200.87 460.23 218.6Z" fill="#004FFF"/>
<path d="M486.34 195.26C476.89 180.67 465.78 166.76 453.3 153.93C440.46 140.73 426.18 128.67 410.88 118.11L410.11 117.58L410.25 116.65C411.54 108.09 411.19 100.87 409.19 95.21C408.62 93.3 408.51 92.7 408.75 91.48L408.91 90.7L409.65 90.39C410 90.24 410.53 90.02 411.28 90.02C413.05 90.02 415.78 90.85 427.81 100.77L428.51 101.36C433.5 105.65 439.47 111.36 444.73 116.39C446.21 117.8 447.63 119.16 448.96 120.43C450.53 121.99 455.99 127.55 461.44 134.53L468.8 143.07L481.09 159.94L485.31 166.38C485.97 167.43 486.57 168.54 487.08 169.7L486.79 174.25C482.31 168.36 473.71 157.81 467.93 151.5C467.94 151.68 467.96 151.85 467.97 152.03C475.86 161.26 483.13 171.05 489.57 181.14L489.78 181.47L489.8 181.86C490.02 185.74 489.79 190.05 489.09 194.67L488.5 198.58L486.35 195.26H486.34ZM432.9 117.78C438.09 122.01 443.17 126.48 448.04 131.09C447.81 129.66 447.51 128.3 447.13 127.02C446.08 124.11 441.43 119.13 437.79 115.77C434.5 112.75 432.55 111.44 431.86 111.01C431.86 111.01 431.86 111.01 431.85 111.01C432.37 113.08 432.73 115.36 432.9 117.78Z" fill="black"/>
<path d="M488.3 181.95C481.83 171.84 474.57 162.04 466.49 152.63C466.38 150.66 466.14 148.79 465.79 147.02C472.12 153.68 480.13 163 485.7 170.32C485.21 169.22 484.66 168.19 484.04 167.21L479.86 160.83L467.6 144.01L460.24 135.46C454.84 128.54 449.44 123.05 447.91 121.52C441.84 115.77 433.86 107.96 427.52 102.51L426.83 101.93C413.07 90.58 411.55 91.21 410.2 91.77C410.02 92.64 410.07 92.97 410.58 94.7C412.67 100.62 413.04 108.07 411.71 116.87C426.91 127.37 441.22 139.38 454.36 152.88C467.12 166 478.2 179.93 487.59 194.44C488.27 189.91 488.51 185.73 488.29 181.94L488.3 181.95ZM431.45 118.53C431.27 115.49 430.81 112.7 430.06 110.16C429.91 109.52 429.53 107.82 432.64 109.74C433.37 110.19 435.42 111.56 438.8 114.67C440.17 115.93 447.06 122.4 448.57 126.6C449.32 129.16 449.79 131.97 449.97 135.03C444.01 129.22 437.83 123.72 431.45 118.54V118.53Z" fill="#004FFF"/>
<path d="M150.9 547.22C136.91 537.13 123.42 525.44 110.81 512.47C97.8398 499.14 85.8098 484.47 75.0598 468.87L74.0098 467.35L75.7198 466.64C93.3698 459.28 113.25 448.45 134.81 434.46L135.98 433.7L136.82 434.81L137.07 435.15C142.49 442.55 147.74 449.06 151.85 453.5L153.06 454.81L151.56 455.78C146.94 458.78 142.19 461.76 137.45 464.63L134.79 466.29V466.23C127.24 470.73 119.9 474.84 112.91 478.46C116.18 482.44 119.55 486.36 122.95 490.16C134.97 483.97 147.82 476.47 161.19 467.83L162.25 467.14L163.11 468.07C166.2 471.45 169.37 474.8 172.53 478.05C174.95 480.54 177.43 483.02 179.88 485.43L181.22 486.74L179.65 487.76C166.51 496.25 153.84 503.67 141.97 509.82C145.9 513.58 149.93 517.25 153.98 520.77C166.27 514.45 179.44 506.74 193.14 497.85L194.1 497.23L194.96 498C200.61 503.06 206.38 507.94 212.12 512.51L213.75 513.81L212 514.94C190.26 529.05 170.2 539.97 152.36 547.41L151.59 547.73L150.91 547.24L150.9 547.22Z" fill="black"/>
<path d="M193.95 499.09C179.99 508.15 166.5 516.04 153.75 522.55C148.92 518.38 144.13 514.01 139.41 509.43C151.92 503.04 165.15 495.32 178.83 486.49C176.37 484.07 173.91 481.6 171.46 479.09C168.26 475.8 165.11 472.46 162.01 469.07C148.34 477.9 135.12 485.61 122.62 492C118.49 487.41 114.48 482.73 110.59 477.96C118.87 473.73 127.47 468.91 136.31 463.57L136.69 463.34C141.32 460.54 146.01 457.6 150.76 454.52C143.74 446.95 135.96 436.15 135.63 435.73C114.43 449.49 94.3298 460.52 76.2998 468.04C86.8698 483.38 98.7498 497.94 111.89 511.44C124.65 524.56 138.02 536.09 151.79 546.01C169.84 538.48 189.97 527.44 211.19 513.66C205.44 509.08 199.69 504.22 193.97 499.1L193.95 499.09Z" fill="#004FFF"/>
<path d="M106.94 558.7C98.92 558.7 92.33 557 87.35 553.64C81.82 549.58 67.97 539.29 57.67 530.61C52.84 526.32 48.12 521.81 43.63 517.19C30.65 503.84 19.07 489.12 9.22998 473.44L11.5 471.52C16.13 475.63 22.87 477.71 31.52 477.71C34.34 477.71 37.41 477.49 40.63 477.04L41.57 476.91L42.09 477.71C46.4 484.32 51.01 490.81 55.81 497.01L57.31 498.95L54.89 499.4C54.78 499.42 52.16 499.9 47.65 499.9C43.8 499.9 39.79 499.56 35.72 498.88C38.57 502.5 41.54 506.07 44.56 509.53C48.08 510.69 52.21 511.28 56.84 511.28C59.55 511.28 62.48 511.08 65.55 510.68L66.34 510.58L66.87 511.18C69.88 514.59 73.01 517.96 76.15 521.2C78.56 523.68 81.05 526.15 83.55 528.53L85.82 530.7L82.71 531.11C79.51 531.53 76.45 531.74 73.6 531.74C70.75 531.74 68.18 531.54 65.72 531.13C69.06 534.17 72.49 537.13 75.96 539.97C79.49 541.15 83.64 541.75 88.3 541.75C91.17 541.75 94.28 541.52 97.54 541.07L98.19 540.98L98.7 541.4C104.64 546.31 110.83 550.98 117.11 555.3L120.3 557.49L116.47 558.02C113.11 558.48 109.91 558.72 106.95 558.72L106.94 558.7Z" fill="black"/>
<path d="M97.7497 542.53C88.6397 543.78 81.1398 543.31 75.2298 541.27C70.1898 537.15 65.2597 532.81 60.4597 528.25C66.2797 530.26 73.6297 530.75 82.5197 529.59C80.0097 527.19 77.5297 524.74 75.0798 522.22C71.8797 518.93 68.7697 515.57 65.7497 512.15C56.8597 513.31 49.5197 512.82 43.6997 510.81C39.6597 506.2 35.7897 501.48 32.1097 496.66C32.5797 496.82 33.0897 496.91 33.6097 496.96C46.3097 499.47 54.6097 497.91 54.6097 497.91C49.7297 491.62 45.1297 485.14 40.8197 478.51C26.9497 480.42 16.8597 478.28 10.4897 472.62C20.1597 488.02 31.5497 502.61 44.6897 516.12C49.2097 520.76 53.8597 525.2 58.6197 529.44C67.1997 536.67 79.1297 545.73 88.1797 552.38C94.5798 556.7 103.93 558.2 116.26 556.5C109.96 552.17 103.78 547.51 97.7497 542.52V542.53Z" fill="#004FFF"/>
<path d="M431.81 264.55C423.94 276.32 414.99 288.69 404.97 301.58C398.76 294.5 392.19 287.38 385.25 280.25C372.11 266.74 358.3 253.83 344.03 241.61C343.58 242.19 343.13 242.76 342.68 243.34C336.74 250.93 330.59 258.5 324.25 266.02C338.24 278.57 351.92 291.66 365.05 305.17C377.81 318.29 389.48 331.2 400.02 343.76C406.36 336.23 412.53 328.65 418.47 321.05C428.9 307.72 438.17 294.93 446.29 282.79C441.76 276.69 436.93 270.6 431.8 264.54L431.81 264.55Z" fill="#004FFF"/>
</g>
<defs>
<clipPath id="clip0_430_248">
<rect width="111.16" height="111.87" fill="white" transform="translate(24)"/>
</clipPath>
<clipPath id="clip1_430_248">
<rect width="86.9685" height="73.98" fill="white" transform="translate(560 231)"/>
</clipPath>
<clipPath id="clip2_430_248">
<rect width="618.81" height="542.76" fill="white" transform="translate(0 77)"/>
</clipPath>
</defs>
</svg>
