<svg width="249" height="146" viewBox="0 0 249 146" fill="none" xmlns="http://www.w3.org/2000/svg">
<path d="M218.931 37.4076L210.536 32.497V22.8342L218.931 27.7448V37.4076Z" fill="#DF9400" stroke="black" stroke-linejoin="round"/>
<path d="M218.852 8.34016L210.457 3.50879L232.317 5.48886L240.712 10.3202L218.852 8.34016Z" fill="#FBB021" stroke="black" stroke-linejoin="round"/>
<path d="M218.852 18.0029L210.457 13.1715V3.50879L218.852 8.34016V18.0029Z" fill="#DF9400" stroke="black" stroke-linejoin="round"/>
<path d="M218.852 8.34009L240.712 10.3202L218.931 37.4075V27.7448L183.844 47.9415V38.2788L218.852 18.0028V8.34009Z" fill="#FAED00" stroke="black" stroke-linejoin="round"/>
<path d="M183.844 47.9415L175.449 43.1101V33.3682L183.844 38.2787V47.9415Z" fill="#DF9400" stroke="black" stroke-linejoin="round"/>
<path d="M183.844 38.2789L175.449 33.3684L210.456 13.1716L218.852 18.003L183.844 38.2789Z" fill="#FBB021" stroke="black" stroke-linejoin="round"/>
<path d="M41.0374 125.306L53.001 118.308V104.539L41.0374 111.536V125.306Z" fill="#DF9400" stroke="black" stroke-linejoin="round"/>
<path d="M41.1507 83.8847L53.1143 77L21.9638 79.8216L10.0002 86.7063L41.1507 83.8847Z" fill="#FBB021" stroke="black" stroke-linejoin="round"/>
<path d="M41.1507 97.6541L53.1143 90.7694V77L41.1507 83.8847V97.6541Z" fill="#DF9400" stroke="black" stroke-linejoin="round"/>
<path d="M41.1507 83.8848L10.0002 86.7064L41.0378 125.306V111.536L91.0366 140.317V126.547L41.1507 97.6542V83.8848Z" fill="#FAED00" stroke="black" stroke-linejoin="round"/>
<path d="M91.0364 140.317L103 133.432V119.55L91.0364 126.547V140.317Z" fill="#DF9400" stroke="black" stroke-linejoin="round"/>
<path d="M91.0364 126.547L103 119.55L53.1141 90.7695L41.1505 97.6542L91.0364 126.547Z" fill="#FBB021" stroke="black" stroke-linejoin="round"/>
<path d="M233.501 48.6698C233.31 48.5582 233.119 48.4625 232.912 48.3827C232.864 48.3668 232.832 48.3508 232.784 48.3349C232.721 48.303 232.657 48.2871 232.593 48.2711C232.514 48.2392 232.434 48.2073 232.339 48.1754C232.211 48.1435 232.1 48.1116 231.973 48.0957C231.925 48.0957 231.877 48.0638 231.829 48.0638C231.813 48.0638 231.782 48.0638 231.766 48.0638C231.575 48.0319 231.368 48 231.161 48C231.129 48 231.097 48 231.049 48C230.986 48 230.906 48 230.842 48C230.731 48 230.62 48 230.508 48C230.413 48 230.317 48.0159 230.222 48.0319C230.126 48.0319 230.031 48.0478 229.935 48.0638C229.872 48.0638 229.824 48.0638 229.76 48.0797C229.633 48.0957 229.49 48.1435 229.362 48.1595C229.235 48.1914 229.108 48.2073 228.98 48.2392C228.948 48.2392 228.901 48.2392 228.869 48.2552C228.789 48.2711 228.694 48.319 228.598 48.3508C228.328 48.4306 228.073 48.5263 227.786 48.6219C227.723 48.6538 227.659 48.6538 227.595 48.6857C227.532 48.7176 227.468 48.7495 227.404 48.7814C226.911 48.9887 226.402 49.2439 225.876 49.5469C225.319 49.8659 224.762 50.2486 224.221 50.6632C224.062 50.7749 223.918 50.9024 223.759 51.03C223.345 51.3649 222.948 51.7158 222.55 52.0985C222.454 52.1782 222.359 52.258 222.279 52.3377C222.231 52.3855 222.168 52.4493 222.12 52.5131C221.945 52.7045 221.754 52.8959 221.579 53.0872C221.419 53.2467 221.26 53.4062 221.117 53.5816C220.99 53.7251 220.878 53.8687 220.751 54.0122C220.576 54.2355 220.385 54.4587 220.21 54.6979C220.051 54.9052 219.891 55.1445 219.716 55.3677C219.653 55.4634 219.573 55.5431 219.509 55.6388C219.478 55.6867 219.446 55.7186 219.414 55.7664C219.159 56.1332 218.905 56.5159 218.65 56.9146C218.602 56.9944 218.554 57.0741 218.507 57.1379C218.427 57.2655 218.347 57.409 218.268 57.5366C218.141 57.7598 217.997 57.9672 217.87 58.1904C217.743 58.4137 217.615 58.6529 217.488 58.8762C217.392 59.0356 217.297 59.1951 217.217 59.3705C217.17 59.4662 217.122 59.5459 217.058 59.6416C216.772 60.1679 216.501 60.7101 216.23 61.2842L227.452 67.8227C227.77 67.1529 228.105 66.5309 228.439 65.909C228.534 65.7336 228.63 65.5741 228.71 65.4146C228.964 64.9521 229.219 64.5056 229.49 64.075C229.569 63.9474 229.649 63.8039 229.728 63.6763C230.063 63.1501 230.397 62.6557 230.731 62.1773C230.795 62.0816 230.858 62.0019 230.938 61.9062C231.272 61.4437 231.622 60.9812 231.973 60.5666C232.243 60.2476 232.53 59.9446 232.8 59.6416C232.975 59.4503 233.166 59.243 233.341 59.0675C233.485 58.924 233.628 58.7964 233.787 58.6529C234.185 58.2702 234.583 57.9193 234.997 57.5844C235.156 57.4568 235.299 57.3293 235.458 57.2176C236 56.803 236.541 56.4362 237.114 56.1013C237.639 55.7983 238.148 55.5591 238.642 55.3358C238.769 55.288 238.897 55.2242 239.008 55.1763C239.279 55.0647 239.549 54.985 239.82 54.9052C239.947 54.8734 240.074 54.8255 240.202 54.7936C240.329 54.7617 240.456 54.7458 240.584 54.7139C240.775 54.682 240.966 54.6341 241.157 54.6182C241.252 54.6182 241.348 54.6022 241.443 54.5863C241.65 54.5703 241.857 54.5544 242.064 54.5544C242.128 54.5544 242.207 54.5544 242.271 54.5544C242.542 54.5544 242.796 54.6022 243.051 54.6341C243.099 54.6341 243.147 54.6501 243.194 54.666C243.401 54.7139 243.608 54.7777 243.815 54.8415C243.879 54.8574 243.942 54.8893 244.006 54.9052C244.245 55.0009 244.499 55.1126 244.722 55.2401L233.501 48.7017V48.6698Z" fill="#B4471A" stroke="black" stroke-linejoin="round"/>
<path d="M237.13 56.0377C240.139 54.2994 242.669 54.0123 244.739 55.1924C246.792 56.3566 247.827 58.7009 247.842 62.2093C247.842 64.0114 247.572 65.941 247.015 68.0142C246.458 70.0874 245.487 72.623 244.118 75.5892C242.733 78.5554 240.887 82.0958 238.547 86.1943C236.223 90.2928 233.262 95.2843 229.681 101.137L227.612 104.502L225.526 103.545C221.913 101.855 218.953 100.292 216.613 98.8884C214.273 97.4851 212.395 96.1136 211.01 94.758C209.609 93.4025 208.638 91.9991 208.065 90.5639C207.508 89.1286 207.222 87.5179 207.222 85.7159C207.222 82.2074 208.224 78.683 210.262 75.1427C212.315 71.5864 214.83 68.9391 217.854 67.2009C219.78 66.0846 221.563 65.5742 223.219 65.6859C224.874 65.7975 226.306 66.4832 227.532 67.759C228.949 64.8247 230.445 62.4166 232.037 60.5029C233.612 58.5893 235.332 57.0902 237.162 56.0377H237.13Z" fill="#FF640C" stroke="black" stroke-linejoin="round"/>
<path d="M225.924 66.5149L214.703 59.9765C214.703 59.9765 214.655 59.9446 214.623 59.9286C214.416 59.817 214.193 59.7054 213.986 59.6097C213.795 59.53 213.62 59.4662 213.429 59.4024C213.413 59.4024 213.398 59.4024 213.382 59.3864C213.382 59.3864 213.366 59.3864 213.35 59.3864C213.127 59.3226 212.904 59.2748 212.681 59.227C212.458 59.1951 212.22 59.1632 211.981 59.1472C211.981 59.1472 211.981 59.1472 211.965 59.1472C211.726 59.1472 211.487 59.1313 211.249 59.1472C211.121 59.1472 210.978 59.1791 210.851 59.1791C210.771 59.1791 210.692 59.1791 210.612 59.1951C210.548 59.1951 210.501 59.1951 210.437 59.211C210.134 59.2589 209.816 59.3226 209.498 59.4183C209.482 59.4183 209.466 59.4183 209.45 59.4343C209.307 59.4821 209.148 59.5459 209.004 59.5938C208.75 59.6735 208.495 59.7532 208.24 59.8489C208.209 59.8489 208.177 59.8808 208.145 59.8968C207.651 60.1041 207.142 60.3592 206.617 60.6622C205.901 61.0769 205.216 61.5553 204.548 62.0656C204.325 62.241 204.134 62.4324 203.911 62.6238C203.545 62.9268 203.179 63.2138 202.844 63.5647C202.749 63.6604 202.669 63.756 202.59 63.8517C202.494 63.9474 202.399 64.059 202.303 64.1707C202.128 64.362 201.953 64.5375 201.778 64.7288C201.507 65.0478 201.237 65.3667 200.982 65.7016C200.903 65.8133 200.807 65.9249 200.727 66.0525C200.68 66.1163 200.632 66.18 200.6 66.2279C200.505 66.3555 200.409 66.483 200.314 66.6266C200.107 66.9296 199.9 67.2326 199.693 67.5515C199.486 67.8705 199.279 68.2054 199.088 68.5403C199.088 68.5722 199.056 68.5881 199.04 68.62C198.881 68.9071 198.706 69.1941 198.563 69.4812C198.515 69.5769 198.467 69.6885 198.403 69.7842C198.356 69.8799 198.308 69.9915 198.244 70.0872C198.197 70.1829 198.149 70.2785 198.101 70.3742C197.958 70.6613 197.83 70.9643 197.703 71.2513C197.576 71.5543 197.448 71.8414 197.337 72.1444C197.305 72.2401 197.273 72.3358 197.242 72.4155C197.194 72.5271 197.162 72.6388 197.13 72.7504C197.098 72.862 197.051 72.9737 197.019 73.0693C196.955 73.2767 196.891 73.468 196.828 73.6753C196.796 73.771 196.764 73.8667 196.732 73.9783C196.732 74.0102 196.716 74.0581 196.7 74.09C196.605 74.4089 196.541 74.7279 196.462 75.0468C196.462 75.1106 196.43 75.1744 196.414 75.2382C196.414 75.2382 196.414 75.2382 196.414 75.2541C196.414 75.302 196.398 75.3498 196.382 75.4136C196.302 75.8282 196.223 76.2588 196.159 76.6735C196.159 76.7054 196.159 76.7532 196.143 76.7851C196.143 76.8329 196.143 76.8967 196.143 76.9446C196.048 77.6941 196 78.4277 196 79.1772C196 80.9793 196.287 82.59 196.844 84.0252C197.401 85.4605 198.388 86.8639 199.788 88.2194C201.173 89.5909 203.051 90.9624 205.391 92.3498C205.566 92.4614 205.757 92.5731 205.948 92.6687L217.17 99.2072C216.979 99.0956 216.804 98.9839 216.613 98.8882C214.273 97.4849 212.395 96.1134 211.01 94.7579C209.609 93.4023 208.638 91.999 208.065 90.5637C207.508 89.1284 207.222 87.5177 207.222 85.7157C207.222 84.9661 207.269 84.2325 207.365 83.483C207.365 83.3873 207.381 83.2917 207.397 83.2119C207.46 82.7973 207.524 82.3667 207.62 81.9521C207.62 81.8883 207.635 81.8404 207.651 81.7766C207.651 81.7129 207.683 81.6491 207.699 81.5853C207.779 81.2344 207.858 80.8836 207.97 80.5168C208.002 80.4211 208.033 80.3095 208.065 80.2138C208.161 79.9108 208.256 79.5918 208.368 79.2888C208.4 79.1772 208.447 79.0656 208.479 78.9699C208.622 78.5872 208.766 78.1885 208.941 77.8057C209.116 77.407 209.291 77.0243 209.498 76.6256C209.546 76.5299 209.593 76.4183 209.657 76.3226C209.864 75.9399 210.071 75.5412 210.294 75.1585C210.787 74.3132 211.312 73.5159 211.854 72.7663C211.901 72.7026 211.949 72.6388 211.981 72.5909C212.474 71.9211 213.016 71.2992 213.557 70.7091C213.652 70.5975 213.748 70.5018 213.843 70.3902C214.273 69.9436 214.719 69.5609 215.18 69.1782C215.387 69.0027 215.594 68.7954 215.817 68.62C216.485 68.1097 217.17 67.6313 217.886 67.2166C218.411 66.9136 218.921 66.6744 219.414 66.4511C219.701 66.3236 219.987 66.2279 220.274 66.1482C220.417 66.1003 220.576 66.0365 220.719 65.9887C221.117 65.877 221.499 65.7973 221.881 65.7495C221.961 65.7495 222.041 65.7495 222.12 65.7335C222.502 65.7016 222.868 65.6697 223.234 65.7016C223.728 65.7335 224.189 65.8133 224.651 65.9568C224.667 65.9568 224.683 65.9568 224.699 65.9727C225.144 66.1163 225.574 66.2917 225.972 66.5309L225.924 66.5149Z" fill="#B4471A" stroke="black" stroke-linejoin="round"/>
</svg>
