<svg width="1180" height="230" viewBox="0 0 1180 230" fill="none" xmlns="http://www.w3.org/2000/svg">
<g clip-path="url(#clip0_136_390)">
<rect width="1180" height="230" fill="black"/>
<circle cx="230.913" cy="276.022" r="385.288" transform="rotate(8.79877 230.913 276.022)" fill="url(#paint0_linear_136_390)"/>
<g filter="url(#filter0_f_136_390)">
<ellipse cx="208.989" cy="333.234" rx="476.435" ry="430.9" transform="rotate(8.79877 208.989 333.234)" fill="black"/>
</g>
<circle cx="909.897" cy="-111.576" r="281.233" transform="rotate(-135 909.897 -111.576)" fill="url(#paint1_radial_136_390)"/>
<g filter="url(#filter1_f_136_390)">
<ellipse cx="946.288" cy="-129.155" rx="351.349" ry="314.526" transform="rotate(-135 946.288 -129.155)" fill="black"/>
</g>
<g clip-path="url(#clip1_136_390)">
<path d="M197.341 132.445V89.7317H228.646V99.0152H208.345V106.119H228.189V115.463H208.345V123.146H228.646V132.43H197.341V132.445Z" fill="white"/>
<path d="M246.692 132.445V115.219L230.49 89.7317H242.912L252.194 105.479L261.354 89.7317H273.837L257.696 115.219V132.445H246.677H246.692Z" fill="white"/>
<path d="M295.099 89.0305C308.16 89.0305 317.884 98.1311 317.884 111.119C317.884 124.107 308.145 133.207 295.099 133.207C282.052 133.207 272.237 124.122 272.237 111.119C272.237 98.1159 282.037 89.0305 295.099 89.0305ZM295.099 98.7714C287.996 98.7714 283.439 104.152 283.439 111.134C283.439 118.116 287.981 123.497 295.099 123.497C302.216 123.497 306.682 118.055 306.682 111.134C306.682 104.213 302.14 98.7714 295.099 98.7714Z" fill="white"/>
<path d="M352.513 132.445L334.452 106.637V132.445H323.432V89.7317H334.772L352.055 114.32V89.7317H363.136V132.445H352.513Z" fill="white"/>
<path d="M370.818 132.445V89.7317H388.741C402.184 89.7317 411.847 97.7957 411.847 111.058C411.847 124.32 402.184 132.445 388.802 132.445H370.818ZM381.837 122.841H388.757C396.24 122.841 400.599 117.399 400.599 111.058C400.599 104.716 396.636 99.3353 388.818 99.3353H381.837V122.841Z" fill="white"/>
<path d="M218.023 144.808C231.085 144.808 240.809 153.908 240.809 166.896C240.809 179.884 231.07 188.985 218.023 188.985C204.976 188.985 195.161 179.899 195.161 166.896C195.161 153.893 204.961 144.808 218.023 144.808ZM218.023 154.549C210.921 154.549 206.363 159.93 206.363 166.912C206.363 173.893 210.905 179.274 218.023 179.274C225.141 179.274 229.606 173.832 229.606 166.912C229.606 159.991 225.065 154.549 218.023 154.549Z" fill="white"/>
<path d="M246.372 145.509H257.574V170.54C257.574 175.601 260.257 179.244 266.216 179.244C272.176 179.244 274.797 175.601 274.797 170.54V145.509H285.999V170.86C285.999 181.485 279.918 188.985 266.216 188.985C252.514 188.985 246.372 181.424 246.372 170.921V145.494V145.509Z" fill="white"/>
<path d="M322.746 188.223L304.685 162.415V188.223H293.666V145.509H305.005L322.289 170.098V145.509H333.37V188.223H322.746Z" fill="white"/>
<path d="M341.051 188.223V145.509H358.975C372.418 145.509 382.081 153.573 382.081 166.835C382.081 180.098 372.418 188.223 359.036 188.223H341.051ZM352.071 178.619H358.99C366.474 178.619 370.833 173.177 370.833 166.835C370.833 160.494 366.87 155.113 359.051 155.113H352.071V178.619Z" fill="white"/>
<path d="M415.048 188.223L412.868 181.759H395.127L392.948 188.223H380.984L397.048 145.509H410.872L427.012 188.223H415.033H415.048ZM403.967 155.113L398.008 172.46H409.988L403.967 155.113Z" fill="white"/>
<path d="M453.974 188.223L446.811 173.756H441.172V188.223H430.152V145.509H451.536C461.016 145.509 466.396 151.79 466.396 159.732C466.396 167.156 461.854 171.134 457.876 172.537L466.579 188.223H453.959H453.974ZM449.874 154.793H441.172V164.396H449.874C452.755 164.396 455.194 162.537 455.194 159.595C455.194 156.653 452.755 154.793 449.874 154.793Z" fill="white"/>
<path d="M472.462 188.223V145.509H483.482V188.223H472.462Z" fill="white"/>
<path d="M491.163 188.223V145.509H522.469V154.793H502.167V161.896H522.012V171.241H502.167V178.924H522.469V188.207H491.163V188.223Z" fill="white"/>
<path d="M531.614 173.939C534.692 177.018 539.417 179.579 545.255 179.579C549.035 179.579 551.336 177.979 551.336 175.936C551.336 173.497 548.577 172.537 544.035 171.576C536.994 170.174 527.133 168.375 527.133 158.253C527.133 151.073 533.214 144.869 544.157 144.869C551.016 144.869 556.96 146.912 561.502 150.829L555.482 158.71C551.9 155.768 547.221 154.29 543.441 154.29C539.661 154.29 538.381 155.768 538.381 157.613C538.381 159.854 541.002 160.616 545.742 161.515C552.784 162.994 562.523 165.037 562.523 174.701C562.523 183.284 556.183 188.985 544.721 188.985C536.079 188.985 530.059 186.302 525.776 182.201L531.598 173.939H531.614Z" fill="white"/>
<path d="M159.039 188.39H101V89H157.271C177.344 89 186.489 102.232 186.489 114.518C186.489 125.387 180.316 134.244 170.958 137.095C181.017 139.534 188.424 149.61 188.424 161.256C188.424 173.771 180.743 188.405 159.07 188.405L159.039 188.39ZM101.762 187.628H159.039C180.148 187.628 187.632 173.421 187.632 161.241C187.632 149.061 179.691 139.137 169.175 137.521L167.178 137.216L169.159 136.774C179.066 134.579 185.711 125.631 185.711 114.518C185.711 102.598 176.81 89.7622 157.256 89.7622H101.762V187.628ZM152.394 167.247H126.438V148.146H152.394C158.368 148.146 162.529 152.14 162.529 157.841C162.529 163.543 158.551 167.247 152.394 167.247ZM127.2 166.485H152.394C158.094 166.485 161.767 163.101 161.767 157.841C161.767 152.582 157.911 148.909 152.394 148.909H127.2V166.485ZM151.51 127.918H126.438V110.143H151.51C156.875 110.143 160.609 113.771 160.609 118.954C160.609 124.137 156.783 127.918 151.51 127.918ZM127.2 127.155H151.51C156.341 127.155 159.847 123.71 159.847 118.954C159.847 114.198 156.418 110.905 151.51 110.905H127.2V127.155Z" fill="white"/>
</g>
<g clip-path="url(#clip2_136_390)">
<path d="M380.93 62.27C381.52 61.64 382.04 60.94 382.5 60.18C383.6 58.34 384.15 56.31 384.15 54.11C384.15 51.91 383.6 49.84 382.51 47.99C381.42 46.14 379.95 44.67 378.11 43.6C376.27 42.53 374.27 41.99 372.13 41.99C369.99 41.99 367.96 42.52 366.1 43.6C364.25 44.67 362.77 46.13 361.66 47.98C360.55 49.82 360.01 51.84 360.01 54.02C360.01 56.2 360.56 58.34 361.66 60.2C362.13 60.99 362.67 61.71 363.27 62.35C361.22 63.6 359.97 65.27 359.97 67.11C359.97 70.95 365.44 74.07 372.16 74.07C378.88 74.07 384.35 70.95 384.35 67.11C384.35 65.23 383.04 63.53 380.92 62.27H380.93ZM363.42 70.09C362.21 69.19 361.55 68.16 361.55 67.11C361.55 65.82 362.55 64.55 364.37 63.52C364.4 63.5 364.44 63.48 364.48 63.46C364.98 63.87 365.51 64.23 366.08 64.57C366.14 64.6 366.2 64.63 366.26 64.67C364.31 65.63 363.07 67.06 363.07 68.64C363.07 69.15 363.19 69.63 363.43 70.1L363.42 70.09ZM372.17 72.29C369.4 72.29 367.89 71.09 367.89 70.47C367.89 69.85 369.4 68.65 372.17 68.65C374.94 68.65 376.45 69.85 376.45 70.47C376.45 71.09 374.94 72.29 372.17 72.29ZM377.98 70.88C378.01 70.74 378.03 70.61 378.03 70.47C378.03 68.6 375.4 67.08 372.18 67.08C368.96 67.08 366.33 68.6 366.33 70.47C366.33 70.61 366.35 70.75 366.38 70.88C365.31 70.24 364.64 69.45 364.64 68.63C364.64 67.39 366.14 66.23 368.27 65.56C369.46 65.96 370.69 66.16 371.98 66.16C373.36 66.16 374.68 65.95 375.94 65.52C378.15 66.18 379.72 67.37 379.72 68.64C379.72 69.46 379.06 70.25 377.98 70.89V70.88ZM380.93 70.09C381.17 69.63 381.29 69.14 381.29 68.63C381.29 67.01 379.99 65.56 377.97 64.59C378 64.57 378.03 64.56 378.05 64.54C378.65 64.2 379.22 63.81 379.73 63.38C379.81 63.43 379.89 63.46 379.97 63.51C381.78 64.54 382.79 65.81 382.79 67.1C382.79 68.14 382.14 69.18 380.92 70.08L380.93 70.09Z" fill="#05D65A"/>
<path d="M402.71 64.7601L393.44 51.5201V64.7601H387.79V42.8401H393.61L402.48 55.4601V42.8401H408.16V64.7601H402.71Z" fill="white"/>
<path d="M210.9 64.7601V55.9501H201.8V64.7601H196.15V42.8401H201.8V51.0201H210.9V42.8401H216.55V64.7601H210.9Z" fill="white"/>
<path d="M236.93 64.7601L235.81 61.4401H226.71L225.59 64.7601H219.45L227.69 42.8401H234.79L243.07 64.7601H236.93ZM231.25 47.7701L228.19 56.6701H234.33L231.24 47.7701H231.25Z" fill="white"/>
<path d="M243.8 53.82C243.8 47.05 248.93 42.49 255.5 42.49C260.95 42.49 263.78 45.48 265.22 48.37L260.36 50.67C259.64 48.93 257.77 47.48 255.5 47.48C252.08 47.48 249.55 50.24 249.55 53.82C249.55 57.4 252.08 60.16 255.5 60.16C257.77 60.16 259.64 58.71 260.36 56.97L265.22 59.27C263.81 62.1 260.95 65.15 255.5 65.15C248.93 65.15 243.8 60.55 243.8 53.82Z" fill="white"/>
<path d="M281.82 64.7601L276.07 56.5101L274.59 58.3501V64.7601H268.94V42.8401H274.59V51.8401L281.33 42.8401H288.3L279.79 53.0901L288.76 64.7501H281.83L281.82 64.7601Z" fill="white"/>
<path d="M308.66 64.7601L307.54 61.4401H298.44L297.32 64.7601H291.18L299.43 42.8401H306.53L314.81 64.7601H308.67H308.66ZM302.98 47.7701L299.92 56.6701H306.06L302.97 47.7701H302.98Z" fill="white"/>
<path d="M319.76 64.7601V47.7701H313.62V42.8501H331.53V47.7801H325.42V64.7701H319.77L319.76 64.7601Z" fill="white"/>
<path d="M350.26 64.7601V55.9501H341.16V64.7601H335.51V42.8401H341.16V51.0201H350.26V42.8401H355.91V64.7601H350.26Z" fill="white"/>
<path d="M101.72 64.76V60.36C111.21 53.49 112.99 51.98 112.99 49.81C112.99 48.3 111.58 47.51 109.87 47.51C107.54 47.51 105.7 48.43 104.12 49.91L101 46.16C103.33 43.6 106.82 42.52 109.87 42.52C115.03 42.52 118.74 45.41 118.74 49.81C118.74 53.16 116.34 56.02 110.46 59.83H118.9V64.76H101.72Z" fill="white"/>
<path d="M148.15 64.76V60.36C157.64 53.49 159.42 51.98 159.42 49.81C159.42 48.3 158.01 47.51 156.3 47.51C153.97 47.51 152.13 48.43 150.55 49.91L147.43 46.16C149.76 43.6 153.25 42.51 156.3 42.51C161.46 42.51 165.17 45.4 165.17 49.8C165.17 53.15 162.77 56.01 156.89 59.82H165.33V64.75H148.15V64.76Z" fill="white"/>
<path d="M170.52 57.99C172.1 59.53 174.59 60.36 176.5 60.36C178.93 60.36 180.18 59.37 180.18 58.09C180.18 56.81 179.26 56.09 176.27 56.09C175.32 56.09 173.64 56.12 173.31 56.16V51.3C173.74 51.33 175.45 51.33 176.27 51.33C178.54 51.33 179.82 50.67 179.82 49.46C179.82 48.08 178.24 47.36 176.14 47.36C174.04 47.36 172.16 48.18 170.62 49.53L167.96 46.08C169.8 44.01 172.69 42.53 176.73 42.53C182.31 42.53 185.44 44.93 185.44 48.54C185.44 51.1 183.24 53.04 180.64 53.47C182.97 53.7 185.8 55.51 185.8 58.66C185.8 62.5 182.19 65.16 176.73 65.16C172.52 65.16 169.37 63.68 167.66 61.71L170.52 58V57.99Z" fill="white"/>
<path d="M133.68 66.19C140.36 66.19 145.78 60.77 145.78 54.09C145.78 47.41 140.36 42 133.68 42C127 42 121.58 47.42 121.58 54.1C121.58 60.78 126.99 66.2 133.68 66.2V66.19Z" fill="#00B2FC"/>
<path d="M132.06 54.6399L126.27 60.4399L127.35 61.5199L133.15 55.7199L132.07 54.6399H132.06Z" fill="white"/>
<path d="M127.34 46.6699L126.26 47.7499L132.06 53.5499L133.14 52.4699L127.34 46.6699Z" fill="white"/>
<path d="M135.3 54.6399L134.22 55.7199L140.02 61.5199L141.1 60.4399L135.3 54.6399Z" fill="white"/>
<path d="M140.02 46.6699L134.23 52.4699L135.31 53.5499L141.11 47.7499L140.03 46.6699H140.02Z" fill="white"/>
</g>
<g clip-path="url(#clip3_136_390)">
<path d="M733.633 55.9249C732.113 57.4077 729.796 58.1492 726.664 58.1492H721.523V69.3784H718.023V42.4714H726.649C729.673 42.4714 731.96 43.1974 733.541 44.6648C735.106 46.1321 735.905 48.0166 735.905 50.3335C735.905 52.6504 735.137 54.4267 733.618 55.9095L733.633 55.9249ZM730.962 53.9787C731.883 53.1292 732.344 51.9244 732.344 50.3489C732.344 47.028 730.456 45.3753 726.664 45.3753H721.523V55.2607H726.664C728.614 55.2607 730.041 54.8283 730.962 53.9787Z" fill="white"/>
<path d="M757.409 60.1108H740.601C740.724 62.196 741.446 63.8178 742.735 64.9917C744.024 66.1656 745.59 66.7526 747.432 66.7526C748.936 66.7526 750.195 66.3973 751.208 65.6868C752.221 64.9763 752.927 64.034 753.341 62.8447H757.102C756.534 64.8836 755.413 66.5363 753.725 67.8029C752.036 69.0849 749.934 69.7182 747.432 69.7182C745.436 69.7182 743.656 69.2703 742.075 68.3589C740.494 67.4631 739.266 66.181 738.376 64.5129C737.485 62.8602 737.025 60.9294 737.025 58.7361C737.025 56.5427 737.455 54.6274 738.33 52.9901C739.205 51.3529 740.417 50.0708 741.998 49.1904C743.564 48.2945 745.375 47.8621 747.432 47.8621C749.488 47.8621 751.192 48.2945 752.727 49.175C754.262 50.0554 755.444 51.2602 756.273 52.7893C757.102 54.3185 757.516 56.0485 757.516 57.9792C757.516 58.6434 757.47 59.3539 757.393 60.1108H757.409ZM753.034 53.7933C752.451 52.8357 751.653 52.0943 750.64 51.5846C749.627 51.0903 748.506 50.8277 747.278 50.8277C745.513 50.8277 744.009 51.3992 742.766 52.5268C741.522 53.6543 740.816 55.2298 740.632 57.2378H753.909C753.909 55.894 753.617 54.751 753.019 53.7779L753.034 53.7933Z" fill="white"/>
<path d="M766.326 48.835C767.462 48.1709 768.859 47.8311 770.486 47.8311V51.4609H769.565C765.651 51.4609 763.686 53.5924 763.686 57.871V69.3783H760.187V48.2172H763.686V51.6617C764.3 50.4569 765.175 49.5147 766.311 48.835H766.326Z" fill="white"/>
<path d="M772.712 44.0932C772.251 43.6298 772.021 43.0583 772.021 42.3941C772.021 41.73 772.251 41.1585 772.712 40.6951C773.172 40.2317 773.74 40 774.4 40C775.06 40 775.582 40.2317 776.027 40.6951C776.472 41.1585 776.702 41.73 776.702 42.3941C776.702 43.0583 776.472 43.6298 776.027 44.0932C775.582 44.5566 775.029 44.7883 774.4 44.7883C773.771 44.7883 773.172 44.5566 772.712 44.0932ZM776.088 48.2173V69.3783H772.589V48.2173H776.088Z" fill="white"/>
<path d="M783.932 68.3898C782.336 67.4939 781.077 66.2119 780.171 64.5437C779.266 62.891 778.805 60.9602 778.805 58.7669C778.805 56.5736 779.266 54.6891 780.202 53.0364C781.138 51.3682 782.412 50.1017 784.024 49.2058C785.636 48.3099 787.431 47.8774 789.427 47.8774C791.422 47.8774 793.233 48.3254 794.845 49.2058C796.457 50.0862 797.731 51.3682 798.667 53.0055C799.603 54.6428 800.064 56.5736 800.064 58.7514C800.064 60.9293 799.588 62.8601 798.621 64.5283C797.669 66.1964 796.365 67.463 794.722 68.3743C793.08 69.2702 791.269 69.7336 789.273 69.7336C787.278 69.7336 785.513 69.2856 783.917 68.3743L783.932 68.3898ZM792.819 65.7639C793.924 65.177 794.814 64.2811 795.49 63.0918C796.165 61.9024 796.503 60.466 796.503 58.7669C796.503 57.0678 796.165 55.6313 795.505 54.442C794.845 53.2527 793.97 52.3722 792.896 51.8007C791.821 51.2292 790.655 50.9358 789.411 50.9358C788.168 50.9358 786.956 51.2292 785.897 51.8007C784.837 52.3722 783.978 53.2681 783.349 54.442C782.704 55.6313 782.397 57.0678 782.397 58.7669C782.397 60.466 782.704 61.9488 783.333 63.1381C783.963 64.3275 784.791 65.2079 785.851 65.7794C786.894 66.3663 788.045 66.6444 789.304 66.6444C790.563 66.6444 791.729 66.3509 792.834 65.7485L792.819 65.7639Z" fill="white"/>
<path d="M802.75 53.0365C803.625 51.3992 804.822 50.1326 806.341 49.2368C807.861 48.3409 809.565 47.8775 811.468 47.8775C813.11 47.8775 814.63 48.2637 816.027 49.0205C817.439 49.7774 818.513 50.7814 819.25 52.017V40.8032H822.78V69.3784H819.25V65.3933C818.559 66.6599 817.531 67.6948 816.18 68.4979C814.829 69.3166 813.233 69.7182 811.422 69.7182C809.611 69.7182 807.861 69.2548 806.341 68.328C804.822 67.4013 803.625 66.1038 802.75 64.4202C801.875 62.752 801.445 60.8367 801.445 58.7052C801.445 56.5736 801.875 54.6429 802.75 53.0056V53.0365ZM818.283 54.5965C817.638 53.4072 816.779 52.5113 815.689 51.878C814.599 51.2447 813.402 50.9358 812.097 50.9358C810.793 50.9358 809.611 51.2447 808.521 51.8626C807.447 52.4804 806.587 53.3763 805.958 54.5656C805.313 55.755 805.006 57.1451 805.006 58.7361C805.006 60.327 805.328 61.7635 805.958 62.9683C806.602 64.1576 807.447 65.0844 808.521 65.7022C809.595 66.3355 810.777 66.6444 812.097 66.6444C813.417 66.6444 814.599 66.3355 815.689 65.7022C816.779 65.0689 817.638 64.1576 818.283 62.9683C818.928 61.7635 819.235 60.3733 819.235 58.7824C819.235 57.1915 818.912 55.8013 818.283 54.612V54.5965Z" fill="white"/>
<path d="M851.222 64.2503H840.555L838.789 69.3939H833.141L842.78 42.4097H849.043L858.666 69.3939H852.987L851.222 64.2503ZM849.764 59.9255L845.896 48.6499L842.013 59.9255H849.764Z" fill="white"/>
<path d="M880.416 47.9856V69.3783H874.998V66.6753C874.307 67.602 873.402 68.328 872.296 68.8532C871.176 69.3783 869.979 69.6409 868.674 69.6409C867.016 69.6409 865.543 69.2857 864.253 68.5751C862.979 67.8646 861.966 66.8297 861.245 65.455C860.508 64.0804 860.155 62.4431 860.155 60.5278V47.9856H865.527V59.7555C865.527 61.4545 865.957 62.7674 866.801 63.6788C867.646 64.5901 868.797 65.0535 870.255 65.0535C871.713 65.0535 872.895 64.5901 873.755 63.6788C874.599 62.7674 875.013 61.4545 875.013 59.7555V47.9856H880.431H880.416Z" fill="white"/>
<path d="M896.302 48.588C897.5 49.2213 898.451 50.04 899.142 51.0439V48.0011H904.545V69.5483C904.545 71.5254 904.146 73.3017 903.363 74.8617C902.565 76.4218 901.383 77.6574 899.787 78.5688C898.206 79.4801 896.287 79.9435 894.031 79.9435C891.007 79.9435 888.536 79.2329 886.602 77.8119C884.668 76.3909 883.578 74.4601 883.317 72.0196H888.658C888.935 72.9927 889.549 73.7805 890.485 74.352C891.421 74.9235 892.557 75.217 893.877 75.217C895.443 75.217 896.701 74.7536 897.684 73.8114C898.651 72.8692 899.142 71.4481 899.142 69.5483V66.2274C898.451 67.2314 897.5 68.0655 896.287 68.7296C895.074 69.3938 893.678 69.7336 892.127 69.7336C890.331 69.7336 888.705 69.2703 887.216 68.3435C885.727 67.4167 884.56 66.1038 883.701 64.4202C882.841 62.7366 882.411 60.7904 882.411 58.6125C882.411 56.4346 882.841 54.5347 883.701 52.8511C884.56 51.183 885.727 49.8855 887.185 48.9896C888.658 48.0938 890.301 47.6304 892.112 47.6304C893.693 47.6304 895.09 47.9547 896.287 48.5726L896.302 48.588ZM898.374 55.307C897.868 54.3648 897.177 53.6389 896.302 53.1446C895.427 52.6503 894.506 52.3877 893.493 52.3877C892.48 52.3877 891.575 52.6349 890.731 53.1292C889.886 53.6234 889.196 54.3339 888.674 55.2762C888.152 56.2184 887.891 57.3305 887.891 58.6125C887.891 59.8945 888.152 61.0221 888.674 61.9952C889.196 62.9528 889.886 63.6942 890.746 64.2194C891.605 64.7446 892.511 64.9917 893.493 64.9917C894.476 64.9917 895.427 64.7446 896.302 64.2348C897.177 63.7251 897.868 63.0146 898.374 62.0724C898.881 61.1302 899.142 60.0026 899.142 58.6897C899.142 57.3768 898.881 56.2493 898.374 55.307Z" fill="white"/>
<path d="M914.691 46.2092V41.2356H923.946V69.3783H918.42V46.2092H914.691Z" fill="white"/>
<path d="M928.152 48.2636C928.152 46.8734 928.505 45.6068 929.211 44.4638C929.917 43.3208 930.976 42.4095 932.403 41.7299C933.831 41.0503 935.55 40.7104 937.607 40.7104C939.663 40.7104 941.383 41.0503 942.81 41.7299C944.222 42.4095 945.297 43.3208 945.987 44.4638C946.693 45.6068 947.046 46.8734 947.046 48.2636C947.046 49.6537 946.709 50.9203 946.018 51.986C945.327 53.0518 944.406 53.8859 943.255 54.4729C944.667 55.0907 945.757 55.9866 946.555 57.1759C947.353 58.3653 947.737 59.7554 947.737 61.3772C947.737 63.1226 947.292 64.6518 946.417 65.9493C945.542 67.2467 944.33 68.2507 942.795 68.9458C941.26 69.6409 939.541 69.9807 937.607 69.9807C935.673 69.9807 933.969 69.6254 932.449 68.9458C930.93 68.2507 929.717 67.2467 928.842 65.9493C927.967 64.6518 927.522 63.1226 927.522 61.3772C927.522 59.7554 927.921 58.3498 928.72 57.145C929.518 55.9402 930.607 55.0598 932.02 54.4574C929.456 53.1136 928.182 51.0438 928.182 48.2327L928.152 48.2636ZM934.046 57.9637C933.14 58.7051 932.68 59.7708 932.68 61.161C932.68 62.443 933.125 63.4933 934 64.312C934.89 65.1152 936.072 65.5322 937.591 65.5322C939.111 65.5322 940.293 65.1152 941.168 64.2965C942.043 63.4779 942.472 62.4276 942.472 61.161C942.472 59.8017 942.027 58.736 941.122 57.9791C940.231 57.2222 939.049 56.8361 937.591 56.8361C936.133 56.8361 934.951 57.2068 934.046 57.9637ZM940.692 46.1011C939.94 45.406 938.911 45.0662 937.607 45.0662C936.302 45.0662 935.304 45.4215 934.552 46.1011C933.8 46.7962 933.416 47.7847 933.416 49.0822C933.416 50.2406 933.8 51.1674 934.583 51.8625C935.366 52.5576 936.363 52.8974 937.591 52.8974C938.819 52.8974 939.832 52.5421 940.615 51.8316C941.413 51.1211 941.812 50.1943 941.812 49.0359C941.812 47.7693 941.429 46.7962 940.676 46.1011H940.692Z" fill="white"/>
<path d="M956.931 52.4341V62.783C956.931 63.5089 957.1 64.0186 957.453 64.343C957.791 64.6674 958.374 64.8218 959.203 64.8218H961.689V69.3784H958.313C953.785 69.3784 951.513 67.1696 951.513 62.7366V52.4341H948.98V47.9857H951.513V42.7031H956.931V47.9857H961.689V52.4341H956.931Z" fill="white"/>
<path d="M979.924 48.7425C981.183 49.453 982.15 50.4879 982.856 51.878C983.562 53.2527 983.915 54.9054 983.915 56.8362V69.3784H978.543V57.5622C978.543 55.8631 978.128 54.5502 977.284 53.6389C976.44 52.7276 975.289 52.2642 973.83 52.2642C972.372 52.2642 971.175 52.7276 970.316 53.6389C969.456 54.5502 969.026 55.8631 969.026 57.5622V69.3784H963.654V40.8032H969.026V50.6578C969.717 49.731 970.638 49.0051 971.789 48.4799C972.94 47.9547 974.214 47.6922 975.626 47.6922C977.238 47.6922 978.665 48.0474 979.924 48.7579V48.7425Z" fill="white"/>
<path d="M1003.44 53.3145V57.871H987.169V53.3145H1003.44Z" fill="white"/>
<path d="M1008.63 63.2772C1011.08 61.2229 1013.05 59.493 1014.51 58.1183C1015.96 56.7436 1017.18 55.3071 1018.16 53.8088C1019.13 52.3106 1019.62 50.8432 1019.62 49.4067C1019.62 48.0938 1019.31 47.0589 1018.7 46.3175C1018.08 45.5761 1017.13 45.2054 1015.86 45.2054C1014.58 45.2054 1013.6 45.6379 1012.91 46.5029C1012.22 47.3678 1011.87 48.5417 1011.83 50.04H1006.62C1006.72 46.9508 1007.63 44.603 1009.36 43.0121C1011.08 41.4211 1013.28 40.6179 1015.95 40.6179C1018.86 40.6179 1021.11 41.3902 1022.67 42.9503C1024.24 44.5103 1025.02 46.5646 1025.02 49.1132C1025.02 51.1212 1024.48 53.0365 1023.41 54.8746C1022.33 56.6972 1021.11 58.2882 1019.72 59.6474C1018.34 61.0067 1016.53 62.6285 1014.32 64.5284H1025.65V69.0077H1006.69V64.9918L1008.69 63.2927L1008.63 63.2772Z" fill="white"/>
<path d="M1044.85 45.329L1034.64 69.3939H1029.19L1039.48 45.9622H1026.35V41.313H1044.85V45.329Z" fill="white"/>
<path d="M1053.02 52.4341V62.783C1053.02 63.5089 1053.19 64.0186 1053.54 64.343C1053.88 64.6674 1054.46 64.8218 1055.29 64.8218H1057.77V69.3784H1054.4C1049.87 69.3784 1047.6 67.1696 1047.6 62.7366V52.4341H1045.07V47.9857H1047.6V42.7031H1053.02V47.9857H1057.77V52.4341H1053.02Z" fill="white"/>
<path d="M1076.01 48.7425C1077.27 49.453 1078.23 50.4879 1078.94 51.878C1079.65 53.2527 1080 54.9054 1080 56.8362V69.3784H1074.63V57.5622C1074.63 55.8631 1074.21 54.5502 1073.37 53.6389C1072.53 52.7276 1071.37 52.2642 1069.92 52.2642C1068.46 52.2642 1067.26 52.7276 1066.4 53.6389C1065.54 54.5502 1065.11 55.8631 1065.11 57.5622V69.3784H1059.74V40.8032H1065.11V50.6578C1065.8 49.731 1066.72 49.0051 1067.87 48.4799C1069.03 47.9547 1070.3 47.6922 1071.71 47.6922C1073.32 47.6922 1074.75 48.0474 1076.01 48.7579V48.7425Z" fill="white"/>
<path d="M630.902 93.5359C633.035 94.6326 634.678 96.1926 635.813 98.2315C636.949 100.27 637.517 102.664 637.517 105.414C637.517 108.163 636.949 110.557 635.813 112.581C634.678 114.604 633.035 116.149 630.902 117.215C628.768 118.28 626.236 118.821 623.319 118.821H615V91.9141H623.335C626.251 91.9141 628.768 92.4547 630.917 93.5513L630.902 93.5359ZM631.224 113.152C633.035 111.314 633.956 108.735 633.956 105.414C633.956 102.093 633.035 99.4517 631.209 97.5673C629.382 95.6829 626.757 94.7407 623.319 94.7407H618.484V115.902H623.319C626.773 115.902 629.413 114.975 631.224 113.137V113.152Z" fill="white"/>
<path d="M659.282 109.538H642.475C642.598 111.623 643.319 113.245 644.608 114.419C645.898 115.593 647.463 116.18 649.305 116.18C650.809 116.18 652.068 115.825 653.081 115.114C654.094 114.404 654.8 113.461 655.214 112.272H658.975C658.407 114.311 657.287 115.964 655.598 117.23C653.91 118.512 651.807 119.145 649.305 119.145C647.31 119.145 645.529 118.697 643.948 117.786C642.383 116.89 641.139 115.608 640.249 113.94C639.359 112.287 638.898 110.357 638.898 108.163C638.898 105.97 639.328 104.055 640.203 102.417C641.078 100.78 642.291 99.4981 643.872 98.6177C645.452 97.7218 647.248 97.2893 649.305 97.2893C651.362 97.2893 653.066 97.7218 654.601 98.6022C656.135 99.4826 657.317 100.687 658.146 102.217C658.975 103.746 659.389 105.476 659.389 107.406C659.389 108.071 659.359 108.781 659.282 109.538ZM654.908 103.221C654.324 102.263 653.526 101.522 652.513 101.012C651.5 100.518 650.38 100.255 649.152 100.255C647.386 100.255 645.882 100.826 644.639 101.954C643.396 103.082 642.69 104.657 642.505 106.665H655.782C655.782 105.321 655.491 104.178 654.892 103.205L654.908 103.221Z" fill="white"/>
<path d="M691.745 98.2934C693.019 98.973 694.032 99.9924 694.769 101.367C695.506 102.726 695.89 104.395 695.89 106.341V118.821H692.436V106.85C692.436 104.734 691.914 103.128 690.886 102C689.857 100.888 688.445 100.317 686.68 100.317C684.915 100.317 683.426 100.904 682.336 102.078C681.262 103.252 680.725 104.935 680.725 107.159V118.821H677.271V106.85C677.271 104.734 676.749 103.128 675.721 102C674.692 100.888 673.28 100.317 671.515 100.317C669.75 100.317 668.261 100.904 667.171 102.078C666.097 103.252 665.56 104.935 665.56 107.159V118.821H662.06V97.6601H665.56V100.718C666.25 99.6063 667.171 98.7567 668.338 98.1698C669.504 97.5828 670.794 97.2739 672.191 97.2739C673.956 97.2739 675.521 97.6755 676.872 98.4787C678.223 99.2819 679.236 100.456 679.896 102C680.479 100.502 681.461 99.3437 682.812 98.5251C684.163 97.7064 685.682 97.2894 687.34 97.2894C688.998 97.2894 690.441 97.6292 691.715 98.3088L691.745 98.2934Z" fill="white"/>
<path d="M703.503 117.817C701.906 116.921 700.648 115.639 699.742 113.971C698.837 112.318 698.376 110.387 698.376 108.194C698.376 106.001 698.837 104.116 699.773 102.464C700.709 100.795 701.983 99.5289 703.595 98.633C705.206 97.7372 707.018 97.3047 709.013 97.3047C711.008 97.3047 712.804 97.7526 714.416 98.633C716.028 99.5289 717.302 100.795 718.238 102.433C719.174 104.085 719.635 106.001 719.635 108.179C719.635 110.357 719.159 112.287 718.192 113.956C717.24 115.624 715.935 116.89 714.293 117.802C712.651 118.697 710.84 119.161 708.844 119.161C706.849 119.161 705.084 118.713 703.487 117.802L703.503 117.817ZM712.39 115.191C713.495 114.604 714.37 113.708 715.061 112.519C715.736 111.33 716.074 109.893 716.074 108.194C716.074 106.495 715.736 105.059 715.076 103.869C714.416 102.68 713.541 101.799 712.467 101.228C711.392 100.656 710.226 100.363 708.967 100.363C707.708 100.363 706.511 100.656 705.452 101.228C704.393 101.815 703.533 102.695 702.904 103.869C702.259 105.059 701.952 106.495 701.952 108.194C701.952 109.893 702.259 111.376 702.889 112.565C703.518 113.755 704.347 114.635 705.406 115.207C706.465 115.778 707.601 116.072 708.86 116.072C710.118 116.072 711.285 115.778 712.39 115.176V115.191Z" fill="white"/>
<path d="M746.557 93.5359C748.69 94.6326 750.333 96.1926 751.469 98.2315C752.604 100.27 753.172 102.664 753.172 105.414C753.172 108.163 752.604 110.557 751.469 112.581C750.333 114.604 748.69 116.149 746.557 117.215C744.423 118.28 741.891 118.821 738.974 118.821H730.64V91.9141H738.974C741.891 91.9141 744.408 92.4547 746.557 93.5513V93.5359ZM746.879 113.152C748.69 111.314 749.611 108.735 749.611 105.414C749.611 102.093 748.69 99.4517 746.864 97.5673C745.037 95.6829 742.413 94.7407 738.974 94.7407H734.139V115.902H738.974C742.428 115.902 745.068 114.975 746.879 113.137V113.152Z" fill="white"/>
<path d="M755.858 102.464C756.733 100.826 757.93 99.5598 759.45 98.6639C760.97 97.7681 762.673 97.3047 764.531 97.3047C766.388 97.3047 767.969 97.7063 769.319 98.5095C770.67 99.3127 771.683 100.317 772.343 101.521V97.66H775.874V118.821H772.343V114.882C771.653 116.118 770.624 117.137 769.258 117.956C767.892 118.775 766.296 119.176 764.485 119.176C762.673 119.176 760.924 118.713 759.419 117.786C757.915 116.859 756.718 115.562 755.843 113.878C754.968 112.21 754.538 110.295 754.538 108.163C754.538 106.032 754.968 104.101 755.843 102.464H755.858ZM771.392 104.024C770.747 102.834 769.887 101.938 768.798 101.305C767.708 100.672 766.511 100.363 765.206 100.363C763.901 100.363 762.719 100.672 761.645 101.29C760.571 101.908 759.711 102.803 759.066 103.993C758.422 105.182 758.115 106.572 758.115 108.163C758.115 109.754 758.437 111.191 759.066 112.395C759.711 113.585 760.571 114.512 761.645 115.129C762.719 115.763 763.901 116.072 765.206 116.072C766.511 116.072 767.708 115.763 768.798 115.129C769.887 114.496 770.747 113.585 771.392 112.395C772.036 111.191 772.343 109.801 772.343 108.21C772.343 106.619 772.021 105.228 771.392 104.039V104.024Z" fill="white"/>
<path d="M797.992 97.6445L785.329 128.768H781.722L785.866 118.574L777.378 97.6445H781.261L787.861 114.79L794.385 97.6445H797.992Z" fill="white"/>
<path d="M811.529 118.11C810.041 117.462 808.843 116.535 807.984 115.33C807.109 114.125 806.664 112.689 806.633 111.052H812.389C812.466 112.164 812.849 113.029 813.555 113.677C814.262 114.326 815.229 114.635 816.456 114.635C817.684 114.635 818.697 114.326 819.403 113.724C820.11 113.121 820.478 112.334 820.478 111.345C820.478 110.542 820.232 109.893 819.757 109.383C819.265 108.874 818.667 108.457 817.93 108.163C817.193 107.87 816.196 107.545 814.922 107.175C813.187 106.665 811.775 106.155 810.685 105.646C809.595 105.151 808.659 104.379 807.876 103.375C807.094 102.356 806.71 100.996 806.71 99.2972C806.71 97.7063 807.109 96.3161 807.892 95.1268C808.69 93.9374 809.795 93.0416 811.222 92.4083C812.65 91.775 814.292 91.4661 816.134 91.4661C818.897 91.4661 821.138 92.1457 822.872 93.4895C824.607 94.8333 825.558 96.7332 825.727 99.1427H819.818C819.772 98.216 819.373 97.4437 818.651 96.8413C817.93 96.2389 816.963 95.93 815.75 95.93C814.707 95.93 813.862 96.1926 813.233 96.7486C812.604 97.2892 812.297 98.077 812.297 99.0964C812.297 99.8224 812.527 100.409 813.003 100.888C813.479 101.367 814.062 101.753 814.768 102.047C815.474 102.34 816.456 102.68 817.746 103.066C819.48 103.576 820.908 104.101 822.013 104.611C823.118 105.12 824.054 105.893 824.852 106.928C825.651 107.962 826.05 109.306 826.05 110.974C826.05 112.411 825.681 113.755 824.944 114.99C824.208 116.226 823.118 117.215 821.69 117.941C820.263 118.667 818.559 119.037 816.579 119.037C814.707 119.037 813.034 118.713 811.529 118.08V118.11Z" fill="white"/>
<path d="M848.383 109.739H832.849C832.972 111.283 833.509 112.488 834.461 113.369C835.413 114.249 836.579 114.681 837.961 114.681C839.956 114.681 841.368 113.816 842.212 112.102H848.014C847.4 114.156 846.218 115.855 844.484 117.184C842.749 118.512 840.601 119.176 838.068 119.176C836.027 119.176 834.185 118.713 832.558 117.802C830.931 116.89 829.672 115.593 828.751 113.925C827.845 112.256 827.385 110.326 827.385 108.132C827.385 105.939 827.83 103.977 828.736 102.294C829.626 100.626 830.885 99.3281 832.496 98.4322C834.108 97.5364 835.965 97.073 838.053 97.073C840.14 97.073 841.89 97.5055 843.486 98.3859C845.082 99.2663 846.326 100.502 847.201 102.108C848.091 103.715 848.521 105.568 848.521 107.654C848.521 108.426 848.475 109.121 848.367 109.739H848.383ZM842.964 106.109C842.934 104.719 842.442 103.607 841.475 102.773C840.508 101.938 839.311 101.521 837.899 101.521C836.564 101.521 835.443 101.923 834.538 102.742C833.632 103.545 833.08 104.672 832.865 106.124H842.964V106.109Z" fill="white"/>
<path d="M858.759 98.0615C859.971 97.4128 861.368 97.073 862.918 97.073C864.729 97.073 866.372 97.5209 867.845 98.4323C869.319 99.3281 870.485 100.61 871.329 102.278C872.189 103.931 872.619 105.862 872.619 108.055C872.619 110.248 872.189 112.179 871.329 113.863C870.47 115.546 869.303 116.859 867.845 117.786C866.372 118.713 864.729 119.176 862.918 119.176C861.353 119.176 859.986 118.852 858.789 118.219C857.592 117.57 856.64 116.767 855.888 115.778V129.031H850.516V97.4437H855.888V100.533C856.579 99.5598 857.531 98.7412 858.743 98.077L858.759 98.0615ZM866.356 104.703C865.834 103.761 865.144 103.051 864.284 102.556C863.425 102.062 862.504 101.815 861.506 101.815C860.508 101.815 859.618 102.062 858.759 102.572C857.899 103.081 857.208 103.807 856.686 104.75C856.165 105.692 855.904 106.819 855.904 108.101C855.904 109.383 856.165 110.511 856.686 111.453C857.208 112.411 857.899 113.137 858.759 113.631C859.618 114.125 860.524 114.388 861.506 114.388C862.488 114.388 863.425 114.125 864.284 113.616C865.144 113.106 865.834 112.365 866.356 111.422C866.878 110.465 867.139 109.337 867.139 108.024C867.139 106.711 866.878 105.63 866.356 104.688V104.703Z" fill="white"/>
<path d="M884.008 92.1148C885.681 90.7092 887.891 90.0142 890.623 90.0142C892.496 90.0142 894.092 90.3385 895.412 91.0027C896.747 91.6669 897.745 92.5473 898.42 93.6749C899.096 94.787 899.433 96.069 899.433 97.4746C899.433 99.0964 899.019 100.471 898.19 101.583C897.361 102.695 896.364 103.452 895.212 103.838V103.993C896.701 104.456 897.853 105.275 898.681 106.464C899.51 107.654 899.925 109.167 899.925 111.021C899.925 112.565 899.572 113.94 898.866 115.145C898.16 116.35 897.131 117.307 895.75 117.987C894.368 118.667 892.741 119.006 890.823 119.006C887.937 119.006 885.573 118.28 883.762 116.813C881.951 115.346 880.984 113.183 880.876 110.326H886.095C886.141 111.592 886.571 112.596 887.384 113.353C888.198 114.11 889.303 114.496 890.7 114.496C892.005 114.496 893.002 114.125 893.708 113.399C894.414 112.673 894.767 111.716 894.767 110.557C894.767 109.013 894.276 107.901 893.309 107.236C892.342 106.572 890.823 106.232 888.781 106.232H887.661V101.784H888.781C892.419 101.784 894.23 100.564 894.23 98.1079C894.23 96.9958 893.908 96.1308 893.248 95.5129C892.603 94.8951 891.652 94.5862 890.424 94.5862C889.196 94.5862 888.29 94.9105 887.645 95.5747C886.985 96.2235 886.617 97.0575 886.51 98.0615H881.26C881.383 95.4821 882.289 93.505 883.962 92.0994L884.008 92.1148Z" fill="white"/>
<path d="M910.976 98.077C912.097 97.4283 913.355 97.1194 914.798 97.1194V102.788H913.371C911.682 102.788 910.408 103.19 909.549 103.993C908.689 104.796 908.259 106.186 908.259 108.163V118.821H902.887V97.4283H908.259V100.749C908.95 99.6216 909.856 98.7258 910.961 98.0925L910.976 98.077Z" fill="white"/>
<path d="M916.394 102.278C917.254 100.61 918.42 99.3128 919.909 98.4169C921.398 97.5211 923.04 97.0577 924.852 97.0577C926.233 97.0577 927.553 97.3666 928.812 97.969C930.07 98.5714 931.068 99.3746 931.805 100.379V90.2151H937.254V118.79H931.805V115.624C931.145 116.674 930.208 117.524 928.996 118.172C927.799 118.821 926.402 119.13 924.806 119.13C923.01 119.13 921.383 118.667 919.894 117.74C918.405 116.813 917.238 115.5 916.379 113.817C915.519 112.133 915.09 110.187 915.09 108.009C915.09 105.831 915.519 103.931 916.379 102.248L916.394 102.278ZM931.068 104.734C930.561 103.792 929.871 103.066 928.996 102.572C928.121 102.078 927.2 101.815 926.187 101.815C925.174 101.815 924.268 102.062 923.424 102.556C922.58 103.051 921.889 103.761 921.367 104.703C920.846 105.646 920.585 106.758 920.585 108.04C920.585 109.322 920.846 110.449 921.367 111.422C921.889 112.396 922.58 113.122 923.439 113.647C924.299 114.156 925.205 114.419 926.187 114.419C927.169 114.419 928.121 114.172 928.996 113.662C929.871 113.152 930.561 112.442 931.068 111.5C931.575 110.558 931.835 109.43 931.835 108.117C931.835 106.804 931.575 105.677 931.068 104.734Z" fill="white"/>
<path d="M975.273 95.4821C977.391 96.5633 979.019 98.077 980.124 100.023C981.244 101.969 981.797 104.225 981.797 106.804C981.797 108.858 981.444 110.835 980.738 112.704C980.032 114.589 979.018 116.118 977.698 117.307C976.378 118.497 974.828 119.084 973.032 119.084C971.728 119.084 970.699 118.79 969.963 118.219C969.226 117.647 968.765 116.828 968.581 115.763C967.783 116.798 966.785 117.601 965.588 118.203C964.391 118.79 963.132 119.084 961.828 119.084C959.863 119.084 958.313 118.481 957.207 117.292C956.102 116.103 955.534 114.465 955.534 112.411C955.534 110.357 955.933 108.627 956.747 106.928C957.545 105.229 958.681 103.869 960.139 102.85C961.597 101.83 963.24 101.321 965.051 101.321C967.276 101.321 968.842 102.078 969.732 103.607L970.085 101.676H973.877L971.958 112.72C971.881 113.26 971.835 113.739 971.835 114.156C971.835 114.82 971.973 115.33 972.234 115.655C972.495 115.979 972.986 116.164 973.677 116.164C974.644 116.164 975.473 115.685 976.164 114.712C976.854 113.739 977.376 112.55 977.714 111.144C978.051 109.739 978.236 108.349 978.236 107.02C978.236 103.746 977.284 101.259 975.396 99.5289C973.508 97.799 970.761 96.9494 967.138 96.9494C964.115 96.9494 961.413 97.6754 959.019 99.1119C956.624 100.548 954.752 102.541 953.401 105.059C952.05 107.576 951.375 110.387 951.375 113.477C951.375 116.767 952.342 119.284 954.291 121.014C956.24 122.744 959.019 123.594 962.61 123.594C965.035 123.594 967.169 123.146 968.98 122.235L969.563 125.169C967.23 126.173 964.621 126.668 961.735 126.668C958.85 126.668 956.501 126.142 954.399 125.077C952.296 124.026 950.684 122.528 949.533 120.582C948.382 118.636 947.814 116.381 947.814 113.801C947.814 110.125 948.658 106.758 950.362 103.73C952.066 100.703 954.429 98.2932 957.438 96.5324C960.446 94.7715 963.869 93.8911 967.691 93.8911C970.607 93.8911 973.124 94.4317 975.243 95.5129L975.273 95.4821ZM966.125 114.728C967.016 114.095 967.706 113.26 968.213 112.226C968.719 111.191 968.98 110.063 968.98 108.889C968.98 107.715 968.643 106.65 967.967 105.862C967.292 105.074 966.34 104.688 965.112 104.688C964.007 104.688 963.04 105.028 962.211 105.707C961.382 106.387 960.738 107.267 960.293 108.349C959.848 109.43 959.617 110.557 959.617 111.747C959.617 112.936 959.909 113.909 960.508 114.62C961.091 115.33 961.996 115.685 963.194 115.685C964.268 115.685 965.25 115.377 966.125 114.743V114.728Z" fill="white"/>
<path d="M989.41 118.11C987.921 117.462 986.724 116.535 985.864 115.33C984.989 114.125 984.544 112.689 984.513 111.052H990.269C990.346 112.164 990.73 113.029 991.436 113.677C992.142 114.326 993.109 114.635 994.337 114.635C995.565 114.635 996.578 114.326 997.284 113.724C997.99 113.121 998.358 112.334 998.358 111.345C998.358 110.542 998.113 109.893 997.637 109.383C997.146 108.874 996.547 108.457 995.81 108.163C995.074 107.87 994.076 107.545 992.802 107.175C991.067 106.665 989.655 106.155 988.566 105.646C987.476 105.151 986.54 104.379 985.757 103.375C984.974 102.356 984.59 100.996 984.59 99.2972C984.59 97.7063 984.989 96.3161 985.772 95.1268C986.57 93.9374 987.675 93.0416 989.103 92.4083C990.53 91.775 992.173 91.4661 994.014 91.4661C996.777 91.4661 999.018 92.1457 1000.75 93.4895C1002.49 94.8333 1003.44 96.7332 1003.61 99.1427H997.698C997.652 98.216 997.253 97.4437 996.532 96.8413C995.81 96.2389 994.843 95.93 993.631 95.93C992.587 95.93 991.743 96.1926 991.114 96.7486C990.484 97.2892 990.177 98.077 990.177 99.0964C990.177 99.8224 990.407 100.409 990.883 100.888C991.359 101.367 991.942 101.753 992.648 102.047C993.354 102.34 994.337 102.68 995.626 103.066C997.361 103.576 998.788 104.101 999.893 104.611C1001 105.12 1001.93 105.893 1002.73 106.928C1003.53 107.962 1003.93 109.306 1003.93 110.974C1003.93 112.411 1003.56 113.755 1002.82 114.99C1002.09 116.226 1001 117.215 999.571 117.941C998.143 118.667 996.44 119.037 994.46 119.037C992.587 119.037 990.914 118.713 989.41 118.08V118.11Z" fill="white"/>
<path d="M1026.28 109.739H1010.75C1010.87 111.283 1011.41 112.488 1012.36 113.369C1013.31 114.249 1014.47 114.681 1015.86 114.681C1017.85 114.681 1019.26 113.816 1020.11 112.102H1025.91C1025.3 114.156 1024.11 115.855 1022.38 117.184C1020.65 118.512 1018.5 119.176 1015.96 119.176C1013.92 119.176 1012.08 118.713 1010.45 117.802C1008.83 116.89 1007.57 115.593 1006.65 113.925C1005.74 112.256 1005.28 110.326 1005.28 108.132C1005.28 105.939 1005.73 103.977 1006.63 102.294C1007.52 100.626 1008.78 99.3281 1010.39 98.4322C1012 97.5364 1013.86 97.073 1015.95 97.073C1018.04 97.073 1019.79 97.5055 1021.38 98.3859C1022.98 99.2663 1024.22 100.502 1025.1 102.108C1025.99 103.715 1026.42 105.568 1026.42 107.654C1026.42 108.426 1026.37 109.121 1026.26 109.739H1026.28ZM1020.86 106.109C1020.83 104.719 1020.34 103.607 1019.37 102.773C1018.4 101.938 1017.21 101.521 1015.79 101.521C1014.46 101.521 1013.34 101.923 1012.43 102.742C1011.53 103.545 1010.98 104.672 1010.76 106.124H1020.86V106.109Z" fill="white"/>
<path d="M1032.34 117.786C1030.7 116.875 1029.42 115.577 1028.49 113.909C1027.55 112.241 1027.09 110.31 1027.09 108.117C1027.09 105.924 1027.57 103.993 1028.53 102.325C1029.49 100.656 1030.81 99.359 1032.46 98.4477C1034.12 97.5364 1035.98 97.073 1038.02 97.073C1040.06 97.073 1041.92 97.5364 1043.58 98.4477C1045.23 99.359 1046.55 100.656 1047.51 102.325C1048.46 103.993 1048.95 105.924 1048.95 108.117C1048.95 110.31 1048.46 112.241 1047.48 113.909C1046.49 115.577 1045.16 116.875 1043.48 117.786C1041.81 118.697 1039.94 119.161 1037.87 119.161C1035.79 119.161 1033.98 118.697 1032.34 117.786ZM1040.61 113.739C1041.47 113.26 1042.15 112.55 1042.67 111.592C1043.18 110.635 1043.44 109.476 1043.44 108.117C1043.44 106.078 1042.9 104.518 1041.84 103.421C1040.78 102.325 1039.48 101.784 1037.94 101.784C1036.41 101.784 1035.12 102.325 1034.09 103.421C1033.06 104.518 1032.54 106.078 1032.54 108.117C1032.54 110.156 1033.05 111.716 1034.06 112.812C1035.07 113.909 1036.35 114.45 1037.88 114.45C1038.85 114.45 1039.77 114.218 1040.63 113.739H1040.61Z" fill="white"/>
<path d="M1071.05 97.4128V118.806H1065.65V116.103C1064.96 117.029 1064.05 117.755 1062.95 118.28C1061.84 118.806 1060.63 119.068 1059.32 119.068C1057.67 119.068 1056.19 118.713 1054.9 118.002C1053.63 117.292 1052.62 116.257 1051.9 114.882C1051.17 113.508 1050.81 111.87 1050.81 109.955V97.4128H1056.18V109.183C1056.18 110.882 1056.59 112.195 1057.44 113.106C1058.28 114.017 1059.43 114.481 1060.89 114.481C1062.35 114.481 1063.55 114.017 1064.39 113.106C1065.23 112.195 1065.66 110.882 1065.66 109.183V97.4128H1071.07H1071.05Z" fill="white"/>
<path d="M1079.8 90.2305V118.806H1074.43V90.2305H1079.8Z" fill="white"/>
</g>
<g clip-path="url(#clip4_136_390)">
<mask id="mask0_136_390" style="mask-type:luminance" maskUnits="userSpaceOnUse" x="785" y="155" width="295" height="33">
<path d="M1079.98 155H785V188H1079.98V155Z" fill="white"/>
</mask>
<g mask="url(#mask0_136_390)">
<path d="M801.677 155C792.463 155 785 162.384 785 171.5C785 180.616 792.463 188 801.677 188C810.891 188 818.355 180.616 818.355 171.5C818.355 162.384 810.891 155 801.677 155ZM792.359 181.874L791.191 180.719L799.301 172.696L800.468 173.851L792.359 181.874ZM799.28 170.304L791.171 162.281L792.338 161.126L800.447 169.149L799.28 170.304ZM810.975 181.874L802.866 173.851L804.033 172.696L812.142 180.719L810.975 181.874ZM804.054 170.304L802.886 169.149L810.996 161.126L812.163 162.281L804.054 170.304Z" fill="white"/>
<path d="M856.796 165.333H846.623V167.499H856.066C858.901 167.499 860.235 168.179 860.235 169.726C860.235 171.273 858.901 171.954 856.066 171.954H846.623V178.059H849.208V174.119H856.796C860.486 174.119 862.779 172.469 862.779 169.747C862.779 167.024 860.486 165.374 856.796 165.374V165.333Z" fill="white"/>
<path d="M867.156 165.333H864.571V178.017H879.456V175.852H867.156V165.312V165.333Z" fill="white"/>
<path d="M891.818 166.014C891.443 165.478 890.88 165.168 890.254 165.168C889.629 165.168 889.066 165.478 888.691 166.014L880.081 178.018H883.167L890.275 168.056L895.841 175.852H887.211V178.018H900.448L891.839 166.014H891.818Z" fill="white"/>
<path d="M845.518 178.017L837.554 171.5L845.08 165.333H841.557L835.803 170.056L830.049 165.333H826.526L834.052 171.5L826.089 178.017H829.633L835.824 172.944L842.015 178.017H845.559H845.518Z" fill="white"/>
<path d="M967.533 175.439C968.116 174.821 968.617 174.14 969.075 173.398C970.159 171.603 970.701 169.644 970.701 167.499C970.701 165.354 970.159 163.353 969.096 161.559C968.033 159.764 966.574 158.341 964.76 157.289C962.946 156.238 960.987 155.722 958.881 155.722C956.776 155.722 954.775 156.238 952.961 157.289C951.147 158.321 949.688 159.744 948.604 161.538C947.52 163.333 946.978 165.292 946.978 167.416C946.978 169.541 947.52 171.624 948.604 173.418C949.063 174.181 949.605 174.883 950.188 175.522C948.187 176.739 946.936 178.368 946.936 180.142C946.936 183.875 952.315 186.907 958.923 186.907C965.531 186.907 970.91 183.875 970.91 180.142C970.91 178.327 969.617 176.656 967.533 175.439ZM950.334 183.05C949.146 182.184 948.5 181.173 948.5 180.163C948.5 178.904 949.48 177.667 951.272 176.677C951.314 176.677 951.335 176.636 951.377 176.615C951.877 177.007 952.398 177.358 952.961 177.688C953.023 177.729 953.065 177.749 953.128 177.77C951.21 178.698 950.001 180.08 950.001 181.627C950.001 182.122 950.126 182.596 950.355 183.05H950.334ZM958.944 185.195C956.234 185.195 954.733 184.019 954.733 183.421C954.733 182.823 956.213 181.648 958.944 181.648C961.675 181.648 963.155 182.823 963.155 183.421C963.155 184.019 961.675 185.195 958.944 185.195ZM964.656 183.813C964.677 183.689 964.698 183.545 964.698 183.421C964.698 181.606 962.113 180.121 958.944 180.121C955.775 180.121 953.19 181.606 953.19 183.421C953.19 183.566 953.19 183.689 953.232 183.813C952.19 183.194 951.523 182.431 951.523 181.627C951.523 180.431 953.003 179.296 955.087 178.636C956.255 179.028 957.464 179.214 958.735 179.214C960.09 179.214 961.383 179.008 962.634 178.595C964.802 179.234 966.344 180.389 966.344 181.627C966.344 182.431 965.698 183.194 964.635 183.813H964.656ZM967.554 183.05C967.783 182.596 967.908 182.122 967.908 181.627C967.908 180.059 966.636 178.636 964.656 177.708C964.677 177.708 964.718 177.688 964.739 177.667C965.323 177.337 965.886 176.945 966.386 176.533C966.47 176.574 966.553 176.615 966.636 176.656C968.408 177.646 969.409 178.884 969.409 180.142C969.409 181.153 968.763 182.163 967.574 183.029L967.554 183.05Z" fill="white"/>
<path d="M1039.06 171.17C1038.33 170.593 1037.35 170.015 1036.14 169.479C1035.08 169.004 1034.24 168.592 1033.66 168.241C1033.1 167.911 1032.7 167.561 1032.45 167.189C1032.2 166.818 1032.07 166.385 1032.07 165.869C1032.07 165.354 1032.2 164.9 1032.47 164.488C1032.72 164.075 1033.1 163.745 1033.53 163.518C1033.99 163.271 1034.51 163.147 1035.08 163.147C1035.83 163.147 1036.47 163.333 1037.01 163.683C1037.56 164.034 1038.06 164.591 1038.49 165.333L1038.56 165.436L1040.58 164.281L1040.52 164.178C1039.97 163.147 1039.22 162.322 1038.33 161.744C1037.41 161.167 1036.33 160.878 1035.08 160.878C1034.08 160.878 1033.14 161.105 1032.3 161.538C1031.47 161.971 1030.82 162.59 1030.34 163.333C1029.86 164.075 1029.63 164.941 1029.63 165.849C1029.63 166.756 1029.82 167.519 1030.2 168.159C1030.57 168.798 1031.11 169.355 1031.82 169.85C1032.51 170.324 1033.47 170.84 1034.64 171.356C1035.68 171.83 1036.51 172.284 1037.1 172.717C1037.66 173.129 1038.08 173.583 1038.33 174.078C1038.58 174.573 1038.7 175.13 1038.7 175.79C1038.7 176.45 1038.56 176.986 1038.27 177.481C1037.99 177.976 1037.58 178.368 1037.06 178.678C1036.53 178.966 1035.93 179.111 1035.24 179.111C1034.22 179.111 1033.35 178.822 1032.59 178.265C1031.84 177.708 1031.26 176.904 1030.86 175.873L1030.82 175.749L1028.57 176.677L1028.61 176.78C1028.93 177.688 1029.41 178.492 1030.03 179.173C1030.66 179.853 1031.43 180.389 1032.3 180.781C1033.18 181.173 1034.18 181.359 1035.26 181.359C1036.35 181.359 1037.37 181.111 1038.27 180.658C1039.16 180.204 1039.87 179.523 1040.39 178.698C1040.91 177.873 1041.16 176.883 1041.16 175.811C1041.16 174.8 1041 173.913 1040.66 173.171C1040.33 172.428 1039.79 171.768 1039.06 171.191V171.17Z" fill="white"/>
<path d="M1079.48 173.15C1079.15 172.408 1078.6 171.748 1077.87 171.17C1077.14 170.593 1076.16 170.015 1074.96 169.479C1073.89 169.004 1073.06 168.592 1072.47 168.241C1071.91 167.911 1071.52 167.561 1071.27 167.189C1071.02 166.818 1070.89 166.385 1070.89 165.869C1070.89 165.354 1071.02 164.9 1071.29 164.488C1071.54 164.075 1071.91 163.745 1072.35 163.518C1072.81 163.271 1073.33 163.147 1073.89 163.147C1074.64 163.147 1075.29 163.333 1075.83 163.683C1076.37 164.034 1076.87 164.591 1077.31 165.333L1077.37 165.436L1079.4 164.281L1079.33 164.178C1078.79 163.147 1078.04 162.322 1077.14 161.744C1076.23 161.167 1075.14 160.878 1073.89 160.878C1072.89 160.878 1071.95 161.105 1071.12 161.538C1070.29 161.971 1069.64 162.59 1069.16 163.333C1068.68 164.075 1068.45 164.941 1068.45 165.849C1068.45 166.756 1068.64 167.519 1069.01 168.159C1069.39 168.798 1069.93 169.355 1070.64 169.85C1071.33 170.324 1072.29 170.84 1073.45 171.356C1074.5 171.83 1075.33 172.284 1075.91 172.717C1076.48 173.129 1076.89 173.583 1077.14 174.078C1077.39 174.573 1077.52 175.13 1077.52 175.79C1077.52 176.45 1077.37 176.986 1077.08 177.481C1076.81 177.976 1076.39 178.368 1075.87 178.657C1075.35 178.946 1074.75 179.09 1074.06 179.09C1073.04 179.09 1072.16 178.801 1071.41 178.244C1070.66 177.688 1070.08 176.883 1069.68 175.852L1069.64 175.728L1067.39 176.656L1067.43 176.759C1067.74 177.667 1068.22 178.471 1068.85 179.152C1069.47 179.833 1070.24 180.369 1071.12 180.761C1071.99 181.153 1073 181.338 1074.08 181.338C1075.16 181.338 1076.19 181.091 1077.08 180.637C1077.98 180.183 1078.69 179.503 1079.21 178.678C1079.73 177.853 1079.98 176.863 1079.98 175.79C1079.98 174.779 1079.81 173.893 1079.48 173.15Z" fill="white"/>
<path d="M1061.61 161.476L1060.59 163.601L1052.32 180.678L1054.75 180.74L1063.97 161.476H1061.61Z" fill="white"/>
<path d="M1007.22 180.74L1008.25 178.616L1016.52 161.538L1014.08 161.497L1004.87 180.761H1007.22V180.74Z" fill="white"/>
<path d="M1015.52 166.962L1021.09 178.616L1022.09 180.74H1024.46L1016.71 164.508L1015.52 166.962Z" fill="white"/>
<path d="M992.153 160.878C986.441 160.878 981.813 165.457 981.813 171.108C981.813 176.759 986.441 181.338 992.153 181.338C997.864 181.338 1002.49 176.759 1002.49 171.108C1002.49 165.457 997.864 160.878 992.153 160.878ZM992.153 179.069C987.712 179.069 984.106 175.501 984.106 171.108C984.106 166.715 987.712 163.147 992.153 163.147C996.593 163.147 1000.2 166.715 1000.2 171.108C1000.2 175.501 996.593 179.069 992.153 179.069Z" fill="white"/>
<path d="M1039.06 171.17C1038.33 170.593 1037.35 170.015 1036.14 169.479C1035.08 169.004 1034.24 168.592 1033.66 168.241C1033.1 167.911 1032.7 167.561 1032.45 167.189C1032.2 166.818 1032.07 166.385 1032.07 165.869C1032.07 165.354 1032.2 164.9 1032.47 164.488C1032.72 164.075 1033.1 163.745 1033.53 163.518C1033.99 163.271 1034.51 163.147 1035.08 163.147C1035.83 163.147 1036.47 163.333 1037.01 163.683C1037.56 164.034 1038.06 164.591 1038.49 165.333L1038.56 165.436L1040.58 164.281L1040.52 164.178C1039.97 163.147 1039.22 162.322 1038.33 161.744C1037.41 161.167 1036.33 160.878 1035.08 160.878C1034.08 160.878 1033.14 161.105 1032.3 161.538C1031.47 161.971 1030.82 162.59 1030.34 163.333C1029.86 164.075 1029.63 164.941 1029.63 165.849C1029.63 166.756 1029.82 167.519 1030.2 168.159C1030.57 168.798 1031.11 169.355 1031.82 169.85C1032.51 170.324 1033.47 170.84 1034.64 171.356C1035.68 171.83 1036.51 172.284 1037.1 172.717C1037.66 173.129 1038.08 173.583 1038.33 174.078C1038.58 174.573 1038.7 175.13 1038.7 175.79C1038.7 176.45 1038.56 176.986 1038.27 177.481C1037.99 177.976 1037.58 178.368 1037.06 178.678C1036.53 178.966 1035.93 179.111 1035.24 179.111C1034.22 179.111 1033.35 178.822 1032.59 178.265C1031.84 177.708 1031.26 176.904 1030.86 175.873L1030.82 175.749L1028.57 176.677L1028.61 176.78C1028.93 177.688 1029.41 178.492 1030.03 179.173C1030.66 179.853 1031.43 180.389 1032.3 180.781C1033.18 181.173 1034.18 181.359 1035.26 181.359C1036.35 181.359 1037.37 181.111 1038.27 180.658C1039.16 180.204 1039.87 179.523 1040.39 178.698C1040.91 177.873 1041.16 176.883 1041.16 175.811C1041.16 174.8 1041 173.913 1040.66 173.171C1040.33 172.428 1039.79 171.768 1039.06 171.191V171.17Z" fill="white"/>
<path d="M1079.48 173.15C1079.15 172.408 1078.6 171.748 1077.87 171.17C1077.14 170.593 1076.16 170.015 1074.96 169.479C1073.89 169.004 1073.06 168.592 1072.47 168.241C1071.91 167.911 1071.52 167.561 1071.27 167.189C1071.02 166.818 1070.89 166.385 1070.89 165.869C1070.89 165.354 1071.02 164.9 1071.29 164.488C1071.54 164.075 1071.91 163.745 1072.35 163.518C1072.81 163.271 1073.33 163.147 1073.89 163.147C1074.64 163.147 1075.29 163.333 1075.83 163.683C1076.37 164.034 1076.87 164.591 1077.31 165.333L1077.37 165.436L1079.4 164.281L1079.33 164.178C1078.79 163.147 1078.04 162.322 1077.14 161.744C1076.23 161.167 1075.14 160.878 1073.89 160.878C1072.89 160.878 1071.95 161.105 1071.12 161.538C1070.29 161.971 1069.64 162.59 1069.16 163.333C1068.68 164.075 1068.45 164.941 1068.45 165.849C1068.45 166.756 1068.64 167.519 1069.01 168.159C1069.39 168.798 1069.93 169.355 1070.64 169.85C1071.33 170.324 1072.29 170.84 1073.45 171.356C1074.5 171.83 1075.33 172.284 1075.91 172.717C1076.48 173.129 1076.89 173.583 1077.14 174.078C1077.39 174.573 1077.52 175.13 1077.52 175.79C1077.52 176.45 1077.37 176.986 1077.08 177.481C1076.81 177.976 1076.39 178.368 1075.87 178.657C1075.35 178.946 1074.75 179.09 1074.06 179.09C1073.04 179.09 1072.16 178.801 1071.41 178.244C1070.66 177.688 1070.08 176.883 1069.68 175.852L1069.64 175.728L1067.39 176.656L1067.43 176.759C1067.74 177.667 1068.22 178.471 1068.85 179.152C1069.47 179.833 1070.24 180.369 1071.12 180.761C1071.99 181.153 1073 181.338 1074.08 181.338C1075.16 181.338 1076.19 181.091 1077.08 180.637C1077.98 180.183 1078.69 179.503 1079.21 178.678C1079.73 177.853 1079.98 176.863 1079.98 175.79C1079.98 174.779 1079.81 173.893 1079.48 173.15Z" fill="white"/>
<path d="M1061.61 161.476L1060.59 163.601L1052.32 180.678L1054.75 180.74L1063.97 161.476H1061.61Z" fill="white"/>
<path d="M1007.22 180.74L1008.25 178.616L1016.52 161.538L1014.08 161.497L1004.87 180.761H1007.22V180.74Z" fill="white"/>
<path d="M1015.52 166.962L1021.09 178.616L1022.09 180.74H1024.46L1016.71 164.508L1015.52 166.962Z" fill="white"/>
<path d="M992.153 160.878C986.441 160.878 981.813 165.457 981.813 171.108C981.813 176.759 986.441 181.338 992.153 181.338C997.864 181.338 1002.49 176.759 1002.49 171.108C1002.49 165.457 997.864 160.878 992.153 160.878ZM992.153 179.069C987.712 179.069 984.106 175.501 984.106 171.108C984.106 166.715 987.712 163.147 992.153 163.147C996.593 163.147 1000.2 166.715 1000.2 171.108C1000.2 175.501 996.593 179.069 992.153 179.069Z" fill="white"/>
<path d="M1050.23 163.601L1049.21 161.476H1046.83L1053.36 175.089L1054.55 172.634L1050.23 163.601Z" fill="white"/>
<path d="M916.292 165.086L915.979 165.395L928.466 177.749L928.779 177.44L916.292 165.086Z" fill="white"/>
<path d="M928.466 165.086L915.958 177.419L916.271 177.749L928.779 165.416L928.466 165.086Z" fill="white"/>
</g>
</g>
</g>
<defs>
<filter id="filter0_f_136_390" x="-366.489" y="-198.856" width="1150.96" height="1064.18" filterUnits="userSpaceOnUse" color-interpolation-filters="sRGB">
<feFlood flood-opacity="0" result="BackgroundImageFix"/>
<feBlend mode="normal" in="SourceGraphic" in2="BackgroundImageFix" result="shape"/>
<feGaussianBlur stdDeviation="50" result="effect1_foregroundBlur_136_390"/>
</filter>
<filter id="filter1_f_136_390" x="512.838" y="-562.604" width="866.899" height="866.899" filterUnits="userSpaceOnUse" color-interpolation-filters="sRGB">
<feFlood flood-opacity="0" result="BackgroundImageFix"/>
<feBlend mode="normal" in="SourceGraphic" in2="BackgroundImageFix" result="shape"/>
<feGaussianBlur stdDeviation="50" result="effect1_foregroundBlur_136_390"/>
</filter>
<linearGradient id="paint0_linear_136_390" x1="230.913" y1="-109.266" x2="230.913" y2="661.31" gradientUnits="userSpaceOnUse">
<stop stop-color="#00CFFC"/>
<stop offset="1" stop-color="#00B2FC"/>
</linearGradient>
<radialGradient id="paint1_radial_136_390" cx="0" cy="0" r="1" gradientUnits="userSpaceOnUse" gradientTransform="translate(909.897 -371.267) rotate(90) scale(540.924)">
<stop stop-color="#00EB6E"/>
<stop offset="0.804396" stop-color="#00A84F"/>
</radialGradient>
<clipPath id="clip0_136_390">
<rect width="1180" height="230" fill="white"/>
</clipPath>
<clipPath id="clip1_136_390">
<rect width="461.538" height="100" fill="white" transform="translate(101 89)"/>
</clipPath>
<clipPath id="clip2_136_390">
<rect width="307.17" height="32.08" fill="white" transform="translate(101 42)"/>
</clipPath>
<clipPath id="clip3_136_390">
<rect width="465" height="89" fill="white" transform="translate(615 40)"/>
</clipPath>
<clipPath id="clip4_136_390">
<rect width="295" height="33" fill="white" transform="translate(785 155)"/>
</clipPath>
</defs>
</svg>
