<svg width="309" height="142" viewBox="0 0 309 142" fill="none" xmlns="http://www.w3.org/2000/svg">
<path d="M104.214 26.5741L104.141 26.2875L103.854 26.2139L91.0133 22.9161L103.854 19.6297L104.141 19.5563L104.214 19.2693L107.501 6.42862L110.799 19.2697L110.872 19.5563L111.159 19.6297L123.988 22.9161L111.158 26.2139L110.872 26.2875L110.799 26.5737L107.501 39.4036L104.214 26.5741Z" fill="white" stroke="black"/>
<path d="M68.4369 95.8307C67.5703 95.8307 66.7423 95.7641 65.9529 95.6366C63.3585 95.2039 61.2223 94.0447 59.7816 92.2698C58.4347 90.6169 57.7227 88.4814 57.7061 86.0631C55.3491 85.5695 53.4061 84.449 52.0592 82.7962C50.7123 81.1488 50.0003 79.0134 49.9837 76.595C47.6267 76.1014 45.6837 74.981 44.3368 73.3281C42.9899 71.6807 42.2779 69.5453 42.2613 67.127C39.9043 66.6333 37.9613 65.5129 36.6144 63.86C35.1682 62.0907 34.4561 59.7555 34.5444 57.1154C34.6217 54.8135 35.2951 52.2898 36.5316 49.6108C37.7129 47.0593 39.3689 44.4635 41.4499 41.8955C43.5751 39.2719 46.0646 36.787 48.8411 34.4963L52.2193 38.6396C49.7132 40.7029 47.4832 42.9382 45.5788 45.2789C43.7738 47.5031 42.3551 49.7217 41.3616 51.8738C40.4397 53.865 39.9209 55.7453 39.8657 57.2984C39.8215 58.6351 40.1085 59.7001 40.7323 60.46C41.2732 61.12 42.0847 61.5804 43.1555 61.8355C43.4481 60.937 43.8124 60.0162 44.2485 59.0789C45.4298 56.5274 47.0857 53.9316 49.1668 51.3635C51.2919 48.7455 53.7759 46.2551 56.558 43.9643C59.3455 41.6736 62.2601 39.7101 65.2353 38.1349C68.1498 36.5873 71.0092 35.4669 73.7305 34.8069C75.8778 34.2855 78.0305 34.9622 79.3498 36.5818C80.6691 38.1959 80.9064 40.4533 79.9736 42.4668C79.5651 43.3487 79.0959 44.2417 78.577 45.1347C79.5485 44.7963 80.509 44.5135 81.4529 44.2805C83.6002 43.7591 85.7529 44.4358 87.0722 46.0554C88.3915 47.6695 88.6288 49.9269 87.696 51.9404C87.2875 52.8223 86.8183 53.7153 86.2994 54.6083C87.2709 54.2699 88.2314 53.9871 89.1753 53.7541C91.3226 53.2327 93.4753 53.9094 94.7946 55.5235C96.1139 57.1375 96.3512 59.395 95.4184 61.4084C94.2371 63.9599 92.5811 66.5557 90.5001 69.1238C88.3804 71.7418 85.8909 74.2322 83.1089 76.5229C80.3268 78.8137 77.4123 80.7716 74.4371 82.3524C71.5225 83.8999 68.6632 85.0203 65.9419 85.6804C64.9372 85.9244 63.9712 86.1019 63.0384 86.2184C63.0715 87.3222 63.3641 88.2152 63.905 88.8808C64.5232 89.6407 65.5058 90.1343 66.8195 90.3562C68.3486 90.6113 70.2805 90.4671 72.4112 89.9513C74.702 89.3911 77.1474 88.4315 79.6755 87.0892C82.3306 85.6804 84.9526 83.9221 87.4586 81.8532L90.8368 85.9966C88.0492 88.2873 85.1347 90.2508 82.165 91.826C79.2505 93.3735 76.3911 94.494 73.6698 95.154C71.8096 95.6088 70.0597 95.8362 68.4369 95.8362V95.8307ZM55.316 76.7448C55.3491 77.8486 55.6417 78.7416 56.1826 79.4016C56.7236 80.0617 57.535 80.5276 58.6059 80.7772C58.8984 79.8786 59.2627 78.9579 59.6988 78.0205C60.1073 77.1386 60.5765 76.2456 61.0954 75.3526C60.1238 75.6909 59.1634 75.9738 58.2195 76.2068C57.2204 76.4508 56.2488 76.6283 55.316 76.7448ZM90.6602 58.918C90.6602 58.918 90.5608 58.9235 90.4394 58.9513C88.1486 59.5115 85.7033 60.4711 83.1751 61.8133C80.5145 63.2222 77.8981 64.986 75.392 67.0493C72.886 69.1127 70.6559 71.348 68.7515 73.6886C66.9465 75.9128 65.5279 78.1315 64.5343 80.2835C64.4956 80.3667 64.457 80.4499 64.4184 80.5331C64.5067 80.511 64.595 80.4943 64.6888 80.4721C66.9796 79.9119 69.425 78.9524 71.9531 77.6101C74.6137 76.2012 77.2302 74.4374 79.7362 72.3741C82.2423 70.3107 84.4778 68.0755 86.3767 65.7348C88.1817 63.5106 89.6003 61.2919 90.5939 59.1399C90.6436 59.0289 90.6602 58.9568 90.6602 58.918ZM47.5936 67.2712C47.6267 68.375 47.9193 69.268 48.4602 69.9336C49.0012 70.5936 49.8126 71.054 50.8835 71.3091C51.176 70.4106 51.5403 69.4898 51.9764 68.5525C52.3849 67.6705 52.8541 66.7775 53.373 65.8845C52.4014 66.2229 51.441 66.5058 50.4971 66.7387C49.498 66.9828 48.5264 67.1603 47.5936 67.2712ZM82.9378 49.4499C82.9378 49.4499 82.8384 49.4555 82.717 49.4888C80.4262 50.049 77.9809 51.0085 75.4527 52.3508C72.7921 53.7597 70.1757 55.5235 67.6696 57.5868C65.1636 59.6502 62.928 61.8854 61.0291 64.2261C59.2241 66.4503 57.8055 68.6689 56.8119 70.821C56.7732 70.9042 56.7346 70.9874 56.696 71.0706C56.7843 71.0484 56.8726 71.0262 56.9664 71.0096C59.2627 70.4494 61.7026 69.4898 64.2307 68.1476C66.8913 66.7387 69.5078 64.9749 72.0138 62.9116C74.5199 60.8482 76.7499 58.6129 78.6543 56.2723C80.4593 54.0481 81.8779 51.8294 82.8715 49.6773C82.9212 49.5664 82.9378 49.4943 82.9378 49.4555V49.4499ZM75.2154 39.9819C75.2154 39.9819 75.116 39.9874 74.9946 40.0207C72.7038 40.5809 70.2585 41.5405 67.7303 42.8828C65.0752 44.2916 62.4533 46.0499 59.9472 48.1188C57.4412 50.1821 55.2111 52.4174 53.3122 54.758C51.5072 56.9822 50.0886 59.2009 49.095 61.353C49.0564 61.4362 49.0177 61.5194 48.9791 61.6026C49.0674 61.5804 49.1557 61.5637 49.2496 61.5415C51.5403 60.9813 53.9857 60.0218 56.5138 58.6795C59.1744 57.2707 61.7909 55.5068 64.2969 53.4435C66.803 51.3802 69.0386 49.1449 70.9374 46.8042C72.7424 44.58 74.1611 42.3614 75.1547 40.2093C75.2043 40.0984 75.2209 40.0262 75.2209 39.9874L75.2154 39.9819Z" fill="#FB6F23" stroke="black" stroke-miterlimit="10"/>
<path d="M35.0478 75.0518C37.6119 76.2369 39.6151 77.9411 40.7908 79.7139C41.9717 81.4946 42.277 83.269 41.6266 84.6764C40.9761 86.0837 39.4268 87.001 37.3054 87.2554C35.1933 87.5087 32.5972 87.0872 30.033 85.9021C27.4689 84.7171 25.4657 83.0128 24.2899 81.24C23.1091 79.4593 22.8038 77.6849 23.4542 76.2776C24.1047 74.8702 25.6539 73.953 27.7754 73.6986C29.8875 73.4453 32.4836 73.8667 35.0478 75.0518Z" fill="#FF00A8" stroke="black"/>
<path d="M48.2662 108.849C51.094 110.321 51.995 114.63 49.9225 118.612C47.8501 122.594 43.8037 124.328 40.9759 122.856C38.1481 121.385 37.2471 117.075 39.3195 113.093C41.392 109.111 45.4384 107.377 48.2662 108.849Z" fill="#FFE200" stroke="black"/>
<path d="M9.10243 14.611L14.8362 18.2082C12.28 22.3193 13.5698 27.78 17.7135 30.3798C21.8572 32.9796 27.3089 31.7518 29.8651 27.6407L35.5989 31.2379C31.0915 38.4931 21.4788 40.6585 14.174 36.0713C6.86925 31.484 4.592 21.8583 9.10243 14.611Z" fill="#35CFD2" stroke="black" stroke-miterlimit="10"/>
<path d="M117 99.0324V53.5586L157.045 30.5378L197 53.5586V99.0324L157.005 122.023L117 99.0324Z" fill="black"/>
<path d="M157.602 76.5594L157.562 120.489L195.844 98.355L195.884 54.3555L157.602 76.5594Z" fill="black"/>
<path d="M118.115 98.2652L156.447 120.489V76.639L118.115 54.4151V98.2652Z" fill="black"/>
<path d="M119.053 53.718L157.006 75.7227L194.889 53.718L157.006 31.8029L119.053 53.718Z" fill="black"/>
<path d="M117 93.9099V48.4361L157.045 25.4153L197 48.4361V93.9099L157.005 116.901L117 93.9099Z" fill="black"/>
<path d="M157.602 71.437L157.562 115.367L195.844 93.2325L195.884 49.233L157.602 71.437Z" fill="#004FFF"/>
<path d="M118.115 93.1427L156.447 115.367V71.5165L118.115 49.2927V93.1427Z" fill="#004FFF"/>
<path d="M119.053 48.5956L157.006 70.6003L194.889 48.5956L157.006 26.6805L119.053 48.5956Z" fill="#004FFF"/>
<path d="M142.551 48.2668H147.272L147.282 41.8218L158.808 41.8716V39.2916L142.571 39.202L142.551 48.2668Z" fill="black"/>
<path d="M155.291 55.2798L171.448 55.24V46.3046L166.826 46.2946L166.836 52.6799L155.291 52.6898V55.2798Z" fill="black"/>
<path d="M124.731 76.4176V73.6782C125.647 74.1663 126.364 74.3456 126.833 74.1265C127.341 73.8874 127.51 73.21 127.51 72.2637V69.4147C127.51 67.283 128.128 66.496 129.084 66.4064C130.02 66.3167 131.355 66.8746 133.019 67.7811V69.9427C132.102 69.4745 131.445 69.3251 131.016 69.5741C130.548 69.8431 130.449 70.5404 130.449 71.417V74.8736C130.449 75.5211 130.309 76.0191 129.911 76.2582C129.502 76.5072 128.795 76.5272 127.54 76.0789L127.271 75.9793V76.8957L127.54 77.095C128.805 78.0513 129.522 78.8581 129.921 79.5554C130.319 80.2428 130.449 80.8803 130.449 81.5378V84.9944C130.449 85.8809 130.558 86.7077 131.026 87.4947C131.455 88.2119 132.112 88.7996 133.019 89.3575V91.529C131.345 90.5827 130.01 89.6563 129.074 88.5207C128.108 87.3552 127.5 85.8809 127.49 83.7492V80.9002C127.49 79.9539 127.311 79.0872 126.783 78.2704C126.315 77.5432 125.627 76.9455 124.721 76.4076L124.731 76.4176Z" fill="black"/>
<path d="M146.138 84.8151C146.606 85.5622 147.313 86.1598 148.229 86.7077V89.467C147.333 89.0088 146.646 88.8395 146.167 89.0387C145.64 89.2678 145.46 89.9452 145.46 90.8915V93.7405C145.46 95.8722 144.843 96.6591 143.886 96.7488C142.95 96.8385 141.605 96.2806 139.932 95.3841V93.2225C140.848 93.6907 141.506 93.8401 141.934 93.591C142.402 93.3221 142.502 92.6049 142.502 91.7083V88.2517C142.502 87.6042 142.641 87.1062 143.04 86.8671C143.448 86.6181 144.155 86.5981 145.41 87.0464L145.679 87.146V86.2296L145.41 86.0303C144.145 85.074 143.428 84.2672 143.03 83.5699C142.631 82.8825 142.502 82.245 142.502 81.5876V78.131C142.502 77.2444 142.392 76.4276 141.924 75.6406C141.496 74.9333 140.838 74.3556 139.932 73.8077V71.6262C141.605 72.5725 142.94 73.4989 143.876 74.6245C144.843 75.7801 145.45 77.2444 145.46 79.3861V82.235C145.46 83.1714 145.63 84.0281 146.128 84.835L146.138 84.8151Z" fill="black"/>
<path d="M175.713 92.3359L175.524 92.3559C175.404 92.3559 175.285 92.3658 175.165 92.3658C174.896 92.3658 174.607 92.3459 174.309 92.2961C173.88 92.2264 173.512 92.1168 173.203 91.9773L173.083 91.9176L169.657 95.0156L167.256 91.6287L170.334 87.8832L170.314 87.7935C170.274 87.5943 170.254 87.3851 170.234 87.156C170.214 86.9169 170.214 86.6978 170.214 86.4786C170.214 86.2595 170.214 86.0403 170.234 85.8013C170.254 85.5522 170.274 85.3032 170.314 85.0442L170.334 84.8848L167.266 83.819L169.746 78.1908L173.193 78.2804L173.253 78.2007C173.601 77.7525 173.99 77.3042 174.418 76.8559C174.836 76.4176 175.255 76.0391 175.643 75.7403L175.713 75.6904L176.251 71.5067L181.122 69.3849L181.64 73.0407C181.64 73.0407 182.039 73.0208 182.138 73.0208C182.447 73.0208 182.746 73.0407 183.035 73.0905C183.423 73.1503 183.782 73.2599 184.111 73.4192L184.23 73.479L187.707 70.381L190.097 73.738L186.969 77.5134L186.989 77.613C187.039 77.8222 187.069 78.0314 187.079 78.2605C187.089 78.4896 187.099 78.7088 187.099 78.9279C187.099 79.1471 187.099 79.3562 187.079 79.5953C187.059 79.8244 187.029 80.0834 186.979 80.3623L186.95 80.5317L190.048 81.5776L187.567 87.2357L184.091 87.1162L184.031 87.1959C183.672 87.6641 183.294 88.1123 182.895 88.5407C182.497 88.969 182.088 89.3376 181.69 89.6464L181.62 89.6962L181.092 93.87L176.221 95.9918L175.693 92.3359H175.713ZM180.056 78.39C179.608 78.39 179.11 78.5095 178.582 78.7386C177.556 79.1869 176.669 79.9539 175.952 81.0198C175.235 82.0857 174.876 83.1715 174.876 84.2573C174.876 85.3431 175.265 86.1798 176.022 86.648C176.4 86.8771 176.819 86.9966 177.277 86.9966C177.735 86.9966 178.223 86.8771 178.751 86.648C179.777 86.1997 180.664 85.4327 181.381 84.3668C182.098 83.301 182.457 82.2052 182.457 81.1294C182.457 80.0535 182.068 79.2068 181.311 78.7386C180.933 78.5095 180.514 78.39 180.056 78.39Z" fill="black"/>
<path d="M216.261 82.738L216.007 82.5872L215.752 82.7378L208.232 87.1846L212.684 79.6701L212.835 79.4153L212.684 79.1604L208.232 71.6459L215.752 76.0928L216.007 76.2433L216.261 76.0926L223.771 71.6459L219.329 79.1609L219.179 79.4153L219.329 79.6697L223.771 87.1846L216.261 82.738Z" fill="white" stroke="black"/>
<path d="M260.129 137.214C259.546 136.852 248.242 129.771 242.783 120.186C231.757 119.984 220.127 113.451 219.531 113.113L222.377 108.108L220.955 110.61L222.376 108.106C222.416 108.13 226.481 110.42 231.801 112.234C234.896 113.289 237.77 113.968 240.366 114.265C240.293 113.968 240.229 113.668 240.171 113.368C239.29 108.699 240.345 104.327 243.31 100.374C245.304 97.7127 248.034 96.0776 250.995 95.7712C254.925 95.3648 258.739 97.6287 260.265 101.273C261.416 104.019 261.29 107.2 259.91 110.23C257.861 114.727 254.532 117.749 250.013 119.213C249.723 119.306 249.43 119.394 249.134 119.473C250.639 121.61 252.613 123.809 255.021 126.021C259.162 129.823 263.119 132.293 263.159 132.319L260.131 137.213L260.129 137.214ZM253.6 101.945C253.005 101.592 252.303 101.425 251.588 101.498C250.221 101.639 248.951 102.446 247.914 103.83C245.933 106.472 245.249 109.241 245.824 112.293C245.942 112.916 246.111 113.55 246.334 114.198C247.007 114.083 247.648 113.929 248.25 113.733C251.204 112.774 253.306 110.847 254.676 107.843C255.394 106.268 255.491 104.765 254.961 103.498C254.684 102.834 254.197 102.299 253.604 101.945L253.6 101.945Z" fill="#6600FF" stroke="black" stroke-miterlimit="10"/>
<path d="M252.626 8.74918C253.605 11.0642 254.073 13.3091 254.055 15.0559C254.046 15.9301 253.916 16.6549 253.687 17.1955C253.46 17.7332 253.15 18.058 252.79 18.2085C252.43 18.3591 251.979 18.3523 251.434 18.138C250.885 17.9226 250.273 17.5083 249.638 16.9032C248.37 15.6942 247.084 13.7914 246.105 11.4764C245.126 9.16139 244.658 6.91644 244.676 5.16968C244.685 4.29544 244.815 3.57069 245.044 3.03005C245.272 2.49238 245.582 2.16759 245.942 2.01702C246.302 1.86645 246.752 1.87327 247.298 2.08753C247.846 2.30298 248.459 2.71721 249.093 3.32234C250.361 4.53138 251.647 6.43418 252.626 8.74918Z" fill="#FF00A8" stroke="black"/>
<path d="M274.863 48.1993C276.126 49.8997 276.826 51.7342 276.958 53.3087C277.092 54.8924 276.651 56.1282 275.75 56.7896C274.849 57.451 273.531 57.5056 272.049 56.9123C270.575 56.3224 269.018 55.1163 267.756 53.4158C266.494 51.7154 265.794 49.8809 265.661 48.3064C265.528 46.7227 265.969 45.4869 266.87 44.8255C267.771 44.1641 269.089 44.1095 270.571 44.7028C272.045 45.2927 273.601 46.4988 274.863 48.1993Z" fill="#FFE200" stroke="black"/>
<path d="M250.451 79.2672C250.9 80.1743 250.844 81.2602 250.328 82.3072C249.812 83.3549 248.844 84.3366 247.533 84.9791C246.223 85.6216 244.85 85.7872 243.7 85.5563C242.551 85.3257 241.65 84.7085 241.201 83.8014C240.751 82.8943 240.807 81.8084 241.323 80.7614C241.84 79.7137 242.808 78.732 244.118 78.0895C245.429 77.4469 246.802 77.2814 247.952 77.5122C249.101 77.7429 250.001 78.3601 250.451 79.2672Z" fill="#004FFF" stroke="black"/>
<path d="M303.092 4.74068C305.814 6.30356 306.55 10.4651 304.416 14.1411C302.282 17.8171 298.29 19.264 295.568 17.7011C292.846 16.1382 292.11 11.9767 294.244 8.30069C296.378 4.6247 300.37 3.1778 303.092 4.74068Z" fill="#35CFD2" stroke="black"/>
</svg>
