<svg width="366" height="97" viewBox="0 0 366 97" fill="none" xmlns="http://www.w3.org/2000/svg">
<g clip-path="url(#clip0_430_4)">
<path d="M144 52V62" stroke="black" stroke-miterlimit="10"/>
<path d="M139 57H149" stroke="black" stroke-miterlimit="10"/>
</g>
<g clip-path="url(#clip1_430_4)">
<path d="M275 52V62" stroke="black" stroke-miterlimit="10"/>
<path d="M270 57H280" stroke="black" stroke-miterlimit="10"/>
</g>
<g clip-path="url(#clip2_430_4)">
<path d="M37.1149 51.4991V53.4611H33.1909V51.4767H35.1305V45.6618H33.1909V43.6773H35.1305V39.8244H31.2775V53.4649H27.3535V37.84H37.1167V39.802H39.0563V43.7259H37.1167V45.6412H39.0563V51.5047H37.1167L37.1149 51.4991Z" fill="black"/>
<path d="M49.5406 53.4612V47.6219H47.6011V45.6375H49.5406V39.8225H45.6876V53.463H41.7637V37.8381H51.5269V39.8001H53.4665V45.6637H51.5269V47.5789H53.4665V53.4649H49.5425L49.5406 53.4612Z" fill="black"/>
<path d="M56.1719 53.4611V37.8362H65.9351V39.8207H60.0959V43.6736H63.9974V45.658H60.0959V51.473H65.9351V53.4574H56.1719V53.4611Z" fill="black"/>
<path d="M76.398 53.4611V49.5596H70.6055V53.4611H68.6211V47.5752H70.5607V41.7602H72.5002V37.8362H76.4466V41.7602H78.3862V47.5752H80.3258V53.4611H76.4018H76.398ZM74.4585 41.8051H72.5432V47.5752H74.4585V41.8051Z" fill="black"/>
<path d="M90.8101 53.4611V49.5372H88.8705V45.6599H86.9552V53.4611H83.0312V37.8362H86.9552V43.6755H88.8705V41.749H90.8101V39.8225H92.7496V37.8381H94.734V39.8468H92.7945V41.8013H90.8549V45.6393H92.7945V49.4923H94.734V53.463H90.8101V53.4611Z" fill="black"/>
<path d="M9.8685 60.3748V74.0153H5.94452V60.3748H2.04297V58.3904H13.7682V60.3748H9.86663H9.8685Z" fill="black"/>
<path d="M22.2945 74.0153V66.214H18.4416V74.0153H14.5176V58.3904H18.4416V64.2296H22.2945V58.3904H26.2185V74.0153H22.2945Z" fill="black"/>
<path d="M28.9258 74.0153V58.3904H38.689V60.3748H32.8498V64.2278H36.7513V66.2122H32.8498V72.0271H38.689V74.0115H28.9258V74.0153Z" fill="black"/>
<path d="M55.8102 72.0533V74.0153H51.8862V72.0309H53.8258V66.216H51.8862V64.2315H53.8258V60.3786H49.9728V74.0191H46.0488V58.3942H55.8121V60.3562H57.7516V64.2801H55.8121V66.1954H57.7516V72.0589H55.8121L55.8102 72.0533Z" fill="black"/>
<path d="M68.2359 74.0153V68.1761H66.2964V66.1916H68.2359V60.3767H64.383V74.0172H60.459V58.3923H70.2222V60.3543H72.1618V66.2178H70.2222V68.1331H72.1618V74.019H68.2378L68.2359 74.0153Z" fill="black"/>
<path d="M74.8691 74.0153V58.3904H78.7931V74.0153H74.8691Z" fill="black"/>
<path d="M89.304 72.0533V74.0153H83.4181V72.0533H81.4785V60.3748H83.4181V58.3904H91.2436V62.3611H89.2592V60.3991H85.4062V72.0309H89.2592V70.0465H91.2436V72.0552H89.304V72.0533Z" fill="black"/>
<path d="M101.707 74.0153V70.0913H99.767V66.214H97.8517V74.0153H93.9277V58.3904H97.8517V64.2296H99.767V62.3031H101.707V60.3767H103.646V58.3922H105.631V60.401H103.691V62.3555H101.751V66.1935H103.691V70.0465H105.631V74.0172H101.707V74.0153Z" fill="black"/>
<path d="M116.163 72.0533V74.0153H110.277V72.0533H108.338V70.0446H110.322V72.029H114.175V68.1835H110.274V66.2253H108.334V60.3748H110.274V58.3904H116.16V60.3748H118.099V62.3592H116.115V60.3972H112.262V64.2427H116.163V66.201H118.103V72.0514H116.163V72.0533Z" fill="black"/>
<path d="M35.2457 49.6305V51.5925H31.3218V49.6081H33.2613V43.7932H31.3218V41.8088H33.2613V37.9558H29.4084V51.5963H25.4844V35.9714H35.2476V37.9334H37.1872V41.8573H35.2476V43.7726H37.1872V49.6362H35.2476L35.2457 49.6305Z" fill="#FAED00" stroke="black" stroke-width="0.7" stroke-miterlimit="10"/>
<path d="M47.6715 51.5926V45.7533H45.7319V43.7689H47.6715V37.954H43.8185V51.5944H39.8945V35.9695H49.6578V37.9315H51.5973V43.7951H49.6578V45.7103H51.5973V51.5963H47.6733L47.6715 51.5926Z" fill="#FAED00" stroke="black" stroke-width="0.7" stroke-miterlimit="10"/>
<path d="M54.3027 51.5926V35.9677H64.066V37.9521H58.2267V41.805H62.1283V43.7894H58.2267V49.6044H64.066V51.5888H54.3027V51.5926Z" fill="#FAED00" stroke="black" stroke-width="0.7" stroke-miterlimit="10"/>
<path d="M74.5289 51.5926V47.691H68.7364V51.5926H66.752V45.7066H68.6915V39.8916H70.6311V35.9677H74.5775V39.8916H76.5171V45.7066H78.4566V51.5926H74.5326H74.5289ZM72.5893 39.9365H70.6741V45.7066H72.5893V39.9365Z" fill="#FAED00" stroke="black" stroke-width="0.7" stroke-miterlimit="10"/>
<path d="M88.9409 51.5926V47.6686H87.0014V43.7913H85.0861V51.5926H81.1621V35.9677H85.0861V41.8069H87.0014V39.8804H88.9409V37.9539H90.8805V35.9695H92.8649V37.9782H90.9253V39.9327H88.9858V43.7708H90.9253V47.6237H92.8649V51.5944H88.9409V51.5926Z" fill="#FAED00" stroke="black" stroke-width="0.7" stroke-miterlimit="10"/>
<path d="M7.99936 58.5062V72.1467H4.07538V58.5062H0.173828V56.5218H11.899V58.5062H7.99749H7.99936Z" fill="#FAED00" stroke="black" stroke-width="0.7" stroke-miterlimit="10"/>
<path d="M20.4254 72.1467V64.3454H16.5724V72.1467H12.6484V56.5218H16.5724V62.361H20.4254V56.5218H24.3494V72.1467H20.4254Z" fill="#FAED00" stroke="black" stroke-width="0.7" stroke-miterlimit="10"/>
<path d="M27.0566 72.1467V56.5218H36.8199V58.5062H30.9806V62.3592H34.8822V64.3436H30.9806V70.1585H36.8199V72.143H27.0566V72.1467Z" fill="#FAED00" stroke="black" stroke-width="0.7" stroke-miterlimit="10"/>
<path d="M53.941 70.1847V72.1467H50.0171V70.1623H51.9566V64.3474H50.0171V62.363H51.9566V58.51H48.1037V72.1505H44.1797V56.5256H53.9429V58.4876H55.8825V62.4115H53.9429V64.3268H55.8825V70.1904H53.9429L53.941 70.1847Z" fill="#FAED00" stroke="black" stroke-width="0.7" stroke-miterlimit="10"/>
<path d="M66.3668 72.1467V66.3075H64.4272V64.3231H66.3668V58.5081H62.5138V72.1486H58.5898V56.5237H68.3531V58.4857H70.2926V64.3492H68.3531V66.2645H70.2926V72.1504H66.3687L66.3668 72.1467Z" fill="#FAED00" stroke="black" stroke-width="0.7" stroke-miterlimit="10"/>
<path d="M73 72.1467V56.5218H76.924V72.1467H73Z" fill="#FAED00" stroke="black" stroke-width="0.7" stroke-miterlimit="10"/>
<path d="M87.4349 70.1847V72.1467H81.5489V70.1847H79.6094V58.5062H81.5489V56.5218H89.3745V60.4925H87.3901V58.5305H83.5371V70.1623H87.3901V68.1779H89.3745V70.1866H87.4349V70.1847Z" fill="#FAED00" stroke="black" stroke-width="0.7" stroke-miterlimit="10"/>
<path d="M99.8374 72.1467V68.2227H97.8978V64.3454H95.9826V72.1467H92.0586V56.5218H95.9826V62.361H97.8978V60.4346H99.8374V58.5081H101.777V56.5237H103.761V58.5324H101.822V60.4869H99.8823V64.3249H101.822V68.1779H103.761V72.1486H99.8374V72.1467Z" fill="#FAED00" stroke="black" stroke-width="0.7" stroke-miterlimit="10"/>
<path d="M114.294 70.1847V72.1467H108.408V70.1847H106.469V68.176H108.453V70.1604H112.306V66.3149H108.404V64.3567H106.465V58.5062H108.404V56.5218H114.29V58.5062H116.23V60.4906H114.246V58.5286H110.393V62.3741H114.294V64.3324H116.234V70.1828H114.294V70.1847Z" fill="#FAED00" stroke="black" stroke-width="0.7" stroke-miterlimit="10"/>
</g>
<path d="M333.326 22C322.738 22 314.158 30.5797 314.158 41.1673C314.158 51.755 322.738 60.3346 333.326 60.3346C343.913 60.3346 352.493 51.755 352.493 41.1673C352.493 30.5797 343.913 22 333.326 22ZM322.624 53.2153L321.27 51.8614L330.58 42.5516L331.934 43.9055L322.624 53.2153ZM330.58 39.7754L321.27 30.4656L322.624 29.1117L331.934 38.4215L330.58 39.7754ZM344.02 53.2153L334.71 43.9055L336.064 42.5516L345.374 51.8614L344.02 53.2153ZM336.064 39.7754L334.71 38.4215L344.02 29.1117L345.374 30.4656L336.064 39.7754Z" fill="#00B2FC"/>
<path d="M336.719 67.3932H334.482V78.5437H347.413V76.6498H336.719V67.3932Z" fill="black"/>
<path d="M358.166 67.9942C357.839 67.5226 357.345 67.2488 356.805 67.2488C356.265 67.2488 355.77 67.5226 355.443 67.9942L347.959 78.5438H350.629L356.805 69.7968L361.642 76.6499H354.135V78.5438H365.651L358.166 67.9942Z" fill="black"/>
<path d="M317.916 78.5437L310.994 72.8164L317.528 67.3932H314.463L309.458 71.5386L304.453 67.3932H301.388L307.922 72.8164L301 78.5437H304.073L309.458 74.0866L314.835 78.5437H317.916Z" fill="black"/>
<path d="M329.075 67.3932H318.891V69.2948H328.893C329.965 69.2948 330.84 70.1619 330.84 71.2419C330.84 72.322 329.973 73.1891 328.893 73.1891H318.891V78.5514H321.134V75.083H329.083C331.205 75.083 332.924 73.364 332.924 71.2419C332.924 69.1198 331.205 67.4009 329.083 67.4009L329.075 67.3932Z" fill="black"/>
<path d="M311.375 83.2531H312.105L315.49 91.1405L318.89 83.2531H319.62L315.855 91.8783H315.125L311.383 83.2531H311.375Z" fill="black"/>
<path d="M327.163 89.8096H322.075L321.154 91.886H320.439L324.303 83.2607H324.919L328.791 91.886H328.076L327.156 89.8096H327.163ZM326.905 89.2011L324.615 84.029L322.341 89.2011H326.905Z" fill="black"/>
<path d="M331.461 87.8167V83.2531H332.115V87.8167C332.115 90.3571 333.035 91.3687 334.937 91.3687C336.838 91.3687 337.774 90.3571 337.774 87.8167V83.2531H338.428V87.8167C338.428 90.6766 337.211 92 334.937 92C332.662 92 331.453 90.6766 331.453 87.8167H331.461Z" fill="black"/>
<path d="M342.354 83.2531H343.008V91.247H347.297V91.8783H342.354V83.2531Z" fill="black"/>
<path d="M351.101 83.8844H348.432V83.2531H354.418V83.8844H351.763V91.8783H351.109V83.8844H351.101Z" fill="black"/>
<path d="M170 73.6171V28.1433L210.045 5.1225L250 28.1433V73.6171L210.005 96.608L170 73.6171Z" fill="black"/>
<path d="M210.602 51.1441L210.562 95.0739L248.844 72.9397L248.884 28.9402L210.602 51.1441Z" fill="black"/>
<path d="M171.115 72.8499L209.447 95.0738V51.2237L171.115 28.9998V72.8499Z" fill="black"/>
<path d="M172.053 28.3027L210.006 50.3074L247.889 28.3027L210.006 6.38763L172.053 28.3027Z" fill="black"/>
<path d="M170 68.4946V23.0208L210.045 0L250 23.0208V68.4946L210.005 91.4855L170 68.4946Z" fill="black"/>
<path d="M210.602 46.0217L210.562 89.9515L248.844 67.8172L248.884 23.8177L210.602 46.0217Z" fill="#004FFF"/>
<path d="M171.115 67.7275L209.447 89.9513V46.1013L171.115 23.8774V67.7275Z" fill="#004FFF"/>
<path d="M172.053 23.1803L210.006 45.185L247.889 23.1803L210.006 1.2652L172.053 23.1803Z" fill="#004FFF"/>
<path d="M195.551 22.8516H200.272L200.282 16.4065L211.808 16.4563V13.8763L195.571 13.7867L195.551 22.8516Z" fill="black"/>
<path d="M208.291 29.8645L224.448 29.8247V20.8893L219.826 20.8793L219.836 27.2646L208.291 27.2746V29.8645Z" fill="black"/>
<path d="M177.731 51.0023V48.2629C178.647 48.751 179.364 48.9303 179.833 48.7112C180.341 48.4721 180.51 47.7947 180.51 46.8484V43.9994C180.51 41.8677 181.128 41.0808 182.084 40.9911C183.02 40.9014 184.355 41.4593 186.019 42.3658V44.5274C185.102 44.0592 184.445 43.9098 184.016 44.1588C183.548 44.4278 183.449 45.1251 183.449 46.0017V49.4583C183.449 50.1058 183.309 50.6039 182.911 50.8429C182.502 51.092 181.795 51.1119 180.54 50.6636L180.271 50.564V51.4805L180.54 51.6797C181.805 52.636 182.522 53.4429 182.921 54.1402C183.319 54.8275 183.449 55.465 183.449 56.1225V59.5791C183.449 60.4656 183.558 61.2924 184.026 62.0794C184.455 62.7966 185.112 63.3843 186.019 63.9422V66.1138C184.345 65.1674 183.01 64.241 182.074 63.1054C181.108 61.9399 180.5 60.4656 180.49 58.3339V55.4849C180.49 54.5386 180.311 53.672 179.783 52.8551C179.315 52.1279 178.627 51.5303 177.721 50.9923L177.731 51.0023Z" fill="black"/>
<path d="M199.138 59.3998C199.606 60.1469 200.313 60.7446 201.229 61.2924V64.0517C200.333 63.5935 199.646 63.4242 199.167 63.6234C198.64 63.8525 198.46 64.5299 198.46 65.4762V68.3252C198.46 70.4569 197.843 71.2439 196.886 71.3335C195.95 71.4232 194.605 70.8653 192.932 69.9688V67.8072C193.848 68.2754 194.506 68.4248 194.934 68.1758C195.402 67.9068 195.502 67.1896 195.502 66.2931V62.8364C195.502 62.189 195.641 61.6909 196.04 61.4518C196.448 61.2028 197.155 61.1829 198.41 61.6311L198.679 61.7307V60.8143L198.41 60.6151C197.145 59.6588 196.428 58.8519 196.03 58.1546C195.631 57.4673 195.502 56.8297 195.502 56.1723V52.7157C195.502 51.8291 195.392 51.0123 194.924 50.2253C194.496 49.5181 193.838 48.9403 192.932 48.3924V46.2109C194.605 47.1572 195.94 48.0836 196.876 49.2093C197.843 50.3648 198.45 51.8291 198.46 53.9708V56.8198C198.46 57.7561 198.63 58.6128 199.128 59.4197L199.138 59.3998Z" fill="black"/>
<path d="M228.713 66.9207L228.524 66.9406C228.404 66.9406 228.285 66.9506 228.165 66.9506C227.896 66.9506 227.607 66.9306 227.309 66.8808C226.88 66.8111 226.512 66.7015 226.203 66.5621L226.083 66.5023L222.657 69.6003L220.256 66.2134L223.334 62.4679L223.314 62.3783C223.274 62.179 223.254 61.9698 223.234 61.7407C223.214 61.5017 223.214 61.2825 223.214 61.0634C223.214 60.8442 223.214 60.6251 223.234 60.386C223.254 60.137 223.274 59.8879 223.314 59.6289L223.334 59.4695L220.266 58.4037L222.746 52.7755L226.193 52.8651L226.253 52.7854C226.601 52.3372 226.99 51.8889 227.418 51.4407C227.836 51.0024 228.255 50.6238 228.643 50.325L228.713 50.2752L229.251 46.0914L234.122 43.9696L234.64 47.6254C234.64 47.6254 235.039 47.6055 235.138 47.6055C235.447 47.6055 235.746 47.6254 236.035 47.6752C236.423 47.735 236.782 47.8446 237.111 48.004L237.23 48.0637L240.707 44.9657L243.097 48.3227L239.969 52.0981L239.989 52.1977C240.039 52.4069 240.069 52.6161 240.079 52.8452C240.089 53.0743 240.099 53.2935 240.099 53.5126C240.099 53.7318 240.099 53.941 240.079 54.18C240.059 54.4092 240.029 54.6681 239.979 54.9471L239.95 55.1164L243.048 56.1624L240.567 61.8204L237.091 61.7009L237.031 61.7806C236.672 62.2488 236.294 62.697 235.895 63.1254C235.497 63.5537 235.088 63.9223 234.69 64.2311L234.62 64.2809L234.092 68.4547L229.221 70.5765L228.693 66.9207H228.713ZM233.056 52.9747C232.608 52.9747 232.11 53.0942 231.582 53.3234C230.556 53.7716 229.669 54.5386 228.952 55.6045C228.235 56.6704 227.876 57.7562 227.876 58.842C227.876 59.9278 228.265 60.7645 229.022 61.2327C229.4 61.4618 229.819 61.5814 230.277 61.5814C230.735 61.5814 231.223 61.4618 231.751 61.2327C232.777 60.7844 233.664 60.0174 234.381 58.9515C235.098 57.8857 235.457 56.7899 235.457 55.7141C235.457 54.6383 235.068 53.7915 234.311 53.3234C233.933 53.0942 233.514 52.9747 233.056 52.9747Z" fill="black"/>
<defs>
<clipPath id="clip0_430_4">
<rect width="10" height="10" fill="white" transform="translate(139 52)"/>
</clipPath>
<clipPath id="clip1_430_4">
<rect width="10" height="10" fill="white" transform="translate(270 52)"/>
</clipPath>
<clipPath id="clip2_430_4">
<rect width="118.022" height="70" fill="white" transform="translate(0 20)"/>
</clipPath>
</defs>
</svg>
