<svg width="210" height="34" viewBox="0 0 210 34" fill="none" xmlns="http://www.w3.org/2000/svg">
<g clip-path="url(#clip0_63_11)">
<path d="M16.7956 33.5912C26.0716 33.5912 33.5912 26.0716 33.5912 16.7956C33.5912 7.51965 26.0716 0 16.7956 0C7.51965 0 0 7.51965 0 16.7956C0 26.0716 7.51965 33.5912 16.7956 33.5912Z" fill="#00ABFF"/>
<path d="M19.2122 18.0105L18.0234 19.1992L26.178 27.3537L27.3667 26.165L19.2122 18.0105Z" fill="white"/>
<path d="M7.41823 6.2263L6.22949 7.41504L14.384 15.5696L15.5728 14.3808L7.41823 6.2263Z" fill="white"/>
<path d="M26.1635 6.22943L18.0146 14.3896L19.2042 15.5776L27.3531 7.41734L26.1635 6.22943Z" fill="white"/>
<path d="M14.392 18.0234L6.24316 26.1836L7.43273 27.3715L15.5816 19.2113L14.392 18.0234Z" fill="white"/>
<path d="M131.474 20.3303H123.854L122.487 23.4412H121.419L127.201 10.5264H128.128L133.925 23.4412H132.857L131.49 20.3303H131.474ZM131.082 19.4191L127.656 11.6733L124.247 19.4191H131.082Z" fill="#00B2FC"/>
<path d="M134.224 17.0151C134.224 12.4273 137.146 10.3691 140.178 10.3691C142.41 10.3691 144.829 11.4532 145.709 14.5013L144.766 14.7369C144.122 12.5688 142.425 11.3118 140.178 11.3118C137.178 11.3118 135.198 13.5429 135.198 17.0151C135.198 20.4874 137.099 22.7027 140.178 22.7027C142.472 22.7027 144.169 21.4143 144.782 19.1362L145.74 19.3718C144.908 22.5298 142.441 23.6454 140.178 23.6454C137.146 23.6454 134.224 21.7128 134.224 17.0151Z" fill="#00B2FC"/>
<path d="M156.063 20.3303H148.443L147.061 23.4412H145.992L151.774 10.5264H152.701L158.499 23.4412H157.43L156.048 20.3303H156.063ZM155.67 19.4191L152.245 11.6733L148.836 19.4191H155.67Z" fill="#00B2FC"/>
<path d="M159.739 10.5264H162.599C167.862 10.5264 170.077 12.4589 170.077 16.9681C170.077 21.4773 167.862 23.4412 162.599 23.4412H159.739V10.5264ZM162.615 22.4985C167.108 22.4985 169.088 20.896 169.088 16.9681C169.088 13.0402 167.108 11.4691 162.599 11.4691H160.729V22.4985H162.615Z" fill="#00B2FC"/>
<path d="M172.529 10.5264H180.761V11.4691H173.503V16.3868H180.447V17.298H173.503V22.4828H180.761V23.4255H172.529V10.5264Z" fill="#00B2FC"/>
<path d="M184.783 10.5264H185.93L190.314 22.3886L194.697 10.5264H195.844L198.515 23.4412H197.51L195.122 11.9561L190.864 23.4412H189.748L185.506 11.9561L183.118 23.4412H182.112L184.783 10.5264Z" fill="#00B2FC"/>
<path d="M203.433 19.6862L197.903 10.5264H199.065L203.92 18.6649L208.838 10.5264H210L204.423 19.6862V23.4255H203.449V19.6862H203.433Z" fill="#00B2FC"/>
<path d="M82.7213 10.5107H80.1289V23.4413H95.1177V21.2417H82.7213V10.5107Z" fill="#00B2FC"/>
<path d="M107.577 11.2176C107.2 10.6677 106.618 10.3535 106.005 10.3535C105.393 10.3535 104.811 10.6677 104.434 11.2176L95.7616 23.4412H98.8567L106.021 13.3073L111.63 21.2573H102.942V23.4569H116.281L107.608 11.2334L107.577 11.2176Z" fill="#00B2FC"/>
<path d="M60.9449 23.4413L52.9163 16.7953L60.4892 10.5107H56.9384L51.1409 15.3185L45.3433 10.5107H41.7925L49.3655 16.7953L41.3369 23.4413H44.9034L51.1409 18.2722L57.3784 23.4413H60.9449Z" fill="#00B2FC"/>
<path d="M73.8597 10.5107H62.0604V12.7104H73.5141C74.7553 12.7104 75.7608 13.7159 75.7608 14.9571C75.7608 16.1983 74.7553 17.2038 73.5141 17.2038H62.0604V23.4256H64.6528V19.4192H73.8597C76.3264 19.4192 78.3061 17.4238 78.3061 14.9728C78.3061 12.5218 76.3107 10.5265 73.8597 10.5265V10.5107Z" fill="#00B2FC"/>
</g>
<defs>
<clipPath id="clip0_63_11">
<rect width="210" height="33.5912" fill="white"/>
</clipPath>
</defs>
</svg>
