<svg width="31" height="30" viewBox="0 0 31 30" fill="none" xmlns="http://www.w3.org/2000/svg">
<g clip-path="url(#clip0_850_2571)">
<path d="M15.5 30C23.7843 30 30.5 23.2843 30.5 15C30.5 6.71573 23.7843 0 15.5 0C7.21573 0 0.5 6.71573 0.5 15C0.5 23.2843 7.21573 30 15.5 30Z" fill="#FFE200"/>
<path d="M20.0779 0.714111L1.21387 19.5781C1.60987 20.8081 2.15587 21.9721 2.83987 23.0401L23.5399 2.34011C22.4719 1.65611 21.3079 1.11011 20.0779 0.714111Z" fill="#FFED84"/>
<path d="M30.5001 15.0001C30.5001 11.6941 29.4261 8.64011 27.6141 6.16211L6.66211 27.1141C9.14011 28.9261 12.1941 30.0001 15.5001 30.0001C15.8481 30.0001 16.1961 29.9821 16.5441 29.9581L30.4641 16.0381C30.4881 15.6961 30.5061 15.3481 30.5061 14.9941L30.5001 15.0001Z" fill="#FFED84"/>
<path d="M25.6695 3.97803L4.47754 25.17C4.74754 25.464 5.02954 25.746 5.32354 26.016L26.5215 4.83003C26.2515 4.53603 25.9695 4.25403 25.6755 3.98403L25.6695 3.97803Z" fill="#FFFBE6"/>
<path d="M15.5001 27.3781C22.3363 27.3781 27.8781 21.8363 27.8781 15.0001C27.8781 8.16389 22.3363 2.62207 15.5001 2.62207C8.66389 2.62207 3.12207 8.16389 3.12207 15.0001C3.12207 21.8363 8.66389 27.3781 15.5001 27.3781Z" stroke="black" stroke-miterlimit="10"/>
<path d="M11.0596 10.344H7.89161L13.7236 16.182L7.84961 22.056H11.0176L16.8916 16.182L11.0596 10.344Z" fill="black"/>
<path d="M18.0134 17.304L16.4414 18.882L19.9934 22.434H23.1494L18.0134 17.304Z" fill="black"/>
<path d="M23.0894 9.96606H19.9574L16.4414 13.4821L18.0134 15.0601L23.0894 9.96606Z" fill="black"/>
<path d="M11.0596 9.14404H7.89161L13.7236 14.982L7.84961 20.856H11.0176L16.8916 14.982L11.0596 9.14404Z" fill="#FF8125" stroke="black" stroke-miterlimit="10"/>
<path d="M18.0134 16.104L16.4414 17.682L19.9934 21.234H23.1494L18.0134 16.104Z" fill="#FF8125" stroke="black" stroke-miterlimit="10"/>
<path d="M23.0894 8.76611H19.9574L16.4414 12.2821L18.0134 13.8601L23.0894 8.76611Z" fill="#FF8125" stroke="black" stroke-miterlimit="10"/>
<path d="M15.5 0.6C23.438 0.6 29.9 7.062 29.9 15C29.9 22.938 23.438 29.4 15.5 29.4C7.562 29.4 1.1 22.938 1.1 15C1.1 7.062 7.562 0.6 15.5 0.6ZM15.5 0C7.214 0 0.5 6.714 0.5 15C0.5 23.286 7.214 30 15.5 30C23.786 30 30.5 23.286 30.5 15C30.5 6.714 23.786 0 15.5 0Z" fill="black"/>
</g>
<defs>
<clipPath id="clip0_850_2571">
<rect width="30" height="30" fill="white" transform="translate(0.5)"/>
</clipPath>
</defs>
</svg>
