<svg width="293" height="437" viewBox="0 0 293 437" fill="none" xmlns="http://www.w3.org/2000/svg">
<g style="mix-blend-mode:multiply">
<g clip-path="url(#clip0_515_594)">
<path d="M276.461 416.832C319.335 373.973 265.264 250.433 155.691 140.898C46.1179 31.3623 -77.4643 -22.6899 -120.338 20.1688C-163.211 63.0274 -109.14 186.567 0.432728 296.103C110.006 405.638 233.588 459.69 276.461 416.832Z" stroke="#00B2FC" stroke-width="1.5" stroke-miterlimit="10"/>
<path d="M216.775 429.417C262.368 399.455 237.224 280.725 160.613 164.225C84.0023 47.7252 -15.0635 -22.4278 -60.6569 7.53392C-106.25 37.4956 -81.1058 156.226 -4.49517 272.726C72.1154 389.226 171.181 459.379 216.775 429.417Z" stroke="#00B2FC" stroke-miterlimit="10"/>
<path d="M28.0074 49.6985C32.6703 49.6985 36.4504 45.9198 36.4504 41.2584C36.4504 36.5971 32.6703 32.8184 28.0074 32.8184C23.3445 32.8184 19.5645 36.5971 19.5645 41.2584C19.5645 45.9198 23.3445 49.6985 28.0074 49.6985Z" fill="#00B2FC"/>
<path d="M45.8102 346.158C50.4731 346.158 54.2531 342.379 54.2531 337.718C54.2531 333.057 50.4731 329.278 45.8102 329.278C41.1472 329.278 37.3672 333.057 37.3672 337.718C37.3672 342.379 41.1472 346.158 45.8102 346.158Z" fill="#00B2FC"/>
<path d="M284.556 342.988C289.219 342.988 292.999 339.209 292.999 334.548C292.999 329.887 289.219 326.108 284.556 326.108C279.893 326.108 276.113 329.887 276.113 334.548C276.113 339.209 279.893 342.988 284.556 342.988Z" fill="#00B2FC"/>
</g>
</g>
<defs>
<clipPath id="clip0_515_594">
<rect width="429" height="437" fill="white" transform="translate(-136)"/>
</clipPath>
</defs>
</svg>
