<svg width="143" height="155" viewBox="0 0 143 155" fill="none" xmlns="http://www.w3.org/2000/svg">
<g clip-path="url(#clip0_270_3087)">
<path d="M142.051 126.849L136.863 107.274L127.094 68.3663C125.058 60.2818 117.798 54.6093 109.459 54.6093H38.3464C30.0074 54.6093 22.7471 60.2818 20.7108 68.3663L10.9415 107.274L5.75385 126.849C2.76004 138.363 9.57187 150.157 21.0502 153.308C31.7527 156.253 42.9765 150.678 47.0733 140.351L51.6064 129.988C52.5761 127.782 54.7457 126.364 57.1577 126.364H90.6593C93.0714 126.364 95.241 127.794 96.2106 129.988L100.744 140.351C104.841 150.678 116.052 156.253 126.767 153.308C138.245 150.145 145.045 138.363 142.063 126.849H142.051Z" fill="black"/>
<path d="M137.202 122L132.014 102.425L122.245 63.518C120.209 55.4335 112.948 49.761 104.609 49.761H33.4972C25.1582 49.761 17.8979 55.4335 15.8616 63.518L6.0923 102.425L0.892519 122C-2.10129 133.515 4.71054 145.309 16.1888 148.46C26.8914 151.405 38.1152 145.83 42.212 135.503L46.7451 125.14C47.7148 122.934 49.8844 121.516 52.2964 121.516H85.798C88.21 121.516 90.3796 122.946 91.3493 125.14L95.8824 135.503C99.9792 145.83 111.191 151.405 121.906 148.46C133.384 145.296 140.184 133.515 137.202 122Z" fill="white"/>
<path d="M104.597 50.9852C112.391 50.9852 119.154 56.2577 121.057 63.8211L130.839 102.741L136.026 122.316C138.838 133.127 132.354 144.339 121.578 147.308C119.784 147.805 117.954 148.048 116.112 148.048C107.639 148.048 100.137 142.957 96.9854 135.03L92.4523 124.667C91.2887 122.025 88.6827 120.316 85.7859 120.316H52.2843C49.3995 120.316 46.7815 122.025 45.6179 124.667L41.0605 135.067C37.9334 142.945 30.4307 148.048 21.9583 148.048C20.1159 148.048 18.2736 147.793 16.4919 147.308C5.71656 144.339 -0.755895 133.127 2.04399 122.328L7.24376 102.741L17.013 63.8332C18.916 56.282 25.6793 50.9974 33.4729 50.9974H104.585M104.585 49.7853H33.4972C25.1582 49.7853 17.8979 55.4578 15.8616 63.5423L6.0923 102.45L0.892519 122C-2.10129 133.515 4.71054 145.309 16.1888 148.46C18.116 148.993 20.0675 149.248 21.9825 149.248C30.7094 149.248 38.8545 143.975 42.212 135.503L46.7451 125.14C47.7148 122.934 49.8844 121.516 52.2964 121.516H85.798C88.21 121.516 90.3796 122.946 91.3493 125.14L95.8824 135.503C99.2398 143.963 107.385 149.248 116.112 149.248C118.027 149.248 119.978 148.993 121.906 148.46C133.384 145.296 140.184 133.515 137.202 122L132.014 102.425L122.245 63.518C120.209 55.4335 112.948 49.761 104.609 49.761L104.585 49.7853Z" fill="black"/>
<path d="M77.6044 96.1712C78.9619 96.1712 80.1376 95.6621 81.1436 94.644C82.1496 93.6258 82.6466 92.438 82.6466 91.0805C82.6466 89.723 82.1375 88.5473 81.1194 87.5412C80.1012 86.5352 78.9134 86.0383 77.5559 86.0383C76.1984 86.0383 75.0227 86.5473 74.0166 87.5655C73.0106 88.5836 72.5137 89.7714 72.5137 91.129C72.5137 92.4865 73.0227 93.6622 74.0409 94.6682C75.059 95.6742 76.2468 96.1712 77.6044 96.1712Z" fill="black"/>
<path d="M92.2469 81.5294C93.6045 81.5294 94.7802 81.0203 95.7862 80.0022C96.7922 78.984 97.2892 77.7962 97.2892 76.4387C97.2892 75.0812 96.7801 73.9055 95.7619 72.8994C94.7438 71.8934 93.556 71.3965 92.1985 71.3965C90.8409 71.3965 89.6652 71.9056 88.6592 72.9237C87.6532 73.9418 87.1562 75.1297 87.1562 76.4872C87.1562 77.8447 87.6653 79.0204 88.6835 80.0264C89.7016 81.0324 90.8894 81.5294 92.2469 81.5294Z" fill="black"/>
<path d="M92.2469 110.813C93.6045 110.813 94.7802 110.304 95.7862 109.286C96.7922 108.268 97.2892 107.08 97.2892 105.723C97.2892 104.365 96.7801 103.189 95.7619 102.183C94.7438 101.177 93.556 100.68 92.1985 100.68C90.8409 100.68 89.6652 101.189 88.6592 102.208C87.6532 103.226 87.1562 104.413 87.1562 105.771C87.1562 107.129 87.6653 108.304 88.6835 109.31C89.7016 110.316 90.8894 110.813 92.2469 110.813Z" fill="black"/>
<path d="M106.888 96.1711C108.245 96.1711 109.421 95.662 110.427 94.6438C111.433 93.6257 111.93 92.4379 111.93 91.0804C111.93 89.7228 111.421 88.5471 110.403 87.5411C109.384 86.5351 108.197 86.0381 106.839 86.0381C105.482 86.0381 104.306 86.5472 103.3 87.5653C102.294 88.5835 101.797 89.7713 101.797 91.1288C101.797 92.4864 102.306 93.6621 103.324 94.6681C104.342 95.6741 105.53 96.1711 106.888 96.1711Z" fill="black"/>
<path d="M43.9819 88.0988V75.2872H38.0792V88.0988H25.2676V94.0137H38.0792V106.825H43.9819V94.0137H56.7935V88.0988H43.9819Z" fill="black"/>
<path d="M13.6078 22.0895V17.6654C15.0987 17.6291 16.238 17.2897 17.0137 16.5018C17.8379 15.6534 18.1167 14.405 18.1167 12.8656V8.24765C18.1167 4.79325 19.1106 2.97515 20.6621 1.96913C22.1772 0.987354 24.3346 0.696457 27.0254 0.660095V4.16298C25.5467 4.22358 24.4801 4.57508 23.7892 5.3508C23.0377 6.19925 22.868 7.42344 22.868 8.84156V14.4413C22.868 15.4958 22.6499 16.417 21.9953 17.1685C21.3408 17.9321 20.1894 18.6108 18.1531 19.0108L17.7167 19.0957V20.5865L18.1531 20.6714C20.2015 21.0835 21.3529 21.7501 22.0075 22.5137C22.6499 23.2652 22.868 24.1864 22.868 25.2409V30.8406C22.868 32.283 23.0498 33.5072 23.8013 34.3677C24.4922 35.1435 25.5467 35.5071 27.0254 35.5919V39.0948C24.3225 39.0585 22.1529 38.7554 20.6378 37.7737C19.0743 36.7555 18.0925 34.9253 18.0682 31.4709V26.865C18.0682 25.3378 17.7773 24.0894 16.9289 23.2409C16.1653 22.4895 15.0502 22.138 13.5957 22.0774L13.6078 22.0895Z" fill="#C9FF00"/>
<path d="M27.6438 39.7372H27.0256C23.7894 39.6888 21.7773 39.2645 20.3107 38.307C18.3957 37.0464 17.4866 34.889 17.4745 31.5073V26.8893C17.4745 25.3621 17.1715 24.344 16.517 23.6894C15.9109 23.0834 14.9534 22.7561 13.5837 22.6955L13.002 22.6713V17.0715H13.5959C15.014 17.0109 15.9715 16.7079 16.5897 16.0655C17.22 15.411 17.523 14.3929 17.523 12.8535V8.23555C17.523 4.85387 18.4199 2.69639 20.3471 1.44796C21.8016 0.526784 23.8015 0.10256 27.0256 0.0540771H27.6438V4.74479L27.062 4.76903C25.6923 4.82963 24.7954 5.14477 24.25 5.76292C23.7167 6.36896 23.4864 7.29013 23.4864 8.8537V14.4535C23.4864 15.7746 23.1591 16.7685 22.4682 17.5806C21.644 18.5503 20.2865 19.2169 18.3472 19.6169V20.1138C20.3107 20.5138 21.6561 21.1804 22.4925 22.1501C23.1712 22.9501 23.4985 23.944 23.4985 25.2772V30.877C23.4985 32.4527 23.7288 33.386 24.2742 34.0041C24.8196 34.6223 25.7044 34.9496 27.0741 35.0223L27.6438 35.0586V39.7494V39.7372ZM14.2261 21.5319C15.6079 21.6774 16.6382 22.1016 17.3775 22.8289C18.2745 23.7258 18.6987 25.0106 18.6987 26.8772V31.483C18.7108 34.4162 19.438 36.2586 20.9895 37.2767C22.141 38.0282 23.8379 38.4161 26.4317 38.4888V36.1616C25.0257 36.0041 24.0439 35.5556 23.353 34.7799C22.3955 33.7011 22.2743 32.186 22.2743 30.8528V25.253C22.2743 24.2349 22.044 23.4834 21.5592 22.9137C20.9168 22.1622 19.7411 21.6047 18.0563 21.2653L17.1351 21.0835V18.5987L18.0563 18.4169C19.7289 18.0776 20.9046 17.52 21.547 16.7685C22.044 16.1867 22.2743 15.4474 22.2743 14.4292V8.82946C22.2743 7.49618 22.3955 6.00534 23.3409 4.93872C24.0318 4.16299 25.0136 3.72665 26.4196 3.5812V1.26615C23.8257 1.33887 22.141 1.71461 20.9895 2.4661C19.438 3.47211 18.7229 5.30234 18.7229 8.23555V12.8535C18.7229 14.7322 18.3229 16.017 17.4502 16.9018C16.6988 17.6776 15.6564 18.1018 14.214 18.223V21.5077L14.2261 21.5319Z" fill="black"/>
<path d="M55.9832 2.56281L46.626 37.2522H41.7656L51.1228 2.56281H55.9832Z" fill="white"/>
<path d="M47.0858 37.8585H40.9648L50.6493 1.95703H56.7702L47.0858 37.8585ZM42.5527 36.6465H46.1646L55.1945 3.1691H51.5826L42.5527 36.6465Z" fill="black"/>
<path d="M121.093 16.4657C121.857 17.2535 122.984 17.5929 124.475 17.6535V22.1139C123.02 22.1745 121.905 22.5139 121.141 23.2654C120.281 24.1138 120.002 25.3623 120.002 26.9016V31.5196C120.002 34.974 119.008 36.7921 117.445 37.7981C115.917 38.792 113.748 39.0829 111.045 39.1314V35.6285C112.524 35.5679 113.602 35.2043 114.281 34.4286C115.033 33.568 115.202 32.3317 115.202 30.8772V25.2774C115.202 24.2229 115.42 23.3018 116.075 22.5503C116.73 21.7867 117.881 21.1079 119.917 20.7079L120.354 20.6231V19.1322L119.917 19.0474C117.869 18.6353 116.717 17.9687 116.063 17.2051C115.42 16.4536 115.202 15.5324 115.202 14.4779V8.87814C115.202 7.43577 115.021 6.21158 114.269 5.37525C113.578 4.61165 112.512 4.26015 111.045 4.19955V0.672424C113.748 0.708786 115.917 0.999683 117.433 1.98146C118.984 2.98748 119.978 4.8177 120.002 8.25998V12.8658C120.002 14.3809 120.269 15.6172 121.093 16.4657Z" fill="#C9FF00"/>
<path d="M110.452 39.7615V35.0708L111.033 35.0465C112.403 34.9859 113.3 34.6708 113.845 34.0526C114.379 33.4345 114.609 32.4891 114.609 30.9013V25.3015C114.609 23.9803 114.936 22.9864 115.627 22.1743C116.451 21.2047 117.809 20.5381 119.748 20.1381V19.6411C117.785 19.2411 116.439 18.5745 115.603 17.6048C114.924 16.8049 114.597 15.811 114.597 14.4777V8.87794C114.597 7.31437 114.367 6.38108 113.821 5.77505C113.276 5.16901 112.391 4.85387 111.021 4.80539L110.439 4.78115V0.0540771H111.058C114.294 0.10256 116.306 0.526784 117.772 1.4722C119.688 2.72063 120.597 4.87811 120.609 8.25979V12.8778C120.609 14.405 120.9 15.411 121.518 16.0534C122.124 16.6837 123.069 16.9988 124.487 17.0594L125.069 17.0837V22.7077L124.487 22.7319C123.106 22.7925 122.172 23.1076 121.554 23.7137C120.9 24.3561 120.597 25.3863 120.597 26.9257V31.5436C120.597 34.9253 119.7 37.0828 117.772 38.3312C116.318 39.2766 114.306 39.713 111.058 39.7615H110.439H110.452ZM111.664 36.2101V38.5252C114.306 38.4282 115.954 38.0646 117.13 37.301C118.682 36.295 119.409 34.4526 119.409 31.5315V26.9135C119.409 25.0227 119.833 23.7379 120.73 22.841C121.457 22.1259 122.5 21.7016 123.881 21.5562V18.223C122.439 18.0897 121.409 17.6533 120.669 16.8897C119.809 16.0049 119.409 14.7201 119.409 12.8657V8.25979C119.397 5.32658 118.669 3.49635 117.118 2.49034C115.954 1.73885 114.306 1.36311 111.664 1.29039V3.6418C113.058 3.78725 114.039 4.21148 114.73 4.97508C115.688 6.0417 115.821 7.55679 115.821 8.89006V14.4898C115.821 15.5322 116.039 16.2473 116.536 16.8291C117.179 17.5806 118.354 18.1382 120.039 18.4775L120.96 18.6593V21.132L120.039 21.3138C118.366 21.6532 117.191 22.2107 116.548 22.9622C116.051 23.544 115.821 24.2833 115.821 25.3015V30.9013C115.821 32.2466 115.7 33.7739 114.754 34.8526C114.064 35.6404 113.082 36.0768 111.664 36.2222V36.2101Z" fill="black"/>
<path d="M85.0221 36.5856L83.1555 34.9008C79.9314 31.9555 77.277 29.4101 75.1801 27.2769C73.0832 25.1315 71.4106 23.2286 70.1742 21.5438C68.9258 19.859 68.0531 18.3318 67.5562 16.9622C67.0592 15.5926 66.8047 14.2108 66.8047 12.8169C66.8047 10.0898 67.7259 7.79894 69.5561 5.96872C71.3984 4.12637 73.665 3.21732 76.3679 3.21732C78.1012 3.21732 79.7011 3.62942 81.1677 4.44151C82.6343 5.2536 83.9191 6.44143 85.01 7.99288C86.2827 6.35658 87.6402 5.14451 89.0583 4.36879C90.4764 3.59306 92.0157 3.2052 93.652 3.2052C96.3549 3.2052 98.6215 4.12637 100.464 5.9566C102.306 7.78682 103.215 10.0776 103.215 12.8048C103.215 14.1987 102.961 15.5804 102.464 16.9501C101.967 18.3197 101.094 19.8469 99.8457 21.5317C98.5973 23.2165 96.9367 25.1315 94.8399 27.2648C92.743 29.398 90.0886 31.9434 86.8644 34.8887L84.9979 36.5735L85.0221 36.5856Z" fill="#FF5600"/>
<path d="M85.0231 37.3979L82.7444 35.3495C79.5324 32.4163 76.8416 29.8346 74.7447 27.7014C72.6357 25.5439 70.9388 23.5925 69.6783 21.8956C68.4056 20.1744 67.4965 18.5745 66.9753 17.1685C66.4542 15.7383 66.1875 14.2717 66.1875 12.8172C66.1875 9.93245 67.1693 7.48407 69.1207 5.53263C71.0721 3.5812 73.4963 2.59943 76.3568 2.59943C78.187 2.59943 79.896 3.03577 81.4596 3.90846C82.7929 4.64782 83.9928 5.6902 85.0352 6.99924C86.2109 5.60536 87.4714 4.53874 88.7805 3.83574C90.2956 3.01153 91.9319 2.59943 93.6651 2.59943C96.5256 2.59943 98.9619 3.5812 100.901 5.53263C102.853 7.47195 103.834 9.93245 103.834 12.8172C103.834 14.2838 103.568 15.7383 103.047 17.1685C102.525 18.5866 101.616 20.1744 100.344 21.8956C99.0831 23.5925 97.3862 25.5439 95.2772 27.7014C93.1803 29.8468 90.4895 32.4163 87.2896 35.3495L85.0109 37.3979H85.0231ZM76.3689 3.8115C73.8114 3.8115 71.7267 4.65994 69.9934 6.3932C68.2601 8.12646 67.4117 10.2233 67.4117 12.8172C67.4117 14.1383 67.6541 15.4595 68.1268 16.7564C68.5995 18.0654 69.4601 19.5442 70.66 21.1805C71.8842 22.8289 73.5448 24.7439 75.6174 26.8529C77.7022 28.9741 80.3687 31.5315 83.5686 34.4526L85.0231 35.7738L86.4897 34.4526C89.6774 31.5315 92.3561 28.9741 94.4287 26.8529C96.4892 24.7439 98.1619 22.8289 99.3861 21.1805C100.586 19.5442 101.447 18.0654 101.919 16.7564C102.392 15.4595 102.634 14.1383 102.634 12.8172C102.634 10.2233 101.786 8.12646 100.053 6.3932C98.3195 4.65994 96.2347 3.8115 93.6772 3.8115C92.15 3.8115 90.6955 4.17512 89.3623 4.90236C88.0169 5.6296 86.72 6.79319 85.4958 8.35676L84.9988 8.99915L84.5261 8.33252C83.4837 6.86591 82.2595 5.72657 80.8778 4.96296C79.5081 4.19936 77.9809 3.8115 76.3689 3.8115Z" fill="black"/>
</g>
<defs>
<clipPath id="clip0_270_3087">
<rect width="142.564" height="154.054" fill="white" transform="translate(0.189453 0.0540771)"/>
</clipPath>
</defs>
</svg>
