<svg width="50" height="38" viewBox="0 0 50 38" fill="none" xmlns="http://www.w3.org/2000/svg">
<g clip-path="url(#clip0_122_238)">
<path d="M21.3194 6.99043C17.9776 8.45047 13.1919 13.0415 11.8292 16.9998C12.3483 16.7889 13.3865 16.578 14.5384 16.578C19.5349 16.578 23.6068 20.439 23.6068 26.2792C23.6068 32.1193 18.6102 37.2295 12.7701 37.2295C6.4108 37.2295 0.684204 32.3302 0.684204 23.7809C0.684204 14.5989 5.58345 6.56864 13.711 0.842041L21.3194 6.99043ZM47.0648 6.99043C43.7229 8.45047 38.9372 13.0415 37.5745 16.9998C38.0937 16.7889 39.1319 16.578 40.2837 16.578C45.2803 16.578 49.3522 20.439 49.3522 26.2792C49.3522 32.1193 44.3556 37.2295 38.5155 37.2295C32.1562 37.2295 26.4296 32.3302 26.4296 23.7809C26.4296 14.6151 31.3288 6.58486 39.4564 0.842041L47.0648 6.99043Z" fill="#D9D9D9"/>
</g>
<defs>
<clipPath id="clip0_122_238">
<rect width="48.6842" height="36.3874" fill="white" transform="translate(0.684204 0.842041)"/>
</clipPath>
</defs>
</svg>
