<svg width="1920" height="185" viewBox="0 0 1920 185" fill="none" xmlns="http://www.w3.org/2000/svg">
<g opacity="0.5" clip-path="url(#clip0_1_118)">
<path d="M327.641 0.249878H1590.61L2333.01 401.75H-413.01L327.641 0.249878Z" stroke="white" stroke-width="0.5" stroke-miterlimit="10"/>
<path d="M-11.1898 183.927H1930.24" stroke="white" stroke-width="0.5" stroke-miterlimit="10"/>
<path d="M4.34595 175.51H1914.67" stroke="white" stroke-width="0.5" stroke-miterlimit="10"/>
<path d="M19.3821 167.353H1899.6" stroke="white" stroke-width="0.5" stroke-miterlimit="10"/>
<path d="M33.959 159.457H1884.99" stroke="white" stroke-width="0.5" stroke-miterlimit="10"/>
<path d="M48.0872 151.79H1870.82" stroke="white" stroke-width="0.5" stroke-miterlimit="10"/>
<path d="M61.7869 144.363H1857.09" stroke="white" stroke-width="0.5" stroke-miterlimit="10"/>
<path d="M75.0887 137.155H1843.76" stroke="white" stroke-width="0.5" stroke-miterlimit="10"/>
<path d="M87.9928 130.158H1830.82" stroke="white" stroke-width="0.5" stroke-miterlimit="10"/>
<path d="M100.53 123.361H1818.26" stroke="white" stroke-width="0.5" stroke-miterlimit="10"/>
<path d="M112.709 116.764H1806.05" stroke="white" stroke-width="0.5" stroke-miterlimit="10"/>
<path d="M124.552 110.346H1794.18" stroke="white" stroke-width="0.5" stroke-miterlimit="10"/>
<path d="M136.059 104.099H1782.65" stroke="white" stroke-width="0.5" stroke-miterlimit="10"/>
<path d="M147.26 98.031H1771.42" stroke="white" stroke-width="0.5" stroke-miterlimit="10"/>
<path d="M158.154 92.1233H1760.5" stroke="white" stroke-width="0.5" stroke-miterlimit="10"/>
<path d="M168.763 86.3756H1749.86" stroke="white" stroke-width="0.5" stroke-miterlimit="10"/>
<path d="M179.096 80.7778H1739.51" stroke="white" stroke-width="0.5" stroke-miterlimit="10"/>
<path d="M189.165 75.3201H1729.42" stroke="white" stroke-width="0.5" stroke-miterlimit="10"/>
<path d="M198.968 70.0022H1719.59" stroke="white" stroke-width="0.5" stroke-miterlimit="10"/>
<path d="M208.526 64.8142H1710.01" stroke="white" stroke-width="0.5" stroke-miterlimit="10"/>
<path d="M217.849 59.7662H1700.66" stroke="white" stroke-width="0.5" stroke-miterlimit="10"/>
<path d="M226.948 54.8381H1691.54" stroke="white" stroke-width="0.5" stroke-miterlimit="10"/>
<path d="M235.813 50.03H1682.66" stroke="white" stroke-width="0.5" stroke-miterlimit="10"/>
<path d="M244.473 45.3319H1673.98" stroke="white" stroke-width="0.5" stroke-miterlimit="10"/>
<path d="M252.93 40.7438H1665.5" stroke="white" stroke-width="0.5" stroke-miterlimit="10"/>
<path d="M261.193 36.2755H1657.22" stroke="white" stroke-width="0.5" stroke-miterlimit="10"/>
<path d="M269.261 31.8973H1649.14" stroke="white" stroke-width="0.5" stroke-miterlimit="10"/>
<path d="M277.136 27.629H1641.23" stroke="white" stroke-width="0.5" stroke-miterlimit="10"/>
<path d="M284.838 23.4507H1633.51" stroke="white" stroke-width="0.5" stroke-miterlimit="10"/>
<path d="M292.376 19.3623H1625.96" stroke="white" stroke-width="0.5" stroke-miterlimit="10"/>
<path d="M299.741 15.3739H1618.59" stroke="white" stroke-width="0.5" stroke-miterlimit="10"/>
<path d="M306.943 11.4655H1611.36" stroke="white" stroke-width="0.5" stroke-miterlimit="10"/>
<path d="M313.992 7.64697H1604.29" stroke="white" stroke-width="0.5" stroke-miterlimit="10"/>
<path d="M320.888 3.90845H1597.38" stroke="white" stroke-width="0.5" stroke-miterlimit="10"/>
<path d="M1565.85 0.249878L2279.16 401.75" stroke="white" stroke-width="0.5" stroke-miterlimit="10"/>
<path d="M1541.09 0.249878L2225.32 401.75" stroke="white" stroke-width="0.5" stroke-miterlimit="10"/>
<path d="M1516.32 0.249878L2171.48 401.75" stroke="white" stroke-width="0.5" stroke-miterlimit="10"/>
<path d="M1491.55 0.249878L2117.63 401.75" stroke="white" stroke-width="0.5" stroke-miterlimit="10"/>
<path d="M1466.8 0.249878L2063.79 401.75" stroke="white" stroke-width="0.5" stroke-miterlimit="10"/>
<path d="M1442.03 0.249878L2009.95 401.75" stroke="white" stroke-width="0.5" stroke-miterlimit="10"/>
<path d="M1417.26 0.249878L1956.1 401.75" stroke="white" stroke-width="0.5" stroke-miterlimit="10"/>
<path d="M1392.5 0.249878L1902.26 401.75" stroke="white" stroke-width="0.5" stroke-miterlimit="10"/>
<path d="M1367.74 0.249878L1848.42 401.75" stroke="white" stroke-width="0.5" stroke-miterlimit="10"/>
<path d="M1342.97 0.249878L1794.57 401.75" stroke="white" stroke-width="0.5" stroke-miterlimit="10"/>
<path d="M1318.21 0.249878L1740.73 401.75" stroke="white" stroke-width="0.5" stroke-miterlimit="10"/>
<path d="M1293.44 0.249878L1686.89 401.75" stroke="white" stroke-width="0.5" stroke-miterlimit="10"/>
<path d="M1268.68 0.249878L1633.04 401.75" stroke="white" stroke-width="0.5" stroke-miterlimit="10"/>
<path d="M1243.92 0.249878L1579.2 401.75" stroke="white" stroke-width="0.5" stroke-miterlimit="10"/>
<path d="M1219.15 0.249878L1525.36 401.75" stroke="white" stroke-width="0.5" stroke-miterlimit="10"/>
<path d="M1194.38 0.249878L1471.51 401.75" stroke="white" stroke-width="0.5" stroke-miterlimit="10"/>
<path d="M1169.63 0.249878L1417.67 401.75" stroke="white" stroke-width="0.5" stroke-miterlimit="10"/>
<path d="M1144.86 0.249878L1363.82 401.75" stroke="white" stroke-width="0.5" stroke-miterlimit="10"/>
<path d="M1120.09 0.249878L1309.98 401.75" stroke="white" stroke-width="0.5" stroke-miterlimit="10"/>
<path d="M1095.33 0.249878L1256.14 401.75" stroke="white" stroke-width="0.5" stroke-miterlimit="10"/>
<path d="M1070.57 0.249878L1202.29 401.75" stroke="white" stroke-width="0.5" stroke-miterlimit="10"/>
<path d="M1045.8 0.249878L1148.45 401.75" stroke="white" stroke-width="0.5" stroke-miterlimit="10"/>
<path d="M1021.04 0.249878L1094.61 401.75" stroke="white" stroke-width="0.5" stroke-miterlimit="10"/>
<path d="M996.274 0.249878L1040.76 401.75" stroke="white" stroke-width="0.5" stroke-miterlimit="10"/>
<path d="M971.507 0.249878L986.92 401.75" stroke="white" stroke-width="0.5" stroke-miterlimit="10"/>
<path d="M946.749 0.249878L933.08 401.75" stroke="white" stroke-width="0.5" stroke-miterlimit="10"/>
<path d="M921.982 0.249878L879.23 401.75" stroke="white" stroke-width="0.5" stroke-miterlimit="10"/>
<path d="M897.214 0.249878L825.39 401.75" stroke="white" stroke-width="0.5" stroke-miterlimit="10"/>
<path d="M872.457 0.249878L771.55 401.75" stroke="white" stroke-width="0.5" stroke-miterlimit="10"/>
<path d="M847.689 0.249878L717.7 401.75" stroke="white" stroke-width="0.5" stroke-miterlimit="10"/>
<path d="M822.921 0.249878L663.86 401.75" stroke="white" stroke-width="0.5" stroke-miterlimit="10"/>
<path d="M798.164 0.249878L610.02 401.75" stroke="white" stroke-width="0.5" stroke-miterlimit="10"/>
<path d="M773.396 0.249878L556.17 401.75" stroke="white" stroke-width="0.5" stroke-miterlimit="10"/>
<path d="M748.629 0.249878L502.33 401.75" stroke="white" stroke-width="0.5" stroke-miterlimit="10"/>
<path d="M723.871 0.249878L448.48 401.75" stroke="white" stroke-width="0.5" stroke-miterlimit="10"/>
<path d="M699.104 0.249878L394.64 401.75" stroke="white" stroke-width="0.5" stroke-miterlimit="10"/>
<path d="M674.336 0.249878L340.8 401.75" stroke="white" stroke-width="0.5" stroke-miterlimit="10"/>
<path d="M649.579 0.249878L286.95 401.75" stroke="white" stroke-width="0.5" stroke-miterlimit="10"/>
<path d="M624.811 0.249878L233.11 401.75" stroke="white" stroke-width="0.5" stroke-miterlimit="10"/>
<path d="M600.044 0.249878L179.27 401.75" stroke="white" stroke-width="0.5" stroke-miterlimit="10"/>
<path d="M575.276 0.249878L125.42 401.75" stroke="white" stroke-width="0.5" stroke-miterlimit="10"/>
<path d="M550.518 0.249878L71.5796 401.75" stroke="white" stroke-width="0.5" stroke-miterlimit="10"/>
<path d="M525.751 0.249878L17.7397 401.75" stroke="white" stroke-width="0.5" stroke-miterlimit="10"/>
<path d="M500.983 0.249878L-36.1105 401.75" stroke="white" stroke-width="0.5" stroke-miterlimit="10"/>
<path d="M476.226 0.249878L-89.9504 401.75" stroke="white" stroke-width="0.5" stroke-miterlimit="10"/>
<path d="M451.458 0.249878L-143.79 401.75" stroke="white" stroke-width="0.5" stroke-miterlimit="10"/>
<path d="M426.691 0.249878L-197.641 401.75" stroke="white" stroke-width="0.5" stroke-miterlimit="10"/>
<path d="M401.933 0.249878L-251.48 401.75" stroke="white" stroke-width="0.5" stroke-miterlimit="10"/>
<path d="M377.166 0.249878L-305.32 401.75" stroke="white" stroke-width="0.5" stroke-miterlimit="10"/>
<path d="M352.398 0.249878L-359.171 401.75" stroke="white" stroke-width="0.5" stroke-miterlimit="10"/>
</g>
<defs>
<clipPath id="clip0_1_118">
<rect width="2748" height="402" fill="white" transform="translate(-414)"/>
</clipPath>
</defs>
</svg>
