<svg width="46" height="46" viewBox="0 0 46 46" fill="none" xmlns="http://www.w3.org/2000/svg">
<path d="M0.580002 22.96C0.580002 10.58 10.66 0.5 23.04 0.5C35.42 0.5 45.5 10.58 45.5 22.96C45.5 35.34 35.42 45.42 23.04 45.42C10.66 45.42 0.580002 35.34 0.580002 22.96Z" fill="#00B2FC"/>
<path d="M45 22.96C45 35.07 35.15 44.92 23.04 44.92C10.93 44.92 1.08 35.07 1.08 22.96C1.08 10.85 10.93 1 23.04 1C35.15 1 45 10.85 45 22.96ZM46 22.96C46 10.28 35.72 0 23.04 0C10.36 0 0.0800018 10.28 0.0800018 22.96C0.0800018 35.64 10.36 45.92 23.04 45.92C35.72 45.92 46 35.64 46 22.96Z" fill="black"/>
<g clip-path="url(#clip0_403_4)">
<path d="M20.2375 36L20.2375 10H21.7364L21.7364 32.3728L28.9408 25.1783L30 26.2375L20.2375 36Z" fill="white"/>
</g>
<defs>
<clipPath id="clip0_403_4">
<rect width="26" height="9.76249" fill="white" transform="matrix(0 1 -1 0 30 10)"/>
</clipPath>
</defs>
</svg>
