<svg width="46" height="46" viewBox="0 0 46 46" fill="none" xmlns="http://www.w3.org/2000/svg">
<path d="M22.96 45.42C10.58 45.42 0.5 35.34 0.5 22.96C0.5 10.58 10.58 0.5 22.96 0.5C35.34 0.5 45.42 10.58 45.42 22.96C45.42 35.34 35.34 45.42 22.96 45.42Z" fill="#F93AC3"/>
<path d="M22.96 1C35.07 1 44.92 10.85 44.92 22.96C44.92 35.07 35.07 44.92 22.96 44.92C10.85 44.92 1 35.07 1 22.96C1 10.85 10.85 1 22.96 1ZM22.96 0C10.28 0 0 10.28 0 22.96C0 35.64 10.28 45.92 22.96 45.92C35.64 45.92 45.92 35.64 45.92 22.96C45.92 10.28 35.64 0 22.96 0Z" fill="black"/>
<g clip-path="url(#clip0_403_3)">
<path d="M20.8811 9.88123L20.8811 35.8812L19.3823 35.8812L19.3823 13.5084L12.1778 20.7029L11.1187 19.6437L20.8811 9.88123Z" fill="white"/>
</g>
<g clip-path="url(#clip1_403_3)">
<path d="M25.1184 35.8812L25.1184 9.88123L26.6172 9.88123L26.6172 32.254L33.8217 25.0595L34.8809 26.1187L25.1184 35.8812Z" fill="white"/>
</g>
<defs>
<clipPath id="clip0_403_3">
<rect width="26" height="9.76249" fill="white" transform="translate(11.1187 35.8812) rotate(-90)"/>
</clipPath>
<clipPath id="clip1_403_3">
<rect width="26" height="9.76249" fill="white" transform="translate(34.8809 9.88123) rotate(90)"/>
</clipPath>
</defs>
</svg>
