<svg width="215" height="214" viewBox="0 0 215 214" fill="none" xmlns="http://www.w3.org/2000/svg">
<g style="mix-blend-mode:soft-light">
<g clip-path="url(#clip0_604_199)">
<path d="M108.01 9.96655L10.9766 107L108.01 204.033L205.043 107L108.01 9.96655Z" stroke="white" stroke-width="1.5" stroke-miterlimit="10"/>
<path d="M59.5005 58.4876V155.518H156.531V58.4876H59.5005Z" stroke="white" stroke-miterlimit="10"/>
<path d="M112.625 14.5815C115.174 12.0329 115.174 7.9007 112.625 5.35204C110.076 2.80339 105.944 2.80339 103.396 5.35205C100.847 7.9007 100.847 12.0329 103.396 14.5815C105.944 17.1302 110.076 17.1302 112.625 14.5815Z" fill="white"/>
<path d="M209.658 111.615C212.207 109.066 212.207 104.934 209.658 102.385C207.11 99.8368 202.977 99.8368 200.429 102.385C197.88 104.934 197.88 109.066 200.429 111.615C202.977 114.164 207.11 114.164 209.658 111.615Z" fill="white"/>
<path d="M112.625 208.648C115.174 206.1 115.174 201.968 112.625 199.419C110.076 196.87 105.944 196.87 103.396 199.419C100.847 201.968 100.847 206.1 103.396 208.648C105.944 211.197 110.076 211.197 112.625 208.648Z" fill="white"/>
<path d="M16.1018 112.125C18.9322 109.295 18.9322 104.705 16.1018 101.875C13.2714 99.0447 8.68239 99.0447 5.85197 101.875C3.02156 104.705 3.02156 109.295 5.85197 112.125C8.68239 114.955 13.2714 114.955 16.1018 112.125Z" fill="white"/>
</g>
</g>
<defs>
<clipPath id="clip0_604_199">
<rect width="151" height="151" fill="white" transform="translate(0.727051 107) rotate(-45)"/>
</clipPath>
</defs>
</svg>
