<svg width="520" height="60" viewBox="0 0 520 60" fill="none" xmlns="http://www.w3.org/2000/svg">
<g clip-path="url(#clip0_162_1264)">
<path d="M0.529297 60V6.88074H13.8673V53.2463H33.7156V60H0.529297Z" fill="black"/>
<path d="M36.2559 60V6.88074H69.4422V13.6344H49.5939V26.7396H62.8472V33.4933H49.5939V53.2675H69.4422V60.0212H36.2559V60Z" fill="black"/>
<path d="M105.011 60V46.7361H85.3211V60H78.5674V39.9929H85.1623V20.2294H91.7466V6.88074H105.169V20.2188H111.764V39.9824H118.349V59.9894H105.011V60ZM98.4157 20.3776H91.9054V39.9929H98.4157V20.3776Z" fill="black"/>
<path d="M160.745 53.331V60H147.407V53.2463H154.002V13.6344H140.897V60H127.559V6.88074H160.745V13.5498H167.329V53.3204H160.745V53.331Z" fill="black"/>
<path d="M176.538 60V6.88074H209.724V13.6344H189.876V26.7396H203.129V33.4933H189.876V53.2675H209.724V60.0212H176.538V60Z" fill="black"/>
<path d="M245.293 60V40.1517H238.698V33.398H245.293V13.6344H232.188V60H218.85V6.88074H252.036V13.5498H258.62V33.4721H252.036V39.9824H258.62V59.9894H245.282L245.293 60Z" fill="black"/>
<path d="M316.905 53.331V60H303.567V53.2463H310.162V33.4721H303.567V26.7184H310.162V13.6133H297.057V59.9788H283.719V6.88074H316.905V13.5498H323.489V26.8878H316.905V33.398H323.489V53.3204H316.905V53.331Z" fill="black"/>
<path d="M365.896 53.331V60H339.305V53.331H332.71V13.6344H339.305V6.88074H365.896V13.6344H372.481V53.331H365.896ZM359.143 13.7191H346.037V53.2569H359.143V13.7085V13.7191Z" fill="black"/>
<path d="M408.134 60V46.7361H388.444V60H381.69V39.9929H388.285V20.2294H394.87V6.88074H408.292V20.2188H414.887V39.9824H421.472V59.9894H408.134V60ZM401.539 20.3776H395.028V39.9929H401.539V20.3776Z" fill="black"/>
<path d="M457.114 60V40.1517H450.519V33.398H457.114V13.6344H444.009V60H430.671V6.88074H463.857V13.5498H470.442V33.4721H463.857V39.9824H470.442V59.9894H457.104L457.114 60Z" fill="black"/>
<path d="M512.847 53.331V60H499.509V53.2463H506.104V13.6344H492.999V60H479.661V6.88074H512.847V13.5498H519.432V53.3204H512.847V53.331Z" fill="black"/>
<path d="M0.529297 53.6486V0.529297H13.8673V46.8949H33.7156V53.6486H0.529297Z" fill="#FF640C"/>
<path d="M34.2449 54.1778H0V0H14.3966V46.3656H34.2449V54.1778ZM1.05857 53.1193H33.1863V47.4241H13.338V1.05857H1.05857V53.1193Z" fill="black"/>
<path d="M36.2559 53.6486V0.529297H69.4422V7.283H49.5939V20.3882H62.8472V27.1419H49.5939V46.916H69.4422V53.6697H36.2559V53.6486Z" fill="#FF640C"/>
<path d="M69.9714 54.1778H35.7266V0H69.9714V7.81228H50.1232V19.8589H63.3765V27.6711H50.1232V46.3867H69.9714V54.199V54.1778ZM36.7851 53.1193H68.9129V47.4241H49.0646V26.5914H62.318V20.8963H49.0646V6.75371H68.9129V1.05857H36.7851V53.1193Z" fill="black"/>
<path d="M105.011 53.6486V40.3846H85.3211V53.6486H78.5674V33.6415H85.1623V13.8673H91.7466V0.529297H105.169V13.8673H111.764V33.6309H118.349V53.638H105.011V53.6486ZM98.4157 14.0261H91.9054V33.6415H98.4157V14.0261Z" fill="#FF640C"/>
<path d="M118.878 54.1778H104.481V40.9139H85.8504V54.1778H78.0381V33.1122H84.633V13.338H91.2173V0H105.699V13.338H112.294V33.1016H118.878V54.1673V54.1778ZM105.54 53.1193H117.819V34.1708H111.235V14.3966H104.64V1.05857H92.2759V13.4968H98.9449V34.1708H91.3761V14.3966H85.681V34.1602H79.0861V53.1087H84.7812V39.8447H105.529V53.1087L105.54 53.1193ZM92.4347 33.1122H97.8864V14.5554H92.4347V33.1122Z" fill="black"/>
<path d="M160.745 46.9795V53.6486H147.407V46.8949H154.002V7.283H140.897V53.6486H127.559V0.529297H160.745V7.19832H167.329V46.969H160.745V46.9795Z" fill="#FF640C"/>
<path d="M161.274 54.1778H146.878V46.3656H153.472V7.81228H141.426V54.1778H127.029V0H161.274V6.66902H167.859V47.4982H161.274V54.1673V54.1778ZM147.936 53.1193H160.216V46.4502H166.8V7.72759H160.216V1.05857H128.088V53.1193H140.367V6.75371H154.531V47.4347H147.936V53.1298V53.1193Z" fill="black"/>
<path d="M176.538 53.6486V0.529297H209.724V7.283H189.876V20.3882H203.129V27.1419H189.876V46.916H209.724V53.6697H176.538V53.6486Z" fill="#FF640C"/>
<path d="M210.254 54.1778H176.009V0H210.254V7.81228H190.405V19.8589H203.659V27.6711H190.405V46.3867H210.254V54.199V54.1778ZM177.067 53.1193H209.195V47.4241H189.347V26.5914H202.6V20.8963H189.347V6.75371H209.195V1.05857H177.067V53.1193Z" fill="black"/>
<path d="M245.293 53.6486V33.8003H238.698V27.0466H245.293V7.283H232.188V53.6486H218.85V0.529297H252.036V7.19832H258.62V27.1207H252.036V33.6309H258.62V53.638H245.282L245.293 53.6486Z" fill="#FF640C"/>
<path d="M259.16 54.1778H244.763V34.3296H238.169V26.5173H244.763V7.81228H232.717V54.1778H218.32V0H252.565V6.66902H259.15V27.65H252.565V33.1016H259.15V54.1673L259.16 54.1778ZM245.822 53.1193H258.102V34.1708H251.517V26.602H258.102V7.72759H251.517V1.05857H219.389V53.1193H231.669V6.75371H245.833V27.5864H239.238V33.2816H245.833V53.1298L245.822 53.1193Z" fill="black"/>
<path d="M316.905 46.9795V53.6486H303.567V46.8949H310.162V27.1207H303.567V20.367H310.162V7.283H297.057V53.6486H283.719V0.529297H316.905V7.19832H323.489V20.5364H316.905V27.0466H323.489V46.969H316.905V46.9795Z" fill="#FF640C"/>
<path d="M317.434 54.1778H303.038V46.3656H309.633V27.65H303.038V19.8377H309.633V7.81228H297.586V54.1778H283.189V0H317.434V6.66902H324.019V21.0656H317.434V26.5173H324.019V47.4982H317.434V54.1673V54.1778ZM304.096 53.1193H316.376V46.4502H322.96V27.5864H316.376V20.0176H322.96V7.72759H316.376V1.05857H284.248V53.1193H296.527V6.75371H310.691V20.9174H304.096V26.6126H310.691V47.4453H304.096V53.1404V53.1193Z" fill="black"/>
<path d="M365.896 46.9795V53.6486H339.305V46.9795H332.71V7.283H339.305V0.529297H365.896V7.283H372.481V46.9795H365.896ZM359.143 7.36769H346.037V46.9054H359.143V7.3571V7.36769Z" fill="#FF640C"/>
<path d="M366.426 54.1778H338.776V47.5088H332.181V6.75371H338.776V0H366.426V6.75371H373.01V47.5088H366.426V54.1778ZM339.834 53.1193H365.367V46.4502H371.951V7.81228H365.367V1.05857H339.834V7.81228H333.239V46.4502H339.834V53.1193ZM359.682 47.4241H345.519V6.82781H359.682V47.4241ZM346.577 46.3656H358.624V7.88638H346.577V46.3656Z" fill="black"/>
<path d="M408.134 53.6486V40.3846H388.444V53.6486H381.69V33.6415H388.285V13.8673H394.87V0.529297H408.292V13.8673H414.887V33.6309H421.472V53.638H408.134V53.6486ZM401.539 14.0261H395.028V33.6415H401.539V14.0261Z" fill="#FF640C"/>
<path d="M422.001 54.1778H407.604V40.9139H388.973V54.1778H381.161V33.1122H387.756V13.338H394.34V0H408.822V13.338H415.417V33.1016H422.001V54.1673V54.1778ZM408.663 53.1193H420.942V34.1708H414.358V14.3966H407.763V1.05857H395.399V13.4968H402.068V34.1708H394.499V14.3966H388.804V34.1602H382.209V53.1087H387.904V39.8447H408.652V53.1087L408.663 53.1193ZM395.558 33.1122H401.009V14.5554H395.558V33.1122Z" fill="black"/>
<path d="M457.114 53.6486V33.8003H450.519V27.0466H457.114V7.283H444.009V53.6486H430.671V0.529297H463.857V7.19832H470.442V27.1207H463.857V33.6309H470.442V53.638H457.104L457.114 53.6486Z" fill="#FF640C"/>
<path d="M470.981 54.1778H456.585V34.3296H449.99V26.5173H456.585V7.81228H444.538V54.1778H430.142V0H464.386V6.66902H470.971V27.65H464.386V33.1016H470.971V54.1673L470.981 54.1778ZM457.643 53.1193H469.923V34.1708H463.339V26.602H469.923V7.72759H463.339V1.05857H431.211V53.1193H443.49V6.75371H457.654V27.5864H451.059V33.2816H457.654V53.1298L457.643 53.1193Z" fill="black"/>
<path d="M512.847 46.9795V53.6486H499.509V46.8949H506.104V7.283H492.999V53.6486H479.661V0.529297H512.847V7.19832H519.432V46.969H512.847V46.9795Z" fill="#FF640C"/>
<path d="M513.377 54.1778H498.98V46.3656H505.575V7.81228H493.528V54.1778H479.132V0H513.377V6.66902H519.961V47.4982H513.377V54.1673V54.1778ZM500.039 53.1193H512.318V46.4502H518.902V7.72759H512.318V1.05857H480.19V53.1193H492.47V6.75371H506.634V47.4347H500.039V53.1298V53.1193Z" fill="black"/>
</g>
<defs>
<clipPath id="clip0_162_1264">
<rect width="519.961" height="60" fill="white"/>
</clipPath>
</defs>
</svg>
