<svg width="756" height="549" viewBox="0 0 756 549" fill="none" xmlns="http://www.w3.org/2000/svg">
<g clip-path="url(#clip0_1101_3)">
<path d="M654 397L645.424 417.007L654 437L634.007 428.424L614 437L622.576 417.007L614 397L634.007 405.576L654 397Z" fill="white"/>
</g>
<g clip-path="url(#clip1_1101_3)">
<path d="M24 133L18.8543 145.004L24 157L12.0039 151.854L0 157L5.14566 145.004L0 133L12.0039 138.146L24 133Z" fill="white"/>
</g>
<g clip-path="url(#clip2_1101_3)">
<path d="M144.786 410.952C129.103 382.148 94.1234 366.665 66.6605 376.393C39.2076 386.121 29.6697 417.367 45.3527 446.171C61.0358 474.975 96.005 490.448 123.468 480.72C150.931 470.992 160.479 439.756 144.796 410.942L144.786 410.952Z" fill="#FDE000"/>
<path d="M106.123 484.123C82.4938 484.123 57.4829 469.52 44.9124 446.411C36.7356 431.379 35.0742 414.845 40.3586 401.043C44.8924 389.213 54.1802 380.286 66.4904 375.922C94.1234 366.134 129.443 381.737 145.216 410.711C153.393 425.734 155.054 442.268 149.77 456.069C145.236 467.909 135.948 476.836 123.618 481.2C118.023 483.182 112.108 484.123 106.113 484.123H106.123ZM84.025 373.991C78.1301 373.991 72.3253 374.912 66.8307 376.863C54.7907 381.127 45.7231 389.844 41.2894 401.404C36.1051 414.935 37.7465 431.158 45.7832 445.931C61.3261 474.485 96.0951 489.887 123.288 480.249C135.328 475.986 144.405 467.269 148.839 455.699C154.023 442.178 152.382 425.944 144.345 411.182C131.935 388.403 107.294 373.991 84.025 373.991Z" fill="black"/>
<path d="M142.624 467.449L135.378 476.326C130.604 482.161 124.158 486.785 116.212 489.597C88.759 499.325 53.7798 483.852 38.0967 455.048C26.9575 434.581 28.5488 412.873 40.2585 398.541L47.5046 389.664C35.7948 403.996 34.2035 425.704 45.3428 446.181C61.0258 474.985 95.995 490.458 123.458 480.73C131.404 477.917 137.86 473.294 142.624 467.459" fill="#FFBF00"/>
<path d="M98.8774 493C75.2477 493 50.2369 478.398 37.6564 455.289C26.7073 435.172 27.548 413.304 39.8683 398.221L47.1143 389.344L47.8849 389.974C35.8349 404.736 35.0242 426.174 45.7832 445.931C61.3261 474.485 96.0951 489.887 123.288 480.249C130.974 477.527 137.349 473.113 142.234 467.128L143.004 467.759L135.758 476.636C130.754 482.761 124.229 487.275 116.372 490.068C110.777 492.049 104.862 492.99 98.8674 492.99L98.8774 493ZM42.0701 397.11L40.6489 398.852C28.5989 413.614 27.7882 435.052 38.5472 454.808C54.0901 483.362 88.8591 498.765 116.052 489.127C123.738 486.405 130.113 481.991 134.998 476.006L136.469 474.204C132.716 477.157 128.422 479.499 123.628 481.2C95.995 490.988 60.6756 475.385 44.9125 446.411C35.7148 429.527 34.8341 411.412 42.0701 397.11Z" fill="black"/>
<path d="M100.459 405.787L108.025 419.699L101.4 422.051L93.8232 408.129L100.459 405.787Z" fill="black"/>
<path d="M77.2594 414.004L84.8357 427.916L78.2002 430.268L70.6339 416.356L77.2594 414.004Z" fill="black"/>
<path d="M122.947 420.64L130.644 434.781L76.6688 453.897L68.9724 439.756L75.5979 437.414L79.6913 444.94L120.415 430.518L116.312 422.992L122.947 420.64Z" fill="black"/>
</g>
<g clip-path="url(#clip3_1101_3)">
<path d="M754.811 477.849C754.811 477.722 754.811 477.611 754.811 477.483C754.811 477.078 754.819 476.672 754.811 476.274C754.811 476.131 754.811 475.979 754.811 475.836C754.811 475.757 754.811 475.677 754.803 475.589C754.803 475.215 754.779 474.857 754.763 474.491C754.763 474.332 754.763 474.157 754.747 473.998C754.747 473.95 754.739 473.902 754.739 473.847C754.723 473.52 754.691 473.194 754.667 472.876C754.652 472.701 754.644 472.518 754.628 472.343C754.628 472.311 754.628 472.279 754.62 472.247C754.596 471.985 754.564 471.738 754.532 471.483C754.508 471.276 754.484 471.061 754.461 470.855C754.461 470.823 754.453 470.791 754.445 470.767C754.421 470.592 754.389 470.425 754.365 470.25C754.325 470.019 754.293 469.78 754.254 469.557C754.246 469.51 754.238 469.462 754.222 469.422C754.19 469.247 754.15 469.08 754.118 468.913C754.079 468.722 754.047 468.531 754.007 468.348C753.991 468.276 753.975 468.213 753.959 468.141C753.927 467.99 753.888 467.847 753.848 467.695C753.808 467.552 753.776 467.409 753.736 467.266C753.705 467.162 753.673 467.067 753.641 466.963C753.601 466.82 753.553 466.677 753.514 466.541C753.482 466.454 753.458 466.35 753.426 466.263C753.378 466.112 753.323 465.969 753.267 465.825C753.227 465.714 753.187 465.594 753.14 465.483C753.124 465.435 753.108 465.388 753.092 465.348C752.988 465.093 752.877 464.838 752.766 464.6C752.75 464.568 752.742 464.536 752.726 464.512C752.726 464.512 752.726 464.504 752.726 464.496C752.598 464.226 752.463 463.963 752.328 463.708C752.312 463.677 752.288 463.645 752.272 463.613C752.224 463.525 752.169 463.446 752.121 463.366C752.041 463.239 751.97 463.104 751.89 462.984C751.85 462.921 751.803 462.865 751.755 462.801C751.691 462.706 751.628 462.618 751.564 462.531C751.508 462.459 751.46 462.387 751.413 462.316C751.293 462.165 751.174 462.021 751.055 461.878L737.144 456.722C737.327 456.921 737.495 457.143 737.662 457.374C737.725 457.462 737.789 457.549 737.853 457.645C737.98 457.828 738.099 458.019 738.219 458.21C738.266 458.297 738.322 458.377 738.37 458.456C738.529 458.743 738.688 459.037 738.831 459.348C738.847 459.379 738.855 459.403 738.871 459.435C739.007 459.722 739.126 460.016 739.245 460.326C739.285 460.438 739.325 460.549 739.373 460.669C739.46 460.899 739.54 461.138 739.619 461.385C739.667 461.528 739.707 461.663 739.747 461.807C739.818 462.045 739.882 462.292 739.946 462.539C739.985 462.682 740.025 462.833 740.057 462.984C740.113 463.239 740.168 463.494 740.224 463.756C740.256 463.923 740.296 464.09 740.328 464.266C740.375 464.536 740.423 464.815 740.463 465.093C740.487 465.268 740.519 465.435 740.542 465.618C740.574 465.849 740.598 466.096 740.63 466.335C740.662 466.589 740.694 466.844 740.717 467.099C740.733 467.305 740.749 467.52 740.765 467.727C740.789 468.045 740.813 468.372 740.837 468.698C740.845 468.905 740.853 469.128 740.861 469.335C740.877 469.693 740.893 470.059 740.901 470.433C740.901 470.656 740.901 470.886 740.901 471.117C740.901 471.515 740.901 471.913 740.901 472.319C740.901 472.566 740.893 472.812 740.885 473.067C740.877 473.433 740.861 473.799 740.845 474.173C740.829 474.436 740.821 474.706 740.805 474.977C740.789 475.295 740.765 475.613 740.741 475.932C740.717 476.242 740.694 476.552 740.67 476.863C740.654 477.086 740.63 477.316 740.606 477.547C740.566 477.929 740.526 478.311 740.487 478.701C740.463 478.884 740.447 479.067 740.423 479.25C740.359 479.799 740.288 480.348 740.216 480.905C740.208 480.969 740.2 481.033 740.192 481.088C740.113 481.637 740.033 482.194 739.946 482.751C739.93 482.839 739.922 482.919 739.906 483.006C739.81 483.587 739.707 484.168 739.603 484.757C739.587 484.86 739.564 484.956 739.548 485.059C739.436 485.656 739.325 486.253 739.198 486.85C739.174 486.953 739.158 487.057 739.134 487.16C739.038 487.622 738.935 488.083 738.839 488.545C738.776 488.823 738.72 489.094 738.656 489.372C738.585 489.667 738.513 489.969 738.45 490.264C738.314 490.845 738.163 491.433 738.02 492.022C737.956 492.285 737.885 492.547 737.821 492.81C737.63 493.542 737.431 494.274 737.224 495.014C737.192 495.126 737.16 495.237 737.129 495.349C737.113 495.388 737.105 495.436 737.089 495.476C736.898 496.136 736.699 496.805 736.5 497.473C736.492 497.505 736.484 497.537 736.468 497.569C736.253 498.277 736.03 498.977 735.8 499.686C735.792 499.709 735.784 499.733 735.776 499.765C735.545 500.465 735.314 501.158 735.075 501.858C735.075 501.882 735.059 501.898 735.052 501.922C734.813 502.622 734.558 503.322 734.303 504.023C734.288 504.062 734.272 504.102 734.264 504.142C734.009 504.826 733.754 505.519 733.484 506.203C733.46 506.259 733.436 506.322 733.412 506.378C733.15 507.047 732.887 507.723 732.608 508.391C732.593 508.439 732.577 508.479 732.553 508.527C732.274 509.203 731.988 509.888 731.701 510.564C731.677 510.612 731.662 510.659 731.638 510.707C731.327 511.423 731.017 512.132 730.691 512.848C730.412 513.461 730.134 514.065 729.847 514.662C729.791 514.774 729.744 514.885 729.688 514.996C729.481 515.442 729.266 515.872 729.051 516.309C728.948 516.516 728.852 516.715 728.749 516.922C728.566 517.28 728.391 517.638 728.208 517.996C728.104 518.203 727.993 518.41 727.89 518.617C727.706 518.967 727.523 519.317 727.34 519.66C727.229 519.867 727.126 520.066 727.014 520.272C726.815 520.638 726.616 520.997 726.417 521.355C726.322 521.53 726.226 521.705 726.123 521.88C725.9 522.27 725.685 522.652 725.462 523.026C725.375 523.169 725.295 523.32 725.208 523.463C724.905 523.973 724.611 524.474 724.309 524.967C724.301 524.983 724.293 524.999 724.285 525.007C723.966 525.525 723.64 526.034 723.322 526.535C723.25 526.655 723.171 526.766 723.099 526.877C722.852 527.259 722.598 527.649 722.351 528.015C722.279 528.127 722.2 528.23 722.128 528.334C721.858 528.739 721.579 529.137 721.3 529.527C721.189 529.686 721.078 529.838 720.966 529.997C720.712 530.347 720.457 530.697 720.202 531.039C720.075 531.206 719.956 531.366 719.828 531.533C719.534 531.915 719.239 532.289 718.953 532.655C718.857 532.782 718.754 532.909 718.658 533.029C718.213 533.578 717.759 534.111 717.314 534.62C717.17 534.779 717.035 534.939 716.892 535.098C716.725 535.281 716.566 535.464 716.398 535.639C716.239 535.806 716.08 535.973 715.921 536.14C715.754 536.315 715.595 536.482 715.428 536.65C715.268 536.817 715.109 536.968 714.942 537.127C714.791 537.278 714.64 537.421 714.489 537.565C714.329 537.716 714.162 537.867 714.003 538.018C713.852 538.154 713.701 538.289 713.558 538.424C713.398 538.567 713.231 538.703 713.072 538.838C712.921 538.965 712.778 539.093 712.626 539.212C712.467 539.339 712.308 539.467 712.149 539.594C712.006 539.705 711.855 539.825 711.711 539.928C711.552 540.048 711.393 540.159 711.234 540.27C711.091 540.374 710.947 540.477 710.796 540.573C710.637 540.676 710.486 540.78 710.327 540.875C710.183 540.963 710.04 541.058 709.897 541.146C709.738 541.241 709.587 541.329 709.435 541.416C709.292 541.496 709.157 541.575 709.014 541.647C708.862 541.727 708.703 541.798 708.552 541.878C708.417 541.941 708.282 542.013 708.146 542.077C707.995 542.148 707.844 542.204 707.693 542.268C707.557 542.323 707.43 542.379 707.295 542.427C707.144 542.483 706.992 542.53 706.841 542.578C706.714 542.618 706.587 542.666 706.459 542.697C706.308 542.737 706.165 542.769 706.014 542.809C705.886 542.841 705.767 542.873 705.64 542.896C705.488 542.928 705.345 542.944 705.194 542.96C705.075 542.976 704.955 543 704.836 543.008C704.685 543.024 704.541 543.024 704.39 543.032C704.279 543.032 704.167 543.048 704.056 543.048C703.905 543.048 703.754 543.032 703.602 543.024C703.499 543.024 703.403 543.016 703.3 543C703.133 542.984 702.974 542.944 702.807 542.912C702.727 542.896 702.647 542.888 702.568 542.873C702.329 542.817 702.09 542.745 701.86 542.658L715.77 547.814C716.001 547.902 716.239 547.973 716.478 548.029C716.558 548.045 716.637 548.053 716.717 548.069C716.876 548.101 717.043 548.133 717.21 548.156C717.306 548.164 717.409 548.172 717.505 548.172C717.656 548.18 717.807 548.196 717.958 548.196C718.07 548.196 718.181 548.188 718.292 548.18C718.444 548.18 718.587 548.18 718.738 548.156C718.857 548.149 718.977 548.125 719.088 548.109C719.239 548.085 719.383 548.069 719.534 548.045C719.653 548.021 719.781 547.989 719.9 547.958C720.051 547.926 720.194 547.894 720.346 547.846C720.473 547.806 720.6 547.767 720.728 547.727C720.879 547.679 721.03 547.631 721.181 547.576C721.308 547.528 721.444 547.472 721.579 547.416C721.73 547.353 721.881 547.297 722.041 547.225C722.176 547.162 722.311 547.098 722.446 547.026C722.598 546.955 722.757 546.875 722.908 546.796C723.043 546.724 723.186 546.645 723.322 546.565C723.481 546.477 723.632 546.39 723.791 546.294C723.935 546.207 724.07 546.119 724.213 546.024C724.372 545.92 724.531 545.825 724.683 545.713C724.826 545.618 724.969 545.514 725.112 545.411C725.271 545.3 725.431 545.188 725.59 545.069C725.733 544.957 725.876 544.846 726.027 544.735C726.187 544.607 726.354 544.48 726.513 544.353C726.656 544.233 726.807 544.106 726.951 543.987C727.11 543.851 727.277 543.716 727.436 543.565C727.587 543.43 727.738 543.294 727.882 543.159C728.041 543.008 728.208 542.865 728.367 542.705C728.518 542.562 728.669 542.419 728.821 542.268C728.924 542.172 729.02 542.077 729.123 541.973C729.187 541.91 729.242 541.846 729.306 541.782C729.473 541.615 729.632 541.448 729.799 541.273C729.959 541.106 730.118 540.939 730.277 540.772C730.444 540.597 730.603 540.414 730.77 540.231C730.874 540.119 730.969 540.016 731.073 539.896C731.112 539.849 731.152 539.801 731.192 539.753C731.638 539.244 732.083 538.719 732.537 538.162C732.561 538.13 732.593 538.098 732.616 538.066C732.688 537.978 732.76 537.883 732.831 537.787C733.126 537.421 733.42 537.047 733.715 536.665C733.778 536.578 733.85 536.498 733.914 536.411C733.969 536.331 734.033 536.252 734.089 536.172C734.343 535.838 734.598 535.488 734.845 535.138C734.932 535.018 735.012 534.915 735.099 534.795C735.131 534.756 735.163 534.708 735.187 534.66C735.465 534.27 735.736 533.872 736.014 533.474C736.078 533.379 736.142 533.291 736.205 533.196C736.213 533.18 736.221 533.172 736.229 533.156C736.484 532.782 736.731 532.392 736.985 532.01C737.057 531.899 737.129 531.795 737.2 531.684C737.2 531.684 737.2 531.676 737.2 531.668C737.518 531.167 737.845 530.657 738.163 530.14C738.465 529.647 738.768 529.137 739.07 528.628C739.07 528.62 739.086 528.604 739.086 528.596C739.174 528.453 739.253 528.302 739.341 528.159C739.548 527.808 739.747 527.458 739.954 527.1C739.969 527.068 739.985 527.044 740.001 527.013C740.097 526.838 740.192 526.663 740.296 526.487C740.463 526.185 740.63 525.891 740.797 525.58C740.829 525.525 740.861 525.461 740.893 525.405C741.004 525.206 741.107 524.999 741.219 524.792C741.346 524.546 741.481 524.307 741.609 524.06C741.664 523.957 741.712 523.853 741.768 523.75C741.871 523.543 741.983 523.336 742.086 523.129C742.182 522.938 742.277 522.755 742.381 522.564C742.468 522.397 742.548 522.23 742.627 522.055C742.731 521.848 742.826 521.649 742.93 521.442C742.993 521.315 743.049 521.196 743.113 521.068C743.264 520.758 743.415 520.44 743.566 520.121C743.614 520.01 743.67 519.906 743.726 519.795C743.741 519.763 743.757 519.723 743.773 519.691C743.988 519.23 744.211 518.76 744.426 518.291C744.474 518.187 744.521 518.084 744.569 517.981C744.704 517.678 744.84 517.384 744.975 517.081C745.142 516.699 745.317 516.309 745.476 515.927C745.492 515.896 745.5 515.872 745.516 515.84C745.54 515.792 745.556 515.744 745.58 515.697C745.715 515.386 745.842 515.084 745.97 514.774C746.105 514.447 746.24 514.129 746.375 513.803C746.391 513.755 746.415 513.707 746.431 513.667C746.447 513.628 746.463 513.58 746.487 513.54C746.574 513.325 746.662 513.11 746.749 512.896C746.869 512.593 746.996 512.291 747.116 511.98C747.171 511.829 747.235 511.678 747.291 511.527C747.314 511.463 747.338 511.399 747.362 511.336C747.394 511.248 747.434 511.153 747.466 511.065C747.569 510.803 747.665 510.532 747.768 510.269C747.864 510.007 747.967 509.744 748.063 509.49C748.086 509.426 748.11 509.354 748.134 509.291C748.15 509.251 748.166 509.203 748.182 509.163C748.238 509.012 748.293 508.861 748.349 508.71C748.444 508.447 748.54 508.185 748.628 507.93C748.723 507.667 748.811 507.405 748.906 507.142C748.906 507.118 748.922 507.102 748.93 507.078C748.93 507.055 748.946 507.031 748.954 507.015C749.033 506.792 749.105 506.569 749.185 506.346C749.272 506.076 749.368 505.813 749.455 505.543C749.527 505.336 749.59 505.137 749.654 504.93C749.662 504.898 749.67 504.874 749.686 504.842C749.694 504.81 749.71 504.779 749.718 504.739C749.805 504.46 749.893 504.19 749.98 503.911C750.1 503.529 750.219 503.155 750.338 502.773C750.338 502.757 750.346 502.741 750.354 502.725C750.362 502.694 750.37 502.662 750.386 502.63C750.49 502.304 750.585 501.97 750.681 501.643C750.776 501.309 750.872 500.975 750.967 500.649C750.983 500.601 750.999 500.553 751.007 500.505C751.007 500.481 751.023 500.458 751.023 500.442C751.047 500.354 751.071 500.274 751.094 500.195C751.301 499.455 751.508 498.715 751.699 497.975C751.771 497.712 751.834 497.449 751.898 497.187C752.049 496.598 752.193 496.009 752.328 495.428C752.368 495.269 752.407 495.11 752.447 494.951C752.479 494.808 752.511 494.672 752.543 494.537C752.606 494.258 752.67 493.98 752.726 493.701C752.774 493.494 752.821 493.288 752.861 493.081C752.917 492.826 752.964 492.571 753.02 492.317C753.044 492.213 753.06 492.11 753.084 492.014C753.1 491.951 753.108 491.887 753.124 491.823C753.211 491.402 753.291 490.988 753.37 490.574C753.394 490.455 753.41 490.335 753.434 490.216C753.45 490.112 753.474 490.009 753.49 489.906C753.514 489.754 753.545 489.603 753.569 489.452C753.633 489.086 753.697 488.712 753.76 488.346C753.768 488.282 753.784 488.218 753.792 488.155C753.808 488.067 753.816 487.988 753.832 487.9C753.864 487.685 753.904 487.462 753.935 487.248C753.991 486.905 754.039 486.571 754.079 486.237C754.087 486.173 754.094 486.11 754.102 486.046C754.102 486.022 754.102 485.998 754.11 485.974C754.166 485.553 754.222 485.139 754.27 484.717C754.285 484.606 754.293 484.494 754.309 484.383C754.333 484.2 754.349 484.025 754.373 483.842C754.397 483.651 754.421 483.452 754.437 483.261C754.461 483.07 754.469 482.879 754.492 482.688C754.516 482.457 754.54 482.226 754.556 482.003C754.564 481.884 754.58 481.773 754.588 481.653C754.604 481.454 754.612 481.271 754.628 481.072C754.652 480.754 754.675 480.428 754.691 480.109C754.691 480.006 754.707 479.895 754.715 479.791C754.723 479.632 754.723 479.473 754.731 479.314C754.747 478.94 754.763 478.574 754.771 478.208C754.771 478.08 754.787 477.953 754.787 477.826L754.811 477.849Z" fill="#8ADD50"/>
<path d="M737.152 456.73L751.063 461.886C751.19 462.021 751.309 462.173 751.421 462.324C751.476 462.395 751.524 462.467 751.572 462.539C751.636 462.626 751.699 462.714 751.763 462.809C751.803 462.873 751.85 462.929 751.898 462.992C751.978 463.112 752.049 463.247 752.129 463.374C752.177 463.454 752.232 463.541 752.28 463.621C752.296 463.653 752.32 463.685 752.336 463.716C752.479 463.971 752.606 464.226 752.734 464.504C752.734 464.504 752.734 464.512 752.734 464.52C752.75 464.552 752.758 464.584 752.774 464.608C752.885 464.854 752.996 465.101 753.1 465.356C753.116 465.404 753.132 465.451 753.148 465.491C753.187 465.602 753.227 465.714 753.275 465.833C753.331 465.976 753.386 466.12 753.434 466.271C753.466 466.358 753.49 466.454 753.522 466.549C753.569 466.693 753.609 466.828 753.649 466.971C753.681 467.075 753.713 467.17 753.744 467.274C753.784 467.409 753.816 467.56 753.856 467.703C753.896 467.855 753.935 467.998 753.967 468.149C753.983 468.221 753.999 468.284 754.015 468.356C754.055 468.539 754.095 468.73 754.126 468.921C754.158 469.088 754.198 469.255 754.23 469.43C754.238 469.478 754.246 469.518 754.262 469.565C754.301 469.788 754.333 470.027 754.373 470.258C754.397 470.433 754.429 470.6 754.453 470.775C754.453 470.807 754.461 470.839 754.469 470.863C754.492 471.069 754.516 471.284 754.54 471.491C754.572 471.746 754.604 471.993 754.628 472.255C754.628 472.287 754.636 472.319 754.636 472.351C754.652 472.526 754.66 472.709 754.675 472.884C754.699 473.202 754.723 473.528 754.747 473.855C754.747 473.902 754.755 473.95 754.755 474.006C754.763 474.165 754.763 474.332 754.771 474.499C754.787 474.857 754.803 475.223 754.811 475.597C754.811 475.677 754.811 475.757 754.819 475.844C754.819 475.987 754.819 476.139 754.819 476.282C754.819 476.68 754.819 477.078 754.819 477.491C754.819 477.619 754.819 477.73 754.819 477.857C754.819 477.985 754.811 478.112 754.803 478.239C754.795 478.605 754.779 478.972 754.763 479.346C754.763 479.505 754.755 479.664 754.747 479.823C754.747 479.926 754.731 480.038 754.723 480.141C754.707 480.46 754.683 480.778 754.66 481.104C754.644 481.295 754.636 481.486 754.62 481.685C754.612 481.797 754.596 481.916 754.588 482.035C754.572 482.266 754.548 482.489 754.524 482.72C754.508 482.911 754.492 483.102 754.469 483.293C754.445 483.484 754.421 483.683 754.405 483.874C754.381 484.057 754.365 484.232 754.341 484.415C754.325 484.526 754.317 484.637 754.301 484.749C754.254 485.163 754.198 485.584 754.142 486.006C754.142 486.03 754.142 486.054 754.134 486.078C754.126 486.142 754.118 486.205 754.11 486.269C754.063 486.603 754.015 486.945 753.967 487.279C753.935 487.494 753.896 487.709 753.864 487.932C753.848 488.02 753.84 488.099 753.824 488.187C753.816 488.25 753.808 488.314 753.792 488.378C753.728 488.744 753.673 489.11 753.601 489.484C753.577 489.635 753.545 489.786 753.522 489.937C753.506 490.041 753.482 490.144 753.466 490.248C753.442 490.367 753.426 490.486 753.402 490.606C753.323 491.02 753.243 491.433 753.155 491.855C753.14 491.919 753.132 491.983 753.116 492.046C753.092 492.15 753.076 492.253 753.052 492.349C752.996 492.603 752.949 492.858 752.893 493.113C752.845 493.319 752.797 493.526 752.758 493.733C752.694 494.012 752.638 494.29 752.575 494.569C752.543 494.712 752.511 494.847 752.479 494.983C752.439 495.142 752.4 495.301 752.36 495.46C752.224 496.041 752.073 496.63 751.93 497.219C751.866 497.481 751.795 497.744 751.731 498.007C751.54 498.739 751.341 499.479 751.126 500.227C751.102 500.314 751.079 500.394 751.055 500.473C751.055 500.497 751.039 500.521 751.039 500.537C751.023 500.585 751.007 500.633 750.999 500.68C750.903 501.015 750.808 501.341 750.712 501.675C750.617 502.001 750.514 502.336 750.418 502.662C750.41 502.694 750.402 502.726 750.386 502.757C750.386 502.773 750.378 502.789 750.37 502.805C750.251 503.187 750.139 503.561 750.012 503.943C749.925 504.222 749.837 504.492 749.75 504.771C749.742 504.803 749.726 504.834 749.718 504.874C749.71 504.906 749.702 504.93 749.686 504.962C749.622 505.169 749.551 505.368 749.487 505.574C749.399 505.845 749.312 506.108 749.216 506.378C749.137 506.601 749.065 506.824 748.986 507.047C748.986 507.07 748.97 507.094 748.962 507.11C748.962 507.134 748.946 507.15 748.938 507.174C748.85 507.437 748.755 507.699 748.659 507.962C748.564 508.224 748.476 508.487 748.381 508.742C748.325 508.893 748.269 509.044 748.214 509.195C748.198 509.235 748.182 509.283 748.166 509.323C748.142 509.386 748.118 509.458 748.094 509.521C747.999 509.784 747.903 510.047 747.8 510.301C747.696 510.564 747.601 510.835 747.498 511.097C747.466 511.185 747.426 511.28 747.394 511.368C747.37 511.431 747.346 511.495 747.322 511.559C747.267 511.71 747.203 511.861 747.147 512.012C747.028 512.315 746.909 512.617 746.781 512.927C746.694 513.142 746.606 513.357 746.519 513.572C746.503 513.612 746.487 513.66 746.463 513.699C746.447 513.747 746.423 513.795 746.407 513.835C746.272 514.161 746.137 514.479 746.001 514.805C745.874 515.116 745.739 515.426 745.612 515.729C745.588 515.776 745.572 515.824 745.548 515.872C745.532 515.904 745.524 515.927 745.508 515.959C745.341 516.341 745.174 516.731 745.007 517.113C744.871 517.416 744.736 517.71 744.601 518.012C744.553 518.116 744.505 518.219 744.458 518.323C744.243 518.792 744.028 519.262 743.805 519.723C743.789 519.755 743.773 519.795 743.757 519.827C743.71 519.938 743.654 520.042 743.598 520.153C743.447 520.471 743.296 520.79 743.145 521.1C743.081 521.227 743.025 521.347 742.962 521.474C742.858 521.681 742.763 521.88 742.659 522.087C742.572 522.254 742.492 522.429 742.412 522.596C742.317 522.787 742.222 522.97 742.118 523.161C742.015 523.368 741.903 523.575 741.8 523.782C741.744 523.885 741.696 523.989 741.641 524.092C741.513 524.339 741.378 524.578 741.251 524.824C741.139 525.031 741.036 525.238 740.924 525.437C740.893 525.493 740.861 525.556 740.829 525.612C740.662 525.915 740.495 526.217 740.328 526.519C740.232 526.694 740.137 526.869 740.033 527.045C740.017 527.076 740.001 527.1 739.985 527.132C739.778 527.49 739.58 527.84 739.373 528.19C739.285 528.334 739.206 528.485 739.118 528.628C739.118 528.636 739.102 528.652 739.102 528.66C738.8 529.169 738.497 529.679 738.195 530.172C737.877 530.689 737.558 531.198 737.232 531.7C737.232 531.7 737.232 531.708 737.232 531.716C737.16 531.827 737.089 531.931 737.017 532.042C736.762 532.432 736.516 532.814 736.261 533.188C736.253 533.204 736.245 533.212 736.237 533.228C736.174 533.323 736.11 533.411 736.046 533.506C735.776 533.912 735.497 534.31 735.219 534.692C735.187 534.732 735.155 534.779 735.131 534.827C735.044 534.947 734.964 535.058 734.876 535.169C734.622 535.52 734.375 535.862 734.12 536.204C734.065 536.284 734.009 536.363 733.945 536.443C733.882 536.53 733.81 536.61 733.746 536.697C733.452 537.079 733.158 537.453 732.863 537.819C732.792 537.907 732.72 538.002 732.648 538.098C732.624 538.13 732.593 538.162 732.569 538.193C732.123 538.742 731.669 539.276 731.224 539.785C731.184 539.833 731.144 539.88 731.104 539.928C731.001 540.04 730.906 540.151 730.802 540.262C730.635 540.445 730.476 540.628 730.309 540.804C730.15 540.971 729.99 541.138 729.831 541.305C729.664 541.48 729.505 541.647 729.338 541.814C729.274 541.878 729.218 541.941 729.155 542.005C729.051 542.109 728.956 542.196 728.852 542.3C728.701 542.451 728.55 542.594 728.399 542.737C728.24 542.888 728.073 543.04 727.913 543.191C727.762 543.326 727.611 543.461 727.468 543.597C727.309 543.74 727.142 543.875 726.982 544.018C726.839 544.146 726.688 544.265 726.545 544.385C726.386 544.52 726.218 544.639 726.059 544.766C725.916 544.878 725.765 544.997 725.622 545.101C725.462 545.22 725.303 545.332 725.144 545.443C725.001 545.546 724.858 545.65 724.714 545.745C724.555 545.849 724.396 545.952 724.245 546.056C724.102 546.143 723.958 546.239 723.823 546.326C723.664 546.422 723.513 546.509 723.354 546.597C723.218 546.676 723.075 546.756 722.94 546.828C722.781 546.907 722.629 546.987 722.478 547.058C722.343 547.122 722.208 547.194 722.072 547.257C721.921 547.329 721.77 547.385 721.611 547.448C721.476 547.504 721.348 547.56 721.213 547.607C721.062 547.663 720.911 547.711 720.759 547.759C720.632 547.798 720.505 547.846 720.377 547.878C720.226 547.918 720.075 547.95 719.932 547.989C719.812 548.021 719.685 548.053 719.566 548.077C719.415 548.109 719.271 548.125 719.12 548.141C719.001 548.157 718.881 548.18 718.77 548.188C718.619 548.204 718.475 548.204 718.324 548.212C718.221 548.212 718.109 548.228 718.006 548.228C718.006 548.228 717.998 548.228 717.99 548.228C717.839 548.228 717.688 548.212 717.536 548.204C717.441 548.204 717.338 548.196 717.242 548.188C717.075 548.172 716.916 548.133 716.749 548.101C716.669 548.085 716.589 548.077 716.51 548.061C716.271 548.005 716.032 547.934 715.802 547.846L701.891 542.69C702.122 542.777 702.361 542.849 702.6 542.904C702.679 542.92 702.759 542.928 702.838 542.944C702.998 542.976 703.165 543.008 703.332 543.032C703.427 543.04 703.531 543.048 703.634 543.056C703.785 543.064 703.937 543.079 704.088 543.079C704.088 543.079 704.096 543.079 704.104 543.079C704.207 543.079 704.319 543.071 704.422 543.064C704.565 543.064 704.716 543.064 704.868 543.04C704.987 543.032 705.106 543.008 705.226 542.992C705.369 542.968 705.52 542.952 705.671 542.928C705.791 542.904 705.918 542.873 706.045 542.841C706.197 542.809 706.34 542.777 706.491 542.729C706.618 542.69 706.746 542.65 706.873 542.61C707.024 542.562 707.175 542.514 707.327 542.459C707.462 542.411 707.589 542.355 707.725 542.3C707.876 542.236 708.027 542.18 708.178 542.109C708.313 542.045 708.449 541.981 708.584 541.91C708.735 541.838 708.886 541.766 709.046 541.679C709.181 541.607 709.324 541.528 709.467 541.448C709.618 541.361 709.778 541.273 709.929 541.178C710.072 541.09 710.215 541.002 710.359 540.907C710.518 540.804 710.669 540.708 710.828 540.605C710.971 540.509 711.115 540.406 711.266 540.302C711.425 540.191 711.584 540.079 711.743 539.96C711.886 539.849 712.038 539.737 712.181 539.626C712.34 539.498 712.499 539.379 712.658 539.244C712.81 539.124 712.953 538.997 713.104 538.87C713.263 538.734 713.43 538.599 713.589 538.456C713.741 538.321 713.892 538.185 714.035 538.05C714.194 537.899 714.361 537.756 714.52 537.597C714.672 537.453 714.823 537.302 714.974 537.159C715.133 537 715.292 536.841 715.459 536.681C715.627 536.514 715.786 536.347 715.953 536.172C716.112 536.005 716.271 535.838 716.43 535.671C716.597 535.496 716.757 535.313 716.924 535.13C717.067 534.97 717.202 534.819 717.345 534.652C717.791 534.143 718.237 533.618 718.69 533.061C718.786 532.941 718.889 532.814 718.985 532.687C719.279 532.321 719.574 531.947 719.86 531.565C719.987 531.405 720.107 531.238 720.234 531.071C720.489 530.729 720.743 530.387 720.998 530.029C721.11 529.87 721.221 529.718 721.332 529.559C721.611 529.169 721.881 528.771 722.16 528.366C722.232 528.254 722.311 528.151 722.383 528.047C722.637 527.673 722.884 527.291 723.131 526.909C723.202 526.79 723.282 526.686 723.354 526.567C723.672 526.066 723.998 525.556 724.316 525.039C724.324 525.023 724.332 525.007 724.34 524.999C724.643 524.506 724.945 524.005 725.24 523.495C725.327 523.352 725.407 523.201 725.494 523.058C725.717 522.676 725.94 522.302 726.155 521.912C726.25 521.737 726.346 521.562 726.449 521.387C726.648 521.028 726.847 520.67 727.046 520.304C727.157 520.105 727.261 519.898 727.372 519.692C727.555 519.349 727.738 518.999 727.921 518.649C728.025 518.442 728.136 518.235 728.24 518.028C728.423 517.678 728.598 517.32 728.781 516.954C728.884 516.747 728.98 516.548 729.083 516.341C729.298 515.912 729.505 515.474 729.72 515.028C729.776 514.917 729.823 514.805 729.879 514.694C730.165 514.097 730.444 513.492 730.723 512.88C731.041 512.171 731.359 511.455 731.669 510.739C731.693 510.691 731.709 510.644 731.733 510.596C732.028 509.919 732.306 509.243 732.585 508.559C732.601 508.511 732.616 508.471 732.64 508.423C732.911 507.755 733.181 507.078 733.444 506.41C733.468 506.354 733.492 506.291 733.516 506.235C733.778 505.551 734.041 504.858 734.296 504.174C734.311 504.134 734.327 504.094 734.335 504.054C734.59 503.354 734.845 502.654 735.083 501.954C735.083 501.93 735.099 501.914 735.107 501.89C735.346 501.19 735.585 500.489 735.808 499.797C735.815 499.773 735.823 499.749 735.831 499.717C736.062 499.009 736.285 498.301 736.5 497.601C736.508 497.569 736.516 497.537 736.532 497.505C736.739 496.837 736.93 496.168 737.121 495.508C737.136 495.468 737.144 495.42 737.16 495.38C737.192 495.269 737.224 495.158 737.256 495.046C737.463 494.306 737.662 493.574 737.853 492.842C737.924 492.579 737.988 492.317 738.052 492.054C738.203 491.465 738.346 490.876 738.481 490.295C738.553 489.993 738.625 489.699 738.688 489.404C738.752 489.126 738.816 488.847 738.871 488.577C738.975 488.115 739.078 487.653 739.166 487.192C739.19 487.088 739.206 486.985 739.229 486.882C739.349 486.277 739.468 485.68 739.58 485.091C739.595 484.988 739.619 484.892 739.635 484.789C739.739 484.2 739.842 483.611 739.938 483.038C739.954 482.95 739.961 482.871 739.977 482.783C740.065 482.226 740.152 481.669 740.224 481.12C740.232 481.056 740.24 480.993 740.248 480.937C740.328 480.38 740.391 479.831 740.455 479.282C740.479 479.099 740.495 478.916 740.519 478.733C740.558 478.343 740.598 477.961 740.638 477.579C740.662 477.348 740.686 477.125 740.702 476.895C740.725 476.584 740.749 476.274 740.773 475.964C740.797 475.645 740.821 475.319 740.837 475.009C740.853 474.738 740.869 474.475 740.877 474.205C740.893 473.831 740.908 473.465 740.916 473.099C740.916 472.844 740.932 472.597 740.932 472.351C740.932 471.945 740.94 471.547 740.932 471.149C740.932 470.918 740.932 470.687 740.932 470.465C740.932 470.091 740.908 469.733 740.893 469.367C740.885 469.152 740.877 468.937 740.869 468.73C740.853 468.404 740.821 468.077 740.797 467.759C740.781 467.552 740.765 467.337 740.749 467.13C740.725 466.868 740.694 466.621 740.662 466.366C740.63 466.128 740.606 465.889 740.574 465.65C740.55 465.475 740.519 465.3 740.495 465.125C740.455 464.846 740.407 464.568 740.359 464.297C740.328 464.122 740.288 463.955 740.256 463.788C740.2 463.525 740.152 463.271 740.089 463.016C740.057 462.865 740.017 462.722 739.977 462.571C739.914 462.324 739.85 462.077 739.778 461.838C739.739 461.695 739.691 461.552 739.651 461.417C739.572 461.17 739.492 460.931 739.404 460.7C739.365 460.589 739.325 460.47 739.277 460.358C739.158 460.056 739.03 459.754 738.903 459.467C738.887 459.435 738.879 459.403 738.863 459.379C738.72 459.069 738.561 458.775 738.402 458.488C738.354 458.401 738.298 458.321 738.251 458.242C738.131 458.043 738.012 457.86 737.885 457.677C737.821 457.581 737.757 457.493 737.694 457.406C737.526 457.183 737.359 456.96 737.176 456.753M737.176 455.958C736.922 455.958 736.675 456.085 736.516 456.308C736.309 456.61 736.333 457.016 736.579 457.287C736.747 457.478 736.914 457.692 737.049 457.883C737.113 457.963 737.168 458.051 737.224 458.13C737.343 458.297 737.455 458.472 737.558 458.655L737.614 458.751C737.638 458.799 737.67 458.838 737.694 458.886C737.861 459.181 738.004 459.451 738.131 459.722L738.171 459.809C738.29 460.072 738.41 460.35 738.529 460.653C738.553 460.724 738.585 460.796 738.609 460.868L738.648 460.979C738.728 461.202 738.808 461.433 738.879 461.663C738.919 461.799 738.967 461.934 739.007 462.069C739.078 462.3 739.142 462.539 739.198 462.777L739.213 462.857C739.245 462.976 739.277 463.088 739.301 463.207C739.357 463.454 739.412 463.701 739.46 463.955L739.492 464.114C739.516 464.226 739.54 464.337 739.556 464.449C739.603 464.695 739.643 464.95 739.683 465.213V465.26L739.723 465.451C739.739 465.555 739.755 465.658 739.771 465.77C739.794 465.929 739.81 466.088 739.826 466.255L739.85 466.47L739.874 466.669C739.898 466.852 739.914 467.035 739.938 467.218C739.954 467.345 739.961 467.481 739.969 467.608L739.985 467.839V467.91C740.017 468.205 740.041 468.491 740.057 468.794C740.057 468.929 740.073 469.064 740.073 469.207V469.422C740.097 469.78 740.113 470.13 740.121 470.497C740.121 470.672 740.121 470.855 740.121 471.038V471.173C740.121 471.563 740.121 471.961 740.121 472.359C740.121 472.605 740.113 472.844 740.105 473.099C740.097 473.457 740.081 473.823 740.065 474.189V474.261C740.049 474.499 740.041 474.738 740.025 474.977C740.009 475.287 739.985 475.605 739.961 475.924V475.995C739.938 476.282 739.914 476.56 739.89 476.847C739.874 477.07 739.85 477.292 739.826 477.523C739.786 477.905 739.755 478.279 739.707 478.661V478.757L739.643 479.202C739.58 479.743 739.508 480.293 739.436 480.842L739.42 480.929L739.404 481.025C739.325 481.574 739.245 482.123 739.158 482.672L739.142 482.775L739.118 482.919C739.022 483.492 738.927 484.072 738.816 484.661V484.709L738.76 484.956C738.648 485.545 738.537 486.142 738.418 486.738L738.378 486.913L738.354 487.049C738.259 487.502 738.163 487.964 738.06 488.425C737.996 488.696 737.94 488.974 737.877 489.245C737.821 489.484 737.765 489.723 737.709 489.953L737.67 490.128C737.534 490.709 737.391 491.29 737.24 491.879L737.184 492.086C737.136 492.277 737.089 492.468 737.033 492.667C736.842 493.391 736.643 494.123 736.436 494.855L736.388 495.022L736.341 495.182L736.325 495.237L736.301 495.309C736.11 495.969 735.919 496.63 735.712 497.29L735.696 497.338L735.68 497.378C735.465 498.078 735.243 498.778 735.012 499.487L734.988 499.558C734.765 500.251 734.526 500.943 734.288 501.643L735.02 501.97L734.264 501.707C734.025 502.399 733.778 503.1 733.524 503.792L733.5 503.848L733.476 503.903C733.229 504.588 732.967 505.272 732.704 505.948L732.656 506.068L732.632 506.124C732.37 506.792 732.107 507.46 731.837 508.121L731.813 508.177L731.781 508.248C731.502 508.925 731.224 509.601 730.929 510.27L730.898 510.349L730.866 510.421C730.563 511.129 730.245 511.837 729.927 512.545C729.648 513.158 729.37 513.755 729.091 514.352L729.004 514.535L728.932 514.678C728.725 515.116 728.51 515.553 728.303 515.983L728.001 516.588C727.826 516.946 727.643 517.296 727.46 517.654C727.348 517.869 727.245 518.068 727.142 518.267C726.958 518.617 726.775 518.959 726.592 519.302L726.489 519.501L726.266 519.914C726.067 520.28 725.868 520.631 725.677 520.989L725.558 521.203L725.391 521.506C725.176 521.888 724.953 522.27 724.738 522.644L724.627 522.835L724.484 523.074C724.189 523.575 723.887 524.076 723.592 524.562L724.245 525.023L723.568 524.609C723.25 525.127 722.932 525.628 722.614 526.129L722.494 526.312L722.391 526.472C722.144 526.854 721.897 527.236 721.643 527.602L721.523 527.777L721.42 527.928C721.149 528.326 720.879 528.724 720.6 529.106C720.529 529.201 720.457 529.305 720.393 529.4L720.274 529.567C720.019 529.917 719.773 530.259 719.518 530.594C719.399 530.753 719.271 530.912 719.152 531.079C718.857 531.461 718.571 531.835 718.284 532.193L718.173 532.336L717.99 532.567C717.56 533.092 717.123 533.618 716.669 534.135C716.534 534.294 716.391 534.445 716.255 534.604C716.096 534.787 715.929 534.963 715.77 535.138C715.611 535.305 715.459 535.472 715.3 535.631C715.141 535.798 714.982 535.965 714.815 536.132C714.656 536.291 714.497 536.451 714.337 536.602C714.186 536.745 714.043 536.896 713.892 537.032C713.733 537.183 713.573 537.326 713.414 537.469C713.263 537.604 713.12 537.74 712.977 537.867C712.817 538.01 712.658 538.138 712.507 538.273C712.34 538.408 712.213 538.528 712.077 538.631C711.926 538.758 711.767 538.878 711.616 538.997L711.552 539.045C711.433 539.14 711.306 539.236 711.186 539.323C711.043 539.427 710.9 539.53 710.756 539.634L710.661 539.705C710.542 539.793 710.422 539.872 710.311 539.952C710.176 540.04 710.048 540.127 709.921 540.207L709.865 540.246L709.778 540.302C709.666 540.374 709.563 540.437 709.451 540.509C709.324 540.589 709.205 540.652 709.077 540.724L709.006 540.764L708.91 540.819C708.807 540.875 708.703 540.939 708.6 540.987C708.481 541.05 708.361 541.106 708.242 541.162L708.162 541.201L708.059 541.249C707.963 541.297 707.868 541.345 707.772 541.384C707.661 541.432 707.549 541.48 707.438 541.528L707.351 541.567L707.239 541.615C707.152 541.655 707.064 541.687 706.976 541.719C706.865 541.758 706.762 541.79 706.65 541.83L706.555 541.862L706.435 541.902C706.356 541.926 706.276 541.957 706.197 541.973C706.093 542.005 705.99 542.029 705.886 542.053L705.783 542.077L705.655 542.109C705.584 542.125 705.512 542.14 705.441 542.156C705.337 542.172 705.242 542.188 705.146 542.204L705.043 542.22L704.915 542.236C704.852 542.244 704.788 542.26 704.724 542.26C704.629 542.268 704.525 542.268 704.43 542.276H704.327L704.191 542.284C704.136 542.284 704.088 542.284 704.032 542.284C703.921 542.284 703.825 542.276 703.722 542.268H703.626L703.491 542.252C703.443 542.252 703.403 542.252 703.356 542.244C703.228 542.228 703.109 542.204 702.982 542.18L702.918 542.164C702.878 542.156 702.83 542.148 702.791 542.14C702.767 542.14 702.735 542.14 702.711 542.125C702.504 542.077 702.297 542.013 702.098 541.941L701.82 542.69L701.541 543.438L715.452 548.594C715.706 548.69 715.977 548.769 716.247 548.833C716.311 548.849 716.383 548.857 716.446 548.873H716.518L716.574 548.897C716.741 548.928 716.9 548.96 717.067 548.984C717.147 548.992 717.226 549 717.306 549H717.401L717.489 549.016C717.632 549.024 717.767 549.04 717.91 549.04C718.014 549.04 718.094 549.04 718.173 549.032H718.277L718.372 549.024C718.507 549.024 718.635 549.016 718.77 549C718.865 548.992 718.961 548.976 719.048 548.96L719.152 548.944L719.247 548.928C719.375 548.913 719.51 548.897 719.637 548.865C719.733 548.849 719.828 548.825 719.932 548.801L720.043 548.777L720.139 548.753C720.266 548.722 720.401 548.69 720.529 548.658C720.632 548.626 720.728 548.594 720.831 548.562L720.942 548.531L721.03 548.499C721.157 548.459 721.293 548.411 721.428 548.363C721.531 548.324 721.635 548.284 721.738 548.236L721.842 548.196L721.929 548.164C722.064 548.109 722.192 548.053 722.327 547.997C722.438 547.95 722.542 547.894 722.653 547.838L722.757 547.79L722.836 547.751C722.972 547.687 723.107 547.615 723.242 547.544C723.354 547.488 723.465 547.416 723.584 547.353L723.68 547.297L723.751 547.257C723.895 547.178 724.03 547.098 724.173 547.011C724.293 546.939 724.412 546.867 724.523 546.788L724.611 546.732L724.667 546.7C724.81 546.605 724.961 546.517 725.104 546.414C725.232 546.326 725.351 546.239 725.478 546.151L725.55 546.095C725.733 545.968 725.884 545.857 726.043 545.737C726.179 545.642 726.306 545.538 726.441 545.435L726.489 545.395C726.664 545.26 726.823 545.133 726.99 545.005C727.134 544.894 727.269 544.774 727.412 544.655L727.444 544.631C727.611 544.488 727.778 544.353 727.945 544.201C728.096 544.066 728.248 543.931 728.399 543.788C728.566 543.636 728.733 543.477 728.9 543.326C729.051 543.183 729.211 543.032 729.362 542.881L729.481 542.769C729.545 542.705 729.608 542.65 729.672 542.586L729.783 542.475L729.855 542.395C730.022 542.228 730.189 542.053 730.356 541.878C730.516 541.711 730.675 541.544 730.842 541.369C731.009 541.185 731.176 541.002 731.343 540.819L731.463 540.684C731.526 540.62 731.582 540.549 731.646 540.477L731.725 540.39L731.765 540.342C732.227 539.817 732.688 539.268 733.126 538.727L733.15 538.695L733.205 538.631C733.245 538.575 733.293 538.528 733.333 538.472L733.428 538.353C733.723 537.979 734.025 537.604 734.319 537.215L734.407 537.103C734.447 537.055 734.487 537.008 734.526 536.952L734.63 536.817L734.701 536.713C734.956 536.371 735.211 536.021 735.465 535.671L735.577 535.52C735.625 535.456 735.672 535.384 735.72 535.321L735.776 535.241L735.815 535.185C736.094 534.795 736.373 534.39 736.651 533.984L736.731 533.864L736.842 533.705L736.866 533.665C737.121 533.283 737.375 532.901 737.63 532.504L737.725 532.36L737.845 532.169C738.179 531.652 738.497 531.135 738.824 530.61C739.134 530.108 739.436 529.599 739.739 529.082L739.906 528.787L740.009 528.604L740.089 528.477C740.272 528.167 740.447 527.856 740.63 527.538L740.662 527.482L740.861 527.124L740.972 526.917L741.099 526.686C741.227 526.464 741.354 526.233 741.473 526.002L741.529 525.907L741.569 525.827L741.792 525.413L741.895 525.214L742.031 524.96C742.118 524.8 742.206 524.641 742.285 524.474L742.373 524.299L742.444 524.164C742.548 523.965 742.651 523.766 742.755 523.559L742.882 523.32C742.946 523.201 743.001 523.089 743.065 522.97L743.216 522.668L743.32 522.461L743.622 521.848L743.702 521.689L743.805 521.474C743.94 521.196 744.076 520.917 744.203 520.638L744.259 520.527L744.322 520.384L744.41 520.193L744.434 520.145L744.466 520.089C744.688 519.62 744.903 519.15 745.118 518.681L745.261 518.371C745.397 518.068 745.532 517.766 745.667 517.463C745.842 517.073 746.009 516.691 746.177 516.302L746.192 516.262L746.208 516.222L746.24 516.134L746.264 516.071C746.399 515.76 746.527 515.45 746.662 515.14C746.797 514.813 746.933 514.487 747.068 514.161L747.1 514.089L747.123 514.026L747.155 513.954L747.179 513.898L747.203 513.835L747.442 513.254C747.561 512.951 747.688 512.641 747.808 512.339L747.927 512.036L747.983 511.885L748.007 511.821L748.055 511.694L748.102 511.575L748.166 511.423C748.269 511.161 748.373 510.89 748.468 510.628C748.564 510.365 748.667 510.102 748.763 509.84L748.803 509.728L748.834 509.641L748.858 509.577L748.882 509.514L748.938 509.37L749.049 509.052C749.145 508.789 749.24 508.527 749.328 508.264C749.423 508.002 749.511 507.731 749.606 507.468L749.63 507.405L748.898 507.078L749.654 507.341C749.734 507.118 749.813 506.887 749.885 506.665C749.972 506.394 750.068 506.124 750.155 505.861L750.354 505.24L750.386 505.153L750.402 505.113L750.426 505.049C750.514 504.771 750.601 504.492 750.689 504.222C750.808 503.84 750.927 503.458 751.047 503.076L750.299 502.789L751.063 503.02L751.079 502.964L751.094 502.924C751.198 502.59 751.293 502.256 751.397 501.93C751.492 501.596 751.596 501.261 751.691 500.927L751.707 500.855L751.731 500.776L751.755 500.704L751.795 500.561L751.827 500.45C752.041 499.702 752.24 498.961 752.431 498.221C752.487 498.022 752.535 497.824 752.583 497.625L752.63 497.434C752.781 496.837 752.925 496.248 753.068 495.659L753.124 495.444C753.148 495.357 753.171 495.269 753.187 495.174L753.243 494.935L753.283 494.752C753.346 494.473 753.41 494.195 753.474 493.908L753.53 493.654C753.553 493.534 753.585 493.407 753.609 493.288C753.649 493.089 753.697 492.89 753.736 492.691L753.776 492.516L753.8 492.396L753.84 492.213L753.856 492.126L753.88 492.022C753.967 491.601 754.047 491.179 754.126 490.765L754.166 490.55L754.19 490.407L754.246 490.089L754.278 489.914L754.325 489.627C754.389 489.253 754.453 488.887 754.516 488.513L754.532 488.402L754.548 488.322L754.572 488.179L754.588 488.067L754.612 487.892L754.691 487.407C754.747 487.065 754.795 486.722 754.843 486.388L754.858 486.301L754.874 486.197V486.126C754.946 485.696 755.002 485.274 755.049 484.86L755.073 484.669L755.089 484.526L755.145 484.025V483.977L755.177 483.762C755.193 483.635 755.209 483.515 755.217 483.396C755.232 483.277 755.24 483.157 755.248 483.046L755.272 482.823C755.296 482.592 755.32 482.362 755.336 482.131L755.352 481.98L755.368 481.781C755.376 481.661 755.384 481.542 755.392 481.431L755.408 481.2C755.431 480.873 755.455 480.547 755.471 480.229V480.086L755.495 479.903C755.495 479.807 755.503 479.712 755.503 479.616V479.409C755.527 479.035 755.543 478.661 755.551 478.287V478.128C755.559 478.056 755.567 477.977 755.567 477.905C755.567 477.834 755.567 477.762 755.567 477.682V477.531C755.567 477.117 755.575 476.712 755.567 476.306V476.115C755.567 476.027 755.567 475.94 755.567 475.852C755.567 475.804 755.567 475.749 755.567 475.701V475.605C755.559 475.231 755.543 474.857 755.527 474.491V474.284C755.519 474.189 755.519 474.085 755.511 473.99V473.894L755.503 473.839C755.487 473.528 755.463 473.234 755.439 472.932V472.844L755.416 472.629C755.416 472.518 755.4 472.406 755.392 472.295V472.223C755.36 472.001 755.336 471.81 755.312 471.619L755.288 471.428L755.264 471.197C755.248 471.062 755.232 470.918 755.217 470.783V470.711C755.185 470.568 755.169 470.449 755.145 470.337L755.113 470.162L755.081 469.947C755.057 469.78 755.034 469.613 755.002 469.454L754.986 469.359V469.319C754.954 469.191 754.93 469.064 754.898 468.945L754.866 468.794L754.827 468.603C754.803 468.475 754.779 468.34 754.747 468.213C754.739 468.165 754.723 468.125 754.715 468.077L754.699 467.998C754.667 467.862 754.636 467.735 754.604 467.608L754.588 467.536L754.548 467.377C754.524 467.282 754.5 467.186 754.476 467.091C754.461 467.019 754.437 466.955 754.413 466.892L754.381 466.78C754.333 466.629 754.293 466.486 754.246 466.343L754.214 466.239C754.198 466.175 754.174 466.112 754.158 466.056C754.118 465.945 754.087 465.841 754.047 465.738L753.991 465.595L753.951 465.491C753.919 465.404 753.888 465.324 753.856 465.244L753.84 465.205C753.84 465.205 753.816 465.133 753.8 465.101C753.689 464.831 753.577 464.568 753.458 464.313C753.442 464.274 753.426 464.242 753.418 464.218C753.275 463.915 753.132 463.637 752.988 463.374C752.972 463.342 752.957 463.319 752.941 463.287C752.893 463.207 752.861 463.151 752.821 463.088L752.774 463.008L752.702 462.897C752.646 462.793 752.583 462.698 752.519 462.602C752.487 462.555 752.455 462.507 752.423 462.459L752.384 462.403C752.312 462.308 752.248 462.205 752.177 462.109L752.129 462.037C752.089 461.982 752.049 461.926 752.01 461.878C751.882 461.711 751.755 461.56 751.62 461.409C751.532 461.313 751.421 461.234 751.301 461.194L737.391 456.037C737.304 456.005 737.208 455.989 737.113 455.989L737.176 455.958Z" fill="black"/>
<path d="M734.059 504.624C743.051 480.368 743.211 458.062 734.417 454.802C725.623 451.542 711.205 468.563 702.213 492.818C693.221 517.074 693.061 539.38 701.855 542.64C710.649 545.9 725.067 528.88 734.059 504.624Z" fill="#C9FF00"/>
<path d="M704.104 543.446C702.051 543.446 700.284 542.618 698.836 540.987C691.825 533.084 694.698 507.707 705.242 484.423C713.048 467.178 723.131 455.273 730.929 454.096C733.524 453.706 735.712 454.501 737.455 456.459C744.466 464.361 741.585 489.73 731.049 513.023C723.242 530.267 713.16 542.164 705.361 543.35C704.931 543.414 704.518 543.446 704.112 543.446H704.104ZM732.163 454.796C731.805 454.796 731.431 454.828 731.049 454.883C723.513 456.021 713.669 467.751 705.966 484.749C695.541 507.779 692.605 532.766 699.425 540.453C700.976 542.196 702.926 542.912 705.234 542.562C712.77 541.424 722.621 529.694 730.317 512.697C740.741 489.667 743.67 464.679 736.858 456.992C735.561 455.536 733.985 454.796 732.163 454.796Z" fill="black"/>
<path d="M722.422 482.282L717.353 493.487L715.682 491.601L720.751 480.396L722.422 482.282Z" fill="black"/>
<path d="M724.348 507.715L719.2 519.095L705.592 503.744L710.74 492.365L712.412 494.25L709.666 500.314L719.932 511.885L722.677 505.829L724.348 507.715Z" fill="black"/>
<path d="M728.279 488.879L723.21 500.084L721.539 498.198L726.608 487.001L728.279 488.879Z" fill="black"/>
</g>
<g clip-path="url(#clip4_1101_3)">
<path d="M678.812 64.6062C659.191 25.0421 611.99 2.14062 545.899 0.139826C494.718 -1.40917 436.932 9.7135 379.167 31.8728L381.049 27.4947L373.885 30.5712L366.721 27.4947L369.797 34.6588L369.324 35.7561C355.996 41.156 342.69 47.1369 329.48 53.6771C255.817 90.2077 194.158 139.872 155.853 193.55C117.44 247.367 107.091 298.796 126.712 338.37C146.333 377.934 193.534 400.825 259.625 402.837C262.766 402.933 265.939 402.977 269.134 402.977C332.858 402.977 405.919 384.077 476.055 349.289C549.718 312.758 611.377 263.093 649.682 209.416C688.095 155.599 698.443 104.17 678.823 64.5954L678.812 64.6062ZM648.359 208.48C610.204 261.942 548.761 311.435 475.334 347.847C401.907 384.259 325.318 403.213 259.668 401.223C194.201 399.244 147.495 376.665 128.154 337.66C108.813 298.656 119.107 247.808 157.154 194.496C195.309 141.034 256.753 91.5415 330.18 55.1293C342.851 48.8473 355.62 43.0923 368.399 37.8644L366.699 41.823L373.864 38.7465L381.028 41.823L377.951 34.6588L378.252 33.9489C432.79 12.8653 487.36 1.61353 536.39 1.61353C539.563 1.61353 542.726 1.65655 545.856 1.75337C611.323 3.73264 658.03 26.3115 677.371 65.3161C696.712 104.321 686.417 155.169 648.37 208.48H648.359Z" fill="white"/>
<path d="M279.762 176.984V188.279H257.172V176.855H268.338V143.379H257.172V131.955H268.338V109.775H246.157V188.3H223.568V98.3507H279.773V109.645H290.938V132.235H279.773V143.261H290.938V177.016H279.773L279.762 176.984Z" fill="black"/>
<path d="M351.285 188.279V154.663H340.119V143.239H351.285V109.764H329.104V188.289H306.514V98.34H362.719V109.635H373.885V143.39H362.719V154.416H373.885V188.3H351.296L351.285 188.279Z" fill="black"/>
<path d="M389.472 188.279V98.3292H445.677V109.753H412.062V131.934H434.522V143.358H412.062V176.833H445.677V188.257H389.472V188.279Z" fill="black"/>
<path d="M505.916 188.279V165.818H472.569V188.279H461.145V154.394H472.311V120.919H483.477V98.3292H506.195V120.919H517.361V154.394H528.527V188.279H505.937H505.916ZM494.75 121.177H483.724V154.394H494.75V121.177Z" fill="black"/>
<path d="M588.884 188.279V165.689H577.718V143.369H566.692V188.279H544.103V98.3292H566.692V131.945H577.718V120.854H588.884V109.764H600.05V98.34H611.474V109.904H600.308V121.155H589.142V143.25H600.308V165.431H611.474V188.29H588.884V188.279Z" fill="black"/>
<path d="M122.904 228.079V306.605H100.315V228.079H77.8649V216.656H145.365V228.079H122.904Z" fill="black"/>
<path d="M194.438 306.605V261.695H172.257V306.605H149.667V216.656H172.257V250.271H194.438V216.656H217.027V306.605H194.438Z" fill="black"/>
<path d="M232.625 306.605V216.656H288.83V228.079H255.215V250.26H277.675V261.684H255.215V295.16H288.83V306.584H232.625V306.605Z" fill="black"/>
<path d="M387.396 295.31V306.605H364.806V295.181H375.972V261.706H364.806V250.282H375.972V228.101H353.791V306.627H331.202V216.677H387.407V227.972H398.572V250.561H387.407V261.587H398.572V295.343H387.407L387.396 295.31Z" fill="black"/>
<path d="M458.929 306.605V272.99H447.764V261.566H458.929V228.09H436.749V306.616H414.159V216.666H470.364V227.961H481.53V261.716H470.364V272.742H481.53V306.627H458.94L458.929 306.605Z" fill="black"/>
<path d="M497.117 306.605V216.656H519.706V306.605H497.117Z" fill="black"/>
<path d="M580.203 295.31V306.605H546.319V295.31H535.153V228.079H546.319V216.656H591.369V239.514H579.945V228.219H557.764V295.181H579.945V283.757H591.369V295.321H580.203V295.31Z" fill="black"/>
<path d="M651.608 306.605V284.016H640.442V261.695H629.416V306.605H606.827V216.656H629.416V250.271H640.442V239.181H651.608V228.09H662.774V216.666H674.197V228.23H663.032V239.482H651.866V261.577H663.032V283.757H674.197V306.616H651.608V306.605Z" fill="black"/>
<path d="M734.834 295.31V306.605H700.95V295.31H689.784V283.747H701.208V295.17H723.389V273.033H700.928V261.759H689.763V228.079H700.928V216.656H734.813V228.079H745.978V239.503H734.555V228.209H712.374V250.346H734.834V261.62H746V295.3H734.834V295.31Z" fill="black"/>
<path d="M268.435 166.227V177.522H245.845V166.098H257.011V132.622H245.845V121.198H257.011V99.0176H234.83V177.543H212.241V87.5938H268.446V98.8885H279.611V121.478H268.446V132.504H279.611V166.259H268.446L268.435 166.227Z" fill="#FAED00" stroke="black" stroke-miterlimit="10"/>
<path d="M339.968 177.522V143.906H328.803V132.482H339.968V99.0069H317.788V177.533H295.198V87.583H351.403V98.8778H362.569V132.633H351.403V143.659H362.569V177.543H339.979L339.968 177.522Z" fill="#FAED00" stroke="black" stroke-miterlimit="10"/>
<path d="M378.145 177.522V87.5723H434.35V98.9961H400.734V121.177H423.195V132.601H400.734V166.076H434.35V177.5H378.145V177.522Z" fill="#FAED00" stroke="black" stroke-miterlimit="10"/>
<path d="M494.589 177.522V155.061H461.242V177.522H449.818V143.637H460.984V110.162H472.15V87.5723H494.868V110.162H506.034V143.637H517.2V177.522H494.61H494.589ZM483.423 110.42H472.397V143.637H483.423V110.42Z" fill="#FAED00" stroke="black" stroke-miterlimit="10"/>
<path d="M577.557 177.522V154.932H566.391V132.612H555.365V177.522H532.776V87.5723H555.365V121.188H566.391V110.097H577.557V99.0069H588.723V87.583H600.147V99.1467H588.981V110.398H577.815V132.493H588.981V154.674H600.147V177.533H577.557V177.522Z" fill="#FAED00" stroke="black" stroke-miterlimit="10"/>
<path d="M111.588 217.322V295.848H88.9983V217.322H66.5378V205.899H134.038V217.322H111.577H111.588Z" fill="#FAED00" stroke="black" stroke-miterlimit="10"/>
<path d="M183.122 295.848V250.938H160.941V295.848H138.351V205.899H160.941V239.514H183.122V205.899H205.711V295.848H183.122Z" fill="#FAED00" stroke="black" stroke-miterlimit="10"/>
<path d="M221.298 295.848V205.899H277.503V217.322H243.888V239.503H266.348V250.927H243.888V284.403H277.503V295.827H221.298V295.848Z" fill="#FAED00" stroke="black" stroke-miterlimit="10"/>
<path d="M376.069 284.553V295.848H353.479V284.424H364.645V250.949H353.479V239.525H364.645V217.344H342.464V295.87H319.875V205.92H376.08V217.215H387.245V239.804H376.08V250.83H387.245V284.586H376.08L376.069 284.553Z" fill="#FAED00" stroke="black" stroke-miterlimit="10"/>
<path d="M447.602 295.848V262.233H436.437V250.809H447.602V217.333H425.422V295.859H402.832V205.909H459.037V217.204H470.203V250.959H459.037V261.985H470.203V295.87H447.613L447.602 295.848Z" fill="#FAED00" stroke="black" stroke-miterlimit="10"/>
<path d="M485.79 295.848V205.899H508.379V295.848H485.79Z" fill="#FAED00" stroke="black" stroke-miterlimit="10"/>
<path d="M568.887 284.553V295.848H535.003V284.553H523.837V217.322H535.003V205.899H580.053V228.757H568.629V217.462H546.448V284.424H568.629V273H580.053V284.564H568.887V284.553Z" fill="#FAED00" stroke="black" stroke-miterlimit="10"/>
<path d="M640.281 295.848V273.259H629.115V250.938H618.089V295.848H595.5V205.899H618.089V239.514H629.115V228.424H640.281V217.333H651.446V205.909H662.87V217.473H651.705V228.725H640.539V250.82H651.705V273H662.87V295.859H640.281V295.848Z" fill="#FAED00" stroke="black" stroke-miterlimit="10"/>
<path d="M723.507 284.553V295.848H689.623V284.553H678.457V272.99H689.881V284.414H712.062V262.276H689.601V251.002H678.436V217.322H689.601V205.899H723.486V217.322H734.651V228.746H723.228V217.452H701.047V239.589H723.507V250.863H734.673V284.543H723.507V284.553Z" fill="#FAED00" stroke="black" stroke-miterlimit="10"/>
<g clip-path="url(#clip5_1101_3)">
<path d="M284.15 356.16L281 345.26L277.83 356.16H271.12L264 331.24H272.14L274.8 342.28L277.7 331.24H284.28L287.18 342.3L289.84 331.24H297.98L290.85 356.16H284.15Z" fill="white"/>
<path d="M304.53 356.49C298.69 356.49 294.92 352.57 294.92 346.51C294.92 340.45 298.71 336.5 304.35 336.5C309.99 336.5 313.57 340.36 313.57 346.33V348.46H313.8L313.42 350.27C312.61 354.1 309.21 356.49 304.53 356.49ZM302.67 349.1C302.98 349.67 303.56 350.13 304.63 350.13C305.47 350.13 306.1 349.84 306.32 349.34L306.43 349.1H302.67ZM305.72 343.28C305.4 343.01 304.96 342.86 304.44 342.86C303.92 342.86 303.47 343.01 303.12 343.28H305.72Z" fill="white"/>
<path d="M324.89 356.43C323.49 356.43 322.39 356.1 321.52 355.61V356.15H314.1V331.24H321.58V337.32C322.54 336.78 323.66 336.51 324.89 336.51C328.97 336.51 333.08 339.59 333.08 346.46C333.08 353.33 328.97 356.44 324.89 356.44V356.43ZM323.47 343.08C321.75 343.08 321.49 345.17 321.49 346.42C321.49 347.23 321.63 349.85 323.47 349.85C325.31 349.85 325.48 347.45 325.48 346.42C325.48 345.17 325.22 343.08 323.47 343.08Z" fill="white"/>
<path d="M343.15 356.46C337.46 356.46 333.41 353.19 333.3 348.52L333.26 346.98H340.82L340.9 348.4C340.95 349.3 342.12 349.71 343.19 349.71C343.99 349.71 344.68 349.48 345.08 349.08C345.31 348.84 345.42 348.57 345.42 348.24C345.42 347.86 345.32 347.59 345.09 347.37C344.65 346.92 343.8 346.66 342.77 346.66H339.24V340.33H333.74L333.76 338.81C333.83 334.25 337.81 330.95 343.22 330.95C346.07 330.95 348.57 331.88 350.25 333.58C351.6 334.94 352.33 336.74 352.32 338.64C352.34 340.44 351.61 342.03 350.34 343.15C352.14 344.31 353.16 346.2 353.13 348.55C353.15 350.44 352.42 352.2 351.03 353.6C349.19 355.46 346.39 356.48 343.15 356.48V356.46ZM342.76 340.29C343.84 340.29 344.92 339.85 344.92 338.88C344.92 337.69 343.72 337.56 343.21 337.56C342.21 337.56 341.14 338.02 341.11 338.87L341.06 340.28H342.76V340.29Z" fill="white"/>
<path d="M373.24 356.46C366.17 356.46 361.42 351.34 361.42 343.73C361.42 336.12 366.25 330.94 373.15 330.94C378.82 330.94 383.28 334.5 383.99 339.59L384.23 341.3H376.78L376.46 340.22C376.03 338.75 374.91 337.97 373.24 337.97C369.46 337.97 369.05 341.96 369.05 343.68C369.05 345.4 369.46 349.45 373.27 349.45C374.27 349.45 375.79 349.22 376.47 347.91H372.07V341.49H384.21V345.71C384.21 352.15 379.8 356.47 373.23 356.47L373.24 356.46Z" fill="white"/>
<path d="M391.27 356.46C387.03 356.46 384.29 353.95 384.29 350.06C384.29 347.57 385.41 345.7 387.48 344.6H384.72L384.88 342.96C385.25 339.05 388.63 336.52 393.49 336.52C398.63 336.52 401.95 339.3 401.95 343.59V356.17H394.71V355.73C393.72 356.22 392.56 356.47 391.28 356.47L391.27 356.46ZM394.46 349.16C393.81 349.2 393.15 349.24 392.78 349.28C391.99 349.36 391.59 349.58 391.59 349.94C391.59 350.3 392.11 350.38 392.54 350.38C393.18 350.38 393.73 350.18 394.09 349.81C394.27 349.62 394.39 349.41 394.45 349.17L394.46 349.16ZM393.36 342.78C392.62 342.78 392.19 342.99 392.1 343.41L392.08 343.49C392.77 343.45 393.69 343.4 394.48 343.36C394.46 343.11 394.33 342.78 393.35 342.78H393.36Z" fill="white"/>
<path d="M422.3 356.16V344.49C422.3 343.3 421.75 343.2 421.23 343.2C420.91 343.2 420.07 343.2 420.07 344.61V356.16H412.71V344.37C412.71 343.21 411.93 343.21 411.67 343.21C410.94 343.21 410.48 343.83 410.48 344.8V356.17H403V336.72H410.27V337.31C411.21 336.79 412.31 336.5 413.52 336.5C415.43 336.5 417.06 337.18 418.16 338.38C419.38 337.19 421.12 336.5 423.11 336.5C427.1 336.5 429.79 339.35 429.79 343.6V356.15H422.31L422.3 356.16Z" fill="white"/>
<path d="M430.85 356.16V336.72H432.09C431.2 336.03 430.64 334.98 430.64 333.8C430.64 331.7 432.41 330 434.59 330C436.77 330 438.51 331.71 438.51 333.8C438.51 334.98 437.95 336.03 437.07 336.72H438.33V356.16H430.85Z" fill="white"/>
<path d="M450.03 356.16V344.97C450.03 343.43 449.25 343.23 448.56 343.23C448.15 343.23 446.91 343.23 446.91 345.15V356.16H439.43V336.72H446.7V337.41C447.73 336.83 448.96 336.51 450.32 336.51C452.36 336.51 454.12 337.19 455.4 338.49C456.78 339.88 457.5 341.85 457.48 344.2V356.16H450.03Z" fill="white"/>
<path d="M467.47 362.67C462.21 362.67 458.73 360.17 458.38 356.15L458.24 354.52H461.5C459.26 352.93 457.95 350.05 457.95 346.33C457.95 339.54 462.06 336.5 466.14 336.5C467.54 336.5 468.64 336.83 469.51 337.33V336.71H476.96V354.83C476.96 359.58 473.23 362.66 467.47 362.66V362.67ZM465.83 355.91C466.11 356.37 467.11 356.43 467.56 356.43C469.12 356.43 469.46 355.88 469.53 355.15C468.55 355.65 467.4 355.92 466.14 355.92C466.04 355.92 465.93 355.92 465.83 355.92V355.91ZM467.53 343.08C465.74 343.08 465.55 345.4 465.55 346.39C465.55 348.49 466.22 349.55 467.53 349.55C469.19 349.55 469.54 347.83 469.54 346.39C469.54 345.15 469.28 343.08 467.53 343.08Z" fill="white"/>
<path d="M497.26 356.46C490.22 356.46 485.5 351.33 485.5 343.7C485.5 336.07 490.23 330.94 497.26 330.94C504.29 330.94 508.99 336.07 508.99 343.7C508.99 351.33 504.28 356.46 497.26 356.46ZM497.26 337.96C493.67 337.96 493.13 341.55 493.13 343.7C493.13 345.85 493.67 349.44 497.26 349.44C500.85 349.44 501.36 345.85 501.36 343.7C501.36 341.55 500.83 337.96 497.26 337.96Z" fill="white"/>
<path d="M509.79 362.33V336.72H517.21V337.34C518.08 336.85 519.19 336.51 520.58 336.51C524.64 336.51 528.74 339.59 528.74 346.46C528.74 353.33 524.64 356.44 520.58 356.44C519.22 356.44 518.13 356.13 517.27 355.66V362.35H509.79V362.33ZM519.16 343.08C517.44 343.08 517.18 345.17 517.18 346.42C517.18 347.23 517.32 349.85 519.16 349.85C521 349.85 521.17 347.45 521.17 346.42C521.17 345.17 520.91 343.08 519.16 343.08Z" fill="white"/>
<path d="M537.43 356.49C532.32 356.49 528.99 354.05 528.52 349.95L528.33 348.28H532.07C530.04 347.17 528.93 345.38 528.96 343.1C528.94 341.46 529.53 339.98 530.67 338.83C532.18 337.31 534.51 336.5 537.4 336.5C542.31 336.5 545.55 338.98 545.86 342.97L545.99 344.59H543.08C545.15 345.65 546.21 347.31 546.24 349.55C546.2 353.71 542.67 356.49 537.44 356.49H537.43ZM536 349.54C536.03 349.75 536.12 350.25 537.43 350.25C537.98 350.25 538.32 350.15 538.51 350.07C538.34 349.99 538.06 349.9 537.6 349.8L536 349.48V349.55V349.54ZM536.61 342.83C536.77 342.9 537.01 342.97 537.35 343.05L538.67 343.32C538.57 342.73 537.72 342.68 537.46 342.68C537.08 342.68 536.8 342.75 536.61 342.83Z" fill="white"/>
<path d="M265.99 332.74H270.95L274.64 348.06H274.82L278.86 332.74H283.13L287.16 348.09H287.34L291.03 332.74H295.99L289.72 354.66H285.27L281.09 340.19H280.91L276.7 354.66H272.25L265.99 332.74Z" fill="black"/>
<path d="M296.41 346.52C296.41 341.43 299.53 338.01 304.34 338.01C308.67 338.01 312.06 340.73 312.06 346.34V347.61H300.83C300.83 350.09 302.31 351.64 304.61 351.64C306.12 351.64 307.21 350.97 307.67 349.97H311.94C311.3 353 308.58 355 304.52 355C299.49 355 296.41 351.73 296.41 346.52ZM307.82 344.79C307.82 342.79 306.43 341.37 304.43 341.37C302.43 341.37 300.9 342.9 300.83 344.79H307.82Z" fill="black"/>
<path d="M315.59 332.74H320.07V340.97H320.19C320.83 339.64 322.13 338 324.88 338C328.51 338 331.57 340.82 331.57 346.45C331.57 352.08 328.63 354.93 324.88 354.93C322.19 354.93 320.82 353.39 320.19 352.02H320.01V354.65H315.59V332.74ZM323.46 351.36C325.76 351.36 326.97 349.33 326.97 346.43C326.97 343.53 325.76 341.59 323.46 341.59C321.16 341.59 319.98 343.47 319.98 346.43C319.98 349.39 321.25 351.36 323.46 351.36Z" fill="black"/>
<path d="M334.8 348.48H339.4C339.49 350.11 341.07 351.2 343.18 351.2C345.29 351.2 346.93 349.96 346.9 348.2C346.93 346.41 345.33 345.14 342.75 345.14H340.72V341.78H342.75C344.9 341.78 346.41 340.6 346.41 338.87C346.41 337.14 345.14 336.05 343.2 336.05C341.26 336.05 339.66 337.14 339.6 338.8H335.24C335.3 335.02 338.72 332.41 343.2 332.41C347.68 332.41 350.83 335.1 350.8 338.59C350.83 341.04 349.1 342.8 346.65 343.22V343.4C349.86 343.79 351.65 345.76 351.61 348.49C351.64 352.24 348.07 354.94 343.13 354.94C338.19 354.94 334.87 352.28 334.77 348.46L334.8 348.48Z" fill="black"/>
<path d="M373.24 336.46C369.85 336.46 367.55 339.06 367.55 343.67C367.55 348.28 369.79 350.94 373.27 350.94C376.4 350.94 378.27 349.17 378.33 346.4H373.58V342.98H382.72V345.7C382.72 351.45 378.78 354.96 373.24 354.96C367.09 354.96 362.92 350.66 362.92 343.73C362.92 336.8 367.37 332.44 373.15 332.44C378.08 332.44 381.9 335.47 382.5 339.8H377.9C377.29 337.74 375.63 336.47 373.24 336.47V336.46Z" fill="black"/>
<path d="M391.91 345C393.09 344.92 395.3 344.82 396 344.79V343.46C395.97 342.1 395.03 341.28 393.37 341.28C391.86 341.28 390.89 341.98 390.65 343.1H386.38C386.65 340.25 389.13 338.01 393.49 338.01C397.06 338.01 400.45 339.61 400.45 343.58V354.66H396.21V352.39H396.09C395.27 353.9 393.73 354.96 391.28 354.96C388.13 354.96 385.8 353.33 385.8 350.06C385.8 346.4 388.77 345.19 391.92 345H391.91ZM392.55 351.87C394.58 351.87 396.03 350.51 396 348.78V347.57C395.32 347.6 393.41 347.71 392.64 347.78C391.1 347.93 390.1 348.66 390.1 349.93C390.1 351.2 391.13 351.87 392.55 351.87Z" fill="black"/>
<path d="M404.49 338.22H408.76V341.1H408.94C409.64 339.19 411.3 338.01 413.51 338.01C415.72 338.01 417.45 339.19 417.99 341.1H418.14C418.84 339.22 420.68 338.01 423.1 338.01C426.16 338.01 428.28 340.04 428.28 343.61V354.66H423.8V344.49C423.8 342.61 422.71 341.7 421.23 341.7C419.53 341.7 418.57 342.88 418.57 344.61V354.66H414.21V344.37C414.21 342.74 413.18 341.71 411.67 341.71C410.16 341.71 408.98 342.92 408.98 344.8V354.67H404.5V338.22H404.49Z" fill="black"/>
<path d="M432.14 333.8C432.14 332.53 433.23 331.5 434.59 331.5C435.95 331.5 437.01 332.53 437.01 333.8C437.01 335.07 435.92 336.07 434.59 336.07C433.26 336.07 432.14 335.04 432.14 333.8ZM432.35 338.22H436.83V354.66H432.35V338.22Z" fill="black"/>
<path d="M445.41 354.66H440.93V338.22H445.2V341.1H445.38C446.14 339.19 447.89 338.01 450.31 338.01C453.73 338.01 456 340.34 455.97 344.19V354.66H451.52V344.97C451.52 342.94 450.4 341.73 448.55 341.73C446.7 341.73 445.4 342.97 445.4 345.15V354.66H445.41Z" fill="black"/>
<path d="M459.87 356.02H464.29C464.53 357.32 465.77 357.93 467.56 357.93C469.65 357.93 471.04 357.05 471.04 354.75V351.75H470.83C470.22 353.08 468.77 354.41 466.14 354.41C462.42 354.41 459.45 351.81 459.45 346.33C459.45 340.85 462.51 338 466.14 338C468.89 338 470.23 339.63 470.83 340.97H471.01V338.22H475.46V354.84C475.46 359.02 472.13 361.17 467.47 361.17C462.81 361.17 460.14 359.14 459.87 356.02ZM471.04 346.39C471.04 343.45 469.77 341.58 467.53 341.58C465.29 341.58 464.05 343.55 464.05 346.39C464.05 349.23 465.26 351.05 467.53 351.05C469.8 351.05 471.04 349.29 471.04 346.39Z" fill="black"/>
<path d="M497.26 354.96C491.42 354.96 487 350.81 487 343.7C487 336.59 491.42 332.44 497.26 332.44C503.1 332.44 507.49 336.56 507.49 343.7C507.49 350.84 503.04 354.96 497.26 354.96ZM497.26 336.46C493.87 336.46 491.63 339 491.63 343.7C491.63 348.4 493.87 350.94 497.26 350.94C500.65 350.94 502.86 348.4 502.86 343.7C502.86 339 500.65 336.46 497.26 336.46Z" fill="black"/>
<path d="M511.29 338.22H515.71V340.97H515.89C516.5 339.64 517.83 338 520.58 338C524.21 338 527.24 340.82 527.24 346.45C527.24 352.08 524.33 354.93 520.58 354.93C517.89 354.93 516.52 353.39 515.89 352.02H515.77V360.83H511.29V338.22ZM519.16 351.36C521.46 351.36 522.67 349.33 522.67 346.43C522.67 343.53 521.46 341.59 519.16 341.59C516.86 341.59 515.68 343.47 515.68 346.43C515.68 349.39 516.95 351.36 519.16 351.36Z" fill="black"/>
<path d="M537.46 341.19C536.01 341.19 534.89 341.89 534.92 342.89C534.89 343.62 535.5 344.19 537.04 344.52L539.98 345.13C543.16 345.8 544.7 347.22 544.73 349.58C544.7 352.82 541.79 355 537.43 355C533.07 355 530.38 353 530.01 349.79H534.52C534.73 351.09 535.79 351.76 537.43 351.76C539.07 351.76 540.15 351.09 540.15 350.03C540.15 349.18 539.45 348.67 537.91 348.33L535.19 347.79C532.07 347.18 530.44 345.55 530.47 343.13C530.44 339.98 533.16 338.01 537.4 338.01C541.64 338.01 544.12 339.98 544.36 343.1H540.15C539.97 341.95 538.94 341.19 537.46 341.19Z" fill="black"/>
</g>
</g>
<defs>
<clipPath id="clip0_1101_3">
<rect width="40" height="40" fill="white" transform="translate(614 397)"/>
</clipPath>
<clipPath id="clip1_1101_3">
<rect width="24" height="24" fill="white" transform="translate(0 133)"/>
</clipPath>
<clipPath id="clip2_1101_3">
<rect width="122.812" height="120" fill="white" transform="translate(30 373)"/>
</clipPath>
<clipPath id="clip3_1101_3">
<rect width="60.6144" height="95" fill="white" transform="translate(695 454)"/>
</clipPath>
<clipPath id="clip4_1101_3">
<rect width="680" height="402.977" fill="white" transform="translate(66)"/>
</clipPath>
<clipPath id="clip5_1101_3">
<rect width="283" height="32.67" fill="white" transform="translate(264 330)"/>
</clipPath>
</defs>
</svg>
