<svg width="1466" height="579" viewBox="0 0 1466 579" fill="none" xmlns="http://www.w3.org/2000/svg">
<path d="M5.89 155.88C7.4861 155.88 8.78 154.586 8.78 152.99C8.78 151.394 7.4861 150.1 5.89 150.1C4.2939 150.1 3 151.394 3 152.99C3 154.586 4.2939 155.88 5.89 155.88Z" fill="white"/>
<path d="M146.19 330.43C147.786 330.43 149.08 329.136 149.08 327.54C149.08 325.944 147.786 324.65 146.19 324.65C144.594 324.65 143.3 325.944 143.3 327.54C143.3 329.136 144.594 330.43 146.19 330.43Z" fill="white"/>
<path d="M380.19 5.78C381.786 5.78 383.08 4.4861 383.08 2.89C383.08 1.2939 381.786 0 380.19 0C378.594 0 377.3 1.2939 377.3 2.89C377.3 4.4861 378.594 5.78 380.19 5.78Z" fill="white"/>
<path d="M11.89 390.54C13.4861 390.54 14.78 389.246 14.78 387.65C14.78 386.054 13.4861 384.76 11.89 384.76C10.2939 384.76 9 386.054 9 387.65C9 389.246 10.2939 390.54 11.89 390.54Z" fill="white"/>
<path d="M36.89 46.29C38.4861 46.29 39.78 44.9961 39.78 43.4C39.78 41.8039 38.4861 40.51 36.89 40.51C35.2939 40.51 34 41.8039 34 43.4C34 44.9961 35.2939 46.29 36.89 46.29Z" fill="white"/>
<path d="M122 81.11C123.596 81.11 124.89 79.8161 124.89 78.22C124.89 76.6239 123.596 75.33 122 75.33C120.404 75.33 119.11 76.6239 119.11 78.22C119.11 79.8161 120.404 81.11 122 81.11Z" fill="white"/>
<path d="M337.77 173.75C338.251 173.75 338.64 173.361 338.64 172.88C338.64 172.4 338.251 172.01 337.77 172.01C337.29 172.01 336.9 172.4 336.9 172.88C336.9 173.361 337.29 173.75 337.77 173.75Z" fill="white"/>
<path d="M238.52 55.48C239.001 55.48 239.39 55.0905 239.39 54.61C239.39 54.1295 239.001 53.74 238.52 53.74C238.04 53.74 237.65 54.1295 237.65 54.61C237.65 55.0905 238.04 55.48 238.52 55.48Z" fill="white"/>
<path d="M259.86 61.12C260.34 61.12 260.73 60.7305 260.73 60.25C260.73 59.7695 260.34 59.38 259.86 59.38C259.379 59.38 258.99 59.7695 258.99 60.25C258.99 60.7305 259.379 61.12 259.86 61.12Z" fill="white"/>
<path d="M98.57 151.02C99.3653 151.02 100.01 150.375 100.01 149.58C100.01 148.785 99.3653 148.14 98.57 148.14C97.7747 148.14 97.13 148.785 97.13 149.58C97.13 150.375 97.7747 151.02 98.57 151.02Z" fill="white"/>
<path d="M160.16 278.75C160.955 278.75 161.6 278.105 161.6 277.31C161.6 276.515 160.955 275.87 160.16 275.87C159.365 275.87 158.72 276.515 158.72 277.31C158.72 278.105 159.365 278.75 160.16 278.75Z" fill="white"/>
<path d="M280.16 116.42C280.955 116.42 281.6 115.775 281.6 114.98C281.6 114.185 280.955 113.54 280.16 113.54C279.365 113.54 278.72 114.185 278.72 114.98C278.72 115.775 279.365 116.42 280.16 116.42Z" fill="white"/>
<path d="M77.5099 331.8C78.3052 331.8 78.9499 331.155 78.9499 330.36C78.9499 329.565 78.3052 328.92 77.5099 328.92C76.7147 328.92 76.0699 329.565 76.0699 330.36C76.0699 331.155 76.7147 331.8 77.5099 331.8Z" fill="white"/>
<path d="M134.4 574.65C135.996 574.65 137.29 573.356 137.29 571.76C137.29 570.164 135.996 568.87 134.4 568.87C132.804 568.87 131.51 570.164 131.51 571.76C131.51 573.356 132.804 574.65 134.4 574.65Z" fill="white"/>
<path d="M43 303.18C44.5961 303.18 45.89 301.886 45.89 300.29C45.89 298.694 44.5961 297.4 43 297.4C41.4039 297.4 40.11 298.694 40.11 300.29C40.11 301.886 41.4039 303.18 43 303.18Z" fill="white"/>
<path d="M137 239.11C138.596 239.11 139.89 237.816 139.89 236.22C139.89 234.624 138.596 233.33 137 233.33C135.404 233.33 134.11 234.624 134.11 236.22C134.11 237.816 135.404 239.11 137 239.11Z" fill="white"/>
<path d="M161.19 488.43C162.786 488.43 164.08 487.136 164.08 485.54C164.08 483.944 162.786 482.65 161.19 482.65C159.594 482.65 158.3 483.944 158.3 485.54C158.3 487.136 159.594 488.43 161.19 488.43Z" fill="white"/>
<path d="M2.89 542.54C4.4861 542.54 5.78 541.246 5.78 539.65C5.78 538.054 4.4861 536.76 2.89 536.76C1.2939 536.76 0 538.054 0 539.65C0 541.246 1.2939 542.54 2.89 542.54Z" fill="white"/>
<path d="M336.16 463.28C336.641 463.28 337.03 462.891 337.03 462.41C337.03 461.93 336.641 461.54 336.16 461.54C335.68 461.54 335.29 461.93 335.29 462.41C335.29 462.891 335.68 463.28 336.16 463.28Z" fill="white"/>
<path d="M43 446.95C43.4805 446.95 43.87 446.56 43.87 446.08C43.87 445.599 43.4805 445.21 43 445.21C42.5195 445.21 42.13 445.599 42.13 446.08C42.13 446.56 42.5195 446.95 43 446.95Z" fill="white"/>
<path d="M323.53 571.75C324.011 571.75 324.4 571.36 324.4 570.88C324.4 570.4 324.011 570.01 323.53 570.01C323.05 570.01 322.66 570.4 322.66 570.88C322.66 571.36 323.05 571.75 323.53 571.75Z" fill="white"/>
<path d="M1336.32 45.66C1337.92 45.66 1339.21 44.3661 1339.21 42.77C1339.21 41.1739 1337.92 39.88 1336.32 39.88C1334.72 39.88 1333.43 41.1739 1333.43 42.77C1333.43 44.3661 1334.72 45.66 1336.32 45.66Z" fill="white"/>
<path d="M1426.72 236.14C1428.32 236.14 1429.61 234.846 1429.61 233.25C1429.61 231.654 1428.32 230.36 1426.72 230.36C1425.12 230.36 1423.83 231.654 1423.83 233.25C1423.83 234.846 1425.12 236.14 1426.72 236.14Z" fill="white"/>
<path d="M1392.83 400.02C1394.43 400.02 1395.72 398.726 1395.72 397.13C1395.72 395.534 1394.43 394.24 1392.83 394.24C1391.23 394.24 1389.94 395.534 1389.94 397.13C1389.94 398.726 1391.23 400.02 1392.83 400.02Z" fill="white"/>
<path d="M1420.71 387.34C1422.31 387.34 1423.6 386.046 1423.6 384.45C1423.6 382.854 1422.31 381.56 1420.71 381.56C1419.11 381.56 1417.82 382.854 1417.82 384.45C1417.82 386.046 1419.11 387.34 1420.71 387.34Z" fill="white"/>
<path d="M1297.53 131.89C1299.13 131.89 1300.42 130.596 1300.42 129C1300.42 127.404 1299.13 126.11 1297.53 126.11C1295.93 126.11 1294.64 127.404 1294.64 129C1294.64 130.596 1295.93 131.89 1297.53 131.89Z" fill="white"/>
<path d="M1462.83 25.78C1464.43 25.78 1465.72 24.4861 1465.72 22.89C1465.72 21.2939 1464.43 20 1462.83 20C1461.23 20 1459.94 21.2939 1459.94 22.89C1459.94 24.4861 1461.23 25.78 1462.83 25.78Z" fill="white"/>
<path d="M1122.55 152.99C1123.03 152.99 1123.42 152.6 1123.42 152.12C1123.42 151.64 1123.03 151.25 1122.55 151.25C1122.07 151.25 1121.68 151.64 1121.68 152.12C1121.68 152.6 1122.07 152.99 1122.55 152.99Z" fill="white"/>
<path d="M1415.72 169.33C1416.2 169.33 1416.59 168.94 1416.59 168.46C1416.59 167.979 1416.2 167.59 1415.72 167.59C1415.24 167.59 1414.85 167.979 1414.85 168.46C1414.85 168.94 1415.24 169.33 1415.72 169.33Z" fill="white"/>
<path d="M1135.19 44.52C1135.67 44.52 1136.06 44.1305 1136.06 43.65C1136.06 43.1695 1135.67 42.78 1135.19 42.78C1134.71 42.78 1134.32 43.1695 1134.32 43.65C1134.32 44.1305 1134.71 44.52 1135.19 44.52Z" fill="white"/>
<path d="M1452.83 464.44C1454.43 464.44 1455.72 463.146 1455.72 461.55C1455.72 459.954 1454.43 458.66 1452.83 458.66C1451.23 458.66 1449.94 459.954 1449.94 461.55C1449.94 463.146 1451.23 464.44 1452.83 464.44Z" fill="white"/>
<path d="M1347.83 193.78C1349.43 193.78 1350.72 192.486 1350.72 190.89C1350.72 189.294 1349.43 188 1347.83 188C1346.23 188 1344.94 189.294 1344.94 190.89C1344.94 192.486 1346.23 193.78 1347.83 193.78Z" fill="white"/>
<path d="M1432.83 578.02C1434.43 578.02 1435.72 576.726 1435.72 575.13C1435.72 573.534 1434.43 572.24 1432.83 572.24C1431.23 572.24 1429.94 573.534 1429.94 575.13C1429.94 576.726 1431.23 578.02 1432.83 578.02Z" fill="white"/>
<path d="M1336.72 539.2C1338.32 539.2 1339.61 537.906 1339.61 536.31C1339.61 534.714 1338.32 533.42 1336.72 533.42C1335.12 533.42 1333.83 534.714 1333.83 536.31C1333.83 537.906 1335.12 539.2 1336.72 539.2Z" fill="white"/>
<path d="M1120.95 442.52C1121.43 442.52 1121.82 442.131 1121.82 441.65C1121.82 441.17 1121.43 440.78 1120.95 440.78C1120.47 440.78 1120.08 441.17 1120.08 441.65C1120.08 442.131 1120.47 442.52 1120.95 442.52Z" fill="white"/>
<path d="M1220.19 560.8C1220.67 560.8 1221.06 560.411 1221.06 559.93C1221.06 559.45 1220.67 559.06 1220.19 559.06C1219.71 559.06 1219.32 559.45 1219.32 559.93C1219.32 560.411 1219.71 560.8 1220.19 560.8Z" fill="white"/>
<path d="M1198.86 555.15C1199.34 555.15 1199.73 554.76 1199.73 554.28C1199.73 553.799 1199.34 553.41 1198.86 553.41C1198.38 553.41 1197.99 553.799 1197.99 554.28C1197.99 554.76 1198.38 555.15 1198.86 555.15Z" fill="white"/>
<path d="M1360.14 466.39C1360.94 466.39 1361.58 465.745 1361.58 464.95C1361.58 464.155 1360.94 463.51 1360.14 463.51C1359.34 463.51 1358.7 464.155 1358.7 464.95C1358.7 465.745 1359.34 466.39 1360.14 466.39Z" fill="white"/>
<path d="M1251.55 371.66C1252.35 371.66 1252.99 371.015 1252.99 370.22C1252.99 369.425 1252.35 368.78 1251.55 368.78C1250.75 368.78 1250.11 369.425 1250.11 370.22C1250.11 371.015 1250.75 371.66 1251.55 371.66Z" fill="white"/>
<path d="M1178.55 500.99C1179.35 500.99 1179.99 500.345 1179.99 499.55C1179.99 498.755 1179.35 498.11 1178.55 498.11C1177.75 498.11 1177.11 498.755 1177.11 499.55C1177.11 500.345 1177.75 500.99 1178.55 500.99Z" fill="white"/>
<path d="M1381.2 285.61C1382 285.61 1382.64 284.965 1382.64 284.17C1382.64 283.375 1382 282.73 1381.2 282.73C1380.4 282.73 1379.76 283.375 1379.76 284.17C1379.76 284.965 1380.4 285.61 1381.2 285.61Z" fill="white"/>
</svg>
