<svg width="280" height="45" viewBox="0 0 280 45" fill="none" xmlns="http://www.w3.org/2000/svg">
<g clip-path="url(#clip0_133_722)">
<path d="M191.941 11.3633H193.795L202.445 31.538L211.148 11.3633H213.002L203.358 33.4453H201.504L191.941 11.3633Z" fill="white"/>
<path d="M226.81 28.1531H213.781L211.444 33.4721H209.617L219.503 11.3902H221.088L231.001 33.4721H229.174L226.837 28.1531H226.81ZM226.138 26.595L220.282 13.3512L214.453 26.595H226.138Z" fill="white"/>
<path d="M232.317 23.049V11.3633H233.983V23.049C233.983 29.55 236.32 32.129 241.209 32.129C246.098 32.129 248.462 29.55 248.462 23.049V11.3633H250.128V23.049C250.128 30.356 247.011 33.7408 241.182 33.7408C235.353 33.7408 232.29 30.356 232.29 23.049H232.317Z" fill="white"/>
<path d="M254.668 11.3633H256.333V31.8335H267.32V33.4453H254.668V11.3633Z" fill="white"/>
<path d="M271.511 12.9752H264.688V11.3633H280V12.9752H273.204V33.4453H271.538V12.9752H271.511Z" fill="white"/>
<path d="M22.0819 44.1639C34.2775 44.1639 44.1639 34.2775 44.1639 22.0819C44.1639 9.88642 34.2775 0 22.0819 0C9.88642 0 0 9.88642 0 22.0819C0 34.2775 9.88642 44.1639 22.0819 44.1639Z" fill="#00ABFF"/>
<path d="M25.2537 23.691L23.6961 25.2487L34.4286 35.9811L35.9862 34.4235L25.2537 23.691Z" fill="white"/>
<path d="M9.75337 8.19066L8.19574 9.74829L18.9282 20.4807L20.4858 18.9231L9.75337 8.19066Z" fill="white"/>
<path d="M34.4166 8.21148L23.6917 18.9514L25.2504 20.508L35.9753 9.76802L34.4166 8.21148Z" fill="white"/>
<path d="M18.9316 23.7118L8.2066 34.4518L9.76532 36.0083L20.4903 25.2684L18.9316 23.7118Z" fill="white"/>
<path d="M110.356 11.3633H92.8677V15.1242H109.12C114.009 15.1242 116.293 16.3062 116.293 18.9926C116.293 21.6789 114.009 22.8609 109.12 22.8609H92.8677V33.4721H97.3002V26.6218H110.356C116.696 26.6218 120.645 23.7474 120.645 19.0194C120.645 14.2914 116.696 11.417 110.356 11.417V11.3633Z" fill="white"/>
<path d="M128.193 11.3633H123.761V33.4452H149.389V29.6843H128.193V11.3633Z" fill="white"/>
<path d="M170.692 12.5453C170.047 11.6051 169.053 11.0678 168.005 11.0678C166.958 11.0678 165.964 11.6051 165.319 12.5453L150.49 33.4452H155.782L168.032 16.1182L177.623 29.7112H162.767V33.4721H185.574L170.745 12.5722L170.692 12.5453Z" fill="white"/>
<path d="M73.8751 22.4043V21.8133H73.5796V22.4043H73.3915V21.8133H73.2303V21.6521H73.3915V21.5446C73.3915 21.5446 73.499 21.3029 73.6333 21.3029C73.7139 21.3029 73.7676 21.3029 73.7945 21.3029V21.464C73.7945 21.464 73.7408 21.464 73.687 21.464C73.6064 21.464 73.5527 21.5178 73.5527 21.5715V21.6521H74.0094V22.4043H73.8482H73.8751Z" fill="white"/>
<path d="M74.4123 21.6521V21.7327C74.4123 21.7327 74.5198 21.6521 74.6273 21.6521C74.7884 21.6521 74.9228 21.7864 74.9228 21.9476V22.4311H74.7347V22.0013C74.7347 22.0013 74.681 21.8133 74.5735 21.8133C74.4661 21.8133 74.4123 21.9207 74.4123 22.0013V22.4311H74.2512V21.679H74.4123V21.6521Z" fill="white"/>
<path d="M75.1376 22.2968C75.1376 22.2968 75.1914 22.1625 75.272 22.1625C75.3525 22.1625 75.4063 22.2162 75.4063 22.2968C75.4063 22.3774 75.3525 22.4311 75.272 22.4311C75.1914 22.4311 75.1376 22.3774 75.1376 22.2968Z" fill="white"/>
<path d="M66.6487 15.7689L66.595 15.8226C66.595 15.8226 66.7293 15.8226 66.8099 15.8764C66.9442 15.9838 66.9711 16.145 66.8636 16.2793L66.5682 16.6554L66.4338 16.548L66.7025 16.1987C66.7025 16.1987 66.7562 16.0107 66.7025 15.957C66.6219 15.8764 66.5144 15.9301 66.4607 15.9838L66.1921 16.3062L66.0577 16.1987L66.5144 15.6077L66.6487 15.7152V15.7689Z" fill="white"/>
<path d="M66.9174 16.4405C67.0517 16.2524 67.2935 16.2256 67.4815 16.3599C67.6696 16.4942 67.6964 16.736 67.5621 16.924C67.4278 17.1121 67.1592 17.1389 66.998 17.0046C66.8368 16.8703 66.7831 16.6285 66.9442 16.4405H66.9174ZM67.4009 16.8166C67.4009 16.8166 67.4815 16.5748 67.4009 16.5211C67.2935 16.4405 67.186 16.4673 67.1054 16.5748C67.0248 16.6823 67.0248 16.8166 67.1054 16.8972C67.186 16.9778 67.3472 16.9509 67.4278 16.8434L67.4009 16.8166Z" fill="white"/>
<path d="M68.3143 17.0584V17.1121C68.3143 17.1121 68.4217 17.1121 68.4755 17.1658C68.556 17.2196 68.5829 17.327 68.5829 17.4076C68.6635 17.4076 68.7709 17.4076 68.8515 17.4613C68.959 17.5419 69.0127 17.73 68.9053 17.8643L68.6098 18.2673L68.4755 18.1598L68.7441 17.8106C68.7441 17.8106 68.7978 17.6225 68.7441 17.5688C68.6635 17.4882 68.556 17.5688 68.5023 17.6225L68.2337 17.9449L68.0994 17.8374L68.368 17.4882C68.368 17.4882 68.4217 17.3002 68.368 17.2464C68.2874 17.1658 68.18 17.2464 68.1262 17.3002L67.8576 17.6225L67.7233 17.5151L68.1799 16.9241L68.3143 17.0315V17.0584Z" fill="white"/>
<path d="M68.9859 18.0523C69.1202 17.8643 69.362 17.8374 69.55 17.9717C69.7381 18.106 69.7649 18.3478 69.6037 18.5358C69.4694 18.7239 69.2276 18.7508 69.0396 18.6164C68.8784 18.4821 68.8247 18.2403 68.9859 18.0523ZM69.4694 18.4284C69.4694 18.4284 69.55 18.1866 69.4694 18.1329C69.362 18.0523 69.2545 18.0792 69.1739 18.1866C69.0933 18.2941 69.0933 18.4284 69.1739 18.509C69.2814 18.5896 69.4157 18.5627 69.4963 18.4553L69.4694 18.4284Z" fill="white"/>
<path d="M70.0873 18.4284L70.0335 18.509C70.0335 18.509 70.2216 18.509 70.329 18.5896L70.2216 18.7508C70.2216 18.7508 70.0873 18.6433 70.0067 18.6433C69.9261 18.6433 69.8992 18.6971 69.8724 18.7508L69.6306 19.0463L69.4963 18.9388L69.953 18.3478L70.0873 18.4553V18.4284Z" fill="white"/>
<path d="M70.6783 19.4492L70.2216 19.1C70.2216 19.1 70.2216 19.2881 70.2753 19.3686C70.329 19.4224 70.4096 19.4224 70.4902 19.4224L70.5708 19.5567C70.5708 19.5567 70.3022 19.5836 70.1947 19.503C70.0335 19.3686 70.0067 19.1269 70.141 18.9388C70.2753 18.7776 70.5171 18.7239 70.6783 18.8582C70.8663 18.9926 70.8663 19.2343 70.732 19.3955C70.732 19.3955 70.7051 19.4224 70.6783 19.4492ZM70.5708 18.9926C70.5708 18.9926 70.3828 18.9388 70.329 18.9926L70.6514 19.2343C70.6514 19.2343 70.6514 19.0731 70.5977 18.9926H70.5708Z" fill="white"/>
<path d="M84.1101 11.3633H90.1813L63.5326 33.4452H57.4345L84.1101 11.3633Z" fill="white"/>
<path d="M64.2579 11.3633H58.2136L84.8623 33.4452H90.9335L64.2579 11.3633Z" fill="white"/>
</g>
<defs>
<clipPath id="clip0_133_722">
<rect width="280" height="44.1907" fill="white"/>
</clipPath>
</defs>
</svg>
