<svg width="333" height="60" viewBox="0 0 333 60" fill="none" xmlns="http://www.w3.org/2000/svg">
<g clip-path="url(#clip0_2_688)">
<path d="M27.1254 53.3404V60.0106H7.12538V53.3404H0.529297V13.6369H7.12538V6.88196H33.7215V20.3812H26.9666V13.711H13.8591V53.2557H26.9666V46.5008H33.7215V53.3298H27.1254V53.3404Z" fill="black"/>
<path d="M80.0105 53.3404V60.0106H53.4144V53.3404H46.8184V13.6369H53.4144V6.88196H80.0105V13.6369H86.596V53.3404H80.0105ZM73.2556 13.711H60.1482V53.2557H73.2556V13.711Z" fill="black"/>
<path d="M119.64 60V46.7337H112.97V33.478H106.543V60H99.7881V6.88196H113.128V20.1376H119.714V33.4039H126.225V6.88196H132.98V60H119.64Z" fill="black"/>
<path d="M179.354 26.8925V46.6596H172.758V60H159.259V46.6596H152.673V26.8925H146.077V6.88196H159.418V26.7337H166.045V46.5008H172.599V6.88196H185.94V26.8925H179.343H179.354Z" fill="black"/>
<path d="M199.047 60V6.88196H232.239V13.6369H212.388V26.7443H225.643V33.4992H212.388V53.2663H232.239V60.0212H199.047V60Z" fill="black"/>
<path d="M271.784 60V40.1482H265.188V33.3933H271.784V13.6369H258.677V60.0106H245.336V6.88196H278.528V13.5522H285.114V33.4886H278.528V40H285.114V60.0106H271.773L271.784 60Z" fill="black"/>
<path d="M318.232 13.6369V60.0106H304.891V13.6369H291.625V6.88196H331.487V13.6369H318.221H318.232Z" fill="black"/>
<path d="M27.1254 46.9878V53.658H7.12538V46.9878H0.529297V7.28425H7.12538V0.529358H33.7215V14.0286H26.9666V7.35837H13.8591V46.9031H26.9666V40.1482H33.7215V46.9772H27.1254V46.9878Z" fill="#6600FF"/>
<path d="M27.6548 54.1768H6.59608V47.5066H0V6.7549H6.59608V0H34.2509V14.558H26.4373V7.88777H14.3886V46.3737H26.4373V39.6188H34.2509V47.5066H27.6548V54.1768ZM7.64426 53.118H26.5961V47.4219H13.3404V6.82901H27.5066V13.4992H33.2028V1.05876H7.65484V7.81366H1.05876V46.4584H7.65484V53.1286L7.64426 53.118ZM27.496 46.4479H33.1922V40.6776H27.496V46.4479Z" fill="black"/>
<path d="M80.0105 46.9878V53.658H53.4144V46.9878H46.8184V7.28425H53.4144V0.529358H80.0105V7.28425H86.596V46.9878H80.0105ZM73.2556 7.35837H60.1482V46.9031H73.2556V7.35837Z" fill="#6600FF"/>
<path d="M80.54 54.1768H52.8851V47.5066H46.2891V6.7549H52.8851V0H80.54V6.7549H87.1255V47.5172H80.54V54.1874V54.1768ZM53.9439 53.118H79.4812V46.4479H86.0667V7.81366H79.4812V1.05876H53.9439V7.81366H47.3478V46.4584H53.9439V53.1286V53.118ZM73.7957 47.4219H59.6295V6.82901H73.7957V47.4325V47.4219ZM60.6882 46.3632H72.7369V7.88777H60.6882V46.3737V46.3632Z" fill="black"/>
<path d="M119.64 53.6474V40.3811H112.97V27.1254H106.543V53.6474H99.7881V0.529358H113.128V13.785H119.714V27.0513H126.225V0.529358H132.98V53.6474H119.64Z" fill="#6600FF"/>
<path d="M133.51 54.1768H119.111V40.9105H112.44V27.6548H107.072V54.1768H99.2588V0H113.658V13.2557H120.243V26.522H125.696V0H133.51V54.1768ZM120.169 53.118H132.451V1.05876H126.755V27.5807H119.185V14.3145H112.599V1.05876H100.318V53.118H106.014V26.5961H113.499V39.8518H120.169V53.118Z" fill="black"/>
<path d="M179.354 20.5399V40.307H172.758V53.6474H159.259V40.307H152.673V20.5399H146.077V0.529358H159.418V20.3811H166.045V40.1482H172.599V0.529358H185.94V20.5399H179.343H179.354Z" fill="#6600FF"/>
<path d="M173.287 54.1768H158.729V40.8364H152.144V21.0693H145.548V0H159.947V19.8518H166.575V39.6188H172.07V0H186.469V21.0693H179.873V40.8364H173.277V54.1768H173.287ZM159.788 53.118H172.229V40.6776H165.516V20.9105H158.888V1.05876H146.607V20.0106H153.203V39.7777H159.788V53.118ZM173.129 39.7777H178.825V20.0106H185.421V1.05876H173.139V39.7777H173.129Z" fill="black"/>
<path d="M199.047 53.6474V0.529358H232.239V7.28426H212.388V20.3917H225.643V27.1466H212.388V46.9137H232.239V53.6686H199.047V53.6474Z" fill="#6600FF"/>
<path d="M232.769 54.1768H198.518V0H232.769V7.81366H212.917V19.8624H226.173V27.676H212.917V46.3843H232.769V54.198V54.1768ZM199.577 53.118H231.71V47.4219H211.858V26.5961H225.114V20.8999H211.858V6.7549H231.71V1.05876H199.577V53.118Z" fill="black"/>
<path d="M271.784 53.6474V33.7956H265.188V27.0407H271.784V7.28425H258.677V53.658H245.336V0.529358H278.528V7.19955H285.114V27.136H278.528V33.6474H285.114V53.658H271.773L271.784 53.6474Z" fill="#6600FF"/>
<path d="M285.654 54.1768H271.255V34.325H264.659V26.5114H271.255V7.81366H259.206V54.1874H244.807V0H279.058V6.6702H285.643V27.6654H279.058V33.1181H285.643V54.1874L285.654 54.1768ZM272.314 53.118H284.595V34.1662H278.01V26.5961H284.595V7.72896H278.01V1.05876H245.876V53.118H258.158V6.7549H272.324V27.5807H265.728V33.2769H272.324V53.1286L272.314 53.118Z" fill="black"/>
<path d="M318.232 7.28425V53.658H304.891V7.28425H291.625V0.529358H331.487V7.28425H318.221H318.232Z" fill="#6600FF"/>
<path d="M318.761 54.1768H304.362V7.81366H291.096V0H332.017V7.81366H318.751V54.1874L318.761 54.1768ZM305.421 53.118H317.702V6.7549H330.969V1.05876H292.165V6.7549H305.431V53.1286L305.421 53.118Z" fill="black"/>
</g>
<defs>
<clipPath id="clip0_2_688">
<rect width="332.028" height="60" fill="white"/>
</clipPath>
</defs>
</svg>
