<svg width="121" height="171" viewBox="0 0 121 171" fill="none" xmlns="http://www.w3.org/2000/svg">
<g clip-path="url(#clip0_270_3054)">
<path d="M63.949 41.736L7.28516 74.0934V137.982L63.879 170.297L120.487 137.982V74.0934L63.949 41.736Z" fill="black"/>
<path d="M0.648438 133.992V70.075L56.9342 37.7177L113.094 70.075V133.992L56.8782 166.307L0.648438 133.992Z" fill="black"/>
<path d="M57.7181 102.404L57.6621 164.151L111.47 133.039L111.526 71.1951L57.7181 102.404Z" fill="white"/>
<path d="M2.2168 132.913L56.0944 164.151V102.516L2.2168 71.2791V132.913Z" fill="white"/>
<path d="M3.5332 70.299L56.8787 101.228L110.126 70.299L56.8787 39.4958L3.5332 70.299Z" fill="white"/>
<path d="M36.5625 69.837H43.1992L43.2132 60.778L59.4129 60.848V57.2217L36.5905 57.0956L36.5625 69.837Z" fill="black"/>
<path d="M54.4707 79.694L77.181 79.638V67.0787L70.6844 67.0647L70.6984 76.0396L54.4707 76.0536V79.694Z" fill="black"/>
<path d="M11.514 109.405V105.555C12.8021 106.241 13.8102 106.493 14.4683 106.185C15.1824 105.849 15.4204 104.897 15.4204 103.566V99.562C15.4204 96.5657 16.2885 95.4596 17.6326 95.3335C18.9488 95.2075 20.825 95.9916 23.1632 97.2657V100.304C21.8751 99.646 20.951 99.436 20.3489 99.786C19.6908 100.164 19.5508 101.144 19.5508 102.376V107.235C19.5508 108.145 19.3548 108.845 18.7948 109.181C18.2207 109.531 17.2266 109.559 15.4624 108.929L15.0844 108.789V110.077L15.4624 110.357C17.2406 111.701 18.2487 112.835 18.8088 113.815C19.3688 114.782 19.5508 115.678 19.5508 116.602V121.46C19.5508 122.706 19.7048 123.868 20.3629 124.975C20.965 125.983 21.8891 126.809 23.1632 127.593V130.645C20.811 129.315 18.9348 128.013 17.6186 126.417C16.2605 124.779 15.4064 122.706 15.3924 119.71V115.706C15.3924 114.376 15.1404 113.157 14.3983 112.009C13.7402 110.987 12.7741 110.147 11.5 109.391L11.514 109.405Z" fill="black"/>
<path d="M41.6038 121.208C42.2618 122.258 43.2559 123.098 44.5441 123.868V127.747C43.2839 127.103 42.3178 126.865 41.6458 127.145C40.9037 127.467 40.6517 128.419 40.6517 129.749V133.753C40.6517 136.75 39.7836 137.856 38.4394 137.982C37.1233 138.108 35.2331 137.324 32.8809 136.064V133.025C34.169 133.683 35.0931 133.894 35.6951 133.543C36.3532 133.165 36.4932 132.157 36.4932 130.897V126.039C36.4932 125.129 36.6893 124.429 37.2493 124.092C37.8234 123.742 38.8175 123.714 40.5817 124.345L40.9597 124.485V123.196L40.5817 122.916C38.8035 121.572 37.7954 120.438 37.2353 119.458C36.6752 118.492 36.4932 117.596 36.4932 116.672V111.813C36.4932 110.567 36.3392 109.419 35.6811 108.313C35.0791 107.319 34.155 106.507 32.8809 105.737V102.67C35.2331 104 37.1093 105.303 38.4254 106.885C39.7836 108.509 40.6377 110.567 40.6517 113.577V117.582C40.6517 118.898 40.8897 120.102 41.5898 121.236L41.6038 121.208Z" fill="black"/>
<path d="M83.1724 131.779L82.9064 131.807C82.7383 131.807 82.5703 131.821 82.4023 131.821C82.0243 131.821 81.6182 131.793 81.1982 131.723C80.5961 131.625 80.0781 131.471 79.644 131.275L79.476 131.191L74.6595 135.546L71.2852 130.785L75.6116 125.521L75.5836 125.395C75.5276 125.115 75.4996 124.821 75.4716 124.499C75.4436 124.163 75.4436 123.855 75.4436 123.546C75.4436 123.238 75.4436 122.93 75.4716 122.594C75.4996 122.244 75.5276 121.894 75.5836 121.53L75.6116 121.306L71.2992 119.808L74.7855 111.897L79.63 112.023L79.714 111.911C80.2041 111.281 80.7501 110.651 81.3522 110.021C81.9403 109.405 82.5283 108.873 83.0744 108.453L83.1724 108.383L83.9285 102.502L90.7752 99.52L91.5032 104.659C91.5032 104.659 92.0633 104.631 92.2033 104.631C92.6374 104.631 93.0574 104.659 93.4634 104.729C94.0095 104.813 94.5136 104.967 94.9756 105.191L95.1436 105.275L100.03 100.92L103.39 105.639L98.994 110.945L99.022 111.085C99.092 111.379 99.134 111.673 99.148 111.995C99.162 112.317 99.176 112.625 99.176 112.933C99.176 113.241 99.176 113.535 99.148 113.871C99.12 114.194 99.078 114.558 99.008 114.95L98.966 115.188L103.32 116.658L99.8341 124.611L94.9476 124.443L94.8636 124.555C94.3595 125.213 93.8275 125.843 93.2674 126.445C92.7074 127.047 92.1333 127.565 91.5732 127.999L91.4752 128.069L90.7332 133.936L83.8865 136.918L83.1444 131.779H83.1724ZM89.277 112.177C88.6469 112.177 87.9469 112.345 87.2048 112.667C85.7626 113.297 84.5165 114.376 83.5084 115.874C82.5003 117.372 81.9963 118.898 81.9963 120.424C81.9963 121.95 82.5423 123.126 83.6064 123.785C84.1385 124.107 84.7265 124.275 85.3706 124.275C86.0147 124.275 86.7007 124.107 87.4428 123.785C88.885 123.154 90.1311 122.076 91.1392 120.578C92.1473 119.08 92.6514 117.54 92.6514 116.028C92.6514 114.516 92.1053 113.325 91.0412 112.667C90.5091 112.345 89.9211 112.177 89.277 112.177Z" fill="black"/>
<path d="M27.7828 0.83783H55.9817L70.2351 25.6344L55.9817 50.4449H27.7828L13.5293 25.6344L27.7828 0.83783Z" fill="black"/>
<path d="M41.589 26.1946H15.0703L28.4557 49.339H55.0024L41.589 26.1946Z" fill="#C9FF00"/>
<path d="M41.505 26.3346L54.7644 49.1989H28.5397L15.3223 26.3346H41.505ZM41.589 26.1946H15.0703L28.4557 49.339H55.0024L41.575 26.1946H41.589Z" fill="black"/>
<path d="M28.4557 1.94409L15.0703 25.0885H41.589L54.9744 1.94409H28.4557Z" fill="#C9FF00"/>
<path d="M54.7224 2.08411L41.505 24.9485H15.3223L28.5397 2.08411H54.7224ZM54.9604 1.94409H28.4557L15.0703 25.0885H41.575L54.9744 1.94409H54.9604Z" fill="black"/>
<path d="M55.7577 2.72791L42.4844 25.6343L55.7577 48.5126L68.9891 25.6343L55.7577 2.72791Z" fill="#C9FF00"/>
<path d="M55.7581 3.00793L68.8214 25.6343L55.7581 48.2326L42.6387 25.6343L55.7581 3.00793ZM55.7581 2.72791L42.4707 25.6343L55.7581 48.5126L68.9894 25.6343L55.7581 2.72791Z" fill="black"/>
<path d="M42.7363 18.2696L27.1387 8.80466L28.4828 6.64844L44.0804 16.1134L42.7363 18.2696Z" fill="black"/>
<path d="M91.6664 33.3961L91.4734 33.4301L91.3898 33.6013L83.3942 49.2016L77.1602 13.8758L109.056 30.5832L91.6802 33.3936L91.6664 33.3961Z" fill="#FF5600"/>
<path d="M83.0538 51.3802L76.209 12.5935L111.221 30.9263L91.9237 34.0474L83.0514 51.3664L83.0538 51.3802ZM78.0842 15.163L83.71 47.0418L91.0072 32.8016L106.848 30.2336L78.0842 15.163Z" fill="black"/>
</g>
<defs>
<clipPath id="clip0_270_3054">
<rect width="119.838" height="169.459" fill="white" transform="translate(0.648438 0.83783)"/>
</clipPath>
</defs>
</svg>
