<svg width="387" height="468" viewBox="0 0 387 468" fill="none" xmlns="http://www.w3.org/2000/svg">
<rect x="7" y="7" width="380" height="130" fill="#C9FF00"/>
<rect x="0.75" y="0.75" width="378.5" height="128.5" fill="#004FFF" stroke="#C9FF00" stroke-width="1.5"/>
<path d="M116.139 60.6699C115.974 59.083 114.641 58.1689 112.66 58.1816C110.565 58.1689 109.321 59.1846 109.309 60.5684C109.296 62.1172 110.934 62.752 112.457 63.1074L114.184 63.5645C116.926 64.1992 119.566 65.6465 119.566 68.8457C119.566 72.0703 117.015 74.2793 112.609 74.2793C108.331 74.2793 105.614 72.2227 105.475 68.5918H108.725C108.877 70.5088 110.489 71.4482 112.584 71.4609C114.755 71.4482 116.253 70.3945 116.266 68.8203C116.253 67.373 114.933 66.7637 112.939 66.2559L110.857 65.7227C107.836 64.9355 105.957 63.4121 105.957 60.7715C105.957 57.5215 108.839 55.3633 112.711 55.3633C116.608 55.3633 119.262 57.5596 119.312 60.6699H116.139ZM129.037 60.2129V62.7012H126.32V69.8613C126.32 71.1816 126.98 71.4482 127.793 71.4609C128.174 71.4736 128.809 71.4355 129.215 71.4102V74.0508C128.834 74.1143 128.212 74.1904 127.387 74.1777C124.949 74.1904 123.07 72.9844 123.096 70.3945V62.7012H121.115V60.2129H123.096V56.9121H126.32V60.2129H129.037ZM130.891 70.1152C130.891 67.0176 133.468 66.1162 136.02 65.9512C136.984 65.875 138.952 65.7861 139.562 65.7607L139.549 64.6562C139.549 63.2852 138.673 62.498 137.061 62.498C135.613 62.498 134.725 63.1582 134.471 64.1484H131.348C131.576 61.7998 133.684 60.0352 137.137 60.0352C139.752 60.0352 142.773 61.1143 142.773 64.7832V74H139.676V72.0957H139.574C138.965 73.2637 137.683 74.2793 135.512 74.2793C132.884 74.2793 130.891 72.8447 130.891 70.1152ZM134.014 70.0898C134.014 71.2832 134.991 71.8926 136.35 71.8926C138.317 71.8926 139.574 70.5977 139.574 69.0488L139.562 67.9189C138.978 67.9443 137.175 68.0586 136.527 68.1094C134.991 68.2363 134.014 68.8838 134.014 70.0898ZM145.82 74V60.2129H148.969V62.498H149.121C149.616 60.9111 150.937 60.0098 152.523 60.0098C152.879 60.0098 153.387 60.0479 153.691 60.0859V63.082C153.399 62.9805 152.727 62.8916 152.193 62.8789C150.391 62.8916 149.07 64.1357 149.07 65.875V74H145.82ZM163.264 60.2129V62.7012H160.547V69.8613C160.547 71.1816 161.207 71.4482 162.02 71.4609C162.4 71.4736 163.035 71.4355 163.441 71.4102V74.0508C163.061 74.1143 162.438 74.1904 161.613 74.1777C159.176 74.1904 157.297 72.9844 157.322 70.3945V62.7012H155.342V60.2129H157.322V56.9121H160.547V60.2129H163.264ZM172.074 74V55.6172H175.375V71.207H183.5V74H172.074ZM192.107 74.2793C187.956 74.2793 185.404 71.5117 185.404 67.1953C185.404 62.9297 187.994 60.0352 191.93 60.0352C195.307 60.0352 198.227 62.1553 198.227 66.9922V68.0078H188.604C188.654 70.3564 190.038 71.7529 192.133 71.7402C193.555 71.7529 194.507 71.1436 194.926 70.3184H198.1C197.516 72.7051 195.307 74.2793 192.107 74.2793ZM188.616 65.7988H195.129C195.116 63.9199 193.847 62.5488 191.98 62.5488C190.038 62.5488 188.73 64.0469 188.616 65.7988ZM200.105 70.1152C200.105 67.0176 202.683 66.1162 205.234 65.9512C206.199 65.875 208.167 65.7861 208.776 65.7607L208.764 64.6562C208.764 63.2852 207.888 62.498 206.275 62.498C204.828 62.498 203.939 63.1582 203.686 64.1484H200.562C200.791 61.7998 202.898 60.0352 206.352 60.0352C208.967 60.0352 211.988 61.1143 211.988 64.7832V74H208.891V72.0957H208.789C208.18 73.2637 206.897 74.2793 204.727 74.2793C202.099 74.2793 200.105 72.8447 200.105 70.1152ZM203.229 70.0898C203.229 71.2832 204.206 71.8926 205.564 71.8926C207.532 71.8926 208.789 70.5977 208.789 69.0488L208.776 67.9189C208.192 67.9443 206.39 68.0586 205.742 68.1094C204.206 68.2363 203.229 68.8838 203.229 70.0898ZM215.035 74V60.2129H218.184V62.498H218.336C218.831 60.9111 220.151 60.0098 221.738 60.0098C222.094 60.0098 222.602 60.0479 222.906 60.0859V63.082C222.614 62.9805 221.941 62.8916 221.408 62.8789C219.605 62.8916 218.285 64.1357 218.285 65.875V74H215.035ZM228.086 65.9258V74H224.836V60.2129H227.934V62.5488H228.111C228.733 61.0127 230.143 60.0352 232.199 60.0352C235.056 60.0352 236.935 61.9141 236.922 65.2148V74H233.697V65.7227C233.697 63.8691 232.694 62.7646 231.006 62.7773C229.292 62.7646 228.086 63.9199 228.086 65.9258ZM240.02 74V60.2129H243.27V74H240.02ZM239.791 56.4805C239.791 55.5156 240.642 54.7285 241.67 54.7285C242.698 54.7285 243.549 55.5156 243.549 56.4805C243.549 57.458 242.698 58.2451 241.67 58.2578C240.642 58.2451 239.791 57.458 239.791 56.4805ZM249.617 65.9258V74H246.367V60.2129H249.465V62.5488H249.643C250.265 61.0127 251.674 60.0352 253.73 60.0352C256.587 60.0352 258.466 61.9141 258.453 65.2148V74H255.229V65.7227C255.229 63.8691 254.226 62.7646 252.537 62.7773C250.823 62.7646 249.617 63.9199 249.617 65.9258ZM267.568 79.459C263.912 79.459 261.589 77.834 261.373 75.2441H264.598C264.826 76.4502 265.956 77.0088 267.619 77.0215C269.562 77.0088 270.818 76.1709 270.818 74.1523V71.5117H270.666C270.158 72.5273 269.054 73.7969 266.68 73.7969C263.493 73.7969 260.992 71.4863 260.992 66.9922C260.992 62.46 263.506 60.0352 266.705 60.0352C269.13 60.0352 270.158 61.4951 270.666 62.4727H270.818V60.2129H274.018V74.2285C274.018 77.7578 271.288 79.459 267.568 79.459ZM264.293 67.043C264.293 69.582 265.436 71.2578 267.568 71.2578C269.663 71.2578 270.844 69.6836 270.844 67.043C270.844 64.415 269.676 62.6885 267.568 62.6758C265.41 62.6885 264.293 64.5293 264.293 67.043Z" fill="#C9FF00"/>
<path d="M7 172H387V468C238.601 468 155.399 468 7 468V172Z" fill="#46E9FC"/>
<path d="M0.75 165.75H379.25V460.25H379.131H378.264H377.398H376.534H375.671H374.809H373.95H373.091H372.234H371.378H370.524H369.671H368.82H367.97H367.122H366.275H365.429H364.585H363.742H362.9H362.06H361.221H360.384H359.548H358.713H357.88H357.048H356.217H355.388H354.559H353.733H352.907H352.083H351.26H350.439H349.619H348.8H347.982H347.166H346.351H345.537H344.724H343.913H343.103H342.294H341.486H340.68H339.874H339.07H338.268H337.466H336.666H335.866H335.068H334.271H333.476H332.681H331.888H331.096H330.305H329.515H328.726H327.938H327.152H326.366H325.582H324.799H324.017H323.236H322.456H321.677H320.899H320.123H319.347H318.573H317.799H317.027H316.255H315.485H314.716H313.947H313.18H312.414H311.649H310.884H310.121H309.359H308.598H307.837H307.078H306.32H305.562H304.806H304.05H303.296H302.542H301.79H301.038H300.287H299.537H298.788H298.04H297.293H296.547H295.801H295.057H294.313H293.57H292.828H292.087H291.347H290.608H289.869H289.131H288.394H287.658H286.923H286.189H285.455H284.722H283.99H283.259H282.529H281.799H281.07H280.342H279.614H278.888H278.162H277.437H276.712H275.989H275.266H274.543H273.822H273.101H272.381H271.661H270.943H270.225H269.507H268.79H268.074H267.359H266.644H265.93H265.217H264.504H263.792H263.08H262.369H261.659H260.949H260.24H259.531H258.823H258.116H257.409H256.703H255.997H255.292H254.588H253.884H253.18H252.477H251.775H251.073H250.372H249.671H248.97H248.271H247.571H246.872H246.174H245.476H244.779H244.082H243.385H242.689H241.994H241.299H240.604H239.91H239.216H238.522H237.829H237.137H236.445H235.753H235.061H234.37H233.68H232.99H232.3H231.61H230.921H230.232H229.544H228.855H228.168H227.48H226.793H226.106H225.42H224.733H224.047H223.362H222.676H221.991H221.306H220.622H219.938H219.254H218.57H217.886H217.203H216.52H215.837H215.154H214.472H213.79H213.108H212.426H211.744H211.063H210.382H209.701H209.02H208.339H207.659H206.978H206.298H205.618H204.938H204.258H203.578H202.898H202.219H201.54H200.86H200.181H199.502H198.823H198.144H197.465H196.786H196.107H195.429H194.75H194.071H193.393H192.714H192.036H191.357H190.679H190H189.321H188.643H187.964H187.286H186.607H185.929H185.25H184.571H183.893H183.214H182.535H181.856H181.177H180.498H179.819H179.14H178.46H177.781H177.102H176.422H175.742H175.062H174.382H173.702H173.022H172.341H171.661H170.98H170.299H169.618H168.937H168.256H167.574H166.892H166.21H165.528H164.846H164.163H163.48H162.797H162.114H161.43H160.746H160.062H159.378H158.694H158.009H157.324H156.638H155.953H155.267H154.58H153.894H153.207H152.52H151.832H151.145H150.456H149.768H149.079H148.39H147.7H147.01H146.32H145.63H144.939H144.247H143.555H142.863H142.171H141.478H140.784H140.09H139.396H138.701H138.006H137.311H136.615H135.918H135.221H134.524H133.826H133.128H132.429H131.729H131.03H130.329H129.628H128.927H128.225H127.523H126.82H126.116H125.412H124.708H124.003H123.297H122.591H121.884H121.177H120.469H119.76H119.051H118.341H117.631H116.92H116.208H115.496H114.783H114.07H113.356H112.641H111.926H111.21H110.493H109.775H109.057H108.339H107.619H106.899H106.178H105.457H104.734H104.011H103.288H102.563H101.838H101.112H100.386H99.6582H98.9301H98.2012H97.4715H96.741H96.0098H95.2777H94.5449H93.8113H93.0769H92.3416H91.6056H90.8687H90.131H89.3925H88.6531H87.9129H87.1718H86.4299H85.6871H84.9434H84.1989H83.4535H82.7072H81.96H81.2119H80.4629H79.713H78.9622H78.2105H77.4578H76.7042H75.9497H75.1942H74.4377H73.6804H72.922H72.1627H71.4024H70.6411H69.8789H69.1156H68.3514H67.5861H66.8199H66.0526H65.2843H64.515H63.7447H62.9733H62.2009H61.4274H60.6529H59.8773H59.1006H58.3229H57.5441H56.7642H55.9832H55.2011H54.4179H53.6337H52.8482H52.0617H51.2741H50.4853H49.6954H48.9043H48.1121H47.3188H46.5243H45.7286H44.9317H44.1337H43.3345H42.5341H41.7325H40.9297H40.1256H39.3204H38.514H37.7063H36.8974H36.0873H35.2759H34.4633H33.6494H32.8343H32.0179H31.2003H30.3813H29.5611H28.7396H27.9168H27.0927H26.2672H25.4405H24.6125H23.7831H22.9524H22.1204H21.287H20.4523H19.6162H18.7788H17.94H17.0999H16.2583H15.4154H14.5711H13.7254H12.8783H12.0298H11.1799H10.3286H9.47581H8.62163H7.76601H6.90896H6.05046H5.19051H4.3291H3.46623H2.60189H1.73608H0.868782H0.75V165.75Z" fill="#004FFF" stroke="#46E9FC" stroke-width="1.5"/>
<path d="M133.308 223.385V220.617H147.958V223.385H142.296V239H138.995V223.385H133.308ZM148.948 239V225.213H152.097V227.498H152.249C152.744 225.911 154.064 225.01 155.651 225.01C156.007 225.01 156.515 225.048 156.819 225.086V228.082C156.527 227.98 155.854 227.892 155.321 227.879C153.519 227.892 152.198 229.136 152.198 230.875V239H148.948ZM161.136 244.18C160.488 244.167 159.879 244.154 159.46 244.104V241.514C159.854 241.552 160.399 241.552 160.831 241.564C161.618 241.552 162.278 241.501 162.837 240.016L163.116 239.279L158.089 225.213H161.517L164.716 235.623H164.868L168.067 225.213H171.495L165.96 240.676C165.173 242.872 163.726 244.167 161.136 244.18ZM186.095 239H179.849V220.617H186.196C191.681 220.617 194.994 224.058 195.007 229.783C194.994 235.534 191.681 239 186.095 239ZM183.149 236.131H185.917C189.764 236.144 191.706 234.023 191.706 229.783C191.706 225.568 189.764 223.474 186.019 223.486H183.149V236.131ZM203.894 239.279C199.742 239.279 197.19 236.512 197.19 232.195C197.19 227.93 199.78 225.035 203.716 225.035C207.093 225.035 210.013 227.155 210.013 231.992V233.008H200.39C200.44 235.356 201.824 236.753 203.919 236.74C205.341 236.753 206.293 236.144 206.712 235.318H209.886C209.302 237.705 207.093 239.279 203.894 239.279ZM200.402 230.799H206.915C206.902 228.92 205.633 227.549 203.767 227.549C201.824 227.549 200.517 229.047 200.402 230.799ZM212.526 239V225.213H215.624V227.549H215.802C216.373 225.975 217.757 225.035 219.585 225.035C221.451 225.035 222.797 225.987 223.317 227.549H223.47C224.066 226.025 225.603 225.035 227.608 225.035C230.135 225.035 231.912 226.66 231.899 229.732V239H228.675V230.24C228.675 228.526 227.634 227.752 226.313 227.752C224.727 227.752 223.8 228.831 223.8 230.393V239H220.651V230.113C220.639 228.679 219.699 227.752 218.315 227.752C216.919 227.752 215.776 228.907 215.776 230.621V239H212.526ZM241.015 239.279C236.99 239.279 234.413 236.423 234.413 232.17C234.413 227.879 236.99 225.035 241.015 225.035C245.052 225.035 247.629 227.879 247.616 232.17C247.629 236.423 245.052 239.279 241.015 239.279ZM237.688 232.145C237.688 234.671 238.793 236.689 241.04 236.689C243.249 236.689 244.354 234.671 244.341 232.145C244.354 229.618 243.249 227.587 241.04 227.6C238.793 227.587 237.688 229.618 237.688 232.145Z" fill="#46E9FC"/>
<g style="mix-blend-mode:soft-light">
<circle cx="120" cy="342" r="79.25" fill="white"/>
<circle cx="120" cy="342" r="79.25" stroke="black" stroke-width="1.5"/>
</g>
<g style="mix-blend-mode:soft-light">
<circle cx="261" cy="342" r="79.25" fill="white"/>
<circle cx="261" cy="342" r="79.25" stroke="black" stroke-width="1.5"/>
</g>
<path d="M72.7617 349V334.859H77.8008C81.0918 334.859 82.7031 336.832 82.7031 339.449C82.7031 342.057 81.082 344.039 77.8008 344.039H74.9102V349H72.7617ZM74.9102 342.203H77.5859C79.666 342.213 80.5352 341.041 80.5352 339.449C80.5352 337.848 79.666 336.705 77.5859 336.695H74.9102V342.203ZM86.8828 334.859V349H84.793V334.859H86.8828ZM88.9336 346.012C88.9238 343.59 90.9844 342.965 92.8984 342.828C93.6016 342.789 95.1934 342.701 95.6816 342.682L95.6719 341.832C95.6816 340.631 94.9395 339.938 93.5234 339.938C92.293 339.938 91.5508 340.504 91.3359 341.285H89.2656C89.4512 339.527 91.0918 338.258 93.6016 338.258C95.291 338.258 97.752 338.873 97.7617 341.949V349H95.7305V347.555H95.6523C95.2422 348.346 94.2656 349.234 92.5078 349.234C90.4961 349.234 88.9238 348.082 88.9336 346.012ZM90.9648 346.031C90.9648 347.047 91.8047 347.564 92.9766 347.574C94.6758 347.564 95.6914 346.432 95.6914 345.172L95.6816 344.205C95.2031 344.234 93.6895 344.342 93.1914 344.371C91.8242 344.469 90.9648 344.986 90.9648 346.031ZM101.18 352.984C100.75 352.975 100.33 352.965 100.066 352.926V351.188C100.301 351.207 100.711 351.217 101.004 351.227C101.648 351.217 102.186 351.178 102.684 349.84L102.938 349.137L99.0508 338.395H101.277L103.953 346.617H104.07L106.746 338.395H108.992L104.617 350.406C104.002 352.086 102.928 352.975 101.18 352.984ZM125.301 339.332C124.773 337.662 123.494 336.627 121.629 336.637C119.246 336.627 117.42 338.502 117.41 341.93C117.42 345.348 119.227 347.232 121.727 347.223C123.982 347.232 125.477 345.797 125.516 343.531H122.039V341.754H127.605V343.355C127.605 346.939 125.145 349.195 121.707 349.195C117.879 349.195 115.281 346.412 115.281 341.93C115.281 337.418 117.957 334.664 121.609 334.664C124.666 334.664 127.029 336.568 127.508 339.332H125.301ZM129.422 346.012C129.412 343.59 131.473 342.965 133.387 342.828C134.09 342.789 135.682 342.701 136.17 342.682L136.16 341.832C136.17 340.631 135.428 339.938 134.012 339.938C132.781 339.938 132.039 340.504 131.824 341.285H129.754C129.939 339.527 131.58 338.258 134.09 338.258C135.779 338.258 138.24 338.873 138.25 341.949V349H136.219V347.555H136.141C135.73 348.346 134.754 349.234 132.996 349.234C130.984 349.234 129.412 348.082 129.422 346.012ZM131.453 346.031C131.453 347.047 132.293 347.564 133.465 347.574C135.164 347.564 136.18 346.432 136.18 345.172L136.17 344.205C135.691 344.234 134.178 344.342 133.68 344.371C132.312 344.469 131.453 344.986 131.453 346.031ZM140.77 349V338.395H142.781V340.133H142.898C143.348 338.951 144.393 338.258 145.789 338.258C147.205 338.258 148.191 338.951 148.641 340.133H148.758C149.256 338.99 150.408 338.258 151.941 338.258C153.855 338.258 155.213 339.459 155.223 341.891V349H153.133V342.086C153.133 340.65 152.234 340.055 151.141 340.055C149.803 340.055 149.031 340.973 149.031 342.242V349H146.961V341.969C146.961 340.807 146.17 340.055 145.027 340.055C143.855 340.055 142.859 341.031 142.859 342.457V349H140.77ZM162.312 349.215C159.188 349.215 157.264 347.057 157.273 343.766C157.264 340.504 159.217 338.258 162.176 338.258C164.588 338.258 166.883 339.752 166.883 343.59V344.332H159.344C159.402 346.354 160.594 347.496 162.332 347.496C163.514 347.496 164.285 346.988 164.637 346.344H166.746C166.277 348.062 164.646 349.215 162.312 349.215ZM159.354 342.77H164.832C164.832 341.158 163.787 339.967 162.195 339.977C160.525 339.967 159.441 341.275 159.354 342.77Z" fill="white"/>
<path d="M239.01 337L235.084 322.859H237.35L240.104 333.797H240.221L243.092 322.859H245.318L248.189 333.797H248.307L251.061 322.859H253.326L249.4 337H247.232L244.264 326.434H244.146L241.178 337H239.01ZM258.424 337.215C255.299 337.215 253.375 335.057 253.385 331.766C253.375 328.504 255.328 326.258 258.287 326.258C260.699 326.258 262.994 327.752 262.994 331.59V332.332H255.455C255.514 334.354 256.705 335.496 258.443 335.496C259.625 335.496 260.396 334.988 260.748 334.344H262.857C262.389 336.062 260.758 337.215 258.424 337.215ZM255.465 330.77H260.943C260.943 329.158 259.898 327.967 258.307 327.977C256.637 327.967 255.553 329.275 255.465 330.77ZM265.24 337V322.859H267.311V328.113H267.428C267.809 327.449 268.512 326.258 270.475 326.258C273.043 326.258 274.938 328.27 274.947 331.727C274.938 335.145 273.062 337.205 270.494 337.215C268.57 337.205 267.818 336.033 267.428 335.34H267.271V337H265.24ZM267.271 331.688C267.271 333.914 268.268 335.428 270.025 335.438C271.861 335.428 272.818 333.816 272.818 331.688C272.818 329.598 271.891 328.025 270.025 328.035C268.238 328.025 267.271 329.48 267.271 331.688ZM282.018 337.195C279.088 337.195 277.008 335.623 276.92 333.309H279.107C279.186 334.549 280.416 335.34 281.998 335.34C283.707 335.34 284.947 334.412 284.947 333.035C284.947 331.639 283.785 330.643 281.764 330.633H280.553V328.875H281.764C283.375 328.885 284.498 327.986 284.498 326.629C284.498 325.34 283.531 324.461 282.037 324.461C280.621 324.461 279.352 325.252 279.303 326.531H277.232C277.291 324.227 279.42 322.664 282.057 322.664C284.84 322.664 286.588 324.422 286.568 326.512C286.588 328.123 285.592 329.275 284.068 329.656V329.754C286.002 330.027 287.125 331.326 287.115 333.113C287.125 335.467 284.947 337.195 282.018 337.195ZM214.088 351.332C213.561 349.662 212.281 348.627 210.416 348.637C208.033 348.627 206.207 350.502 206.197 353.93C206.207 357.348 208.014 359.232 210.514 359.223C212.77 359.232 214.264 357.797 214.303 355.531H210.826V353.754H216.393V355.355C216.393 358.939 213.932 361.195 210.494 361.195C206.666 361.195 204.068 358.412 204.068 353.93C204.068 349.418 206.744 346.664 210.396 346.664C213.453 346.664 215.816 348.568 216.295 351.332H214.088ZM218.209 358.012C218.199 355.59 220.26 354.965 222.174 354.828C222.877 354.789 224.469 354.701 224.957 354.682L224.947 353.832C224.957 352.631 224.215 351.938 222.799 351.938C221.568 351.938 220.826 352.504 220.611 353.285H218.541C218.727 351.527 220.367 350.258 222.877 350.258C224.566 350.258 227.027 350.873 227.037 353.949V361H225.006V359.555H224.928C224.518 360.346 223.541 361.234 221.783 361.234C219.771 361.234 218.199 360.082 218.209 358.012ZM220.24 358.031C220.24 359.047 221.08 359.564 222.252 359.574C223.951 359.564 224.967 358.432 224.967 357.172L224.957 356.205C224.479 356.234 222.965 356.342 222.467 356.371C221.1 356.469 220.24 356.986 220.24 358.031ZM229.557 361V350.395H231.568V352.133H231.686C232.135 350.951 233.18 350.258 234.576 350.258C235.992 350.258 236.979 350.951 237.428 352.133H237.545C238.043 350.99 239.195 350.258 240.729 350.258C242.643 350.258 244 351.459 244.01 353.891V361H241.92V354.086C241.92 352.65 241.021 352.055 239.928 352.055C238.59 352.055 237.818 352.973 237.818 354.242V361H235.748V353.969C235.748 352.807 234.957 352.055 233.814 352.055C232.643 352.055 231.646 353.031 231.646 354.457V361H229.557ZM246.529 361V350.395H248.619V361H246.529ZM246.256 347.523C246.266 346.84 246.861 346.293 247.584 346.293C248.297 346.293 248.893 346.84 248.893 347.523C248.893 348.207 248.297 348.764 247.584 348.754C246.861 348.764 246.266 348.207 246.256 347.523ZM253.248 354.711V361H251.158V350.395H253.17V352.133H253.287C253.785 350.99 254.83 350.258 256.412 350.258C258.59 350.258 260.035 351.635 260.025 354.262V361H257.955V354.516C257.945 352.973 257.115 352.055 255.709 352.055C254.273 352.055 253.248 353.021 253.248 354.711ZM267.018 365.199C264.342 365.199 262.574 364.018 262.389 362.035H264.518C264.723 363.041 265.66 363.529 267.037 363.52C268.697 363.529 269.742 362.807 269.752 361.156V359.066H269.615C269.244 359.75 268.482 360.844 266.529 360.844C264.029 360.844 262.096 358.979 262.096 355.59C262.096 352.201 264 350.258 266.549 350.258C268.521 350.258 269.244 351.449 269.635 352.113H269.771V350.395H271.803V361.234C271.812 363.959 269.752 365.199 267.018 365.199ZM264.225 355.629C264.215 357.709 265.172 359.115 266.998 359.125C268.775 359.115 269.771 357.816 269.771 355.629C269.771 353.48 268.795 352.025 266.998 352.035C265.152 352.025 264.215 353.598 264.225 355.629ZM291.686 353.93C291.686 358.451 288.971 361.195 285.318 361.195C281.637 361.195 278.932 358.441 278.932 353.93C278.932 349.408 281.637 346.664 285.318 346.664C288.971 346.664 291.686 349.408 291.686 353.93ZM281.061 353.93C281.07 357.367 282.877 359.232 285.318 359.223C287.74 359.232 289.547 357.367 289.557 353.93C289.547 350.492 287.74 348.627 285.318 348.637C282.877 348.627 281.07 350.492 281.061 353.93ZM293.932 364.984V350.395H295.963V352.113H296.139C296.51 351.449 297.223 350.258 299.186 350.258C301.754 350.258 303.639 352.27 303.639 355.727C303.639 359.145 301.773 361.205 299.205 361.215C297.281 361.205 296.52 360.033 296.139 359.34H296.021V364.984H293.932ZM295.982 355.688C295.982 357.914 296.959 359.428 298.736 359.438C300.572 359.428 301.529 357.816 301.529 355.688C301.529 353.598 300.602 352.025 298.736 352.035C296.939 352.025 295.982 353.48 295.982 355.688ZM311.666 353.285C311.471 352.445 310.807 351.898 309.654 351.898C308.463 351.898 307.613 352.514 307.623 353.324C307.613 353.949 308.111 354.398 309.283 354.672L310.963 355.062C312.916 355.502 313.863 356.43 313.873 357.934C313.863 359.848 312.242 361.215 309.537 361.215C306.988 361.215 305.484 360.082 305.221 358.109H307.35C307.535 359.066 308.258 359.545 309.518 359.535C310.865 359.545 311.734 358.979 311.744 358.09C311.734 357.406 311.227 356.967 310.104 356.703L308.443 356.352C306.529 355.932 305.533 354.906 305.533 353.441C305.533 351.557 307.174 350.258 309.635 350.258C311.998 350.258 313.473 351.459 313.678 353.285H311.666ZM317.271 361.137C316.51 361.127 315.875 360.512 315.885 359.75C315.875 358.988 316.51 358.363 317.271 358.363C318.023 358.363 318.648 358.988 318.658 359.75C318.648 360.512 318.023 361.127 317.271 361.137Z" fill="white"/>
<rect x="168" y="92" width="44" height="110" fill="#004FFF"/>
<path d="M189.646 184.354C189.842 184.549 190.158 184.549 190.354 184.354L193.536 181.172C193.731 180.976 193.731 180.66 193.536 180.464C193.34 180.269 193.024 180.269 192.828 180.464L190 183.293L187.172 180.464C186.976 180.269 186.66 180.269 186.464 180.464C186.269 180.66 186.269 180.976 186.464 181.172L189.646 184.354ZM189.5 114L189.5 184L190.5 184L190.5 114L189.5 114Z" fill="white"/>
</svg>
