<svg width="655" height="1083" viewBox="0 0 655 1083" fill="none" xmlns="http://www.w3.org/2000/svg">
<g style="mix-blend-mode:luminosity" opacity="0.15">
<rect x="1.5" y="835.739" width="338.333" height="95.9867" rx="47.9933" fill="#979797" stroke="black" stroke-width="3"/>
<rect x="49.2871" y="835.739" width="242.76" height="95.9867" fill="#D9D9D9" stroke="black" stroke-width="3"/>
<line x1="47.7871" y1="901.006" x2="293.547" y2="901.006" stroke="black" stroke-width="3"/>
<g clip-path="url(#clip0_728_3)">
<path d="M170.668 824C158.277 824 146.774 827.789 137.217 834.24H95.5742V933.227H137.217C146.774 939.678 158.277 943.467 170.668 943.467C183.058 943.467 194.561 939.678 204.118 933.227H245.761V834.24H204.118C194.561 827.789 183.058 824 170.668 824Z" fill="black"/>
<path d="M170.668 827.414C181.966 827.414 192.889 830.759 202.207 837.073L203.061 837.654H242.348V929.814H203.061L202.207 930.394C192.889 936.709 181.966 940.054 170.668 940.054C159.37 940.054 148.447 936.709 139.129 930.394L138.276 929.814H98.9883V837.654H138.276L139.129 837.073C148.447 830.759 159.37 827.414 170.668 827.414Z" fill="#979797"/>
<ellipse cx="170.668" cy="883.733" rx="42.6667" ry="42.6667" transform="rotate(-45 170.668 883.733)" fill="#99DEFF" stroke="black" stroke-width="0.7"/>
<path d="M174.335 876.766L165.927 868.358L170.252 864.034L178.66 872.442L174.335 876.766Z" fill="black"/>
<path d="M159.203 891.899L150.795 883.491L155.12 879.167L163.527 887.574L159.203 891.899Z" fill="black"/>
<path d="M198.324 876.191L163.126 911.389L154.572 902.835L158.896 898.511L163.457 903.072L190.007 876.522L185.446 871.961L189.77 867.637L198.324 876.191Z" fill="black"/>
<path d="M170.667 926.4C147.149 926.4 128 907.251 128 883.733C128 860.215 147.149 841.066 170.667 841.066C194.185 841.066 213.333 860.215 213.333 883.733C213.333 907.251 194.185 926.4 170.667 926.4ZM170.667 844.48C149.026 844.48 131.413 862.093 131.413 883.733C131.413 905.374 149.026 922.987 170.667 922.987C192.307 922.987 209.92 905.374 209.92 883.733C209.92 862.093 192.307 844.48 170.667 844.48Z" fill="black"/>
</g>
</g>
<g style="mix-blend-mode:luminosity" opacity="0.15">
<rect x="11.5" y="89.2137" width="308.194" height="71.5714" rx="35.7857" fill="#FFE200" stroke="black" stroke-width="3"/>
<rect x="55.0703" y="89.2137" width="221.06" height="71.5714" fill="#D9D9D9" stroke="black" stroke-width="3"/>
<line x1="53.5703" y1="137.643" x2="277.63" y2="137.643" stroke="black" stroke-width="3"/>
<g clip-path="url(#clip1_728_3)">
<path d="M166.857 80C157.522 80 148.857 82.8543 141.657 87.7143H110.285V162.286H141.657C148.857 167.146 157.522 170 166.857 170C176.191 170 184.857 167.146 192.057 162.286H223.428V87.7143H192.057C184.857 82.8543 176.191 80 166.857 80Z" fill="black"/>
<path d="M166.857 82.5718C175.369 82.5718 183.597 85.0918 190.617 89.8489L191.26 90.2861H220.857V159.715H191.26L190.617 160.152C183.597 164.909 175.369 167.429 166.857 167.429C158.346 167.429 150.117 164.909 143.097 160.152L142.455 159.715H112.857V90.2861H142.455L143.097 89.8489C150.117 85.0918 158.346 82.5718 166.857 82.5718Z" fill="#FFE200"/>
<circle cx="166.857" cy="125" r="32.1429" transform="rotate(45 166.857 125)" fill="#99DEFF" stroke="black" stroke-width="0.7"/>
<path d="M172.105 127.764L178.439 121.43L181.697 124.688L175.363 131.022L172.105 127.764Z" fill="black"/>
<path d="M160.705 116.364L167.039 110.03L170.297 113.288L163.963 119.622L160.705 116.364Z" fill="black"/>
<path d="M172.541 145.835L146.025 119.318L152.469 112.874L155.726 116.132L152.291 119.568L172.292 139.569L175.728 136.133L178.985 139.391L172.541 145.835Z" fill="black"/>
<path d="M166.856 157.143C149.139 157.143 134.713 142.717 134.713 125C134.713 107.283 149.139 92.8571 166.856 92.8571C184.573 92.8571 198.999 107.283 198.999 125C198.999 142.717 184.573 157.143 166.856 157.143ZM166.856 95.4286C150.553 95.4286 137.285 108.697 137.285 125C137.285 141.303 150.553 154.571 166.856 154.571C183.159 154.571 196.427 141.303 196.427 125C196.427 108.697 183.159 95.4286 166.856 95.4286Z" fill="black"/>
</g>
</g>
<g style="mix-blend-mode:luminosity" opacity="0.15">
<path d="M463 79C484.539 79 502 61.5391 502 40C502 18.4609 484.539 1 463 1C441.461 1 424 18.4609 424 40C424 61.5391 441.461 79 463 79Z" fill="#FF3C24"/>
<path d="M463 2C483.96 2 501 19.04 501 40C501 60.96 483.96 78 463 78C442.04 78 425 60.96 425 40C425 19.04 442.04 2 463 2ZM463 0C440.9 0 423 17.9 423 40C423 62.1 440.9 80 463 80C485.1 80 503 62.1 503 40C503 17.9 485.1 0 463 0Z" fill="black"/>
<path d="M469 69.98L466.54 67.76C462.3 63.88 458.8 60.54 456.04 57.72C453.28 54.9 451.08 52.38 449.44 50.16C447.8 47.94 446.64 45.92 445.98 44.12C445.32 42.32 444.98 40.5 444.98 38.66C444.98 35.06 446.18 32.04 448.62 29.62C451.04 27.2 454.04 25.98 457.58 25.98C459.86 25.98 461.96 26.52 463.9 27.6C465.84 28.68 467.52 30.24 468.96 32.28C470.64 30.12 472.42 28.52 474.3 27.5C476.18 26.48 478.2 25.96 480.36 25.96C483.92 25.96 486.92 27.18 489.34 29.6C491.76 32.02 492.96 35.02 492.96 38.64C492.96 40.48 492.64 42.3 491.98 44.1C491.32 45.9 490.16 47.92 488.52 50.14C486.88 52.36 484.68 54.88 481.92 57.7C479.16 60.52 475.66 63.86 471.42 67.74L468.96 69.96L469 69.98Z" fill="black"/>
<path d="M463 65.98L460.54 63.76C456.3 59.88 452.8 56.54 450.04 53.72C447.28 50.9 445.08 48.38 443.44 46.16C441.8 43.94 440.64 41.92 439.98 40.12C439.32 38.32 438.98 36.5 438.98 34.66C438.98 31.06 440.18 28.04 442.62 25.62C445.04 23.2 448.04 21.98 451.58 21.98C453.86 21.98 455.96 22.52 457.9 23.6C459.84 24.68 461.52 26.24 462.96 28.28C464.64 26.12 466.42 24.52 468.3 23.5C470.18 22.48 472.2 21.96 474.36 21.96C477.92 21.96 480.92 23.18 483.34 25.6C485.76 28.02 486.96 31.02 486.96 34.64C486.96 36.48 486.64 38.3 485.98 40.1C485.32 41.9 484.16 43.92 482.52 46.14C480.88 48.36 478.68 50.88 475.92 53.7C473.16 56.52 469.66 59.86 465.42 63.74L462.96 65.96L463 65.98Z" fill="white" stroke="black" stroke-width="2" stroke-miterlimit="10"/>
</g>
<g style="mix-blend-mode:luminosity" opacity="0.15">
<g clip-path="url(#clip2_728_3)">
<path d="M365 650C387.091 650 405 632.091 405 610C405 587.909 387.091 570 365 570C342.909 570 325 587.909 325 610C325 632.091 342.909 650 365 650Z" fill="#FFE200"/>
<path d="M377.208 571.904L326.904 622.208C327.96 625.488 329.416 628.592 331.24 631.44L386.44 576.24C383.592 574.416 380.488 572.96 377.208 571.904Z" fill="#FFED84"/>
<path d="M405 610C405 601.184 402.136 593.04 397.304 586.432L341.432 642.304C348.04 647.136 356.184 650 365 650C365.928 650 366.856 649.952 367.784 649.888L404.904 612.768C404.968 611.856 405.016 610.928 405.016 609.984L405 610Z" fill="#FFED84"/>
<path d="M392.119 580.608L335.607 637.12C336.327 637.904 337.079 638.656 337.863 639.376L394.391 582.88C393.671 582.096 392.919 581.344 392.135 580.624L392.119 580.608Z" fill="#FFFBE6"/>
<path d="M365 643.008C383.23 643.008 398.008 628.23 398.008 610C398.008 591.77 383.23 576.992 365 576.992C346.77 576.992 331.992 591.77 331.992 610C331.992 628.23 346.77 643.008 365 643.008Z" stroke="black" stroke-width="2" stroke-miterlimit="10"/>
<path d="M353.16 597.584H344.712L360.264 613.152L344.6 628.816H353.048L368.712 613.152L353.16 597.584Z" fill="black"/>
<path d="M371.704 616.144L367.512 620.352L376.984 629.824H385.4L371.704 616.144Z" fill="black"/>
<path d="M385.24 596.576H376.888L367.512 605.952L371.704 610.16L385.24 596.576Z" fill="black"/>
<path d="M353.16 594.384H344.712L360.264 609.952L344.6 625.616H353.048L368.712 609.952L353.16 594.384Z" fill="#FF8125" stroke="black" stroke-width="2" stroke-miterlimit="10"/>
<path d="M371.704 612.944L367.512 617.152L376.984 626.624H385.4L371.704 612.944Z" fill="#FF8125" stroke="black" stroke-width="2" stroke-miterlimit="10"/>
<path d="M385.24 593.376H376.888L367.512 602.752L371.704 606.96L385.24 593.376Z" fill="#FF8125" stroke="black" stroke-width="2" stroke-miterlimit="10"/>
<path d="M365 571.6C386.168 571.6 403.4 588.832 403.4 610C403.4 631.168 386.168 648.4 365 648.4C343.832 648.4 326.6 631.168 326.6 610C326.6 588.832 343.832 571.6 365 571.6ZM365 570C342.904 570 325 587.904 325 610C325 632.096 342.904 650 365 650C387.096 650 405 632.096 405 610C405 587.904 387.096 570 365 570Z" fill="black"/>
</g>
</g>
<g style="mix-blend-mode:luminosity" opacity="0.15">
<g clip-path="url(#clip3_728_3)">
<path d="M574.164 971.928L579.181 959.386C581.741 953.038 588.908 949.966 595.256 952.474C601.809 955.085 609.284 951.911 611.946 945.358L619.42 926.724" stroke="black" stroke-width="4" stroke-miterlimit="10"/>
<path d="M536.433 1151.6H533.494C523.441 1151.25 513.575 1149.17 504.121 1145.38L504.118 1145.37C482.491 1136.74 465.585 1120.19 456.4 1098.76L456.4 1098.76C447.216 1077.38 446.915 1053.7 455.597 1032.07L455.597 1032.07C468.592 999.611 499.592 978.088 534.609 977.328H536.28H537.476L537.919 976.217L545.609 956.92L604.072 980.334L596.381 999.584L595.95 1000.66L596.772 1001.49L597.95 1002.66L597.952 1002.67C622.741 1027.36 630.368 1064.34 617.371 1096.8L617.371 1096.8C604.073 1130.07 572.265 1151.6 536.433 1151.6Z" fill="#FF3C24" stroke="black" stroke-width="3.53"/>
<path d="M615.221 940.034L599.709 941.007L611.125 930.41L599.453 920.119L615.016 920.734L614.044 905.222L624.59 916.638L634.88 904.966L634.265 920.529L649.829 919.556L638.361 930.102L650.033 940.392L634.521 939.778L635.494 955.29L624.897 943.874L614.607 955.546L615.221 940.034Z" fill="#FFE300"/>
<path d="M632.884 909.932L632.525 918.481L632.372 922.423L636.314 922.167L644.812 921.655L638.566 927.44L635.648 930.154L638.618 932.765L645.017 938.396L636.467 938.038L632.525 937.884L632.781 941.826L633.293 950.324L627.508 944.078L624.795 941.16L622.184 944.13L616.553 950.529L616.911 941.98L617.065 938.038L613.123 938.294L604.624 938.805L610.87 933.02L613.788 930.307L610.819 927.696L604.42 922.065L612.969 922.423L616.911 922.577L616.655 918.635L616.143 910.137L621.928 916.382L624.641 919.3L627.252 916.331L632.884 909.932ZM636.877 900L624.59 913.976L611.945 900.307L613.123 918.891L594.539 918.174L608.515 930.461L594.846 943.106L613.43 941.928L612.713 960.512L625 946.536L637.645 960.205L636.467 941.621L655.051 942.338L641.075 930.051L654.744 917.406L636.16 918.584L636.877 900Z" fill="black"/>
<path d="M546.622 1026.04C516.11 1026.04 491.332 1046.83 491.332 1072.42C491.332 1088.14 500.649 1102.06 514.933 1110.41V1118.29C514.933 1123.98 519.54 1128.63 525.274 1128.63H530.189V1111.38H535.666V1128.63H543.806V1111.38H549.284V1128.63H557.424V1111.38H562.902V1128.63H567.817C573.499 1128.63 578.158 1124.03 578.158 1118.29V1110.41C592.441 1102.01 601.759 1088.14 601.759 1072.42C601.759 1046.83 577.032 1026.04 546.469 1026.04H546.622ZM526.4 1086.5C519.182 1086.5 513.294 1080.2 513.294 1072.42C513.294 1064.64 519.182 1058.34 526.4 1058.34C533.619 1058.34 539.506 1064.64 539.506 1072.42C539.506 1080.2 533.619 1086.5 526.4 1086.5ZM538.636 1097.36L547.236 1082.41L555.837 1097.36H538.585H538.636ZM566.793 1086.5C559.574 1086.5 553.687 1080.2 553.687 1072.42C553.687 1064.64 559.574 1058.34 566.793 1058.34C574.011 1058.34 579.899 1064.64 579.899 1072.42C579.899 1080.2 574.011 1086.5 566.793 1086.5Z" fill="black"/>
<path d="M550.256 1117.37V1100.12H549.897V1117.37H536.638V1100.12H536.28V1117.37H523.02V1100.12H522.662V1117.37H515.188C508.071 1117.37 502.286 1111.59 502.286 1104.47V1098.02C487.491 1088.81 478.686 1074.16 478.686 1058.55C478.686 1031.57 504.641 1009.61 536.536 1009.61C568.43 1009.61 594.385 1031.57 594.385 1058.55C594.385 1074.11 585.58 1088.81 570.785 1098.02V1104.47C570.785 1111.59 565 1117.37 557.884 1117.37H550.409H550.256ZM541.246 1080.92L537.048 1073.65L532.85 1080.92H541.246ZM556.604 1047.08C550.768 1047.08 546.058 1052.25 546.058 1058.6C546.058 1064.95 550.768 1070.12 556.604 1070.12C562.44 1070.12 567.15 1064.95 567.15 1058.6C567.15 1052.25 562.44 1047.08 556.604 1047.08ZM516.211 1047.08C510.375 1047.08 505.665 1052.25 505.665 1058.6C505.665 1064.95 510.375 1070.12 516.211 1070.12C522.048 1070.12 526.757 1064.95 526.757 1058.6C526.757 1052.25 522.048 1047.08 516.211 1047.08Z" fill="white"/>
<path d="M536.382 1012.22C566.894 1012.22 591.672 1033 591.672 1058.6C591.672 1074.32 582.355 1088.24 568.072 1096.59V1104.47C568.072 1110.15 563.464 1114.81 557.73 1114.81H552.816V1097.56H547.338V1114.81H539.198V1097.56H533.72V1114.81H525.58V1097.56H520.102V1114.81H515.188C509.505 1114.81 504.847 1110.2 504.847 1104.47V1096.59C490.563 1088.19 481.246 1074.32 481.246 1058.6C481.246 1033 505.973 1012.22 536.536 1012.22M556.758 1072.68C563.976 1072.68 569.864 1066.38 569.864 1058.6C569.864 1050.82 563.976 1044.52 556.758 1044.52C549.539 1044.52 543.652 1050.82 543.652 1058.6C543.652 1066.38 549.539 1072.68 556.758 1072.68ZM516.365 1072.68C523.584 1072.68 529.471 1066.38 529.471 1058.6C529.471 1050.82 523.584 1044.52 516.365 1044.52C509.147 1044.52 503.259 1050.82 503.259 1058.6C503.259 1066.38 509.147 1072.68 516.365 1072.68ZM528.601 1083.53H545.853L537.253 1068.58L528.652 1083.53M536.638 1007.15C503.362 1007.15 476.229 1030.24 476.229 1058.65C476.229 1074.73 484.983 1089.78 499.829 1099.51V1104.52C499.829 1113.02 506.741 1119.98 515.29 1119.98H557.986C566.485 1119.98 573.447 1113.07 573.447 1104.52V1099.51C588.294 1089.78 597.048 1074.73 597.048 1058.65C597.048 1030.24 569.966 1007.15 536.638 1007.15ZM556.86 1067.61C552.457 1067.61 548.874 1063.62 548.874 1058.65C548.874 1053.69 552.457 1049.69 556.86 1049.69C561.263 1049.69 564.846 1053.69 564.846 1058.65C564.846 1063.62 561.263 1067.61 556.86 1067.61ZM516.468 1067.61C512.065 1067.61 508.481 1063.62 508.481 1058.65C508.481 1053.69 512.065 1049.69 516.468 1049.69C520.87 1049.69 524.454 1053.69 524.454 1058.65C524.454 1063.62 520.87 1067.61 516.468 1067.61Z" fill="black"/>
</g>
</g>
<defs>
<clipPath id="clip0_728_3">
<rect width="150.187" height="119.467" fill="white" transform="translate(95.5742 824)"/>
</clipPath>
<clipPath id="clip1_728_3">
<rect width="113.143" height="90" fill="white" transform="translate(110.285 80)"/>
</clipPath>
<clipPath id="clip2_728_3">
<rect width="80" height="80" fill="white" transform="translate(325 570)"/>
</clipPath>
<clipPath id="clip3_728_3">
<rect width="210" height="255.973" fill="white" transform="translate(445 900)"/>
</clipPath>
</defs>
</svg>
