<svg width="115" height="40" viewBox="0 0 115 40" fill="none" xmlns="http://www.w3.org/2000/svg">
<rect x="0.499939" y="3.92834" width="113.286" height="32.1429" rx="16.0714" fill="#979797" stroke="black"/>
<rect x="16.5" y="3.92834" width="81.2857" height="32.1429" fill="#D9D9D9" stroke="black"/>
<line x1="15.9998" y1="25.7856" x2="98.2856" y2="25.7856" stroke="black"/>
<g clip-path="url(#clip0_334_2133)">
<path d="M57.1432 -6.10352e-05C52.9946 -6.10352e-05 49.1432 1.26851 45.9432 3.42851H32.0003V36.5714H45.9432C49.1432 38.7314 52.9946 39.9999 57.1432 39.9999C61.2917 39.9999 65.1432 38.7314 68.3432 36.5714H82.286V3.42851H68.3432C65.1432 1.26851 61.2917 -6.10352e-05 57.1432 -6.10352e-05Z" fill="black"/>
<path d="M57.1433 1.14294C60.9262 1.14294 64.5833 2.26294 67.7033 4.37723L67.989 4.57152H81.1433V35.4287H67.989L67.7033 35.6229C64.5833 37.7372 60.9262 38.8572 57.1433 38.8572C53.3605 38.8572 49.7033 37.7372 46.5833 35.6229L46.2976 35.4287H33.1433V4.57152H46.2976L46.5833 4.37723C49.7033 2.26294 53.3605 1.14294 57.1433 1.14294Z" fill="#979797"/>
</g>
<ellipse cx="57.1434" cy="20.0001" rx="14.2857" ry="14.2857" fill="#99DEFF" stroke="black"/>
<path d="M59.6615 19.2192V15.238H61.7093V19.2192H59.6615Z" fill="black"/>
<path d="M52.496 19.2193V15.2381H54.5438V19.2193H52.496Z" fill="black"/>
<path d="M65.4768 24.7619H48.8102V20.7117H50.8577V22.8712H63.4293V20.7117H65.4768V24.7619Z" fill="black"/>
<defs>
<clipPath id="clip0_334_2133">
<rect width="50.2857" height="40" fill="white" transform="translate(32.0003 -6.10352e-05)"/>
</clipPath>
</defs>
</svg>
