<svg width="30" height="30" viewBox="0 0 30 30" fill="none" xmlns="http://www.w3.org/2000/svg">
<circle cx="15" cy="15" r="15" fill="#181717"/>
<path d="M2.10938 22.6763C3.93535 25.7353 6.81972 28.0894 10.2572 29.2338C11.0077 29.371 11.2812 28.9079 11.2812 28.5101C11.2812 28.3454 11.2784 28.0543 11.2747 27.6649C11.2704 27.2139 11.2649 26.6309 11.2609 25.9593C7.08858 26.8654 6.20826 23.9482 6.20826 23.9482C5.52592 22.2161 4.54246 21.7548 4.54246 21.7548C3.18054 20.8238 4.6456 20.8422 4.6456 20.8422C6.15117 20.9491 6.94309 22.3883 6.94309 22.3883C8.28107 24.6803 10.4542 24.0182 11.3088 23.6351C11.4451 22.6655 11.8318 22.0043 12.2609 21.6295C8.93026 21.2511 5.42831 19.9638 5.42831 14.2159C5.42831 12.5786 6.01304 11.2397 6.97255 10.1909C6.81785 9.81151 6.3031 8.2866 7.11897 6.22116C7.11897 6.22116 8.37867 5.81783 11.2443 7.75896C12.4405 7.42654 13.7241 7.25987 14.9995 7.25434C16.273 7.25987 17.5567 7.42654 18.7547 7.75896C21.6185 5.81783 22.8754 6.22116 22.8754 6.22116C23.6941 8.2866 23.1793 9.81151 23.0246 10.1909C23.986 11.2397 24.567 12.5786 24.567 14.2159C24.567 19.9785 21.0595 21.2465 17.7178 21.6176C18.2565 22.0808 18.7363 22.9961 18.7363 24.3958C18.7363 25.7364 18.728 26.9041 18.7226 27.6776C18.7199 28.0608 18.7178 28.3472 18.7178 28.5101C18.7178 28.9115 18.9877 29.3784 19.7492 29.232C22.4875 28.3179 24.8746 26.6366 26.6545 24.4428C23.9043 27.8331 19.7047 30 14.999 30C9.52002 30 4.7271 27.0624 2.10938 22.6763Z" fill="white"/>
</svg>
