<svg width="559" height="62" viewBox="0 0 559 62" fill="none" xmlns="http://www.w3.org/2000/svg">
<g clip-path="url(#clip0_251_1102)">
<path d="M30.5156 61.3V45.9933H7.79382V61.3H0V38.2117H7.61058V15.3922H15.2089V0H30.6989V15.3922H38.3094V38.1995H45.9078V61.2878H30.5156V61.3ZM22.905 15.5754H15.3922V38.1995H22.905V15.5754Z" fill="white"/>
<path d="M97.5697 53.6039V61.3H82.1775V53.5062H89.7881V7.79382H74.6646V61.3H59.2725V0H97.5697V7.69609H105.168V53.5917H97.5697V53.6039Z" fill="white"/>
<path d="M156.939 23.0883V45.9078H149.328V61.3H133.753V45.9078H126.155V23.0883H118.544V0H133.936V22.905H141.583V45.7246H149.145V0H164.537V23.0883H156.927H156.939Z" fill="white"/>
<path d="M200.733 61.3V45.9933H178.012V61.3H170.218V38.2117H177.828V15.3922H185.427V0H200.917V15.3922H208.527V38.1995H216.126V61.2878H200.733V61.3ZM193.135 15.5754H185.622V38.1995H193.135V15.5754Z" fill="white"/>
<path d="M252.407 61.3V45.9933H244.711V30.6989H237.296V61.3H229.502V0H244.894V15.2945H252.493V30.6011H260.005V0H267.799V61.3H252.407Z" fill="white"/>
<path d="M311.777 53.6039V61.3H288.689V53.6039H281.078V7.79382H288.689V0H319.375V15.5754H311.582V7.87933H296.458V53.5062H311.582V45.7124H319.375V53.5917H311.765L311.777 53.6039Z" fill="white"/>
<path d="M332.667 61.3V0H370.964V7.79382H348.059V22.9173H363.354V30.7111H348.059V53.5306H370.964V61.3244H332.667V61.3Z" fill="white"/>
<path d="M422.552 53.6039V61.3H407.16V53.5062H414.771V7.79382H399.647V61.3H384.255V0H422.552V7.69609H430.15V53.5917H422.552V53.6039Z" fill="white"/>
</g>
<g clip-path="url(#clip1_251_1102)">
<path d="M474.064 61V41.0526H466.17V61H462.056V41.0526H454.219V61H450.15V36.984H462.107V40.9569H466.08V36.984H474.115V40.9569H478.082V61H474.064Z" fill="white"/>
<path d="M501.09 57.0271V61H489.037V57.0271H485.064V40.9569H489.037V36.984H501.09V40.9569H505.063V57.0271H501.09ZM500.994 41.0526H489.133V56.9824H500.994V41.0526Z" fill="white"/>
<path d="M516.013 61V57.0271H512.04V40.957H516.013V36.9841H527.97V29H532.038V61H516.019H516.013ZM527.97 41.0526H516.109V56.9825H527.97V41.0526Z" fill="white"/>
<path d="M555.04 57.0271V61H542.987V57.0271H539.021V40.9569H542.987V36.984H555.04V40.9569H559.006V49.043H543.083V56.9824H554.944V53.0095H559.013V57.0271H555.046H555.04ZM554.944 41.0526H543.083V44.9744H554.944V41.0526Z" fill="white"/>
</g>
<defs>
<clipPath id="clip0_251_1102">
<rect width="430.151" height="61.3" fill="white"/>
</clipPath>
<clipPath id="clip1_251_1102">
<rect width="108.856" height="32" fill="white" transform="translate(450.15 29)"/>
</clipPath>
</defs>
</svg>
