<svg width="1920" height="1000" viewBox="0 0 1920 1000" fill="none" xmlns="http://www.w3.org/2000/svg">
<g clip-path="url(#clip0_231_1734)">
<rect width="1920" height="1000" fill="#00004A"/>
<g style="mix-blend-mode:luminosity" opacity="0.15">
<rect x="1307.5" y="312.739" width="338.333" height="95.9867" rx="47.9933" fill="#979797" stroke="black" stroke-width="3"/>
<rect x="1355.29" y="312.739" width="242.76" height="95.9867" fill="#D9D9D9" stroke="black" stroke-width="3"/>
<line x1="1353.79" y1="378.006" x2="1599.55" y2="378.006" stroke="black" stroke-width="3"/>
<g clip-path="url(#clip1_231_1734)">
<path d="M1476.67 301C1464.28 301 1452.77 304.789 1443.22 311.24H1401.57V410.226H1443.22C1452.77 416.678 1464.28 420.466 1476.67 420.466C1489.06 420.466 1500.56 416.678 1510.12 410.226H1551.76V311.24H1510.12C1500.56 304.789 1489.06 301 1476.67 301Z" fill="black"/>
<path d="M1476.67 304.414C1487.97 304.414 1498.89 307.759 1508.21 314.073L1509.06 314.654H1548.35V406.814H1509.06L1508.21 407.394C1498.89 413.708 1487.97 417.054 1476.67 417.054C1465.37 417.054 1454.45 413.708 1445.13 407.394L1444.28 406.814H1404.99V314.654H1444.28L1445.13 314.073C1454.45 307.759 1465.37 304.414 1476.67 304.414Z" fill="#979797"/>
<ellipse cx="1476.67" cy="360.733" rx="42.6667" ry="42.6667" transform="rotate(-45 1476.67 360.733)" fill="#99DEFF"/>
<path d="M1480.34 353.766L1471.93 345.358L1476.25 341.034L1484.66 349.441L1480.34 353.766Z" fill="black"/>
<path d="M1465.2 368.899L1456.79 360.491L1461.12 356.167L1469.53 364.574L1465.2 368.899Z" fill="black"/>
<path d="M1504.32 353.191L1469.13 388.389L1460.57 379.835L1464.9 375.511L1469.46 380.071L1496.01 353.521L1491.45 348.961L1495.77 344.637L1504.32 353.191Z" fill="black"/>
<path d="M1476.67 403.4C1453.15 403.4 1434 384.251 1434 360.733C1434 337.215 1453.15 318.066 1476.67 318.066C1500.18 318.066 1519.33 337.215 1519.33 360.733C1519.33 384.251 1500.18 403.4 1476.67 403.4ZM1476.67 321.48C1455.03 321.48 1437.41 339.093 1437.41 360.733C1437.41 382.374 1455.03 399.986 1476.67 399.986C1498.31 399.986 1515.92 382.374 1515.92 360.733C1515.92 339.093 1498.31 321.48 1476.67 321.48Z" fill="black"/>
</g>
</g>
<g opacity="0.45">
<path d="M7.71589 326.193C9.80668 326.193 11.5016 324.498 11.5016 322.407C11.5016 320.317 9.80668 318.622 7.71589 318.622C5.6251 318.622 3.93018 320.317 3.93018 322.407C3.93018 324.498 5.6251 326.193 7.71589 326.193Z" fill="white"/>
<path d="M191.5 554.842C193.591 554.842 195.286 553.147 195.286 551.056C195.286 548.966 193.591 547.271 191.5 547.271C189.409 547.271 187.714 548.966 187.714 551.056C187.714 553.147 189.409 554.842 191.5 554.842Z" fill="white"/>
<path d="M498.025 129.571C500.116 129.571 501.811 127.877 501.811 125.786C501.811 123.695 500.116 122 498.025 122C495.934 122 494.239 123.695 494.239 125.786C494.239 127.877 495.934 129.571 498.025 129.571Z" fill="white"/>
<path d="M15.5753 633.583C17.6661 633.583 19.361 631.888 19.361 629.797C19.361 627.706 17.6661 626.011 15.5753 626.011C13.4845 626.011 11.7896 627.706 11.7896 629.797C11.7896 631.888 13.4845 633.583 15.5753 633.583Z" fill="white"/>
<path d="M48.3238 182.637C50.4146 182.637 52.1095 180.942 52.1095 178.851C52.1095 176.761 50.4146 175.066 48.3238 175.066C46.233 175.066 44.5381 176.761 44.5381 178.851C44.5381 180.942 46.233 182.637 48.3238 182.637Z" fill="white"/>
<path d="M159.813 228.249C161.903 228.249 163.598 226.554 163.598 224.463C163.598 222.373 161.903 220.678 159.813 220.678C157.722 220.678 156.027 222.373 156.027 224.463C156.027 226.554 157.722 228.249 159.813 228.249Z" fill="white"/>
<path d="M171.786 94.5714C173.877 94.5714 175.571 92.8765 175.571 90.7857C175.571 88.6949 173.877 87 171.786 87C169.695 87 168 88.6949 168 90.7857C168 92.8765 169.695 94.5714 171.786 94.5714Z" fill="white"/>
<path d="M442.457 349.601C443.086 349.601 443.597 349.091 443.597 348.462C443.597 347.832 443.086 347.322 442.457 347.322C441.828 347.322 441.317 347.832 441.317 348.462C441.317 349.091 441.828 349.601 442.457 349.601Z" fill="white"/>
<path d="M312.446 194.675C313.076 194.675 313.586 194.165 313.586 193.536C313.586 192.906 313.076 192.396 312.446 192.396C311.817 192.396 311.307 192.906 311.307 193.536C311.307 194.165 311.817 194.675 312.446 194.675Z" fill="white"/>
<path d="M340.4 202.063C341.03 202.063 341.54 201.553 341.54 200.924C341.54 200.294 341.03 199.784 340.4 199.784C339.771 199.784 339.261 200.294 339.261 200.924C339.261 201.553 339.771 202.063 340.4 202.063Z" fill="white"/>
<path d="M129.121 319.827C130.162 319.827 131.007 318.982 131.007 317.94C131.007 316.898 130.162 316.054 129.121 316.054C128.079 316.054 127.234 316.898 127.234 317.94C127.234 318.982 128.079 319.827 129.121 319.827Z" fill="white"/>
<path d="M209.799 487.145C210.841 487.145 211.686 486.3 211.686 485.259C211.686 484.217 210.841 483.372 209.799 483.372C208.758 483.372 207.913 484.217 207.913 485.259C207.913 486.3 208.758 487.145 209.799 487.145Z" fill="white"/>
<path d="M366.992 274.503C368.034 274.503 368.878 273.658 368.878 272.617C368.878 271.575 368.034 270.73 366.992 270.73C365.95 270.73 365.105 271.575 365.105 272.617C365.105 273.658 365.95 274.503 366.992 274.503Z" fill="white"/>
<path d="M101.533 556.637C102.575 556.637 103.42 555.792 103.42 554.751C103.42 553.709 102.575 552.864 101.533 552.864C100.492 552.864 99.647 553.709 99.647 554.751C99.647 555.792 100.492 556.637 101.533 556.637Z" fill="white"/>
<path d="M176.056 874.755C178.147 874.755 179.841 873.06 179.841 870.969C179.841 868.879 178.147 867.184 176.056 867.184C173.965 867.184 172.27 868.879 172.27 870.969C172.27 873.06 173.965 874.755 176.056 874.755Z" fill="white"/>
<path d="M56.3277 519.146C58.4185 519.146 60.1134 517.451 60.1134 515.361C60.1134 513.27 58.4185 511.575 56.3277 511.575C54.2369 511.575 52.542 513.27 52.542 515.361C52.542 517.451 54.2369 519.146 56.3277 519.146Z" fill="white"/>
<path d="M179.461 435.219C181.552 435.219 183.247 433.524 183.247 431.433C183.247 429.342 181.552 427.647 179.461 427.647C177.371 427.647 175.676 429.342 175.676 431.433C175.676 433.524 177.371 435.219 179.461 435.219Z" fill="white"/>
<path d="M211.149 761.812C213.24 761.812 214.935 760.117 214.935 758.026C214.935 755.936 213.24 754.241 211.149 754.241C209.058 754.241 207.363 755.936 207.363 758.026C207.363 760.117 209.058 761.812 211.149 761.812Z" fill="white"/>
<path d="M724.786 931.571C726.877 931.571 728.571 929.877 728.571 927.786C728.571 925.695 726.877 924 724.786 924C722.695 924 721 925.695 721 927.786C721 929.877 722.695 931.571 724.786 931.571Z" fill="white"/>
<path d="M3.78572 832.693C5.87651 832.693 7.57143 830.998 7.57143 828.907C7.57143 826.817 5.87651 825.122 3.78572 825.122C1.69492 825.122 0 826.817 0 828.907C0 830.998 1.69492 832.693 3.78572 832.693Z" fill="white"/>
<path d="M440.348 728.867C440.978 728.867 441.488 728.357 441.488 727.728C441.488 727.098 440.978 726.588 440.348 726.588C439.719 726.588 439.208 727.098 439.208 727.728C439.208 728.357 439.719 728.867 440.348 728.867Z" fill="white"/>
<path d="M56.3271 707.476C56.9566 707.476 57.4668 706.966 57.4668 706.336C57.4668 705.707 56.9566 705.197 56.3271 705.197C55.6977 705.197 55.1875 705.707 55.1875 706.336C55.1875 706.966 55.6977 707.476 56.3271 707.476Z" fill="white"/>
<path d="M423.804 870.956C424.433 870.956 424.943 870.446 424.943 869.816C424.943 869.187 424.433 868.677 423.804 868.677C423.174 868.677 422.664 869.187 422.664 869.816C422.664 870.446 423.174 870.956 423.804 870.956Z" fill="white"/>
</g>
<g opacity="0.45">
<path d="M1750.49 181.812C1752.59 181.812 1754.28 180.117 1754.28 178.026C1754.28 175.935 1752.59 174.24 1750.49 174.24C1748.4 174.24 1746.71 175.935 1746.71 178.026C1746.71 180.117 1748.4 181.812 1750.49 181.812Z" fill="white"/>
<path d="M1638.79 121.571C1640.88 121.571 1642.57 119.877 1642.57 117.786C1642.57 115.695 1640.88 114 1638.79 114C1636.69 114 1635 115.695 1635 117.786C1635 119.877 1636.69 121.571 1638.79 121.571Z" fill="white"/>
<path d="M1868.91 431.328C1871 431.328 1872.7 429.633 1872.7 427.543C1872.7 425.452 1871 423.757 1868.91 423.757C1866.82 423.757 1865.13 425.452 1865.13 427.543C1865.13 429.633 1866.82 431.328 1868.91 431.328Z" fill="white"/>
<path d="M1824.52 646.001C1826.61 646.001 1828.3 644.306 1828.3 642.215C1828.3 640.124 1826.61 638.429 1824.52 638.429C1822.43 638.429 1820.73 640.124 1820.73 642.215C1820.73 644.306 1822.43 646.001 1824.52 646.001Z" fill="white"/>
<path d="M1861.04 629.391C1863.13 629.391 1864.83 627.696 1864.83 625.605C1864.83 623.514 1863.13 621.819 1861.04 621.819C1858.95 621.819 1857.25 623.514 1857.25 625.605C1857.25 627.696 1858.95 629.391 1861.04 629.391Z" fill="white"/>
<path d="M1699.68 294.767C1701.77 294.767 1703.47 293.073 1703.47 290.982C1703.47 288.891 1701.77 287.196 1699.68 287.196C1697.59 287.196 1695.9 288.891 1695.9 290.982C1695.9 293.073 1697.59 294.767 1699.68 294.767Z" fill="white"/>
<path d="M1916.21 155.77C1918.31 155.77 1920 154.075 1920 151.984C1920 149.894 1918.31 148.199 1916.21 148.199C1914.12 148.199 1912.43 149.894 1912.43 151.984C1912.43 154.075 1914.12 155.77 1916.21 155.77Z" fill="white"/>
<path d="M1470.47 322.407C1471.1 322.407 1471.61 321.897 1471.61 321.268C1471.61 320.638 1471.1 320.128 1470.47 320.128C1469.84 320.128 1469.33 320.638 1469.33 321.268C1469.33 321.897 1469.84 322.407 1470.47 322.407Z" fill="white"/>
<path d="M1854.5 343.812C1855.13 343.812 1855.64 343.301 1855.64 342.672C1855.64 342.042 1855.13 341.532 1854.5 341.532C1853.87 341.532 1853.36 342.042 1853.36 342.672C1853.36 343.301 1853.87 343.812 1854.5 343.812Z" fill="white"/>
<path d="M1487.03 180.318C1487.66 180.318 1488.17 179.808 1488.17 179.179C1488.17 178.549 1487.66 178.039 1487.03 178.039C1486.4 178.039 1485.89 178.549 1485.89 179.179C1485.89 179.808 1486.4 180.318 1487.03 180.318Z" fill="white"/>
<path d="M1903.11 730.387C1905.21 730.387 1906.9 728.692 1906.9 726.601C1906.9 724.51 1905.21 722.815 1903.11 722.815C1901.02 722.815 1899.33 724.51 1899.33 726.601C1899.33 728.692 1901.02 730.387 1903.11 730.387Z" fill="white"/>
<path d="M1765.57 375.839C1767.66 375.839 1769.36 374.144 1769.36 372.054C1769.36 369.963 1767.66 368.268 1765.57 368.268C1763.48 368.268 1761.79 369.963 1761.79 372.054C1761.79 374.144 1763.48 375.839 1765.57 375.839Z" fill="white"/>
<path d="M1876.92 879.17C1879.01 879.17 1880.7 877.475 1880.7 875.384C1880.7 873.293 1879.01 871.598 1876.92 871.598C1874.83 871.598 1873.13 873.293 1873.13 875.384C1873.13 877.475 1874.83 879.17 1876.92 879.17Z" fill="white"/>
<path d="M1751.02 828.318C1753.11 828.318 1754.8 826.623 1754.8 824.532C1754.8 822.441 1753.11 820.746 1751.02 820.746C1748.93 820.746 1747.23 822.441 1747.23 824.532C1747.23 826.623 1748.93 828.318 1751.02 828.318Z" fill="white"/>
<path d="M1462.79 871.571C1464.88 871.571 1466.57 869.877 1466.57 867.786C1466.57 865.695 1464.88 864 1462.79 864C1460.69 864 1459 865.695 1459 867.786C1459 869.877 1460.69 871.571 1462.79 871.571Z" fill="white"/>
<path d="M1468.37 701.673C1469 701.673 1469.51 701.163 1469.51 700.533C1469.51 699.904 1469 699.394 1468.37 699.394C1467.74 699.394 1467.23 699.904 1467.23 700.533C1467.23 701.163 1467.74 701.673 1468.37 701.673Z" fill="white"/>
<path d="M1598.37 856.612C1599 856.612 1599.51 856.102 1599.51 855.473C1599.51 854.843 1599 854.333 1598.37 854.333C1597.74 854.333 1597.23 854.843 1597.23 855.473C1597.23 856.102 1597.74 856.612 1598.37 856.612Z" fill="white"/>
<path d="M1570.43 849.211C1571.06 849.211 1571.57 848.701 1571.57 848.071C1571.57 847.442 1571.06 846.931 1570.43 846.931C1569.8 846.931 1569.29 847.442 1569.29 848.071C1569.29 848.701 1569.8 849.211 1570.43 849.211Z" fill="white"/>
<path d="M1781.7 732.941C1782.74 732.941 1783.58 732.097 1783.58 731.055C1783.58 730.013 1782.74 729.169 1781.7 729.169C1780.66 729.169 1779.81 730.013 1779.81 731.055C1779.81 732.097 1780.66 732.941 1781.7 732.941Z" fill="white"/>
<path d="M1639.45 608.851C1640.49 608.851 1641.34 608.006 1641.34 606.965C1641.34 605.923 1640.49 605.078 1639.45 605.078C1638.41 605.078 1637.56 605.923 1637.56 606.965C1637.56 608.006 1638.41 608.851 1639.45 608.851Z" fill="white"/>
<path d="M1543.83 778.265C1544.87 778.265 1545.71 777.421 1545.71 776.379C1545.71 775.337 1544.87 774.492 1543.83 774.492C1542.78 774.492 1541.94 775.337 1541.94 776.379C1541.94 777.421 1542.78 778.265 1543.83 778.265Z" fill="white"/>
<path d="M1809.28 496.131C1810.33 496.131 1811.17 495.286 1811.17 494.245C1811.17 493.203 1810.33 492.358 1809.28 492.358C1808.24 492.358 1807.4 493.203 1807.4 494.245C1807.4 495.286 1808.24 496.131 1809.28 496.131Z" fill="white"/>
</g>
<g opacity="0.45" clip-path="url(#clip2_231_1734)">
<path d="M445 506L439.854 518.004L445 530L433.004 524.854L421 530L426.146 518.004L421 506L433.004 511.146L445 506Z" fill="white"/>
</g>
<g style="mix-blend-mode:luminosity" opacity="0.15">
<rect x="246.5" y="879.215" width="356.987" height="71.5714" rx="35.7857" fill="#FF3C24" stroke="black" stroke-width="3"/>
<rect x="296.896" y="879.215" width="256.191" height="71.5714" fill="#D9D9D9" stroke="black" stroke-width="3"/>
<line x1="295.4" y1="927.644" x2="554.591" y2="927.644" stroke="black" stroke-width="3"/>
<g clip-path="url(#clip3_231_1734)">
<path d="M425.001 870C415.667 870 407.001 872.854 399.801 877.714H368.43V952.286H399.801C407.001 957.146 415.667 960 425.001 960C434.335 960 443.001 957.146 450.201 952.286H481.573V877.714H450.201C443.001 872.854 434.335 870 425.001 870Z" fill="black"/>
<path d="M425.002 872.572C433.513 872.572 441.742 875.092 448.762 879.849L449.405 880.286H479.002V949.715H449.405L448.762 950.152C441.742 954.909 433.513 957.429 425.002 957.429C416.491 957.429 408.262 954.909 401.242 950.152L400.599 949.715H371.002V880.286H400.599L401.242 879.849C408.262 875.092 416.491 872.572 425.002 872.572Z" fill="#FF3C24"/>
<ellipse cx="425.002" cy="915" rx="32.1429" ry="32.1429" fill="#99DEFF" stroke="black" stroke-width="0.7"/>
<path d="M430.666 913.243V904.285H435.274V913.243H430.666Z" fill="black"/>
<path d="M414.545 913.243V904.286H419.152V913.243H414.545Z" fill="black"/>
<path d="M443.752 925.714H406.252V916.601H410.859V921.46H439.145V916.601H443.752V925.714Z" fill="black"/>
<path d="M425.002 947.143C407.285 947.143 392.859 932.717 392.859 915C392.859 897.283 407.285 882.857 425.002 882.857C442.719 882.857 457.145 897.283 457.145 915C457.145 932.717 442.719 947.143 425.002 947.143ZM425.002 885.429C408.699 885.429 395.431 898.697 395.431 915C395.431 931.303 408.699 944.571 425.002 944.571C441.305 944.571 454.574 931.303 454.574 915C454.574 898.697 441.305 885.429 425.002 885.429Z" fill="black"/>
</g>
</g>
<g style="mix-blend-mode:luminosity" opacity="0.15">
<g clip-path="url(#clip4_231_1734)">
<path d="M1496 111C1517.54 111 1535 93.5391 1535 72C1535 50.4609 1517.54 33 1496 33C1474.46 33 1457 50.4609 1457 72C1457 93.5391 1474.46 111 1496 111Z" fill="#FFE200"/>
<path d="M1496 34C1516.96 34 1534 51.04 1534 72C1534 92.96 1516.96 110 1496 110C1475.04 110 1458 92.96 1458 72C1458 51.04 1475.04 34 1496 34ZM1496 32C1473.9 32 1456 49.9 1456 72C1456 94.1 1473.9 112 1496 112C1518.1 112 1536 94.1 1536 72C1536 49.9 1518.1 32 1496 32Z" fill="black"/>
<path d="M1518.12 63.54C1515.66 60.42 1511.98 58.64 1508.02 58.64H1497.86L1497.1 52.26L1483.46 75.4H1491.32L1485.74 97.06L1497.6 84.34H1508C1513.94 84.34 1519.08 80.3 1520.48 74.52C1521.42 70.66 1520.54 66.66 1518.1 63.56L1518.12 63.54Z" fill="black"/>
<path d="M1484.26 71.0401H1473.1L1495.44 42.8601L1493.34 52.2801H1502.24C1506.52 52.2801 1510.48 54.2001 1513.12 57.5601C1515.76 60.9201 1516.7 65.2201 1515.7 69.3801C1514.2 75.6201 1508.66 79.9601 1502.24 79.9601H1490.6L1491.14 77.3401L1477.6 96.8201L1484.24 71.0201L1484.26 71.0401ZM1502.26 70.9401C1504.5 70.9401 1506.42 69.4201 1506.94 67.2601C1507.28 65.8201 1506.96 64.3201 1506.04 63.1401C1505.12 61.9801 1503.74 61.3001 1502.26 61.3001H1491.34L1490.62 64.4801H1500.08L1495.6 70.9401H1502.24H1502.26Z" fill="white"/>
<path d="M1493.52 46.9001L1492.1 53.2801H1502.26C1506.22 53.2801 1509.9 55.0601 1512.36 58.1801C1514.82 61.3001 1515.68 65.3001 1514.74 69.1401C1513.34 74.9201 1508.2 78.9601 1502.26 78.9601H1491.86L1493.12 72.8001L1480 91.7001L1485.58 70.0401H1475.2L1493.56 46.9001M1489.42 65.5001H1498.22L1493.74 71.9601H1502.3C1505 71.9601 1507.32 70.1201 1507.96 67.5001C1508.38 65.7601 1507.98 63.9401 1506.88 62.5401C1505.78 61.1401 1504.1 60.3201 1502.3 60.3201H1490.58L1489.42 65.5001ZM1497.42 38.8401L1492 45.6601L1473.64 68.8001L1471.06 72.0401H1483L1478.08 91.2001L1475.3 102L1481.66 92.8401L1489.9 80.9801H1502.3C1509.18 80.9801 1515.1 76.3201 1516.72 69.6201C1517.8 65.1601 1516.8 60.5401 1513.96 56.9401C1511.12 53.3401 1506.88 51.2801 1502.3 51.2801H1494.64L1495.52 47.3401L1497.42 38.8401ZM1492.2 62.3001H1502.32C1503.5 62.3001 1504.6 62.8401 1505.32 63.7601C1506.04 64.6801 1506.3 65.8801 1506.04 67.0201C1505.62 68.7401 1504.1 69.9401 1502.32 69.9401H1497.58L1499.88 66.6201L1502.06 63.4801H1491.94L1492.2 62.3001Z" fill="black"/>
</g>
</g>
<g style="mix-blend-mode:luminosity" opacity="0.15">
<path d="M466 210.25C503.693 210.25 534.25 179.693 534.25 142C534.25 104.307 503.693 73.75 466 73.75C428.307 73.75 397.75 104.307 397.75 142C397.75 179.693 428.307 210.25 466 210.25Z" fill="#FF3C24"/>
<path d="M466 75.5C502.68 75.5 532.5 105.32 532.5 142C532.5 178.68 502.68 208.5 466 208.5C429.32 208.5 399.5 178.68 399.5 142C399.5 105.32 429.32 75.5 466 75.5ZM466 72C427.325 72 396 103.325 396 142C396 180.675 427.325 212 466 212C504.675 212 536 180.675 536 142C536 103.325 504.675 72 466 72Z" fill="black"/>
<path d="M476.501 194.465L472.196 190.58C464.776 183.79 458.651 177.945 453.821 173.01C448.991 168.075 445.141 163.665 442.271 159.78C439.401 155.895 437.371 152.36 436.216 149.21C435.061 146.06 434.466 142.875 434.466 139.655C434.466 133.355 436.566 128.07 440.836 123.835C445.071 119.6 450.321 117.465 456.516 117.465C460.506 117.465 464.181 118.41 467.576 120.3C470.971 122.19 473.911 124.92 476.431 128.49C479.371 124.71 482.486 121.91 485.776 120.125C489.066 118.34 492.601 117.43 496.381 117.43C502.611 117.43 507.861 119.565 512.096 123.8C516.331 128.035 518.431 133.285 518.431 139.62C518.431 142.84 517.871 146.025 516.716 149.175C515.561 152.325 513.531 155.86 510.661 159.745C507.791 163.63 503.941 168.04 499.111 172.975C494.281 177.91 488.156 183.755 480.736 190.545L476.431 194.43L476.501 194.465Z" fill="black"/>
<path d="M466.001 187.465L461.696 183.58C454.276 176.79 448.151 170.945 443.321 166.01C438.491 161.075 434.641 156.665 431.771 152.78C428.901 148.895 426.871 145.36 425.716 142.21C424.561 139.06 423.966 135.875 423.966 132.655C423.966 126.355 426.066 121.07 430.336 116.835C434.571 112.6 439.821 110.465 446.016 110.465C450.006 110.465 453.681 111.41 457.076 113.3C460.471 115.19 463.411 117.92 465.931 121.49C468.871 117.71 471.986 114.91 475.276 113.125C478.566 111.34 482.101 110.43 485.881 110.43C492.111 110.43 497.361 112.565 501.596 116.8C505.831 121.035 507.931 126.285 507.931 132.62C507.931 135.84 507.371 139.025 506.216 142.175C505.061 145.325 503.031 148.86 500.161 152.745C497.291 156.63 493.441 161.04 488.611 165.975C483.781 170.91 477.656 176.755 470.236 183.545L465.931 187.43L466.001 187.465Z" fill="white" stroke="black" stroke-width="2" stroke-miterlimit="10"/>
</g>
<g style="mix-blend-mode:luminosity" opacity="0.15">
<g clip-path="url(#clip5_231_1734)">
<path d="M346 686C379.137 686 406 659.137 406 626C406 592.863 379.137 566 346 566C312.863 566 286 592.863 286 626C286 659.137 312.863 686 346 686Z" fill="#FFE200"/>
<path d="M364.312 568.856L288.856 644.312C290.44 649.232 292.624 653.888 295.36 658.16L378.16 575.36C373.888 572.624 369.232 570.44 364.312 568.856Z" fill="#FFED84"/>
<path d="M405.999 626C405.999 612.776 401.703 600.56 394.455 590.648L310.647 674.456C320.559 681.704 332.775 686 345.999 686C347.391 686 348.783 685.928 350.175 685.832L405.855 630.152C405.951 628.784 406.023 627.392 406.023 625.976L405.999 626Z" fill="#FFED84"/>
<path d="M386.679 581.912L301.911 666.68C302.991 667.856 304.119 668.984 305.295 670.064L390.087 585.32C389.007 584.144 387.879 583.016 386.703 581.936L386.679 581.912Z" fill="#FFFBE6"/>
<path d="M346 675.512C373.345 675.512 395.512 653.345 395.512 626C395.512 598.655 373.345 576.488 346 576.488C318.655 576.488 296.488 598.655 296.488 626C296.488 653.345 318.655 675.512 346 675.512Z" stroke="black" stroke-width="2" stroke-miterlimit="10"/>
<path d="M328.239 607.376H315.567L338.895 630.728L315.399 654.224H328.071L351.567 630.728L328.239 607.376Z" fill="black"/>
<path d="M356.056 635.216L349.768 641.528L363.976 655.736H376.6L356.056 635.216Z" fill="black"/>
<path d="M376.36 605.864H363.832L349.768 619.928L356.056 626.24L376.36 605.864Z" fill="black"/>
<path d="M328.239 602.576H315.567L338.895 625.928L315.399 649.424H328.071L351.567 625.928L328.239 602.576Z" fill="#FF8125" stroke="black" stroke-width="2" stroke-miterlimit="10"/>
<path d="M356.056 630.416L349.768 636.728L363.976 650.936H376.6L356.056 630.416Z" fill="#FF8125" stroke="black" stroke-width="2" stroke-miterlimit="10"/>
<path d="M376.36 601.064H363.832L349.768 615.128L356.056 621.44L376.36 601.064Z" fill="#FF8125" stroke="black" stroke-width="2" stroke-miterlimit="10"/>
<path d="M346 568.4C377.752 568.4 403.6 594.248 403.6 626C403.6 657.752 377.752 683.6 346 683.6C314.248 683.6 288.4 657.752 288.4 626C288.4 594.248 314.248 568.4 346 568.4ZM346 566C312.856 566 286 592.856 286 626C286 659.144 312.856 686 346 686C379.144 686 406 659.144 406 626C406 592.856 379.144 566 346 566Z" fill="black"/>
</g>
</g>
<g style="mix-blend-mode:luminosity" opacity="0.15">
<path d="M1503.68 755.711C1504.59 748.352 1506.5 737.533 1509.05 729.299C1511.68 720.747 1515.69 708.336 1519.79 699.625C1522.06 694.812 1524.68 689.363 1527.07 685.226C1528.98 681.845 1531.44 677.907 1533.87 674.088C1534.98 672.338 1536.1 670.588 1537.29 668.877C1537.77 668.201 1538.25 667.445 1538.68 666.809C1539.32 665.894 1540 664.979 1540.67 664.064C1540.67 664.064 1540.67 664.024 1540.71 663.985C1540.71 663.985 1540.71 663.985 1540.75 663.945C1540.75 663.945 1540.79 663.905 1540.83 663.865C1541.27 663.229 1541.71 662.632 1542.18 662.036C1542.5 661.638 1542.86 661.24 1543.18 660.802C1543.42 660.484 1543.66 660.206 1543.89 659.888C1546.24 656.785 1548.71 653.523 1551.05 651.057C1557.86 643.818 1567.01 634.748 1573.93 628.543C1582.12 621.144 1593.38 614.183 1601.61 609.092C1609.45 604.239 1620.51 598.909 1629.22 595.767C1636.38 593.181 1646.4 589.999 1654.79 587.692C1659.17 586.498 1664.94 585.385 1668.91 584.788L1669.71 584.669C1674.32 583.953 1680.09 583.078 1684.63 582.759C1686.06 582.68 1687.57 582.6 1689.12 582.521C1691.83 582.282 1694.57 582.123 1697.32 582.043C1699.94 581.964 1702.61 582.004 1705.23 582.083C1707.1 582.083 1708.89 582.083 1710.48 582.123C1715.02 582.202 1721.26 582.759 1729.54 583.794C1733.31 584.271 1739.32 585.186 1743.97 586.3C1749.86 587.692 1757.34 589.521 1762.95 591.272C1773.49 594.573 1781.25 598.034 1781.25 598.034C1789.36 601.654 1793.46 603.483 1802.29 608.495C1811.75 613.865 1820.55 620.349 1820.98 620.667C1829.02 626.673 1832.04 629.339 1838.05 634.669C1840.87 637.175 1847.4 643.738 1848.95 645.448C1849.42 645.965 1849.82 646.443 1850.26 646.92C1856.35 653.364 1861.6 659.848 1865.93 666.252C1868.72 670.071 1870.39 672.815 1875.72 681.447C1879.69 687.931 1883.67 696.642 1886.34 702.409C1888.41 706.865 1890.67 713.229 1892.03 717.048C1893.66 721.582 1897.71 733.794 1900.34 749.943C1901.45 756.666 1902.33 766.172 1902.96 778.265C1903.16 781.646 1902.96 785.822 1902.84 789.522C1902.77 791.073 1902.73 792.585 1902.69 793.977C1902.49 802.489 1900.9 814.343 1898.63 824.247C1896.68 832.72 1893.5 843.301 1891.15 850.381C1889.72 854.677 1887.37 860.007 1885.5 864.303L1885.14 865.138C1883.19 869.593 1880.25 875.401 1877.86 879.578C1875.96 882.919 1873.53 886.857 1871.1 890.675C1870.39 891.789 1869.71 892.943 1868.99 894.056C1868.56 894.733 1868.04 895.369 1867.6 896.045C1867.16 896.682 1866.73 897.398 1866.29 897.994C1865.61 898.949 1864.94 899.904 1864.22 900.819C1864.22 900.858 1864.14 900.898 1864.1 900.978C1863.66 901.574 1863.23 902.211 1862.75 902.807C1862.55 903.086 1862.31 903.325 1862.11 903.563C1861.56 904.239 1861.04 904.955 1860.52 905.671C1858.33 908.575 1856.07 911.479 1853.92 913.786C1847.12 921.065 1837.93 930.095 1831.05 936.3C1822.85 943.699 1811.6 950.66 1803.36 955.751C1795.53 960.604 1784.43 965.934 1775.76 969.076C1768.56 971.662 1758.53 974.844 1750.18 977.151C1746.92 978.066 1742.3 979.021 1736.1 980.055C1729.3 981.209 1718.76 982.641 1707.3 982.8C1706.58 982.8 1705.99 982.8 1705.35 982.8C1705.15 982.8 1704.95 982.8 1704.75 982.8C1704.75 982.8 1704.75 982.8 1704.71 982.8C1703.84 982.8 1702.92 982.8 1702.13 982.8C1690.99 982.8 1685.14 982.123 1675.52 980.97C1673.57 980.731 1661.6 978.981 1651.37 976.157C1646.52 974.804 1635.14 971.662 1623.81 966.73C1615.69 963.189 1608.06 959.649 1596.36 952.41C1584.67 945.17 1575.88 937.811 1572.53 934.987C1564.62 928.344 1558.33 921.781 1554.28 917.326C1548.11 910.723 1542.78 904.041 1538.41 897.517C1536.93 895.449 1535.54 893.42 1534.39 891.59L1533.39 889.999C1531.76 887.414 1529.89 884.47 1528.58 882.004C1526.67 878.464 1521.9 869.434 1518.72 862.354C1516.57 857.541 1514.22 851.137 1513.03 847.716C1512.27 845.568 1511.48 842.943 1510.72 840.437C1510.52 839.8 1510.28 839.204 1510.12 838.567C1510.04 838.249 1509.96 837.97 1509.89 837.652L1509.25 835.584C1507.46 829.776 1505.63 821.423 1504.67 814.82C1503.92 809.49 1501.85 795.25 1502.01 785.624C1502.25 772.974 1502.84 762.911 1503.76 755.711H1503.68ZM1507.62 756.188C1506.74 763.149 1506.15 773.332 1505.91 785.663C1505.91 787.374 1505.91 789.243 1506.03 791.153C1506.66 785.425 1507.7 779.697 1509.09 773.969C1508.41 763.149 1508.73 752.41 1510 741.908C1508.93 747.119 1508.1 752.29 1507.62 756.188ZM1513.9 837.652C1514.06 838.209 1514.26 838.806 1514.42 839.402C1516.93 847.597 1520.31 855.473 1524.52 862.871C1524.13 856.546 1525.36 850.898 1528.34 846.204C1519.71 828.424 1513.74 809.569 1510.8 790.277C1510.68 789.442 1510.6 788.607 1510.48 787.772C1508.17 804.239 1509.17 820.667 1513.58 836.538L1513.94 837.692L1513.9 837.652ZM1707.5 978.782C1725.84 978.345 1743.54 973.691 1760.04 965.298C1757.9 965.735 1755.75 966.093 1753.6 966.451C1753.44 966.451 1753.28 966.491 1753.12 966.531C1752.69 966.61 1752.21 966.65 1751.77 966.73C1749.3 967.088 1746.84 967.406 1744.37 967.684C1743.89 967.724 1743.46 967.804 1742.98 967.843C1742.66 967.843 1742.38 967.883 1742.07 967.923C1739.16 968.201 1736.26 968.44 1733.35 968.599C1733.16 968.599 1732.96 968.599 1732.76 968.639C1732.32 968.639 1731.88 968.639 1731.44 968.639C1728.86 968.758 1726.23 968.838 1723.61 968.838C1723.21 968.838 1722.81 968.838 1722.38 968.838C1722.14 968.838 1721.9 968.838 1721.66 968.838C1719.71 968.838 1717.72 968.798 1715.77 968.718C1715.3 968.718 1714.86 968.718 1714.42 968.718H1714.22C1711.79 968.599 1709.33 968.48 1706.9 968.281C1706.74 968.281 1706.58 968.281 1706.38 968.281C1705.79 968.241 1705.15 968.162 1704.56 968.122C1702.84 967.963 1701.13 967.804 1699.42 967.605C1699.07 967.565 1698.71 967.525 1698.35 967.485C1697.71 967.406 1697.08 967.326 1696.48 967.247C1695.29 967.088 1694.13 966.968 1692.94 966.769C1689.48 971.145 1684.47 974.128 1678.02 975.759C1687.61 977.947 1697.44 978.981 1707.34 978.782C1707.38 978.782 1707.42 978.782 1707.46 978.782H1707.5ZM1689.36 586.498C1673.81 587.891 1658.77 592.346 1644.61 599.585C1666.25 595.289 1689 594.732 1711.79 598.034C1715.3 593.619 1720.35 590.595 1726.87 589.004C1719.43 587.334 1711.87 586.339 1704.2 586.061C1699.46 586.061 1694.21 586.22 1689.32 586.459L1689.36 586.498ZM1530.21 871.94C1532.32 875.003 1534.63 877.986 1537.01 880.85C1536.73 875.52 1537.05 869.872 1538.01 863.905C1535.34 859.53 1532.88 855.075 1530.57 850.58C1527.86 856.387 1527.82 863.706 1530.21 871.94ZM1549.42 905.711C1549.42 905.711 1549.42 905.711 1549.42 905.751C1557.14 915.815 1569.87 921.582 1586.7 922.855C1569.79 915.099 1555.19 905.115 1543.14 893.38C1543.89 895.767 1544.77 898.074 1545.88 900.222C1546.92 902.171 1548.07 904.001 1549.38 905.711H1549.42ZM1674.24 972.656C1680.29 971.662 1684.98 969.434 1688.37 966.093C1687.05 965.854 1685.74 965.616 1684.43 965.377C1683.75 965.258 1683.08 965.138 1682.4 964.979C1682.04 964.9 1681.64 964.82 1681.29 964.741C1679.85 964.462 1678.38 964.104 1676.95 963.786C1671.22 966.65 1665.57 968.798 1660.04 970.15C1662.83 971.264 1665.65 972.259 1668.48 973.134C1670.47 973.054 1672.42 972.935 1674.28 972.617L1674.24 972.656ZM1872.89 879.458C1873.33 878.663 1873.77 877.867 1874.17 877.072C1874.96 875.56 1875.68 874.048 1876.43 872.497C1876.79 871.781 1877.15 871.065 1877.47 870.309C1878.42 868.241 1879.34 866.133 1880.17 864.025C1880.25 863.826 1880.33 863.667 1880.41 863.468C1881.33 861.161 1882.2 858.854 1883 856.507C1883.27 855.751 1883.51 854.955 1883.75 854.2C1884.27 852.609 1884.79 851.017 1885.26 849.387C1885.54 848.472 1885.78 847.557 1886.06 846.602C1886.46 845.091 1886.85 843.619 1887.25 842.107C1887.49 841.153 1887.73 840.198 1887.93 839.243C1888.29 837.692 1888.6 836.141 1888.92 834.589C1889.12 833.675 1889.28 832.76 1889.48 831.805C1889.8 830.015 1890.08 828.225 1890.35 826.435C1890.47 825.719 1890.59 825.043 1890.67 824.327C1890.99 822.06 1891.23 819.792 1891.43 817.525C1889.04 819.912 1886.38 822.02 1883.31 823.81C1879.18 831.845 1874.28 839.76 1868.64 847.477C1868.91 848.472 1869.19 849.426 1869.43 850.381C1869.55 850.858 1869.67 851.336 1869.79 851.773C1870.15 853.205 1870.47 854.637 1870.74 856.069C1870.82 856.507 1870.94 856.944 1871.02 857.382C1871.3 858.893 1871.54 860.405 1871.74 861.916C1871.74 862.195 1871.82 862.473 1871.86 862.752C1872.53 868.161 1872.65 873.332 1872.18 878.185C1872.18 878.504 1872.1 878.822 1872.06 879.14C1871.98 879.936 1871.9 880.731 1871.78 881.527C1872.18 880.811 1872.57 880.134 1872.97 879.418L1872.89 879.458ZM1891.03 782.958C1890.75 780.373 1890.43 777.748 1890.04 775.162C1887.25 756.865 1881.64 739.005 1873.61 722.059C1869.87 725.958 1864.78 728.623 1858.25 729.896C1856.98 732.919 1855.59 736.021 1854.12 739.124C1858.85 765.059 1859.57 791.908 1856.23 818.042C1856.39 818.36 1856.54 818.678 1856.7 818.957C1856.98 819.514 1857.3 820.071 1857.58 820.628C1858.45 822.338 1859.29 824.009 1860.08 825.679C1860.24 825.998 1860.4 826.355 1860.56 826.674C1860.56 826.714 1860.6 826.753 1860.64 826.793C1861.52 826.674 1862.47 826.634 1863.31 826.475C1869.79 825.401 1875.4 823.571 1880.17 820.946C1885.26 810.882 1889.08 800.659 1891.63 790.397C1891.51 788.766 1891.39 787.095 1891.23 785.425C1891.15 784.589 1891.07 783.714 1890.99 782.879L1891.03 782.958ZM1874.56 692.903C1872.46 689.84 1870.15 686.896 1867.76 683.993C1868.04 689.323 1867.72 694.971 1866.73 700.977C1869.39 705.313 1871.86 709.768 1874.17 714.263C1876.87 708.456 1876.91 701.137 1874.52 692.903H1874.56ZM1818.12 624.168C1810.12 618.32 1801.93 613.149 1793.78 608.734C1800.26 616.053 1805.47 625.798 1809.21 637.811C1821.5 637.612 1832.04 639.442 1840.71 643.221C1833.95 636.697 1826.39 630.253 1818.12 624.207V624.168ZM1730.57 592.187C1724.48 593.181 1719.83 595.448 1716.41 598.79C1720.23 599.426 1724.09 600.182 1727.9 601.017C1733.67 598.153 1739.36 596.005 1744.89 594.613C1742.14 593.539 1739.36 592.545 1736.58 591.669C1734.51 591.749 1732.48 591.868 1730.57 592.187ZM1591.07 646.522C1583.35 657.063 1576.79 668.479 1571.3 680.452C1583.67 670.23 1597.28 661.28 1611.71 653.682C1611.12 651.614 1610.6 649.585 1610.2 647.596C1603.52 646.761 1597.12 646.403 1591.07 646.522ZM1609.45 643.539C1608.41 637.135 1608.25 631.129 1609.05 625.56C1603.84 630.731 1598.87 636.379 1594.13 642.505C1599.03 642.505 1604.16 642.942 1609.45 643.539ZM1534.94 712.433C1534.67 711.32 1534.43 710.246 1534.19 709.132C1534.03 708.416 1533.87 707.66 1533.75 706.944C1533.55 705.83 1533.39 704.756 1533.23 703.643C1533.15 702.966 1533.04 702.29 1532.96 701.614C1532.8 700.381 1532.72 699.148 1532.6 697.915C1532.6 697.437 1532.52 696.96 1532.48 696.483C1532.4 694.812 1532.36 693.181 1532.36 691.55C1532.36 691.113 1532.4 690.675 1532.44 690.238C1532.48 689.044 1532.56 687.891 1532.64 686.737C1532.68 686.141 1532.8 685.584 1532.84 684.987C1532.92 684.351 1532.96 683.674 1533.08 683.038C1522.1 702.648 1515.45 724.446 1513.39 747.199C1515.77 744.812 1518.48 742.704 1521.5 740.914C1525.64 732.879 1530.53 724.963 1536.18 717.207C1535.94 716.332 1535.7 715.496 1535.46 714.621C1535.26 713.865 1535.06 713.11 1534.9 712.394L1534.94 712.433ZM1541.47 885.862C1552.84 898.114 1566.93 908.535 1583.43 916.769C1566.93 902.768 1552.76 886.618 1541.31 868.997C1540.67 875.003 1540.71 880.652 1541.51 885.862H1541.47ZM1592.82 936.26C1592.34 936.857 1591.87 937.414 1591.47 937.971C1591.39 938.05 1591.31 938.13 1591.27 938.249C1590.87 938.766 1590.47 939.204 1590.12 939.641C1590.08 939.721 1590 939.761 1589.96 939.84C1589.64 940.238 1589.32 940.596 1589.04 940.914C1589 940.954 1588.96 940.994 1588.92 941.073C1588.68 941.312 1588.48 941.551 1588.29 941.789C1595.8 947.199 1603.44 952.012 1611.04 956.109C1605.31 949.625 1600.58 941.272 1596.96 931.089C1596.16 932.123 1595.41 933.118 1594.69 933.993C1594.61 934.072 1594.57 934.152 1594.49 934.232C1593.93 934.948 1593.38 935.664 1592.86 936.3L1592.82 936.26ZM1631.92 965.735C1633.99 966.451 1636.1 967.008 1638.29 967.406C1640.63 967.804 1643.02 967.963 1645.45 967.963C1629.93 959.888 1615.41 948.551 1602.37 934.271C1608.85 949.864 1618.28 960.325 1630.21 965.099C1630.77 965.337 1631.33 965.536 1631.92 965.775V965.735ZM1832.64 916.053C1833.23 915.894 1833.79 915.735 1834.35 915.576C1835.46 915.258 1836.62 914.979 1837.65 914.621C1838.29 914.422 1838.88 914.184 1839.52 913.945C1840.47 913.587 1841.43 913.269 1842.34 912.871C1842.98 912.593 1843.54 912.314 1844.13 912.036C1844.97 911.638 1845.84 911.24 1846.64 910.803C1847.2 910.484 1847.75 910.166 1848.31 909.808C1849.11 909.331 1849.86 908.893 1850.62 908.376C1851.13 908.018 1851.65 907.621 1852.13 907.263C1852.84 906.745 1853.52 906.189 1854.2 905.632C1854.67 905.234 1855.11 904.796 1855.59 904.359C1856.23 903.762 1856.82 903.165 1857.42 902.569C1857.86 902.091 1858.25 901.654 1858.69 901.137C1859.45 900.262 1860.16 899.387 1860.84 898.472C1860.84 898.472 1860.88 898.392 1860.92 898.392C1869.47 886.26 1870.7 869.832 1865.77 851.057C1858.21 860.882 1849.74 870.031 1840.39 878.384C1834.59 892.465 1827.35 905.791 1818.68 918.042C1821.62 917.843 1824.48 917.525 1827.23 917.088C1829.1 916.769 1830.89 916.411 1832.6 916.014L1832.64 916.053ZM1863.35 678.901C1851.97 666.65 1837.85 656.228 1821.34 647.954C1837.85 661.956 1852.05 678.106 1863.51 695.767C1864.14 689.76 1864.1 684.112 1863.31 678.901H1863.35ZM1666.61 662.911C1657.54 675.281 1649.19 688.647 1641.59 702.608C1643.62 705.313 1645.68 708.058 1647.87 710.802C1663.66 698.153 1680.17 686.658 1696.8 676.753C1686.62 671.503 1676.51 666.888 1666.65 662.95L1666.61 662.911ZM1552.96 747.04C1553.56 748.114 1554.12 749.188 1554.75 750.262C1555.35 751.296 1555.99 752.33 1556.58 753.324C1557.22 754.438 1557.86 755.512 1558.57 756.626C1559.21 757.66 1559.89 758.694 1560.56 759.729C1561.28 760.842 1561.99 761.956 1562.71 763.07C1563.39 764.104 1564.14 765.138 1564.86 766.172C1565.61 767.286 1566.41 768.4 1567.2 769.554C1567.92 770.588 1568.72 771.582 1569.43 772.616C1570.27 773.77 1571.1 774.923 1571.98 776.077C1572.73 777.071 1573.53 778.106 1574.32 779.1C1575.24 780.254 1576.11 781.447 1577.07 782.6C1577.11 782.64 1577.15 782.72 1577.19 782.76C1586.3 770.628 1596.48 758.774 1607.46 747.477C1587.93 740.675 1569.63 737.135 1553.92 737.294C1553.4 740.317 1552.96 743.301 1552.57 746.363C1552.69 746.602 1552.8 746.801 1552.92 747.04H1552.96ZM1579.81 785.942C1580.69 787.016 1581.56 788.09 1582.48 789.164C1583.35 790.198 1584.23 791.192 1585.1 792.227C1586.1 793.38 1587.13 794.573 1588.17 795.727C1589.08 796.721 1590 797.756 1590.91 798.75C1591.99 799.943 1593.06 801.097 1594.13 802.29C1595.05 803.285 1596.04 804.279 1596.96 805.274C1597.24 805.592 1597.55 805.87 1597.83 806.188C1602.17 787.652 1608.02 768.838 1615.14 750.301C1613.94 749.864 1612.75 749.347 1611.56 748.909C1599.98 760.763 1589.28 773.173 1579.73 785.942H1579.81ZM1813.74 918.241C1821.46 907.66 1828.06 896.244 1833.55 884.192C1821.14 894.414 1807.54 903.444 1793.06 911.081C1793.66 913.15 1794.17 915.178 1794.57 917.167C1801.25 918.002 1807.66 918.36 1813.7 918.241H1813.74ZM1850.14 831.487C1850.14 831.487 1849.98 831.487 1849.9 831.487C1833.51 831.487 1814.5 827.589 1794.25 820.389C1790.39 824.287 1786.46 828.106 1782.44 831.845C1777.94 842.107 1773.05 852.171 1767.8 861.996C1779.06 877.668 1787.29 893.062 1791.91 907.263C1808.25 898.591 1823.53 888.09 1837.09 876.037C1842.9 861.797 1847.24 846.841 1850.1 831.527L1850.14 831.487ZM1843.78 869.872C1851.29 862.593 1858.21 854.796 1864.46 846.443C1862.91 841.471 1860.96 836.3 1858.61 831.049C1857.18 831.169 1855.71 831.248 1854.2 831.328C1851.77 844.494 1848.31 857.422 1843.78 869.832V869.872ZM1806.98 644.374C1797.87 657.222 1785.14 674.923 1770.31 695.448C1783.47 704.915 1797.16 712.553 1810.12 717.923C1813.27 690.556 1812.43 665.178 1806.98 644.335V644.374ZM1813.9 719.434C1826.15 724.128 1837.69 726.753 1847.55 726.912C1840.75 698.472 1828.94 671.542 1812.11 648.591C1816.57 669.076 1817.01 693.38 1813.94 719.474L1813.9 719.434ZM1767.96 698.71C1765.06 702.728 1762.03 706.904 1758.97 711.121C1760.2 712.036 1761.44 712.99 1762.67 713.905C1763.51 714.542 1764.3 715.178 1765.1 715.814C1766.81 717.127 1768.52 718.479 1770.19 719.832C1771.14 720.588 1772.06 721.343 1772.97 722.099C1774.52 723.372 1776.03 724.605 1777.55 725.878C1778.46 726.674 1779.42 727.429 1780.33 728.225C1781.84 729.498 1783.31 730.771 1784.79 732.044C1785.66 732.799 1786.54 733.595 1787.41 734.351C1788.96 735.703 1790.43 737.095 1791.95 738.448C1792.7 739.124 1793.46 739.8 1794.17 740.516C1796.04 742.266 1797.87 744.016 1799.7 745.767C1800.02 746.085 1800.38 746.403 1800.7 746.721C1802.05 748.034 1803.36 749.386 1804.71 750.699C1806.78 740.993 1808.45 731.407 1809.65 722.02C1796 716.53 1781.72 708.575 1767.96 698.71ZM1603.36 811.797C1604.56 812.99 1605.71 814.144 1606.94 815.337C1607.94 816.332 1609.01 817.286 1610.04 818.281C1611.28 819.434 1612.51 820.628 1613.74 821.781C1614.78 822.736 1615.89 823.73 1616.93 824.685C1618.2 825.838 1619.47 827.032 1620.78 828.185C1621.86 829.14 1622.97 830.095 1624.09 831.049C1625.44 832.203 1626.75 833.356 1628.1 834.51C1629.22 835.465 1630.37 836.379 1631.52 837.334C1632.92 838.488 1634.27 839.601 1635.7 840.755C1636.85 841.67 1638.05 842.624 1639.2 843.539C1640.63 844.653 1642.03 845.807 1643.5 846.92C1644.69 847.835 1645.92 848.75 1647.12 849.665C1648.31 850.54 1649.46 851.455 1650.66 852.33C1664.5 833.595 1679.02 813.826 1693.5 794.096C1693.1 793.818 1692.74 793.539 1692.34 793.261C1668.08 775.48 1642.78 761.399 1618.84 751.773C1611.44 770.946 1605.47 790.437 1601.09 809.569C1601.85 810.325 1602.61 811.041 1603.32 811.797H1603.36ZM1738.21 901.893C1747.24 889.522 1755.63 876.196 1763.23 862.235C1761.2 859.53 1759.13 856.785 1756.94 854.04C1741.15 866.69 1724.64 878.185 1708.06 888.09C1718.24 893.34 1728.3 897.955 1738.21 901.893ZM1742.03 903.364C1754.36 908.098 1766.33 911.757 1777.71 914.303C1781.4 912.632 1785.02 910.882 1788.6 909.053C1784.31 895.568 1776.55 880.85 1765.81 865.775C1758.53 878.981 1750.58 891.59 1742.03 903.364ZM1765.22 858.496C1768.68 851.972 1771.98 845.369 1775.12 838.647C1770.15 843.102 1765.06 847.437 1759.93 851.654C1761.75 853.961 1763.54 856.228 1765.26 858.535L1765.22 858.496ZM1696.48 886.459C1694.21 885.226 1691.95 883.953 1689.68 882.64C1688.09 881.726 1686.54 880.811 1684.94 879.896C1682.68 878.543 1680.37 877.151 1678.1 875.759C1676.55 874.804 1675 873.85 1673.45 872.855C1671.1 871.383 1668.76 869.832 1666.45 868.281C1664.98 867.326 1663.5 866.332 1662.07 865.337C1659.57 863.627 1657.1 861.877 1654.59 860.087C1653.56 859.331 1652.53 858.655 1651.49 857.899C1648.31 862.235 1645.25 866.332 1642.38 870.23C1655.31 880.134 1666.41 890.715 1675.2 901.256C1683.39 897.398 1691.67 893.062 1699.94 888.329C1698.79 887.732 1697.67 887.056 1696.52 886.419L1696.48 886.459ZM1639.96 873.492C1622.93 896.483 1611.32 912.115 1603.28 922.736C1623.93 921.065 1647.28 914.025 1671.38 903.046C1662.87 892.982 1652.25 882.879 1640 873.492H1639.96ZM1606.42 926.435C1633.27 935.465 1662.43 938.527 1691.59 936.34C1688.37 926.992 1682.32 916.69 1673.89 906.189C1650.1 917.167 1626.99 924.287 1606.38 926.435H1606.42ZM1653.88 854.717C1670.35 866.69 1687.25 877.151 1703.96 886.021C1721.1 875.918 1738.17 864.144 1754.44 851.057C1739.04 832.441 1719.47 813.746 1696.68 796.562C1682.24 816.292 1667.72 835.982 1653.88 854.757V854.717ZM1757.42 848.631C1764.86 842.545 1772.14 836.18 1779.22 829.617C1781.05 825.401 1782.8 821.105 1784.51 816.809C1760.76 807.262 1735.74 793.38 1711.72 775.997C1707.5 781.765 1703.28 787.533 1699.03 793.301C1722.06 810.683 1741.83 829.657 1757.42 848.591V848.631ZM1786.38 822.776C1787.65 821.542 1788.92 820.27 1790.2 818.997C1789.52 818.758 1788.84 818.48 1788.17 818.241C1787.57 819.752 1786.97 821.264 1786.38 822.776ZM1785.98 813.149C1793.42 793.977 1799.34 774.446 1803.72 755.313C1789.84 741.272 1774.05 727.469 1756.62 714.422C1743.38 732.68 1728.9 752.529 1714.06 772.815C1737.81 790.039 1762.55 803.762 1785.94 813.149H1785.98ZM1789.64 814.581C1790.83 815.019 1792.03 815.536 1793.22 815.974C1804.79 804.12 1815.49 791.709 1825.04 778.941C1819.47 772.179 1813.47 765.417 1806.98 758.694C1802.65 777.231 1796.8 796.085 1789.68 814.581H1789.64ZM1827.63 782.083C1818.52 794.255 1808.29 806.069 1797.36 817.406C1816.89 824.208 1835.18 827.748 1850.9 827.589C1851.41 824.566 1851.85 821.542 1852.25 818.519C1845.76 806.706 1837.53 794.454 1827.63 782.123V782.083ZM1789.76 912.871C1787.93 913.826 1786.06 914.78 1784.19 915.656C1786.38 916.053 1788.56 916.491 1790.71 916.809C1790.43 915.496 1790.12 914.184 1789.76 912.871ZM1767.44 915.934C1765.49 915.417 1763.51 914.82 1761.52 914.224C1759.96 913.786 1758.45 913.348 1756.86 912.831C1754.67 912.155 1752.45 911.36 1750.22 910.604C1748.83 910.126 1747.44 909.689 1746.04 909.172C1743.93 908.416 1741.79 907.541 1739.64 906.745C1732.32 916.57 1724.8 925.401 1717.24 933.158C1735.9 929.816 1754.24 924.367 1771.7 917.008C1770.31 916.65 1768.88 916.292 1767.48 915.934H1767.44ZM1735.74 905.274C1735.74 905.274 1735.58 905.194 1735.5 905.194C1734.75 904.876 1734.03 904.558 1733.27 904.279C1730.17 903.006 1727.11 901.694 1723.97 900.301C1722.61 899.705 1721.26 899.029 1719.87 898.392C1717.44 897.278 1715.06 896.165 1712.63 894.971C1711.12 894.216 1709.61 893.46 1708.1 892.664C1706.7 891.988 1705.35 891.312 1704 890.596C1695.25 895.687 1686.46 900.381 1677.75 904.518C1686.38 915.457 1692.54 926.236 1695.72 936.101C1700.66 935.664 1705.59 935.027 1710.48 934.271C1718.99 925.998 1727.47 916.292 1735.7 905.313L1735.74 905.274ZM1696.84 939.84C1697.32 941.749 1697.67 943.619 1697.91 945.449C1700.46 943.38 1703.04 941.193 1705.59 938.846C1702.65 939.243 1699.74 939.562 1696.8 939.84H1696.84ZM1692.82 940.198C1686.42 940.715 1680.05 941.033 1673.69 941.033C1652.05 941.033 1630.69 938.05 1610.48 931.885C1610.84 932.123 1611.2 932.362 1611.56 932.561C1613.27 933.635 1614.94 934.669 1616.69 935.703C1618.04 936.499 1619.39 937.255 1620.7 938.01C1622.38 938.965 1624.09 939.88 1625.76 940.755C1627.15 941.471 1628.54 942.187 1629.93 942.903C1631.6 943.738 1633.31 944.574 1635.02 945.369C1636.42 946.045 1637.85 946.682 1639.28 947.318C1640.99 948.074 1642.74 948.79 1644.45 949.506C1645.84 950.063 1647.28 950.66 1648.67 951.216C1650.46 951.893 1652.29 952.529 1654.08 953.205C1655.35 953.643 1656.62 954.12 1657.94 954.558C1658.25 954.677 1658.61 954.757 1658.93 954.876C1660.68 955.473 1662.47 955.99 1664.26 956.507C1665.06 956.745 1665.85 956.984 1666.65 957.223C1667.52 957.461 1668.4 957.7 1669.27 957.939C1671.42 958.535 1673.53 959.053 1675.68 959.57C1675.92 959.609 1676.15 959.689 1676.43 959.729C1682.24 956.706 1688.17 952.927 1694.17 948.392C1694.01 945.767 1693.62 943.062 1692.82 940.198ZM1682.4 960.962C1684.51 961.399 1686.58 961.837 1688.68 962.195C1689.52 962.354 1690.35 962.473 1691.19 962.593C1692.86 959.888 1693.82 956.785 1694.13 953.325C1690.2 956.189 1686.3 958.734 1682.4 960.962ZM1598.39 922.617C1598.87 921.98 1599.34 921.344 1599.86 920.667C1600.26 920.15 1600.66 919.633 1601.05 919.116C1601.37 918.718 1601.65 918.321 1602.01 917.883C1602.45 917.286 1602.92 916.69 1603.36 916.053C1603.68 915.656 1604 915.218 1604.32 914.82C1604.63 914.383 1604.99 913.905 1605.35 913.468C1605.83 912.831 1606.31 912.195 1606.82 911.519C1607.3 910.882 1607.82 910.206 1608.29 909.53C1608.65 909.052 1608.97 908.615 1609.33 908.177C1616.65 898.392 1625.8 886.141 1636.89 871.185C1636.66 871.025 1636.46 870.827 1636.22 870.667C1622.53 860.644 1608.29 852.609 1594.77 847.04C1591.51 875.321 1592.5 901.455 1598.47 922.656L1598.39 922.617ZM1590.95 845.528C1578.7 840.834 1567.16 838.209 1557.3 838.09C1564.1 866.531 1575.92 893.46 1592.74 916.411C1588.29 895.926 1587.85 871.622 1590.91 845.528H1590.95ZM1637.33 869.037L1638.52 867.445C1638.76 867.605 1639 867.803 1639.24 867.963C1642.14 864.064 1645.17 859.967 1648.35 855.671C1646.72 854.438 1645.09 853.245 1643.5 852.012C1642.82 851.495 1642.14 851.017 1641.51 850.5C1639 848.591 1636.58 846.642 1634.15 844.693C1633.35 844.056 1632.56 843.38 1631.76 842.744C1630.13 841.391 1628.5 840.079 1626.87 838.726C1625.92 837.931 1624.96 837.095 1624.05 836.3C1622.61 835.107 1621.22 833.873 1619.83 832.64C1618.84 831.765 1617.88 830.93 1616.93 830.055C1615.57 828.861 1614.26 827.668 1612.95 826.475C1611.99 825.6 1611.08 824.764 1610.12 823.889C1608.81 822.656 1607.5 821.383 1606.19 820.15C1605.35 819.315 1604.48 818.519 1603.64 817.684C1602.49 816.531 1601.33 815.377 1600.18 814.263C1598.11 824.009 1596.44 833.595 1595.25 842.982C1609.41 848.71 1624.32 857.024 1638.56 867.445L1637.41 869.037H1637.33ZM1616.65 746.801C1617.24 745.289 1617.84 743.778 1618.44 742.266C1617.16 743.499 1615.89 744.772 1614.62 746.045C1615.29 746.284 1615.97 746.562 1616.65 746.841V746.801ZM1620.31 748.233C1644.61 757.978 1670.23 772.219 1694.73 790.198C1695.13 790.476 1695.49 790.755 1695.84 791.033C1700.06 785.266 1704.32 779.498 1708.49 773.77C1684.27 755.83 1663.58 736.141 1647.4 716.451C1639.96 722.537 1632.68 728.901 1625.6 735.464C1623.77 739.721 1621.98 743.977 1620.31 748.273V748.233ZM1644.89 713.388C1643.06 711.081 1641.27 708.814 1639.56 706.507C1636.1 713.03 1632.8 719.633 1629.65 726.355C1634.63 721.9 1639.72 717.565 1644.89 713.348V713.388ZM1650.34 714.024C1666.33 733.356 1686.85 752.847 1710.84 770.588C1725.68 750.301 1740.16 730.452 1753.4 712.155C1753.12 711.956 1752.84 711.717 1752.57 711.518C1735.58 699.068 1718.12 688.209 1700.86 679.06C1683.71 689.164 1666.65 700.938 1650.34 714.024ZM1754.91 708.297C1755.19 708.495 1755.47 708.734 1755.75 708.933C1758.81 704.717 1761.79 700.58 1764.74 696.562C1750.82 686.18 1738.92 674.963 1729.61 663.786C1721.42 667.644 1713.15 671.98 1704.87 676.713C1721.62 685.703 1738.49 696.284 1754.91 708.297ZM1767.09 693.3C1781.96 672.736 1794.69 655.035 1803.8 642.187C1782.6 643.539 1758.41 650.58 1733.43 661.996C1742.46 672.696 1753.88 683.436 1767.09 693.3ZM1798.35 638.646C1771.5 629.617 1742.34 626.554 1713.19 628.742C1716.41 638.09 1722.45 648.392 1730.89 658.893C1754.67 647.915 1777.79 640.794 1798.35 638.686V638.646ZM1861.6 671.662C1860.84 669.275 1859.97 666.968 1858.85 664.82C1851.81 651.335 1837.77 643.658 1818.04 642.187C1834.95 649.943 1849.58 659.927 1861.6 671.662ZM1818.44 650.977C1834.03 673.531 1845.05 699.545 1851.49 726.992C1852.84 726.912 1854.12 726.793 1855.39 726.594C1858.85 717.962 1861.28 709.728 1862.63 702.012C1850.94 683.078 1835.98 665.814 1818.44 650.977ZM1859.97 725.6C1865.06 724.207 1868.99 721.781 1871.74 718.36C1869.83 714.542 1867.76 710.802 1865.61 707.103C1864.3 713.03 1862.39 719.235 1859.97 725.6ZM1852.41 730.93C1852.53 731.526 1852.65 732.123 1852.77 732.72C1853.04 732.083 1853.32 731.447 1853.6 730.81C1853.2 730.81 1852.81 730.89 1852.37 730.93H1852.41ZM1848.39 731.089C1838.13 731.089 1826.07 728.464 1813.35 723.69C1812.03 733.674 1810.2 743.897 1807.9 754.239C1808.06 754.398 1808.21 754.557 1808.37 754.717C1809.93 756.347 1811.48 757.939 1813.03 759.569C1813.7 760.285 1814.34 760.962 1814.98 761.678C1816.29 763.11 1817.56 764.502 1818.84 765.934C1819.51 766.69 1820.19 767.445 1820.86 768.201C1822.1 769.593 1823.29 770.986 1824.44 772.378C1825.08 773.133 1825.72 773.889 1826.35 774.645C1826.67 775.043 1827.03 775.441 1827.35 775.799C1836.62 763.07 1844.17 750.62 1849.98 738.726C1849.5 736.141 1848.99 733.595 1848.43 731.009L1848.39 731.089ZM1829.89 779.06C1830.41 779.737 1830.97 780.373 1831.48 781.049C1832.84 782.76 1834.15 784.47 1835.42 786.18C1835.74 786.578 1836.06 786.976 1836.34 787.374C1837.97 789.562 1839.52 791.709 1841.07 793.857C1841.07 793.897 1841.15 793.977 1841.19 794.017C1842.62 796.085 1844.01 798.114 1845.37 800.182C1845.72 800.699 1846.04 801.216 1846.36 801.733C1847.4 803.324 1848.39 804.876 1849.38 806.467C1849.78 807.103 1850.14 807.74 1850.54 808.336C1851.33 809.649 1852.13 810.962 1852.88 812.274C1855.23 790.039 1854.63 767.366 1851.09 745.289C1845.41 756.188 1838.33 767.485 1829.89 779.021V779.06ZM1854.79 827.589C1855.43 827.589 1856.07 827.509 1856.7 827.469C1856.23 826.515 1855.75 825.52 1855.23 824.566C1855.07 825.56 1854.95 826.594 1854.75 827.589H1854.79ZM1865.65 839.124C1865.73 839.363 1865.81 839.562 1865.89 839.8C1866.29 840.874 1866.65 841.908 1867.01 842.943C1870.7 837.692 1874.09 832.402 1877.07 827.032C1873.09 828.623 1868.76 829.856 1863.9 830.651C1863.39 830.731 1862.83 830.771 1862.27 830.85C1863.51 833.635 1864.62 836.379 1865.61 839.124H1865.65ZM1807.18 922.418C1805.39 922.338 1803.56 922.298 1801.73 922.139C1800.38 922.02 1798.99 921.901 1797.59 921.741C1796.84 921.662 1796.08 921.622 1795.33 921.543C1796.36 927.907 1796.48 933.913 1795.68 939.482C1800.9 934.311 1805.87 928.663 1810.6 922.537C1809.49 922.537 1808.33 922.457 1807.18 922.418ZM1791.47 921.025C1790.28 920.866 1789 920.628 1787.81 920.429C1786.02 920.15 1784.23 919.832 1782.4 919.474C1780.93 919.196 1779.46 918.917 1777.98 918.559C1757.1 927.827 1734.95 934.43 1712.39 937.971C1707.7 942.465 1702.96 946.642 1698.27 950.302C1698.31 955.075 1697.44 959.411 1695.49 963.229C1697.36 963.468 1699.22 963.746 1701.13 963.985C1701.53 964.025 1701.93 964.064 1702.33 964.104C1702.88 964.144 1703.44 964.224 1703.96 964.263C1707.62 964.621 1711.24 964.86 1714.86 964.979C1715.73 964.979 1716.57 964.979 1717.44 965.019C1720.47 965.099 1723.53 965.099 1726.51 965.019C1727.51 965.019 1728.5 965.019 1729.5 964.94C1733.12 964.82 1736.7 964.582 1740.28 964.263C1740.79 964.224 1741.31 964.144 1741.87 964.104C1745.21 963.746 1748.55 963.349 1751.85 962.831C1751.89 962.831 1751.97 962.831 1752.01 962.831C1752.88 962.672 1753.8 962.553 1754.67 962.394C1757.74 961.877 1760.76 961.28 1763.74 960.604C1764.22 960.485 1764.7 960.405 1765.22 960.286C1765.65 960.206 1766.05 960.087 1766.45 959.967C1768.4 959.49 1770.35 958.933 1772.3 958.376C1778.7 954.2 1784.87 949.466 1790.79 944.096C1792.78 937.255 1792.9 929.458 1791.47 920.986V921.025ZM1784.47 954.598C1785.02 954.399 1785.62 954.2 1786.18 954.001C1786.5 953.523 1786.77 953.046 1787.05 952.569C1786.18 953.285 1785.3 953.921 1784.43 954.598H1784.47ZM1666.05 961.24C1665.37 961.041 1664.74 960.843 1664.06 960.644C1662.51 960.206 1661 959.729 1659.45 959.251C1659.09 959.132 1658.69 959.013 1658.33 958.893C1657.58 958.655 1656.82 958.376 1656.07 958.138C1654.75 957.7 1653.44 957.263 1652.17 956.785C1651.61 956.586 1651.01 956.387 1650.46 956.149C1649.78 955.91 1649.15 955.672 1648.47 955.393C1647.24 954.916 1646.04 954.438 1644.81 953.961C1644.05 953.683 1643.34 953.364 1642.58 953.046C1642.07 952.847 1641.55 952.648 1641.03 952.41C1639.84 951.893 1638.6 951.376 1637.41 950.819C1636.58 950.461 1635.78 950.103 1634.94 949.705C1633.23 948.909 1631.48 948.114 1629.77 947.279C1629.1 946.96 1628.42 946.642 1627.75 946.284C1627.31 946.045 1626.83 945.847 1626.39 945.608C1625.68 945.25 1625 944.852 1624.28 944.494C1622.57 943.619 1620.9 942.704 1619.23 941.789C1618.4 941.312 1617.52 940.835 1616.69 940.357C1615.69 939.8 1614.7 939.204 1613.7 938.607C1613.11 938.249 1612.47 937.851 1611.87 937.493C1611.08 937.016 1610.32 936.539 1609.53 936.061C1609.41 935.982 1609.25 935.902 1609.13 935.823C1622.61 949.625 1637.61 960.286 1653.52 967.525C1659.09 966.69 1664.82 964.979 1670.74 962.394C1669.19 961.996 1667.6 961.598 1666.05 961.161V961.24ZM1586.3 914.224C1570.7 891.63 1559.69 865.616 1553.24 838.209C1551.89 838.289 1550.62 838.408 1549.34 838.607C1545.88 847.239 1543.46 855.473 1542.1 863.189C1553.8 882.123 1568.76 899.387 1586.3 914.224ZM1544.77 839.601C1539.68 840.994 1535.74 843.42 1533 846.841C1534.9 850.659 1536.97 854.399 1539.12 858.098C1540.43 852.171 1542.34 845.966 1544.77 839.601ZM1552.33 834.271C1552.21 833.675 1552.09 833.078 1551.97 832.521C1551.69 833.157 1551.41 833.794 1551.13 834.43C1551.53 834.43 1551.93 834.311 1552.37 834.271H1552.33ZM1556.34 834.152C1566.61 834.152 1578.66 836.737 1591.39 841.511C1592.7 831.527 1594.53 821.304 1596.84 810.962C1595.01 809.092 1593.22 807.183 1591.47 805.313C1590.83 804.637 1590.2 803.921 1589.56 803.245C1588.29 801.853 1586.97 800.46 1585.74 799.029C1584.98 798.153 1584.23 797.318 1583.47 796.443C1582.4 795.21 1581.29 793.937 1580.25 792.704C1579.5 791.789 1578.74 790.914 1577.98 789.999C1577.82 789.8 1577.63 789.562 1577.43 789.363C1568.16 802.131 1560.56 814.581 1554.75 826.475C1555.23 829.06 1555.75 831.646 1556.31 834.192L1556.34 834.152ZM1574.84 786.141C1574.17 785.305 1573.49 784.47 1572.85 783.635C1571.86 782.362 1570.9 781.089 1569.95 779.856C1569.31 779.021 1568.68 778.185 1568.04 777.35C1566.97 775.878 1565.89 774.446 1564.86 772.974C1564.42 772.338 1563.94 771.701 1563.5 771.065C1562.07 769.036 1560.68 766.968 1559.33 764.939C1558.89 764.263 1558.49 763.627 1558.06 762.951C1557.14 761.558 1556.23 760.126 1555.39 758.734C1554.87 757.899 1554.4 757.103 1553.92 756.268C1553.24 755.154 1552.57 754.001 1551.93 752.887C1549.58 775.122 1550.18 797.795 1553.72 819.912C1559.41 809.013 1566.49 797.676 1574.92 786.18L1574.84 786.141ZM1549.46 740.596C1549.62 739.601 1549.74 738.567 1549.94 737.573C1549.3 737.573 1548.67 737.652 1548.03 737.692C1548.03 737.771 1548.11 737.851 1548.15 737.931C1548.59 738.806 1549.03 739.681 1549.5 740.596H1549.46ZM1542.1 733.595C1541.87 733.038 1541.59 732.441 1541.35 731.884C1540.55 729.935 1539.8 728.026 1539.08 726.157C1538.88 725.6 1538.68 725.043 1538.52 724.526C1538.25 723.77 1537.97 722.974 1537.73 722.219C1534.03 727.469 1530.65 732.76 1527.67 738.129C1531.64 736.538 1535.98 735.305 1540.83 734.51C1541.35 734.43 1541.91 734.39 1542.46 734.311C1542.34 734.072 1542.26 733.834 1542.14 733.595H1542.1ZM1540.83 719.911C1541.15 720.866 1541.51 721.861 1541.87 722.855C1542.22 723.849 1542.54 724.804 1542.9 725.799C1543.26 726.793 1543.7 727.787 1544.09 728.782C1544.49 729.776 1544.89 730.81 1545.33 731.805C1545.61 732.481 1545.96 733.197 1546.28 733.873C1547.71 733.754 1549.19 733.635 1550.66 733.595C1553.08 720.429 1556.54 707.501 1561.08 695.09C1553.56 702.37 1546.64 710.166 1540.43 718.479C1540.59 718.957 1540.71 719.434 1540.87 719.911H1540.83ZM1554.67 733.476C1571.1 733.436 1590.2 737.294 1610.52 744.534C1614.38 740.635 1618.32 736.817 1622.3 733.078C1626.79 722.815 1631.68 712.752 1636.93 702.927C1625.68 687.254 1617.44 671.861 1612.83 657.7C1596.48 666.371 1581.21 676.833 1567.64 688.925C1561.83 703.165 1557.5 718.121 1554.63 733.515L1554.67 733.476ZM1615.06 652.091C1616.93 651.137 1618.8 650.261 1620.66 649.386C1618.48 648.989 1616.25 648.551 1614.1 648.233C1614.38 649.506 1614.7 650.818 1615.06 652.131V652.091ZM1616.21 655.95C1620.51 669.434 1628.26 684.152 1639 699.227C1646.28 686.021 1654.24 673.412 1662.79 661.598C1650.46 656.864 1638.52 653.205 1627.15 650.659C1623.45 652.33 1619.83 654.08 1616.21 655.91V655.95ZM1665.22 658.336C1672.57 648.511 1680.09 639.681 1687.69 631.924C1669.03 635.265 1650.66 640.715 1633.19 648.074C1643.5 650.619 1654.24 654.08 1665.26 658.336H1665.22ZM1669.07 659.808C1679.5 663.985 1690.12 668.957 1700.82 674.526C1709.61 669.434 1718.36 664.74 1727.07 660.604C1718.44 649.665 1712.27 638.885 1709.05 629.02C1704.12 629.458 1699.19 630.094 1694.29 630.85C1685.78 639.124 1677.35 648.829 1669.07 659.808ZM1707.94 625.162C1707.46 623.253 1707.1 621.423 1706.86 619.593C1704.32 621.662 1701.77 623.81 1699.23 626.117C1702.13 625.759 1705.03 625.401 1707.94 625.122V625.162ZM1711.95 624.844C1740.08 622.616 1768.16 625.242 1794.29 633.197C1773.33 619.911 1750.98 610.683 1728.3 605.393C1722.49 608.416 1716.57 612.195 1710.6 616.689C1710.76 619.275 1711.16 621.98 1711.95 624.844ZM1795.72 629.418C1782.24 615.536 1767.24 604.836 1751.33 597.557C1745.72 598.392 1739.92 600.142 1733.95 602.728C1755.15 608.177 1776.07 617.087 1795.72 629.458V629.418ZM1722.45 604.12C1719.51 603.523 1716.57 603.006 1713.62 602.529C1711.99 605.234 1711.04 608.336 1710.68 611.717C1714.62 608.853 1718.56 606.347 1722.45 604.12ZM1752.09 593.459C1752.41 593.42 1752.73 593.38 1753.04 593.34C1752.37 593.221 1751.73 593.101 1751.05 592.982C1751.41 593.141 1751.73 593.3 1752.09 593.459ZM1766.53 597.557C1764.18 597.159 1761.75 597 1759.33 596.96C1774.84 605.074 1789.36 616.371 1802.45 630.651C1795.96 614.979 1786.42 604.478 1774.44 599.744C1773.97 599.545 1773.45 599.346 1772.97 599.187C1770.9 598.471 1768.76 597.915 1766.57 597.517L1766.53 597.557ZM1867.01 677.071C1867.56 677.708 1868.16 678.304 1868.72 678.941C1868.04 677.668 1867.4 676.435 1866.65 675.162C1866.77 675.798 1866.89 676.435 1867.01 677.071ZM1891.95 809.291C1891.99 808.336 1891.99 807.382 1892.03 806.467C1892.03 805.433 1892.03 804.438 1892.07 803.404C1890.55 807.78 1888.8 812.115 1886.85 816.411C1888.72 814.78 1890.39 812.951 1891.83 810.962C1891.83 810.405 1891.91 809.848 1891.95 809.291ZM1845.29 915.974C1844.73 916.212 1844.13 916.491 1843.54 916.73C1842.54 917.167 1841.47 917.565 1840.43 917.923C1839.84 918.122 1839.24 918.321 1838.64 918.52C1837.49 918.878 1836.3 919.236 1835.06 919.554C1834.51 919.713 1833.99 919.872 1833.43 919.991C1831.64 920.429 1829.81 920.787 1827.9 921.105C1825.24 921.543 1822.46 921.861 1819.63 922.06C1818.64 922.139 1817.56 922.139 1816.53 922.179C1816.29 922.179 1816.05 922.179 1815.81 922.179C1809.13 931.129 1801.93 939.124 1794.25 946.204C1793.7 948.034 1792.94 949.784 1792.14 951.495C1794.41 950.58 1796.68 949.625 1798.91 948.631C1799.38 948.432 1799.86 948.233 1800.34 947.994C1803.56 946.483 1806.74 944.852 1809.85 943.102C1809.85 943.102 1809.89 943.102 1809.93 943.062C1810.64 942.664 1811.36 942.267 1812.07 941.829C1814.74 940.317 1817.32 938.726 1819.91 937.056C1820.51 936.658 1821.1 936.3 1821.7 935.902C1824.56 933.993 1827.31 931.964 1830.05 929.896C1830.77 929.339 1831.44 928.822 1832.16 928.265C1834.59 926.356 1836.97 924.327 1839.28 922.259C1839.96 921.622 1840.67 921.025 1841.35 920.389C1842.98 918.878 1844.53 917.286 1846.12 915.695C1845.88 915.815 1845.65 915.894 1845.41 916.014L1845.29 915.974ZM1652.77 971.543C1652.49 971.543 1652.25 971.622 1651.97 971.662C1652.61 971.781 1653.24 971.901 1653.88 972.02C1653.52 971.861 1653.12 971.702 1652.77 971.543ZM1584.83 939.204C1584.83 939.204 1584.98 938.965 1585.06 938.846C1585.14 938.726 1585.18 938.647 1585.26 938.527C1585.46 938.209 1585.74 937.811 1585.98 937.414C1586.06 937.294 1586.14 937.175 1586.22 937.056C1586.5 936.618 1586.81 936.181 1587.13 935.703C1587.21 935.584 1587.29 935.465 1587.37 935.345C1587.73 934.828 1588.13 934.232 1588.56 933.635C1588.64 933.555 1588.68 933.476 1588.76 933.356C1589.2 932.72 1589.72 932.004 1590.24 931.288C1590.27 931.208 1590.35 931.129 1590.39 931.049C1590.95 930.254 1591.55 929.418 1592.18 928.543C1592.18 928.543 1592.18 928.504 1592.22 928.464C1592.54 927.986 1592.86 927.549 1593.22 927.032C1581.88 926.952 1572.14 925.043 1563.98 921.503C1570.27 927.589 1577.27 933.516 1584.83 939.204ZM1537.85 887.772C1537.29 887.135 1536.69 886.539 1536.14 885.902C1536.81 887.175 1537.45 888.408 1538.21 889.721C1538.09 889.084 1537.97 888.448 1537.85 887.772ZM1531.25 842.784C1534.98 838.885 1540.12 836.22 1546.6 834.947C1547.87 831.924 1549.26 828.822 1550.74 825.719C1546 799.784 1545.29 772.895 1548.63 746.761C1548.55 746.562 1548.43 746.403 1548.35 746.204C1547.91 745.369 1547.47 744.534 1547.04 743.698C1546.4 742.465 1545.8 741.232 1545.21 739.999C1544.89 739.323 1544.53 738.647 1544.21 737.97C1543.34 738.09 1542.38 738.129 1541.51 738.289C1535.02 739.363 1529.42 741.192 1524.64 743.818C1519.55 753.881 1515.73 764.104 1513.19 774.406C1513.5 779.498 1514.06 784.589 1514.86 789.721C1517.64 808.018 1523.25 825.878 1531.29 842.823L1531.25 842.784ZM1518.04 748.392C1516.17 750.023 1514.5 751.853 1513.03 753.881C1512.91 756.427 1512.79 758.973 1512.79 761.519C1514.3 757.103 1516.09 752.728 1518.04 748.392ZM1544.01 666.331C1543.14 667.525 1542.38 668.798 1541.67 670.11C1541.39 670.667 1541.15 671.224 1540.87 671.781C1540.47 672.576 1540.08 673.332 1539.72 674.168C1539.44 674.804 1539.24 675.48 1539.04 676.156C1538.76 676.912 1538.48 677.668 1538.25 678.464C1538.05 679.14 1537.89 679.896 1537.73 680.612C1537.53 681.407 1537.33 682.163 1537.17 682.998C1537.01 683.754 1536.93 684.549 1536.85 685.345C1536.73 686.141 1536.62 686.896 1536.54 687.732C1536.46 688.567 1536.46 689.402 1536.42 690.238C1536.42 691.033 1536.3 691.829 1536.3 692.624C1536.3 693.499 1536.34 694.374 1536.38 695.25C1536.38 696.085 1536.38 696.88 1536.46 697.716C1536.54 698.591 1536.66 699.546 1536.73 700.421C1536.81 701.296 1536.89 702.131 1537.01 703.006C1537.13 703.921 1537.33 704.876 1537.49 705.791C1537.65 706.666 1537.77 707.541 1537.97 708.456C1538.17 709.41 1538.41 710.365 1538.64 711.32C1538.84 712.115 1539 712.871 1539.2 713.666C1546.76 703.881 1555.23 694.812 1564.54 686.459C1570.35 672.378 1577.63 659.012 1586.3 646.721C1583.35 646.92 1580.49 647.238 1577.75 647.676C1563.62 649.983 1552.92 655.512 1545.88 664.104C1545.25 664.899 1544.65 665.695 1544.09 666.371L1544.01 666.331ZM1558.65 649.227C1564.02 646.642 1570.15 644.812 1577.03 643.698C1580.85 643.062 1584.94 642.783 1589.12 642.624C1595.8 633.674 1603 625.679 1610.68 618.599C1611.28 616.729 1611.99 614.939 1612.87 613.189C1592.66 621.463 1574.2 633.475 1558.65 649.227ZM1618.72 610.922C1618.4 611.399 1618.08 611.916 1617.76 612.433C1618.68 611.677 1619.63 611.001 1620.55 610.285C1619.91 610.524 1619.31 610.723 1618.68 610.961L1618.72 610.922ZM1614.06 620.866C1612.07 627.708 1611.91 635.504 1613.39 643.977C1617.76 644.613 1622.26 645.409 1626.83 646.403C1647.71 637.095 1669.95 630.532 1692.5 626.992C1697.2 622.497 1701.89 618.4 1706.58 614.74C1706.5 609.927 1707.42 605.512 1709.41 601.693C1683.19 598.113 1657.02 599.784 1632.68 606.467C1626.23 610.643 1619.99 615.456 1614.06 620.866ZM1890.99 727.35C1888.41 718.4 1884.79 709.927 1880.25 701.932C1880.65 708.257 1879.42 713.945 1876.43 718.639C1885.06 736.419 1891.07 755.273 1893.97 774.565C1894.09 775.401 1894.17 776.236 1894.29 777.071C1896.64 760.285 1895.61 743.539 1890.95 727.35H1890.99ZM1630.53 599.506C1622.1 602.568 1611.28 607.779 1603.68 612.473C1602.77 613.03 1601.81 613.627 1600.86 614.223C1610.48 609.529 1620.55 605.711 1630.93 602.807C1635.9 599.625 1640.99 596.801 1646.24 594.295C1640.59 596.005 1634.94 597.875 1630.53 599.466V599.506ZM1898.59 793.857C1898.59 792.465 1898.67 790.954 1898.75 789.363C1898.91 785.743 1899.07 781.686 1898.87 778.503C1898.79 777.151 1898.71 775.838 1898.63 774.526C1897.99 779.935 1897.04 785.385 1895.69 790.795C1896.36 801.415 1896.04 811.956 1894.85 822.258C1896.6 814.343 1898.35 802.887 1898.59 793.897V793.857ZM1801.17 952.29C1801.93 951.813 1802.73 951.336 1803.52 950.858C1803.12 951.057 1802.77 951.216 1802.37 951.376C1801.97 951.574 1801.61 951.734 1801.21 951.932C1800.7 952.171 1800.18 952.41 1799.66 952.648C1797.59 953.603 1795.49 954.478 1793.38 955.353C1792.98 955.512 1792.58 955.672 1792.18 955.831C1791.99 955.91 1791.83 955.99 1791.63 956.069C1791.51 956.109 1791.35 956.189 1791.23 956.228C1788.8 957.183 1786.38 958.058 1783.95 958.893C1783.51 959.053 1783.08 959.212 1782.64 959.331C1782.16 959.49 1781.68 959.649 1781.21 959.769C1778.78 960.564 1776.31 961.32 1773.85 961.996C1768.88 965.178 1763.78 967.963 1758.57 970.469C1764.22 968.758 1769.87 966.889 1774.28 965.258C1782.72 962.195 1793.5 956.984 1801.13 952.29H1801.17Z" fill="white"/>
</g>
<g filter="url(#filter0_b_231_1734)">
<rect width="1920" height="1000" fill="white" fill-opacity="0.1"/>
</g>
</g>
<defs>
<filter id="filter0_b_231_1734" x="-8" y="-8" width="1936" height="1016" filterUnits="userSpaceOnUse" color-interpolation-filters="sRGB">
<feFlood flood-opacity="0" result="BackgroundImageFix"/>
<feGaussianBlur in="BackgroundImageFix" stdDeviation="4"/>
<feComposite in2="SourceAlpha" operator="in" result="effect1_backgroundBlur_231_1734"/>
<feBlend mode="normal" in="SourceGraphic" in2="effect1_backgroundBlur_231_1734" result="shape"/>
</filter>
<clipPath id="clip0_231_1734">
<rect width="1920" height="1000" fill="white"/>
</clipPath>
<clipPath id="clip1_231_1734">
<rect width="150.187" height="119.467" fill="white" transform="translate(1401.57 301)"/>
</clipPath>
<clipPath id="clip2_231_1734">
<rect width="24" height="24" fill="white" transform="translate(421 506)"/>
</clipPath>
<clipPath id="clip3_231_1734">
<rect width="113.143" height="90" fill="white" transform="translate(368.43 870)"/>
</clipPath>
<clipPath id="clip4_231_1734">
<rect width="80" height="80" fill="white" transform="translate(1456 32)"/>
</clipPath>
<clipPath id="clip5_231_1734">
<rect width="120" height="120" fill="white" transform="translate(286 566)"/>
</clipPath>
</defs>
</svg>
