<svg width="130" height="106" viewBox="0 0 130 106" fill="none" xmlns="http://www.w3.org/2000/svg">
<path d="M70.8125 88.2306L84.9284 80.0254L109.33 94.1107L95.214 102.316L70.8125 88.2306Z" fill="black"/>
<path d="M94.7187 97.8587L94.7003 101.169L70.2988 87.0775L70.3172 83.7734L94.7187 97.8587Z" fill="#000066"/>
<path fill-rule="evenodd" clip-rule="evenodd" d="M70.2554 83.6658C70.2936 83.6439 70.3407 83.6439 70.3789 83.666L94.7803 97.7513C94.8189 97.7735 94.8425 97.8147 94.8423 97.8592L94.8239 101.169C94.8237 101.214 94.8 101.254 94.7617 101.276C94.7234 101.298 94.6764 101.298 94.6382 101.276L70.2367 87.1845C70.1982 87.1623 70.1746 87.1211 70.1748 87.0766L70.1932 83.7725C70.1934 83.7284 70.2171 83.6878 70.2554 83.6658ZM70.4396 83.987L70.4228 87.0061L94.5775 100.955L94.5942 97.9298L70.4396 83.987Z" fill="black"/>
<path d="M94.7186 97.8585L108.834 89.6533L108.822 92.9635L94.7002 101.169L94.7186 97.8585Z" fill="#0042C8"/>
<path fill-rule="evenodd" clip-rule="evenodd" d="M108.896 89.5459C108.935 89.5681 108.958 89.6092 108.958 89.6536L108.946 92.9638C108.946 93.0077 108.922 93.0483 108.884 93.0704L94.7622 101.276C94.7238 101.298 94.6764 101.298 94.6379 101.276C94.5995 101.253 94.5759 101.212 94.5762 101.168L94.5945 97.8576C94.5948 97.8138 94.6182 97.7733 94.6561 97.7513L108.772 89.5461C108.81 89.5238 108.858 89.5237 108.896 89.5459ZM94.8418 97.9298L94.825 100.953L108.698 92.8919L108.71 89.8687L94.8418 97.9298Z" fill="black"/>
<path d="M70.3174 83.7726L84.4333 75.5674L108.835 89.6527L94.7189 97.8579L70.3174 83.7726Z" fill="#0063F6"/>
<path fill-rule="evenodd" clip-rule="evenodd" d="M84.3718 75.4601C84.4102 75.4378 84.4575 75.4378 84.4959 75.4599L108.897 89.5453C108.936 89.5673 108.959 89.6081 108.959 89.6523C108.959 89.6965 108.936 89.7373 108.898 89.7595L94.7818 97.9647C94.7435 97.987 94.6962 97.9871 94.6577 97.9649L70.2563 83.8796C70.218 83.8575 70.1944 83.8167 70.1943 83.7726C70.1943 83.7284 70.2177 83.6875 70.2559 83.6653L84.3718 75.4601ZM84.4343 75.7103L70.5652 83.772L94.7194 97.7146L108.589 89.6529L84.4343 75.7103Z" fill="black"/>
<path d="M61.6155 7.90056L64.4423 6.26074L64.3383 51.3435L61.5176 52.9895L61.6155 7.90056Z" fill="#004CBC"/>
<path d="M98.763 78.5109L101.59 76.8711L101.559 88.7108L98.7324 90.3507L98.763 78.5109Z" fill="#0042C8"/>
<path fill-rule="evenodd" clip-rule="evenodd" d="M101.652 76.7637C101.69 76.7859 101.714 76.8269 101.713 76.8712L101.683 88.7109C101.683 88.755 101.659 88.7956 101.621 88.8177L98.7943 90.4575C98.756 90.4798 98.7087 90.4798 98.6703 90.4576C98.6319 90.4355 98.6083 90.3945 98.6084 90.3501L98.639 78.5104C98.6391 78.4664 98.6626 78.4257 98.7007 78.4036L101.528 76.7638C101.566 76.7415 101.613 76.7415 101.652 76.7637ZM98.8864 78.5821L98.8566 90.1352L101.435 88.6392L101.465 77.0862L98.8864 78.5821Z" fill="black"/>
<path d="M61.5176 52.9897L64.3383 51.3438L126.333 87.5727L123.506 89.2126L61.5176 52.9897Z" fill="#0055D3"/>
<path d="M61.6162 7.90056L64.4431 6.26074L126.432 42.4836L123.611 44.1295L61.6162 7.90056Z" fill="#A4ADB7"/>
<path d="M123.611 44.1293L126.432 42.4834L126.334 87.5723L123.507 89.2121L123.611 44.1293Z" fill="#929AA3"/>
<path d="M58.0735 1.76367L127.05 42.0922V95.3435L98.763 78.5048L98.7324 90.3445L83.3806 81.4846L83.4111 69.6448L58.0674 55.0149V1.76367H58.0735ZM123.507 89.2125L123.605 44.1236L61.6162 7.90075L61.5183 52.9897L123.507 89.2186" fill="#000066"/>
<path fill-rule="evenodd" clip-rule="evenodd" d="M57.9434 1.76346C57.9434 1.69508 57.9988 1.63965 58.0672 1.63965H58.0733C58.0953 1.63965 58.1168 1.64549 58.1358 1.65658L127.112 41.9851C127.15 42.0073 127.174 42.048 127.174 42.092V95.3433C127.174 95.3878 127.15 95.4289 127.111 95.4509C127.072 95.4729 127.025 95.4724 126.986 95.4497L98.8861 78.722L98.856 90.3446C98.8559 90.3888 98.8323 90.4295 98.794 90.4516C98.7557 90.4736 98.7086 90.4736 98.6703 90.4515L83.3185 81.5916C83.28 81.5694 83.2564 81.5284 83.2565 81.484L83.2869 69.716L58.0053 55.122C57.967 55.0998 57.9434 55.059 57.9434 55.0147V1.76346ZM58.191 1.97569V54.9432L83.4728 69.5374C83.5112 69.5596 83.5349 69.6006 83.5347 69.6449L83.5043 81.413L98.609 90.1302L98.639 78.5042C98.6391 78.4597 98.6631 78.4188 98.7018 78.3968C98.7405 78.3749 98.7879 78.3754 98.8262 78.3981L126.926 95.1255V42.163L58.191 1.97569ZM61.5545 7.79309C61.593 7.77108 61.6402 7.77129 61.6785 7.79364L123.667 44.0165C123.705 44.0388 123.729 44.0796 123.729 44.1237L123.631 89.2126L123.511 89.2123L123.444 89.3253L61.4557 53.0963C61.4176 53.0741 61.3942 53.0333 61.3943 52.9892L61.4922 7.90027C61.4923 7.85597 61.5161 7.8151 61.5545 7.79309ZM123.384 89.0029L123.481 44.1944L61.7394 8.11601L61.6421 52.9185L123.384 89.0029Z" fill="black"/>
<path d="M123.61 44.1294L123.506 89.2122L61.5176 52.9893L61.6155 7.90039L123.61 44.1294Z" fill="#004FFF"/>
<path fill-rule="evenodd" clip-rule="evenodd" d="M123.362 44.2713L61.8622 8.33135L61.7655 52.8474L123.26 88.7813L123.362 44.2713ZM123.61 44.1294L61.6155 7.90039L61.5176 52.9893L123.506 89.2122L123.61 44.1294Z" fill="black"/>
<path d="M127.05 42.0981L129.877 40.4521V93.7095L127.05 95.3494V42.0981Z" fill="#0042C8"/>
<path fill-rule="evenodd" clip-rule="evenodd" d="M129.938 40.3446C129.977 40.3667 130 40.4076 130 40.4519V93.7093C130 93.7535 129.977 93.7943 129.939 93.8164L127.112 95.4562C127.073 95.4785 127.026 95.4785 126.988 95.4564C126.949 95.4343 126.926 95.3934 126.926 95.3492V42.0979C126.926 42.0538 126.949 42.013 126.987 41.9909L129.814 40.3449C129.852 40.3226 129.9 40.3225 129.938 40.3446ZM127.173 42.169V95.1342L129.753 93.638V40.6673L127.173 42.169Z" fill="black"/>
<path d="M58.0732 1.76384L60.9001 0.124023L129.876 40.4526L127.05 42.0985L58.0732 1.76384Z" fill="#0063F6"/>
<path fill-rule="evenodd" clip-rule="evenodd" d="M60.8378 0.0167145C60.8763 -0.00564753 60.9239 -0.00556606 60.9624 0.0169278L129.939 40.3455C129.977 40.3677 130 40.4084 130 40.4524C130 40.4965 129.977 40.5372 129.939 40.5593L127.112 42.2053C127.073 42.2277 127.025 42.2277 126.987 42.2052L58.0105 1.87051C57.9725 1.84826 57.9491 1.80748 57.9492 1.76341C57.9493 1.71935 57.9728 1.67864 58.0109 1.65653L60.8378 0.0167145ZM58.319 1.76406L127.05 41.9549L129.631 40.4521L60.8996 0.267085L58.319 1.76406Z" fill="black"/>
<path d="M108.721 60.6748L108.575 60.5897C108.734 60.4436 108.887 60.2953 109.035 60.1426V60.3694C108.933 60.4719 108.828 60.5723 108.719 60.6726L108.721 60.6748Z" fill="black"/>
<path d="M103.882 63.448V63.3325C104.266 63.1973 104.637 63.049 104.999 62.8877V63.0665C104.388 63.3325 103.747 63.5658 103.08 63.7642V63.5963C103.311 63.5265 103.538 63.4524 103.76 63.3761L103.885 63.448H103.882Z" fill="black"/>
<path d="M73.7202 38.5782C73.5239 38.781 73.3364 38.9881 73.1598 39.1996L73.0225 39.1211C73.2122 38.8922 73.4127 38.6676 73.6242 38.4495C74.6752 37.3681 75.9703 36.4741 77.4617 35.7852V35.9661C76.0095 36.6486 74.7471 37.5251 73.7202 38.5826V38.5782Z" fill="black"/>
<path d="M88.0183 38.4748L88.0161 39.408L88.8163 39.8724L88.8098 42.6611L88.0074 42.1989L88.0052 43.1081L88.8076 43.5703L88.7989 46.3721L87.1745 45.4345L87.1832 42.6567L86.3808 42.1923L86.383 41.2482L87.1854 41.7126L87.1919 38.9436L85.5981 38.0235L85.5785 44.5122L83.9541 43.5747L83.9759 36.1396L88.0183 38.4748Z" fill="black"/>
<path d="M82.6765 45.1857L82.6721 46.1298L80.2563 44.7344L80.2519 46.5681L81.8654 47.5013L81.8632 48.4454L80.2476 47.5122L80.241 50.2791L82.6569 51.6745L82.6547 52.6208L78.6123 50.2856L78.6319 42.8506L82.6765 45.1857Z" fill="black"/>
<path d="M82.0505 35.0273L82.0483 35.302V35.4634V35.9627L82.8507 36.4271L82.8463 38.2935L82.0418 37.8291L82.0396 38.7405L82.842 39.2049L82.8354 41.9935L82.0309 41.5291L82.0287 42.4623L80.4043 41.5248L80.4065 40.5807L81.2111 41.0451L81.2176 38.2782L80.4152 37.8138L80.4174 36.8697L81.2198 37.332L81.2263 35.6444V35.5005L81.2024 35.4852L79.6303 34.5782L79.626 35.9365V36.1066L79.6129 41.0691L77.9863 40.1293L77.995 36.7629L77.9972 36.5841L78.0081 32.6943L82.0505 35.0273Z" fill="black"/>
<path d="M95.7322 52.7236L95.7278 53.6568L96.5323 54.1212L96.5236 56.9099L95.7212 56.4455L95.7191 57.359L96.5214 57.8213L96.5127 60.623L94.8884 59.6833L94.8949 56.9055L94.0947 56.4433L94.0969 55.497L94.8993 55.9592L94.9058 53.1924L93.3098 52.2723L93.2923 58.7632L91.668 57.8256L91.6898 50.3906L95.7322 52.7236Z" fill="black"/>
<path d="M99.1273 49.5291L99.9296 49.9935L99.9209 52.7952L98.2944 51.8555L98.2987 50L95.9025 48.6155L95.8982 50.471L95.0762 49.9957L95.0849 47.1939L95.8873 47.6583L95.896 44.8915L96.6984 45.3537L96.7027 43.4873L98.338 44.4314L98.3336 46.2978L99.136 46.7622L99.1273 49.5291ZM97.5007 48.5915L97.5094 45.8464L96.7158 45.3886L96.7071 48.1336L97.5007 48.5915Z" fill="black"/>
<path d="M89.7654 49.2783L89.7632 50.2115L90.5655 50.6737L90.559 52.5423L89.7588 52.08L89.7544 52.9893L90.5568 53.4537L90.5503 56.2423L89.7479 55.7801L89.7457 56.7133L88.1192 55.7757L88.1214 54.8295L88.9237 55.2939L88.9325 52.527L88.1301 52.0626L88.1323 51.1185L88.9346 51.5829L88.9412 49.7471L87.3452 48.827L87.3277 55.3179L85.7012 54.3803L85.723 46.9453L89.7654 49.2783Z" fill="black"/>
<path d="M99.2821 54.7725L99.2603 62.2075L97.6338 61.27L97.6556 53.835L99.2821 54.7725Z" fill="black"/>
<path d="M104.434 57.7487L104.429 59.6369L103.607 59.1637L103.61 58.2284L102.016 57.3082L102.001 62.842L103.594 63.7643L103.597 62.8202L104.419 63.2933L104.416 64.1328V64.2483L104.292 64.1785L103.614 63.7861L103.612 64.3988V64.5645V64.7193L103.433 64.6168L103.241 64.5056L101.174 63.3129L101.176 62.3776L100.374 61.9153L100.389 56.3576L101.192 56.822L101.196 55.8779L104.434 57.7487Z" fill="black"/>
<path d="M72.3569 39.2287L72.3547 40.1728L70.739 39.2396L70.7194 45.7306L69.095 44.793L69.1147 38.2999L67.499 37.3689L67.5012 36.4248L72.3569 39.2287Z" fill="black"/>
<path d="M105.908 48.8033L105.905 49.7604L105.103 49.296L105.101 50.2248L104.298 49.7626L104.292 51.5897L105.094 52.052L105.09 53.8857L105.892 54.3501L105.888 56.2383L104.264 55.3007L104.268 53.4343L103.466 52.9699L103.47 51.1253L102.678 50.6696L102.668 54.3806L101.041 53.4409L101.063 46.0059L102.689 46.9456L102.681 49.7234L103.472 50.1812L103.476 49.2633L104.279 49.7277L104.281 48.812L105.083 49.2742L105.086 48.3279L105.908 48.8033Z" fill="black"/>
<path d="M93.9839 41.9191L93.9817 42.8632L91.5637 41.4678L91.5593 43.3015L93.175 44.2347L93.1728 45.1788L91.555 44.2456L91.5484 47.0125L93.9664 48.4101L93.9643 49.3542L89.9219 47.019L89.9415 39.584L93.9839 41.9191Z" fill="black"/>
<path d="M77.5111 42.2058L77.4915 49.6408L75.8649 48.7011L75.8758 44.988L74.2798 44.0678L74.2689 47.781L72.6445 46.8413L72.6598 41.4994L72.662 41.1985L72.6663 39.4062L73.5581 39.9208L73.6955 40.0015L74.2907 40.346L74.282 43.1238L75.878 44.0439L75.8867 41.2661L77.5111 42.2058Z" fill="black"/>
<path d="M110.393 61.187L110.391 62.142L109.586 61.6798L109.584 62.6108L108.782 62.1464L108.777 63.9714L109.58 64.4358L109.573 66.2695L110.378 66.7339L110.371 68.6221L108.747 67.6845L108.753 65.8159L107.949 65.3537L107.955 63.5091L107.162 63.0512L107.151 66.7622L105.526 65.8247L105.531 63.8667L105.533 63.6901L105.548 58.3896L107.173 59.3272L107.164 62.1072L107.766 62.4538L107.92 62.5432L107.957 62.565V62.5192V62.3186L107.96 61.6493L108.465 61.9393L108.616 62.0265L108.762 62.1115L108.764 61.9066V61.6951L108.766 61.1936L109.109 61.392L109.255 61.4749L109.567 61.6558L109.569 61.1718V60.945L109.571 60.7139L109.713 60.7946L109.854 60.8774L110.393 61.187Z" fill="black"/>
<path d="M114.754 63.7052L114.751 64.6492L115.554 65.1137L115.552 66.0578L114.73 65.5846L114.732 64.6492L113.136 63.7291L113.131 65.5585L114.747 66.4916L114.743 67.4227L115.547 67.8871L115.538 70.6714L114.736 70.207L114.734 71.1402L112.296 69.7338L112.298 68.7985L111.496 68.3362L111.498 67.3812L112.32 67.8566L112.318 68.7985L113.914 69.7208L113.918 67.8914L112.303 66.9582L112.307 66.0272L111.505 65.565L111.511 62.7785L112.314 63.2429L112.316 62.2988L114.754 63.7052Z" fill="black"/>
<path d="M87.4841 37.674L87.4819 38.6072L88.2821 39.0716L88.2756 41.8603L87.4732 41.3981L87.471 42.3073L88.2734 42.7695L88.2647 45.5713L86.6403 44.6337L86.649 41.8559L85.8467 41.3915L85.8488 40.4474L86.6512 40.9119L86.6577 38.1428L85.0639 37.2227L85.0443 43.7114L83.4199 42.7739L83.4417 35.3389L87.4841 37.674Z" fill="#FFFE1E"/>
<path d="M82.1423 44.385L82.1379 45.3291L79.7221 43.9336L79.7178 45.7673L81.3312 46.7005L81.329 47.6446L79.7134 46.7114L79.7068 49.4783L82.1227 50.8737L82.1205 51.82L78.0781 49.4848L78.0977 42.0498L82.1423 44.385Z" fill="#FFFE1E"/>
<path d="M81.5173 34.2265L81.5151 34.5013V34.6626V35.1619L82.3175 35.6263L82.3131 37.4927L81.5086 37.0283L81.5064 37.9397L82.3088 38.4041L82.3022 41.1928L81.4977 40.7284L81.4955 41.6615L79.8711 40.724L79.8733 39.7799L80.6779 40.2443L80.6844 37.4774L79.882 37.013L79.8842 36.0689L80.6866 36.5312L80.6931 34.8436V34.6997L80.6691 34.6844L79.0971 33.7774L79.0928 35.1357V35.3058L79.0797 40.2683L77.4531 39.3286L77.4618 35.9621L77.464 35.7833L77.4749 31.8936L81.5173 34.2265Z" fill="#FFFE1E"/>
<path d="M88.9518 34.4049C88.0317 34.3068 87.1116 34.2523 86.198 34.2458C84.5453 34.2327 82.9755 34.3744 81.5146 34.6622V34.5009C82.9624 34.2218 84.5126 34.0844 86.1479 34.0953C87.0985 34.1019 88.0579 34.1607 89.0172 34.2676L88.9518 34.4049Z" fill="black"/>
<path d="M95.198 51.9218L95.1936 52.855L95.9982 53.3195L95.9894 56.1081L95.1871 55.6437L95.1849 56.5573L95.9873 57.0195L95.9785 59.8213L94.3542 58.8815L94.3607 56.1038L93.5605 55.6415L93.5627 54.6953L94.3651 55.1575L94.3716 52.3906L92.7756 51.4705L92.7582 57.9614L91.1338 57.0239L91.1556 49.5889L95.198 51.9218Z" fill="#FFFE1E"/>
<path d="M98.5931 48.7283L99.3955 49.1927L99.3867 51.9945L97.7602 51.0547L97.7646 49.1992L95.3683 47.8147L95.364 49.6702L94.542 49.1949L94.5507 46.3931L95.3531 46.8575L95.3618 44.0907L96.1642 44.5529L96.1685 42.6865L97.8038 43.6306L97.7994 45.497L98.6018 45.9614L98.5931 48.7283ZM96.9665 47.7907L96.9753 45.0457L96.1816 44.5878L96.1729 47.3329L96.9665 47.7907Z" fill="#FFFE1E"/>
<path d="M89.2312 48.4775L89.229 49.4107L90.0314 49.8729L90.0248 51.7415L89.2246 51.2793L89.2203 52.1885L90.0226 52.6529L90.0161 55.4416L89.2137 54.9793L89.2115 55.9125L87.585 54.975L87.5872 54.0287L88.3896 54.4931L88.3983 51.7262L87.5959 51.2618L87.5981 50.3177L88.4005 50.7821L88.407 48.9463L86.811 48.0262L86.7935 54.5171L85.167 53.5795L85.1888 46.1445L89.2312 48.4775Z" fill="#FFFE1E"/>
<path d="M98.748 53.9717L98.7262 61.4067L97.0996 60.4692L97.1214 53.0342L98.748 53.9717Z" fill="#FFFE1E"/>
<path d="M103.9 56.9479L103.895 58.8361L103.073 58.3629L103.075 57.4276L101.482 56.5075L101.466 62.0412L103.06 62.9635L103.062 62.0194L103.884 62.4925L103.882 63.332V63.4475L103.758 63.3778L103.08 62.9853L103.078 63.598V63.7637V63.9185L102.899 63.816L102.707 63.7048L100.64 62.5122L100.642 61.5768L99.8398 61.1145L99.8551 55.5568L100.657 56.0212L100.662 55.0771L103.9 56.9479Z" fill="#FFFE1E"/>
<path d="M71.8227 38.428L71.8205 39.3721L70.2049 38.4389L70.1852 44.9298L68.5609 43.9922L68.5805 37.4991L66.9648 36.5681L66.967 35.624L71.8227 38.428Z" fill="#FFFE1E"/>
<path d="M96.5693 64.4657C98.7867 64.4831 100.852 64.2214 102.707 63.7047L102.901 63.8159C101.009 64.3588 98.8936 64.6314 96.6216 64.6139C91.5676 64.5747 86.3086 63.1051 81.7255 60.4582C81.4965 60.3252 81.2676 60.19 81.043 60.0504C76.2898 57.1418 72.8994 53.2892 71.4974 49.2032C70.3942 45.9893 70.6274 42.939 72.1297 40.3945V40.6954C70.7386 43.1723 70.5424 46.1136 71.6021 49.2032C72.9844 53.2303 76.3378 57.0372 81.0474 59.9174C81.2719 60.0548 81.5009 60.19 81.7298 60.323C86.2955 62.959 91.5349 64.4242 96.5737 64.4613L96.5693 64.4657Z" fill="black"/>
<path d="M89.8606 34.0716L89.7255 34.3572L89.6622 34.4902L89.6382 34.5382L89.8585 35.2577L89.3439 34.7061L88.8271 34.6624L88.9514 34.4052L89.0168 34.2678L89.0495 34.198L88.8315 33.4785L89.3461 34.0301L89.8606 34.0716Z" fill="black"/>
<path d="M108.082 61.2261L107.932 61.1388C108.034 61.0581 108.132 60.9774 108.23 60.8945V61.1061C108.18 61.1475 108.132 61.1868 108.082 61.2261Z" fill="black"/>
<path d="M105.374 48.0025L105.372 48.9596L104.57 48.4952L104.568 49.4241L103.765 48.9618L103.759 50.789L104.561 51.2512L104.557 53.0849L105.359 53.5493L105.355 55.4375L103.73 54.4999L103.735 52.6335L102.932 52.1691L102.937 50.3246L102.145 49.8689L102.134 53.5798L100.508 52.6401L100.53 45.2051L102.156 46.1448L102.147 48.9226L102.939 49.3805L102.943 48.4625L103.746 48.9269L103.748 48.0112L104.55 48.4734L104.552 47.5272L105.374 48.0025Z" fill="#FFFE1E"/>
<path d="M111.27 49.5063C112.641 53.5007 111.948 57.2444 109.321 60.0767L109.179 59.996C111.819 57.1855 112.526 53.468 111.165 49.5063C109.783 45.4792 106.429 41.6745 101.72 38.7899C101.495 38.6547 101.269 38.5173 101.04 38.3865C97.514 36.35 93.585 35.0135 89.6582 34.4924L89.7214 34.3594C93.6264 34.8914 97.5293 36.2301 101.04 38.2557C101.269 38.3887 101.498 38.5239 101.722 38.6612C106.475 41.572 109.864 45.4225 111.266 49.5085L111.27 49.5063Z" fill="black"/>
<path d="M107.387 61.7432L107.229 61.6538C107.295 61.6102 107.358 61.5644 107.421 61.5186V61.717C107.408 61.7258 107.397 61.7345 107.384 61.741L107.387 61.7432Z" fill="black"/>
<path d="M80.6922 34.6996V34.8435C80.1405 34.9765 79.6085 35.1313 79.0918 35.3079V35.1379C79.5998 34.9678 80.1253 34.8173 80.6682 34.6865L80.6922 34.6996Z" fill="black"/>
<path d="M93.4497 41.1184L93.4475 42.0625L91.0295 40.667L91.0251 42.5007L92.6408 43.4339L92.6386 44.378L91.0208 43.4448L91.0142 46.2117L93.4323 47.6093L93.4301 48.5534L89.3877 46.2182L89.4073 38.7832L93.4497 41.1184Z" fill="#FFFE1E"/>
<path d="M76.9769 41.4041L76.9573 48.8391L75.3307 47.8993L75.3416 44.1862L73.7456 43.2661L73.7347 46.9792L72.1104 46.0395L72.1256 40.6976L72.1278 40.3967L72.1322 38.6045L73.0239 39.1191L73.1613 39.1997L73.7565 39.5442L73.7478 42.322L75.3438 43.2421L75.3525 40.4643L76.9769 41.4041Z" fill="#FFFE1E"/>
<path d="M109.859 60.3863L109.857 61.3413L109.052 60.879L109.05 61.81L108.247 61.3456L108.243 63.1706L109.045 63.635L109.039 65.4687L109.843 65.9331L109.837 67.8213L108.213 66.8837L108.219 65.0152L107.415 64.5529L107.421 62.7083L106.627 62.2505L106.617 65.9614L104.992 65.0239L104.997 63.0659L104.999 62.8893L105.014 57.5889L106.638 58.5264L106.63 61.3064L107.231 61.653L107.386 61.7424L107.423 61.7642V61.7185V61.5179L107.425 60.8485L107.931 61.1385L108.082 61.2257L108.228 61.3107L108.23 61.1058V60.8943L108.232 60.3928L108.575 60.5912L108.721 60.6741L109.032 60.855L109.035 60.371V60.1442L109.037 59.9131L109.178 59.9938L109.32 60.0767L109.859 60.3863Z" fill="#FFFE1E"/>
<path d="M114.219 62.9054L114.217 63.8494L115.02 64.3139L115.017 65.258L114.195 64.7848L114.198 63.8494L112.602 62.9293L112.597 64.7587L114.213 65.6918L114.208 66.6229L115.013 67.0873L115.004 69.8716L114.202 69.4072L114.2 70.3404L111.762 68.934L111.764 67.9987L110.962 67.5364L110.964 66.5814L111.786 67.0567L111.784 67.9987L113.38 68.921L113.384 67.0916L111.769 66.1584L111.773 65.2274L110.971 64.7652L110.977 61.9787L111.78 62.4431L111.782 61.499L114.219 62.9054Z" fill="#FFFE1E"/>
<path d="M65.6387 55.5295C66.3923 55.9647 67.0049 57.0246 67.0008 57.8911L66.9243 87.2093C66.9243 88.0798 66.3077 88.4264 65.5541 87.9952L26.5517 65.4755C25.7941 65.0403 25.1855 63.9804 25.1855 63.114L25.2621 33.7957C25.2621 32.9252 25.8787 32.5786 26.6363 33.0139L65.6387 55.5335V55.5295Z" fill="#000066"/>
<path d="M27.3229 64.1376C27.0448 63.9764 26.7305 63.4323 26.7305 63.1139L26.803 34.8838L64.8704 56.8594C65.1485 57.0206 65.4628 57.5646 65.4628 57.879L65.3903 86.1091L27.3269 64.1335L27.3229 64.1376Z" fill="#2781FF"/>
<path d="M66.0506 90.4711C66.8082 90.9063 66.8082 91.6156 66.0586 92.0468L42.9264 105.491C42.1768 105.926 40.9557 105.93 40.2021 105.491L1.19576 82.9753C0.438118 82.54 0.434088 81.8308 1.1877 81.3955L24.3199 67.9514C25.0695 67.5162 26.2906 67.5162 27.0482 67.9514L66.0506 90.4711Z" fill="black"/>
<path d="M0.700313 80.499C0.321493 80.2814 0.128053 79.9912 0.132083 79.7051L0.124023 81.301C0.124023 81.5871 0.313433 81.8772 0.692253 82.0949L39.6946 104.615L39.7027 103.015L0.700313 80.499Z" fill="#000066"/>
<path fill-rule="evenodd" clip-rule="evenodd" d="M0.133054 79.582C0.201211 79.5827 0.256022 79.6383 0.255678 79.7065L0.255625 79.7169C0.256747 79.9391 0.409857 80.1902 0.761772 80.3924L0.762 80.3925L39.7643 102.908C39.8028 102.93 39.8265 102.972 39.8262 103.016L39.8182 104.616C39.818 104.66 39.7943 104.701 39.756 104.723C39.7177 104.745 39.6707 104.745 39.6325 104.722L0.630367 82.203C0.630313 82.203 0.63026 82.2029 0.630206 82.2029C0.228178 81.9719 0 81.6472 0 81.3017V81.3011H1.57924e-06L0.00800095 79.7172C0.00798689 79.7128 0.00801061 79.7085 0.00807227 79.7041C0.00903218 79.6359 0.0648973 79.5814 0.133054 79.582ZM0.25267 80.3021L0.247619 81.3017C0.247619 81.3018 0.247619 81.3019 0.247619 81.302C0.24775 81.5287 0.398355 81.7841 0.753712 81.9883L0.753948 81.9884L39.5716 104.401L39.5783 103.087L0.638427 80.6071C0.638392 80.6071 0.638356 80.6071 0.638321 80.607C0.483564 80.5181 0.353612 80.4151 0.25267 80.3021Z" fill="black"/>
<path d="M65.5554 87.9955C66.3131 88.4307 66.3131 89.14 65.5635 89.5712L42.4313 103.015C41.6817 103.451 40.4606 103.455 39.707 103.015L0.700641 80.4997C-0.0569994 80.0644 -0.0610294 79.3552 0.692581 78.9199L23.8248 65.4758C24.5744 65.0406 25.7955 65.0406 26.5531 65.4758L65.5554 87.9955Z" fill="#0063F6"/>
<path d="M66.0919 88.9862C66.0919 88.9862 66.0919 89.0023 66.0839 89.0063C66.0637 89.0668 66.0315 89.1272 65.9912 89.1836C65.9831 89.1957 65.9791 89.2038 65.971 89.2159C65.9307 89.2723 65.8783 89.3287 65.8179 89.3851C65.7776 89.4214 65.7292 89.4536 65.6809 89.4859C65.6406 89.5141 65.6083 89.5423 65.56 89.5705L42.4278 103.015C42.3109 103.083 42.1819 103.135 42.049 103.184C42.0006 103.2 41.9522 103.216 41.9039 103.228C41.8394 103.244 41.7749 103.264 41.7104 103.277C41.6339 103.293 41.5573 103.305 41.4767 103.317C41.4565 103.317 41.4364 103.325 41.4162 103.325C41.3115 103.337 41.2027 103.341 41.0938 103.345C41.0777 103.345 41.0576 103.345 41.0415 103.345C40.9326 103.345 40.8279 103.337 40.7231 103.329C40.707 103.329 40.6908 103.329 40.6747 103.325C40.5699 103.313 40.4652 103.297 40.3644 103.273C40.3443 103.268 40.3281 103.264 40.308 103.26C40.2153 103.236 40.1266 103.212 40.042 103.18C40.0259 103.176 40.0098 103.172 39.9937 103.164C39.8889 103.123 39.7922 103.079 39.6995 103.027L39.6914 104.627C39.7801 104.675 39.8728 104.719 39.9695 104.76C39.9735 104.76 39.9816 104.76 39.9856 104.764C40.0017 104.768 40.0178 104.776 40.034 104.78C40.0904 104.8 40.1468 104.82 40.2032 104.836C40.2355 104.844 40.2677 104.852 40.2999 104.86C40.3201 104.864 40.3362 104.868 40.3564 104.872C40.3725 104.872 40.3886 104.88 40.4047 104.885C40.4692 104.897 40.5296 104.909 40.5941 104.917C40.6183 104.917 40.6425 104.921 40.6626 104.925C40.6788 104.925 40.6949 104.925 40.711 104.929C40.7352 104.929 40.7553 104.933 40.7795 104.937C40.844 104.941 40.9044 104.945 40.9689 104.949C40.9891 104.949 41.0092 104.949 41.0294 104.949C41.0455 104.949 41.0656 104.949 41.0818 104.949C41.11 104.949 41.1382 104.949 41.1664 104.949C41.2389 104.949 41.3074 104.941 41.38 104.933C41.388 104.933 41.3961 104.933 41.4042 104.933C41.4243 104.933 41.4445 104.929 41.4646 104.925C41.517 104.917 41.5734 104.913 41.6258 104.901C41.65 104.897 41.6742 104.889 41.6943 104.885C41.7588 104.872 41.8233 104.856 41.8878 104.836C41.92 104.828 41.9563 104.82 41.9885 104.812C42.0046 104.808 42.0167 104.8 42.0328 104.792C42.1658 104.743 42.2988 104.691 42.4117 104.623L65.5439 91.1785C65.5439 91.1785 65.56 91.1704 65.568 91.1664C65.6043 91.1462 65.6325 91.118 65.6648 91.0939C65.7131 91.0616 65.7615 91.0294 65.8018 90.9931C65.8018 90.9931 65.8098 90.985 65.8139 90.985C65.8582 90.9447 65.8985 90.9004 65.9348 90.8561C65.9428 90.848 65.9469 90.8359 65.9549 90.8238C65.963 90.8117 65.971 90.8037 65.9751 90.7916C65.9872 90.7755 65.9992 90.7553 66.0113 90.7392C66.0315 90.7029 66.0476 90.6667 66.0637 90.6304C66.0637 90.6264 66.0637 90.6183 66.0678 90.6143C66.0678 90.6062 66.0678 90.6022 66.0758 90.5941C66.0839 90.5699 66.0919 90.5458 66.096 90.5256C66.104 90.4894 66.1081 90.4531 66.1081 90.4168C66.1081 90.4128 66.1081 90.4047 66.1081 90.4007L66.1161 88.8008C66.1161 88.8653 66.104 88.9338 66.0839 88.9982L66.0919 88.9862Z" fill="#0042C8"/>
<path fill-rule="evenodd" clip-rule="evenodd" d="M66.1162 88.6768C66.1845 88.6769 66.2397 88.7323 66.2397 88.8006C66.2397 88.8008 66.2397 88.801 66.2397 88.8012C66.2397 88.8012 66.2397 88.8012 66.2397 88.8012C66.2397 88.8029 66.2397 88.8047 66.2397 88.8063L66.2316 90.4005V90.401V90.4165C66.2316 90.4616 66.2267 90.5066 66.2169 90.5511C66.2112 90.5786 66.2013 90.6085 66.1941 90.6298L66.1931 90.6331C66.1911 90.6388 66.1888 90.6444 66.1861 90.6498C66.1859 90.6506 66.1856 90.6513 66.1854 90.6521C66.1836 90.6619 66.1807 90.6714 66.1766 90.6805L66.1758 90.6825C66.1602 90.7176 66.1422 90.7581 66.1194 90.7991C66.1166 90.804 66.1136 90.8088 66.1102 90.8133C66.1066 90.8181 66.1025 90.8242 66.096 90.8339L66.0953 90.8349C66.0919 90.8401 66.0876 90.8465 66.0829 90.8532C66.0775 90.8641 66.0719 90.8726 66.0677 90.8785C66.0652 90.8821 66.0623 90.8859 66.0609 90.8879L66.0603 90.8887C66.059 90.8904 66.0584 90.8913 66.058 90.8919C66.0579 90.892 66.0578 90.8922 66.0576 90.8926L66.0561 90.8955L66.0533 90.9005L66.0531 90.9009C66.0498 90.9069 66.0416 90.922 66.0279 90.9373C65.9895 90.984 65.9459 91.032 65.8969 91.0764C65.891 91.0818 65.8847 91.0865 65.8779 91.0906C65.8324 91.1305 65.7806 91.1651 65.7366 91.1944L65.7362 91.1946C65.7288 91.2003 65.7227 91.2054 65.715 91.2118C65.7096 91.2163 65.7034 91.2214 65.6954 91.2278C65.6779 91.2419 65.6553 91.2592 65.6279 91.2744C65.6274 91.2747 65.6268 91.275 65.6262 91.2754C65.6252 91.2759 65.6242 91.2764 65.6232 91.2769L65.6067 91.2852C65.6065 91.2853 65.6057 91.2856 65.6065 91.2853M65.6025 91.2873L65.6059 91.2853L65.5436 91.1783L65.599 91.289C65.5987 91.2892 65.5989 91.2891 65.599 91.289L65.6025 91.2873ZM65.9921 88.8048C65.9921 88.8034 65.9921 88.802 65.9921 88.8006L65.9921 88.7999C65.9924 88.7317 66.048 88.6766 66.1162 88.6768M65.9921 88.8048C65.9916 88.8535 65.9821 88.9078 65.9655 88.9611C65.9633 88.968 65.9618 88.975 65.9609 88.9819C65.945 89.0242 65.921 89.0684 65.8902 89.1115L65.888 89.1147C65.8823 89.1232 65.878 89.1304 65.875 89.1354L65.8747 89.1358C65.8722 89.1401 65.8706 89.1427 65.8688 89.1455C65.8352 89.1921 65.7898 89.2415 65.734 89.2936C65.7018 89.3225 65.6616 89.3496 65.612 89.3827L65.6097 89.3842C65.589 89.3987 65.574 89.41 65.5609 89.4199C65.5401 89.4356 65.524 89.4478 65.4974 89.4633C65.4974 89.4633 65.4974 89.4633 65.4974 89.4633L42.3654 102.907L42.3649 102.908C42.2583 102.97 42.1383 103.019 42.008 103.067C41.9594 103.083 41.9161 103.097 41.8736 103.108C41.8467 103.115 41.8228 103.121 41.8004 103.127C41.7608 103.138 41.7259 103.147 41.6874 103.155L41.6847 103.155C41.614 103.17 41.5426 103.181 41.465 103.193C41.4468 103.194 41.4312 103.197 41.4237 103.199L41.422 103.199C41.4168 103.2 41.4142 103.201 41.4132 103.201C41.4094 103.201 41.4056 103.201 41.4018 103.202C41.3034 103.213 41.2002 103.217 41.0913 103.221H41.0414C40.9381 103.221 40.8378 103.213 40.7324 103.205C40.7292 103.205 40.726 103.205 40.7229 103.205C40.7142 103.205 40.71 103.205 40.7064 103.205C40.7051 103.205 40.7043 103.204 40.704 103.204C40.6989 103.203 40.6938 103.202 40.6887 103.202C40.5868 103.19 40.4873 103.175 40.3931 103.152C40.3916 103.152 40.39 103.151 40.3885 103.151C40.3799 103.149 40.372 103.147 40.3628 103.145C40.3548 103.144 40.3458 103.142 40.3357 103.14C40.2444 103.116 40.1626 103.093 40.0859 103.064C40.0813 103.062 40.0766 103.061 40.0718 103.059C40.0632 103.057 40.0586 103.056 40.0545 103.055C40.051 103.054 40.0494 103.053 40.0488 103.053C40.0452 103.051 40.0416 103.049 40.0379 103.048C39.9377 103.009 39.8467 102.968 39.7602 102.919C39.7219 102.897 39.6751 102.897 39.6371 102.919C39.5991 102.941 39.5757 102.982 39.5754 103.026L39.5674 104.626C39.5672 104.671 39.5919 104.713 39.6319 104.735C39.7245 104.786 39.8211 104.832 39.9216 104.874C39.9299 104.877 39.9385 104.88 39.9473 104.881C39.95 104.882 39.9527 104.883 39.9554 104.884C39.9551 104.883 39.9552 104.883 39.9554 104.884C39.9556 104.884 39.9561 104.884 39.9572 104.884C39.9594 104.885 39.9618 104.886 39.9661 104.887L39.9674 104.888C39.9736 104.89 39.9844 104.894 39.9967 104.898C40.0512 104.917 40.1097 104.938 40.169 104.955L40.173 104.956L40.2697 104.98C40.2716 104.981 40.2735 104.981 40.2754 104.982C40.284 104.983 40.2919 104.985 40.3011 104.987L40.3016 104.987C40.3104 104.989 40.3205 104.991 40.3319 104.994C40.3363 104.994 40.3408 104.995 40.3453 104.996L40.3474 104.996L40.3538 104.998C40.3586 105 40.366 105.002 40.3745 105.004C40.3769 105.005 40.3793 105.006 40.3817 105.006C40.3902 105.008 40.3987 105.009 40.4074 105.011C40.462 105.021 40.5188 105.032 40.5786 105.039C40.5836 105.04 40.5888 105.04 40.5939 105.04C40.6056 105.04 40.6201 105.042 40.6381 105.046C40.6461 105.048 40.6543 105.048 40.6624 105.048C40.6711 105.048 40.6753 105.048 40.6789 105.049C40.6802 105.049 40.681 105.049 40.6814 105.049C40.691 105.051 40.7009 105.052 40.7108 105.052C40.7209 105.052 40.7282 105.054 40.7499 105.057L40.7589 105.059C40.7631 105.06 40.7673 105.06 40.7716 105.06C40.8037 105.062 40.8348 105.064 40.866 105.066L40.8666 105.066C40.8976 105.068 40.9288 105.07 40.961 105.072C40.9635 105.073 40.9661 105.073 40.9687 105.073H41.166C41.242 105.073 41.3138 105.065 41.381 105.057L41.3864 105.056H41.4037C41.4364 105.056 41.4674 105.05 41.4858 105.047C41.4964 105.045 41.5099 105.043 41.5249 105.041C41.5626 105.037 41.6103 105.031 41.6499 105.022C41.6664 105.019 41.6816 105.015 41.6926 105.012L41.6986 105.011C41.7081 105.008 41.7133 105.007 41.7178 105.006C41.7857 104.993 41.8534 104.976 41.9209 104.955C41.9351 104.952 41.9502 104.948 41.9663 104.944L41.9667 104.944C41.9836 104.94 42.0014 104.936 42.0183 104.932C42.0385 104.927 42.0545 104.92 42.0658 104.914C42.0679 104.913 42.0699 104.912 42.0718 104.911C42.0748 104.909 42.0775 104.908 42.0795 104.907C42.0806 104.906 42.0815 104.906 42.0824 104.905C42.2134 104.857 42.353 104.802 42.4747 104.729C42.475 104.729 42.4754 104.728 42.4757 104.728M65.9891 89.3883C65.9618 89.418 65.9326 89.447 65.9022 89.4754L65.9005 89.477C65.8535 89.5193 65.7987 89.5558 65.7527 89.5864L65.7506 89.5879C65.7432 89.593 65.7344 89.5997 65.7243 89.6072C65.6969 89.6277 65.6606 89.6548 65.6221 89.6772L42.4902 103.121C42.4901 103.121 42.49 103.121 42.4899 103.121C42.3632 103.196 42.226 103.251 42.0911 103.3L42.0879 103.301L42.0859 103.302C42.0389 103.317 41.9867 103.335 41.9337 103.348C41.9171 103.352 41.8983 103.357 41.8782 103.363C41.8332 103.375 41.7818 103.389 41.7344 103.398C41.6545 103.415 41.5753 103.427 41.4948 103.439C41.4897 103.44 41.4845 103.44 41.4793 103.44C41.4783 103.441 41.4757 103.441 41.4705 103.442L41.4688 103.442C41.4609 103.444 41.4441 103.447 41.4248 103.448C41.3169 103.46 41.206 103.465 41.1006 103.468L41.0982 103.469C41.0967 103.469 41.0952 103.469 41.0936 103.469H41.0414C40.9289 103.469 40.8209 103.46 40.7182 103.453C40.7044 103.453 40.6802 103.452 40.6539 103.447C40.549 103.435 40.442 103.418 40.3376 103.393C40.3271 103.391 40.3177 103.389 40.3095 103.387L40.3091 103.387C40.3 103.385 40.2921 103.383 40.2835 103.382C40.2812 103.381 40.2788 103.381 40.2765 103.38C40.1862 103.356 40.0942 103.332 40.0048 103.298C39.9903 103.294 39.9679 103.288 39.9443 103.277C39.9026 103.261 39.8619 103.244 39.8221 103.227L39.8154 104.552C39.8752 104.583 39.937 104.611 40.0007 104.638C40.0078 104.64 40.0196 104.642 40.0332 104.648C40.0409 104.651 40.0475 104.653 40.0517 104.655L40.053 104.656C40.0573 104.657 40.0598 104.658 40.0619 104.659C40.0634 104.659 40.064 104.659 40.064 104.659C40.0679 104.66 40.0716 104.662 40.0754 104.663C40.1318 104.683 40.1838 104.702 40.2351 104.716L40.327 104.739C40.3372 104.741 40.3464 104.743 40.3544 104.745L40.3548 104.745C40.3611 104.747 40.3668 104.748 40.3725 104.749C40.3925 104.751 40.4086 104.756 40.4173 104.759C40.4211 104.76 40.4263 104.761 40.4292 104.762L40.431 104.763C40.4317 104.763 40.4322 104.763 40.4327 104.764C40.44 104.765 40.4472 104.766 40.4543 104.768C40.5069 104.778 40.5536 104.786 40.6027 104.793C40.6297 104.794 40.6548 104.797 40.6743 104.801C40.6871 104.801 40.7051 104.802 40.7248 104.805C40.7515 104.806 40.775 104.81 40.7919 104.813C40.7925 104.813 40.793 104.813 40.7936 104.814C40.8234 104.815 40.8525 104.817 40.8813 104.819L40.8839 104.819C40.9133 104.821 40.9425 104.823 40.9726 104.825H41.166C41.2279 104.825 41.287 104.818 41.3575 104.811L41.3661 104.81C41.3706 104.809 41.3752 104.809 41.3798 104.809H41.4038C41.4096 104.809 41.4177 104.808 41.4401 104.803C41.4419 104.803 41.4437 104.803 41.4456 104.802C41.4722 104.798 41.494 104.795 41.5137 104.793C41.5439 104.789 41.5689 104.786 41.5978 104.78C41.6002 104.779 41.6027 104.779 41.6052 104.778C41.6114 104.777 41.6188 104.776 41.6301 104.773C41.6393 104.77 41.6552 104.766 41.6698 104.763L41.6713 104.763C41.7309 104.751 41.7906 104.737 41.8506 104.718C41.8529 104.717 41.8552 104.716 41.8575 104.716C41.8746 104.712 41.8926 104.707 41.9095 104.703C41.9256 104.7 41.9409 104.696 41.9552 104.692C41.9569 104.692 41.9588 104.691 41.9628 104.688C41.9664 104.686 41.9715 104.684 41.9773 104.681C41.9815 104.679 41.9859 104.677 41.9903 104.675C42.1228 104.627 42.2457 104.578 42.3472 104.517L42.3492 104.515L65.4814 91.0712C65.4837 91.0699 65.486 91.0687 65.4883 91.0675L65.489 91.0672L65.4893 91.067L65.4896 91.0669L65.4898 91.0668L65.4901 91.0666L65.4903 91.0665L65.4909 91.0662L65.5096 91.0569C65.518 91.052 65.5273 91.0453 65.54 91.035C65.543 91.0326 65.5468 91.0295 65.5511 91.0259C65.5624 91.0166 65.5772 91.0044 65.5903 90.9946C65.5915 90.9937 65.5927 90.9928 65.594 90.9919C65.5946 90.9915 65.5952 90.991 65.5959 90.9906C65.6453 90.9576 65.6855 90.9306 65.7177 90.9018L65.7189 90.9007C65.7211 90.8986 65.7245 90.8956 65.7287 90.8922C65.7314 90.8901 65.7357 90.8867 65.7414 90.883C65.7755 90.8509 65.8076 90.8154 65.8376 90.7788L65.8378 90.7786L65.841 90.7727C65.8435 90.7681 65.8471 90.7619 65.8517 90.7549C65.8554 90.7494 65.8588 90.7447 65.8611 90.7417L65.8621 90.7403C65.8658 90.7321 65.8704 90.7243 65.8758 90.7171C65.8794 90.7123 65.8835 90.7062 65.89 90.6965C65.8943 90.69 65.9001 90.6813 65.9064 90.6725C65.9193 90.6487 65.9305 90.6243 65.9428 90.597C65.9435 90.5931 65.9447 90.588 65.9465 90.5823C65.9476 90.5769 65.949 90.5711 65.9511 90.5649C65.9547 90.5541 65.9592 90.5447 65.9641 90.5366C65.9694 90.5204 65.9727 90.5093 65.9743 90.5011L65.9749 90.4985C65.981 90.4709 65.984 90.4436 65.984 90.4166V90.4006L65.984 90.3999L65.9891 89.3883Z" fill="black"/>
<path d="M30.6913 83.6022L28.7851 84.7104L26.6572 83.4813L28.5674 82.373L30.6913 83.6022Z" fill="#BFCAD5"/>
<path d="M37.9861 82.3493L36.0799 83.4575L33.9561 82.2284L35.8622 81.1201L37.9861 82.3493Z" fill="#BFCAD5"/>
<path fill-rule="evenodd" clip-rule="evenodd" d="M37.9861 82.3493L35.8622 81.1201L33.9561 82.2284L36.0799 83.4575L37.9861 82.3493ZM37.5913 82.3497L35.8625 81.3491L34.3509 82.228L36.0796 83.2285L37.5913 82.3497Z" fill="black"/>
<path d="M35.407 80.8579L33.5008 81.9662L31.377 80.7411L33.2831 79.6328L35.407 80.8579Z" fill="#BFCAD5"/>
<path fill-rule="evenodd" clip-rule="evenodd" d="M35.407 80.8579L33.2831 79.6328L31.377 80.7411L33.5008 81.9662L35.407 80.8579ZM35.0117 80.8586L33.2835 79.8617L31.7722 80.7404L33.5004 81.7373L35.0117 80.8586Z" fill="black"/>
<path d="M27.8954 79.2505L25.9851 80.3588L23.8613 79.1336L25.7675 78.0254L27.8954 79.2505Z" fill="#BFCAD5"/>
<path fill-rule="evenodd" clip-rule="evenodd" d="M27.8954 79.2505L25.7675 78.0254L23.8613 79.1336L25.9851 80.3588L27.8954 79.2505ZM27.4995 79.2512L25.768 78.2543L24.2566 79.133L25.9849 80.1299L27.4995 79.2512Z" fill="black"/>
<path d="M30.4735 80.7418L28.5633 81.8501L26.4395 80.6209L28.3456 79.5127L30.4735 80.7418Z" fill="#BFCAD5"/>
<path fill-rule="evenodd" clip-rule="evenodd" d="M30.4735 80.7418L28.3456 79.5127L26.4395 80.6209L28.5633 81.8501L30.4735 80.7418ZM30.0781 80.7422L28.346 79.7417L26.8343 80.6206L28.5631 81.6211L30.0781 80.7422Z" fill="black"/>
<path d="M32.8279 79.3708L30.9217 80.479L28.7979 79.2499L30.704 78.1416L32.8279 79.3708Z" fill="#BFCAD5"/>
<path fill-rule="evenodd" clip-rule="evenodd" d="M32.8279 79.3708L30.704 78.1416L28.7979 79.2499L30.9217 80.479L32.8279 79.3708ZM32.4331 79.3711L30.7043 78.3706L29.1926 79.2495L30.9214 80.25L32.4331 79.3711Z" fill="black"/>
<path d="M30.2528 77.8844L28.3426 78.9927L26.2188 77.7635L28.1249 76.6553L30.2528 77.8844Z" fill="#BFCAD5"/>
<path fill-rule="evenodd" clip-rule="evenodd" d="M30.2528 77.8844L28.1249 76.6553L26.2188 77.7635L28.3426 78.9927L30.2528 77.8844ZM29.8574 77.8848L28.1253 76.8842L26.6135 77.7631L28.3424 78.7637L29.8574 77.8848Z" fill="black"/>
<path d="M40.3475 80.9792L38.4373 82.0874L36.3135 80.8583L38.2197 79.75L40.3475 80.9792Z" fill="#BFCAD5"/>
<path fill-rule="evenodd" clip-rule="evenodd" d="M40.3475 80.9792L38.2197 79.75L36.3135 80.8583L38.4373 82.0874L40.3475 80.9792ZM39.9521 80.9795L38.22 79.979L36.7083 80.8579L38.4372 81.8585L39.9521 80.9795Z" fill="black"/>
<path d="M37.325 73.77L35.4189 74.8823L33.291 73.6532L35.2012 72.5449L37.325 73.77Z" fill="#BFCAD5"/>
<path fill-rule="evenodd" clip-rule="evenodd" d="M37.325 73.77L35.2012 72.5449L33.291 73.6532L35.4189 74.8823L37.325 73.77ZM36.9303 73.771L35.2015 72.7738L33.6864 73.6528L35.4184 74.6533L36.9303 73.771Z" fill="black"/>
<path d="M34.9676 75.1392L33.0614 76.2474L30.9336 75.0223L32.8398 73.9141L34.9676 75.1392Z" fill="#BFCAD5"/>
<path fill-rule="evenodd" clip-rule="evenodd" d="M34.9676 75.1392L32.8398 73.9141L30.9336 75.0223L33.0614 76.2474L34.9676 75.1392ZM34.5721 75.14L32.8403 74.1429L31.3292 75.0215L33.061 76.0186L34.5721 75.14Z" fill="black"/>
<path d="M39.9041 75.2604L37.9939 76.3686L35.8701 75.1395L37.7803 74.0312L39.9041 75.2604Z" fill="#BFCAD5"/>
<path fill-rule="evenodd" clip-rule="evenodd" d="M39.9041 75.2604L37.7803 74.0312L35.8701 75.1395L37.9939 76.3686L39.9041 75.2604ZM39.509 75.2606L37.7805 74.2602L36.2652 75.1393L37.9938 76.1397L39.509 75.2606Z" fill="black"/>
<path d="M32.6102 76.5103L30.704 77.6185L28.5762 76.3934L30.4864 75.2852L32.6102 76.5103Z" fill="#BFCAD5"/>
<path fill-rule="evenodd" clip-rule="evenodd" d="M32.6102 76.5103L30.4864 75.2852L28.5762 76.3934L30.704 77.6185L32.6102 76.5103ZM32.2149 76.5109L30.4867 75.514L28.972 76.3928L30.7035 77.3897L32.2149 76.5109Z" fill="black"/>
<path d="M37.5467 76.6305L35.6405 77.7388L33.5127 76.5096L35.4189 75.4014L37.5467 76.6305Z" fill="#BFCAD5"/>
<path fill-rule="evenodd" clip-rule="evenodd" d="M37.5467 76.6305L35.4189 75.4014L33.5127 76.5096L35.6405 77.7388L37.5467 76.6305ZM37.1516 76.6311L35.4192 75.6303L33.9078 76.5091L35.6402 77.5098L37.1516 76.6311Z" fill="black"/>
<path d="M35.1893 78.0006L33.2831 79.1089L31.1553 77.8797L33.0615 76.7715L35.1893 78.0006Z" fill="#BFCAD5"/>
<path fill-rule="evenodd" clip-rule="evenodd" d="M35.1893 78.0006L33.0615 76.7715L31.1553 77.8797L33.2831 79.1089L35.1893 78.0006ZM34.7942 78.0012L33.0618 77.0004L31.5504 77.8792L33.2828 78.8799L34.7942 78.0012Z" fill="black"/>
<path d="M40.1258 78.1177L38.2156 79.2259L36.0918 78.0008L37.998 76.8926L40.1258 78.1177Z" fill="#BFCAD5"/>
<path fill-rule="evenodd" clip-rule="evenodd" d="M40.1258 78.1177L37.998 76.8926L36.0918 78.0008L38.2156 79.2259L40.1258 78.1177ZM39.73 78.1184L37.9985 77.1214L36.4871 78.0002L38.2153 78.9971L39.73 78.1184Z" fill="black"/>
<path d="M37.7684 79.4878L35.8622 80.5961L33.7344 79.3709L35.6406 78.2627L37.7684 79.4878Z" fill="#BFCAD5"/>
<path fill-rule="evenodd" clip-rule="evenodd" d="M37.7684 79.4878L35.6406 78.2627L33.7344 79.3709L35.8622 80.5961L37.7684 79.4878ZM37.3728 79.4887L35.641 78.4916L34.1299 79.3701L35.8617 80.3672L37.3728 79.4887Z" fill="black"/>
<path d="M29.8094 72.1657L27.9032 73.2739L25.7754 72.0448L27.6856 70.9365L29.8094 72.1657Z" fill="#BFCAD5"/>
<path fill-rule="evenodd" clip-rule="evenodd" d="M29.8094 72.1657L27.6856 70.9365L25.7754 72.0448L27.9032 73.2739L29.8094 72.1657ZM29.4146 72.1661L27.6857 71.1655L26.1708 72.0444L27.9029 73.045L29.4146 72.1661Z" fill="black"/>
<path d="M32.3875 73.653L30.4814 74.7612L28.3535 73.5321L30.2637 72.4238L32.3875 73.653Z" fill="#BFCAD5"/>
<path fill-rule="evenodd" clip-rule="evenodd" d="M32.3875 73.653L30.2637 72.4238L28.3535 73.5321L30.4814 74.7612L32.3875 73.653ZM31.9927 73.6534L30.2639 72.6528L28.7489 73.5317L30.481 74.5323L31.9927 73.6534Z" fill="black"/>
<path d="M34.7459 72.2819L32.8398 73.3901L30.7119 72.165L32.6221 71.0527L34.7459 72.2819Z" fill="#BFCAD5"/>
<path fill-rule="evenodd" clip-rule="evenodd" d="M34.7459 72.2819L32.6221 71.0527L30.7119 72.165L32.8398 73.3901L34.7459 72.2819ZM34.3511 72.2823L32.6224 71.2818L31.1073 72.164L32.8393 73.1613L34.3511 72.2823Z" fill="black"/>
<path d="M32.1668 70.7915L30.2607 71.9038L28.1328 70.6747L30.043 69.5664L32.1668 70.7915Z" fill="#BFCAD5"/>
<path fill-rule="evenodd" clip-rule="evenodd" d="M32.1668 70.7915L30.043 69.5664L28.1328 70.6747L30.2607 71.9038L32.1668 70.7915ZM31.7721 70.7925L30.0433 69.7953L28.5282 70.6743L30.2601 71.6747L31.7721 70.7925Z" fill="black"/>
<path d="M29.5916 69.3042L27.6814 70.4125L25.5576 69.1874L27.4678 68.0791L29.5916 69.3042Z" fill="#BFCAD5"/>
<path fill-rule="evenodd" clip-rule="evenodd" d="M29.5916 69.3042L27.4678 68.0791L25.5576 69.1874L27.6814 70.4125L29.5916 69.3042ZM29.1961 69.3047L27.4681 68.308L25.9532 69.1869L27.6811 70.1836L29.1961 69.3047Z" fill="black"/>
<path d="M50.2206 81.2124L48.3103 82.3247L46.1865 81.0956L48.0927 79.9873L50.2206 81.2124Z" fill="#BFCAD5"/>
<path fill-rule="evenodd" clip-rule="evenodd" d="M50.2206 81.2124L48.0927 79.9873L46.1865 81.0956L48.3103 82.3247L50.2206 81.2124ZM49.8252 81.2134L48.0932 80.2162L46.5813 81.0952L48.31 82.0956L49.8252 81.2134Z" fill="black"/>
<path d="M47.8591 82.5875L45.9529 83.6958L43.8291 82.4666L45.7353 81.3584L47.8591 82.5875Z" fill="#BFCAD5"/>
<path fill-rule="evenodd" clip-rule="evenodd" d="M47.8591 82.5875L45.7353 81.3584L43.8291 82.4666L45.9529 83.6958L47.8591 82.5875ZM47.4643 82.5879L45.7355 81.5874L44.2239 82.4663L45.9527 83.4668L47.4643 82.5879Z" fill="black"/>
<path d="M52.7997 82.7038L50.8894 83.812L48.7656 82.5869L50.6718 81.4746L52.7997 82.7038Z" fill="#BFCAD5"/>
<path fill-rule="evenodd" clip-rule="evenodd" d="M52.7997 82.7038L50.6718 81.4746L48.7656 82.5869L50.8894 83.812L52.7997 82.7038ZM52.4043 82.7041L50.6723 81.7037L49.1604 82.5859L50.8892 83.5832L52.4043 82.7041Z" fill="black"/>
<path d="M50.4382 84.0738L48.532 85.182L46.4082 83.9569L48.3144 82.8486L50.4382 84.0738Z" fill="#BFCAD5"/>
<path fill-rule="evenodd" clip-rule="evenodd" d="M50.4382 84.0738L48.3144 82.8486L46.4082 83.9569L48.532 85.182L50.4382 84.0738ZM50.0429 84.0744L48.3148 83.0775L46.8035 83.9562L48.5316 84.9531L50.0429 84.0744Z" fill="black"/>
<path d="M45.28 81.0962L43.3738 82.2045L41.25 80.9793L43.1562 79.8711L45.28 81.0962Z" fill="#BFCAD5"/>
<path fill-rule="evenodd" clip-rule="evenodd" d="M45.28 81.0962L43.1562 79.8711L41.25 80.9793L43.3738 82.2045L45.28 81.0962ZM44.8847 81.0969L43.1566 80.1L41.6453 80.9787L43.3734 81.9755L44.8847 81.0969Z" fill="black"/>
<path d="M47.6415 79.7261L45.7312 80.8343L43.6074 79.6092L45.5136 78.501L47.6415 79.7261Z" fill="#BFCAD5"/>
<path fill-rule="evenodd" clip-rule="evenodd" d="M47.6415 79.7261L45.5136 78.501L43.6074 79.6092L45.7312 80.8343L47.6415 79.7261ZM47.2456 79.7268L45.5141 78.7298L44.0027 79.6086L45.7309 80.6055L47.2456 79.7268Z" fill="black"/>
<path d="M42.7049 79.609L40.7947 80.7173L38.6709 79.4881L40.5771 78.3799L42.7049 79.609Z" fill="#BFCAD5"/>
<path fill-rule="evenodd" clip-rule="evenodd" d="M42.7049 79.609L40.5771 78.3799L38.6709 79.4881L40.7947 80.7173L42.7049 79.609ZM42.3095 79.6094L40.5774 78.6088L39.0657 79.4877L40.7946 80.4883L42.3095 79.6094Z" fill="black"/>
<path d="M45.0624 78.2389L43.1521 79.3472L41.0283 78.118L42.9385 77.0098L45.0624 78.2389Z" fill="#BFCAD5"/>
<path fill-rule="evenodd" clip-rule="evenodd" d="M45.0624 78.2389L42.9385 77.0098L41.0283 78.118L43.1521 79.3472L45.0624 78.2389ZM44.6672 78.2391L42.9387 77.2387L41.4234 78.1178L43.152 79.1182L44.6672 78.2391Z" fill="black"/>
<path d="M42.4832 76.7476L40.573 77.8558L38.4492 76.6307L40.3594 75.5225L42.4832 76.7476Z" fill="#BFCAD5"/>
<path fill-rule="evenodd" clip-rule="evenodd" d="M42.4832 76.7476L40.3594 75.5225L38.4492 76.6307L40.573 77.8558L42.4832 76.7476ZM42.0877 76.7481L40.3597 75.7513L38.8448 76.6302L40.5727 77.627L42.0877 76.7481Z" fill="black"/>
<path d="M45.5017 83.9577L43.5955 85.0659L41.4717 83.8368L43.3779 82.7285L45.5017 83.9577Z" fill="#BFCAD5"/>
<path fill-rule="evenodd" clip-rule="evenodd" d="M45.5017 83.9577L43.3779 82.7285L41.4717 83.8368L43.5955 85.0659L45.5017 83.9577ZM45.1069 83.9581L43.3781 82.9575L41.8665 83.8364L43.5953 84.8369L45.1069 83.9581Z" fill="black"/>
<path d="M48.0808 85.4448L46.1746 86.5531L44.0508 85.3239L45.957 84.2197L48.0808 85.4448Z" fill="#BFCAD5"/>
<path fill-rule="evenodd" clip-rule="evenodd" d="M48.0808 85.4448L45.957 84.2197L44.0508 85.3239L46.1746 86.5531L48.0808 85.4448ZM47.6855 85.4455L45.9572 84.4485L44.4461 85.3239L46.1744 86.3241L47.6855 85.4455Z" fill="black"/>
<path d="M50.6599 86.9312L48.7537 88.0394L46.6299 86.8143L48.5361 85.7061L50.6599 86.9312Z" fill="#BFCAD5"/>
<path fill-rule="evenodd" clip-rule="evenodd" d="M50.6599 86.9312L48.5361 85.7061L46.6299 86.8143L48.7537 88.0394L50.6599 86.9312ZM50.2646 86.9319L48.5365 85.935L47.0252 86.8136L48.7533 87.8105L50.2646 86.9319Z" fill="black"/>
<path d="M46.1628 92.5337L44.2566 93.642L42.1328 92.4168L44.039 91.3086L46.1628 92.5337Z" fill="#BFCAD5"/>
<path fill-rule="evenodd" clip-rule="evenodd" d="M46.1628 92.5337L44.039 91.3086L42.1328 92.4168L44.2566 93.642L46.1628 92.5337ZM45.7675 92.5344L44.0394 91.5375L42.5281 92.4162L44.2562 93.413L45.7675 92.5344Z" fill="black"/>
<path d="M48.7419 94.02L46.8357 95.1283L44.7119 93.9032L46.6181 92.7949L48.7419 94.02Z" fill="#BFCAD5"/>
<path fill-rule="evenodd" clip-rule="evenodd" d="M48.7419 94.02L46.6181 92.7949L44.7119 93.9032L46.8357 95.1283L48.7419 94.02ZM48.3466 94.0207L46.6185 93.0238L45.1072 93.9025L46.8353 94.8994L48.3466 94.0207Z" fill="black"/>
<path d="M51.0993 92.6499L49.1931 93.7582L47.0693 92.5331L48.9755 91.4248L51.0993 92.6499Z" fill="#BFCAD5"/>
<path fill-rule="evenodd" clip-rule="evenodd" d="M51.0993 92.6499L48.9755 91.4248L47.0693 92.5331L49.1931 93.7582L51.0993 92.6499ZM50.7041 92.6506L48.9759 91.6537L47.4646 92.5324L49.1928 93.5293L50.7041 92.6506Z" fill="black"/>
<path d="M55.3758 84.1909L53.4656 85.2992L51.3418 84.0741L53.252 82.9658L55.3758 84.1909Z" fill="#BFCAD5"/>
<path fill-rule="evenodd" clip-rule="evenodd" d="M55.3758 84.1909L53.252 82.9658L51.3418 84.0741L53.4656 85.2992L55.3758 84.1909ZM54.9802 84.1914L53.2523 83.1947L51.7374 84.0736L53.4653 85.0703L54.9802 84.1914Z" fill="black"/>
<path d="M57.9549 85.6823L56.0447 86.7905L53.9209 85.5654L55.8311 84.4531L57.9549 85.6823Z" fill="#BFCAD5"/>
<path fill-rule="evenodd" clip-rule="evenodd" d="M57.9549 85.6823L55.8311 84.4531L53.9209 85.5654L56.0447 86.7905L57.9549 85.6823ZM57.5598 85.6825L55.8314 84.6822L54.316 85.5646L56.0444 86.5617L57.5598 85.6825Z" fill="black"/>
<path d="M55.5965 87.0523L53.6863 88.1605L51.5625 86.9314L53.4727 85.8271L55.5965 87.0523Z" fill="#BFCAD5"/>
<path fill-rule="evenodd" clip-rule="evenodd" d="M55.5965 87.0523L53.4727 85.8271L51.5625 86.9314L53.6863 88.1605L55.5965 87.0523ZM55.2009 87.0528L53.4728 86.0559L51.9582 86.9315L53.6862 87.9316L55.2009 87.0528Z" fill="black"/>
<path d="M60.5331 87.1695L58.6228 88.2777L56.499 87.0526L58.4092 85.9443L60.5331 87.1695Z" fill="#BFCAD5"/>
<path fill-rule="evenodd" clip-rule="evenodd" d="M60.5331 87.1695L58.4092 85.9443L56.499 87.0526L58.6228 88.2777L60.5331 87.1695ZM60.1375 87.17L58.4095 86.1732L56.8946 87.0521L58.6226 88.0489L60.1375 87.17Z" fill="black"/>
<path d="M53.239 88.4225L51.3288 89.5308L49.209 88.3016L51.1152 87.1934L53.239 88.4225Z" fill="#BFCAD5"/>
<path fill-rule="evenodd" clip-rule="evenodd" d="M53.239 88.4225L51.1152 87.1934L49.209 88.3016L51.3288 89.5308L53.239 88.4225ZM52.8439 88.4227L51.1154 87.4224L49.6035 88.3014L51.3287 89.3018L52.8439 88.4227Z" fill="black"/>
<path d="M58.1716 88.5396L56.2654 89.6478L54.1416 88.4227L56.0518 87.3145L58.1716 88.5396Z" fill="#BFCAD5"/>
<path fill-rule="evenodd" clip-rule="evenodd" d="M58.1716 88.5396L56.0518 87.3145L54.1416 88.4227L56.2654 89.6478L58.1716 88.5396ZM57.7766 88.5401L56.052 87.5434L54.5372 88.4222L56.265 89.4189L57.7766 88.5401Z" fill="black"/>
<path d="M50.8777 89.7925L48.9715 90.9008L46.8477 89.6756L48.7538 88.5674L50.8777 89.7925Z" fill="#BFCAD5"/>
<path fill-rule="evenodd" clip-rule="evenodd" d="M50.8777 89.7925L48.7538 88.5674L46.8477 89.6756L48.9715 90.9008L50.8777 89.7925ZM50.4824 89.7932L48.7542 88.7963L47.2429 89.675L48.9711 90.6718L50.4824 89.7932Z" fill="black"/>
<path d="M55.8182 89.9097L53.908 91.0179L51.7842 89.7928L53.6944 88.6846L55.8182 89.9097Z" fill="#BFCAD5"/>
<path fill-rule="evenodd" clip-rule="evenodd" d="M55.8182 89.9097L53.6944 88.6846L51.7842 89.7928L53.908 91.0179L55.8182 89.9097ZM55.4226 89.9102L53.6947 88.9134L52.1798 89.7923L53.9077 90.7891L55.4226 89.9102Z" fill="black"/>
<path d="M53.4568 91.2798L51.5506 92.3881L49.4268 91.1629L51.3329 90.0547L53.4568 91.2798Z" fill="#BFCAD5"/>
<path fill-rule="evenodd" clip-rule="evenodd" d="M53.4568 91.2798L51.3329 90.0547L49.4268 91.1629L51.5506 92.3881L53.4568 91.2798ZM53.0615 91.2805L51.3333 90.2836L49.822 91.1623L51.5502 92.1591L53.0615 91.2805Z" fill="black"/>
<path d="M22.5154 73.4146L20.6092 74.5228L18.4854 73.2977L20.3915 72.1895L22.5154 73.4146Z" fill="#BFCAD5"/>
<path fill-rule="evenodd" clip-rule="evenodd" d="M22.5154 73.4146L20.3915 72.1895L18.4854 73.2977L20.6092 74.5228L22.5154 73.4146ZM22.1201 73.4152L20.3919 72.4184L18.8806 73.297L20.6088 74.2939L22.1201 73.4152Z" fill="black"/>
<path d="M24.8728 72.0445L22.9666 73.1527L20.8428 71.9276L22.749 70.8193L24.8728 72.0445Z" fill="#BFCAD5"/>
<path fill-rule="evenodd" clip-rule="evenodd" d="M24.8728 72.0445L22.749 70.8193L20.8428 71.9276L22.9666 73.1527L24.8728 72.0445ZM24.4775 72.0451L22.7494 71.0483L21.2381 71.9269L22.9662 72.9238L24.4775 72.0451Z" fill="black"/>
<path d="M27.2292 70.6743L25.323 71.7826L23.1992 70.5575L25.1054 69.4492L27.2292 70.6743Z" fill="#BFCAD5"/>
<path fill-rule="evenodd" clip-rule="evenodd" d="M27.2292 70.6743L25.1054 69.4492L23.1992 70.5575L25.323 71.7826L27.2292 70.6743ZM26.8339 70.675L25.1058 69.6781L23.5945 70.5568L25.3226 71.5537L26.8339 70.675Z" fill="black"/>
<path d="M53.0183 85.5611L51.1081 86.6693L48.9883 85.4442L50.8945 84.3359L53.0183 85.5611Z" fill="#BFCAD5"/>
<path fill-rule="evenodd" clip-rule="evenodd" d="M53.0183 85.5611L50.8945 84.3359L48.9883 85.4442L51.1081 86.6693L53.0183 85.5611ZM52.6227 85.5615L50.8949 84.5649L49.3833 85.4437L51.1079 86.4404L52.6227 85.5615Z" fill="black"/>
<path d="M30.0301 75.0231L28.1239 76.1313L25.9961 74.9022L27.9063 73.7939L30.0301 75.0231Z" fill="#BFCAD5"/>
<path fill-rule="evenodd" clip-rule="evenodd" d="M30.0301 75.0231L27.9063 73.7939L25.9961 74.9022L28.1239 76.1313L30.0301 75.0231ZM29.6353 75.0235L27.9064 74.0229L26.3915 74.9018L28.1236 75.9024L29.6353 75.0235Z" fill="black"/>
<path d="M20.3747 77.6461L18.4685 78.7544L16.3447 77.5252L18.2509 76.417L20.3747 77.6461Z" fill="#BFCAD5"/>
<path fill-rule="evenodd" clip-rule="evenodd" d="M20.3747 77.6461L18.2509 76.417L16.3447 77.5252L18.4685 78.7544L20.3747 77.6461ZM19.9799 77.6465L18.2511 76.646L16.7395 77.5249L18.4683 78.5254L19.9799 77.6465Z" fill="black"/>
<path d="M22.9538 79.1333L21.0476 80.2416L18.9238 79.0165L20.83 77.9082L22.9538 79.1333Z" fill="#BFCAD5"/>
<path fill-rule="evenodd" clip-rule="evenodd" d="M22.9538 79.1333L20.83 77.9082L18.9238 79.0165L21.0476 80.2416L22.9538 79.1333ZM22.5585 79.134L20.8304 78.1371L19.3191 79.0158L21.0472 80.0127L22.5585 79.134Z" fill="black"/>
<path d="M25.3153 77.7632L23.4091 78.8715L21.2812 77.6423L23.1874 76.5381L25.3153 77.7632Z" fill="#BFCAD5"/>
<path fill-rule="evenodd" clip-rule="evenodd" d="M25.3153 77.7632L23.1874 76.5381L21.2812 77.6423L23.4091 78.8715L25.3153 77.7632ZM24.9197 77.764L23.1877 76.7668L21.6769 77.6421L23.4088 78.6425L24.9197 77.764Z" fill="black"/>
<path d="M27.6727 76.3931L25.7625 77.5013L23.6387 76.2762L25.5449 75.168L27.6727 76.3931Z" fill="#BFCAD5"/>
<path fill-rule="evenodd" clip-rule="evenodd" d="M27.6727 76.3931L25.5449 75.168L23.6387 76.2762L25.7625 77.5013L27.6727 76.3931ZM27.2768 76.3937L25.5453 75.3968L24.034 76.2755L25.7622 77.2725L27.2768 76.3937Z" fill="black"/>
<path d="M25.0946 74.9059L23.1884 76.0142L21.0605 74.785L22.9667 73.6768L25.0946 74.9059Z" fill="#BFCAD5"/>
<path fill-rule="evenodd" clip-rule="evenodd" d="M25.0946 74.9059L22.9667 73.6768L21.0605 74.785L23.1884 76.0142L25.0946 74.9059ZM24.6995 74.9065L22.9671 73.9057L21.4556 74.7845L23.1881 75.7852L24.6995 74.9065Z" fill="black"/>
<path d="M27.4519 73.5318L25.5457 74.64L23.4219 73.4149L25.3281 72.3066L27.4519 73.5318Z" fill="#BFCAD5"/>
<path fill-rule="evenodd" clip-rule="evenodd" d="M27.4519 73.5318L25.3281 72.3066L23.4219 73.4149L25.5457 74.64L27.4519 73.5318ZM27.0566 73.5324L25.3285 72.5356L23.8172 73.4142L25.5453 74.4111L27.0566 73.5324Z" fill="black"/>
<path d="M43.5827 91.0415L41.6765 92.1498L39.5527 90.9247L41.4589 89.8164L43.5827 91.0415Z" fill="#BFCAD5"/>
<path fill-rule="evenodd" clip-rule="evenodd" d="M43.5827 91.0415L41.4589 89.8164L39.5527 90.9247L41.6765 92.1498L43.5827 91.0415ZM43.1875 91.0422L41.4593 90.0453L39.948 90.924L41.6762 91.9209L43.1875 91.0422Z" fill="black"/>
<path d="M45.9411 89.6714L44.0349 90.7797L41.9111 89.5545L43.8214 88.4463L45.9411 89.6714Z" fill="#BFCAD5"/>
<path fill-rule="evenodd" clip-rule="evenodd" d="M45.9411 89.6714L43.8214 88.4463L41.9111 89.5545L44.0349 90.7797L45.9411 89.6714ZM45.5461 89.6719L43.8215 88.6752L42.3067 89.554L44.0346 90.5507L45.5461 89.6719Z" fill="black"/>
<path d="M48.2986 88.3013L46.3924 89.4095L44.2686 88.1844L46.1747 87.0762L48.2986 88.3013Z" fill="#BFCAD5"/>
<path fill-rule="evenodd" clip-rule="evenodd" d="M48.2986 88.3013L46.1747 87.0762L44.2686 88.1844L46.3924 89.4095L48.2986 88.3013ZM47.9033 88.302L46.1751 87.3051L44.6638 88.1837L46.392 89.1806L47.9033 88.302Z" fill="black"/>
<path d="M45.7235 86.814L43.8173 87.9222L41.6895 86.6971L43.5997 85.5889L45.7235 86.814Z" fill="#BFCAD5"/>
<path fill-rule="evenodd" clip-rule="evenodd" d="M45.7235 86.814L43.5997 85.5889L41.6895 86.6971L43.8173 87.9222L45.7235 86.814ZM45.3282 86.8147L43.6 85.8177L42.0853 86.6965L43.8168 87.6934L45.3282 86.8147Z" fill="black"/>
<path d="M43.3661 88.1851L41.4599 89.2933L39.332 88.0682L41.2423 86.96L43.3661 88.1851Z" fill="#BFCAD5"/>
<path fill-rule="evenodd" clip-rule="evenodd" d="M43.3661 88.1851L41.2423 86.96L39.332 88.0682L41.4599 89.2933L43.3661 88.1851ZM42.9708 88.1858L41.2425 87.1888L39.7279 88.0676L41.4594 89.0645L42.9708 88.1858Z" fill="black"/>
<path d="M40.7868 86.6979L38.8806 87.8062L36.7568 86.577L38.663 85.4688L40.7868 86.6979Z" fill="#BFCAD5"/>
<path fill-rule="evenodd" clip-rule="evenodd" d="M40.7868 86.6979L38.663 85.4688L36.7568 86.577L38.8806 87.8062L40.7868 86.6979ZM40.392 86.6983L38.6633 85.6978L37.1516 86.5766L38.8804 87.5771L40.392 86.6983Z" fill="black"/>
<path d="M43.1444 85.3278L41.2382 86.436L39.1104 85.2069L41.0206 84.0986L43.1444 85.3278Z" fill="#BFCAD5"/>
<path fill-rule="evenodd" clip-rule="evenodd" d="M43.1444 85.3278L41.0206 84.0986L39.1104 85.2069L41.2382 86.436L43.1444 85.3278ZM42.7496 85.3282L41.0207 84.3276L39.5057 85.2065L41.2379 86.2071L42.7496 85.3282Z" fill="black"/>
<path d="M38.2068 85.2066L36.3006 86.3148L34.1768 85.0897L36.0829 83.9814L38.2068 85.2066Z" fill="#BFCAD5"/>
<path fill-rule="evenodd" clip-rule="evenodd" d="M38.2068 85.2066L36.0829 83.9814L34.1768 85.0897L36.3006 86.3148L38.2068 85.2066ZM37.8115 85.2072L36.0833 84.2104L34.572 85.089L36.3002 86.0859L37.8115 85.2072Z" fill="black"/>
<path d="M40.5652 83.8364L38.659 84.9447L36.5352 83.7196L38.4413 82.6113L40.5652 83.8364Z" fill="#BFCAD5"/>
<path fill-rule="evenodd" clip-rule="evenodd" d="M40.5652 83.8364L38.4413 82.6113L36.5352 83.7196L38.659 84.9447L40.5652 83.8364ZM40.1699 83.8371L38.4417 82.8402L36.9304 83.7189L38.6586 84.7158L40.1699 83.8371Z" fill="black"/>
<path d="M42.9266 82.4663L41.0164 83.5746L38.8926 82.3495L40.7988 81.2412L42.9266 82.4663Z" fill="#BFCAD5"/>
<path fill-rule="evenodd" clip-rule="evenodd" d="M42.9266 82.4663L40.7988 81.2412L38.8926 82.3495L41.0164 83.5746L42.9266 82.4663ZM42.5307 82.467L40.7993 81.4701L39.2879 82.3488L41.0161 83.3457L42.5307 82.467Z" fill="black"/>
<path d="M20.157 74.7847L18.2508 75.8929L16.127 74.6678L18.0331 73.5596L20.157 74.7847Z" fill="#BFCAD5"/>
<path fill-rule="evenodd" clip-rule="evenodd" d="M20.157 74.7847L18.0331 73.5596L16.127 74.6678L18.2508 75.8929L20.157 74.7847ZM19.7617 74.7854L18.0335 73.7885L16.5222 74.6671L18.2504 75.664L19.7617 74.7854Z" fill="black"/>
<path d="M22.7362 76.276L20.83 77.3843L18.7021 76.1551L20.6083 75.0469L22.7362 76.276Z" fill="#BFCAD5"/>
<path fill-rule="evenodd" clip-rule="evenodd" d="M22.7362 76.276L20.6083 75.0469L18.7021 76.1551L20.83 77.3843L22.7362 76.276ZM22.3411 76.2766L20.6087 75.2758L19.0972 76.1546L20.8297 77.1553L22.3411 76.2766Z" fill="black"/>
<path d="M33.0486 82.2281L31.1424 83.3363L29.0186 82.1112L30.9247 81.0029L33.0486 82.2281Z" fill="#BFCAD5"/>
<path fill-rule="evenodd" clip-rule="evenodd" d="M33.0486 82.2281L30.9247 81.0029L29.0186 82.1112L31.1424 83.3363L33.0486 82.2281ZM32.6533 82.2287L30.9251 81.2318L29.4138 82.1105L31.142 83.1074L32.6533 82.2287Z" fill="black"/>
<path d="M25.5329 80.6247L23.6267 81.7329L21.5029 80.5038L23.4091 79.3955L25.5329 80.6247Z" fill="#BFCAD5"/>
<path fill-rule="evenodd" clip-rule="evenodd" d="M25.5329 80.6247L23.4091 79.3955L21.5029 80.5038L23.6267 81.7329L25.5329 80.6247ZM25.1381 80.6251L23.4093 79.6245L21.8977 80.5034L23.6265 81.5039L25.1381 80.6251Z" fill="black"/>
<path d="M38.4288 88.0682L25.9882 80.8867L24.082 81.995L36.5226 89.1764L38.4288 88.0682Z" fill="#BFCAD5"/>
<path fill-rule="evenodd" clip-rule="evenodd" d="M25.9886 81.1157L24.4772 81.9944L36.5223 88.9475L38.0337 88.0688L25.9886 81.1157ZM25.9882 80.8867L24.082 81.995L36.5226 89.1764L38.4288 88.0682L25.9882 80.8867Z" fill="black"/>
<path d="M35.6286 83.7194L33.7224 84.8276L31.5986 83.5985L33.5048 82.4902L35.6286 83.7194Z" fill="#BFCAD5"/>
<path fill-rule="evenodd" clip-rule="evenodd" d="M35.6286 83.7194L33.5048 82.4902L31.5986 83.5985L33.7224 84.8276L35.6286 83.7194ZM35.2338 83.7198L33.5051 82.7192L31.9934 83.5981L33.7222 84.5986L35.2338 83.7198Z" fill="black"/>
<path d="M48.5202 91.1626L46.614 92.2709L44.4902 91.0417L46.3964 89.9375L48.5202 91.1626Z" fill="#BFCAD5"/>
<path fill-rule="evenodd" clip-rule="evenodd" d="M48.5202 91.1626L46.3964 89.9375L44.4902 91.0417L46.614 92.2709L48.5202 91.1626ZM48.125 91.1633L46.3966 90.1663L44.8856 91.0416L46.6138 92.0419L48.125 91.1633Z" fill="black"/>
<path d="M17.7997 76.1548L15.8894 77.2631L13.7656 76.0379L15.6758 74.9297L17.7997 76.1548Z" fill="#BFCAD5"/>
<path fill-rule="evenodd" clip-rule="evenodd" d="M17.7997 76.1548L15.6758 74.9297L13.7656 76.0379L15.8894 77.2631L17.7997 76.1548ZM17.4041 76.1553L15.6761 75.1585L14.1612 76.0374L15.8892 77.0342L17.4041 76.1553Z" fill="black"/>
<path d="M41.0086 89.5552L39.0984 90.6634L36.9746 89.4383L38.8808 88.3301L41.0086 89.5552Z" fill="#BFCAD5"/>
<path fill-rule="evenodd" clip-rule="evenodd" d="M41.0086 89.5552L38.8808 88.3301L36.9746 89.4383L39.0984 90.6634L41.0086 89.5552ZM40.6128 89.5559L38.8813 88.5589L37.3699 89.4377L39.0981 90.4346L40.6128 89.5559Z" fill="black"/>
<path d="M34.004 89.2361C34.2418 89.3731 34.2418 89.5947 34.004 89.7318L28.4628 92.9517C28.225 93.0888 27.8462 93.0888 27.6084 92.9517L18.4361 87.6563C18.1984 87.5193 18.1984 87.2976 18.4361 87.1606L23.9774 83.9407C24.2152 83.8036 24.594 83.8036 24.8317 83.9407L34.004 89.2361Z" fill="#BFCAD5"/>
<path fill-rule="evenodd" clip-rule="evenodd" d="M24.7081 84.1552L33.8802 89.4505L24.7081 84.1552ZM33.8796 89.5177L33.8804 89.5172C33.9032 89.5041 33.9174 89.4924 33.926 89.4839C33.9174 89.4754 33.903 89.4636 33.8802 89.4505M18.4361 87.6563L27.6084 92.9517C27.8462 93.0888 28.225 93.0888 28.4628 92.9517L34.004 89.7318C34.2418 89.5947 34.2418 89.3731 34.004 89.2361L24.8317 83.9407C24.594 83.8036 24.2152 83.8036 23.9774 83.9407L18.4361 87.1606C18.1984 87.2976 18.1984 87.5193 18.4361 87.6563ZM24.1014 84.155C24.1012 84.1551 24.1011 84.1551 24.101 84.1552L18.5598 87.3752C18.537 87.3883 18.5227 87.4 18.5142 87.4085C18.5227 87.4169 18.537 87.4286 18.5598 87.4418L27.7321 92.7372C27.805 92.7792 27.9141 92.8069 28.0356 92.8069C28.157 92.8069 28.2659 92.7793 28.3388 92.7374C28.3389 92.7373 28.339 92.7373 28.3391 92.7372L33.8796 89.5177M24.1014 84.155C24.1743 84.1131 24.2832 84.0855 24.4046 84.0855C24.526 84.0855 24.6352 84.1132 24.7081 84.1552" fill="black"/>
<path d="M27.9381 32.3452C27.5351 32.1115 27.0394 32.1115 26.6364 32.3452L25.6611 32.9135C25.7216 32.8772 25.7901 32.853 25.8626 32.8369C25.9352 32.8208 26.0117 32.8167 26.0923 32.8248C26.0923 32.8248 26.0964 32.8248 26.1004 32.8248C26.181 32.8329 26.2656 32.849 26.3543 32.8812C26.443 32.9135 26.5356 32.9538 26.6283 33.0102L65.6307 55.5298L66.8518 54.8205L27.9381 32.3452Z" fill="#0063F6"/>
<path fill-rule="evenodd" clip-rule="evenodd" d="M28.001 32.2378C28.0009 32.2378 28.001 32.2378 28.001 32.2378L66.9145 54.713C66.9527 54.7351 66.9763 54.7759 66.9764 54.8201C66.9764 54.8642 66.9529 54.9051 66.9147 54.9273L65.6936 55.6366C65.6553 55.6588 65.608 55.6589 65.5695 55.6367L26.5647 33.1157C26.481 33.0647 26.3963 33.0276 26.3128 32.9973C26.2378 32.97 26.1656 32.9557 26.0949 32.9483H26.0933C26.0892 32.9483 26.0849 32.9481 26.0808 32.9477C26.0121 32.9408 25.9489 32.9444 25.8903 32.9574C25.8311 32.9706 25.7791 32.989 25.735 33.0138L25.7242 33.0201C25.6654 33.0544 25.59 33.0348 25.5553 32.9762C25.5207 32.9176 25.5398 32.842 25.5982 32.807C25.6027 32.8043 25.6072 32.8017 25.6118 32.7991L26.5748 32.2379C27.0162 31.9819 27.5596 31.9819 28.001 32.2378ZM26.2392 32.7201C26.2903 32.7305 26.3431 32.7448 26.3974 32.7645C26.4908 32.7985 26.591 32.8419 26.6922 32.9033C26.6927 32.9036 26.6931 32.9039 26.6935 32.9041L65.6313 55.3864L66.6055 54.8205L27.8769 32.4521C27.5124 32.2407 27.064 32.2406 26.6994 32.452C26.6994 32.452 26.6994 32.4519 26.6994 32.452L26.2392 32.7201Z" fill="black"/>
<path d="M66.8607 54.8164L65.6396 55.5257C65.7323 55.5781 65.825 55.6426 65.9097 55.7151C65.9097 55.7151 65.9137 55.7151 65.9177 55.7191C66.0023 55.7876 66.0829 55.8642 66.1635 55.9488C66.1635 55.9488 66.1716 55.9569 66.1756 55.9609C66.2401 56.0294 66.2965 56.102 66.357 56.1785C66.3892 56.2229 66.4215 56.2672 66.4537 56.3115C66.49 56.3639 66.5262 56.4203 66.5585 56.4727C66.5867 56.5211 66.6149 56.5654 66.6391 56.6138C66.6834 56.6984 66.7277 56.779 66.768 56.8677C66.768 56.8717 66.7721 56.8757 66.7761 56.8838C66.8245 56.9926 66.8648 57.1014 66.897 57.2102C66.897 57.2102 66.897 57.2183 66.897 57.2223C66.9292 57.3352 66.9575 57.448 66.9736 57.5568C66.9897 57.6696 67.0018 57.7825 67.0018 57.8913L66.9252 87.2095C66.9252 87.3143 66.9131 87.4151 66.897 87.5037C66.897 87.5037 66.897 87.5078 66.897 87.5118C66.8769 87.6005 66.8527 87.6811 66.8204 87.7536C66.7922 87.814 66.756 87.8664 66.7157 87.9108C66.7036 87.9269 66.6915 87.943 66.6794 87.9591C66.6351 88.0075 66.5867 88.0518 66.5303 88.0841L67.7393 87.3828C67.977 87.2458 68.1262 86.9879 68.1262 86.7139L68.2027 57.1377C68.2027 56.1785 67.6949 55.296 66.8648 54.8164H66.8607Z" fill="#0042C8"/>
<path fill-rule="evenodd" clip-rule="evenodd" d="M66.7983 54.7091C66.8172 54.6982 66.8387 54.6924 66.8605 54.6924H66.8646C66.8863 54.6924 66.9077 54.6981 66.9265 54.709C67.7951 55.2108 68.3263 56.1343 68.3263 57.1375L68.3263 57.1378L68.2498 86.7136C68.2498 86.7136 68.2498 86.7137 68.2498 86.7136M67.8009 87.4899L66.5973 88.188C66.5953 88.1891 66.5934 88.1902 66.5915 88.1913C66.5323 88.2252 66.4568 88.2047 66.4228 88.1456C66.3887 88.0865 66.4089 88.011 66.4679 87.9767L66.4686 87.9763C66.47 87.9756 66.4713 87.9748 66.4726 87.9741C66.5106 87.9516 66.5466 87.9198 66.5839 87.8796L66.6164 87.8363C66.6187 87.8332 66.6212 87.8301 66.6238 87.8273C66.6561 87.7917 66.685 87.75 66.7076 87.702C66.7338 87.6427 66.7549 87.5749 66.7732 87.4967C66.7735 87.4915 66.7741 87.4864 66.775 87.4814C66.7901 87.398 66.8012 87.3049 66.8012 87.2093L66.8012 87.209L66.8778 57.8911C66.8778 57.891 66.8778 57.8911 66.8778 57.8911C66.8777 57.791 66.8666 57.6848 66.8508 57.5744C66.8359 57.4735 66.8094 57.3668 66.7777 57.2561C66.7752 57.2472 66.7737 57.238 66.7732 57.2288C66.7439 57.1327 66.708 57.0362 66.6652 56.9394C66.6649 56.939 66.6646 56.9384 66.6642 56.9377C66.6627 56.9353 66.6581 56.9276 66.654 56.9177C66.6531 56.9154 66.6521 56.9129 66.6511 56.91C66.6219 56.8465 66.5908 56.7876 66.5574 56.7245C66.5482 56.7071 66.5388 56.6893 66.5292 56.671L66.5281 56.669C66.5127 56.6381 66.4964 56.6108 66.4771 56.5784C66.4693 56.5653 66.461 56.5514 66.4521 56.5362C66.4211 56.4859 66.3867 56.4324 66.3525 56.383L66.2581 56.2531C66.2546 56.2487 66.2511 56.2443 66.2477 56.24C66.1916 56.1688 66.1421 56.1061 66.0865 56.0469L66.0766 56.0369C66.0762 56.0366 66.0761 56.0365 66.0761 56.0365L66.0759 56.0363L66.0736 56.034C65.9989 55.9556 65.9254 55.8855 65.8495 55.8232C65.8422 55.8192 65.8353 55.8144 65.8289 55.8089C65.7504 55.7417 65.6643 55.6818 65.5785 55.6333C65.5399 55.6114 65.5159 55.5706 65.5156 55.5262C65.5154 55.4818 65.5389 55.4407 65.5772 55.4184L66.7983 54.7091M66.2519 55.8621L66.263 55.8732L66.2656 55.8759C66.3294 55.9437 66.3856 56.015 66.4407 56.0848C66.4451 56.0904 66.4495 56.096 66.454 56.1016C66.455 56.1029 66.4559 56.1042 66.4569 56.1055L66.5553 56.2408C66.5932 56.2955 66.6306 56.3539 66.6637 56.4076L66.6652 56.4101C66.6716 56.421 66.6784 56.4324 66.6854 56.4443C66.7062 56.4791 66.7293 56.5178 66.7491 56.5571C66.7575 56.5731 66.766 56.5893 66.7747 56.6056C66.81 56.6724 66.8468 56.742 66.8805 56.8162C66.881 56.8173 66.8815 56.8183 66.8819 56.8194C66.8834 56.8219 66.885 56.8249 66.8866 56.8282C66.8875 56.8299 66.8883 56.8316 66.889 56.8333C66.9395 56.9468 66.9817 57.0606 67.0155 57.1748C67.0184 57.1845 67.02 57.1944 67.0205 57.2044C67.0515 57.3142 67.0794 57.4273 67.0958 57.5384L67.0959 57.5391C67.1124 57.6542 67.1254 57.7737 67.1254 57.8911L67.1254 57.8914L67.0488 87.2093C67.0488 87.2093 67.0488 87.2094 67.0488 87.2093M66.9798 87.6798L67.6772 87.2754C67.8767 87.1604 68.0021 86.9434 68.0021 86.7136L68.0021 86.7133L68.0787 57.1375C68.0787 57.1374 68.0787 57.1375 68.0787 57.1375C68.0787 56.2455 67.6184 55.4231 66.8618 54.9586L65.8763 55.5311C65.9104 55.5559 65.9439 55.5821 65.9764 55.6094C65.9837 55.6136 65.991 55.6187 65.9981 55.6248C66.0865 55.6967 66.1698 55.776 66.2519 55.8621" fill="black"/>
<g clip-path="url(#clip0_470_144)">
<path d="M55.5252 59.4551C52.9646 54.7461 47.2533 52.215 42.7694 53.8053C38.287 55.3957 36.7297 60.5038 39.2903 65.2128C41.851 69.9217 47.5606 72.4512 52.0445 70.8608C56.5285 69.2705 58.0875 64.164 55.5268 59.4534L55.5252 59.4551Z" fill="black"/>
<path d="M49.2125 71.4175C45.3544 71.4175 41.2707 69.0303 39.2183 65.2523C37.8832 62.7948 37.612 60.0918 38.4748 57.8356C39.215 55.9016 40.7315 54.4421 42.7414 53.7288C47.2532 52.1286 53.02 54.6794 55.5953 59.4161C56.9304 61.872 57.2016 64.575 56.3388 66.8313C55.5986 68.7669 54.0821 70.2263 52.0689 70.9397C51.1555 71.2637 50.1897 71.4175 49.2109 71.4175H49.2125ZM45.6044 53.413C44.6419 53.413 43.6941 53.5635 42.797 53.8826C40.8312 54.5796 39.3507 56.0047 38.6267 57.8945C37.7803 60.1066 38.0483 62.7588 39.3605 65.1738C41.8982 69.8418 47.5751 72.3599 52.015 70.7843C53.9808 70.0873 55.463 68.6621 56.1869 66.7707C57.0333 64.5602 56.7653 61.9064 55.4532 59.493C53.4269 55.7691 49.4037 53.413 45.6044 53.413Z" fill="black"/>
<path d="M55.1716 68.692L53.9885 70.1432C53.209 71.0971 52.1567 71.8531 50.8592 72.3128C46.3768 73.9032 40.6656 71.3737 38.105 66.6647C36.2862 63.3187 36.546 59.7699 38.4579 57.4269L39.641 55.9756C37.7291 58.3186 37.4693 61.8675 39.2881 65.2151C41.8487 69.924 47.5583 72.4535 52.0423 70.8632C53.3398 70.4034 54.3938 69.6475 55.1716 68.6936" fill="black"/>
<path d="M48.0293 72.8687C44.1712 72.8687 40.0876 70.4816 38.0335 66.7036C36.2458 63.4149 36.3831 59.8399 38.3946 57.3741L39.5777 55.9229L39.7036 56.0259C37.7361 58.4393 37.6037 61.944 39.3604 65.1738C41.8982 69.8418 47.5751 72.3599 52.0149 70.7843C53.2699 70.3392 54.3108 69.6177 55.1083 68.6392L55.2341 68.7423L54.051 70.1936C53.234 71.1949 52.1685 71.9328 50.8858 72.3893C49.9723 72.7133 49.0065 72.8671 48.0277 72.8671L48.0293 72.8687ZM38.7541 57.1925L38.5221 57.4772C36.5546 59.8906 36.4223 63.3953 38.1789 66.6251C40.7167 71.2931 46.3936 73.8112 50.8335 72.2355C52.0885 71.7905 53.1294 71.0689 53.9268 70.0905L54.167 69.796C53.5543 70.2787 52.8532 70.6615 52.0705 70.9397C47.5587 72.5399 41.7919 69.9891 39.2182 65.2523C37.7165 62.4921 37.5727 59.5306 38.7541 57.1925Z" fill="black"/>
<path d="M48.2875 58.6113L49.5229 60.8856L48.4411 61.2701L47.2041 58.9942L48.2875 58.6113Z" fill="black"/>
<path d="M44.4997 59.9541L45.7368 62.2284L44.6534 62.6129L43.418 60.3386L44.4997 59.9541Z" fill="black"/>
<path d="M51.9592 61.0391L53.2159 63.351L44.4031 66.4761L43.1465 64.1642L44.2283 63.7813L44.8966 65.0117L51.5458 62.654L50.8758 61.4236L51.9592 61.0391Z" fill="black"/>
</g>
<g clip-path="url(#clip1_470_144)">
<path d="M54.2869 57.2265C51.7263 52.5176 46.0151 49.9865 41.5311 51.5768C37.0487 53.1672 35.4914 58.2753 38.0521 62.9842C40.6127 67.6932 46.3223 70.2227 50.8063 68.6323C55.2903 67.042 56.8492 61.9355 54.2885 57.2249L54.2869 57.2265Z" fill="#99DEFF"/>
<path d="M47.9742 69.1889C44.1161 69.1889 40.0325 66.8018 37.98 63.0238C36.6449 60.5663 36.3737 57.8633 37.2365 55.607C37.9767 53.6731 39.4932 52.2136 41.5031 51.5002C46.0149 49.9001 51.7817 52.4509 54.357 57.1876C55.6921 59.6435 55.9634 62.3465 55.1006 64.6027C54.3603 66.5383 52.8439 67.9978 50.8306 68.7112C49.9172 69.0351 48.9514 69.1889 47.9726 69.1889H47.9742ZM44.3661 51.1845C43.4036 51.1845 42.4558 51.335 41.5587 51.654C39.5929 52.3511 38.1124 53.7762 37.3885 55.6659C36.542 57.8781 36.81 60.5303 38.1222 62.9453C40.66 67.6133 46.3368 70.1314 50.7767 68.5557C52.7425 67.8587 54.2247 66.4336 54.9486 64.5422C55.7951 62.3317 55.5271 59.6779 54.2149 57.2645C52.1886 53.5406 48.1654 51.1845 44.3661 51.1845Z" fill="black"/>
<path d="M53.9333 66.4634L52.7502 67.9147C51.9707 68.8686 50.9184 69.6245 49.6209 70.0843C45.1385 71.6747 39.4273 69.1451 36.8667 64.4362C35.0479 61.0902 35.3078 57.5414 37.2197 55.1984L38.4028 53.7471C36.4908 56.0901 36.231 59.6389 38.0498 62.9866C40.6104 67.6955 46.32 70.225 50.804 68.6346C52.1015 68.1749 53.1555 67.419 53.9333 66.4651" fill="#00ABFF"/>
<path d="M46.7911 70.6402C42.9329 70.6402 38.8493 68.253 36.7952 64.4751C35.0075 61.1864 35.1448 57.6113 37.1564 55.1456L38.3394 53.6943L38.4653 53.7974C36.4978 56.2108 36.3654 59.7155 38.1221 62.9453C40.6599 67.6133 46.3368 70.1314 50.7766 68.5557C52.0316 68.1107 53.0726 67.3891 53.87 66.4107L53.9958 66.5138L52.8127 67.9651C51.9957 68.9664 50.9302 69.7043 49.6475 70.1608C48.734 70.4848 47.7682 70.6386 46.7894 70.6386L46.7911 70.6402ZM37.5159 54.964L37.2838 55.2487C35.3164 57.6621 35.184 61.1668 36.9407 64.3966C39.4784 69.0646 45.1553 71.5827 49.5952 70.007C50.8502 69.562 51.8911 68.8404 52.6885 67.862L52.9288 67.5675C52.316 68.0502 51.6149 68.433 50.8322 68.7112C46.3204 70.3114 40.5537 67.7606 37.9799 63.0238C36.4782 60.2636 36.3344 57.3021 37.5159 54.964Z" fill="black"/>
<path d="M47.0492 56.3828L48.2846 58.6571L47.2028 59.0416L45.9658 56.7657L47.0492 56.3828Z" fill="black"/>
<path d="M43.2615 57.7256L44.4985 59.9999L43.4151 60.3844L42.1797 58.1101L43.2615 57.7256Z" fill="black"/>
<path d="M50.7209 58.8105L51.9776 61.1225L43.1648 64.2476L41.9082 61.9356L42.99 61.5528L43.6583 62.7832L50.3075 60.4255L49.6375 59.195L50.7209 58.8105Z" fill="black"/>
</g>
<path d="M48.8467 50.2285L57.6721 55.1809V79.6952L48.8467 74.8215V50.2285Z" fill="#2781FF"/>
<defs>
<clipPath id="clip0_470_144">
<rect width="20.0521" height="19.6178" fill="white" transform="translate(36.7832 53.251)"/>
</clipPath>
<clipPath id="clip1_470_144">
<rect width="20.0521" height="19.6178" fill="white" transform="translate(35.5449 51.0225)"/>
</clipPath>
</defs>
</svg>
