<svg width="150" height="171" viewBox="0 0 150 171" fill="none" xmlns="http://www.w3.org/2000/svg">
<g clip-path="url(#clip0_270_3028)">
<path d="M37.0353 72.2874C56.5789 72.2874 72.4221 56.4441 72.4221 36.9005C72.4221 17.3569 56.5789 1.51367 37.0353 1.51367C17.4917 1.51367 1.64844 17.3569 1.64844 36.9005C1.64844 56.4441 17.4917 72.2874 37.0353 72.2874Z" fill="#C9FF00"/>
<path d="M37.0353 72.9767C17.1522 72.9767 0.972656 56.7972 0.972656 36.9005C0.972656 17.0039 17.1522 0.83783 37.0353 0.83783C56.9185 0.83783 73.098 17.0174 73.098 36.9005C73.098 56.7836 56.9185 72.9632 37.0353 72.9632V72.9767ZM37.0353 2.1895C17.8956 2.1895 2.32433 17.7608 2.32433 36.9005C2.32433 56.0402 17.8956 71.6115 37.0353 71.6115C56.175 71.6115 71.7463 56.0402 71.7463 36.9005C71.7463 17.7608 56.175 2.1895 37.0353 2.1895Z" fill="black"/>
<path d="M108.404 170.298V151.888L113.013 139.047C114.5 134.884 115.27 130.504 115.27 126.084V102.754C115.27 98.7399 112.337 95.1579 108.35 94.7795C103.767 94.3469 99.9151 97.9289 99.9151 102.416V99.5238C99.9151 95.5094 96.982 91.9274 92.9946 91.549C88.4124 91.1164 84.5601 94.6984 84.5601 99.1859V94.1036C84.5601 90.0892 81.627 86.5072 77.6395 86.1287C73.0573 85.6962 69.2051 89.2782 69.2051 93.7657V66.989C69.2051 62.9746 66.2719 59.3926 62.2845 59.0142C57.7023 58.5816 53.85 62.1636 53.85 66.6511V116.92L39.7926 99.267C37.292 96.1311 32.7774 95.1579 29.4118 97.3477C25.5595 99.8618 24.7755 105.066 27.5735 108.58L57.0265 145.927V170.271H108.417L108.404 170.298Z" fill="black"/>
<path d="M69.881 90.6706H68.5293V107.877H69.881V90.6706Z" fill="black"/>
<path d="M85.2364 99.1859H83.8848V109.418H85.2364V99.1859Z" fill="black"/>
<path d="M100.592 101.335H99.2402V111.567H100.592V101.335Z" fill="black"/>
<path d="M102.701 164.593V146.183L107.31 133.342C108.797 129.179 109.567 124.8 109.567 120.38V97.05C109.567 93.0355 106.634 89.4536 102.646 89.0751C98.0643 88.6426 94.212 92.2245 94.212 96.7121V93.8195C94.212 89.805 91.2789 86.2231 87.2914 85.8446C82.7092 85.4121 78.857 88.994 78.857 93.4816V88.3993C78.857 84.3848 75.9238 80.8029 71.9364 80.4244C67.3542 79.9919 63.5019 83.5738 63.5019 88.0614V61.2847C63.5019 57.2702 60.5688 53.6883 56.5814 53.3098C51.9992 52.8773 48.1469 56.4592 48.1469 60.9468V111.216L34.0895 93.5627C31.5889 90.4268 27.0743 89.4536 23.7086 91.6433C19.8564 94.1574 19.0724 99.3614 21.8704 102.876L51.3234 140.223V164.566H102.714L102.701 164.593Z" fill="white"/>
<path d="M102.7 165.269H51.3094L50.6335 164.593V140.479L21.3292 103.322C19.8694 101.484 19.2476 99.1046 19.6261 96.7797C20.0046 94.4278 21.3292 92.4138 23.3297 91.1026C26.8846 88.7913 31.8317 89.6969 34.6027 93.1707L47.4571 109.31V60.9738C47.4571 58.6219 48.4573 56.3781 50.1875 54.7967C51.9446 53.1882 54.2425 52.4312 56.6214 52.661C60.8522 53.0665 64.1503 56.8647 64.1503 61.3117V83.5333C64.5423 82.9385 65.0018 82.3843 65.529 81.8977C67.2862 80.2892 69.584 79.5323 71.9629 79.7621C76.1802 80.1676 79.4918 83.9658 79.4918 88.4128V88.94C79.8838 88.3452 80.3433 87.791 80.8705 87.3044C82.6277 85.6959 84.9255 84.939 87.3045 85.1688C91.0486 85.5202 94.0899 88.5615 94.7116 92.3462C95.1171 91.6703 95.6308 91.0621 96.212 90.5214C97.9692 88.9129 100.267 88.156 102.646 88.3858C106.863 88.7913 110.175 92.5895 110.175 97.0365V120.366C110.175 124.867 109.404 129.314 107.877 133.559L103.308 146.292V164.58L102.632 165.256L102.7 165.269ZM51.9852 163.917H102.024L102.065 145.954L106.674 133.113C108.147 129.017 108.891 124.732 108.891 120.38V97.05C108.891 93.2924 106.12 90.0889 102.578 89.751C100.578 89.5617 98.6585 90.197 97.1717 91.5352C95.7119 92.8598 94.8738 94.7522 94.8738 96.7121H93.5222V93.8195C93.5222 90.0619 90.7512 86.8584 87.2098 86.5205C85.2094 86.3312 83.29 86.9665 81.8031 88.3047C80.3433 89.6293 79.5053 91.5217 79.5053 93.4816H78.1536V88.3993C78.1536 84.6416 75.3827 81.4382 71.8413 81.1003C69.8408 80.911 67.9214 81.5463 66.4346 82.8845C64.9748 84.2091 64.1367 86.1014 64.1367 88.0614H62.7851V61.2847C62.7851 57.527 60.0141 54.3236 56.4728 53.9857C54.4723 53.7964 52.5529 54.4317 51.0796 55.7699C49.6198 57.0945 48.7817 58.9869 48.7817 60.9468V111.216L47.5787 111.635L33.5213 93.9817C31.1829 91.0486 27.0198 90.2646 24.0326 92.1975C22.343 93.2924 21.2481 94.9819 20.9237 96.9554C20.6128 98.9018 21.1265 100.902 22.3565 102.443L51.8095 139.79L51.9582 140.209V163.877L51.9852 163.917Z" fill="black"/>
<path d="M64.1642 84.9661H62.8125V102.173H64.1642V84.9661Z" fill="black"/>
<path d="M79.5196 93.4816H78.168V103.714H79.5196V93.4816Z" fill="black"/>
<path d="M94.8732 95.6309H93.5215V105.863H94.8732V95.6309Z" fill="black"/>
<path d="M48.3346 24.357H42.2656V35.1434H48.3346V24.357Z" fill="black"/>
<path d="M31.8171 24.357H25.748V35.1434H31.8171V24.357Z" fill="black"/>
<path d="M17.1523 48.2816V37.3331H23.2214V42.4424H50.8496V37.3331H56.9186V48.2816H17.1523Z" fill="black"/>
<path d="M148.183 38.4277L127.908 18.139V29.6418H84.654V18.139L64.3789 38.4277L84.654 58.7028V47.2136H127.908V58.7028L148.183 38.4277Z" fill="#FF5600"/>
<path d="M85.3306 60.3383L63.4199 38.4277L85.3306 16.517V28.966H127.246V16.517L149.157 38.4277L127.246 60.3383V47.8894H85.3306V60.3383ZM83.9789 46.5377H128.598V57.0808L147.237 38.4277L128.598 19.7746V30.3176H83.9789V19.7746L65.3393 38.4277L83.9789 57.0808V46.5377Z" fill="black"/>
</g>
<defs>
<clipPath id="clip0_270_3028">
<rect width="148.171" height="169.459" fill="white" transform="translate(0.972656 0.83783)"/>
</clipPath>
</defs>
</svg>
