<svg width="117" height="165" viewBox="0 0 117 165" fill="none" xmlns="http://www.w3.org/2000/svg">
<g clip-path="url(#clip0_2_233)">
<path d="M61.6347 39.822L6.46204 71.3278V133.535L61.5666 165L116.685 133.535V71.3278L61.6347 39.822Z" fill="black"/>
<path d="M0 129.65V67.4151L54.8046 35.9093L109.486 67.4151V129.65L54.7501 161.115L0 129.65Z" fill="black"/>
<path d="M55.568 98.8937L55.5135 159.015L107.905 128.723L107.96 68.5057L55.568 98.8937Z" fill="#0062FF"/>
<path d="M1.52734 128.6L53.9871 159.015V99.0027L1.52734 68.5875V128.6Z" fill="#0062FF"/>
<path d="M2.80841 67.6332L54.7501 97.7485L106.596 67.6332L54.7501 37.6407L2.80841 67.6332Z" fill="#0062FF"/>
<path d="M34.9686 67.1834H41.4307L41.4443 58.3628L57.2177 58.431V54.9L34.9959 54.7773L34.9686 67.1834Z" fill="black"/>
<path d="M52.4052 76.781L74.5179 76.7264V64.4976L68.1922 64.484L68.2058 73.2228L52.4052 73.2364V76.781Z" fill="black"/>
<path d="M10.5792 105.71V101.961C11.8334 102.629 12.815 102.874 13.4557 102.575C14.151 102.247 14.3828 101.32 14.3828 100.025V96.1261C14.3828 93.2087 15.228 92.1317 16.5368 92.009C17.8183 91.8863 19.6451 92.6497 21.9218 93.8903V96.8487C20.6676 96.2079 19.7678 96.0034 19.1816 96.3443C18.5408 96.7124 18.4045 97.6667 18.4045 98.8664V103.597C18.4045 104.483 18.2137 105.165 17.6683 105.492C17.1094 105.833 16.1414 105.86 14.4237 105.247L14.0556 105.11V106.365L14.4237 106.637C16.1551 107.946 17.1367 109.05 17.682 110.005C18.2273 110.945 18.4045 111.818 18.4045 112.717V117.448C18.4045 118.661 18.5545 119.793 19.1952 120.87C19.7814 121.852 20.6812 122.656 21.9218 123.419V126.391C19.6315 125.096 17.8047 123.828 16.5232 122.274C15.2008 120.679 14.3692 118.661 14.3555 115.744V111.845C14.3555 110.55 14.1101 109.364 13.3876 108.246C12.7468 107.251 11.8062 106.433 10.5656 105.696L10.5792 105.71Z" fill="black"/>
<path d="M39.8765 117.203C40.5172 118.225 41.4852 119.043 42.7394 119.793V123.569C41.5124 122.942 40.5717 122.71 39.9174 122.983C39.1948 123.297 38.9494 124.224 38.9494 125.519V129.418C38.9494 132.335 38.1042 133.412 36.7954 133.535C35.5139 133.658 33.6735 132.894 31.3831 131.667V128.709C32.6374 129.35 33.5371 129.554 34.1233 129.213C34.7641 128.845 34.9004 127.864 34.9004 126.637V121.906C34.9004 121.02 35.0913 120.338 35.6366 120.011C36.1956 119.67 37.1635 119.643 38.8813 120.257L39.2494 120.393V119.139L38.8813 118.866C37.1499 117.557 36.1683 116.453 35.623 115.499C35.0777 114.558 34.9004 113.685 34.9004 112.786V108.055C34.9004 106.842 34.7505 105.724 34.1097 104.647C33.5235 103.679 32.6237 102.888 31.3831 102.138V99.1526C33.6735 100.448 35.5003 101.716 36.7818 103.256C38.1042 104.838 38.9358 106.842 38.9494 109.773V113.672C38.9494 114.953 39.1812 116.126 39.8628 117.23L39.8765 117.203Z" fill="black"/>
<path d="M80.3528 127.496L80.0938 127.523C79.9302 127.523 79.7666 127.537 79.603 127.537C79.2349 127.537 78.8396 127.509 78.4306 127.441C77.8444 127.346 77.34 127.196 76.9173 127.005L76.7537 126.923L72.064 131.163L68.7784 126.528L72.991 121.402L72.9638 121.279C72.9092 121.006 72.882 120.72 72.8547 120.407C72.8274 120.079 72.8274 119.779 72.8274 119.479C72.8274 119.18 72.8274 118.88 72.8547 118.552C72.882 118.212 72.9092 117.871 72.9638 117.516L72.991 117.298L68.7921 115.839L72.1867 108.137L76.9037 108.26L76.9855 108.15C77.4627 107.537 77.9943 106.923 78.5806 106.31C79.1531 105.71 79.7257 105.192 80.2574 104.783L80.3528 104.715L81.089 98.9891L87.7556 96.0853L88.4645 101.089C88.4645 101.089 89.0098 101.061 89.1461 101.061C89.5687 101.061 89.9777 101.089 90.3731 101.157C90.9048 101.239 91.3956 101.388 91.8455 101.607L92.009 101.688L96.767 97.4486L100.039 102.043L95.7581 107.21L95.7854 107.346C95.8535 107.632 95.8944 107.919 95.9081 108.232C95.9217 108.546 95.9354 108.846 95.9354 109.146C95.9354 109.446 95.9353 109.732 95.9081 110.059C95.8808 110.373 95.8399 110.727 95.7717 111.109L95.7309 111.341L99.9707 112.772L96.5761 120.516L91.8182 120.352L91.7364 120.461C91.2456 121.102 90.7275 121.715 90.1822 122.301C89.6369 122.888 89.078 123.392 88.5326 123.815L88.4372 123.883L87.7147 129.595L81.0481 132.499L80.3256 127.496H80.3528ZM86.2968 108.409C85.6833 108.409 85.0017 108.573 84.2791 108.887C82.8749 109.5 81.6616 110.55 80.68 112.009C79.6985 113.467 79.2077 114.953 79.2077 116.439C79.2077 117.925 79.7394 119.07 80.7755 119.711C81.2935 120.025 81.8661 120.188 82.4932 120.188C83.1203 120.188 83.7884 120.025 84.5109 119.711C85.9151 119.098 87.1284 118.048 88.11 116.589C89.0916 115.131 89.5824 113.631 89.5824 112.159C89.5824 110.686 89.0507 109.527 88.0146 108.887C87.4965 108.573 86.9239 108.409 86.2968 108.409Z" fill="black"/>
<path d="M26.4204 0H53.8772L67.7556 24.144L53.8772 48.3017H26.4204L12.542 24.144L26.4204 0Z" fill="black"/>
<path d="M39.8629 24.6895H14.042L27.0751 47.2248H52.9233L39.8629 24.6895Z" fill="#C9FF00"/>
<path d="M39.7811 24.8258L52.6915 47.0884H27.1569L14.2874 24.8258H39.7811ZM39.8629 24.6895H14.042L27.0751 47.2248H52.9233L39.8492 24.6895H39.8629Z" fill="black"/>
<path d="M27.0751 1.07715L14.042 23.6125H39.8629L52.896 1.07715H27.0751Z" fill="#C9FF00"/>
<path d="M52.6506 1.21348L39.7811 23.4761H14.2874L27.1569 1.21348H52.6506ZM52.8824 1.07715H27.0751L14.042 23.6125H39.8492L52.896 1.07715H52.8824Z" fill="black"/>
<path d="M53.6594 1.84033L40.7353 24.1439L53.6594 46.4202L66.5425 24.1439L53.6594 1.84033Z" fill="#C9FF00"/>
<path d="M53.6594 2.11299L66.379 24.1439L53.6594 46.1475L40.8853 24.1439L53.6594 2.11299ZM53.6594 1.84033L40.7217 24.1439L53.6594 46.4202L66.5426 24.1439L53.6594 1.84033Z" fill="black"/>
<path d="M40.9801 16.9731L25.793 7.75719L27.1017 5.65771L42.2889 14.8736L40.9801 16.9731Z" fill="black"/>
<path d="M88.6225 31.7014L88.4346 31.7346L88.3532 31.9012L80.5681 47.091L74.498 12.6948L105.555 28.9625L88.636 31.699L88.6225 31.7014Z" fill="#FF5600"/>
<path d="M80.236 49.2123L73.5713 11.4463L107.662 29.2966L88.8725 32.3356L80.2336 49.1989L80.236 49.2123ZM75.3972 13.9482L80.8749 44.988L87.9801 31.1226L103.404 28.6222L75.3972 13.9482Z" fill="black"/>
</g>
<defs>
<clipPath id="clip0_2_233">
<rect width="116.685" height="165" fill="white"/>
</clipPath>
</defs>
</svg>
