<svg width="139" height="150" viewBox="0 0 139 150" fill="none" xmlns="http://www.w3.org/2000/svg">
<g clip-path="url(#clip0_2_266)">
<path d="M138.128 123.458L133.076 104.398L123.564 66.5146C121.582 58.6428 114.512 53.1196 106.393 53.1196H37.1519C29.0323 53.1196 21.9631 58.6428 19.9804 66.5146L10.4682 104.398L5.41706 123.458C2.50203 134.67 9.1346 146.153 20.3108 149.221C30.7318 152.089 41.6602 146.66 45.6492 136.605L50.063 126.515C51.0071 124.367 53.1197 122.986 55.4682 122.986H88.0882C90.4367 122.986 92.5492 124.378 93.4934 126.515L97.9072 136.605C101.896 146.66 112.813 152.089 123.246 149.221C134.422 146.141 141.043 134.67 138.139 123.458H138.128Z" fill="black"/>
<path d="M133.407 118.737L128.356 99.6774L118.843 61.7939C116.861 53.9221 109.792 48.3989 101.672 48.3989H32.4312C24.3116 48.3989 17.2423 53.9221 15.2597 61.7939L5.74746 99.6774L0.684513 118.737C-2.23051 129.949 4.40206 141.432 15.5783 144.5C25.9992 147.368 36.9276 141.939 40.9166 131.884L45.3305 121.794C46.2746 119.646 48.3871 118.265 50.7357 118.265H83.3556C85.7042 118.265 87.8167 119.658 88.7608 121.794L93.1747 131.884C97.1637 141.939 108.08 147.368 118.513 144.5C129.689 141.42 136.31 129.949 133.407 118.737Z" fill="#0062FF"/>
<path d="M101.66 49.5909C109.249 49.5909 115.834 54.7247 117.687 62.0889L127.211 99.9843L132.262 119.044C135 129.571 128.686 140.488 118.194 143.379C116.448 143.863 114.666 144.099 112.872 144.099C104.622 144.099 97.3171 139.142 94.2486 131.424L89.8348 121.334C88.7018 118.761 86.1645 117.097 83.3438 117.097H50.7239C47.915 117.097 45.3659 118.761 44.2329 121.334L39.7955 131.46C36.7506 139.131 29.4453 144.099 21.1959 144.099C19.4021 144.099 17.6082 143.851 15.8733 143.379C5.3816 140.488 -0.920522 129.571 1.80568 119.056L6.86862 99.9843L16.3808 62.1007C18.2337 54.7483 24.8191 49.6027 32.4076 49.6027H101.648M101.648 48.4225H32.4312C24.3116 48.4225 17.2423 53.9457 15.2597 61.8175L5.74746 99.7011L0.684513 118.737C-2.23051 129.949 4.40206 141.432 15.5783 144.5C17.4548 145.02 19.3549 145.268 21.2195 145.268C29.7168 145.268 37.6475 140.134 40.9166 131.884L45.3305 121.794C46.2746 119.646 48.3871 118.265 50.7357 118.265H83.3556C85.7042 118.265 87.8167 119.658 88.7608 121.794L93.1747 131.884C96.4438 140.122 104.375 145.268 112.872 145.268C114.736 145.268 116.637 145.02 118.513 144.5C129.689 141.42 136.31 129.949 133.407 118.737L128.356 99.6775L118.843 61.7939C116.861 53.9221 109.792 48.3989 101.672 48.3989L101.648 48.4225Z" fill="black"/>
<path d="M75.3777 93.5877C76.6995 93.5877 77.8443 93.0921 78.8239 92.1007C79.8034 91.1094 80.2873 89.9528 80.2873 88.631C80.2873 87.3092 79.7916 86.1645 78.8002 85.1849C77.8089 84.2054 76.6523 83.7215 75.3305 83.7215C74.0088 83.7215 72.864 84.2172 71.8844 85.2085C70.9049 86.1999 70.421 87.3564 70.421 88.6782C70.421 90 70.9167 91.1448 71.908 92.1243C72.8994 93.1039 74.056 93.5877 75.3777 93.5877Z" fill="black"/>
<path d="M89.6346 79.3313C90.9564 79.3313 92.1011 78.8356 93.0807 77.8443C94.0602 76.8529 94.5441 75.6963 94.5441 74.3745C94.5441 73.0528 94.0484 71.908 93.0571 70.9284C92.0657 69.9489 90.9092 69.465 89.5874 69.465C88.2656 69.465 87.1208 69.9607 86.1413 70.952C85.1617 71.9434 84.6779 73.1 84.6779 74.4218C84.6779 75.7435 85.1735 76.8883 86.1649 77.8679C87.1562 78.8474 88.3128 79.3313 89.6346 79.3313Z" fill="black"/>
<path d="M89.6346 107.844C90.9564 107.844 92.1011 107.349 93.0807 106.357C94.0602 105.366 94.5441 104.21 94.5441 102.888C94.5441 101.566 94.0484 100.421 93.0571 99.4416C92.0657 98.4621 90.9092 97.9782 89.5874 97.9782C88.2656 97.9782 87.1208 98.4739 86.1413 99.4652C85.1617 100.457 84.6779 101.613 84.6779 102.935C84.6779 104.257 85.1735 105.402 86.1649 106.381C87.1562 107.361 88.3128 107.844 89.6346 107.844Z" fill="black"/>
<path d="M103.89 93.5876C105.212 93.5876 106.357 93.0919 107.337 92.1006C108.316 91.1093 108.8 89.9527 108.8 88.6309C108.8 87.3091 108.304 86.1643 107.313 85.1848C106.322 84.2052 105.165 83.7214 103.843 83.7214C102.521 83.7214 101.377 84.217 100.397 85.2084C99.4176 86.1997 98.9337 87.3563 98.9337 88.6781C98.9337 89.9999 99.4294 91.1447 100.421 92.1242C101.412 93.1037 102.569 93.5876 103.89 93.5876Z" fill="black"/>
<path d="M42.6397 85.7278V73.2534H36.8923V85.7278H24.4178V91.487H36.8923V103.961H42.6397V91.487H55.1141V85.7278H42.6397Z" fill="black"/>
<path d="M13.0645 21.4555V17.1479C14.5161 17.1125 15.6255 16.7821 16.3808 16.0149C17.1833 15.1888 17.4548 13.9732 17.4548 12.4744V7.97797C17.4548 4.61448 18.4225 2.84422 19.9331 1.86467C21.4084 0.908735 23.5091 0.625493 26.1291 0.590088V4.00079C24.6892 4.0598 23.6507 4.40205 22.978 5.15736C22.2463 5.98348 22.0811 7.17545 22.0811 8.55626V14.0087C22.0811 15.0354 21.8686 15.9323 21.2313 16.664C20.594 17.4076 19.4729 18.0685 17.4902 18.4579L17.0653 18.5405V19.9921L17.4902 20.0747C19.4847 20.476 20.6058 21.1251 21.2431 21.8686C21.8686 22.6003 22.0811 23.4972 22.0811 24.524V29.9764C22.0811 31.3808 22.2581 32.5728 22.9898 33.4107C23.6625 34.166 24.6892 34.5201 26.1291 34.6027V38.0134C23.4973 37.978 21.3848 37.6829 19.9095 36.727C18.3871 35.7356 17.4312 33.9536 17.4076 30.5901V26.1054C17.4076 24.6184 17.1243 23.4028 16.2982 22.5767C15.5547 21.845 14.4689 21.5028 13.0527 21.4437L13.0645 21.4555Z" fill="#C9FF00"/>
<path d="M26.731 38.6389H26.1291C22.978 38.5917 21.0189 38.1786 19.5909 37.2463C17.7263 36.0189 16.8411 33.9182 16.8293 30.6255V26.129C16.8293 24.642 16.5343 23.6507 15.897 23.0134C15.3069 22.4233 14.3746 22.1046 13.041 22.0456L12.4745 22.022V16.5696H13.0528C14.4336 16.5106 15.3659 16.2156 15.9678 15.5901C16.5815 14.9528 16.8765 13.9614 16.8765 12.4626V7.96617C16.8765 4.67349 17.7499 2.57278 19.6263 1.3572C21.0425 0.460268 22.9898 0.0472069 26.1291 0H26.731V4.56727L26.1645 4.59087C24.8309 4.64988 23.9576 4.95673 23.4265 5.55862C22.9072 6.1487 22.683 7.04563 22.683 8.56806V14.0205C22.683 15.3068 22.3643 16.2746 21.6916 17.0653C20.8891 18.0094 19.5673 18.6585 17.6791 19.048V19.5319C19.5909 19.9213 20.9009 20.5704 21.7152 21.5146C22.3761 22.2935 22.6948 23.2612 22.6948 24.5594V30.0118C22.6948 31.546 22.919 32.4548 23.4501 33.0567C23.9812 33.6585 24.8427 33.9772 26.1763 34.048L26.731 34.0834V38.6507V38.6389ZM13.6665 20.9127C15.0119 21.0543 16.015 21.4674 16.7349 22.1755C17.6082 23.0488 18.0213 24.2998 18.0213 26.1172V30.6019C18.0331 33.4579 18.7412 35.2518 20.2518 36.2431C21.373 36.9748 23.0252 37.3525 25.5508 37.4233V35.1574C24.1818 35.0039 23.2259 34.5673 22.5532 33.812C21.6208 32.7616 21.5028 31.2864 21.5028 29.9882V24.5358C21.5028 23.5445 21.2786 22.8127 20.8065 22.2581C20.181 21.5264 19.0363 20.9835 17.3958 20.653L16.4989 20.476V18.0567L17.3958 17.8796C19.0244 17.5492 20.1692 17.0063 20.7947 16.2746C21.2786 15.7081 21.5028 14.9882 21.5028 13.9969V8.54445C21.5028 7.24626 21.6208 5.79465 22.5414 4.7561C23.2141 4.00079 24.17 3.57592 25.539 3.4343V1.18017C23.0134 1.25098 21.373 1.61684 20.2518 2.34854C18.7412 3.32809 18.0449 5.11015 18.0449 7.96617V12.4626C18.0449 14.2919 17.6554 15.5429 16.8057 16.4044C16.074 17.1597 15.0591 17.5728 13.6547 17.6908V20.8891L13.6665 20.9127Z" fill="black"/>
<path d="M54.3238 2.44269L45.2128 36.2192H40.4803L49.5913 2.44269H54.3238Z" fill="#004FFF"/>
<path d="M45.6609 36.8096H39.701L49.1306 1.85284H55.0905L45.6609 36.8096ZM41.2471 35.6294H44.764L53.5563 3.03302H50.0394L41.2471 35.6294Z" fill="black"/>
<path d="M117.722 15.9797C118.466 16.7468 119.563 17.0773 121.015 17.1363V21.4793C119.599 21.5383 118.513 21.8688 117.769 22.6005C116.931 23.4266 116.66 24.6422 116.66 26.141V30.6375C116.66 34.0009 115.692 35.7712 114.17 36.7508C112.683 37.7185 110.57 38.0017 107.938 38.0489V34.6382C109.378 34.5792 110.429 34.2252 111.09 33.4699C111.821 32.632 111.986 31.4282 111.986 30.012V24.5596C111.986 23.5328 112.199 22.6359 112.836 21.9042C113.473 21.1607 114.595 20.4998 116.577 20.1103L117.002 20.0277V18.5761L116.577 18.4935C114.583 18.0922 113.462 17.4431 112.824 16.6996C112.199 15.9679 111.986 15.071 111.986 14.0442V8.59182C111.986 7.18742 111.809 5.99544 111.078 5.18112C110.405 4.43761 109.366 4.09536 107.938 4.03635V0.602051C110.57 0.637456 112.683 0.920698 114.158 1.87664C115.669 2.85618 116.636 4.63824 116.66 7.98993V12.4746C116.66 13.9498 116.92 15.1536 117.722 15.9797Z" fill="#C9FF00"/>
<path d="M107.36 38.6625V34.0952L107.927 34.0716C109.261 34.0126 110.134 33.7057 110.665 33.1039C111.184 32.502 111.408 31.5814 111.408 30.0354V24.583C111.408 23.2966 111.727 22.3289 112.4 21.5382C113.202 20.594 114.524 19.9449 116.412 19.5555V19.0716C114.5 18.6821 113.19 18.033 112.376 17.0889C111.715 16.31 111.397 15.3422 111.397 14.0441V8.59166C111.397 7.06924 111.172 6.1605 110.641 5.57042C110.11 4.98033 109.249 4.67349 107.915 4.62628L107.349 4.60267V0H107.951C111.102 0.0472069 113.061 0.460267 114.489 1.3808C116.353 2.59638 117.238 4.69709 117.25 7.98977V12.4862C117.25 13.9732 117.534 14.9528 118.135 15.5783C118.726 16.192 119.646 16.4988 121.027 16.5578L121.593 16.5814V22.0574L121.027 22.081C119.681 22.14 118.773 22.4469 118.171 23.037C117.534 23.6625 117.238 24.6656 117.238 26.1644V30.6609C117.238 33.9536 116.365 36.0543 114.489 37.2699C113.072 38.1904 111.113 38.6153 107.951 38.6625H107.349H107.36ZM108.541 35.2046V37.4587C111.113 37.3643 112.718 37.0102 113.863 36.2667C115.374 35.2872 116.082 33.4933 116.082 30.6491V26.1526C116.082 24.3116 116.495 23.0606 117.368 22.1873C118.076 21.4909 119.091 21.0779 120.437 20.9363V17.6908C119.032 17.561 118.029 17.1361 117.309 16.3926C116.471 15.5311 116.082 14.2801 116.082 12.4744V7.98977C116.07 5.13375 115.362 3.35169 113.851 2.37215C112.718 1.64044 111.113 1.27459 108.541 1.20378V3.49331C109.898 3.63493 110.854 4.04799 111.526 4.7915C112.459 5.83005 112.589 7.30527 112.589 8.60346V14.0559C112.589 15.0708 112.801 15.7671 113.285 16.3336C113.91 17.0653 115.055 17.6082 116.696 17.9386L117.593 18.1157V20.5232L116.696 20.7002C115.067 21.0307 113.922 21.5736 113.297 22.3053C112.813 22.8718 112.589 23.5917 112.589 24.583V30.0354C112.589 31.3454 112.471 32.8324 111.55 33.8828C110.877 34.6499 109.921 35.0747 108.541 35.2164V35.2046Z" fill="black"/>
<path d="M82.6001 35.5702L80.7826 33.9298C77.6433 31.0619 75.0588 28.5836 73.0171 26.5065C70.9754 24.4176 69.3467 22.5647 68.1429 20.9243C66.9274 19.2838 66.0776 17.7968 65.5938 16.4632C65.1099 15.1296 64.8621 13.7842 64.8621 12.427C64.8621 9.77162 65.759 7.54109 67.5411 5.75903C69.3349 3.96517 71.5418 3.08004 74.1736 3.08004C75.8613 3.08004 77.4191 3.4813 78.8471 4.27201C80.2751 5.06273 81.5261 6.2193 82.5883 7.72992C83.8274 6.13669 85.1492 4.95651 86.53 4.2012C87.9108 3.44589 89.4097 3.06824 91.0029 3.06824C93.6347 3.06824 95.8416 3.96517 97.6355 5.74723C99.4293 7.52929 100.314 9.75982 100.314 12.4152C100.314 13.7724 100.067 15.1178 99.5827 16.4514C99.0989 17.785 98.2492 19.272 97.0336 20.9125C95.818 22.5529 94.2012 24.4176 92.1595 26.4947C90.1178 28.5718 87.5332 31.0501 84.3939 33.918L82.5765 35.5584L82.6001 35.5702Z" fill="#FF5600"/>
<path d="M82.6004 36.3612L80.3817 34.3667C77.2542 31.5107 74.6342 28.9969 72.5925 26.9198C70.539 24.8191 68.8868 22.919 67.6594 21.2668C66.4202 19.5909 65.5351 18.0331 65.0276 16.6641C64.5201 15.2715 64.2605 13.8435 64.2605 12.4273C64.2605 9.61844 65.2164 7.23449 67.1165 5.33441C69.0166 3.43433 71.3769 2.47839 74.1621 2.47839C75.9442 2.47839 77.6083 2.90326 79.1307 3.75298C80.4289 4.47289 81.5972 5.48784 82.6122 6.76242C83.757 5.40522 84.9843 4.36667 86.2589 3.68217C87.7341 2.87965 89.3274 2.47839 91.015 2.47839C93.8002 2.47839 96.1724 3.43433 98.0606 5.33441C99.9607 7.22269 100.917 9.61844 100.917 12.4273C100.917 13.8553 100.657 15.2715 100.15 16.6641C99.6421 18.0449 98.757 19.5909 97.5178 21.2668C96.2904 22.919 94.6381 24.8191 92.5846 26.9198C90.5429 29.0087 87.923 31.5107 84.8073 34.3667L82.5886 36.3612H82.6004ZM74.1739 3.65857C71.6838 3.65857 69.6539 4.48469 67.9662 6.17234C66.2786 7.85998 65.4525 9.90168 65.4525 12.4273C65.4525 13.7136 65.6885 15 66.1488 16.2628C66.609 17.5374 67.447 18.9772 68.6153 20.5704C69.8073 22.1755 71.4241 24.0402 73.4422 26.0937C75.4721 28.159 78.0685 30.6491 81.1842 33.4933L82.6004 34.7797L84.0284 33.4933C87.1322 30.6491 89.7404 28.159 91.7585 26.0937C93.7648 24.0402 95.3935 22.1755 96.5854 20.5704C97.7538 18.9772 98.5917 17.5374 99.052 16.2628C99.5123 15 99.7483 13.7136 99.7483 12.4273C99.7483 9.90168 98.9222 7.85998 97.2345 6.17234C95.5469 4.48469 93.517 3.65857 91.0268 3.65857C89.5398 3.65857 88.1236 4.01262 86.8254 4.72072C85.5154 5.42883 84.2526 6.56179 83.0606 8.08422L82.5768 8.70971L82.1165 8.06061C81.1016 6.6326 79.9096 5.52324 78.5642 4.77973C77.2306 4.03622 75.7436 3.65857 74.1739 3.65857Z" fill="black"/>
</g>
<defs>
<clipPath id="clip0_2_266">
<rect width="138.812" height="150" fill="white"/>
</clipPath>
</defs>
</svg>
